<svg width="24" height="24" viewBox="0 0 24 24" fill="none" xmlns="http://www.w3.org/2000/svg">
<path d="M5.98055 5.65361C6.40357 5.88601 6.79228 6.176 7.13555 6.51528C7.44111 6.885 6.92167 7.10195 6.71694 7.3525C4.49555 10.0536 4.36111 13.4147 6.31667 16.3419C6.59472 16.7575 7.25167 17.0692 6.96139 17.7597C6.59167 18.6397 5.79722 18.7681 5.08833 18.0653C2.155 15.1656 2.11222 9.00861 5.00583 6.08139C5.11681 5.93119 5.26518 5.81266 5.43619 5.73761C5.6072 5.66256 5.79488 5.6336 5.98055 5.65361Z" fill="#96C9EC"/>
<path d="M21.1392 12.1742C21.4722 14.3772 20.5556 16.2075 19.2875 17.9186C18.8353 18.5297 18.4228 18.8781 17.5947 18.1631C16.8217 17.4939 17.1119 17.2464 17.5947 16.6536C19.8894 13.9311 19.8894 10.4386 17.5611 7.44111C17.0906 6.83 16.95 6.52444 17.5794 5.99583C18.2089 5.46722 18.6153 5.57722 19.1072 6.15167C20.5556 7.89333 21.4417 9.82444 21.1392 12.1742Z" fill="#77B6E3"/>
<path d="M6.49999 12.0367C6.31055 10.7747 6.98277 9.73889 7.60305 8.69694C8.07666 7.9025 8.62361 7.82 9.43638 8.425C10.3164 9.08805 9.79388 9.42111 9.34472 9.95278C8.24472 11.2483 8.31805 12.8494 9.52499 14.5361C9.78472 14.9028 10.2492 15.1717 9.56166 15.5628C9.08499 15.8347 8.77333 16.5742 8.05527 15.8683C6.98888 14.8172 6.37472 13.6133 6.49999 12.0367Z" fill="#97C9EB"/>
<path d="M17.4572 12.1711C17.6894 13.3933 17.2739 14.4444 16.5405 15.4253C16.0608 16.0853 15.6605 16.3847 14.8264 15.7767C13.9922 15.1686 14.3192 14.8325 14.808 14.2489C15.9692 12.8739 16.0089 11.3033 14.753 9.82444C14.0839 9.03917 14.4994 8.79167 14.9669 8.28139C15.6055 7.58778 15.9264 8.13167 16.2869 8.51972C16.763 8.98814 17.1183 9.56515 17.3221 10.2012C17.526 10.8372 17.5723 11.5132 17.4572 12.1711Z" fill="#79B7E3"/>
<path d="M12.1161 10.1911C13.1 10.2094 14.1694 11.2392 14.0442 12.1711C14.0001 12.6581 13.7862 13.1141 13.4399 13.4593C13.0936 13.8046 12.6369 14.017 12.1497 14.0594C11.2331 14.1878 10.1911 13.0969 10.185 12.1192C10.1842 11.8655 10.2336 11.6142 10.3304 11.3797C10.4272 11.1452 10.5695 10.9322 10.749 10.7529C10.9285 10.5737 11.1417 10.4318 11.3764 10.3353C11.611 10.2389 11.8624 10.1899 12.1161 10.1911Z" fill="#5EA2D7"/>
</svg>
