<svg width="24" height="24" viewBox="0 0 24 24" fill="none" xmlns="http://www.w3.org/2000/svg">
<path d="M11.4164 12.9167C12.9442 12.9167 14.4536 12.9992 15.9661 12.9167C17.1425 12.8556 17.7719 13.1703 17.7994 14.4628C17.8404 15.3189 17.9684 16.1687 18.1814 16.9989C18.3036 17.5489 18.3464 18.2486 19.2692 18.1203C19.8222 18.0439 19.8955 18.49 19.923 18.9239C20.0361 20.7083 18.4778 20.1003 17.6528 20.4517C16.7361 20.8397 16.6414 20.1094 16.5589 19.3792C16.403 18.0286 16.1464 16.6903 15.9325 15.3458C15.5842 14.7164 14.9792 14.9486 14.4597 14.9119C12.7944 14.7897 11.0986 15.1625 9.45471 14.6889C9.45471 11.2544 9.26832 7.82 9.54638 4.38861C9.92527 3.13889 10.8755 2.74778 12.0244 2.90972C12.5355 2.97792 13.0087 3.2165 13.3674 3.58688C13.7262 3.95727 13.9495 4.43781 14.0014 4.95083C14.0942 5.48579 13.9801 6.03602 13.6822 6.48995C13.3843 6.94388 12.9249 7.26753 12.3972 7.39528C11.3186 7.70083 11.2514 8.36083 11.3797 9.22861C12.7853 9.70528 14.258 9.17056 15.6728 9.50972C15.9111 11.2239 15.9111 11.2239 14.2917 11.2331C13.7355 11.2331 13.1794 11.2331 12.6264 11.2331C11.0833 11.2453 11.0833 11.2483 11.4164 12.9167Z" fill="#5BC2EF"/>
<path d="M9.86111 21.1972C7.13861 21.1697 4.8775 19.5992 4.14722 17.3808C3.33139 14.9119 4.07083 12.1314 6.00195 10.6586C6.34417 10.3958 6.79333 9.57695 7.325 10.4081C7.65806 10.9306 8.21111 11.4286 7.29139 12.1681C6.83904 12.5193 6.4674 12.9637 6.20161 13.471C5.93583 13.9783 5.78209 14.5368 5.7508 15.1086C5.71952 15.6805 5.81141 16.2524 6.02026 16.7857C6.22911 17.319 6.55006 17.8012 6.96139 18.1997C8.74583 19.9047 11.4439 19.7825 12.9656 17.7444C13.6072 16.8828 14.1267 16.9133 14.7989 17.3839C15.7614 18.05 14.7989 18.5756 14.4933 18.9667C13.3047 20.5158 11.7097 21.3989 9.86111 21.1972Z" fill="#3EA5DD"/>
<path d="M9.55556 4.36111C9.55556 7.82407 9.55556 11.2769 9.55556 14.7194C9.47917 14.86 9.39056 14.8631 9.29278 14.7378C9.28463 11.6089 9.27037 8.47898 9.25 5.34806C9.25 4.99361 9.25 4.63306 9.55556 4.36111Z" fill="#75A6C4"/>
<path d="M11.4164 12.9167C10.8053 11.4103 10.9489 11.1261 12.4247 11.1017C13.0248 11.0573 13.6274 11.0573 14.2275 11.1017C15.4894 11.2697 15.8439 10.6861 15.6361 9.5525C15.5444 9.4975 15.5139 9.4425 15.5475 9.39361C15.5811 9.34472 15.6117 9.31722 15.6422 9.31722C16.3022 11.0833 16.1189 11.3889 14.3864 11.3889C13.8778 11.4262 13.3672 11.4262 12.8586 11.3889C11.6517 11.2117 11.1933 11.7128 11.4164 12.9167Z" fill="#A8B5C3"/>
<path d="M9.30502 14.75C9.38935 14.7483 9.4733 14.738 9.55557 14.7194C11.2972 14.7194 13.042 14.7194 14.7836 14.7561C15.2297 14.7561 15.847 14.5361 15.9203 15.3306C14.3009 14.75 12.6233 15.2083 10.9825 15.0403C10.4295 14.9822 9.77863 15.3306 9.30502 14.75Z" fill="#A9ADB5"/>
<path d="M15.6422 9.31111C15.6498 9.38935 15.6498 9.46815 15.6422 9.54639C14.2275 9.40278 12.7608 9.92222 11.3858 9.24083L15.6422 9.31111Z" fill="#74A5C3"/>
</svg>
