<svg width="24" height="24" viewBox="0 0 24 24" fill="none" xmlns="http://www.w3.org/2000/svg">
<path d="M15.1289 17.5C15.6942 17.6406 16.4428 17.2342 16.8186 17.8758C17.3913 18.8342 17.8849 19.8378 18.2944 20.8764C18.4381 21.2553 17.8972 21.2064 17.6283 21.2094C13.7233 21.2094 9.82139 21.2094 5.895 21.2094C6.65278 18.2028 7.23334 17.5672 9.21028 17.5C9.32679 17.4028 9.45152 17.3159 9.58306 17.2403C10.625 16.8889 11.6456 17.6558 12.6844 17.2922C12.7578 17.2708 12.8311 17.2556 12.9044 17.2372C13.0524 17.1962 13.2038 17.1686 13.3567 17.1547C13.8192 17.0929 14.2894 17.1219 14.7408 17.2403C14.8757 17.3183 15.0053 17.4051 15.1289 17.5Z" fill="#FFCB2A"/>
<path d="M7.51444 11.9633C7.31889 10.9336 7.20889 10.0567 8.77639 10.13C9.67167 10.1819 10.1911 8.01556 9.48833 7.215C9.09417 6.76583 8.60833 6.39917 7.85667 5.71472C9.82444 5.47028 11.5233 5.28083 11.7494 2.96472C12.5317 4.79806 13.6439 5.79722 15.4467 5.61083C15.5872 6.22194 15.1747 6.39 14.9242 6.55194C13.7233 7.32194 13.9403 8.41889 14.2 9.50972C14.4719 10.6494 15.4497 10.0017 16.0975 10.2003C16.2685 10.2737 16.4314 10.3648 16.5833 10.4722C16.0639 10.9703 15.3917 10.9214 14.75 10.9275C13.0878 10.9458 11.4225 10.9275 9.75722 10.9275C8.99944 10.9275 8.36083 11.1047 7.98194 11.8258C7.93439 11.902 7.86052 11.9581 7.77434 11.9835C7.68817 12.0088 7.59568 12.0017 7.51444 11.9633Z" fill="#FFD655"/>
<path d="M7.76195 11.9297C7.53278 10.7869 7.99111 10.4264 9.14611 10.46C11.6272 10.5303 14.1114 10.46 16.5925 10.46C16.7315 10.9589 16.7389 11.4852 16.6139 11.9878C16.0578 12.3789 15.355 11.9878 14.7806 12.3239C14.2477 12.4577 13.6958 12.499 13.1489 12.4461C11.9603 12.3636 10.7625 12.5989 9.57695 12.3483C9.03306 11.9542 8.29056 12.4125 7.76195 11.9297Z" fill="#FECC2F"/>
<path d="M7.76195 11.9297L9.53417 12.0489C9.91821 12.9056 10.1185 13.8333 10.1222 14.7722C10.1259 15.711 9.93286 16.6403 9.55556 17.5H9.21028C9.22556 16.5528 9.16751 15.5964 9.27139 14.6583C9.43028 13.2314 9.27139 12.0947 7.51445 11.9542C7.59775 11.964 7.68218 11.9557 7.76195 11.9297Z" fill="#CAB16B"/>
<path d="M14.7958 12.0611L16.6292 11.9786C15.077 12.2567 14.9058 13.32 15.0495 14.6369C15.1533 15.5872 15.1167 16.5528 15.1442 17.5092L14.75 17.5C14.032 15.6667 13.9586 13.8669 14.7958 12.0611Z" fill="#BBB2A2"/>
<path d="M9.55556 17.5V12.0611L13.2222 12.0214C13.5896 12.8917 13.7789 13.8267 13.7789 14.7714C13.7789 15.716 13.5896 16.6511 13.2222 17.5214H12.9167C12.3422 16.8736 12.5439 16.0792 12.4919 15.3306C12.44 14.5819 12.6172 13.8272 12.2322 13.0389C11.3889 14.7958 11.6944 16.4947 12.9167 17.5C11.7769 18.3494 10.6647 17.2219 9.55556 17.5Z" fill="#F5D360"/>
<path d="M13.2222 17.5C13.2222 15.6667 13.2222 13.8333 13.2222 12L14.7989 12.0397C14.7785 13.8669 14.7622 15.687 14.75 17.5H13.2222Z" fill="#FDD658"/>
<path d="M13.6561 10.1269H10.3439C11.4469 8.74278 12.4675 9.13083 13.6561 10.1269Z" fill="#F8F6F1"/>
</svg>
