<svg width="24" height="24" viewBox="0 0 24 24" fill="none" xmlns="http://www.w3.org/2000/svg">
<path d="M1.0214 22.9786C1.0214 15.9722 1.03363 8.94443 1.00002 1.935C1.00002 1.17722 1.16807 1 1.93501 1C8.645 1.03463 15.354 1.03463 22.0619 1C22.8228 1 23 1.16806 23 1.935C22.9674 8.64499 22.9674 15.355 23 22.065C23 22.8227 22.8319 23.003 22.065 23C15.0555 22.9664 8.02778 22.9786 1.0214 22.9786Z" fill="#FFFEFF"/>
<path d="M2.89446 16.0089V11.9358C3.44446 11.4653 4.11668 11.5203 4.76751 11.5172C9.6075 11.5009 14.4465 11.5101 19.2844 11.5447C19.9414 11.5447 20.6044 11.5141 21.1391 12.003C21.1391 14.643 21.1116 17.283 21.1391 19.92C21.1391 20.8183 20.9008 21.1758 19.9444 21.1697C14.6644 21.133 9.38546 21.133 4.10751 21.1697C3.1389 21.1666 2.7539 20.8611 2.83335 19.8589C2.90362 19.0522 2.87918 18.2394 2.89751 17.4144C3.31918 17.0447 3.84473 17.0875 4.34584 17.0844C6.88501 17.0844 9.42417 17.0539 11.9603 17.0844C12.7761 17.0844 13.8242 16.9072 13.4514 18.4166C13.2956 19.0277 13.8119 19.0461 14.2061 18.7222C14.7948 18.2384 15.3398 17.7036 15.8347 17.1241C15.9007 17.0628 15.9524 16.9877 15.986 16.9041C16.0196 16.8205 16.0343 16.7306 16.029 16.6406C16.0237 16.5507 15.9987 16.463 15.9556 16.3839C15.9125 16.3048 15.8524 16.2362 15.7797 16.183C15.2983 15.6563 14.7883 15.1565 14.2519 14.6858C13.7019 14.2214 13.2069 14.0747 13.2619 15.0922C13.3047 15.9386 12.6906 15.9783 12.1467 15.9875C9.07583 16.0608 5.98362 16.125 2.89446 16.0089Z" fill="#D5C8E3"/>
<path d="M2.90363 6.44499C2.89446 2.42083 2.40863 2.91277 6.4664 2.89444C10.7442 2.87305 15.0006 2.95861 19.2661 2.85472C20.8336 2.815 21.405 3.31305 21.2003 4.84083C21.1554 5.39779 21.1441 5.95695 21.1667 6.51527C20.6289 6.99499 19.9628 6.99193 19.3028 6.99499C14.4506 7.00721 9.59732 7.00721 4.74307 6.99499C4.0739 6.98888 3.39557 7.00721 2.90363 6.44499Z" fill="#9175B5"/>
<path d="M21.1666 12L2.90668 11.9358C2.90668 11.0589 2.90668 10.1789 2.90668 9.30193C3.06251 8.24777 3.76834 7.89332 4.74001 7.88721C9.62889 7.84749 14.5178 7.83832 19.4219 7.88721C20.1064 7.88721 20.7205 8.08277 21.1116 8.71221C21.1116 9.81221 21.13 10.9091 21.1666 12Z" fill="#9175B5"/>
<path d="M21.0903 8.71832C20.5367 8.47683 19.9371 8.359 19.3333 8.37304C14.478 8.38832 9.62584 8.39749 4.77057 8.37304C3.94251 8.37304 3.28251 8.50749 2.90363 9.30499V6.4511L21.1666 6.51527C21.13 7.2486 21.1116 7.98193 21.0903 8.71832Z" fill="#D6C8E3"/>
<path d="M2.89445 16.0089C3.63084 15.4955 4.46806 15.7247 5.25945 15.7186C7.83834 15.688 10.4172 15.7186 12.9472 15.7186C13.1214 15.3275 12.8953 15.1533 12.7639 14.9516C12.4064 14.3955 12.8647 14.1236 13.1703 13.8119C13.5828 13.3903 13.8914 13.6775 14.1908 13.983L14.6217 14.4108C16.9683 16.7269 16.9805 16.7391 14.5789 19.0461C14.2275 19.3822 13.9983 20.2286 13.158 19.5075C12.3178 18.7864 12.8097 18.3097 13.6378 17.4389H2.90668C2.90057 16.953 2.89751 16.4825 2.89445 16.0089Z" fill="#9175B5"/>
<path d="M14.75 4.59944C14.7194 5.31444 14.3894 5.62305 13.7967 5.59555C13.2955 5.58333 12.9167 5.30527 12.9808 4.75833C12.9919 4.50571 13.1007 4.26728 13.2843 4.09339C13.4679 3.9195 13.7119 3.82376 13.9647 3.82638C14.5208 3.80194 14.698 4.22361 14.75 4.59944Z" fill="#61479C"/>
<path d="M17.5 4.70944C17.4572 5.33888 17.115 5.6261 16.5283 5.59249C16.0211 5.55888 15.6575 5.28694 15.7308 4.73694C15.7466 4.48407 15.8598 4.24719 16.0468 4.07619C16.2337 3.9052 16.4798 3.81345 16.733 3.82027C17.2739 3.82638 17.4755 4.22666 17.5 4.70944Z" fill="#61479C"/>
<path d="M20.25 4.69722C20.2317 5.28083 19.9444 5.58944 19.4097 5.61388C18.875 5.63833 18.493 5.36027 18.493 4.8286C18.4835 4.70034 18.5011 4.57152 18.5447 4.45051C18.5882 4.32949 18.6568 4.219 18.7458 4.1262C18.8349 4.0334 18.9424 3.96038 19.0616 3.91189C19.1807 3.86339 19.3087 3.84051 19.4372 3.84472C19.978 3.82944 20.2286 4.20527 20.25 4.69722Z" fill="#E6457F"/>
<path d="M14.0014 9.29276C14.1148 9.3027 14.225 9.33585 14.3251 9.39015C14.4252 9.44445 14.5131 9.51875 14.5833 9.60843C14.6535 9.69811 14.7045 9.80126 14.7332 9.91148C14.7619 10.0217 14.7676 10.1366 14.75 10.2492C14.7194 10.8603 14.3314 11.1353 13.7569 11.0833C13.2558 11.0344 12.8953 10.7472 12.99 10.1972C13.0257 9.95176 13.1466 9.72668 13.3315 9.56134C13.5163 9.396 13.7535 9.30093 14.0014 9.29276Z" fill="#61479C"/>
<path d="M17.5 10.1086C17.4511 10.8267 17.1089 11.123 16.5222 11.0833C16.015 11.0497 15.6514 10.7778 15.7247 10.2247C15.7412 9.97211 15.8547 9.73568 16.0415 9.56484C16.2283 9.394 16.4739 9.30198 16.7269 9.30804C17.283 9.30804 17.4542 9.73276 17.5 10.1086Z" fill="#61479C"/>
<path d="M20.25 10.1667C20.25 10.7503 19.975 11.0833 19.428 11.1016C18.8811 11.12 18.5114 10.8603 18.4808 10.3347C18.4693 10.2076 18.4845 10.0794 18.5254 9.95853C18.5663 9.83761 18.632 9.72656 18.7183 9.6325C18.8046 9.53844 18.9096 9.46344 19.0265 9.41231C19.1435 9.36117 19.2698 9.33502 19.3975 9.33554C19.9628 9.30804 20.2164 9.68082 20.25 10.1667Z" fill="#E6457E"/>
</svg>
