<svg width="24" height="24" viewBox="0 0 24 24" fill="none" xmlns="http://www.w3.org/2000/svg">
<path d="M12.0733 21.188C7.00723 21.625 2.79057 16.5497 2.86696 12.2628C2.96474 7.01027 6.9064 3.0075 12 2.85777C16.5833 2.72333 21.3225 7.05915 21.2858 12.1283C21.2553 16.8155 16.8889 21.628 12.0733 21.188Z" fill="#86C989"/>
<path d="M19.3333 12.1528C19.3333 16.2564 16.1586 19.2141 11.945 19.3547C8.33333 19.4769 4.66667 16.18 4.77056 12.2016C4.87139 7.76804 7.39528 4.97222 12.1192 4.76749C15.9936 4.6086 19.7 8.22943 19.3333 12.1528Z" fill="#67BC6B"/>
<path d="M12.058 16.6444C11.4194 16.7147 11.0589 16.4978 11.12 15.8103C11.1292 15.6576 11.1292 15.5046 11.12 15.3519C11.0803 13.0511 11.0803 13.0541 8.80083 13.0053C8.18972 13.0053 7.41972 13.2283 7.44722 12.1161C7.46555 11.4286 7.62139 11.0344 8.38527 11.12C8.53689 11.1291 8.68893 11.1291 8.84055 11.12C11.1017 11.0833 11.0833 11.0833 11.1292 8.91082C11.1292 8.27221 10.8236 7.44721 12.0458 7.4411C13.268 7.43499 12.9808 8.21721 13.0083 8.88332C13.036 9.18825 13.036 9.49506 13.0083 9.79998C12.8494 10.8908 13.3322 11.2636 14.3772 11.1353C14.8753 11.0741 15.3916 11.1353 15.905 11.1353C16.6719 11.0986 16.6597 11.6058 16.6689 12.1436C16.678 12.6814 16.5803 13.0603 15.9355 13.0175C15.8847 13.0128 15.8336 13.0128 15.7828 13.0175C13.213 13.2619 13.1855 13.2589 13.0328 15.7125C12.9808 16.4122 12.7822 16.7605 12.058 16.6444Z" fill="#FDFEFC"/>
</svg>
