<svg width="24" height="24" viewBox="0 0 24 24" fill="none" xmlns="http://www.w3.org/2000/svg">
<path d="M6.56417 6.45416C10.3103 6.48166 14.0594 6.55805 17.8055 6.51527C18.9758 6.51527 19.3822 6.78721 19.3547 8.02777C19.2722 11.7739 19.2966 15.523 19.3547 19.2722C19.3547 20.635 18.8169 21.1972 17.4603 21.1819C13.7997 21.1391 10.1667 21.1666 6.5 21.1422C6.01417 20.6075 6.02334 19.9414 6.02028 19.2875C6.00501 15.6208 5.99889 11.9541 6.02028 8.2661C6.03556 7.62443 5.98667 6.93999 6.56417 6.45416Z" fill="#BDACA6"/>
<path d="M6.56417 6.4511C6.54584 11.34 6.52649 16.237 6.50612 21.1422C5.19834 21.2461 4.77973 20.3722 4.77057 19.3425C4.72473 14.4933 4.73696 9.6411 4.77057 4.79194C4.77057 3.87527 5.18612 3.13277 6.19445 2.90666C7.20278 3.45972 6.87584 4.24194 6.55195 5.02416L6.56417 6.4511Z" fill="#A28981"/>
<path d="M6.54888 5.02416C6.42971 4.31833 6.71693 3.54222 6.19138 2.90666C9.94359 2.90666 13.6958 2.87611 17.448 2.87916C17.7979 2.88173 18.1441 2.95014 18.4686 3.08083C18.9544 3.27638 19.3852 3.59416 19.2814 4.21138C19.1408 4.97527 18.4869 4.69722 18.0591 4.70027C14.8111 4.72472 11.5661 4.70027 8.31804 4.71555C7.70387 4.7186 7.07749 4.59333 6.54888 5.02416Z" fill="#BEADA7"/>
<path d="M12.9869 19.3333C9.6686 19.3333 7.48694 16.8094 7.48694 13.7294C7.48694 10.8572 10.5425 8.1561 13.2711 8.37915C16.4733 8.63888 18.8841 11.615 18.3983 14.7103C18.2922 15.2862 17.9672 15.7987 17.4916 16.1405C17.016 16.4822 16.4267 16.6267 15.8469 16.5436C15.0629 16.4136 14.2629 16.4136 13.4789 16.5436C12.9005 16.6826 12.2917 16.6152 11.7577 16.353C11.2238 16.0908 10.7983 15.6502 10.5547 15.1075C9.97721 13.9922 10.2705 12.9839 11.1353 12.0703C12.0703 11.0833 13.0725 10.9855 14.3039 11.4591C15.4619 11.9053 15.3397 12.7883 15.355 13.708C15.355 14.368 15.1258 15.3703 16.2258 15.2603C17.1791 15.1655 17.2586 14.2641 17.1669 13.4636C16.8889 11.0375 14.7744 9.51582 12.223 9.87637C9.98027 10.1972 8.5136 12.4614 8.97194 14.8966C9.3661 16.9989 11.6119 18.4166 13.8333 17.94C14.2366 17.8544 14.6308 17.6925 15.0005 17.94C15.2111 18.075 15.3694 18.2775 15.4497 18.5144C15.5016 18.7955 15.2053 18.9025 14.9639 18.9941C14.3411 19.2623 13.6635 19.3785 12.9869 19.3333Z" fill="#A18880"/>
<path d="M13.8333 14.0411C13.8333 14.6858 13.9525 15.3886 13.0022 15.3366C12.1742 15.2939 11.7067 14.8478 11.6944 14.0075C11.6822 13.1672 12.1069 12.6753 12.9472 12.6111C14.1389 12.5439 13.7539 13.4728 13.8333 14.0411Z" fill="#BEACA6"/>
</svg>
