<svg width="24" height="24" viewBox="0 0 24 24" fill="none" xmlns="http://www.w3.org/2000/svg">
<path d="M15.2817 12.9166C15.4528 13.6408 15.9111 13.9769 16.6261 13.7539C17.3411 13.5308 17.4633 12.9625 17.5 12.3055C17.6864 9.71137 15.4283 7.01027 12.8494 6.77193C9.65334 6.46638 7.0439 8.44943 6.76279 11.3553C6.36862 15.5903 9.81834 18.383 13.9311 17.0905C14.9119 16.785 15.0708 17.3961 15.3978 17.9247C15.85 18.6702 15.1686 18.8414 14.7439 18.9636C10.6128 20.3202 5.99279 18.4166 4.93251 13.7569C3.78668 8.71221 7.77112 5.06694 11.2881 4.7461C16.2411 4.29388 20.2225 8.52582 19.3028 13.3994C19.2174 13.8096 19.0475 14.1975 18.8038 14.5383C18.5601 14.8791 18.2479 15.1654 17.8873 15.3787C17.5268 15.5921 17.1256 15.7279 16.7096 15.7775C16.2935 15.8271 15.8717 15.7893 15.4711 15.6666C14.8115 15.4333 14.0951 15.4141 13.4239 15.6116C11.3125 16.2044 9.54334 15.4283 8.70001 13.653C7.93306 12.0397 8.42806 10.2033 9.9375 9.06971C11.4469 7.9361 13.5278 8.14388 15.0556 9.55554C15.4192 10.6678 15.0189 11.8197 15.2817 12.9166Z" fill="#5BC3EF"/>
<path d="M15.2817 12.9166C14.7836 11.8258 15.1686 10.6739 15.0556 9.55554C15.6667 10.6525 15.2694 11.8014 15.2817 12.9166Z" fill="#97A0AD"/>
<path d="M13.2619 13.5278C12.3453 14.0044 11.5264 13.9678 10.7869 13.2039C10.2553 12.6478 10.3164 11.9541 10.5455 11.3705C11.0405 10.1147 12.1742 10.4539 13.155 10.4875C13.5644 11.4836 13.3597 12.5072 13.2619 13.5278Z" fill="#FCFCFD"/>
<path d="M13.2619 13.5278C13.2253 12.5133 13.1917 11.4989 13.155 10.4722C13.7875 11.4775 13.6225 12.498 13.2619 13.5278Z" fill="#74ACCD"/>
</svg>
