<svg width="24" height="24" viewBox="0 0 24 24" fill="none" xmlns="http://www.w3.org/2000/svg">
<path d="M12.0917 4.75826C13.0627 4.75296 13.9974 5.12676 14.697 5.80012C15.3967 6.47348 15.8059 7.39326 15.8377 8.36375C15.8254 9.36175 15.4265 10.3161 14.7251 11.0261C14.0236 11.7361 13.0742 12.1465 12.0764 12.1709C11.5825 12.1658 11.0946 12.0628 10.6408 11.8679C10.1869 11.673 9.77626 11.39 9.43245 11.0354C9.08865 10.6808 8.81856 10.2616 8.63778 9.80197C8.45701 9.34234 8.36914 8.85144 8.37926 8.35764C8.38278 7.87638 8.48204 7.40064 8.67126 6.95813C8.86048 6.51562 9.13588 6.1152 9.48141 5.7802C9.82694 5.44519 10.2357 5.1823 10.6838 5.00685C11.132 4.8314 11.6106 4.7469 12.0917 4.75826Z" fill="#475C65"/>
<path d="M12.0275 19.3024C9.94672 19.3177 7.86287 19.3024 5.78208 19.3635C5.04265 19.3635 4.71877 19.223 4.72488 18.3674C4.74015 16.4486 6.92178 14.2028 8.84063 14.2272C9.26229 14.2272 9.19813 14.6856 9.48229 14.7803C10.2889 15.3272 10.6189 16.2164 11.0864 17.0047C11.3217 17.8052 12.22 18.3308 12.0275 19.3024Z" fill="#384850"/>
<path d="M15.1502 14.1906C16.3306 14.4979 17.4338 15.0485 18.389 15.8069C19.431 16.635 19.3821 17.7136 19.3546 18.841C19.3332 19.5194 18.8443 19.333 18.4807 19.333C16.3969 19.333 14.313 19.3055 12.2292 19.2902C11.9236 18.3736 12.6814 17.8083 12.9839 17.0933C13.7416 16.1583 13.9861 14.8322 15.1502 14.1906Z" fill="#37474F"/>
<path d="M13.265 17.2216L12.2292 19.3024L12.1283 19.336L12.0275 19.3024L10.8725 17.243C11.0589 16.1125 10.9795 14.9331 11.4286 13.8453L12.8525 13.8606C13.3903 14.9331 13.0939 16.1064 13.265 17.2216Z" fill="#E53F37"/>
<path d="M13.265 17.2216C12.9743 16.7177 12.7879 16.1605 12.717 15.583C12.6462 15.0056 12.6922 14.4198 12.8525 13.8606C13.6439 13.7995 14.4352 13.717 15.1502 14.1906C14.5249 15.2009 13.8964 16.2113 13.265 17.2216Z" fill="#E7E7E7"/>
<path d="M11.4287 13.8331C11.4592 15.0003 11.6395 16.1919 10.8726 17.2308L9.4823 14.7803C10.2116 14.6676 10.89 14.3375 11.4287 13.8331Z" fill="#E9E4E4"/>
</svg>
