<svg width="24" height="24" viewBox="0 0 24 24" fill="none" xmlns="http://www.w3.org/2000/svg">
<path d="M12.8922 22.0402C11.6425 22.309 10.8328 22.0402 11.0955 20.5124C10.9428 20.3107 10.7289 20.0571 10.7717 19.8463C11.3828 16.7908 8.42808 15.8008 7.28533 13.7659C7.04394 13.335 6.50618 13.3503 6.06313 13.3381C5.21005 13.329 4.3594 13.2452 3.52096 13.0875C1.92904 12.782 1.91988 12.8278 2.29876 11.1351L3.75012 11.0831C4.19928 10.6706 4.76149 10.689 5.31453 10.6737C5.71786 10.6737 6.12118 10.6737 6.53673 10.6401C6.95228 10.6065 7.45338 10.469 7.54199 10.0809C8.01254 8.21708 10.8847 8.1407 10.683 5.78185C10.6219 5.09437 10.5608 4.36105 11.0833 3.74995L11.1505 2.28331C12.8433 1.91665 12.8433 1.91665 13.0786 3.51467C13.0786 3.61245 13.1549 3.71939 13.1397 3.80495C12.608 6.946 15.2938 8.24458 16.8063 10.2215C17.1882 10.7134 17.7962 10.6493 18.334 10.6676C19.0857 10.692 19.8618 10.6004 20.5095 11.1106C22.0373 10.8479 22.2909 11.6576 22.0373 12.9073C21.582 13.2373 21.0626 13.0203 20.5737 13.0814C18.609 13.3259 16.519 13.28 15.5352 15.5656C15.3671 15.9567 14.8874 16.2011 14.478 16.3967C13.5766 16.8305 13.3138 17.5608 13.3291 18.5049C13.3505 19.6874 13.0847 20.8607 12.8922 22.0402Z" fill="#5E6BB2"/>
<path d="M12.8922 22.0402C12.8922 21.3802 12.9533 20.7171 12.9197 20.0602C12.8219 18.178 12.6141 16.2744 15.0005 15.5289C15.1201 15.4817 15.2288 15.4105 15.3197 15.3195C15.4106 15.2286 15.4819 15.1199 15.5291 15.0003C16.2777 12.6109 18.1812 12.8217 20.0604 12.9164C20.7173 12.9501 21.3804 12.9164 22.0403 12.8889C20.6593 13.0631 20.2345 13.9981 19.7732 15.2172C19.3308 16.4851 18.5606 17.6132 17.5409 18.4869C16.5212 19.3606 15.2884 19.9488 13.9677 20.1916C12.6691 20.4513 13.6927 21.701 12.8922 22.0402Z" fill="#9FA6D3"/>
<path d="M20.5279 11.0831C20.1765 11.0831 19.8251 11.1076 19.4707 11.1076C17.9674 11.1076 16.2899 11.4865 15.688 9.41178C15.6336 9.2701 15.5516 9.14065 15.4467 9.03101C15.3418 8.92137 15.2161 8.83372 15.0769 8.77319C12.66 7.87181 12.7517 5.87352 12.938 3.88439C13.0878 2.42386 12.5347 1.93193 11.1475 2.28942C12.5622 1.58666 12.9167 1.71193 13.2222 3.13885C13.2358 3.30586 13.3024 3.46416 13.4123 3.5906C13.5223 3.71704 13.6698 3.805 13.8333 3.84161C17.558 4.88354 19.6571 7.41654 20.5279 11.0831Z" fill="#9FA6D4"/>
<path d="M2.29877 11.1504C1.93211 12.5467 2.44238 13.1364 3.89068 12.9348C4.33679 12.8737 4.80733 12.9684 5.25038 12.9348C6.61008 12.8064 7.817 12.8462 8.30588 14.5022C8.38901 14.7423 8.52176 14.9621 8.69549 15.1474C8.86922 15.3327 9.08003 15.4793 9.31419 15.5778C11.5997 16.2775 11.0833 18.1352 11.123 19.773C11.123 20.0235 11.1047 20.2771 11.0955 20.5277C7.41673 19.6569 4.88067 17.5608 3.8418 13.8331C3.80431 13.67 3.71609 13.523 3.58982 13.4132C3.46356 13.3034 3.30573 13.2365 3.13903 13.222C1.70906 12.9164 1.58378 12.5559 2.29877 11.1504Z" fill="#9FA6D4"/>
<path d="M11.0833 3.74995C11.0597 4.4093 11.0761 5.06947 11.1322 5.72685C11.3186 6.99183 10.9428 7.8382 9.67168 8.29653C9.22863 8.45541 8.67864 8.86485 8.55947 9.27429C7.94838 11.2909 6.42063 11.2329 4.82566 11.1076C4.47122 11.0831 4.11678 11.0831 3.75012 11.0831C4.49566 7.03155 7.04395 4.48632 11.0833 3.74995Z" fill="#9FA6D4"/>
<path d="M14.7682 12.0731C14.7682 13.7934 13.7599 14.7742 12.0183 14.7681C10.5578 14.7681 9.26834 13.5459 9.26834 12.1373C9.26532 11.7563 9.33908 11.3787 9.48524 11.0269C9.6314 10.6751 9.84695 10.3564 10.119 10.0897C10.3911 9.82307 10.7141 9.61397 11.0688 9.47492C11.4234 9.33587 11.8025 9.26971 12.1833 9.2804C13.5888 9.31401 14.7774 10.5943 14.7682 12.0731Z" fill="#9EA6D4"/>
</svg>
