<svg width="24" height="24" viewBox="0 0 24 24" fill="none" xmlns="http://www.w3.org/2000/svg">
<path d="M12.1192 21.1911C7.89028 21.5852 3.75002 17.6191 3.77446 12.9533C3.80156 10.7679 4.68405 8.68013 6.23263 7.13783C7.78121 5.59553 9.87254 4.72154 12.0581 4.70332C16.5589 4.70332 20.4211 8.41582 20.418 12.88C20.415 17.7627 16.238 21.5577 12.1192 21.1911Z" fill="#785DA7"/>
<path d="M21.1422 6.31665C21.0089 6.78131 20.7238 7.18793 20.3324 7.47165C19.9811 7.77721 19.6969 7.58471 19.4158 7.34026C18.4074 6.49693 17.4022 5.65054 16.3602 4.84082C15.7155 4.3336 16.0547 3.86305 16.3602 3.38638C16.6658 2.90972 17.005 2.66527 17.4816 3.05333C18.6213 3.96999 19.7336 4.93555 20.8427 5.88888C20.9604 6.01808 21.061 6.16185 21.1422 6.31665Z" fill="#B49ECB"/>
<path d="M8.28139 4.18083C8.18794 4.33464 8.07834 4.47805 7.95445 4.6086C6.8514 5.56193 5.74834 6.51526 4.62085 7.4411C4.08307 7.88109 3.72863 7.58776 3.42613 7.06832C3.17863 6.6436 2.73863 6.32582 3.38335 5.8461C4.45585 5.01805 5.4764 4.12277 6.5214 3.25499C6.7964 3.02583 7.07751 2.75083 7.43806 3.07472C7.82531 3.34888 8.11955 3.73481 8.28139 4.18083Z" fill="#B49ECB"/>
<path d="M18.4686 13.0389C18.4686 16.6811 15.7644 19.373 12.1161 19.3791C11.2658 19.3942 10.4212 19.2391 9.63175 18.9229C8.84234 18.6067 8.12415 18.1358 7.51943 17.5379C6.91471 16.94 6.43568 16.2272 6.11053 15.4415C5.78538 14.6557 5.62068 13.8128 5.62611 12.9625C5.65364 11.2693 6.33852 9.65311 7.53596 8.45568C8.7334 7.25824 10.3495 6.57336 12.0428 6.54582C12.894 6.53957 13.738 6.70375 14.5248 7.02869C15.3117 7.35363 16.0255 7.83275 16.6243 8.43784C17.2232 9.04292 17.6948 9.76173 18.0116 10.5519C18.3283 11.3421 18.4837 12.1877 18.4686 13.0389Z" fill="#D2C3E0"/>
<path d="M11.1383 11.123V9.2897C11.1383 8.77332 11.2911 8.37304 11.9083 8.41276C12.4431 8.44026 12.5531 8.81915 12.5561 9.25915C12.6081 10.067 12.6081 10.8774 12.5561 11.6853C12.4186 12.8494 12.7822 13.6439 13.8975 14.0625C14.0888 14.1258 14.264 14.2301 14.4108 14.368C14.8936 14.8814 16.3908 14.8355 15.74 15.8958C15.1839 16.8125 14.4995 15.5902 13.8456 15.4283C13.7052 15.3696 13.5744 15.2903 13.4575 15.193C10.5792 13.4666 11.2239 14.3741 11.1383 11.123Z" fill="#7C61AA"/>
</svg>
