<svg width="24" height="24" viewBox="0 0 24 24" fill="none" xmlns="http://www.w3.org/2000/svg">
<path d="M16.5375 3.85694C17.1941 3.80508 17.8529 3.78672 18.5114 3.80194C19.6083 3.88139 20.2622 4.37333 20.253 5.63528C20.2164 10.5058 20.2154 15.3774 20.25 20.25C20.25 21.6525 19.6114 22.1108 18.2975 22.0833C14.1847 22.0497 10.0689 22.0833 5.9561 22.0833C4.28471 22.0833 3.92415 21.735 3.90887 20.0208C3.88443 16.7697 3.90887 13.5186 3.90887 10.2706C3.90887 8.95056 3.90887 7.6275 3.90887 6.29833C3.92415 4.1075 4.28776 3.75611 6.51221 3.77444C6.86665 3.77444 7.21804 3.81722 7.57249 3.83861C7.75319 4.12712 7.83567 4.46637 7.80758 4.80564C7.77949 5.14491 7.64235 5.46597 7.41665 5.72083C6.35332 6.09361 6.02026 6.84528 6.0386 7.95444C6.08749 11.3553 6.08137 14.7561 6.0386 18.1569C6.0386 19.315 6.43887 19.8008 7.63054 19.7825C10.5242 19.7367 13.4178 19.7428 16.3114 19.7825C17.4755 19.7825 17.9492 19.3456 17.9369 18.1692C17.9064 14.6675 17.9369 11.1658 17.9369 7.66111C17.9369 6.82694 17.7383 6.15472 16.8492 5.88583C16.0944 5.30528 16.0333 4.62389 16.5375 3.85694Z" fill="#5D4036"/>
<path d="M7.38608 5.64444L7.56941 3.85389C8.62052 3.83861 9.53108 3.80194 10.3194 2.75083C11.1566 1.62028 13.048 1.66306 13.9402 2.79361C14.6705 3.75 15.5291 3.84778 16.5375 3.85694C16.6322 4.46806 16.7239 5.05778 16.8186 5.65667C17.4083 8.07972 16.9072 8.78556 14.5452 8.81611C12.7761 8.8375 11.0069 8.85278 9.23774 8.81611C7.00719 8.76111 6.44802 7.78333 7.38608 5.64444Z" fill="#F9A01D"/>
<path d="M7.38612 5.64444C7.54501 8.43417 7.54501 8.43417 10.3775 8.43417C11.9481 8.43417 13.5278 8.35167 15.0922 8.46167C16.3695 8.55028 16.8492 8.11333 16.6811 6.85139C16.6776 6.44901 16.7238 6.04773 16.8186 5.65667C18.1081 5.40306 18.5695 5.82472 18.5328 7.23333C18.4289 11.1811 18.4717 15.135 18.5145 19.0858C18.5145 19.9842 18.3036 20.3233 17.3411 20.3081C13.8333 20.25 10.35 20.25 6.85446 20.3111C5.8064 20.3325 5.60473 19.9475 5.6139 19.0003C5.65973 15.1014 5.71168 11.1964 5.59251 7.30056C5.54668 5.80639 6.07529 5.42444 7.38612 5.64444Z" fill="#CEC5C3"/>
<path d="M12.9166 4.72778C12.8341 5.33889 12.5408 5.62 12 5.58944C11.7943 5.58395 11.5987 5.49917 11.454 5.35283C11.3094 5.20648 11.2269 5.0099 11.2239 4.80417C11.2091 4.68998 11.2199 4.57395 11.2554 4.46442C11.2909 4.3549 11.3502 4.2546 11.4291 4.17075C11.508 4.08689 11.6045 4.02156 11.7117 3.97945C11.8188 3.93734 11.934 3.91951 12.0489 3.92722C12.2693 3.92133 12.4833 4.00169 12.6454 4.15121C12.8074 4.30073 12.9048 4.50759 12.9166 4.72778Z" fill="#5E4138"/>
<path d="M11.3889 14.2C12.7425 12.8372 14.1022 11.4806 15.4436 10.1056C15.8195 9.7175 16.1586 9.53111 16.5283 10.0719C16.7789 10.4356 17.5795 10.7014 16.9745 11.2667C15.0067 13.1183 13.3872 15.3367 11.0956 16.84C10.6067 15.8958 10.292 14.97 11.3889 14.2Z" fill="#3C8F45"/>
<path d="M11.3889 14.2C10.8541 15.0311 11.1536 15.9569 11.0833 16.84C10.2002 16.015 9.34163 15.1594 8.42496 14.3681C7.83219 13.8578 7.84441 13.5125 8.39746 12.9319C9.03302 12.2597 9.35691 12.6019 9.83663 13.0633C10.3164 13.5247 10.6219 14.1786 11.3889 14.2Z" fill="#63A665"/>
</svg>
