<svg width="24" height="24" viewBox="0 0 24 24" fill="none" xmlns="http://www.w3.org/2000/svg">
<path d="M12.9166 2.89444C14.588 2.36583 15.1564 3.48722 15.685 5.08221C17.3228 10.0872 19.1011 15.0555 20.8947 20.0025C21.243 20.968 21.1208 21.3133 20.0758 21.2033C19.7216 21.1834 19.3666 21.1834 19.0125 21.2033C16.6047 21.2033 16.568 21.2033 15.8164 18.9238C15.5108 18.0072 15.0708 17.5611 14.0839 17.7016C13.628 17.7307 13.1708 17.7307 12.715 17.7016C9.92527 17.7016 9.8886 17.7016 8.85888 20.3355C8.55333 21.1361 8.04611 21.2033 7.33111 21.2125C3.75001 21.2583 3.75001 21.2797 4.94472 17.9216C6.44805 13.6724 7.93203 9.416 9.39666 5.15249C10.1667 2.8975 10.1667 2.89444 12.9166 2.89444Z" fill="#5F6BB2"/>
<path d="M10.7778 14.75C11.3705 13.048 11.8869 11.5539 12.4675 9.88248C13.3169 11.3155 13.5614 12.773 14.1236 14.1022C14.3742 14.75 13.9739 14.7652 13.5278 14.75C12.6661 14.75 11.8136 14.75 10.7778 14.75Z" fill="#FBFBFC"/>
</svg>
