<svg width="24" height="24" viewBox="0 0 24 24" fill="none" xmlns="http://www.w3.org/2000/svg">
<path d="M12 19.3516C10.2247 19.3516 8.44639 19.4005 6.67417 19.3272C6.04168 19.2997 5.04557 19.8252 4.82557 18.9238C4.60557 18.0225 4.52001 16.8766 5.3664 16.0669C5.68128 15.7372 6.04258 15.4551 6.4389 15.2297C10.185 13.4147 13.9586 13.3566 17.6955 15.2297C19.3028 16.0394 19.6236 16.9622 19.3669 18.7527C19.2661 19.5044 18.8169 19.3333 18.4166 19.3486C16.2778 19.3577 14.1389 19.3516 12 19.3516Z" fill="#465B64"/>
<path d="M12.4553 4.03416C14.0136 3.7286 14.9486 4.73694 15.6453 6.17304C16.3419 7.60915 15.7736 8.81915 14.8325 9.90081C14.1083 10.7289 13.1978 11.3858 13.1672 12.6722C13.1489 13.4239 12.4247 13.158 11.9633 13.2039C11.4286 13.2527 11.12 13.0541 11.0864 12.4461C11.0414 12.0182 11.0926 11.5856 11.2364 11.1801C11.3802 10.7746 11.6129 10.4064 11.9175 10.1025C12.4398 9.62736 12.9288 9.1169 13.3811 8.5747C14.1175 7.6061 13.8089 6.66193 12.883 6.13027C12.0092 5.61693 11.12 5.87971 10.6036 6.86665C10.4264 7.20582 10.4508 7.72526 9.89472 7.71609C9.40583 7.71609 8.80694 7.94832 8.47389 7.47165C8.22028 7.10499 8.33639 6.62221 8.52278 6.16693C9.23167 4.42527 9.90694 4.02194 12.4553 4.03416Z" fill="#B8BFC3"/>
<path d="M11.9725 16.6414C11.1414 16.7391 11.1139 16.2075 11.1016 15.5933C11.0864 14.8875 11.4683 14.7866 12.055 14.7683C12.7914 14.75 13.0144 15.0739 13.0144 15.7614C13.0175 16.5405 12.6325 16.7239 11.9725 16.6414Z" fill="#AFB8BC"/>
</svg>
