<svg width="24" height="24" viewBox="0 0 24 24" fill="none" xmlns="http://www.w3.org/2000/svg">
<path d="M12.0917 21.185H7.68249C7.07138 21.185 6.50916 21.0383 6.54583 20.2927C6.57638 19.6327 7.04388 19.4066 7.6886 19.3425C10.3775 19.0797 10.3408 19.0614 10.5119 16.3572C10.6525 14.1389 10.8878 11.9266 11.0833 9.70832C11.1383 9.09721 11.1414 8.42193 12 8.40054C12.8586 8.37915 13.1336 8.96582 13.1886 9.68387C13.3964 12.4033 13.6378 15.1197 13.7508 17.8422C13.7966 18.9697 14.0564 19.483 15.3061 19.37C16.18 19.2966 17.6314 18.9636 17.6253 20.2866C17.6253 21.6983 16.1525 21.078 15.2939 21.1514C14.2366 21.243 13.155 21.1758 12.1008 21.1758L12.0917 21.185Z" fill="#78909C"/>
<path d="M2.84863 9.98943C2.83335 7.21193 3.63085 5.18916 5.17085 3.44444C5.51918 3.05333 5.90418 2.67444 6.42057 3.26111C6.77196 3.66138 7.29446 3.91194 6.7689 4.63305C4.38557 7.89027 4.01891 11.1689 6.86363 14.4108C7.34335 14.9547 7.00724 15.3091 6.53974 15.633C6.07224 15.9569 5.69335 16.3389 5.15557 15.6605C3.72863 13.8669 2.75391 11.9175 2.84863 9.98943Z" fill="#87D2F4"/>
<path d="M21.1331 9.60443C21.4111 12 20.412 13.8761 19.0278 15.6666C18.5328 16.3053 18.2028 16.2503 17.717 15.7369C17.3014 15.303 16.8217 15.0739 17.4481 14.3008C19.9628 11.2116 19.9964 7.88415 17.5153 4.90805C16.8339 4.09222 17.3136 3.84472 17.7536 3.36194C18.4045 2.64694 18.817 3.08694 19.1959 3.61555C20.4883 5.41527 21.4722 7.32804 21.1331 9.60443Z" fill="#87D2F4"/>
<path d="M6.5 9.79387C6.4716 8.45081 6.91733 7.14069 7.75888 6.0936C8.06444 5.71777 8.34555 5.01194 9.0636 5.63221C9.6411 6.13027 9.98027 6.49388 9.3386 7.32499C8.18055 8.81915 8.25083 10.3042 9.43638 11.9083C9.90082 12.5194 9.7786 12.825 9.28971 13.2711C8.80082 13.7172 8.37305 13.7539 7.90249 13.1978C7.08056 12.2438 6.58866 11.0499 6.5 9.79387Z" fill="#4EB5E6"/>
<path d="M17.4664 9.55554C17.6772 10.9611 17.1608 12.0794 16.3205 13.1C15.85 13.6653 15.4925 13.8089 14.8569 13.2283C14.2214 12.6478 14.3192 12.3789 14.8203 11.7861C15.9844 10.4172 16.0425 8.73054 14.8203 7.35554C14.0319 6.47555 14.6094 6.19444 15.1258 5.71471C15.8928 4.98749 16.2105 5.71471 16.5192 6.18221C17.1944 7.1936 17.7414 8.28443 17.4664 9.55554Z" fill="#4CB5E7"/>
</svg>
