<svg width="24" height="24" viewBox="0 0 24 24" fill="none" xmlns="http://www.w3.org/2000/svg">
<path d="M12.223 1.96248C17.4357 1.96248 22.1626 6.29823 22.0617 10.9854C22.0617 11.5384 22.3001 12.2259 21.3009 12.3206C20.3018 12.4153 20.2193 11.7951 20.1276 11.129C19.7121 8.07042 18.1385 5.8888 15.2877 4.63604C14.15 4.12636 12.9089 3.88974 11.6635 3.94507C10.4181 4.0004 9.20294 4.34615 8.11494 4.95471C7.02695 5.56328 6.09632 6.4178 5.39735 7.45004C4.69838 8.48228 4.25044 9.66365 4.0893 10.8998C3.96097 11.902 3.70736 12.4673 2.63488 12.2717C1.50435 12.067 1.94434 11.1412 2.02378 10.5607C2.7021 5.58325 7.04702 1.95026 12.223 1.96248Z" fill="#86D2F4"/>
<path d="M12.1374 5.62297C15.3091 5.62297 18.1079 8.04903 18.4409 11.0984C18.4929 11.5659 18.7801 12.1801 17.9337 12.2351C17.2829 12.2778 16.7512 12.3665 16.5099 11.3795C15.6849 8.00014 12.5133 6.60989 9.70832 8.27514C9.16581 8.56444 8.70165 8.98113 8.35571 9.4894C8.00976 9.99767 7.79239 10.5823 7.72225 11.1931C7.61531 12.2167 7.0531 12.3298 6.27089 12.2412C5.25341 12.1281 5.60479 11.3612 5.70868 10.8418C6.00084 9.35739 6.80403 8.02238 7.97858 7.0689C9.15313 6.11542 10.6247 5.60378 12.1374 5.62297Z" fill="#4BB5E6"/>
<path d="M11.0833 17.1941C11.1322 15.9414 11.1505 14.8261 9.92529 13.8728C8.77643 12.9806 9.02698 11.1687 10.1239 10.0901C10.3772 9.82433 10.6808 9.6116 11.0171 9.4643C11.3534 9.317 11.7157 9.23806 12.0828 9.23209C12.4499 9.22612 12.8145 9.29323 13.1554 9.42952C13.4963 9.56581 13.8067 9.76855 14.0685 10.0259C15.248 11.1931 15.471 12.7301 14.2824 13.775C13.0297 14.8781 13.1336 16.1186 13.3016 17.4814C12.6905 17.6525 12.7119 17.1422 12.5866 16.8061C12.4277 16.3722 12.6752 15.7947 12.1528 15.4861C11.4317 15.8405 12.1558 17.0658 11.0833 17.1941Z" fill="#91A5AF"/>
<path d="M11.0833 17.1941C11.6333 16.7053 11.3339 16.0514 11.3888 15.4739C11.3802 15.372 11.3949 15.2696 11.4316 15.1742C11.4684 15.0789 11.5263 14.9931 11.601 14.9233C11.6758 14.8536 11.7653 14.8018 11.863 14.7717C11.9607 14.7416 12.0639 14.7341 12.1649 14.7497C12.666 14.7497 12.8463 15.0033 12.9166 15.4922C13.0083 16.1522 12.5713 16.9253 13.2924 17.4661C14.0227 18.1627 14.7438 18.8655 15.4802 19.556C15.9385 19.9869 16.3968 20.3291 15.6543 20.983C15.0218 21.5513 14.6368 21.5391 14.0257 20.9463C12.1619 19.1435 12.1161 19.1466 10.1758 20.9463C9.56472 21.5085 9.1675 21.5757 8.54724 20.9463C7.92697 20.3169 8.17447 19.941 8.68168 19.4705C9.4975 18.7402 10.2797 17.955 11.0833 17.1941Z" fill="#7B929E"/>
</svg>
