<svg width="24" height="24" viewBox="0 0 24 24" fill="none" xmlns="http://www.w3.org/2000/svg">
<path d="M13.0053 8.00638C13.9379 7.77521 14.8839 7.60173 15.8378 7.48693C18.3159 7.32804 20.0881 9.01471 20.2409 11.4836C20.4334 14.6216 20.0667 17.5641 17.61 19.868C16.232 21.1666 14.6981 21.628 12.8953 20.8611C12.2628 20.6808 11.5967 20.525 11.5937 19.6664C11.5784 15.9478 11.2698 12.223 11.7617 8.50749C11.865 8.2802 12.0517 8.10137 12.2832 8.00807C12.5148 7.91477 12.7734 7.91416 13.0053 8.00638Z" fill="#D42F2F"/>
<path d="M12 8.39443C12 11.9358 12 15.4772 11.9817 19.0155C11.9817 19.8283 12.0734 20.4914 12.8984 20.8489C12.494 20.7876 12.0841 20.7712 11.6762 20.8C7.50839 21.5394 4.41312 19.1744 4.05562 14.8966C3.95534 13.7842 3.93594 12.666 3.99756 11.5508C4.17478 8.61137 6.112 7.09277 9.04839 7.5511C9.69922 7.65193 10.3348 7.84138 10.9764 7.9911C11.0698 7.94797 11.1709 7.92421 11.2737 7.92125C11.3765 7.9183 11.4788 7.93621 11.5745 7.97391C11.6702 8.0116 11.7572 8.0683 11.8303 8.14058C11.9035 8.21286 11.9612 8.29922 12 8.39443Z" fill="#D74444"/>
<path d="M12.382 4.79805C13.0909 3.42 14.139 2.70805 15.7707 2.79972C16.6659 2.84861 16.7362 3.19083 16.5804 3.92416C16.1954 5.73305 15.1015 6.61305 12.8954 6.80554C12.3454 7.14777 12.0093 6.80554 11.8443 6.37166C11.7239 6.08924 11.7122 5.77226 11.8115 5.48175C11.9107 5.19123 12.114 4.9477 12.382 4.79805Z" fill="#48A148"/>
<path d="M12.382 4.79805C12.4156 5.50388 11.3553 6.48777 12.8953 6.80555L13.0053 8.00638L12 8.39443L10.9642 7.9911C10.9153 6.7536 10.6586 5.58638 9.74197 4.68194C9.22558 4.18694 9.05141 3.67666 9.65336 3.13277C10.1911 2.65 10.7014 2.86694 11.12 3.29777C11.5386 3.72861 11.9634 4.29694 12.382 4.79805Z" fill="#705045"/>
</svg>
