<svg width="24" height="24" viewBox="0 0 24 24" fill="none" xmlns="http://www.w3.org/2000/svg">
<path d="M21.1667 9.27748C21.1667 12.3575 21.1086 15.4375 21.185 18.5144C21.2186 19.8527 20.7603 20.2775 19.4311 20.2591C14.5667 20.198 9.69918 20.198 4.82863 20.2591C3.40475 20.2744 2.80586 19.7641 2.84252 18.3036C2.9128 15.2725 2.87614 12.2383 2.8853 9.20415C3.49641 8.7061 4.21447 8.77943 4.91419 8.77637C9.61362 8.76415 14.3131 8.76415 19.0125 8.77637C19.758 8.77026 20.5342 8.71221 21.1667 9.27748Z" fill="#F8E7ED"/>
<path d="M21.1667 9.27748C15.074 9.27748 8.97814 9.42721 2.88538 9.19804C2.88538 8.64193 2.90065 8.08582 2.90371 7.52665C2.90371 5.16166 3.33454 4.74916 5.75759 4.71249C6.0112 4.71249 6.26176 4.68194 6.51537 4.6636C6.63202 4.7559 6.72259 4.87701 6.77815 5.01499C6.93092 5.35721 6.8637 5.87971 7.36176 5.9561C7.85981 6.03249 7.94231 5.52221 8.11648 5.1861C8.16407 5.07127 8.23513 4.96764 8.32511 4.88188C8.41509 4.79611 8.52199 4.73009 8.63898 4.68805H15.6667C15.8179 4.82079 15.9246 4.9968 15.9723 5.19221C16.0854 5.5161 16.1006 5.94999 16.5834 5.94999C17.0662 5.94999 17.0723 5.51916 17.1945 5.19527C17.2429 5.00701 17.3499 4.83901 17.5001 4.71555C18.0012 4.71555 18.5023 4.71555 19.0003 4.71555C20.5892 4.75833 21.1698 5.32666 21.1973 6.87888C21.2126 7.68249 21.1667 8.47999 21.1667 9.27748Z" fill="#C2205C"/>
<path d="M8.6389 4.68805C8.51954 4.95889 8.44226 5.24637 8.40973 5.54055C8.4464 6.33499 8.10418 6.57638 7.33418 6.54582C6.4939 6.51527 6.55807 5.96527 6.5489 5.40916C6.5489 5.16166 6.53057 4.91416 6.5214 4.6636C6.55501 3.78972 6.17918 2.68055 7.79862 2.86694C9.17056 3.02583 8.3639 4.07694 8.6389 4.68805Z" fill="#DA789F"/>
<path d="M17.5001 4.71555C17.4084 5.49777 17.9828 6.73527 16.3695 6.51527C15.1473 6.34416 15.902 5.29305 15.6606 4.70027C15.9173 4.08916 15.0831 2.94639 16.5131 2.88527C18.0928 2.83333 17.2678 4.05555 17.5001 4.71555Z" fill="#DB779F"/>
<path d="M12.055 13.3169C12.0825 10.848 11.7678 11.178 14.2641 11.178C15.0222 11.1473 15.7813 11.1985 16.5283 11.3308C17.3838 11.5009 18.1459 11.982 18.6674 12.6812C19.1888 13.3805 19.4326 14.2482 19.3516 15.1166C19.2834 15.9542 18.9255 16.7419 18.3394 17.3441C17.7533 17.9464 16.9757 18.3256 16.1403 18.4166C15.2755 18.5205 14.4026 18.3049 13.6857 17.8103C12.9688 17.3156 12.4573 16.5761 12.2475 15.7308C12.0183 14.9364 12.0672 14.1389 12.055 13.3169Z" fill="#C2225C"/>
<path d="M17.5581 14.7744C17.5061 15.9264 16.947 16.6077 15.7797 16.6352C14.6125 16.6627 13.9464 15.963 13.9067 14.863C13.8835 14.6184 13.9133 14.3716 13.9942 14.1395C14.0751 13.9074 14.2051 13.6955 14.3754 13.5183C14.5456 13.341 14.7522 13.2026 14.9808 13.1125C15.2095 13.0224 15.4549 12.9827 15.7003 12.9961C16.8034 12.9716 17.5 13.6133 17.5581 14.7744Z" fill="#F7E5EC"/>
</svg>
