<svg width="24" height="24" viewBox="0 0 24 24" fill="none" xmlns="http://www.w3.org/2000/svg">
<path d="M10.2675 6.54889C9.75109 4.80111 10.7411 4.73389 12.1008 4.71556C13.54 4.685 14.1969 4.94472 14.0564 6.58861C13.8883 8.54417 14.0105 8.44944 12.0825 8.58694C10.4722 8.68778 9.80609 8.18361 10.2675 6.54889Z" fill="#D72E64"/>
<path d="M8.53491 12.0703C8.53491 14.0289 8.53491 13.9036 6.59769 14.0717C4.80714 14.2397 4.73991 13.3872 4.69408 11.9878C4.64519 10.5272 5.04547 10.0689 6.52741 10.1697C8.5288 10.3042 8.53491 10.2033 8.53491 12.0703Z" fill="#D72E65"/>
<path d="M6.64358 4.74611C8.54108 4.74611 8.40052 4.76139 8.5808 6.75972C8.73664 8.51056 7.89941 8.62972 6.54886 8.56556C4.73997 8.48 4.73691 8.54111 4.73997 6.42667C4.74302 4.74611 4.74302 4.74611 6.64358 4.74611Z" fill="#D83066"/>
<path d="M19.3057 6.77806C19.7457 8.36694 18.8993 8.50444 17.4724 8.61139C15.5505 8.74583 15.7735 7.72222 15.6391 6.43583C15.4466 4.54139 16.5557 4.85611 17.7382 4.72167C19.4982 4.51389 19.4707 5.51 19.3057 6.77806Z" fill="#D72A63"/>
<path d="M6.56107 19.2906C4.90496 19.7489 4.7644 18.8933 4.67579 17.4572C4.56579 15.7064 5.3694 15.7094 6.69551 15.6239C8.30579 15.5261 8.56857 16.1158 8.6144 17.5825C8.6694 19.2906 7.99413 19.6389 6.56107 19.2906Z" fill="#DF4F82"/>
<path d="M10.2552 17.335C9.6594 15.2694 11.1719 15.8317 12.2688 15.6636C14.0625 15.3886 13.9708 16.4122 14.1022 17.6986C14.2825 19.6389 13.103 19.2569 11.9633 19.3853C10.2094 19.5808 9.92829 18.7619 10.2552 17.335Z" fill="#DF5082"/>
<path d="M10.2248 13.7844C10.0842 10.0903 10.0842 10.0903 13.7784 10.2308C14.1725 11.2453 13.8975 12.2994 13.9648 13.3353C13.9826 13.4223 13.9787 13.5123 13.9533 13.5974C13.9279 13.6825 13.8818 13.76 13.8192 13.8229C13.7565 13.8858 13.6793 13.9323 13.5943 13.9581C13.5094 13.9839 13.4193 13.9883 13.3323 13.9708C12.3056 13.9036 11.2392 14.1786 10.2248 13.7844Z" fill="#E879A2"/>
<path d="M15.7155 13.7875C15.7155 13.3842 15.6727 12.9839 15.6788 12.5836C15.7369 9.87028 15.2052 10.2675 18.056 10.1758C19.0216 10.1453 19.4494 10.4142 19.3485 11.4286C19.266 12.2261 19.2966 13.0328 19.2783 13.8333C18.103 14.0932 16.8836 14.0775 15.7155 13.7875Z" fill="#E778A1"/>
<path d="M17.5306 19.2814C15.8561 19.7458 15.7156 18.8933 15.6208 17.4481C15.4986 15.6514 16.3756 15.7614 17.662 15.6147C19.59 15.41 19.2631 16.5314 19.3792 17.7261C19.535 19.3333 18.82 19.5992 17.5306 19.2814Z" fill="#E04C80"/>
<path d="M10.2246 13.7844C14.5543 13.8028 13.7996 14.5667 13.7782 10.2308C14.5024 11.3278 14.0196 12.5286 14.0593 13.6836C14.0331 13.7744 13.9843 13.857 13.9175 13.9238C13.8507 13.9906 13.7681 14.0393 13.6774 14.0656C12.5224 14.0258 11.3216 14.5086 10.2246 13.7844Z" fill="#BEA6AC"/>
<path d="M15.7156 13.7875L19.2784 13.8333C18.0836 14.2978 16.8889 14.3772 15.7156 13.7875Z" fill="#BDA5AA"/>
</svg>
