<svg width="24" height="24" viewBox="0 0 24 24" fill="none" xmlns="http://www.w3.org/2000/svg">
<path d="M16.6047 7.1111C16.6047 5.80638 16.6383 4.80722 16.6047 3.80805C16.5711 3.05638 16.8919 2.84555 17.5978 2.86389C18.2486 2.88527 18.6886 2.99222 18.6489 3.78055C18.6122 4.48944 18.7436 5.21971 18.6214 5.91944C18.2364 8.02777 19.0278 9.50054 20.8611 10.5394C21.4233 10.845 22.0833 11.2116 21.3041 12.1558C20.525 13.1 20.1675 12.5439 19.6389 12.0611C19.4066 11.8655 19.153 11.6944 18.7222 11.3889C18.6645 11.9104 18.6339 12.4347 18.6305 12.9594C18.6672 13.708 18.435 14.0686 17.6069 14.0839C16.7789 14.0991 16.4458 13.7355 16.6108 12.9991C17.2219 10.2828 15.7308 8.77943 13.7447 7.28221C12.4553 6.30749 11.7403 6.2586 10.4386 7.2486C8.49833 8.71832 7.0775 10.2247 7.6275 12.8616C7.75889 13.5003 7.6275 14.0839 6.72611 14.0839C6.00806 14.0839 5.52834 13.983 5.61084 13.1061C5.65972 12.605 5.61084 12.0947 5.61084 11.5783C5.02417 11.4775 4.74611 11.9144 4.42528 12.1741C3.86001 12.6355 3.44445 12.9166 2.83334 12.1191C2.26501 11.3858 2.57362 10.9855 3.16334 10.6739C5.40611 9.48832 6.00806 7.59999 5.63222 5.23499C5.55278 4.73694 5.6475 4.21749 5.61695 3.70722C5.58334 3.0075 5.95306 2.86694 6.56111 2.87916C7.16917 2.89139 7.67944 2.92194 7.655 3.74388C7.62444 4.70638 7.655 5.66888 7.655 6.7811C9.07583 6.19444 10.0322 5.14027 11.0833 4.26638C11.8778 3.60638 12.3942 3.65527 13.1153 4.29083C14.1572 5.21666 15.2786 6.05388 16.6047 7.1111Z" fill="#8F7065"/>
<path d="M11.3125 18.4319C11.4408 19.2722 11.065 19.6297 10.2033 19.5655C9.64723 19.5258 9.08806 19.5655 8.53195 19.5655C8.02168 19.5655 7.59696 19.6358 7.66112 20.2836C7.73445 21.0444 7.35557 21.2002 6.66807 21.2277C5.90724 21.2461 5.51613 21.0414 5.61085 20.2133C5.67501 19.6389 5.27779 19.5136 4.83779 19.5655C3.92724 19.6725 3.75002 19.2202 3.75002 18.4166C3.72557 17.5 4.21752 17.4389 4.88363 17.5C5.54974 17.5611 5.69946 17.228 5.62918 16.678C5.51918 15.8439 5.93474 15.6605 6.68946 15.6666C7.44418 15.6728 7.74973 15.8897 7.65807 16.623C7.55723 17.4297 8.01862 17.5397 8.6664 17.5061C9.31417 17.4725 9.88862 17.5275 10.4997 17.5061C11.1689 17.4511 11.3889 17.7872 11.3125 18.4319Z" fill="#907267"/>
<path d="M17.558 21.185C17.3014 21.133 16.6414 21.3561 16.6628 20.8305C16.7636 19.0247 15.4711 19.6908 14.6064 19.5502C14.0533 19.4616 13.3383 19.8802 12.9778 19.15C12.5408 18.27 13.0511 17.5183 14.0656 17.4939C14.5225 17.4694 14.9805 17.4694 15.4375 17.4939C16.2014 17.558 16.7422 17.4327 16.6078 16.4672C16.5069 15.74 16.9805 15.6666 17.558 15.6666C18.1355 15.6666 18.7192 15.6666 18.6275 16.5161C18.5542 17.2066 18.7711 17.5916 19.5442 17.4939C20.3172 17.3961 20.4608 17.8575 20.4608 18.5144C20.4608 19.1714 20.2867 19.6175 19.5258 19.5533C18.9147 19.5014 18.5511 19.7152 18.6092 20.4027C18.7222 21.1391 18.2455 21.243 17.558 21.185Z" fill="#907267"/>
</svg>
