<svg width="24" height="24" viewBox="0 0 24 24" fill="none" xmlns="http://www.w3.org/2000/svg">
<path d="M10.1422 3.13889C15.0556 1.64167 21.0567 5.96221 21.1667 11.0558C21.2767 16.1494 19.1378 19.4586 14.8325 20.9161C13.8822 21.24 12.9442 21.1605 11.9878 21.1391C11.4408 20.5036 11.5661 19.7275 11.5478 19.0002C11.5295 18.273 11.5478 17.5 11.5478 16.7483C11.5478 13.8455 11.5478 13.8455 8.72446 13.6011C8.4189 13.5216 8.07668 13.4269 8.0614 13.0847C8.0614 12.8189 8.36696 12.6722 8.61446 12.6539C10.8874 12.4766 13.1707 12.4766 15.4436 12.6539C16.0853 12.7028 16.2625 13.1825 15.96 13.7722C15.7723 14.0744 15.5509 14.3542 15.3 14.6064C15.1075 14.8325 14.8447 15.083 15.0861 15.3947C15.3642 15.7522 15.7431 15.6605 16.0333 15.4222C17.0092 14.6092 17.9092 13.7092 18.7222 12.7333C19.1286 12.2597 18.9667 11.7861 18.5786 11.3736C17.8178 10.5578 17.0203 9.7786 16.2197 9.00249C15.9325 8.72443 15.6086 8.36082 15.19 8.77332C14.8844 9.07887 15.1197 9.41193 15.3092 9.72971C16.2258 11.2575 16.1281 11.4561 14.3925 11.4439C13.4758 11.4439 12.4339 11.8228 11.7372 10.8328C11.3797 9.1736 11.5478 7.48999 11.5875 5.82471C11.6089 4.57499 11.3492 3.63694 10.1422 3.13889Z" fill="#7F89C4"/>
<path d="M8.33331 13.2222C12 13.2619 12 13.2619 12 16.9255C12 18.3311 12 19.7366 12 21.1422C7.60609 21.3102 3.52082 17.8269 2.9311 13.4055C2.61613 11.1002 3.18429 8.76095 4.52165 6.85691C5.85901 4.95287 7.86671 3.62477 10.1422 3.13889C11.6333 2.925 12.1558 3.5025 12.0397 5.05166C11.8869 7.04693 11.9939 9.06665 11.9908 11.0741C10.9153 11.7678 9.73275 11.4744 8.60831 11.3491C7.67026 11.2483 8.03081 10.6555 8.35776 10.1269C8.66331 9.66554 9.57998 9.21026 8.9322 8.67554C8.37303 8.21721 7.92387 9.11554 7.54192 9.51276C4.45887 12.7241 4.33054 11.4653 7.64581 14.9058C7.81717 15.0925 8.00882 15.2596 8.2172 15.4039C8.27299 15.4558 8.33866 15.496 8.41029 15.522C8.48193 15.548 8.55807 15.5594 8.63418 15.5554C8.7103 15.5514 8.78483 15.5322 8.85335 15.4988C8.92187 15.4654 8.98298 15.4186 9.03303 15.3611C9.11108 15.26 9.15342 15.1359 9.15342 15.0082C9.15342 14.8805 9.11108 14.7563 9.03303 14.6553C8.78553 14.1755 8.13776 13.9036 8.33331 13.2222Z" fill="#5F6BB2"/>
<path d="M8.33327 13.2222C8.4891 13.7447 8.94438 14.035 9.30188 14.3589C9.87632 14.8691 9.95271 15.245 9.34771 15.8255C8.79466 16.3603 8.43105 16.3053 7.99411 15.7614C7.96355 15.7216 7.92383 15.6911 7.89022 15.6514C6.8055 14.4078 4.55967 13.3566 4.743 12.058C4.93856 10.68 6.92772 9.56776 8.10411 8.30888C8.55633 7.8261 8.87105 7.82304 9.32633 8.30888C9.7816 8.79471 10.081 9.13999 9.4241 9.65637C8.92521 10.0074 8.53886 10.4957 8.31188 11.0619H15.7735C15.6788 10.3958 15.1991 10.1453 14.8569 9.81832C14.3221 9.32332 14.1724 8.97804 14.7805 8.36999C15.3885 7.76193 15.7185 7.89638 16.2227 8.43721C17.1394 9.43637 18.1294 10.3989 19.1224 11.3369C19.6724 11.8564 19.7733 12.275 19.1774 12.8403C18.1487 13.8119 17.1455 14.8141 16.1677 15.8469C15.5566 16.4978 15.1685 16.1525 14.6644 15.7033C14.0899 15.1808 14.3955 14.8753 14.7805 14.4811C15.1655 14.0869 15.6666 13.7966 15.9049 12.99H8.33327C8.30577 12.99 8.25994 13.0511 8.25994 13.0816C8.27521 13.1327 8.3001 13.1804 8.33327 13.2222Z" fill="#E1E3F3"/>
</svg>
