<svg width="24" height="24" viewBox="0 0 24 24" fill="none" xmlns="http://www.w3.org/2000/svg">
<path d="M10.4723 3.07472C14.1848 2.35361 17.1578 3.68583 19.4159 6.55805C21.7778 9.55554 21.8878 12.9441 20.2134 16.2778C18.5389 19.6114 15.8164 21.3347 12 21.1391C11.8748 20.9802 11.6945 20.8336 11.6945 20.6227C11.767 20.0121 11.6535 19.3937 11.369 18.8486C11.0844 18.3035 10.6419 17.8569 10.0995 17.5672C10.6831 16.8766 11.4959 17.1241 12.22 17.0905C13.0389 17.0569 13.4178 16.7086 13.4086 15.8866C13.4086 15.1319 13.4086 14.3589 13.4086 13.6194C13.4575 11.89 13.7142 11.6516 15.4711 11.5997C15.8648 11.6063 16.2585 11.592 16.6506 11.5569C15.7706 10.7533 14.9884 9.97415 14.2061 9.17665C13.4033 8.34135 12.5336 7.57288 11.6059 6.87888C11.4599 6.45489 11.4377 5.99811 11.5417 5.56194C11.7281 4.48027 11.4287 3.63388 10.4723 3.07472Z" fill="#F06698"/>
<path d="M10.2186 17.4114C10.3164 17.5183 10.4264 17.7169 10.5241 17.7169C12.0122 17.5855 12.1191 18.4961 12.0183 19.6175C11.9725 20.1186 12.0183 20.6289 12.0183 21.1452C7.5511 21.3102 3.46277 17.7414 2.94638 13.2528C2.66224 10.9158 3.28385 8.55874 4.6835 6.66583C6.08315 4.77292 8.15457 3.48788 10.4722 3.07472C12.0611 2.92194 12.1253 3.90888 12.0305 5.08833C11.9847 5.69944 12 6.31055 11.725 6.87277C11.7647 7.70693 11.1139 8.11332 10.628 8.60526C9.60137 9.65637 8.58082 10.7105 7.48082 11.6944C7.69471 11.6578 7.42582 11.7525 7.53276 11.728C9.57693 11.2483 10.8541 11.6975 10.5883 14.1389C10.4722 15.2358 10.8725 16.3816 10.2186 17.4114Z" fill="#EF4682"/>
<path d="M10.2186 17.4114C10.2186 16.0455 10.1666 14.6797 10.24 13.3169C10.2919 12.3453 10.0108 11.9053 8.98108 12.0183C8.34553 12.0886 7.69469 12.0183 6.71692 12.0183L11.7219 6.87277C12.1833 6.67721 12.4797 6.94305 12.7791 7.23638C14.2886 8.72138 15.8011 10.2003 17.668 12.0336C16.565 12.0336 15.8988 12.0825 15.2419 12.0336C14.2213 11.9358 13.7141 12.2475 13.8516 13.3597C13.898 14.1166 13.9031 14.8755 13.8669 15.633C13.8669 17.5519 13.8669 17.555 11.8747 17.5091C11.3247 17.5 10.7777 17.4419 10.2186 17.4114Z" fill="#D1D8DC"/>
</svg>
