<svg width="24" height="24" viewBox="0 0 24 24" fill="none" xmlns="http://www.w3.org/2000/svg">
<path d="M10.4722 3.07472C14.1694 2.35972 17.1424 3.68889 19.4005 6.56111C21.7777 9.55556 21.8877 12.9564 20.2133 16.2778C18.5388 19.5992 15.8133 21.35 11.9999 21.1667C11.288 20.085 11.5599 18.9178 11.6944 17.7628C12.5622 16.1739 14.0808 15.1656 15.2511 13.8456C15.65 13.4678 16.0284 13.069 16.3847 12.6508C16.4091 12.5011 16.3511 12.4369 16.2166 12.4308C13.433 12.3178 13.3811 12.3178 13.4666 9.43639C13.4972 8.08889 13.4269 6.92778 11.8747 6.49694C11.6527 6.15427 11.5606 5.74353 11.6149 5.33889C11.7372 4.29694 11.2147 3.63389 10.4722 3.07472Z" fill="#F06698"/>
<path d="M12 17.5C12 18.7222 12 19.9444 12 21.1453C7.53275 21.3103 3.44442 17.7383 2.92803 13.2467C2.64842 10.9087 3.2743 8.55246 4.67721 6.66145C6.08012 4.77045 8.15365 3.48816 10.4722 3.07778C11.7739 2.99833 12.2169 3.63083 12.0305 4.8775C11.979 5.42187 11.9688 5.96936 12 6.51528C10.7778 6.97667 10.5058 7.86889 10.5394 9.11861C10.6219 12.0733 10.5578 12.0764 7.73137 12.6019C8.95359 13.7478 10.1055 14.8478 11.1994 16.0028C11.5905 16.4214 12.1741 16.7758 12 17.5Z" fill="#EF4682"/>
<path d="M12.0001 17.5L6.74146 12.4675C7.04701 12.2047 7.1234 12.0978 7.19673 12.0947C10.2217 11.9664 10.2278 11.9694 10.2187 8.8925C10.2187 7.64278 9.89479 6.17917 11.997 6.51528C13.479 6.31972 14.0992 6.86361 13.9067 8.44333C13.7723 9.53417 13.5615 10.8878 14.0717 11.7097C14.6523 12.6264 16.1403 11.8075 17.4695 12.2322C15.5598 14.0319 13.9465 15.9356 12.0001 17.5Z" fill="#D1D8DC"/>
</svg>
