<svg width="24" height="24" viewBox="0 0 24 24" fill="none" xmlns="http://www.w3.org/2000/svg">
<path d="M21.1361 12C21.7472 15.4772 18.5572 20.4578 13.6867 21.1025C8.33332 21.8114 3.95777 18.7222 3.10527 13.8333C2.88832 11.7586 3.10527 11.5111 5.08832 11.56C5.64372 11.5452 6.19645 11.6418 6.71388 11.8442C8.59305 13.0114 9.89166 14.7958 11.6028 16.3756C11.5783 16.3756 11.6211 16.3236 11.6211 16.1892C11.6486 13.4697 11.6853 13.4544 14.475 13.4178C15.3703 13.4178 16.3083 13.6561 17.1486 13.1122C18.0561 11.4194 19.1867 11.1078 21.1361 12Z" fill="#EF4682"/>
<path d="M6.7719 12.3208C5.85524 11.7494 4.8194 11.9664 3.85385 12.0428C2.64996 12.1344 3.40163 13.2406 3.10524 13.8272C2.29857 10.0994 3.6369 7.08972 6.49996 4.83472C9.40885 2.54306 12.7455 2.12444 16.0883 3.85083C19.3333 5.52528 21.3286 8.12556 21.1361 12C20.8848 12.0183 20.6326 12.0183 20.3813 12C18.875 11.7678 17.668 12 17.4816 13.8333C17.063 13.3781 17.115 12.8067 17.0875 12.2506C17.008 10.6158 16.9927 10.6006 15.3061 10.5822C14.7469 10.5822 14.1908 10.5822 13.6316 10.5822C11.9205 10.5394 11.7066 10.3347 11.5997 8.6725C11.6375 8.39851 11.5884 8.11954 11.4591 7.875C9.78774 9.25 8.47996 10.9978 6.7719 12.3208Z" fill="#F06698"/>
<path d="M6.77185 12.3208C8.02768 10.1361 10.1421 8.79167 11.7402 6.92472C11.893 7.105 11.9999 7.16917 12.003 7.23028C12.1344 10.2003 12.1344 10.2003 15.0982 10.2003C15.5566 10.2003 16.0149 10.2339 16.4671 10.2003C17.2524 10.13 17.5824 10.4417 17.5305 11.2392C17.4785 12.0978 17.4938 12.9625 17.4816 13.8242C16.1096 13.8394 14.7316 13.925 13.3688 13.8456C12.2749 13.7783 11.9052 14.1725 12.0182 15.2267C12.0534 15.8719 12.0534 16.5186 12.0182 17.1639L11.5599 17.5153L6.77185 12.3208Z" fill="#D0D9DC"/>
</svg>
