<svg width="24" height="24" viewBox="0 0 24 24" fill="none" xmlns="http://www.w3.org/2000/svg">
<path d="M21.13 12C21.3225 15.8286 19.538 18.5694 16.2564 20.25C12.9747 21.9306 9.55552 21.7778 6.55802 19.4158C3.69191 17.1639 2.35663 14.1817 3.0808 10.4722C3.74996 12 5.34802 11.3431 6.45107 11.8472C6.90941 13.2008 7.84441 13.705 9.23163 13.4453C9.42718 13.4086 9.17968 13.4453 9.38135 13.4453C12.3055 13.4453 12.3055 13.4453 12.4552 16.4856C14.4077 15.0311 15.6666 12.9167 17.7139 11.7128C18.875 11.5661 20.0452 11.2911 21.13 12Z" fill="#F06698"/>
<path d="M21.13 12H17.5C16.7545 12.1833 16.4 11.6028 15.9722 11.2056C14.8325 10.1117 13.7325 8.96278 12.5897 7.72222C12.0642 10.5517 12.0611 10.6128 9.11251 10.5333C7.86585 10.4997 6.97362 10.7778 6.51529 11.9939C5.96961 11.9617 5.42234 11.9679 4.87751 12.0122C3.6339 12.1956 2.99224 11.7647 3.08085 10.4508C3.84474 6.25556 7.4564 3.04111 11.5783 2.90667C16.0303 2.75694 19.9445 5.58333 21.0108 9.745C21.1903 10.4827 21.2307 11.2475 21.13 12Z" fill="#EF4682"/>
<path d="M6.51522 12C6.35022 10.5394 6.98883 9.94667 8.43105 10.2217C8.5327 10.2308 8.63496 10.2308 8.73661 10.2217C11.9266 10.2217 11.9266 10.2217 12.1344 6.71389L17.4999 12C15.9447 13.9494 14.0349 15.5322 12.0427 17.6833C12.0427 16.5497 11.9969 15.8225 12.0427 15.1044C12.1161 14.1878 11.8074 13.7936 10.8511 13.8822C10.0474 13.9464 9.21633 13.7936 8.42494 13.9158C6.86355 14.1542 6.31966 13.4881 6.51522 12Z" fill="#D1D8DC"/>
</svg>
