<svg width="24" height="24" viewBox="0 0 24 24" fill="none" xmlns="http://www.w3.org/2000/svg">
<path d="M13.1702 2.8975C16.0669 4.11972 16.6505 4.99055 16.5864 7.83221C16.5375 10.0689 14.75 10.7778 13.2222 11.6944C12 10.9336 12.5652 10.078 13.0847 9.22249C14.6797 7.71916 14.7194 6.88805 13.2527 5.6261C12.3972 5.95305 12.2322 7.28221 11.0558 7.13554C10.1025 7.4411 9.16442 7.71916 8.12859 7.4411C7.09276 7.16304 6.68026 6.41443 6.60082 5.45499C6.55016 5.02512 6.64517 4.59068 6.87063 4.22118C7.09609 3.85169 7.43898 3.56851 7.84443 3.41694C8.86428 2.99577 9.96218 2.79681 11.065 2.83333C11.783 2.3475 12.4889 2.28333 13.1702 2.8975Z" fill="#75B5E3"/>
<path d="M11.0528 7.14777C12.0153 6.67416 12.4003 5.61999 13.2406 5.00888C13.9281 6.39305 13.6867 7.83832 13.5186 9.28665C12.66 10.0017 12.7303 10.8328 13.2131 11.7311C13.2049 14.0492 13.1958 16.3796 13.1856 18.7222C11.9634 18.6825 11.2973 17.9094 10.787 16.9255C10.6165 15.6881 10.5909 14.435 10.7106 13.1916C10.9031 12.388 11.0345 11.5844 10.7809 10.7686C11.3645 9.58915 10.9978 8.35471 11.0528 7.14777Z" fill="#B5C0C7"/>
<path d="M10.7777 10.7564C11.8136 11.3308 11.3125 12.1191 11.0833 12.8708C9.36913 14.3436 10.0719 15.8316 11.0588 17.3258C11.4561 18.0591 11.8655 18.7925 10.79 19.3272C10.2761 19.0146 9.78126 18.6718 9.30802 18.3005C6.58858 15.908 6.80552 13.2222 9.86107 11.2544C10.1452 11.0619 10.4722 10.9214 10.7777 10.7564Z" fill="#5BA2D8"/>
<path d="M10.7777 19.3333C11.3888 18.6122 11.0588 17.885 10.7991 17.1577C10.8816 17.0416 10.961 17.0416 11.0435 17.1577L13.1824 18.7191C13.4544 19.0247 13.7294 19.315 13.9983 19.6144C14.5269 20.2041 14.9669 20.913 14.6644 21.6739C14.3619 22.4347 13.5277 21.9611 12.9166 22.0375C12.3055 21.2461 11.5874 20.5097 11.0833 19.6389L10.7777 19.3333Z" fill="#75B5E3"/>
<path d="M11.0833 19.6389C11.896 20.2866 12.886 20.7969 12.9166 22.0375C11.1046 22.0833 11.1046 22.0833 11.0833 19.6389Z" fill="#B2C0C7"/>
<path d="M13.1703 2.8975L11.065 2.83333C11.01 1.91667 11.618 1.95639 12.2567 1.94722C12.8953 1.93805 13.3261 2.13666 13.1703 2.8975Z" fill="#BAC5CC"/>
<path d="M13.5277 9.27748C12.8952 7.89027 13.3566 6.42971 13.2466 4.99971C15.2021 6.47555 15.2816 7.70388 13.5277 9.27748Z" fill="#FCFCFC"/>
<path d="M11.0436 17.1486H10.7992C8.89557 15.1105 8.96585 14.1389 11.0711 12.8708L11.0436 17.1486Z" fill="#F8F8F9"/>
</svg>
