<svg width="24" height="24" viewBox="0 0 24 24" fill="none" xmlns="http://www.w3.org/2000/svg">
<path d="M19.2049 7.13859C20.0849 7.16915 20.3446 7.62137 20.1216 8.44637C19.3333 11.67 18.548 14.9058 17.6985 18.1111C17.0874 20.3722 16.0149 21.1666 13.6561 21.1666C11.5813 21.1666 9.50662 21.1666 7.42885 21.1452C6.67413 20.0941 7.0744 18.8872 6.98274 17.7475C6.95027 17.2387 6.95027 16.7284 6.98274 16.2197C7.02857 15.2144 6.75357 14.5269 5.57718 14.5391C5.37377 14.5582 5.16865 14.5323 4.97642 14.4631C4.78418 14.3939 4.60955 14.2832 4.46497 14.1389C5.78802 13.3658 7.21496 13.8944 8.58384 13.8577C10.9274 13.7966 10.9305 13.8577 11.5019 11.5814C11.8838 10.0536 12.2597 8.55026 12.6508 7.03776C12.8524 6.26471 12.9349 5.33888 14.1785 5.81554C14.2733 5.85221 14.5147 5.50999 14.6858 5.33582C15.6024 6.00499 16.678 6.2036 17.7413 6.47554C18.2577 6.61304 18.826 6.67415 19.2049 7.13859Z" fill="#7DCAC3"/>
<path d="M4.46501 14.1389C7.44112 14.0227 7.44417 14.0227 7.44112 17.0355C7.44112 18.4044 7.44112 19.7733 7.44112 21.1422C2.8578 21.3774 2.93113 21.3774 2.87307 16.8644C2.83335 15.5047 3.75002 14.9455 4.46501 14.1389Z" fill="#29A79B"/>
<path d="M19.2049 7.13859C17.9827 6.86665 16.7818 6.59165 15.5688 6.33193C15.0188 6.21582 14.6521 5.96221 14.6827 5.33888C14.8996 3.96694 15.5077 2.97388 17.0568 2.89444C18.3982 2.83027 19.0674 3.68888 19.4738 4.77971C19.7671 5.58332 19.1316 6.33193 19.2049 7.13859Z" fill="#7A929D"/>
</svg>
