<svg width="24" height="24" viewBox="0 0 24 24" fill="none" xmlns="http://www.w3.org/2000/svg">
<path d="M21.1086 12.9503C21.1361 14.5178 21.1667 16.0853 21.185 17.6527C21.185 18.7589 20.6656 19.3425 19.5289 19.3394C14.5667 19.3394 9.60346 19.3394 4.63921 19.3394C3.41699 19.3394 2.91588 18.6336 2.90366 17.5061C2.88532 16.0883 2.90366 14.6705 2.90366 13.2528C3.05949 12.7028 3.50865 12.6111 3.97921 12.5683C5.20143 12.5041 6.42365 12.5103 7.64587 12.5683C8.04615 12.5866 8.50142 12.6111 8.70309 13.0358C8.94448 13.54 8.58087 13.9005 8.29365 14.258C7.9392 14.6889 7.50837 15.0525 7.13559 15.4803C6.93698 15.7064 6.67421 15.9936 6.90948 16.2716C7.23948 16.6627 7.56948 16.3297 7.82615 16.1005C8.97809 15.025 10.0689 13.8914 11.1873 12.7761C11.67 12.2933 11.6975 11.8105 11.2178 11.3155C10.1382 10.2033 9.04939 9.1186 7.95143 8.06138C7.64587 7.77721 7.28532 7.47777 6.91559 7.92693C6.61004 8.28443 6.91559 8.59304 7.1417 8.86193C7.57254 9.36304 8.09809 9.7786 8.47392 10.3255C8.84976 10.8725 8.69392 11.3155 8.02781 11.3889C6.60559 11.5341 5.17227 11.5341 3.75004 11.3889C3.20616 11.3339 2.96782 10.9916 2.99838 10.4386C3.09004 8.82221 2.83338 7.19971 3.13893 5.58332C3.5056 4.91721 4.15032 4.76138 4.81949 4.75833C9.62077 4.7461 14.4221 4.7461 19.2233 4.75833C20.5708 4.75833 21.2675 5.39694 21.1942 6.82999C21.1208 8.26304 21.1667 9.6686 21.1483 11.0833C20.1736 11.7433 19.1042 11.4194 18.0684 11.3644C17.5947 11.3369 17.3839 11.0191 17.4572 10.515C17.5214 10.1178 17.5947 9.63498 17.1028 9.47915C16.6109 9.32332 16.4336 9.82748 16.1311 10.0658C16.0551 10.1332 15.9827 10.2046 15.9142 10.2797C13.9495 12.2291 14.0014 12.7975 16.2778 14.3528C16.8889 14.7775 17.4511 14.7378 17.3595 13.9005C17.225 12.6783 17.9278 12.5255 18.8109 12.5622C19.5808 12.5928 20.4303 12.3055 21.1086 12.9503Z" fill="#5F6BB2"/>
<path d="M3.13892 5.58332C3.13892 7.00721 3.13892 8.4311 3.08697 9.86109C3.04725 10.7594 3.32531 11.1566 4.28781 11.1108C5.64447 11.0466 7.00724 11.0955 8.7703 11.0955C7.87502 10.1789 7.24252 9.48832 6.55808 8.85887C6.05391 8.39749 5.93169 8.06749 6.49697 7.5236C7.06224 6.97971 7.3678 6.86666 7.9453 7.48999C9.16752 8.79165 10.4295 10.0353 11.7128 11.2666C12.2597 11.7891 12.3758 12.1833 11.7647 12.7547C10.4356 14.0105 9.15224 15.3153 7.87808 16.6322C7.41058 17.115 7.06224 17.2433 6.50002 16.7147C5.9378 16.1861 6.0478 15.798 6.57641 15.3764C7.39021 14.8021 8.1001 14.0932 8.67558 13.2803C6.63141 13.0939 4.76753 12.6172 2.9067 13.2528C2.88531 11.1261 2.83336 8.99332 2.83336 6.8636C2.83336 6.42055 2.72031 5.93471 3.13892 5.58332Z" fill="#9EA6D4"/>
<path d="M21.1086 12.9503C20.1431 12.9503 19.1806 12.9503 18.215 12.9503C17.7261 12.9503 17.335 13.0878 17.7903 13.65C18.4167 14.4444 17.6528 14.75 17.2709 15.1136C16.7606 15.6086 16.4672 15.0525 16.1525 14.7683C13.3689 12.2444 13.3536 12.2291 15.9722 9.70832C16.3236 9.3661 16.5528 8.4311 17.3747 9.03304C18.05 9.53721 18.4167 10.1667 17.387 11.0833H21.1483C21.1361 11.6944 21.1208 12.3269 21.1086 12.9503Z" fill="#9EA6D4"/>
</svg>
