<svg width="24" height="24" viewBox="0 0 24 24" fill="none" xmlns="http://www.w3.org/2000/svg">
<path d="M2.88829 15.9111C2.74461 15.3381 2.7656 14.7361 2.94885 14.1745C3.13209 13.6129 3.47014 13.1144 3.92413 12.7364C4.66051 12.1253 4.31829 11.8197 3.86301 11.3339C2.65607 10.0078 2.48496 8.43721 3.32218 7.01026C4.21135 5.48249 5.64745 4.87138 7.45939 5.3511C8.11023 5.52527 8.27828 5.38777 8.49828 4.78888C9.24384 2.76305 10.3713 1.94722 12.1649 1.98083C13.9097 2.01444 15.0005 2.83638 15.6024 4.84999C15.8377 5.63832 16.183 5.51305 16.6749 5.31749C17.0205 5.15607 17.3985 5.07599 17.7799 5.08341C18.1613 5.09082 18.5359 5.18553 18.8749 5.36027C19.1805 5.91638 18.8535 6.20971 18.4135 6.4511C17.5977 6.70471 16.4885 6.50304 16.3541 7.80471C16.238 8.92304 16.3541 9.86415 17.5244 10.4936C18.5449 11.0466 19.1285 10.7625 19.6052 9.84581C19.816 9.44248 19.8527 8.96887 20.0971 8.57471C20.4485 8.18665 20.8305 7.9636 21.3194 8.33026C21.4286 8.90662 21.3813 9.50173 21.1825 10.0536C20.9837 10.6055 20.6405 11.094 20.1888 11.4683C19.6327 11.9786 19.706 12.2536 20.2071 12.7761C21.5791 14.2091 21.7349 15.4955 20.9099 17.0539C20.536 17.7796 19.9237 18.3546 19.1759 18.6823C18.4281 19.01 17.5904 19.0705 16.8033 18.8536C16.0272 18.6672 15.7858 18.8169 15.5535 19.59C15.028 21.3286 13.9219 22.0772 12.1924 22.1016C10.2491 22.1291 9.27439 21.5333 8.6205 19.7122C8.31495 18.8811 8.00939 18.5511 7.09273 18.9391C6.80834 19.0563 6.49962 19.1023 6.19342 19.073C5.88722 19.0437 5.59281 18.9401 5.33579 18.7711C4.92023 18.2455 5.19829 17.7597 5.42134 17.2708C5.47084 17.2152 5.53455 17.1742 5.60561 17.1521C5.67667 17.1301 5.75241 17.1278 5.82468 17.1455C6.4969 17.3289 7.2944 17.7322 7.72217 16.9164C7.93214 16.5391 8.03383 16.1113 8.01604 15.6799C7.99824 15.2486 7.86166 14.8305 7.62134 14.4719C7.38955 14.1432 7.07825 13.8786 6.71651 13.7028C6.35477 13.5271 5.95438 13.4458 5.55273 13.4666C4.9844 13.5033 4.73385 13.9922 4.51996 14.4627C4.33051 14.8752 4.39162 15.3641 4.11968 15.7552C3.74996 16.0302 3.35885 16.3389 2.88829 15.9111Z" fill="#42C3D8"/>
<path d="M21.3408 8.33332C20.9462 8.30686 20.5543 8.41454 20.2286 8.63887C18.5725 8.48304 18.0133 7.77415 18.3647 6.26471L18.8872 5.36943C19.8191 4.51999 20.8458 4.38555 21.68 5.36943C22.5141 6.35332 22.1597 7.41665 21.3408 8.33332Z" fill="#795FA8"/>
<path d="M2.88837 15.9111L3.97614 15.5719C5.36336 15.6177 5.68725 15.9416 5.75753 17.3564L5.37253 18.7558C4.42531 19.6083 3.38948 19.8894 2.49115 18.8077C1.64476 17.8055 1.89837 16.7605 2.88837 15.9111Z" fill="#7A5FA9"/>
<path d="M8.3639 8.49832C8.3639 9.72054 6.69863 11.5905 5.68113 11.3216C5.15766 11.2054 4.69512 10.9009 4.38136 10.466C4.06761 10.0311 3.92449 9.4962 3.97919 8.96276C4.0403 7.34943 4.9753 6.27082 6.38085 6.24943C7.9239 6.22499 8.37307 6.73526 8.3639 8.49832Z" fill="#FDFDFD"/>
<path d="M12.1864 21.1483C11.497 21.1673 10.8279 20.9135 10.3244 20.4421C9.82099 19.9707 9.52385 19.3197 9.49756 18.6305C9.49756 18.0194 11.3309 16.4916 12.0948 16.4672C12.7059 16.4672 14.7592 18.0988 14.75 18.6061C14.7287 19.8466 13.4606 21.1086 12.1864 21.1483Z" fill="#FEFEFE"/>
<path d="M12.1497 3.10527C13.5828 3.12055 14.8417 4.37333 14.7531 5.70249C14.7225 6.17304 12.7242 7.65804 12.0917 7.67637C11.4011 7.69776 9.44251 6.1486 9.47001 5.59249C9.47346 5.25035 9.5466 4.9125 9.68498 4.59957C9.82335 4.28665 10.0241 4.00521 10.2748 3.77244C10.5256 3.53968 10.8212 3.36047 11.1436 3.24576C11.4659 3.13105 11.8083 3.08325 12.1497 3.10527Z" fill="#FEFEFE"/>
<path d="M15.8989 15.7766C15.8989 14.3986 17.222 12.8555 18.4411 12.8066C19.2234 12.7761 20.2256 14.1633 20.2378 15.2939C20.2561 16.8216 19.2295 17.8269 17.6681 17.83C16.1648 17.83 15.8989 17.5214 15.8989 15.7766Z" fill="#FDFDFE"/>
<path d="M5.75758 17.3564C5.54369 16.3816 4.84092 15.8927 3.9762 15.5719C3.9762 14.0441 4.78286 12.8219 5.76064 12.8769C7.04091 12.9502 8.40063 14.3314 8.34869 15.6055C8.32119 16.2991 8.7398 17.2097 7.76508 17.5916C7.0898 17.8575 6.33202 18.2119 5.75758 17.3564Z" fill="#FDFDFD"/>
<path d="M18.3647 6.25554C18.38 7.5236 19.1225 8.22026 20.2286 8.6297C20.1522 10.1575 19.2905 11.4286 18.3953 11.343C17.0233 11.2116 15.8897 9.76331 15.9081 8.16221C15.9172 6.49999 16.1922 6.27693 18.3647 6.25554Z" fill="#FCFDFD"/>
<path d="M14.7653 13.5277C14.0503 13.9739 13.3811 14.5514 12.605 14.8294C11.2789 15.3061 10.4661 14.1633 9.50666 13.5705C9.33187 12.5436 9.34844 11.4931 9.55555 10.4722C11.2911 8.80693 13.0236 9.08193 14.75 10.4722C14.9791 11.4773 14.9843 12.5204 14.7653 13.5277Z" fill="#F9F9F9"/>
<path d="M17.3809 12.1283C16.8309 12.4339 16.4276 13.045 15.8195 12.6539C15.5384 12.4705 15.5476 11.7922 15.844 11.5783C16.4703 11.1322 16.889 11.6944 17.3809 12.1283Z" fill="#D4DFE2"/>
<path d="M11.0162 8.36387C10.2706 8.66943 9.97729 9.41192 9.38146 8.97498C9.24297 8.82583 9.16779 8.62874 9.17178 8.42524C9.17577 8.22175 9.25862 8.02775 9.40285 7.88415C9.91313 7.47776 10.2767 8.02776 11.0162 8.36387Z" fill="#F4F6F6"/>
<path d="M10.8633 15.9447C10.2003 16.0914 9.8764 16.8858 9.33557 16.2716C9.11557 16.0272 9.09418 15.3702 9.42418 15.1869C10.0047 14.8569 10.3806 15.3611 10.8633 15.9447Z" fill="#F0F2F3"/>
<path d="M14.6339 7.59998C14.7927 8.0646 14.8065 8.56648 14.6736 9.03915C14.1145 9.13693 13.7784 8.73359 13.3567 8.4922C13.4864 8.25514 13.6692 8.05126 13.8908 7.89649C14.1123 7.74172 14.3667 7.64025 14.6339 7.59998Z" fill="#EBEDEF"/>
<path d="M14.6125 16.4916C14.0595 16.4916 13.7967 16.0761 13.3353 15.8805C13.6409 15.355 14.1267 14.9883 14.5178 15.1869C14.9792 15.4283 14.7928 16.0241 14.6125 16.4916Z" fill="#EFF2F3"/>
<path d="M8.25697 12.7639C7.75904 12.7216 7.29636 12.4897 6.96448 12.1161C7.28531 11.6914 7.73753 11.2728 8.1867 11.505C8.5442 11.7097 8.4067 12.3055 8.25697 12.7639Z" fill="#F0F0F1"/>
<path d="M9.55561 10.4722C9.55561 11.5019 9.52811 12.5286 9.51284 13.5583C9.30795 13.0685 9.20603 12.5417 9.21338 12.0108C9.22074 11.4799 9.33723 10.9562 9.55561 10.4722Z" fill="#A8AEB2"/>
<path d="M14.7653 13.5277L14.75 10.4875C14.9779 10.9614 15.0975 11.48 15.1002 12.0059C15.1028 12.5317 14.9884 13.0516 14.7653 13.5277Z" fill="#6BA7B3"/>
<path d="M10.2156 11.8625C10.2583 11.3981 10.4785 10.9681 10.8302 10.6619C11.1819 10.3558 11.6381 10.197 12.1039 10.2186C13.1275 10.1941 14.1053 11.2147 13.98 12.1803C13.9506 12.6678 13.7369 13.1259 13.3823 13.4617C13.0277 13.7976 12.5587 13.9861 12.0703 13.9891C11.0986 14.0625 10.1667 13.0052 10.2156 11.8625Z" fill="#EA4A7E"/>
</svg>
