<svg width="24" height="24" viewBox="0 0 24 24" fill="none" xmlns="http://www.w3.org/2000/svg">
<path d="M4.1106 12.2475C2.58282 9.80304 2.25282 7.3586 4.1106 4.91416C5.96837 2.46972 9.91614 2.14278 12.0061 4.3336C12.2475 5.06694 11.5875 5.37555 11.2911 5.86138C10.4356 6.57638 9.29281 6.71388 8.39753 7.42888C6.96753 8.56554 6.46031 10.1544 5.8767 11.7372C5.22587 11.563 4.96004 12.1925 4.46809 12.3941C4.40073 12.4146 4.32836 12.4112 4.26322 12.3845C4.19808 12.3578 4.14416 12.3094 4.1106 12.2475Z" fill="#A1DBE6"/>
<path d="M19.9445 12.0397C22.3645 15.1197 21.1514 19.263 18.4534 20.5647C16.2136 21.6433 14.0534 21.4814 12.0367 19.9322C11.9864 19.8912 11.9475 19.8378 11.924 19.7773C11.9004 19.7168 11.8929 19.6512 11.9023 19.5869C12.2659 18.6366 10.9856 19.208 10.9856 18.5939C10.9891 18.5212 11.0097 18.4503 11.0459 18.3871C11.082 18.3239 11.1325 18.2702 11.1934 18.2302C11.612 18.0072 12.0734 18.0377 12.5225 18.0041C15.5781 17.7811 17.7597 15.6269 17.995 12.5714C17.9805 12.1177 18.0488 11.6652 18.1967 11.2361C18.231 11.1744 18.2777 11.1205 18.334 11.0778C18.3903 11.0352 18.4549 11.0048 18.5236 10.9886C18.8995 11.0589 18.9697 11.3675 18.9972 11.6669C19.0461 12.223 19.3456 11.9725 19.6084 11.8869C19.6734 11.8722 19.7414 11.8792 19.8021 11.9068C19.8628 11.9344 19.9128 11.9811 19.9445 12.0397Z" fill="#92BD86"/>
<path d="M18.6672 11.178C18.6343 11.1474 18.5951 11.1244 18.5523 11.1107C18.5096 11.097 18.4643 11.0928 18.4197 11.0986C18.3056 11.0416 18.2039 10.9626 18.1205 10.8661C18.0372 10.7696 17.9737 10.6575 17.9339 10.5364C17.1883 8.28443 15.6361 6.86971 13.4117 6.15777C13.1751 6.06612 12.9651 5.91701 12.8006 5.72388C12.495 5.30221 12.1283 4.90805 12.2169 4.32138C13.7722 2.7325 15.6453 2.46055 17.6222 3.23666C19.7336 4.06777 21.1055 5.54666 21.1972 7.9911C21.2522 9.51887 21.0414 10.8969 19.9505 12.0397L19.6694 12C19.1072 12 19.043 11.4041 18.6672 11.178Z" fill="#F392A7"/>
<path d="M12 19.6389C12 19.7336 12.0214 19.8252 12.0367 19.92C9.54337 21.7533 6.6192 21.6922 4.61171 19.755C2.47282 17.6802 2.27727 14.9608 4.09838 12.2353C4.19154 12.2374 4.28469 12.2302 4.37643 12.2139C4.95087 12.1528 5.33587 12.5194 5.75143 12.825C6.33809 13.4361 6.31059 14.3528 6.77198 15.0219C7.47818 16.1475 8.50213 17.0385 9.71448 17.5825C10.2186 17.7964 10.8084 17.888 11.117 18.4289C11.1154 18.5174 11.1422 18.6041 11.1934 18.6764C11.4317 19.0277 12 19.1194 12 19.6389Z" fill="#A391C5"/>
<path d="M12.2078 4.32138L13.0511 5.61694C12.7821 5.8567 12.4351 5.99045 12.0747 5.99326C11.7144 5.99607 11.3653 5.86775 11.0925 5.63221L12.0092 4.32749C12.0754 4.33378 12.1421 4.33172 12.2078 4.32138Z" fill="#90B1CA"/>
<path d="M11.0834 5.63221L13.042 5.61694C15.8287 6.46638 17.8453 8.06138 18.4106 11.0986C18.9942 15.303 15.7003 18.9605 11.1201 18.4319C8.06451 17.8452 6.35646 15.8897 5.58646 12.9839C5.2809 12.55 5.19229 12.1253 5.62007 11.7128C5.84653 9.96063 6.70489 8.35146 8.03396 7.18749C8.94451 6.35332 10.1209 6.2311 11.0834 5.63221Z" fill="#EFEBE9"/>
<path d="M5.62923 11.7158C5.62923 12.1375 5.60478 12.5622 5.59561 12.9839C5.07617 12.9166 4.76756 12.5164 4.38867 12.2261C4.79812 12.0428 4.82256 10.9336 5.62923 11.7158Z" fill="#78B6DC"/>
<path d="M18.6672 11.178C19.1531 11.2728 19.422 11.6272 19.6664 12.0122C19.5819 12.1905 19.4597 12.3484 19.3083 12.475C19.157 12.6016 18.9799 12.6939 18.7895 12.7455L18.6672 11.178Z" fill="#85916A"/>
<path d="M12 19.6389C11.6211 19.4066 11.2697 19.153 11.1934 18.6702H12.66C12.7242 19.2875 12.3239 19.4372 12 19.6389Z" fill="#6D977B"/>
<path d="M15.6667 10.1666C15.6911 11.3308 15.7522 12.495 15.7308 13.6561C15.7033 15.0769 14.9242 15.8377 13.7081 15.7247C13.4566 15.7006 13.2128 15.6249 12.9921 15.5022C12.7713 15.3795 12.5782 15.2125 12.425 15.0117C12.2718 14.8108 12.1618 14.5805 12.1018 14.3351C12.0418 14.0898 12.0331 13.8347 12.0764 13.5858C12.3025 12.4614 13.2803 11.9572 14.6308 12.2689C15.193 11.8594 14.8172 11.2789 14.8844 10.7839C14.9517 10.2889 15.025 9.88248 15.6667 10.1666Z" fill="#863C97"/>
<path d="M11.1323 10.5333C11.1323 11.7555 11.1995 12.9594 11.1323 14.1633C11.062 15.0555 10.4723 15.6116 9.55563 15.7155C9.1787 15.7782 8.79163 15.7134 8.4557 15.5313C8.11977 15.3492 7.85416 15.0603 7.70091 14.7103C7.29453 13.928 7.47175 13.2405 8.04925 12.6386C8.62674 12.0366 9.38452 12.385 10.0567 12.2566C10.6098 11.7953 10.2217 11.1628 10.347 10.6219C10.4723 9.99554 10.5029 9.99248 11.1323 10.5333Z" fill="#863C97"/>
<path d="M11.1322 10.5333C10.57 9.98332 10.5547 10.4539 10.4722 10.8694C10.3805 11.3461 10.7503 11.9725 10.0444 12.2566C10.0994 11.2575 10.1911 10.2553 10.2003 9.2561C10.2003 8.60832 10.4508 8.33943 11.0925 8.36999C12.0968 8.43827 13.1047 8.43316 14.1083 8.35471C15.6361 8.17138 15.9722 8.85276 15.6666 10.1666C15.0311 10.2094 15.0555 10.6708 15.0555 11.1261C15.0555 11.5814 15.2328 12.0428 14.6491 12.2597C14.9089 10.0841 13.925 9.60137 11.1322 10.5333Z" fill="#9C5BA4"/>
</svg>
