<svg width="24" height="24" viewBox="0 0 24 24" fill="none" xmlns="http://www.w3.org/2000/svg">
<path d="M1.17896 15.8588C1.92126 15.0034 2.25117 13.8518 3.20425 13.1462C4.3536 12.2438 5.7972 11.8007 7.25485 11.9029C9.15796 11.4752 11.6751 13.6166 12.2616 15.874C12.3277 16.1032 12.3697 16.3387 12.3868 16.5766C12.4767 17.5351 12.3855 18.502 12.118 19.4267C11.5071 21.2596 10.3371 22.457 8.40038 22.8083H4.78967C2.80103 22.2371 1.53942 20.9785 1.17896 18.886V15.8588Z" fill="#79919D"/>
<path d="M8.40039 22.8205C9.92777 22.0416 11.223 21.0121 11.8798 19.3442C12.3685 18.996 12.9336 19.0724 13.4774 19.0724C15.9802 19.0602 18.4811 19.0602 20.9799 19.0724C21.6305 19.0724 22.2934 19.0296 22.8402 19.4939C22.8402 20.6028 23.2709 22.1454 22.718 22.7014C22.1651 23.2574 20.6316 22.8236 19.5288 22.8236L8.40039 22.8205Z" fill="#FDFDFC"/>
<path d="M22.8402 19.4909L11.8798 19.3442C11.9378 18.4003 11.9989 17.4564 12.0569 16.5125C12.122 16.4544 12.2022 16.4161 12.2882 16.402C12.3743 16.388 12.4625 16.3987 12.5426 16.4331C12.8481 16.5553 13.1169 16.7569 13.1536 17.044C13.2911 18.7333 14.4183 18.7638 15.7135 18.7486C18.0168 18.7211 20.32 18.6508 22.6233 18.7822L22.7638 18.7516L22.8524 18.8708L22.8402 19.4909Z" fill="#F6C23A"/>
<path d="M1.17898 18.886C1.91933 20.5575 3.18782 21.9397 4.7897 22.8206C3.58612 22.8206 1.92129 23.3001 1.31034 22.6892C0.699386 22.0782 1.17898 20.3981 1.17898 19.1885V18.886Z" fill="#FAFAFA"/>
<path d="M22.6111 18.7974C22.2507 19.2893 21.7222 19.1548 21.2426 19.1579C18.9118 19.1579 16.578 19.1151 14.2503 19.1823C13.2147 19.2129 12.7626 18.8952 12.9062 17.8352C12.9795 17.3067 12.8879 16.8363 12.3136 16.6133C12.6191 16.0023 14.0181 15.648 12.7718 14.6644C12.6527 13.9709 11.9501 13.5036 12.0448 12.7307C13.7737 11.9456 13.9204 10.9803 12.6221 8.91227C12.3075 7.26271 12.4205 5.59787 12.5091 3.94219C12.5366 3.44427 12.4144 2.67753 13.2453 2.52784L22.6111 18.7974Z" fill="#FCB317"/>
<path d="M13.2452 2.52784C12.5671 3.63977 13.0131 4.86473 12.9398 6.03164C12.8634 7.07942 12.9214 8.13942 12.9184 9.19331C12.1028 10.2686 12.7962 11.7135 12.0478 12.804C12.3921 12.95 12.671 13.2172 12.8314 13.555C12.9919 13.8928 13.0228 14.2778 12.9184 14.6369C12.6129 15.0951 12.4082 15.6113 12.002 15.9962C11.1772 13.7479 9.53066 12.4649 7.26404 11.9151C8.95637 8.97031 10.6243 6.01942 12.3624 3.09908C12.5029 2.83332 12.4632 1.91689 13.2452 2.52784Z" fill="#FEC334"/>
<path d="M6.64088 21.0335C4.47506 21.0121 2.94769 19.4451 3.01183 17.3128C3.06682 15.48 4.78359 13.7754 6.61339 13.7663C8.72422 13.7663 10.2424 15.3272 10.2363 17.5114C10.2302 19.6955 8.79753 21.0549 6.64088 21.0335Z" fill="#485961"/>
<path d="M12.002 15.984C12.0844 15.3731 11.8889 14.5849 12.9184 14.6247C13.7859 14.5911 13.9784 15.0645 13.9173 15.8466C13.8226 17.0685 12.8206 16.2956 12.3258 16.6194C12.2525 16.56 12.1631 16.5238 12.0692 16.5155L12.002 15.984Z" fill="#363B38"/>
<path d="M12.0356 12.7918C12.0356 11.8937 12.0845 10.9895 12.0356 10.0945C11.999 9.41936 12.3411 9.20858 12.9032 9.17803C13.4805 9.21775 13.9907 9.30939 13.899 10.0945C13.8761 10.4923 13.8761 10.8911 13.899 11.2889C13.8899 13.0545 13.8899 13.0545 12.0356 12.7918Z" fill="#303839"/>
</svg>
