<svg width="24" height="24" viewBox="0 0 24 24" fill="none" xmlns="http://www.w3.org/2000/svg">
<path d="M18.658 18.1355C18.6825 20.7389 18.273 21.1911 15.7766 21.1911C13.048 21.1911 10.3164 21.1575 7.59083 21.1911C6.15166 21.2155 5.57111 20.5616 5.61083 19.1775C5.64139 18.0164 5.61083 16.8522 5.61083 15.6911C6.02944 14.3558 7.36472 13.7753 8.14999 12.5714C7.655 12.1772 6.69861 12.4094 6.53361 11.5233C6.41579 10.7152 6.55699 9.89043 6.93694 9.16749C8.45249 5.82777 13.1397 4.36111 16.2778 6.2586C16.733 6.53666 17.7108 6.7261 16.953 7.6611C15.9691 8.0186 14.9425 7.86888 13.9372 7.86582C12.9319 7.86277 12.4339 8.21416 12.4492 9.28054C12.4797 11.1139 12.4675 12.9289 12.4492 14.753C12.4492 15.7125 12.8555 16.1189 13.818 16.128C14.9272 16.128 16.0516 15.9905 17.1455 16.29C18.0133 16.9011 17.2494 17.2341 16.8797 17.4939C16.0031 18.1458 14.9791 18.5711 13.8986 18.7321C12.8182 18.893 11.7146 18.7847 10.6861 18.4166C10.1544 18.2394 9.38138 17.61 9.08805 18.3403C8.74583 19.1958 9.79388 19.3333 10.3378 19.4739C12.6905 20.085 15.028 20.2194 17.1853 18.7497C17.6253 18.4564 18.0133 17.9705 18.658 18.1355Z" fill="#90A4AE"/>
<path d="M17.1944 7.41666C15.028 5.01194 9.66555 5.03944 7.44722 8.99027C6.24334 11.1292 6.59167 11.8014 9.17055 12.1742C8.1011 13.4574 6.90999 14.6342 5.61389 15.688L2.10001 12.3942C2.40557 12.1497 2.49418 12.0367 2.55529 12.0458C4.12278 12.2964 4.96001 11.7586 4.99973 10.0444C5.01806 9.37833 5.44584 8.72138 5.69028 8.05833C5.79417 6.75055 6.80861 6.06 7.655 5.30833C10.3439 2.89445 15.0555 2.76612 17.9278 4.97222C18.2684 5.19565 18.5085 5.54315 18.5969 5.94083C22.2636 9.34166 22.0069 15.2144 18.658 18.163C15.6667 20.5555 12.0183 21.0414 9.10333 19.373C8.69694 19.1408 7.83833 19.0094 8.36694 18.2486C8.72139 17.7383 9.06666 17.1394 10.0597 17.665C12.715 19.0736 15.2205 18.5816 17.4358 16.5772C17.393 15.5475 18.5969 15.1197 18.6244 14.1328C19.0248 12.864 19.0397 11.505 18.6672 10.2278C18.4716 9.12471 17.4817 8.45249 17.1944 7.41666Z" fill="#1F88C9"/>
<path d="M18.5969 5.92861C14.1389 2.37806 8.88641 3.24584 5.69641 8.05833C5.67197 6.89416 5.59252 5.73 5.63836 4.56889C5.68113 3.51778 6.28308 2.88834 7.37391 2.88222C10.4661 2.88222 13.5553 2.85167 16.6475 2.88222C18.2211 2.90667 18.7589 3.79889 18.5969 5.92861Z" fill="#92A6AF"/>
<path d="M17.1944 7.41666C18.0866 8.02777 18.5847 8.91083 18.9972 9.8611C19.0186 11.3675 19.0125 12.8769 18.9636 14.3864C18.7314 15.303 18.0469 15.9141 17.4358 16.5711C16.015 16.5711 14.5911 16.5436 13.1733 16.5711C12.3514 16.5986 11.9725 16.3541 11.9878 15.4589C12.0305 13.1244 12.0244 10.79 11.9878 8.45249C11.9878 7.65194 12.2933 7.38 13.0694 7.39833C14.4444 7.45027 15.8164 7.41666 17.1944 7.41666Z" fill="#AFBDC4"/>
<path d="M18.9544 14.3925C18.5288 12.9103 18.5405 11.3368 18.9881 9.8611C19.4966 11.3308 19.4847 12.9305 18.9544 14.3925Z" fill="#EDEDEF"/>
<path d="M16.1189 9.28665C16.675 9.28665 17.2281 9.28665 17.7842 9.28665C18.3403 9.28665 18.4167 9.66859 18.4167 10.1116C18.4167 10.5547 18.4686 11.0955 17.8056 11.1108C16.6964 11.1353 15.5872 11.1322 14.4781 11.1108C13.8181 11.1108 13.867 10.5944 13.8456 10.133C13.8272 9.59832 13.9922 9.25304 14.6064 9.27137C15.1106 9.28665 15.6147 9.27137 16.1189 9.27137V9.28665Z" fill="#2289C9"/>
<path d="M16.1189 12.938C16.6231 12.938 17.1272 12.938 17.6467 12.938C18.2333 12.9197 18.4472 13.21 18.4411 13.7691C18.435 14.3283 18.4075 14.7928 17.6711 14.7805C16.7545 14.7805 15.8561 14.7591 14.9486 14.7805C14.2245 14.808 13.8242 14.6278 13.8425 13.7814C13.8608 12.935 14.2917 12.9166 14.9089 12.9166C15.3122 12.9319 15.7156 12.9166 16.1311 12.9166L16.1189 12.938Z" fill="#2289C9"/>
</svg>
