<svg width="24" height="24" viewBox="0 0 24 24" fill="none" xmlns="http://www.w3.org/2000/svg">
<path d="M5.58333 15.7094L2.24055 12.4308C2.35055 12.2353 2.41167 12.0794 2.44528 12.0825C4.19611 12.3697 4.69417 11.5661 5.09139 9.87639C5.87055 6.57028 8.81 3.2275 14.75 4.03416C17.7261 4.4375 21.3042 8.00639 21.2461 11.8167C21.1942 15.5658 19.6175 18.2517 16.2931 19.6389C13.155 20.9558 10.0261 20.6472 7.41055 18.1111C7.08667 17.0569 7.74361 16.7728 8.57472 16.6261C10.1422 17.28 11.5814 18.2089 13.4636 18.0408C15.7644 17.8331 17.4694 16.8186 18.3769 14.7531C19.2844 12.6875 19.3608 10.5028 17.8575 8.55333C16.3542 6.60389 14.4139 5.66583 12 6.14555C9.64417 6.61 7.96972 8.00028 7.2425 10.3775C7.09278 10.8725 6.93694 11.3247 7.65806 11.5997C9.45778 12.2781 9.49139 12.5408 8.07972 13.8822C7.89639 14.0594 7.70083 14.2214 7.50222 14.3803C6.83 14.7897 6.60389 15.8378 5.58333 15.7094Z" fill="#5E6BB2"/>
<path d="M5.58334 15.7094C6.28611 15.3825 6.60695 14.6583 7.16917 14.1817C7.62445 15.0983 8.53806 15.7736 8.67556 16.8736C8.3496 16.899 8.04347 17.0401 7.81257 17.2716C7.58166 17.5031 7.44123 17.8095 7.41667 18.1356C6.58125 17.5237 5.94379 16.6802 5.58334 15.7094Z" fill="#909ACC"/>
<path d="M8.66028 16.8889C8.08889 16.0303 7.01945 15.4497 7.15389 14.1969L9.03 12.5347C8.76111 12.2444 8.7 12.1192 8.63278 12.1161C6.27695 11.9603 6.11806 11.6822 7.14472 9.44555C7.50296 8.64308 8.02222 7.92274 8.6703 7.3292C9.31839 6.73566 10.0815 6.28158 10.9123 5.99509C11.7431 5.70861 12.6239 5.59584 13.5001 5.66377C14.3762 5.7317 15.2291 5.97888 16.0058 6.39C16.7808 6.80134 17.4644 7.3654 18.0154 8.04816C18.5664 8.73091 18.9734 9.51821 19.2118 10.3626C19.4503 11.2069 19.5152 12.0908 19.4027 12.9609C19.2902 13.831 19.0026 14.6693 18.5572 15.4253C16.7544 18.4961 12.6111 19.4617 9.51889 17.5C9.2225 17.3167 8.94445 17.0906 8.66028 16.8889Z" fill="#CFD3EB"/>
<path d="M13.4942 10.3928C13.0175 11.8992 13.8792 12.8953 15.41 13.5431C15.8226 13.7418 16.2155 13.9791 16.5833 14.2519C16.6511 14.2869 16.7102 14.3367 16.7563 14.3975C16.8023 14.4583 16.8341 14.5287 16.8494 14.6035C16.8646 14.6782 16.8629 14.7555 16.8444 14.8295C16.8258 14.9035 16.7909 14.9724 16.7422 15.0311C16.5558 15.3367 16.3083 15.4711 15.9875 15.2786C14.7653 14.5483 13.5614 13.815 12.3575 13.0664C12.0703 12.8861 12.0519 12.5592 12.0519 12.2506C12.0519 10.9825 12.0519 9.7175 12.0519 8.44944C12.0519 7.93916 12.1681 7.53278 12.7853 7.53278C13.4025 7.53278 13.5094 7.9575 13.5003 8.46472C13.4881 9.01778 13.4942 9.57694 13.4942 10.3928Z" fill="#626EB4"/>
</svg>
