<svg width="24" height="24" viewBox="0 0 24 24" fill="none" xmlns="http://www.w3.org/2000/svg">
<path d="M1.02139 22.9786C1.02139 15.9722 1.03361 8.94443 1 1.935C1 1.17111 1.17111 1 1.935 1C8.64499 1.03463 15.355 1.03463 22.065 1C22.8288 1 23 1.17111 23 1.935C22.9674 8.64499 22.9674 15.355 23 22.065C23 22.8289 22.8288 23.003 22.065 23C15.0555 22.9664 8.02776 22.9786 1.02139 22.9786Z" fill="#FEFEFF"/>
<path d="M21.2003 12.1375C21.2003 14.423 21.2003 16.7055 21.2003 18.9911C21.2003 20.7664 20.7939 21.188 19.0614 21.1941C14.3905 21.2084 9.71854 21.2084 5.04558 21.1941C3.50253 21.1941 2.9067 20.6258 2.9067 19.1041C2.88429 14.4332 2.88429 9.7623 2.9067 5.09138C2.9067 3.51777 3.54531 2.91277 5.16475 2.90666C9.78474 2.89037 14.4058 2.89037 19.0278 2.90666C20.6594 2.90666 21.1667 3.47194 21.1942 5.1311C21.2094 7.46554 21.2003 9.79998 21.2003 12.1375Z" fill="#404DA1"/>
<path d="M18.7221 10.7778C19.3149 12.6783 19.8282 14.5605 18.7863 16.4978C18.1323 17.7104 17.0506 18.6364 15.7516 19.0956C14.4526 19.5547 13.0293 19.5142 11.7585 18.9819C10.5386 18.4594 9.5487 17.5135 8.97143 16.3185C8.39415 15.1235 8.26842 13.7601 8.61742 12.4797C9.42715 9.6961 12.171 7.94221 14.9088 8.4586C15.1563 8.50443 15.4007 8.57165 15.6452 8.62665C16.3144 10.1025 15.3794 11.1841 14.7285 12.3391C14.4566 12.498 14.1174 12.3911 13.8546 12.4889C13.048 12.7761 12.3513 13.268 12.5621 14.2153C12.7516 15.08 13.5155 15.4191 14.3221 15.1319C15.2663 14.7989 15.3824 14.038 14.9332 13.1794C15.8606 11.9431 17.2083 11.0888 18.7221 10.7778Z" fill="#8992C9"/>
<path d="M10.3683 8.42193C6.32583 12.2811 6.97055 16.0333 9.98638 19.1164C7.89027 19.8802 5.0975 17.283 4.73083 14.5758C4.3 11.4775 6.82694 8.63888 10.3683 8.42193Z" fill="#8992C8"/>
<path d="M14.475 12.3208C14.9333 11.0986 15.6788 9.99248 15.6452 8.62665C15.6636 8.01554 15.6911 7.40443 15.6941 6.79332C15.6941 4.78888 15.853 4.68805 17.8697 4.68805C18.9544 4.68805 19.4738 5.04555 19.3974 6.19138C19.3394 7.25166 19.3577 8.33026 19.3974 9.38137C19.4188 9.99248 19.2599 10.4722 18.6977 10.7686L15.0311 13.1886C15.0261 13.2976 14.9986 13.4044 14.9502 13.5023C14.9018 13.6001 14.8336 13.6868 14.75 13.7569C14.4994 13.9433 14.203 14.0961 13.9341 13.8853C13.5827 13.6072 13.8027 13.2528 13.9066 12.9289C14.0132 12.6621 14.216 12.4451 14.475 12.3208Z" fill="#C3C8E5"/>
<path d="M14.475 12.3208L14.1695 12.9778C13.8395 13.2833 13.0909 13.5889 13.647 14.1083C14.2031 14.6278 14.4659 13.9066 14.75 13.5278L15.0556 13.2222C15.9967 13.2864 15.7461 13.9953 15.6147 14.4444C15.5324 14.7679 15.3529 15.0584 15.1006 15.2769C14.8482 15.4954 14.535 15.6314 14.2031 15.6666C13.848 15.7234 13.4841 15.6732 13.1576 15.5225C12.8311 15.3718 12.5569 15.1273 12.3697 14.8203C12.1701 14.5525 12.0684 14.2243 12.0817 13.8906C12.0951 13.5569 12.2226 13.2378 12.4431 12.9869C12.9442 12.3483 13.5278 11.7158 14.475 12.3208Z" fill="#4250A2"/>
<path d="M14.7499 13.5278C14.8172 14.2122 14.701 14.7653 13.8333 14.75C13.7313 14.7614 13.628 14.7517 13.5299 14.7215C13.4318 14.6913 13.341 14.6413 13.2631 14.5745C13.1851 14.5078 13.1217 14.4257 13.0769 14.3334C13.032 14.2411 13.0066 14.1406 13.0022 14.038C12.9808 13.2894 13.4544 12.9686 14.1724 12.9747C14.1358 13.21 13.9799 13.543 14.0808 13.6622C14.2794 13.9005 14.5085 13.5644 14.7499 13.5278Z" fill="#8790C7"/>
</svg>
