<svg width="24" height="24" viewBox="0 0 24 24" fill="none" xmlns="http://www.w3.org/2000/svg">
<path d="M20.1766 7.41665C18.3586 8.00638 16.51 7.61221 14.6553 7.63665C13.5125 7.65499 13.0236 7.87804 13.0969 9.13998C13.2085 11.0124 13.2085 12.8898 13.0969 14.7622C13.0175 16.1403 13.3444 17.2066 14.4536 18.0714C15.1655 18.6244 15.7705 19.318 16.623 20.14H7.72222C7.85392 19.9465 8.00661 19.7682 8.1775 19.6083C10.9275 17.7964 11.5386 15.1778 11.1414 12.1069C10.9611 10.7136 11.7128 8.8711 10.8756 7.99415C9.95889 7.03777 8.09806 7.77415 6.64973 7.6886C5.94389 7.64277 5.23195 7.6886 4.51084 7.6886C3.85084 7.67332 3.48112 7.4686 4.0189 6.78721C5.67806 7.12332 7.35556 6.9736 9.02694 7.01332C9.40332 7.03996 9.78033 6.97134 10.1232 6.8138C10.466 6.65626 10.7637 6.41487 10.9886 6.11193C11.8258 5.09749 12.4828 5.1036 13.158 6.13638C13.6255 6.85443 14.2 7.01027 14.9455 7.01027C16.1128 7.01027 17.28 6.99499 18.4441 7.01027C19.0553 6.99804 19.6816 6.93693 20.1766 7.41665Z" fill="#666FB4"/>
<path d="M20.1766 7.41666C18.2089 7.41666 16.2411 7.39221 14.2764 7.41666C13.5247 7.41666 12.8342 7.46554 12.88 6.38693C12.8845 6.29714 12.871 6.20736 12.8402 6.12289C12.8094 6.03842 12.7619 5.961 12.7007 5.89518C12.6394 5.82937 12.5656 5.77652 12.4836 5.73975C12.4015 5.70297 12.3129 5.68303 12.2231 5.6811C11.9922 5.65392 11.7596 5.71549 11.5723 5.85335C11.3851 5.9912 11.2573 6.19504 11.2147 6.4236C11.0833 7.41666 10.4722 7.41666 9.72361 7.41666C8.21111 7.3861 6.69556 7.41666 5.18306 7.41666C4.68501 7.41666 4.13195 7.50527 4.02501 6.7811C4.38556 5.7911 5.19528 5.66277 6.10584 5.6536C7.70389 5.63527 9.32333 6.00499 10.5792 4.35499C11.2544 3.44444 13.4361 3.79277 14.1205 4.75833C14.6858 5.54971 15.3214 5.69333 16.1739 5.64444C16.9804 5.57717 17.7915 5.5833 18.5969 5.66277C19.5594 5.78805 20.3508 6.19444 20.1766 7.41666Z" fill="#4350A2"/>
<path d="M20.2683 12.8739L22.1016 13.0114C21.4233 14.3864 20.2683 14.7439 19.0003 14.8447C17.39 14.97 15.8867 14.7011 14.8875 13.1336C15.4803 12.7853 16.0486 13.048 16.5711 12.9197C17.1317 12.5958 17.7663 12.4214 18.4137 12.4134C19.0612 12.4053 19.6998 12.5639 20.2683 12.8739Z" fill="#4652A3"/>
<path d="M7.4564 12.88L9.28973 13.0053C8.65112 14.2916 7.57862 14.695 6.39001 14.8203C4.74612 14.9975 3.22751 14.7408 1.98085 13.0633L3.75001 12.9166C4.98751 12.3055 6.2189 12.2108 7.4564 12.88Z" fill="#4652A3"/>
<path d="M20.2683 12.8739L16.5833 12.9166L18.4167 8.36388C19.2082 9.78959 19.8297 11.3033 20.2683 12.8739Z" fill="#8E96C9"/>
<path d="M7.4564 12.88L3.75002 12.9166L5.62001 8.36999C6.40845 9.79535 7.02489 11.3093 7.4564 12.88Z" fill="#8E96C9"/>
</svg>
