<svg width="24" height="24" viewBox="0 0 24 24" fill="none" xmlns="http://www.w3.org/2000/svg">
<path d="M20.5861 11.12C18.9453 15.9477 15.5261 18.9361 10.8083 20.5708C10.1422 20.7022 9.79695 20.2041 9.41195 19.8283C7.75177 18.1987 6.10279 16.5497 4.46502 14.8814C3.92418 14.3405 3.34668 13.7936 3.75002 12.9166C5.58335 8.29971 8.54723 4.85304 13.5278 3.48721C14.5117 3.79277 15.0189 4.64832 15.6972 5.2961C17.1119 6.65582 18.4869 8.04609 19.8589 9.4547C20.305 9.90081 20.8611 10.3408 20.5861 11.12Z" fill="#5F4138"/>
<path d="M20.5861 11.12C20.5525 10.5089 20.085 10.1544 19.6969 9.76026C17.6416 7.66415 15.5852 5.57008 13.5278 3.47805C14.5147 3.06555 15.5261 2.77222 16.6139 2.90666C18.163 4.48027 19.923 5.85527 21.1666 7.72221C21.2984 8.88691 21.0971 10.0651 20.5861 11.12Z" fill="#9C8A85"/>
<path d="M3.75002 12.9166C3.76836 13.3139 3.75002 13.708 4.08002 14.0319C6.35335 16.1708 8.38529 18.5755 10.8022 20.58C9.84943 21.0552 8.78192 21.2522 7.72224 21.1483C6.32891 20.3875 5.41835 19.0919 4.28475 18.0439C3.85453 17.6252 3.38942 17.2439 2.89447 16.9041C2.80891 15.4925 3.19391 14.1816 3.75002 12.9166Z" fill="#9C8A85"/>
<path d="M2.90059 16.9041C3.13893 16.6841 3.38642 16.5589 3.66754 16.8889C4.97226 18.3586 6.56725 19.5533 7.72836 21.1666C7.57558 21.1666 7.42281 21.2094 7.27614 21.2125C3.41087 21.3011 2.83337 20.745 2.90059 16.9041Z" fill="#60433A"/>
<path d="M21.1667 7.72221C19.4922 6.2586 17.7353 4.88055 16.6108 2.90666C20.7236 2.815 21.3867 3.51777 21.1667 7.72221Z" fill="#60433A"/>
<path d="M13.8608 9.46693C13.4697 9.0422 13.2497 8.7672 12.9931 8.52582C12.6356 8.18359 12.5806 7.88415 12.9656 7.50221C13.3506 7.12026 13.5767 7.17832 13.9983 7.45943C15.08 8.16832 16.1892 8.75193 16.6903 10.1147C16.8706 10.6005 17.0539 10.8297 16.6414 11.2361C16.2289 11.6425 15.9478 11.5753 15.6483 11.1719C15.0953 10.4325 14.6308 10.4386 13.9525 11.1261C13.2742 11.8136 13.0939 12.3147 13.9525 12.9319C14.3895 13.2375 14.31 13.543 13.9525 13.9219C13.5247 14.3803 13.1856 14.3283 12.8525 13.8669C12.2414 13.0266 11.777 13.3322 11.1628 13.928C10.5486 14.5239 10.3409 15.0372 11.1445 15.6177C11.6364 15.9752 11.5783 16.3114 11.1445 16.7208C10.7106 17.1302 10.5334 16.9072 10.1361 16.7025C8.97808 16.1158 8.07974 15.3794 7.57252 14.1389C7.40447 13.7233 6.97669 13.4819 7.45641 12.993C7.93613 12.5041 8.27224 12.6416 8.58391 13.0755C9.21641 13.9647 9.65641 13.5308 10.24 12.9747C10.8236 12.4186 11.1567 11.9236 10.2981 11.3186C9.8428 10.9916 9.8153 10.625 10.2584 10.1941C10.7686 9.69915 11.0375 10.0811 11.3981 10.3714C11.67 10.5944 11.8533 11.1841 12.3606 10.7869C12.8678 10.3897 13.3445 9.92831 13.8608 9.46693Z" fill="#9C8A85"/>
</svg>
