<svg width="24" height="24" viewBox="0 0 24 24" fill="none" xmlns="http://www.w3.org/2000/svg">
<path d="M18.9972 18.0652L18.0805 18.9819C17.338 19.4097 16.9683 18.7802 16.5528 18.3952C15.3794 17.283 14.255 16.1219 13.1122 14.9791C12.5561 14.4169 12.0397 13.8578 11.2178 14.6491C10.5639 15.2755 10.075 15.7308 10.7503 16.788C11.5722 18.0622 12.3942 19.4525 11.9969 21.1269L10.4692 21.0964C9.64111 20.9986 9.5525 20.308 9.305 19.7061C8.55333 17.8086 8.54417 17.8116 6.86056 18.9177C6.76547 18.9999 6.64986 19.0546 6.52608 19.0761C6.40231 19.0977 6.27501 19.0852 6.15778 19.04L5.24112 18.1539C4.91417 17.5061 5.35723 17.1058 5.72084 16.6933C6.36556 15.9661 6.04472 15.5444 5.30528 15.2022C4.56584 14.86 3.71028 14.8264 3.1664 14.1236C3.13555 14.0891 3.11292 14.0481 3.10022 14.0037C3.08752 13.9592 3.08507 13.9125 3.09306 13.8669C2.90056 12.0153 3.16334 11.7953 4.92639 12.2994C5.70977 12.5215 6.45398 12.8637 7.1325 13.3139C8.18667 14.0228 8.90166 13.6378 9.60139 12.7944C10.3897 11.8411 9.47 11.453 9.01778 10.9305C7.69472 9.40277 5.96222 8.25082 4.905 6.49083C5.25234 5.80823 5.81213 5.25703 6.5 4.92027C8.25083 5.98055 9.39361 7.69471 10.9122 9.00249C11.4255 9.44554 11.8044 10.4111 12.7455 9.64721C13.5583 8.99332 14.0961 8.30582 13.3567 7.20277C12.9151 6.52967 12.5618 5.8026 12.3055 5.03944C11.6944 3.28861 12 2.90055 13.87 3.11444C13.9153 3.10604 13.9619 3.108 14.0064 3.12017C14.0508 3.13234 14.0919 3.15441 14.1267 3.18472C14.8203 3.67055 14.7836 4.52 15.1075 5.18916C15.5139 6.02944 15.9814 6.43583 16.8125 5.62916C17.1791 5.27472 17.5886 4.95083 18.1569 5.24722L19.04 6.16388C19.208 6.5611 18.9453 6.82388 18.7344 7.09888C17.775 8.3761 17.8178 8.4861 19.3211 9.10943C20.03 9.41499 20.9436 9.43943 21.0964 10.4661L21.13 11.9939C19.5655 12.3789 18.2425 11.6883 17.063 10.8633C16.0272 10.1544 15.4253 10.3042 14.6614 11.1933C13.7447 12.2505 14.64 12.7211 15.2022 13.3108C16.2564 14.4016 17.3655 15.4497 18.4075 16.5466C18.7925 16.953 19.425 17.3228 18.9972 18.0652Z" fill="#E55425"/>
<path d="M4.92029 6.49999C6.90028 8.01249 8.46167 9.96499 10.2797 11.6455C10.6617 12 10.6861 12.2841 10.2797 12.6416C9.82628 13.0493 9.39483 13.4807 8.98722 13.9341C8.57473 14.3925 8.24778 14.3986 7.69778 14.0564C6.77932 13.5231 5.82585 13.0524 4.8439 12.6478C3.62168 12.0978 2.95862 12.4369 3.10223 13.87C2.50029 11.1139 3.05335 8.63888 4.92029 6.49999Z" fill="#EC844B"/>
<path d="M13.87 3.11444C12.1436 3.255 12.0519 3.37722 12.6478 4.99666C12.8983 5.65971 13.2894 6.26777 13.54 6.93082C13.7508 7.48388 14.5667 7.94832 14.2519 8.48915C13.8028 9.25304 13.0297 9.83665 12.3942 10.4783C12.0703 10.8022 11.835 10.4783 11.6394 10.2766C9.95277 8.47082 8.00944 6.90027 6.5 4.92027C8.63889 3.06555 11.1108 2.49416 13.87 3.11444Z" fill="#EC844B"/>
<path d="M18.9972 18.0652C18.6 16.7758 17.3778 16.1861 16.5833 15.2327C16.1311 14.6919 15.5903 14.2244 15.0892 13.7233C13.2772 11.9144 13.2925 11.9297 15.1656 10.2155C15.5994 9.81526 15.8836 9.65331 16.4214 10.078C17.8055 11.1658 19.4403 11.6516 21.133 12C21.405 14.3619 20.5555 16.3389 18.9972 18.0652Z" fill="#EC844B"/>
<path d="M12 21.13C11.6333 19.3914 11.1475 17.6955 10.0078 16.2778C9.65027 15.8347 9.81833 15.6178 10.1086 15.2694C11.8075 13.21 11.7983 13.2466 13.7386 15.0647C15.1564 16.403 16.2411 18.1111 18.0653 18.9972C16.3389 20.5555 14.3619 21.405 12 21.13Z" fill="#EC844B"/>
<path d="M6.17001 19.043C6.26381 19.0058 6.35384 18.9598 6.4389 18.9055C8.65112 17.0447 8.86195 17.0936 9.80001 19.9811C9.91211 20.4106 10.1455 20.7989 10.4722 21.0994C8.84673 20.9207 7.32997 20.1957 6.17001 19.043Z" fill="#EB854D"/>
<path d="M21.0994 10.4722C20.4639 9.57082 19.3547 9.59832 18.4839 9.17054C17.3167 8.60221 17.0661 8.06443 18.1783 7.1936C18.4969 6.88565 18.7817 6.54455 19.0278 6.1761C20.1925 7.32676 20.9243 8.84429 21.0994 10.4722Z" fill="#EB854D"/>
<path d="M18.1569 5.24722C17.4694 5.24722 17.0936 5.78194 16.7117 6.22194C16.0211 7.01638 15.5536 6.74444 15.1044 5.99583C14.5819 5.125 14.3742 4.14722 14.1267 3.18472C15.7247 3.37417 17.0203 4.15639 18.1569 5.24722Z" fill="#EC854C"/>
<path d="M3.18474 14.1389C4.03113 14.4261 4.88973 14.6766 5.71779 15.0097C6.85751 15.468 7.0439 16.1066 6.00501 16.9347C5.62001 17.2402 5.25029 17.6039 5.24723 18.1569C4.15946 17.0172 3.37418 15.7247 3.18474 14.1389Z" fill="#EC854C"/>
</svg>
