<svg width="24" height="24" viewBox="0 0 24 24" fill="none" xmlns="http://www.w3.org/2000/svg">
<path d="M12.0275 21.2094C10.8232 21.2204 9.62872 20.9914 8.51386 20.5358C7.39899 20.0802 6.38605 19.4071 5.53415 18.5557C4.68224 17.7044 4.00845 16.6919 3.55208 15.5773C3.09571 14.4628 2.86592 13.2685 2.87612 12.0642C2.88088 10.8462 3.12661 9.64131 3.59914 8.5188C4.07168 7.39628 4.76168 6.37838 5.62939 5.52373C6.4971 4.66909 7.52536 3.99461 8.65491 3.53916C9.78446 3.08371 10.993 2.85628 12.2108 2.87C16.9928 2.87 21.405 7.06527 21.243 12.1742C21.078 17.3594 17.2525 21.2308 12.0275 21.2094Z" fill="#212121"/>
<path d="M17.5397 12.1803C17.5183 15.2908 15.1533 17.5733 11.9817 17.5397C11.2591 17.5366 10.5443 17.3897 9.87904 17.1076C9.21379 16.8255 8.61134 16.4137 8.10682 15.8964C7.6023 15.3791 7.2058 14.7665 6.94042 14.0944C6.67504 13.4223 6.5461 12.7041 6.56111 11.9816C6.60109 10.5216 7.21258 9.13569 8.26403 8.12195C9.31547 7.10822 10.7228 6.54774 12.1833 6.5611C15.2236 6.6161 17.5611 9.06665 17.5397 12.1803Z" fill="#E0E1E0"/>
<path d="M12.0336 15.7003C10.3164 15.6697 9.28361 13.9586 10.1819 12.498C10.5028 11.9755 10.6158 11.6883 10.2919 11.0864C9.81833 10.2125 10.0261 9.29888 10.8725 8.66027C11.2039 8.37588 11.6251 8.21776 12.0618 8.21385C12.4984 8.20994 12.9224 8.36048 13.2589 8.63888C14.1389 9.29582 14.4444 10.2125 13.8333 11.1689C13.488 11.7342 13.6408 12.0275 13.9769 12.4614C14.2197 12.7616 14.3581 13.1327 14.3714 13.5185C14.3846 13.9044 14.2719 14.2841 14.0503 14.6003C13.8478 14.9514 13.5525 15.2398 13.1967 15.4339C12.8408 15.628 12.4384 15.7201 12.0336 15.7003Z" fill="#242424"/>
<path d="M11.9664 14.8019C11.2086 14.7561 10.6983 14.368 10.7442 13.485C10.79 12.6936 11.3064 12.3178 12.055 12.3147C12.8769 12.3147 13.4514 12.7425 13.4483 13.5797C13.4453 14.4169 12.8739 14.805 11.9664 14.8019Z" fill="#DBDBDA"/>
<path d="M12.165 11.3889C11.3675 11.3889 10.9764 10.9367 10.9428 10.2767C10.9244 10.1236 10.9401 9.96829 10.9887 9.82193C11.0372 9.67558 11.1175 9.54175 11.2237 9.42998C11.3299 9.31821 11.4595 9.23125 11.6032 9.17532C11.7469 9.11938 11.9012 9.09584 12.055 9.10638C12.7211 9.10638 13.2222 9.46693 13.2253 10.2094C13.2374 10.3574 13.2191 10.5063 13.1717 10.647C13.1242 10.7877 13.0486 10.9172 12.9493 11.0276C12.85 11.1381 12.7293 11.2271 12.5944 11.2892C12.4596 11.3513 12.3134 11.3852 12.165 11.3889Z" fill="#DEDEDE"/>
</svg>
