<svg width="24" height="24" viewBox="0 0 24 24" fill="none" xmlns="http://www.w3.org/2000/svg">
<path d="M11.5814 2.54305C16.1647 1.98389 21.4019 6.55499 21.2461 12.0794C21.0903 17.6039 17.0844 21.6952 11.5906 21.68C10.3185 21.6971 9.05597 21.4578 7.87838 20.9764C6.70079 20.4949 5.63225 19.7812 4.73653 18.8778C3.8408 17.9743 3.13624 16.8997 2.66489 15.718C2.19354 14.5364 1.96506 13.2719 1.99308 12C2.02364 6.63443 6.17002 2.54305 11.5814 2.54305Z" fill="#212121"/>
<path d="M10.7442 7.72221C10.7442 8.73665 9.28972 10.405 8.37306 10.4233C7.24251 10.4478 5.62306 8.55332 5.65973 7.28832C5.68112 6.79943 7.67028 5.10054 8.24167 5.08221C9.01472 5.06082 10.735 6.87276 10.7442 7.72221Z" fill="#D1D1D1"/>
<path d="M12.5378 7.7711C12.5378 6.90638 14.1633 5.09749 14.9578 5.0761C15.6086 5.06083 17.555 6.8086 17.5367 7.39221C17.4847 8.80693 16.1036 10.4141 14.9272 10.4294C13.9953 10.4416 12.5378 8.8161 12.5378 7.7711Z" fill="#D2D2D2"/>
<path d="M6.50002 15.9233C4.86835 15.9233 4.0953 15.2939 4.07697 13.9922C4.07697 13.3811 6.00502 11.7158 6.66502 11.7586C7.74974 11.8258 8.92001 13.2864 8.90779 14.5453C8.88946 15.4375 8.02779 15.9325 6.50002 15.9233Z" fill="#D1D1D1"/>
<path d="M16.6231 15.9233C15.575 16.0761 14.5606 15.8194 14.4536 14.4353C14.3497 13.103 15.6239 11.7219 16.7483 11.7464C17.3258 11.7464 19.2233 13.4819 19.1928 13.9769C19.1592 15.3061 18.3922 15.9172 16.6231 15.9233Z" fill="#D2D2D1"/>
<path d="M11.6944 15.7339C12.9167 15.4864 13.6042 16.1433 13.7508 17.1853C13.9464 18.5725 12.8342 19.8955 11.6853 19.8986C10.5883 19.8986 9.47916 18.5389 9.64722 17.1486C9.78166 16.0455 10.5272 15.4741 11.6944 15.7339Z" fill="#D0D0D0"/>
</svg>
