<svg width="24" height="24" viewBox="0 0 24 24" fill="none" xmlns="http://www.w3.org/2000/svg">
<path d="M15.3825 20.2499C15.1717 21.3897 14.2733 21.1086 13.5308 21.1452C12.8525 19.9597 11.8228 19.6786 10.5028 19.7213C9.0178 19.7672 7.48391 19.7213 6.20364 18.7344C4.97225 17.8819 3.75003 17.0019 3.49337 15.3611C4.15948 15.1136 4.66059 15.5505 5.20448 15.7827C6.99197 16.5466 8.83447 17.0875 10.7961 17.0691C11.1567 17.0691 11.7464 17.225 11.7495 16.6352C11.7495 16.1402 11.2086 16.07 10.8114 16.073C8.7978 16.073 6.89725 15.5811 5.02114 14.915C4.25606 14.6523 3.52953 14.2885 2.86087 13.8333V11.7158C3.58809 11.1597 4.20531 11.6669 4.81642 11.9541C6.58254 12.8353 8.51539 13.3321 10.4875 13.4116C10.3989 12.8005 9.98335 12.8005 9.69002 12.7211C7.50225 12.22 5.44892 11.1719 3.16031 11.0833C2.46976 10.1666 3.31615 9.47303 3.46587 8.68164C5.06086 8.60831 5.83697 7.55415 6.48475 6.26165C7.05003 5.12804 8.04613 4.3336 8.95058 3.47805C10.4722 2.41166 12.1833 3.03194 13.7997 2.86694C13.9067 3.45972 13.3872 3.47805 13.0603 3.62166C10.7778 4.55666 9.46696 6.49998 8.14697 8.41887C7.95752 8.69387 7.67947 9.09109 8.07974 9.33553C8.48002 9.57998 8.69085 9.15831 8.88946 8.87109C9.75531 7.44964 10.7928 6.14017 11.9786 4.97221C12.7975 4.20832 13.6592 3.51166 14.7531 3.1786C15.4281 3.30975 16.0582 3.61166 16.5833 4.05555C16.6933 4.8561 15.9722 5.0211 15.5383 5.37249C13.8333 6.73221 12.2689 8.19581 11.3033 10.2033C12.7089 9.74498 13.5095 8.58081 14.4231 7.5572C15.3367 6.5336 16.1678 5.3236 17.4786 4.6911H17.7842C18.4655 5.45193 19.1103 6.18832 18.4655 7.3372C18.2333 7.75276 18.6642 8.18665 18.8811 8.58081C19.8467 10.3408 20.8611 12.0886 21.1667 14.1389C20.9742 15.2388 20.4242 16.1922 19.9292 17.17C18.8505 17.5855 19.0369 16.6475 18.985 16.183C18.7437 14.4226 18.1978 12.7176 17.3717 11.1444C17.115 10.6219 16.9103 10.0078 16.2228 9.80609C15.7308 10.3316 16.1586 10.7533 16.3847 11.1566C17.6956 13.5277 18.6305 15.9722 18.3892 18.7222C18.0011 19.2783 17.5978 19.8191 16.8614 19.9658C15.8469 19.6205 16.0853 18.655 15.9447 17.9461C15.6392 16.3419 15.2878 14.7775 14.4964 13.3352C14.358 13.0136 14.1272 12.7403 13.8333 12.55C13.7753 14.1572 14.5025 15.4619 14.7867 16.8552C15.025 17.9797 15.6667 19.0277 15.3825 20.2499Z" fill="#BFBEBE"/>
<path d="M2.86087 13.8333C3.62781 13.4697 4.03726 14.2275 4.63003 14.4138C6.70169 15.0555 8.75502 15.7919 10.9856 15.6666C11.557 15.6361 12.0856 15.6666 12.3117 16.3816C12.5378 17.0966 12.5806 17.5 11.6058 17.5C8.68169 17.5794 6.01114 16.7788 3.49337 15.3611C3.03504 14.9577 2.99226 14.368 2.86087 13.8333Z" fill="#EDEDED"/>
<path d="M18.3892 18.7222C17.9278 17.1944 17.9553 15.5475 17.3136 14.038C16.9325 13.0458 16.4653 12.0888 15.9172 11.178C15.4925 10.5211 14.9578 9.77553 15.9172 9.23165C16.9347 8.65415 17.063 9.84276 17.335 10.298C18.4105 12.1314 19.2386 14.1022 19.3272 16.2869C19.3425 16.7025 19.3272 17.1363 19.9169 17.1486C19.7244 17.9888 18.7222 18.0408 18.3892 18.7222Z" fill="#EDEDED"/>
<path d="M15.3825 20.2499C14.6828 17.83 13.9739 15.4069 13.2864 12.9808C13.155 12.5194 13.1733 11.9969 13.7142 11.835C14.255 11.673 14.3467 12.2077 14.5483 12.5408C15.795 14.5758 16.2319 16.8522 16.5528 19.1652C16.5955 19.4708 16.6017 19.7763 16.8736 19.9811C16.4642 20.5555 15.9142 20.3386 15.3825 20.2499Z" fill="#EDEDED"/>
<path d="M14.75 3.16638C12.3759 4.92943 10.2736 6.93998 8.90475 9.61969C8.55337 10.3072 7.98809 9.92525 7.59087 9.74497C6.99809 9.49747 7.37087 9.0422 7.5542 8.73053C9.0667 6.17304 10.8542 3.89971 13.7997 2.86694L14.75 3.16638Z" fill="#EEEDED"/>
<path d="M17.5 4.6911C15.8256 6.52443 14.1501 8.35776 12.4736 10.1911C12.1986 10.4966 11.9236 10.8175 11.4622 10.8022C11.2134 10.8249 10.9633 10.7761 10.7411 10.6616C10.4111 10.3775 10.7656 10.1361 10.9092 9.8947C12.024 8.07152 13.4794 6.48013 15.1961 5.20749C15.6667 4.84388 16.3114 4.66666 16.5833 4.05555C16.7848 4.0459 16.9838 4.10295 17.1495 4.21785C17.3152 4.33275 17.4384 4.49909 17.5 4.6911Z" fill="#EDEDED"/>
<path d="M21.1666 14.1388C20.0972 12.0519 19.3914 9.78469 18.0225 7.84748C17.9217 7.70387 17.8483 7.35859 17.9186 7.30053C19.0461 6.36859 18.1722 5.54665 17.8025 4.70026C21.0689 7.05915 21.6005 10.4172 21.1666 14.1388Z" fill="#EDEDED"/>
<path d="M3.16033 11.0833C3.16033 10.6708 3.07477 10.2583 3.79282 10.4997C5.99282 11.23 8.21726 11.8991 10.4325 12.5775C10.8847 12.715 11.4103 12.828 11.3247 13.4086C11.23 14.0594 10.6097 13.8333 10.2095 13.8333C8.29599 13.7068 6.4266 13.2021 4.70949 12.3483C4.13199 12.0672 3.60338 11.5936 2.87616 11.7372C2.96171 11.4989 3.06255 11.2819 3.16033 11.0833Z" fill="#EEEDED"/>
<path d="M6.19447 18.7222C8.20197 19.1011 10.2095 19.4494 12.275 19.3333C13.5858 19.2569 13.3414 20.3691 13.5217 21.1361C11.0192 21.4966 8.65113 21.2705 6.54586 19.6725C6.19447 19.3852 5.94392 19.1836 6.19447 18.7222Z" fill="#EEEDED"/>
<path d="M8.9628 3.46277C9.26835 4.07388 8.61752 4.19916 8.35169 4.45888C7.52149 5.25422 6.83144 6.18393 6.31058 7.20887C5.73003 8.47998 4.97225 9.24997 3.47809 8.66637C4.49253 6.07221 6.17003 4.17777 8.9628 3.46277Z" fill="#EEEEEE"/>
</svg>
