<svg width="24" height="24" viewBox="0 0 24 24" fill="none" xmlns="http://www.w3.org/2000/svg">
<path d="M11.6945 17.8055C10.7778 18.7507 9.86115 19.6959 8.94448 20.6411C8.15004 21.4477 7.34338 21.408 6.5581 20.6411C5.49782 19.6022 4.47116 18.548 3.4231 17.5C2.65005 16.7361 2.68977 16.015 3.46283 15.2755C4.48949 14.2916 5.49782 13.2925 6.51838 12.2964C8.15236 10.0959 10.1025 8.14882 12.3056 6.51832C13.2986 5.50083 14.2978 4.48944 15.2786 3.46277C15.9814 2.72639 16.6231 2.70805 17.3442 3.46277C18.3892 4.57296 19.4668 5.65157 20.577 6.6986C21.4447 7.51749 21.3622 8.24165 20.5495 9.01776C19.5197 9.9986 18.5114 11.0008 17.4939 11.9939C15.8383 14.1895 13.8866 16.1452 11.6945 17.8055Z" fill="#A1887F"/>
<path d="M12.3056 6.51832C10.4922 8.56582 8.55323 10.4986 6.50001 12.3055C5.72084 11.1108 4.59946 10.2308 3.60335 9.24998C2.66224 8.31804 2.55835 7.50221 3.56057 6.5611C4.56279 5.61999 5.60168 4.60554 6.55195 3.5636C7.41667 2.61638 8.07362 2.76305 8.94445 3.60027C10.0231 4.61777 10.7778 6.02943 12.3056 6.51832Z" fill="#BEADA7"/>
<path d="M11.6945 17.8055C13.4918 15.7372 15.4317 13.7973 17.5 12C18.2914 13.1947 19.4006 14.0961 20.4303 15.0555C21.3469 15.9172 21.4875 16.7147 20.5403 17.6283C19.5931 18.5419 18.5939 19.5533 17.6344 20.5311C16.675 21.5088 15.8378 21.353 14.8845 20.4975C13.8333 19.5839 13.1611 18.2241 11.6945 17.8055Z" fill="#BEADA6"/>
<path d="M12.9167 10.2553C12.8403 10.8664 12.4614 11.1291 11.8686 11.0589C11.4164 11.0069 11.0864 10.7533 11.1536 10.2583C11.1714 10.0022 11.2857 9.76227 11.4734 9.58705C11.6611 9.41183 11.9082 9.3143 12.165 9.31415C12.718 9.30498 12.9167 9.73276 12.9167 10.2553Z" fill="#BDABA5"/>
<path d="M10.2584 11.12C10.3749 11.1169 10.4908 11.1394 10.5977 11.1859C10.7047 11.2324 10.8001 11.3018 10.8773 11.3892C10.9545 11.4766 11.0116 11.5799 11.0446 11.6918C11.0775 11.8036 11.0856 11.9213 11.0681 12.0366C11.0787 12.151 11.0642 12.2663 11.0255 12.3744C10.9869 12.4826 10.9251 12.581 10.8445 12.6627C10.7639 12.7445 10.6664 12.8077 10.5588 12.8479C10.4512 12.888 10.3362 12.9042 10.2217 12.8953C9.69921 12.9136 9.28976 12.6905 9.30504 12.1283C9.32032 11.5661 9.74809 11.2575 10.2584 11.12Z" fill="#BDABA5"/>
<path d="M14.75 12.0458C14.698 12.6844 14.3253 12.9625 13.7325 12.8953C13.2772 12.8586 12.938 12.5897 12.9869 12.1161C12.9977 11.8592 13.1056 11.616 13.2888 11.4356C13.472 11.2552 13.7169 11.1512 13.9739 11.1444C14.5239 11.1139 14.7225 11.5355 14.75 12.0458Z" fill="#BDABA5"/>
<path d="M11.9236 14.75C11.4194 14.6766 11.0344 14.423 11.1567 13.8639C11.1896 13.6088 11.3193 13.3762 11.5189 13.2141C11.7185 13.052 11.9728 12.9729 12.2292 12.993C12.7089 13.0266 12.9044 13.3933 12.9014 13.8486C12.8983 14.4597 12.5439 14.75 11.9236 14.75Z" fill="#BDABA5"/>
</svg>
