<svg width="24" height="24" viewBox="0 0 24 24" fill="none" xmlns="http://www.w3.org/2000/svg">
<path d="M19.92 11.3889C19.2814 12.3483 19.6878 13.4178 19.6144 14.4444C19.5411 15.7461 19.6144 17.0569 19.593 18.3616C19.593 18.9452 19.703 19.2783 20.4089 19.315C21.9519 19.3669 21.4936 20.2836 21.13 21.13C20.2592 19.868 18.9208 19.8191 17.5978 19.8039C14.0014 19.7702 10.405 19.8039 6.80862 19.7825C6.06613 19.7825 5.28085 19.92 4.65141 19.3119C4.65141 17.0752 4.67279 14.8386 4.65141 12.5897C4.65141 12.1589 4.81335 11.673 4.34585 11.3308C4.29391 10.9703 4.53835 10.7686 4.77974 10.5883C6.88196 9.00554 9.08195 7.55721 11.2178 6.00499C11.4097 5.83588 11.6519 5.73467 11.9071 5.717C12.1622 5.69933 12.4161 5.76617 12.6294 5.90721C15.1004 7.49202 17.5041 9.17563 19.8405 10.958C19.8997 11.0109 19.9396 11.0819 19.954 11.1599C19.9684 11.2379 19.9564 11.3184 19.92 11.3889Z" fill="#90A4AE"/>
<path d="M19.92 11.3889C17.6895 9.82748 15.4528 8.27221 13.2222 6.69249C12.4278 6.12415 11.8534 5.91027 10.9 6.69249C8.82836 8.36082 6.55809 9.80304 4.36115 11.34C3.78059 11.9205 3.36198 11.9511 2.81504 11.1841C2.2681 10.4172 2.69893 10.1208 3.22143 9.75415C5.92559 7.86276 8.63892 5.98666 11.3064 4.05555C11.9389 3.60027 12.4247 3.74999 12.9595 4.12888C15.6911 6.06304 18.4167 8.00332 21.1667 9.90998C21.6831 10.2705 21.8511 10.5211 21.4081 11.0925C20.965 11.6639 20.6136 12.2353 19.92 11.3889Z" fill="#6D8089"/>
<path d="M4.66671 19.3089C8.91698 19.3089 13.1672 19.3486 17.4175 19.3089C18.4411 19.3089 19.4128 19.5594 20.4181 19.6144C21.515 19.6847 21.0292 20.5555 21.1453 21.1177C15.3744 21.1503 9.60244 21.1768 3.82948 21.1972C3.2581 21.1972 2.85171 21.1208 2.87004 20.3905C2.87004 19.755 2.94643 19.2752 3.75921 19.3455C4.06219 19.3546 4.36544 19.3424 4.66671 19.3089Z" fill="#6C8089"/>
<path d="M14.0564 11.945C13.2467 12.11 12.88 11.7036 12.4278 11.4958C11.9756 11.288 11.45 11.3216 11.2575 11.838C11.065 12.3544 11.5386 12.6814 11.9603 12.828C12.5255 13.0266 13.1428 13.0725 13.7172 13.2466C14.5147 13.488 14.8111 14.0808 14.7469 14.8905C14.6889 15.6666 12.7792 17.5 12.0244 17.5C11.7189 17.5 9.50056 15.6116 9.42111 15.2694C9.31111 14.7958 9.64722 14.808 9.94972 14.7683C10.252 14.7258 10.5601 14.7594 10.8461 14.8661C11.1321 14.9728 11.387 15.1493 11.5875 15.3794C11.9694 15.7583 12.4583 15.7675 12.7455 15.2725C13.0969 14.6614 12.7455 14.3253 12.1711 14.1572C11.5967 13.9891 11.0833 13.87 10.5639 13.6989C10.2438 13.6101 9.95704 13.4287 9.73961 13.1776C9.52218 12.9265 9.38374 12.6167 9.34167 12.2872C9.25 11.6364 9.60444 11.1291 10.1667 10.7778C10.303 10.7107 10.4357 10.6363 10.5639 10.5547C12.495 9.09721 12.6447 9.11554 14.31 11.0894C14.4689 11.2758 14.7164 11.4439 14.6155 11.7311C14.4597 12.1191 14.0839 11.9328 14.0564 11.945Z" fill="#6D8089"/>
</svg>
