<svg width="24" height="24" viewBox="0 0 24 24" fill="none" xmlns="http://www.w3.org/2000/svg">
<path d="M1.02139 22.9786C1.02139 15.9722 1.03361 8.94443 1 1.935C1 1.17111 1.17111 1 1.935 1C8.64499 1.03463 15.355 1.03463 22.065 1C22.8288 1 23 1.17111 23 1.935C22.9674 8.64499 22.9674 15.355 23 22.065C23 22.8289 22.8288 23.003 22.065 23C15.0555 22.9664 8.02776 22.9786 1.02139 22.9786Z" fill="#FEFEFE"/>
<path d="M2.87609 12C2.87609 10.2217 2.95248 8.44027 2.84859 6.66805C2.7722 5.35416 3.60331 5.62916 4.32442 5.62305C5.04553 5.61694 5.8247 5.4 5.7972 6.68944C5.7147 10.295 5.73303 13.9036 5.7972 17.5122C5.81553 18.8841 4.88053 18.4075 4.22664 18.4533C3.57276 18.4991 2.78442 18.7222 2.85165 17.5C2.94942 15.6666 2.87609 13.8333 2.87609 12Z" fill="#2C363C"/>
<path d="M11.1077 11.8625C11.1077 10.0842 11.1566 8.30277 11.0894 6.52749C11.0436 5.41222 11.7647 5.57111 12.388 5.63833C13.0113 5.70555 14.0227 5.14333 14.0136 6.52138C13.9861 10.188 13.9647 13.8547 14.0136 17.5C14.0349 18.8689 13.1122 18.4166 12.4552 18.4533C11.7983 18.49 11.0222 18.7222 11.0833 17.5C11.1719 15.6269 11.1077 13.7447 11.1077 11.8625Z" fill="#2C363C"/>
<path d="M10.3683 12.1039C10.3683 13.8791 10.3378 15.6544 10.3836 17.4266C10.405 18.1997 10.185 18.4991 9.36609 18.4961C8.5472 18.493 8.33331 18.2822 8.33331 17.4725C8.37609 13.873 8.36692 10.2736 8.33331 6.67416C8.33331 5.94083 8.45248 5.57111 9.3172 5.58944C10.1025 5.60777 10.3897 5.82777 10.3714 6.63138C10.3378 8.45555 10.3683 10.2797 10.3683 12.1039Z" fill="#303A3F"/>
<path d="M16.5833 11.945C16.5833 10.2217 16.6108 8.49832 16.5833 6.77499C16.565 6.00805 16.6505 5.55277 17.6192 5.58638C18.4655 5.61083 18.6244 5.94388 18.6183 6.68332C18.5939 10.2828 18.5817 13.8791 18.6183 17.4786C18.6183 18.3219 18.2975 18.4686 17.5489 18.4961C16.6842 18.5266 16.5589 18.1569 16.5742 17.4205C16.623 15.5964 16.5833 13.7691 16.5833 11.945Z" fill="#303A3F"/>
<path d="M21.2094 12.165C21.2094 13.8944 21.2094 15.6208 21.2094 17.3594C21.2094 17.995 21.2888 18.5327 20.3172 18.5052C19.4922 18.4839 19.3119 18.1997 19.3211 17.4389C19.3577 13.8822 19.3425 10.3225 19.3211 6.76582C19.3211 6.11805 19.2813 5.6261 20.2377 5.59555C21.3011 5.56194 21.2125 6.15166 21.2094 6.83916C21.2002 8.60832 21.2094 10.3866 21.2094 12.165Z" fill="#283339"/>
<path d="M6.53053 11.945C6.53053 10.1697 6.51525 8.39443 6.53053 6.61916C6.53053 6.23416 6.28608 5.61999 7.07136 5.63833C7.68247 5.63833 7.60303 6.13944 7.60303 6.52138C7.60303 10.2247 7.60303 13.925 7.60303 17.6252C7.60303 18.05 7.60303 18.4655 6.99192 18.4533C6.31664 18.4533 6.51219 17.9277 6.50914 17.5733C6.52136 15.6972 6.53053 13.8333 6.53053 11.945Z" fill="#28363C"/>
<path d="M14.7653 11.9114C14.7653 10.078 14.7653 8.25999 14.7653 6.43582C14.7653 6.13027 14.6278 5.6811 15.19 5.63221C15.7522 5.58332 15.8469 5.95305 15.8439 6.40221C15.8439 10.1544 15.8439 13.9066 15.8439 17.6589C15.8439 18.105 15.7981 18.4839 15.2144 18.4502C14.5392 18.4105 14.7683 17.885 14.7653 17.5336C14.75 15.6666 14.7653 13.7875 14.7653 11.9114Z" fill="#28363C"/>
</svg>
