<svg width="24" height="24" viewBox="0 0 24 24" fill="none" xmlns="http://www.w3.org/2000/svg">
<path d="M12.9533 4.92333C14.1939 4.68194 15.4222 4.48027 15.9294 6.09971C16.3633 7.12332 15.9294 8.18971 16.0761 9.22554C16.1342 9.65943 15.9692 10.3133 16.51 10.3928C17.1608 10.4844 17.0264 9.78165 17.1211 9.38443C17.3258 8.3761 17.6833 7.45638 18.4625 6.74138C18.5175 6.82693 18.5511 6.95832 18.6275 6.98888C20.858 7.92388 20.3936 9.89776 20.2011 11.5722C19.8497 14.4933 19.3333 17.4083 17.0111 19.59C14.1114 22.34 9.10639 21.8327 6.84834 18.5389C5.15557 16.073 4.00668 13.4208 3.94557 10.353C3.9089 8.57471 4.7889 7.01638 4.98751 5.30221C5.4214 6.32277 5.94696 7.21804 7.02862 7.74665C7.63973 8.05221 7.77723 8.80082 7.82917 9.46693C7.89945 10.3836 8.42195 10.6036 9.24695 10.6525C12.4369 10.8358 12.4522 10.8205 12.4919 7.6611C12.5042 6.74138 12.2108 5.7361 12.9533 4.92333Z" fill="#8D6F63"/>
<path d="M12.9533 4.92332C12.9533 6.53971 12.8861 8.15915 12.9533 9.77248C12.9839 10.7258 12.718 11.1994 11.6822 11.0986C11.0276 11.039 10.369 11.039 9.71443 11.0986C8.25082 11.23 7.09888 11.1169 7.38916 9.12471C7.46555 8.60526 7.13555 7.8811 6.55499 7.81693C4.86527 7.6336 4.92638 6.50304 5.00277 5.30221C5.39083 4.11055 6.4786 3.99444 7.44721 3.89666C8.89123 3.77642 10.3413 3.74478 11.7891 3.80194C12.0884 3.80903 12.3741 3.9282 12.5897 4.13587C12.8052 4.34353 12.935 4.62455 12.9533 4.92332Z" fill="#725950"/>
<path d="M18.4503 6.74137C18.2058 8.04609 17.2097 9.13387 17.4236 10.5914C17.5 11.1078 16.895 11.065 16.507 11.0803C15.9508 11.1047 15.6514 10.8541 15.6758 10.2797C15.737 8.88637 15.462 7.46859 15.9386 6.09971C17.0081 5.37554 17.9186 5.31443 18.4503 6.74137Z" fill="#745B51"/>
<path d="M12.7303 12.9166C13.9953 12.9166 15.2633 12.9166 16.5314 12.9166C17.2342 12.9166 17.4664 13.0878 17.3442 13.9097C17.0692 15.743 16.733 17.6039 15.0678 18.6519C14.2391 19.2101 13.2609 19.5045 12.2618 19.4963C11.2627 19.4881 10.2894 19.1778 9.47 18.6061C7.80778 17.4725 7.72223 15.5291 7.72223 13.6775C7.72223 12.9411 8.22334 12.9136 8.76417 12.9166H12.7303Z" fill="#725950"/>
</svg>
