<svg width="24" height="24" viewBox="0 0 24 24" fill="none" xmlns="http://www.w3.org/2000/svg">
<path d="M18.4167 11.6272C18.3158 11.7403 18.2242 11.8625 18.1111 11.9694C15.9447 14.1816 15.9447 14.1816 13.4483 12.4339C12.6875 14.75 12.7792 15.028 14.6889 16.3358C15.6056 16.9469 16.2686 19.9138 15.7339 20.8947C15.4772 21.3652 15.0311 21.2002 14.6553 21.2002C14.2795 21.2002 13.9158 21.2002 13.8883 20.6961C13.8883 20.4425 13.8883 20.1888 13.87 19.9352C13.8329 19.0988 13.5399 18.294 13.0306 17.6295C12.5213 16.965 11.8202 16.4729 11.0222 16.2197C10.4478 16.0272 10.4386 16.4 10.3225 16.6994C9.89273 17.675 9.52333 18.676 9.21641 19.6969C8.87113 21.0627 8.12558 21.5302 6.62531 21.078C7.01642 20.0177 7.38614 18.9391 7.80169 17.9002C8.6053 15.8714 9.36613 13.8486 9.58613 11.6364C9.70836 10.4386 10.0964 9.24081 11.3309 8.61137C14.191 8.42039 17.0611 8.42958 19.92 8.63887C20.6319 9.16748 20.3844 9.66859 19.8742 10.1666C19.7694 10.5108 19.5817 10.824 19.3276 11.0787C19.0734 11.3333 18.7606 11.5217 18.4167 11.6272Z" fill="#5E4FA1"/>
<path d="M19.92 8.63887C18.6734 9.21943 17.4511 8.85276 16.1739 8.69082C14.582 8.48609 12.9473 8.61748 11.3309 8.60526C13.1642 7.99415 15.1136 8.60526 17.1364 8.22026C16.4367 6.71693 15.7859 5.29916 15.1167 3.8936C14.8111 3.22444 14.417 2.51555 15.3886 2.12138C16.3603 1.72722 16.62 2.52777 16.8889 3.19388C17.4053 4.46193 17.9522 5.71777 18.3831 7.01332C18.4837 7.39079 18.677 7.73716 18.9454 8.02103C19.2138 8.30489 19.5488 8.51726 19.92 8.63887Z" fill="#7B60A9"/>
<path d="M13.1275 3.78971C13.5826 3.81596 14.0115 4.01079 14.3307 4.33619C14.6499 4.6616 14.8364 5.09423 14.8539 5.54971C14.8789 5.80114 14.8505 6.05501 14.7707 6.29473C14.6908 6.53445 14.5613 6.75464 14.3906 6.94092C14.2199 7.12719 14.0118 7.27537 13.78 7.37577C13.5481 7.47618 13.2977 7.52655 13.045 7.52359C11.9359 7.50526 11.2575 6.91248 11.1475 5.7911C11.0436 4.74915 11.8961 3.83554 13.1275 3.78971Z" fill="#6051A2"/>
<path d="M18.4167 11.6272L19.8742 10.1666C19.8995 10.4611 19.9675 10.7503 20.0759 11.0253C20.2867 11.3797 21.2308 11.2575 20.8122 12.0153C20.4547 12.66 19.7184 12.9014 19.0736 13.103C18.6153 13.2466 18.3097 12.8708 18.6061 12.3636C18.8139 12 18.9911 11.7311 18.4167 11.6272Z" fill="#8065AC"/>
<path d="M14.2856 10.3133H16.7086C15.8042 11.9511 15.7064 11.9541 14.2856 10.3133Z" fill="#E2DFEC"/>
</svg>
