<svg width="24" height="24" viewBox="0 0 24 24" fill="none" xmlns="http://www.w3.org/2000/svg">
<path d="M21.5027 12C20.9741 14.3253 20.0972 16.5405 19.3119 18.7802C18.9391 19.8527 18.1661 20.2897 16.9683 20.2622C13.7264 20.1919 10.4814 20.1736 7.24249 20.2622C5.87361 20.2989 5.14027 19.6969 4.74305 18.5358C4.07389 16.5833 3.44444 14.6064 2.81194 12.6325C2.5675 11.7983 3.20305 11.7158 3.72861 11.5966C4.48045 11.4907 5.24107 11.461 5.99888 11.508C10.3958 11.508 14.7928 11.508 19.1927 11.508C19.9902 11.5172 20.8366 11.3889 21.5027 12Z" fill="#D42F2F"/>
<path d="M21.5028 12C15.7705 12 10.0383 12 4.30918 12.0214C3.75612 12.0214 3.0289 11.7403 2.81196 12.6325C1.47363 9.30498 1.8189 9.13693 4.95084 9.27137C5.67806 9.29887 6.45723 9.48526 7.12028 8.96581C7.87825 8.83971 8.6476 8.79566 9.415 8.83443C11.1719 8.77332 12.9319 8.88331 14.6889 8.73665C15.575 8.73665 16.455 8.7947 17.2555 9.24387C18.1539 9.24387 19.0522 9.27443 19.9505 9.27748C22.343 9.27748 22.6364 9.78776 21.5028 12Z" fill="#DD5B5A"/>
<path d="M9.30808 9.24998C8.57475 9.17665 7.78031 9.55554 7.1142 8.97193C8.43419 7.18749 9.75827 5.40203 11.0864 3.61555C11.7892 2.66222 12.4736 2.73861 13.1397 3.64305C14.5066 5.50286 15.8765 7.37184 17.2495 9.24998C16.4122 9.24998 15.5475 9.46693 14.7683 8.96582C13.6653 8.82526 13.4056 7.80165 12.8922 7.08971C12.3025 6.26777 11.8961 6.29527 11.3247 7.08971C10.7534 7.88415 10.2645 8.77943 9.30808 9.24998Z" fill="#D53230"/>
<path d="M9.30804 9.24999C10.1911 8.02777 11.0742 6.82083 12.058 5.48555L14.7683 8.94443C12.9778 9.63804 11.1261 9.12471 9.30804 9.24999Z" fill="#FDFBFA"/>
</svg>
