<svg width="24" height="24" viewBox="0 0 24 24" fill="none" xmlns="http://www.w3.org/2000/svg">
<path d="M16.6017 12.9167C16.6017 14.9975 16.5742 17.0783 16.6017 19.1561C16.6292 20.5678 15.9906 21.2156 14.5942 21.2033C12.8688 21.185 11.1374 21.185 9.39977 21.2033C8.11949 21.2033 7.50227 20.5189 7.4931 19.3333C7.46254 15.1197 7.46866 10.9092 7.4931 6.69555C7.4931 5.50083 8.13477 4.79194 9.36004 4.74611C9.8856 4.72472 10.2767 4.66666 10.182 4.00972C10.0384 2.96166 10.6281 2.83333 11.4623 2.89139C12.0734 2.93722 12.6845 2.89139 13.2956 2.89139C13.6256 2.89139 14.0259 2.97694 13.9556 3.32527C13.6775 4.69111 14.6217 4.66055 15.5048 4.88972C16.3267 5.10055 16.6323 5.80639 16.62 6.66194C16.5834 8.75194 16.6017 10.8328 16.6017 12.9167Z" fill="#44A147"/>
</svg>
