<svg width="24" height="24" viewBox="0 0 24 24" fill="none" xmlns="http://www.w3.org/2000/svg">
<path d="M16.5405 8.35776C16.5619 12 16.5833 15.6666 16.6046 19.2997C16.6046 20.5525 16.0119 21.1911 14.7713 21.1972C12.938 21.1972 11.123 21.1972 9.29883 21.1972C8.57161 21.1972 8.02467 20.9283 7.73439 20.2316C7.39828 16.4397 7.66717 12.6416 7.59384 8.84665C7.58603 8.73075 7.6027 8.61451 7.64275 8.50547C7.68281 8.39644 7.74536 8.29705 7.82634 8.21377C7.90731 8.13049 8.00491 8.06517 8.11278 8.02207C8.22064 7.97897 8.33637 7.95905 8.45244 7.9636C10.9824 7.80471 13.5155 7.69776 16.0394 8.03082C16.2366 8.08457 16.4119 8.19894 16.5405 8.35776Z" fill="#7DB342"/>
<path d="M16.5405 8.35776C14.0044 8.35776 11.4683 8.39748 8.93216 8.35776C7.988 8.33943 7.70995 8.66332 7.70995 9.57998C7.74967 13.1305 7.70995 16.6841 7.70995 20.2347C7.27911 19.8252 7.40439 19.2905 7.40439 18.7986C7.40439 14.9516 7.44411 11.1047 7.44717 7.25776C7.44717 5.82471 7.80772 4.72471 9.51272 4.70333C9.96188 4.70333 10.1911 4.49555 10.1452 4.06166C9.968 2.43611 11.181 2.87 11.9785 2.92194C12.776 2.97389 14.093 2.26194 14.0624 4.00055C14.0624 4.3061 14.0869 4.65749 14.4933 4.66971C16.791 4.72777 16.6321 6.34721 16.5741 7.9086C16.5833 8.05526 16.5588 8.20498 16.5405 8.35776Z" fill="#A4CA7C"/>
</svg>
