<svg width="24" height="24" viewBox="0 0 24 24" fill="none" xmlns="http://www.w3.org/2000/svg">
<path d="M7.72221 20.2163C7.28832 19.81 7.41665 19.2722 7.41665 18.7833C7.41665 14.8814 7.45332 10.9794 7.46249 7.07749C7.46249 5.75138 7.88415 4.77361 9.40582 4.71555C9.87332 4.70027 10.2369 4.59944 10.1636 4.04638C9.98637 2.72944 10.8908 2.75389 11.6914 2.91889C12.5378 3.09305 14.0472 2.06333 14.0319 4.03111C14.0319 4.72472 14.4902 4.66055 14.9486 4.72777C16.0669 4.89277 16.6108 5.53444 16.5894 6.70166C16.5436 9.38443 16.5466 12.0703 16.5283 14.7561C15.7858 15.3672 14.8875 15.1869 14.0411 15.2052C12.5683 15.2358 11.0925 15.2327 9.6197 15.2052C8.58387 15.1869 8.19582 15.633 8.16221 16.6627C8.14082 17.8575 8.53193 19.1194 7.72221 20.2163Z" fill="#FBAF50"/>
<path d="M7.72214 20.2163C7.72214 18.7986 7.76797 17.3747 7.72214 15.9569C7.68242 15.0402 8.00019 14.7102 8.94436 14.7347C11.4805 14.7897 14.0166 14.7591 16.5527 14.7622C16.571 16.3297 16.6046 17.9002 16.6046 19.4708C16.5832 20.5555 15.9721 21.1666 14.9057 21.1911C13.0327 21.2308 11.1566 21.1911 9.28352 21.1911C8.56241 21.2033 8.00936 20.9252 7.72214 20.2163Z" fill="#F78C1F"/>
</svg>
