<svg width="24" height="24" viewBox="0 0 24 24" fill="none" xmlns="http://www.w3.org/2000/svg">
<path d="M16.5375 11.1261C16.5589 13.9066 16.5925 16.6903 16.5955 19.4708C16.5955 20.5616 16.015 21.1758 14.9119 21.188C13.0389 21.2125 11.1658 21.188 9.29583 21.2033C8.96533 21.2209 8.63708 21.1396 8.353 20.9698C8.06891 20.8 7.84186 20.5494 7.70083 20.25C7.42889 17.4175 7.66111 14.5789 7.57861 11.7433C7.56333 11.1139 7.88416 10.7472 8.45249 10.7105C10.9825 10.5578 13.5155 10.4355 16.0394 10.79C16.2356 10.8492 16.4092 10.9663 16.5375 11.1261Z" fill="#FDD838"/>
<path d="M16.5375 11.1261C14.0166 11.1261 11.4928 11.1536 8.97193 11.0955C7.99721 11.0741 7.63665 11.3705 7.66415 12.3819C7.72526 15.0005 7.69471 17.6252 7.70082 20.2469C7.2486 19.8466 7.39526 19.3089 7.39526 18.82C7.39526 14.9241 7.42582 11.0283 7.4411 7.12943C7.4411 5.77583 7.77109 4.68499 9.42109 4.68499C9.80915 4.68499 10.188 4.56888 10.1391 4.11055C10.0139 2.90972 10.7166 2.71416 11.6272 2.88833C12.5378 3.0625 14.0716 2.155 14.1389 4.11055C14.1572 4.57805 14.4444 4.66666 14.8508 4.72166C16.1769 4.84999 16.623 5.66277 16.5802 6.90943C16.5375 8.29054 16.5497 9.70832 16.5375 11.1261Z" fill="#FDEFAF"/>
</svg>
