<svg width="24" height="24" viewBox="0 0 24 24" fill="none" xmlns="http://www.w3.org/2000/svg">
<path d="M16.6047 13.0389C16.6047 15.0708 16.6047 17.1028 16.6047 19.1317C16.6047 20.8061 16.2228 21.1697 14.5178 21.1881C12.8128 21.2064 11.1567 21.1575 9.48835 21.1881C8.20807 21.2217 7.54502 20.5769 7.5328 19.3853C7.49307 15.1075 7.49919 10.8572 7.5328 6.59167C7.5328 5.47945 8.14391 4.80111 9.30502 4.69723C9.67474 4.66361 10.2614 4.8225 10.1789 4.18695C9.94974 2.52778 11.1047 2.89139 12 2.90361C12.9809 2.90361 14.2734 2.47584 14.0931 4.30917C14.0411 4.82556 14.5972 4.66361 14.915 4.7125C16.122 4.88972 16.6414 5.565 16.6109 6.79639C16.5834 8.87722 16.6047 10.9581 16.6047 13.0389Z" fill="#556F7A"/>
</svg>
