<svg width="24" height="24" viewBox="0 0 24 24" fill="none" xmlns="http://www.w3.org/2000/svg">
<path d="M7.72219 20.2133C7.33108 19.8528 7.41663 19.3731 7.43191 18.93C7.44719 14.9792 7.47469 11.0283 7.48997 7.0775C7.48997 5.7575 7.90247 4.7675 9.43024 4.71555C9.9008 4.70028 10.2614 4.58722 10.1819 4.04028C10.02 2.87611 10.7777 2.70806 11.563 2.925C12.4369 3.16333 14.0289 1.96555 14.0625 4.03722C14.0625 4.72778 14.53 4.64833 14.9791 4.73083C16.0058 4.89278 16.6047 5.45194 16.5955 6.56417C16.5833 10.2125 16.565 13.8578 16.5466 17.5C15.8622 18.0806 15.0189 17.9217 14.2397 17.9369C12.8861 17.9614 11.5325 17.9889 10.1819 17.9369C8.95969 17.8819 8.09497 18.1386 8.07969 19.5778C8.06899 19.7031 8.03154 19.8247 7.96987 19.9343C7.9082 20.044 7.82374 20.1391 7.72219 20.2133Z" fill="#ED7573"/>
<path d="M7.72217 20.2133C7.72217 17.5 7.72217 17.5 10.4722 17.5H16.5588C16.5802 17.9553 16.6199 18.4167 16.6199 18.8658C16.6199 20.7878 16.2319 21.1819 14.3099 21.1942C12.6874 21.1942 11.0649 21.1942 9.44245 21.1942C8.63883 21.2125 8.02772 20.9803 7.72217 20.2133Z" fill="#E63B35"/>
</svg>
