<svg width="24" height="24" viewBox="0 0 24 24" fill="none" xmlns="http://www.w3.org/2000/svg">
<path d="M4.74905 10.5242C3.79266 9.35083 2.80572 8.23861 2.86072 6.55194C2.93711 4.08306 5.03016 1.84028 7.53266 1.99611C8.90155 2.08472 10.0504 1.9075 11.0893 1.03056H13.5338C15.1013 2.19778 16.0485 3.97306 17.6741 5.13417C18.1611 5.47908 18.5091 5.98654 18.6553 6.56519C18.8015 7.14384 18.7363 7.75567 18.4716 8.29056C18.1416 8.97806 18.5266 9.25 19.0307 9.55556C18.6243 10.0047 17.9643 10.0689 17.561 10.5272C15.8254 12.0061 13.9921 11.5631 12.1435 10.8053C11.8614 10.7006 11.561 10.6544 11.2605 10.6697C10.96 10.6849 10.6658 10.7612 10.3957 10.8939C8.44933 11.5783 6.53044 12.1008 4.74905 10.5242Z" fill="#FFDCA8"/>
<path d="M12.0029 10.4539C12.7424 10.3958 13.2893 10.9764 13.9829 11.065C15.2693 11.2025 16.4854 11.0833 17.5029 10.1667C17.9399 10.5669 18.5724 10.8328 18.4746 11.5997C18.001 13.7386 18.3218 15.9264 18.2699 18.0867C18.2882 18.8078 17.6588 19.5717 18.4104 20.247C18.2791 20.3142 18.0804 20.3508 18.0254 20.4608C16.9529 22.5142 15.0585 22.0833 13.2954 22.0833C11.1718 22.0833 9.05128 22.0833 6.92766 22.0833C5.28072 22.0833 4.73072 21.5517 4.72461 19.92C4.72461 16.7881 4.72461 13.6531 4.74905 10.5181C5.65407 10.9096 6.6309 11.1078 7.61695 11.0999C8.603 11.092 9.57654 10.8782 10.4752 10.4722C10.8021 12.7425 10.5149 15.0281 10.6188 17.3044C10.6493 17.9828 10.5027 18.7161 11.0802 19.3639C11.6577 18.8964 11.5324 18.3097 11.5385 17.7964C11.566 15.9631 11.5385 14.1297 11.5599 12.2964C11.5752 11.67 11.4682 10.9794 12.0029 10.4539Z" fill="#FCB851"/>
<path d="M18.4196 11.3461C18.0499 11.0039 17.2891 10.9703 17.5029 10.1728C17.7932 9.42417 18.4196 9.53417 19.0307 9.56167C20.5585 10.2797 21.3254 11.4439 21.2277 13.1825C21.1635 14.3406 21.2277 15.5078 21.2093 16.6719C21.1696 18.6672 20.3752 19.6389 18.3982 20.25C16.7513 19.8956 17.4602 19.1592 18.0927 18.4167C19.376 16.1219 19.0796 13.7417 18.4196 11.3461Z" fill="#FAA72B"/>
<path d="M12.0029 10.4539C12.0029 13.2833 12.0029 16.1138 12.0029 18.9453C12.0029 19.5167 12.0029 20.1675 11.2329 20.1675C11.1037 20.1728 10.9748 20.1521 10.8538 20.1065C10.7328 20.0609 10.6223 19.9914 10.5287 19.9022C10.4352 19.8129 10.3606 19.7057 10.3094 19.587C10.2582 19.4682 10.2314 19.3404 10.2307 19.2111C10.2827 16.3083 9.83655 13.3781 10.4752 10.4722C10.9854 10.2217 11.4957 10.0444 12.0029 10.4539Z" fill="#FAA72C"/>
<path d="M8.33629 15.7706C8.33629 16.8369 8.33629 17.9094 8.33629 18.9728C8.33629 19.4922 8.33629 20.0789 7.67629 20.1644C7.53526 20.186 7.39122 20.1763 7.25435 20.136C7.11748 20.0958 6.99112 20.026 6.88417 19.9316C6.77722 19.8372 6.6923 19.7204 6.63541 19.5896C6.57851 19.4588 6.55103 19.3171 6.5549 19.1744C6.50295 16.785 6.52129 14.3956 6.54268 12C6.54268 11.3369 7.1049 11.3889 7.56018 11.3889C8.15601 11.3736 8.35157 11.6944 8.34545 12.2536C8.33629 13.4331 8.33629 14.6003 8.33629 15.7706Z" fill="#FAA72B"/>
<path d="M15.6697 15.85V19.0522C15.6697 19.5931 15.5994 20.1614 14.9363 20.1767C14.794 20.1815 14.6521 20.1567 14.5199 20.1038C14.3876 20.0509 14.2678 19.971 14.1681 19.8693C14.0683 19.7675 13.9909 19.6462 13.9406 19.5129C13.8903 19.3796 13.8684 19.2373 13.8761 19.095C13.8363 16.7575 13.8516 14.4169 13.8608 12.0672C13.8608 11.4256 14.3191 11.3858 14.8111 11.3797C15.3641 11.3889 15.6697 11.5967 15.6697 12.1894C15.6697 13.4117 15.6697 14.6339 15.6697 15.8561V15.85Z" fill="#FAA72B"/>
<path d="M18.4196 11.3461C19.9658 12.8739 19.7733 17.3167 18.1141 18.4319C17.6008 18.2364 17.7169 17.7811 17.7138 17.3992C17.7138 15.7278 17.7138 14.0564 17.7138 12.385C17.6985 11.8717 17.6374 11.3217 18.4196 11.3461Z" fill="#FBFAF8"/>
</svg>
