<svg width="24" height="24" viewBox="0 0 24 24" fill="none" xmlns="http://www.w3.org/2000/svg">
<path d="M13.2955 5.58333C16.2074 6.38388 17.5733 8.33332 17.8085 11.3094C17.9399 13.0633 18.4197 14.7866 18.4349 16.5589C18.0255 17.0355 17.4541 17.0539 16.9072 17.06C13.6235 17.0926 10.3408 17.0926 7.05912 17.06C6.55495 17.06 6.04162 17.0141 5.65356 16.6169C5.95912 14.3344 6.20662 12.0336 6.62523 9.77554C6.96745 7.94221 8.03384 6.57027 9.88856 5.96527C10.2766 5.83694 10.6738 5.75749 10.8236 5.30527C11.2309 5.16809 11.6633 5.12188 12.0904 5.16993C12.5175 5.21797 12.9288 5.35908 13.2955 5.58333Z" fill="#FFD168"/>
<path d="M5.65051 16.5986L18.4349 16.5436C18.9175 16.8823 19.3826 17.2453 19.8283 17.6314C20.4913 18.2425 20.6044 18.8841 19.6388 19.3608C18.9422 19.5747 18.2272 19.4464 17.5244 19.4616C15.908 19.4952 14.2702 19.7458 12.6997 19.7C9.94967 19.6175 7.1569 19.5869 4.39773 19.3119C3.52996 18.7864 3.65524 18.1997 4.32746 17.6222C4.74912 17.2555 5.20745 16.9378 5.65051 16.5986Z" fill="#FCB418"/>
<path d="M4.39771 19.3119L19.6388 19.3608C18.163 19.8161 16.6535 19.48 15.1594 19.5625C14.5482 19.5961 14.096 19.6389 13.6896 20.2958C12.886 21.6036 11.3521 21.5852 10.5058 20.2958C10.0963 19.6664 9.63492 19.6175 9.00853 19.5747C7.47464 19.4586 5.90715 19.8802 4.39771 19.3119Z" fill="#FED169"/>
<path d="M13.2955 5.58333C12.4583 5.59861 11.5966 5.83083 10.8205 5.30222C10.6861 4.53527 9.94356 3.40472 10.5149 3.09917C11.2972 2.67139 12.4674 2.90972 13.4697 2.93722C14.0411 2.93722 13.8211 3.41694 13.7752 3.74389C13.7019 4.36111 13.1122 4.86833 13.2955 5.58333Z" fill="#FBB521"/>
</svg>
