<svg width="24" height="24" viewBox="0 0 24 24" fill="none" xmlns="http://www.w3.org/2000/svg">
<path d="M12.11 17.5C9.47001 17.5 6.83001 17.4694 4.19307 17.5183C3.27641 17.5336 2.83641 17.3808 2.86697 16.2961C2.94641 13.4575 2.91891 10.6128 2.86697 7.7711C2.86697 6.91249 3.12669 6.60999 3.98835 6.61304C9.37019 6.63953 14.751 6.63953 20.1308 6.61304C20.8916 6.61304 21.2155 6.81777 21.2064 7.64276C21.1666 10.5822 21.1666 13.5278 21.2216 16.4702C21.24 17.4389 20.7969 17.5183 20.03 17.5091C17.39 17.4786 14.75 17.5 12.11 17.5Z" fill="#73B976"/>
<path d="M15.6666 12C15.6666 14.1389 14.1847 15.6666 12.055 15.6666C10.133 15.6666 8.33942 13.873 8.38831 11.9694C8.41581 10.1666 10.2919 8.33332 12.0702 8.37915C13.9586 8.4311 15.6666 10.1483 15.6666 12Z" fill="#44A147"/>
</svg>
