<svg width="24" height="24" viewBox="0 0 24 24" fill="none" xmlns="http://www.w3.org/2000/svg">
<path d="M22.974 14.4388C21.679 16.5523 19.9778 17.8229 17.3083 17.5297C16.3432 17.4228 15.4483 17.1998 14.9077 16.5004C13.8937 15.1779 12.6109 14.8664 11.0837 14.9672C12.5467 14.338 12.6109 13.1346 12.6842 11.7266C12.7941 9.92458 13.9578 8.60819 15.6163 7.80797C16.1599 7.74078 16.7128 7.70412 17.2503 7.59417C20.0602 7.03524 21.6698 8.63568 22.974 10.7737V14.4388Z" fill="#889AA2"/>
<path d="M10.4729 15.0191C9.41913 17.3281 7.43997 17.6672 5.21951 17.4931C3.29227 17.3129 2.22633 16.0545 1.39862 14.4815C1.25622 14.1692 1.13181 13.849 1.026 13.5225V11.0791C1.3609 10.4665 1.74066 9.87946 2.16219 9.32289C3.43887 7.83546 5.02709 7.1513 7.01848 7.60028C7.56503 7.69431 8.11687 7.75449 8.67084 7.78048C10.9279 8.93805 11.7037 10.8347 11.4655 13.2782C11.3891 14.0142 11.154 14.6343 10.4729 15.0191Z" fill="#889AA2"/>
<path d="M10.4729 15.0191C11.7191 12.5757 11.3189 10.3674 9.28786 8.55626C9.03435 8.33025 8.677 8.20502 8.677 7.77743C10.976 7.40578 13.3206 7.4161 15.6163 7.80797C14.8039 8.93499 13.4783 9.64053 13.1423 11.1677C13.011 11.7785 12.7728 12.3894 12.9744 12.9391C13.5852 14.5365 12.8583 14.8786 11.4686 14.7717C11.3464 14.7717 11.212 14.9061 11.0838 14.9794L10.4729 15.0191Z" fill="#566F7B"/>
<path d="M15.6957 14.7137C14.4465 13.0613 14.474 11.5342 15.7446 10.2514C17.0152 8.9686 18.5423 8.95332 20.213 10.1995C20.2645 10.3416 20.2698 10.4964 20.2281 10.6418C20.1864 10.7871 20.0999 10.9156 19.9809 11.0088C18.5545 12.2458 17.6382 14.0784 15.6957 14.7137Z" fill="#CCEAF1"/>
<path d="M15.6957 14.7137C17.3123 13.3241 18.8223 11.8151 20.2129 10.1995C21.5538 11.7724 21.566 13.6141 20.2435 14.8725C18.9821 16.0728 17.009 16.0056 15.6957 14.7137Z" fill="#ACDEE9"/>
<path d="M3.80846 14.7137C2.55621 13.046 2.58675 11.5403 3.85733 10.2514C5.1279 8.96248 6.63977 8.9411 8.33489 10.1964C8.3884 10.369 8.38393 10.5545 8.32216 10.7243C8.26039 10.8942 8.14472 11.0392 7.99281 11.1371C6.56035 12.3008 5.73265 14.1334 3.80846 14.7137Z" fill="#CCEAF1"/>
<path d="M3.80847 14.7137C5.42835 13.3235 6.94142 11.8135 8.3349 10.1964C9.68794 11.7724 9.70321 13.5928 8.37766 14.8603C7.08876 16.085 5.32034 16.027 3.80847 14.7137Z" fill="#ACDFE9"/>
</svg>
