<svg width="24" height="24" viewBox="0 0 24 24" fill="none" xmlns="http://www.w3.org/2000/svg">
<path d="M3.87221 12.5225C3.87221 10.9 3.85082 9.27443 3.87221 7.65193C3.89665 6.32277 4.51998 5.58332 5.94692 5.6261C7.31581 5.66888 8.69692 5.64749 10.0536 5.6261C11.4102 5.60471 12.165 6.36554 12.1925 7.66415C12.2475 10.9091 12.2475 14.1552 12.1925 17.4022C12.1711 18.6061 11.5814 19.3913 10.1911 19.3455C8.80081 19.2997 7.35248 19.3455 5.93165 19.3455C4.32137 19.3333 3.90582 18.9086 3.87221 17.2402C3.84471 15.6666 3.87221 14.093 3.87221 12.5225Z" fill="#4083C4"/>
<path d="M20.2499 12.5072C20.2499 14.4352 20.1827 16.3664 20.2744 18.2913C20.3294 19.4188 19.7152 19.3883 18.9544 19.3516C18.1935 19.315 17.4266 19.5838 17.4785 18.2883C17.5702 15.4986 17.4785 12.7028 17.5305 9.91304C17.5549 8.86498 17.2647 8.38526 16.186 8.56554C14.8599 8.80082 14.7744 8.06443 14.7224 6.99499C14.6613 5.75749 15.1716 5.51305 16.2288 5.6261C17.5244 5.7636 19.1958 5.07305 20.0238 5.93166C20.7816 6.71693 20.198 8.35165 20.2438 9.61359C20.2683 10.5761 20.2499 11.5416 20.2499 12.5072Z" fill="#4083C4"/>
<path d="M9.24999 12.6814C9.24999 13.4911 9.24999 14.3008 9.24999 15.1258C9.24999 15.9508 9.40583 16.6841 8.09194 16.6719C6.90333 16.6719 6.64056 16.2564 6.68945 15.1716C6.76889 13.3536 6.75972 11.5294 6.68945 9.70831C6.64972 8.70304 7.12028 8.54415 7.96361 8.55943C8.75805 8.55943 9.35694 8.58387 9.26222 9.66248C9.19499 10.6525 9.24999 11.67 9.24999 12.6814Z" fill="#FEFEFE"/>
</svg>
