<svg width="24" height="24" viewBox="0 0 24 24" fill="none" xmlns="http://www.w3.org/2000/svg">
<path d="M19.3487 12.1528C19.3487 14.5422 19.3273 16.9316 19.3487 19.318C19.3487 20.5891 18.7834 21.2064 17.5153 21.2064C13.8487 21.2064 10.1891 21.2064 6.53674 21.2064C5.31452 21.2064 4.7523 20.4975 4.74313 19.3944C4.71258 14.5055 4.71258 9.62582 4.74313 4.75527C4.74313 3.55749 5.46424 2.89138 6.69257 2.88833C10.2492 2.88833 13.8059 2.88833 17.3626 2.88833C18.7314 2.88833 19.37 3.58499 19.3425 4.99055C19.315 7.37388 19.3487 9.76332 19.3487 12.1528Z" fill="#263238"/>
<path d="M10.2064 12.1833C10.5731 12.6814 10.9123 13.1244 11.23 13.5828C11.8198 14.4261 12.3361 14.3375 12.9809 13.5828C13.3445 13.155 13.6592 12.4522 14.3528 12.5561C15.2328 12.6875 15.4406 13.8211 14.6339 14.4536C13.4759 15.3702 13.4117 16.1158 14.6339 16.9927C15.187 17.3839 15.6056 17.7964 14.8539 18.5419C14.1023 19.2875 13.6623 18.7558 13.3078 18.2364C12.3911 16.9255 11.6028 17.2127 10.7748 18.3219C10.405 18.82 10.0231 19.2386 9.32949 18.5511C8.71838 17.94 8.77949 17.5366 9.40587 17.118C10.8695 16.1402 10.6892 15.2419 9.36615 14.2947C9.10337 14.1083 8.55643 13.8547 8.98115 13.3505C9.26532 13.0266 9.62282 12.7394 10.2064 12.1833Z" fill="#E53B35"/>
<path d="M13.7356 6.54582C12.8801 6.54582 12.0184 6.51832 11.1629 6.54582C10.4418 6.57637 10.182 6.27999 10.1943 5.56499C10.2065 4.84999 10.4998 4.69416 11.1109 4.70027C12.9259 4.72166 14.747 4.72777 16.562 4.70027C17.2923 4.70027 17.5337 4.98138 17.5276 5.68721C17.5215 6.39304 17.222 6.56415 16.6109 6.54887C15.6667 6.52749 14.6951 6.54582 13.7356 6.54582Z" fill="#7D8387"/>
<path d="M13.8517 10.2247C12.935 10.2247 12.0184 10.2064 11.12 10.2247C10.5089 10.24 10.2034 10.0169 10.2034 9.35082C10.2034 8.68471 10.4325 8.34554 11.1628 8.35776C12.9961 8.38832 14.805 8.38221 16.6261 8.35776C17.2556 8.35776 17.5428 8.57471 17.5428 9.23471C17.5428 9.89471 17.3167 10.2614 16.5834 10.2339C15.6667 10.1941 14.75 10.2247 13.8517 10.2247Z" fill="#7C8387"/>
<path d="M8.38232 5.58333C8.43427 6.17305 8.29066 6.5611 7.58788 6.55805C6.95538 6.55805 6.52455 6.46944 6.5276 5.67194C6.5276 4.95694 6.78121 4.68194 7.50232 4.69722C8.13482 4.7125 8.4526 4.93249 8.38232 5.58333Z" fill="#7A8085"/>
<path d="M8.37923 9.32332C8.45562 9.98332 8.15007 10.2216 7.5084 10.24C6.78118 10.2614 6.52451 9.96804 6.53062 9.25915C6.53062 8.61137 6.78118 8.36693 7.42896 8.35776C8.1409 8.33332 8.48006 8.59915 8.37923 9.32332Z" fill="#7A8085"/>
</svg>
