<svg width="24" height="24" viewBox="0 0 24 24" fill="none" xmlns="http://www.w3.org/2000/svg">
<path d="M19.3334 11.9664C19.3334 14.4536 19.3089 16.9408 19.3334 19.428C19.3334 20.6502 18.8109 21.1697 17.5917 21.1605C13.8823 21.1361 10.1667 21.1177 6.47256 21.1666C5.28701 21.1666 4.71868 20.6258 4.70951 19.5747C4.66877 14.5514 4.66877 9.526 4.70951 4.49861C4.70951 3.45666 5.40923 2.84861 6.50006 2.84861C10.2064 2.84861 13.9128 2.83028 17.6162 2.84861C18.7467 2.84861 19.367 3.37722 19.3364 4.64222C19.2753 7.09277 19.3334 9.5311 19.3334 11.9664Z" fill="#D0D9DC"/>
<path d="M15.7309 15.6666C15.7534 16.1492 15.6772 16.6312 15.5069 17.0833C15.3366 17.5354 15.0759 17.9479 14.7407 18.2957C14.4054 18.6436 14.0027 18.9193 13.5573 19.1061C13.1118 19.2929 12.6329 19.3869 12.1498 19.3822C11.1788 19.4052 10.2384 19.042 9.53492 18.3723C8.83145 17.7026 8.42242 16.7812 8.3976 15.8103C8.38927 14.8366 8.76382 13.8986 9.44053 13.1984C10.1172 12.4983 11.042 12.092 12.0154 12.0672C12.4964 12.0567 12.9748 12.1417 13.4228 12.3174C13.8707 12.4931 14.2794 12.756 14.625 13.0908C14.9706 13.4256 15.2463 13.8257 15.4361 14.2679C15.626 14.71 15.7262 15.1855 15.7309 15.6666Z" fill="#E63B35"/>
<path d="M13.8853 4.73083C14.7409 4.73083 15.5995 4.76444 16.455 4.73083C17.1761 4.69416 17.5734 4.83472 17.5642 5.69944C17.5642 6.49999 17.1823 6.5886 16.5406 6.57943C14.7745 6.55499 13.0084 6.55805 11.2453 6.57943C10.6189 6.57943 10.2034 6.52443 10.1973 5.7086C10.1973 4.83777 10.5975 4.70333 11.3125 4.73388C12.1681 4.75833 13.0267 4.73083 13.8853 4.73083Z" fill="#4B565C"/>
<path d="M13.9189 10.2522C13.0023 10.2522 12.0856 10.2247 11.1873 10.2522C10.4845 10.2828 10.2034 10.0383 10.2003 9.30193C10.1973 8.56555 10.5059 8.35471 11.2026 8.36388C13.0359 8.39443 14.8448 8.4036 16.6659 8.36388C17.4756 8.34555 17.5398 8.76721 17.555 9.39971C17.5734 10.0842 17.28 10.2767 16.6384 10.2553C15.7401 10.2278 14.8295 10.2522 13.9189 10.2522Z" fill="#4B565C"/>
<path d="M7.49618 6.55499C6.74757 6.67416 6.54896 6.3136 6.53979 5.61388C6.53979 4.83166 6.90952 4.71249 7.56646 4.69722C8.2234 4.68194 8.4159 4.98749 8.43118 5.61388C8.44646 6.31055 8.24785 6.68332 7.49618 6.55499Z" fill="#515B61"/>
<path d="M8.40368 9.35387C8.53812 10.1483 8.09812 10.2705 7.42285 10.2705C6.74757 10.2705 6.55201 10.0017 6.54285 9.35387C6.54285 8.65415 6.73535 8.35165 7.48396 8.35165C8.23257 8.35165 8.51062 8.63888 8.40368 9.35387Z" fill="#515B61"/>
<path d="M11.6578 16.6719C11.2589 16.7142 10.8555 16.6747 10.4723 16.5558C9.97728 16.3541 10.2309 15.7491 10.2187 15.3336C10.2187 14.8508 10.5762 14.7989 10.9551 14.7989C11.5662 14.7989 12.1773 14.8141 12.767 14.7989C13.3567 14.7836 13.925 14.7744 13.9495 15.7155C13.977 16.7208 13.43 16.7544 12.7273 16.7055C12.5164 16.6597 12.3056 16.6719 11.6578 16.6719Z" fill="#FAD3D2"/>
</svg>
