<svg width="24" height="24" viewBox="0 0 24 24" fill="none" xmlns="http://www.w3.org/2000/svg">
<path d="M16.5406 3.85388C17.1972 3.80202 17.856 3.78366 18.5145 3.79888C19.6114 3.87833 20.2653 4.37333 20.2561 5.63221C20.2195 10.5048 20.2174 15.3774 20.25 20.25C20.25 21.6555 19.6114 22.1138 18.2975 22.1016C14.1817 22.068 10.0659 22.1016 5.9531 22.1016C4.27866 22.1016 3.91811 21.7533 3.90283 20.0391C3.87839 16.788 3.90283 13.5369 3.90283 10.2858C3.90283 8.96276 3.90283 7.64276 3.90283 6.3136C3.92117 4.11972 4.28478 3.77138 6.50616 3.78666C6.8606 3.78666 7.21505 3.82944 7.56643 3.85388C7.7448 4.14005 7.82653 4.47594 7.79957 4.81205C7.77261 5.14817 7.6384 5.46675 7.41671 5.72082C6.35338 6.09055 6.02338 6.84527 6.03866 7.95137C6.0906 11.3522 6.08144 14.7561 6.03866 18.16C6.02338 19.315 6.43588 19.8008 7.6306 19.7825C10.5242 19.7366 13.4361 19.7458 16.3145 19.7825C17.4786 19.7825 17.9492 19.3455 17.94 18.1722C17.9064 14.6675 17.94 11.1658 17.94 7.6611C17.94 6.82388 17.7414 6.15471 16.8492 5.88277C16.0975 5.30527 16.0364 4.62388 16.5406 3.85388Z" fill="#5D4036"/>
<path d="M7.38614 5.64138C7.44725 5.04555 7.5053 4.44971 7.56642 3.85083C8.62058 3.83555 9.53113 3.79888 10.3164 2.74777C11.1536 1.61722 13.045 1.66 13.9372 2.79055C14.6736 3.74999 15.5322 3.84472 16.5406 3.85388C16.6322 4.46499 16.7269 5.05471 16.8186 5.6536C17.4114 8.07665 16.9103 8.79776 14.5453 8.81304C12.7761 8.81304 11.007 8.84054 9.2378 8.81304C7.00725 8.7672 6.44808 7.78332 7.38614 5.64138Z" fill="#F9A01D"/>
<path d="M7.38618 5.64138C7.54507 8.43415 7.54507 8.43415 10.3745 8.43415C11.9481 8.43415 13.5278 8.35165 15.0923 8.4586C16.3725 8.54721 16.8492 8.11332 16.6842 6.85138C16.6799 6.44813 16.7251 6.04587 16.8187 5.6536C18.1112 5.40305 18.5695 5.82471 18.5328 7.23332C18.4289 11.1811 18.4748 15.135 18.5145 19.0888C18.5145 19.9872 18.3067 20.3111 17.3412 20.3111C13.8334 20.25 10.3501 20.25 6.85451 20.3141C5.80646 20.3325 5.60174 19.9505 5.61396 19.0033C5.65674 15.1014 5.71174 11.1964 5.59257 7.29749C5.54674 5.80638 6.07535 5.42444 7.38618 5.64138Z" fill="#CFC6C4"/>
<path d="M12.9167 4.83471C12.8984 5.05079 12.7975 5.2515 12.635 5.39514C12.4726 5.53879 12.261 5.61433 12.0443 5.60607C11.8276 5.59781 11.6224 5.50639 11.4713 5.35079C11.3203 5.1952 11.235 4.9874 11.2331 4.77054C11.223 4.65593 11.2384 4.54049 11.2782 4.43253C11.318 4.32456 11.3812 4.22675 11.4633 4.14613C11.5454 4.0655 11.6443 4.00405 11.753 3.9662C11.8616 3.92835 11.9773 3.91503 12.0917 3.92721C12.2072 3.92711 12.3215 3.95117 12.4271 3.99784C12.5328 4.04452 12.6275 4.11279 12.7052 4.19826C12.7829 4.28372 12.8419 4.3845 12.8783 4.49411C12.9147 4.60372 12.9278 4.71974 12.9167 4.83471Z" fill="#5E4138"/>
<path d="M16.6384 13.9372C16.6477 14.5332 16.5378 15.1251 16.3151 15.678C16.0923 16.231 15.7613 16.7337 15.3413 17.1568C14.9214 17.5799 14.4211 17.9147 13.8698 18.1415C13.3186 18.3684 12.7275 18.4827 12.1314 18.4777C11.5232 18.4891 10.9189 18.3789 10.3539 18.1534C9.78894 17.928 9.27472 17.5919 8.84147 17.1649C8.40822 16.7379 8.06468 16.2286 7.83103 15.667C7.59737 15.1054 7.47833 14.5027 7.48088 13.8944C7.49031 12.6876 7.97164 11.5323 8.8219 10.6758C9.67215 9.81923 10.8238 9.32942 12.0306 9.31109C12.64 9.30111 13.2452 9.41409 13.8099 9.64327C14.3747 9.87245 14.8874 10.2131 15.3175 10.645C15.7477 11.0768 16.0863 11.5909 16.3132 12.1566C16.5402 12.7222 16.6508 13.3278 16.6384 13.9372Z" fill="#E63B35"/>
<path d="M12.052 12.9533C12.6631 12.9533 13.2742 12.993 13.8853 12.9533C14.6492 12.8922 14.8387 13.2405 14.8356 13.9372C14.8356 14.5697 14.6584 14.8539 13.974 14.8539C12.7059 14.8141 11.4317 14.8202 10.1637 14.8539C9.50064 14.8722 9.2898 14.6155 9.28369 13.9616C9.28369 13.2558 9.47314 12.9166 10.2279 12.9747C10.8298 12.9869 11.444 12.9533 12.052 12.9533Z" fill="#F3DFDD"/>
</svg>
