<svg width="24" height="24" viewBox="0 0 24 24" fill="none" xmlns="http://www.w3.org/2000/svg">
<path d="M21.1941 21.133C20.861 20.8855 20.7144 20.8275 20.641 20.7144C18.8322 18.0133 16.2899 17.3533 13.1641 17.6589C10.5974 17.9064 7.96967 17.723 5.39385 17.7047C3.56052 17.7047 2.90357 17.0172 2.89746 15.2389C2.89746 11.9368 2.89746 8.63378 2.89746 5.32971C2.89746 3.46277 3.46885 2.91583 5.38468 2.91277C9.85597 2.91277 14.3273 2.91277 18.7985 2.91277C20.6838 2.91277 21.1849 3.39861 21.191 5.21666C21.2002 10.4325 21.1941 15.6666 21.1941 21.133Z" fill="#5F6BB2"/>
<path d="M8.38525 12.3453C9.88858 10.3989 11.7127 8.76415 13.5277 7.1111C14.3069 7.48999 15.0555 7.89943 15.0555 8.92915C13.6652 10.6861 11.9694 12.1344 10.408 13.7141C9.81831 14.3069 9.08803 14.3619 8.38831 13.7997C9.57692 13.3139 8.46164 12.8311 8.38525 12.3453Z" fill="#7F89C3"/>
<path d="M13.8333 6.80554C14.4169 6.04166 14.8783 5.11582 15.9996 6.32888C16.8552 7.24554 16.5802 7.7986 15.6941 8.35471C14.8691 8.06443 14.3527 7.41665 13.8333 6.80554Z" fill="#7F89C3"/>
<path d="M13.8333 6.80554C14.7499 6.95221 15.1838 7.70082 15.688 8.35471L15.0555 8.94443L13.5277 7.1111L13.8333 6.80554Z" fill="#9CA4D3"/>
<path d="M8.38525 12.3453C8.96581 12.6355 9.32025 13.1336 9.73886 13.6225C9.24081 13.9586 8.80386 13.7783 8.38831 13.7997C8.38831 13.3169 8.38831 12.8311 8.38525 12.3453Z" fill="#9AA2D1"/>
</svg>
