<svg width="24" height="24" viewBox="0 0 24 24" fill="none" xmlns="http://www.w3.org/2000/svg">
<path d="M11.7342 14.7958C10.5119 17.1425 8.35167 18.1325 6.06306 17.4052C5.04261 17.062 4.17132 16.3781 3.59546 15.4684C3.01961 14.5587 2.77424 13.4786 2.90057 12.4094C3.02422 11.3124 3.54916 10.2998 4.3744 9.56655C5.19964 8.83326 6.26689 8.43102 7.37084 8.43721C8.53806 8.43721 8.23862 7.57554 8.61445 7.11721C9.08913 7.86946 9.7131 8.51631 10.4478 9.01776C11.835 9.93443 12.44 11.3278 12.3942 12.99C12.3728 13.6714 12.4156 14.368 11.7342 14.7958Z" fill="#4955A4"/>
<path d="M16.8889 10.7991C17.063 11.3125 17.5733 11.1566 17.9216 11.2819C20.4944 12.1986 21.738 14.423 21.1147 17.0539C20.6075 19.1927 18.4258 20.4852 15.7614 20.2316C13.7447 20.0422 12.0947 17.9858 12.0214 15.5689C12.0214 15.4191 12.0214 15.2633 12.0214 15.1136C12.1864 14.3161 12.275 13.4911 12.7516 12.7883C13.815 11.4897 15.0891 10.6036 16.8889 10.7991Z" fill="#4955A4"/>
<path d="M16.889 10.7991C15.4162 11.2911 13.9465 11.7922 12.8403 12.9686C12.7234 13.0677 12.575 13.122 12.4217 13.122C12.2684 13.122 12.1201 13.0677 12.0031 12.9686C12.0915 12.1405 11.9122 11.3059 11.4915 10.5871C11.0709 9.86841 10.4309 9.3034 9.66563 8.97498C8.77341 8.54415 8.56258 7.96971 8.62063 7.12332C9.64119 4.28166 12.3056 3.07166 14.9609 4.24499C17.4267 5.34499 18.2884 8.27526 16.889 10.7991Z" fill="#2A3A91"/>
<path d="M12 12.9655H12.8372L12.0183 15.1044L11.7372 14.7989C11.8227 14.1847 11.9083 13.5766 12 12.9655Z" fill="#A6A2B9"/>
<path d="M8.35477 13.7661C8.28143 14.8814 7.74366 15.5628 6.61616 15.6544C5.39394 15.7553 4.7645 14.973 4.75838 13.9525C4.75474 13.7094 4.79947 13.4681 4.88997 13.2424C4.98047 13.0168 5.11493 12.8115 5.28553 12.6383C5.45614 12.4651 5.65948 12.3276 5.88372 12.2338C6.10796 12.1399 6.34863 12.0916 6.59171 12.0916C7.56032 12.0641 8.28449 12.6661 8.35477 13.7661Z" fill="#2A3A91"/>
<path d="M19.315 16.8889C19.2081 17.6741 18.7039 18.3586 17.5398 18.4166C16.3756 18.4747 15.8959 17.7322 15.7248 16.785C15.575 15.9539 16.7912 14.7836 17.6528 14.7958C18.5145 14.808 19.315 15.6666 19.315 16.8889Z" fill="#2A3A91"/>
</svg>
