<svg width="24" height="24" viewBox="0 0 24 24" fill="none" xmlns="http://www.w3.org/2000/svg">
<path d="M12.9499 6.84283C14.1716 6.55268 15.4269 6.36331 16.9693 6.84283C16.6242 5.81965 16.3829 5.01027 16.0866 4.25281C15.83 3.58697 15.83 3.16243 16.6425 2.86006C17.4549 2.55768 17.6962 2.88143 17.907 3.57781C18.2269 4.70076 18.6145 5.80333 19.0676 6.87949C19.4494 7.74996 19.1348 8.14701 18.3956 8.54712C17.232 9.1763 15.8545 9.497 15.3414 11.0272C15.1276 11.6381 14.8741 12.2123 14.8771 12.8873C14.8954 15.2726 14.8771 17.658 14.8771 20.0434C14.8771 20.6787 14.9351 21.2224 13.9822 21.2407C13.0293 21.259 12.9224 20.7856 12.9499 20.019C12.9896 18.9042 12.9499 17.7833 12.9682 16.6593C12.9865 16.024 12.788 15.743 12.1069 15.743C11.4258 15.743 11.1906 15.9904 11.215 16.644C11.2517 17.658 11.2456 18.6751 11.2456 19.6983C11.2456 20.413 11.551 21.2254 10.2438 21.2254C8.87851 21.2254 9.32749 20.3092 9.30306 19.6555C9.26335 17.6764 9.22975 15.685 9.30306 13.718C9.39163 11.4823 8.74718 9.79327 6.4473 9.01443C5.16145 8.57766 4.57503 7.79272 5.31111 6.36942C5.74788 5.52339 5.9464 4.55213 6.2671 3.645C6.45952 3.09523 6.49312 2.45994 7.46133 2.80813C8.31958 3.11356 8.43259 3.48618 8.10883 4.25586C7.78508 5.02554 7.59877 5.783 7.35137 6.53435H10.1308C11.0837 6.47021 12 6.80313 12.9499 6.84283Z" fill="#5E4FA1"/>
<path d="M10.8088 6.1709C10.0024 4.79342 10.1032 3.80994 11.1142 3.1716C11.328 3.03741 11.5673 2.94885 11.8169 2.91147C12.0666 2.87409 12.3213 2.88869 12.565 2.95436C12.8088 3.02003 13.0363 3.13535 13.2334 3.29309C13.4305 3.45083 13.5929 3.64759 13.7103 3.87103C14.3548 5.12939 13.7775 5.97237 12.6505 6.5649C11.9327 6.91614 11.2944 6.90392 10.8088 6.1709Z" fill="#6051A2"/>
<path d="M10.8088 6.17089C11.3644 6.48818 12.0045 6.6258 12.6414 6.56489L12.9468 6.84283C11.9083 7.67665 11.0562 6.74204 10.1246 6.5374C10.3812 6.47021 10.6744 6.46716 10.8088 6.17089Z" fill="#D0CCD8"/>
</svg>
