<svg width="24" height="24" viewBox="0 0 24 24" fill="none" xmlns="http://www.w3.org/2000/svg">
<path d="M12.0947 7.37693C13.7936 8.72748 16.012 9.40581 17.2556 11.3491C16.3413 11.7991 15.5227 12.4217 14.8447 13.1825C12.382 15.7491 9.61058 17.9889 7.12336 20.5158C3.3742 17.2616 4.1167 11.0986 8.63891 9.07276C9.57391 8.65109 10.0414 7.88415 10.8359 7.43192C11.2392 7.05609 11.6609 7.12637 12.0947 7.37693Z" fill="#778B95"/>
<path d="M7.11121 20.5158C7.55426 19.1347 8.77037 18.3769 9.74815 17.503C11.664 15.7828 13.479 13.9739 15.3398 12.2139C15.847 11.7311 16.3542 11.0436 17.2556 11.3491C19.1837 13.5278 18.8629 18.2211 16.2779 20.4302C13.6929 22.6394 10.0201 22.783 7.11121 20.5158Z" fill="#556F7B"/>
<path d="M12.0948 7.37693L10.8359 7.43193C10.7106 6.66498 10.1911 6.22804 9.54642 5.90415H9.5617C9.66253 5.16471 8.2967 4.00054 10.1728 3.76527C10.2863 3.80014 10.3817 3.87799 10.4386 3.98221C10.4723 4.68804 10.3714 5.46415 11.3553 5.6261C11.9848 5.06999 12.6081 5.05165 13.2253 5.64137C12.7334 6.12415 12.0459 5.64137 11.5234 5.99276C11.725 6.46637 11.9084 6.92165 12.0948 7.37693Z" fill="#A99289"/>
<path d="M9.55564 5.88888C9.51782 5.98178 9.47498 6.07257 9.4273 6.16082C8.86508 7.07749 8.05231 6.77193 7.28842 6.55499C7.22875 6.53571 7.17436 6.50289 7.12949 6.45909C7.08461 6.4153 7.05049 6.36171 7.02977 6.30253C7.00906 6.24335 7.00232 6.18017 7.01009 6.11795C7.01785 6.05573 7.03991 5.99615 7.07453 5.94388C7.56342 5.29305 8.27231 5.66277 8.88647 5.63832C9.10953 5.63832 9.34175 5.81554 9.56786 5.91027L9.55564 5.88888Z" fill="#E58763"/>
<path d="M8.71229 3.85082C8.21118 3.54527 7.6398 3.17555 7.50841 2.49416C7.5003 2.41833 7.5126 2.34172 7.54405 2.27225C7.5755 2.20278 7.62495 2.14298 7.68727 2.09904C7.7496 2.0551 7.82254 2.02862 7.89853 2.02234C7.97453 2.01606 8.05083 2.03021 8.11952 2.06333C8.69702 2.34444 9.27757 2.7111 9.29896 3.46582C9.30813 3.74999 9.07896 3.89055 8.71229 3.85082Z" fill="#F6D04D"/>
<path d="M10.4448 3.99749L10.1667 3.78055C10.2401 2.86388 10.8542 2.3811 11.6151 2.05416C11.6648 2.04292 11.7164 2.04322 11.7659 2.05504C11.8154 2.06686 11.8616 2.08989 11.9009 2.12235C11.9401 2.15481 11.9714 2.19585 11.9923 2.24229C12.0132 2.28874 12.0232 2.33936 12.0215 2.39027C11.8534 3.25194 11.2301 3.71332 10.4448 3.99749Z" fill="#FDD346"/>
<path d="M13.2406 5.65666L11.3706 5.63832C11.0284 5.33277 11.065 4.94471 11.4562 4.79499C11.7376 4.67815 12.0398 4.61979 12.3445 4.62347C12.6491 4.62715 12.9499 4.69278 13.2284 4.81638C13.6439 5.01499 13.595 5.36943 13.2406 5.65666Z" fill="#E48966"/>
</svg>
