<svg width="24" height="24" viewBox="0 0 24 24" fill="none" xmlns="http://www.w3.org/2000/svg">
<path d="M6.56416 6.45416C10.3133 6.48166 14.0655 6.55805 17.8116 6.51222C19.0033 6.49694 19.3791 6.81777 19.3394 8.03999C19.263 11.7892 19.2752 15.5414 19.3394 19.2936C19.3577 20.6777 18.7986 21.2033 17.448 21.185C13.8058 21.1361 10.1667 21.1666 6.5 21.1422C6.01416 20.6075 6.02333 19.9414 6.02027 19.2905C6.005 15.6239 5.99888 11.9572 6.02027 8.2661C6.03555 7.62444 5.98666 6.93694 6.56416 6.45416Z" fill="#BEADA6"/>
<path d="M6.56418 6.45416C6.54585 11.343 6.5265 16.239 6.50613 21.1422C5.19835 21.2461 4.77974 20.3722 4.77057 19.3425C4.72474 14.4933 4.73696 9.64415 4.77057 4.79194C4.77057 3.87527 5.18613 3.13277 6.19446 2.90666C7.20279 3.45972 6.87585 4.24194 6.55196 5.02416L6.56418 6.45416Z" fill="#A28981"/>
<path d="M6.5489 5.02416C6.42973 4.31833 6.71695 3.54222 6.1914 2.90667C9.94565 2.89444 13.703 2.88528 17.4633 2.87917C17.8144 2.88452 18.1623 2.94749 18.493 3.06555C19.0033 3.24583 19.3853 3.57278 19.2905 4.19611C19.1867 4.88666 18.6275 4.70333 18.2119 4.70638C14.9089 4.70638 11.6089 4.70638 8.30584 4.70638C7.72223 4.71861 7.07751 4.59333 6.5489 5.02416Z" fill="#BEADA7"/>
</svg>
