<svg width="24" height="24" viewBox="0 0 24 24" fill="none" xmlns="http://www.w3.org/2000/svg">
<path d="M12.2842 6.85749C14.3039 5.14333 16.5619 4.01277 19.2753 3.93333C19.9903 3.915 20.2653 4.03111 20.2591 4.80416C20.2327 9.10637 20.2296 13.4096 20.25 17.7139C20.25 18.3616 20.0116 18.6152 19.3761 18.6305C16.678 18.7069 14.4231 19.8925 12.3483 21.4997C11.505 21.3622 11.56 20.6533 11.5508 20.0911C11.4867 16.1983 11.4928 12.3025 11.5508 8.40971C11.5508 7.7986 11.6517 7.1936 12.2842 6.85749Z" fill="#EF5552"/>
<path d="M12.2842 6.85749C12.1784 7.02912 12.1049 7.21862 12.0672 7.41666C12.0448 11.9491 12.0387 16.4804 12.0489 21.0108C12.0489 21.1788 12.2444 21.3438 12.3544 21.5088C11.9572 21.9672 11.7433 21.5088 11.505 21.3194C9.68752 19.7477 7.40161 18.8207 5.0028 18.6825C4.22363 18.6397 3.96085 18.328 3.96085 17.5611C3.96085 13.2996 3.93641 9.03813 3.88752 4.77666C3.88752 4.08305 4.13807 3.95472 4.80418 3.94861C7.11112 3.93028 9.12473 4.82555 10.9978 6.10277C11.4103 6.38388 11.725 6.82694 12.2842 6.85749Z" fill="#F37574"/>
</svg>
