<svg width="24" height="24" viewBox="0 0 24 24" fill="none" xmlns="http://www.w3.org/2000/svg">
<path d="M10.2156 3.16639C10.9581 2.50333 11.8381 2.94028 12.66 2.87917C13.0969 2.83333 13.2467 3.23361 13.2222 3.61556C12.9808 5.95306 13.5583 7.89333 15.3611 9.58C16.1922 10.35 15.5994 11.7953 15.6667 12.9411C15.0769 13.4575 14.3497 13.3781 13.65 13.3903C12.4889 13.3903 11.3278 13.3903 10.1697 13.3903C8.38528 13.4086 7.58778 14.7439 8.31194 16.4244C8.57472 17.0356 9.085 17.0111 9.57694 17.0356C10.9886 17.0783 12.4033 17.0356 13.815 17.0569C14.4689 17.0569 15.1381 17.0325 15.6789 17.5122C15.7461 21.1789 15.7461 21.1789 12.0856 21.1789C10.9703 21.1789 9.855 21.1514 8.73972 21.1789C7.85056 21.2064 7.44417 20.8733 7.45333 19.9383C7.47778 16.95 7.45333 13.9586 7.45333 10.9703C7.44806 10.6148 7.5247 10.2629 7.6773 9.94177C7.8299 9.62067 8.05438 9.33901 8.33333 9.11861C9.7725 7.96667 10.1667 6.39 10.2217 4.66667C10.7656 4.07694 11.6853 4.48333 12.3819 3.93944C11.6944 3.30694 10.7564 3.7775 10.2156 3.16639Z" fill="#97DAF8"/>
<path d="M15.6667 17.5C13.4453 17.5 11.2208 17.4603 8.99638 17.5244C7.98805 17.555 7.72222 17.1944 7.72222 16.2106C7.67638 12.9167 7.64277 12.9167 10.958 12.9319H15.6667C15.6667 14.4556 15.6667 15.9783 15.6667 17.5Z" fill="#59C2EF"/>
<path d="M10.2156 3.16638C10.8756 3.16638 11.5356 3.16638 12.1956 3.16638C12.7058 3.16638 12.9197 3.43527 12.9197 3.92416C12.9197 4.41305 12.715 4.6911 12.1986 4.68805C11.5386 4.68805 10.8786 4.68805 10.2217 4.68805C10.2186 4.1686 10.2186 3.66749 10.2156 3.16638Z" fill="#6DC3EB"/>
</svg>
