<svg width="24" height="24" viewBox="0 0 24 24" fill="none" xmlns="http://www.w3.org/2000/svg">
<path d="M10.13 6.21888C8.99946 5.43666 8.98724 4.46805 9.80612 3.5086C10.4997 2.69888 11.4072 2.67138 12.2506 3.29166C13.2283 3.99444 13.2161 5.04555 12.1253 6.52443C14.4628 6.21888 14.86 7.83526 15.2633 9.44554C15.6768 10.9162 15.8369 12.4464 15.7369 13.9708C15.52 16.2258 16.0028 18.1752 17.6558 19.7764C18.2181 20.3233 18.3556 20.7511 17.5672 21.3286C16.7789 21.9061 16.5467 21.5486 16.1556 20.9864C14.9119 19.1897 13.0389 17.6527 13.8578 14.97C12.3972 16.4244 10.8206 17.665 11.23 19.9689C11.3645 20.7358 11.1964 21.3347 10.127 21.298C9.00863 21.2614 9.3539 20.5127 9.26224 19.92C8.95668 17.9522 9.72362 16.4519 11.0314 15.0158C12.6845 13.1978 12.5592 13.0053 10.13 12.4675C9.93476 12.4127 9.74294 12.3464 9.55557 12.2689C9.52501 10.8939 9.72362 10.6983 11.117 10.7411C11.9939 10.0108 11.0589 9.31415 11.0772 8.60221C9.52196 8.34554 7.95752 8.54721 6.39919 8.48609C6.00196 8.47082 5.6078 8.52582 5.35113 8.0736C4.92641 7.31582 5.21669 6.6986 6.08752 6.67415C7.19974 6.64054 8.31196 6.67415 9.42112 6.65277C9.70223 6.64971 10.2095 6.86665 10.13 6.21888Z" fill="#5E4FA1"/>
<path d="M10.13 6.21887C10.8144 6.37471 10.8664 6.70165 10.1606 6.77193C9.01167 6.88804 7.83834 6.77193 6.68029 6.83609C6.29223 6.86054 5.57724 6.38998 5.52529 7.28526C5.47335 8.18054 5.99279 8.35776 6.78112 8.32415C8.00334 8.27526 9.20417 8.32415 10.4172 8.32415C10.5426 8.31184 10.669 8.33176 10.7845 8.38203C10.9 8.4323 11.0008 8.51124 11.0772 8.61137C9.54945 8.59609 8.04612 8.59609 6.53362 8.55942C6.2844 8.54165 6.03424 8.57714 5.7998 8.66354C5.56535 8.74995 5.35199 8.88528 5.1739 9.06053C4.66974 9.54025 4.07085 9.4822 3.50557 9.11859C3.26045 8.97936 3.06929 8.76171 2.96288 8.50066C2.85646 8.23961 2.84097 7.95035 2.91891 7.67943C2.97961 7.35084 3.15663 7.05511 3.41755 6.84638C3.67847 6.63764 4.00584 6.52986 4.33974 6.54276C5.80335 6.50915 7.27001 6.54276 8.73362 6.49998C9.20112 6.48165 9.75112 6.73832 10.13 6.21887Z" fill="#7B61AA"/>
<path d="M11.1169 10.7472C10.1239 10.7716 9.78778 11.4653 9.55556 12.275C9.1022 12.3135 8.64837 12.2065 8.26001 11.9694C8.01051 11.848 7.80212 11.656 7.66068 11.4173C7.51923 11.1786 7.45095 10.9036 7.46429 10.6264C7.47762 10.3493 7.572 10.0821 7.73571 9.8581C7.89942 9.63407 8.12528 9.46299 8.38529 9.36609C8.63862 9.24436 8.92738 9.21814 9.1985 9.29224C9.46962 9.36633 9.7049 9.53577 9.86112 9.76942C10.1703 10.2157 10.6085 10.5568 11.1169 10.7472Z" fill="#7D62AA"/>
</svg>
