<svg width="24" height="24" viewBox="0 0 24 24" fill="none" xmlns="http://www.w3.org/2000/svg">
<path d="M12.3453 3.76528C14.9883 3.6125 17.665 4.30916 20.2744 5.36027C20.9894 5.66583 21.3622 5.99277 20.9436 6.84833C20.5678 7.60916 20.2011 7.73138 19.4158 7.39221C14.4994 5.27777 9.55555 5.29916 4.66667 7.44416C3.71334 7.85971 3.55751 7.29138 3.21528 6.71388C2.72945 5.89194 3.28251 5.65361 3.86917 5.38777C6.26472 4.3 8.98722 3.75 12.3453 3.76528Z" fill="#5AA1D8"/>
<path d="M14.1114 7.41666C15.8347 7.30361 17.3594 7.98499 18.9055 8.60222C19.7947 8.94444 19.6389 9.50666 19.3333 10.1819C19.0278 10.8572 18.8078 10.9886 17.998 10.6525C16.1411 9.8535 14.1407 9.44142 12.1192 9.44142C10.0976 9.44142 8.09726 9.8535 6.24029 10.6525C5.20446 11.0833 5.0639 10.5425 4.71252 9.90694C4.29696 9.15527 4.61168 8.80999 5.28085 8.53194C6.86314 7.89202 8.51698 7.44573 10.2064 7.20277C11.4989 7.44722 12.825 7.07139 14.1114 7.41666Z" fill="#96C9EC"/>
<path d="M12.1467 10.7778C13.9244 10.7117 15.6941 11.0491 17.3228 11.7647C17.9033 12.003 18.3158 12.278 17.888 12.9869C17.5672 13.5308 17.5 14.2397 16.5039 13.7967C15.1146 13.1591 13.6049 12.8267 12.0763 12.822C10.5478 12.8172 9.03595 13.1402 7.64278 13.7692C6.63751 14.203 6.5764 13.4819 6.24334 12.9594C5.77279 12.223 6.24334 12.0061 6.81167 11.7739C8.49161 11.0421 10.3158 10.7015 12.1467 10.7778Z" fill="#5BA2D8"/>
<path d="M12 14.2611C13.2467 14.6125 14.6736 14.2122 15.9264 14.9669C16.3725 15.2358 16.95 15.2908 16.5375 15.9936C16.2319 16.5191 16.128 17.4205 15.1992 17.0844C13.2005 16.3335 10.9959 16.3411 9.0025 17.1058C8.08584 17.445 7.94834 16.6016 7.65195 16.0516C7.28528 15.3703 7.80472 15.2022 8.26306 14.9455C9.41806 14.2916 10.735 14.5728 12 14.2611Z" fill="#97C9EC"/>
<path d="M12.2322 17.8055C12.8892 17.7649 13.5475 17.8595 14.1664 18.0836C14.64 18.2822 15.2206 18.4105 14.9333 19.1041C14.6981 19.6694 14.5422 20.4944 13.6103 20.195C12.6487 19.866 11.605 19.866 10.6433 20.195C9.64417 20.5341 9.47001 19.6725 9.20112 19.0553C8.8589 18.27 9.59223 18.2944 10.0017 18.108C10.7106 17.7841 11.4714 17.8055 12.2322 17.8055Z" fill="#5EA2D8"/>
<path d="M14.1114 7.41666C12.8097 7.32805 11.4867 7.67333 10.2064 7.20583C11.5142 7.16305 12.8372 6.83305 14.1114 7.41666Z" fill="#A3A9B6"/>
</svg>
