<svg width="24" height="24" viewBox="0 0 24 24" fill="none" xmlns="http://www.w3.org/2000/svg">
<path d="M12.9625 9.22249C12.6203 7.71611 13.2681 7.21499 14.7195 7.43194C15.2746 7.47527 15.832 7.48038 16.3878 7.44722C19.2753 7.48083 21.1117 9.06666 21.1881 11.5875C21.2858 14.7469 19.6786 16.5894 16.6353 16.7819C16.0242 16.8216 15.4131 16.7819 14.802 16.7819C12.8739 16.7819 12.8739 16.7819 12.9686 14.7744C13.4881 14.1939 14.1908 14.3375 14.8386 14.31C15.2908 14.31 15.7553 14.3405 16.1983 14.31C17.8208 14.2458 18.6428 13.6989 18.8444 12.5622C19.0858 11.2605 18.4931 10.405 16.9042 9.77555C16.1067 9.54332 15.2939 9.67471 14.4903 9.65027C13.9525 9.6686 13.3842 9.68388 12.9625 9.22249Z" fill="#57707C"/>
<path d="M6.5 16.5833C3.71029 15.7736 2.52779 13.9891 2.90362 11.1689C3.1939 8.99943 5.14945 7.47777 7.72222 7.45027C8.83139 7.45027 9.94055 7.47166 11.0528 7.48388C11.4592 9.39971 11.2697 9.65332 9.41805 9.68388C8.66028 9.68388 7.89028 9.5861 7.15389 9.82749C5.62611 10.4783 5.21362 11.1536 5.43667 12.5592C5.62306 13.7355 6.41445 14.2886 8.00944 14.3344C8.5625 14.3528 9.1125 14.3344 9.66861 14.31C10.2614 14.3772 10.9305 14.2855 11.1964 15.0128C11.5936 16.07 11.1353 16.733 9.97416 16.7116C8.81305 16.6903 7.64583 16.8675 6.5 16.5833Z" fill="#57707C"/>
<path d="M6.78724 9.51888C7.58168 9.00249 8.47085 9.24388 9.29279 9.30805C10.7167 9.4211 11.4317 9.0361 11.0406 7.47472C11.5753 7.67638 11.395 8.14694 11.3981 8.5136C11.3981 10.8939 11.3767 13.2711 11.4195 15.6483C11.4195 16.565 11.1597 17.0019 10.1972 16.8889C8.97501 16.7391 7.67946 17.1944 6.48474 16.5833C7.59696 16.5833 8.71224 16.5833 9.82446 16.5833C10.4203 16.5833 11.0467 16.7086 11.0956 15.743C11.1383 14.7072 10.4845 14.7561 9.80918 14.7561C9.60459 14.7476 9.4006 14.7282 9.19807 14.698C8.5564 13.8425 8.77946 12.8433 8.81001 11.9083C8.84363 10.7411 8.60529 9.9161 7.25168 9.84888C7.15545 9.82953 7.06437 9.79014 6.98435 9.73329C6.90434 9.67644 6.83718 9.60338 6.78724 9.51888Z" fill="#9AA7AE"/>
<path d="M12.9625 9.22249C14.3711 9.50054 15.8317 8.94138 17.2219 9.49749C15.5933 10.0047 15.3244 11.2178 15.4772 12.718C15.5475 13.3933 15.5842 14.1236 15.0739 14.7133L12.9869 14.7958C12.9788 12.9319 12.9706 11.0742 12.9625 9.22249Z" fill="#9BA9AF"/>
<path d="M13.155 4.09528C13.0725 4.57194 13.3628 5.18305 12.9411 5.62305C12.5958 5.99277 12.0825 5.83083 11.6425 5.80944C11.0558 5.78194 11.1108 5.31138 11.1047 4.91111C11.1047 4.35805 11.1047 3.80194 11.1047 3.24583C11.1047 2.57667 11.0069 1.95639 12.0519 1.95028C13.0969 1.94417 13.2222 2.46056 13.1581 3.27944C13.1367 3.53 13.155 3.78361 13.155 4.09528Z" fill="#667A85"/>
<path d="M10.2094 5.34806C10.01 5.87901 9.64178 6.32985 9.16139 6.63139C8.74889 6.93694 8.53194 6.51222 8.29361 6.28916C7.85361 5.87667 7.45639 5.41833 7.00722 5.02111C6.45722 4.53528 6.15473 4.17167 6.86667 3.475C7.57861 2.77834 8.00639 2.92806 8.55944 3.57889C9.1125 4.22972 9.69305 4.79806 10.2094 5.34806Z" fill="#9EACB2"/>
<path d="M11.1047 20.0361C11.3644 19.5533 10.5272 18.5083 11.8869 18.4105C12.7119 18.3555 13.2894 18.4747 13.1519 19.5105C13.1168 19.91 13.1168 20.3119 13.1519 20.7114C13.1886 21.5027 13.2436 22.1597 12.0489 22.1383C10.8542 22.1169 11.1322 21.3683 11.1139 20.7205C11.0986 20.5219 11.1047 20.3203 11.1047 20.0361Z" fill="#607581"/>
<path d="M15.2541 7.23945C14.7011 6.48472 14.3864 6.0875 14.1083 5.66584C13.8303 5.24417 14.2611 5.03639 14.478 4.80417C14.9241 4.3214 15.4283 3.88751 15.8653 3.39862C16.3022 2.90973 16.6994 2.82418 17.2403 3.34973C17.7811 3.87529 17.8055 4.28473 17.2403 4.84695C16.6047 5.48556 16.0761 6.23723 15.2541 7.23945Z" fill="#A0AEB4"/>
<path d="M7.58778 21.7502C7.11111 21.1116 6.78417 20.7144 6.5 20.305C6.16695 19.8497 6.64056 19.6939 6.85139 19.4555C7.2975 18.9697 7.80778 18.5389 8.24167 18.0469C8.67555 17.555 9.06361 17.4602 9.61055 17.9858C10.1575 18.5114 10.2003 18.9025 9.61055 19.4677C8.94444 20.0972 8.39444 20.8275 7.58778 21.7502Z" fill="#9DABB2"/>
<path d="M15.0769 17.0539C16.0119 18.1203 16.7789 18.9147 17.448 19.7825C17.9492 20.4333 17.0997 20.5769 16.8705 20.9466C16.5192 21.518 16.1678 21.298 15.8042 20.9069C15.3214 20.3844 14.8019 19.9047 14.31 19.3791C14.0747 19.1377 13.6989 18.9055 14.0044 18.49C14.31 18.0744 14.5361 17.775 15.0769 17.0539Z" fill="#9DACB3"/>
<path d="M15.0739 14.7133C15.0739 13.76 15.0525 12.8067 15.0494 11.8533C15.0494 9.65944 15.0494 9.65944 17.2219 9.4975C18.8444 10.0047 19.5197 10.9611 19.3303 12.4767C19.153 13.8883 18.1844 14.7072 16.5803 14.7592C16.0853 14.7775 15.578 14.7286 15.0739 14.7133Z" fill="#FEFEFE"/>
<path d="M6.78724 9.51888C9.23168 9.62582 9.23168 9.62582 9.23168 12.1558C9.23168 13.0053 9.22659 13.8547 9.2164 14.7041C8.71529 14.7225 8.21418 14.7653 7.71613 14.7591C6.10891 14.7439 5.15252 14.0533 4.94474 12.7822C4.66669 11.0161 5.11891 10.1972 6.78724 9.51888Z" fill="#FEFEFE"/>
</svg>
