<svg width="24" height="24" viewBox="0 0 24 24" fill="none" xmlns="http://www.w3.org/2000/svg">
<path d="M12.2628 8.28748C14.1389 6.31665 16.4183 4.89582 18.5878 3.31916C19.315 2.79055 20.1155 2.70805 20.7878 3.41999C21.46 4.13193 21.3255 4.94777 20.8092 5.65054C19.2814 7.73748 17.9094 9.92831 16.0456 11.7616C15.74 11.8808 15.41 11.9572 15.1839 11.7372C14.0992 10.6769 12.5928 9.9772 12.2628 8.28748Z" fill="#E45026"/>
<path d="M5.44279 21.24C4.92812 21.1937 4.41751 21.11 3.91502 20.9894C2.32002 20.5036 2.20697 20.1369 3.18169 18.8505C3.48294 18.3792 3.69043 17.8543 3.7928 17.3044C4.3428 15.3947 5.32057 14.6033 6.86362 14.7805C8.24473 14.9394 9.28362 16.1189 9.36306 17.613C9.41198 18.4057 9.1804 19.1904 8.70889 19.8295C8.23738 20.4686 7.55602 20.9214 6.78418 21.1086C6.34002 21.1787 5.89211 21.2225 5.44279 21.24Z" fill="#F9A01D"/>
<path d="M12.2628 8.28748C13.4056 9.57386 14.3742 11.0375 16.0456 11.7525C14.7622 13.2802 13.0175 14.2244 11.4011 15.3305C10.2461 16.1219 10.0078 14.7897 9.36918 14.4138C8.45251 13.8425 8.45251 13.1916 9.11251 12.33C10.1422 10.955 10.9428 9.41803 12.2628 8.28748Z" fill="#EA7252"/>
</svg>
