<svg width="24" height="24" viewBox="0 0 24 24" fill="none" xmlns="http://www.w3.org/2000/svg">
<path d="M8.04303 8.37C10.0811 6.14556 10.6036 6.12417 12.6844 8.17445C12.935 8.41889 13.1947 8.65111 13.5369 8.96889C13.9555 7.985 14.3283 7.0775 14.7255 6.17917C15.0718 5.38346 15.5688 4.66232 16.1891 4.05556C17.3686 2.90361 18.9911 2.89445 20.1278 4.02195C20.6515 4.55142 20.9437 5.2671 20.9403 6.01185C20.9369 6.7566 20.638 7.46955 20.1094 7.99417C18.7619 9.35694 16.9866 9.96195 15.2205 10.5822C18.0469 14.1756 18.0469 14.1756 15.6422 16.2778C15.0311 16.455 14.7255 15.9875 14.3741 15.6667C12.44 13.7631 10.5119 11.8472 8.62053 9.89778C8.23859 9.48528 7.58164 9.11861 8.04303 8.37Z" fill="#E44F26"/>
<path d="M14.1664 17.7414L11.2147 20.7969C10.298 21.7503 9.31415 21.7136 8.40971 20.8581C6.69045 19.2101 5.00378 17.5265 3.34971 15.8072C2.4636 14.8906 2.53693 13.8639 3.39554 12.9686C4.40998 11.9114 5.49776 10.9183 6.55193 9.91306C7.23637 9.75111 7.59693 10.2644 7.91471 10.6708C9.57693 12.7914 11.6089 14.5483 13.4514 16.4764C13.7905 16.8339 14.2367 17.1456 14.1664 17.7414Z" fill="#FAA62A"/>
<path d="M14.1664 17.7414L6.55194 9.90084L8.04305 8.37306C8.09142 8.6144 8.1847 8.84451 8.31805 9.0514C10.7503 11.4673 13.1917 13.8761 15.6422 16.2778C15.2438 16.8517 14.7436 17.3478 14.1664 17.7414Z" fill="#EA7252"/>
</svg>
