<svg width="24" height="24" viewBox="0 0 24 24" fill="none" xmlns="http://www.w3.org/2000/svg">
<path d="M12.0917 20.25C9.70222 20.25 7.31278 20.2072 4.9264 20.2652C3.50251 20.2989 2.86085 19.6939 2.8639 18.2944C2.8639 14.1816 2.87918 10.0689 2.8639 5.95611C2.8639 4.56583 3.47501 3.90278 4.88668 3.90583C9.66352 3.92009 14.4404 3.92009 19.2172 3.90583C20.58 3.90583 21.2461 4.43139 21.2247 5.90416C21.1666 10.0139 21.2125 14.1389 21.1941 18.2394C21.185 19.9444 20.8611 20.25 19.1042 20.25C16.7667 20.25 14.4444 20.25 12.0917 20.25Z" fill="#38474F"/>
<path d="M6.49999 12.1344V10.7778C6.49999 7.70389 7.46554 6.89722 10.5089 7.46861C11.3828 7.63361 12.0366 8.1225 12.0366 9.08499C12.0672 11.122 12.0672 13.153 12.0366 15.1778C12.0375 15.5661 11.8904 15.9401 11.6254 16.2239C11.3603 16.5077 10.9972 16.6799 10.6097 16.7055C9.8059 16.8267 8.98886 16.8318 8.1836 16.7208C7.12026 16.5558 6.46943 15.908 6.49693 14.7317C6.53054 13.8608 6.49999 12.9961 6.49999 12.1344Z" fill="#8EC63F"/>
<path d="M17.5825 12.0244C17.5825 13.2894 17.558 14.5544 17.5825 15.8164C17.6008 16.5344 17.3258 16.8064 16.6047 16.7941C15.8836 16.7819 15.6239 16.51 15.6391 15.7919C15.6758 14.0747 15.6391 12.3544 15.6636 10.6372C15.6819 9.83665 15.6483 9.21027 14.5789 9.3386C13.8333 9.43027 13.8333 8.90165 13.8333 8.35471C13.818 7.7436 13.9647 7.47777 14.6583 7.4136C17.6008 7.14166 17.5978 7.10805 17.5978 10.0536L17.5825 12.0244Z" fill="#8DC63F"/>
<path d="M8.53498 12.0917C8.53498 11.4378 8.53498 10.7808 8.53498 10.1239C8.5197 9.51277 8.84053 9.35694 9.38748 9.35083C9.97414 9.35083 10.188 9.58916 10.1758 10.1697C10.1514 11.4286 10.1514 12.6895 10.1758 13.9525C10.1758 14.5086 10.0261 14.7653 9.41498 14.7744C8.80387 14.7836 8.49831 14.5758 8.53192 13.9097C8.56553 13.3047 8.53498 12.6997 8.53498 12.0917Z" fill="#374650"/>
</svg>
