<svg width="24" height="24" viewBox="0 0 24 24" fill="none" xmlns="http://www.w3.org/2000/svg">
<path d="M17.5519 11.6425C17.8269 11.948 17.7719 12.3055 17.7658 12.6539C17.7658 13.7325 17.4603 14.9241 19.2355 14.9364C19.6542 14.9364 20.0697 15.4772 20.2408 15.9936C20.4874 17.4357 20.4739 18.9103 20.2011 20.3477C19.6236 20.7572 18.9544 20.7175 18.3006 20.7205C14.1083 20.7327 9.9151 20.7327 5.72085 20.7205C5.02419 20.7205 4.28474 20.8 3.73169 20.2102C3.75002 19.3089 3.75002 18.4166 3.75002 17.5C3.75002 15.3611 4.30613 14.7897 6.47557 14.7225C6.62718 14.6145 6.78886 14.5214 6.95835 14.4444C9.47001 14.1053 11.9939 14.3436 14.5117 14.2916C16.6078 14.2489 16.6078 14.2916 17.1486 12.2597C17.2 12.0103 17.3442 11.7897 17.5519 11.6425Z" fill="#EB9090"/>
<path d="M17.5519 11.6425C17.3105 14.75 17.3105 14.75 14.0869 14.75C11.6608 14.75 9.2337 14.75 6.80555 14.75C6.58716 13.6298 6.57784 12.4789 6.77805 11.3553C7.12333 10.3714 7.92083 10.2064 8.81916 10.2064C9.57083 10.2064 10.3194 10.185 11.068 10.1728C11.3651 9.91582 11.7447 9.77441 12.1375 9.77441C12.5302 9.77441 12.9099 9.91582 13.2069 10.1728C13.9158 10.1728 14.6247 10.2033 15.3458 10.1942C16.4061 10.1819 17.2097 10.5547 17.5519 11.6425Z" fill="#E57473"/>
<path d="M3.73169 20.2072L20.2317 20.2255C20.36 20.0636 20.4914 20.0605 20.6197 20.2255C21.1361 20.418 21.9978 19.7886 22.1078 20.9558C22.2055 21.9672 21.7655 22.1169 20.8855 22.1077C17.0264 22.0833 13.1672 22.0833 9.31112 22.0833C7.38001 22.0833 5.45196 22.1169 3.52391 22.0619C3.01058 22.0619 2.24669 22.4836 2.01447 21.5394C1.76086 20.5158 2.60113 20.5891 3.16335 20.3813C3.34974 20.3172 3.54224 20.2652 3.73169 20.2072Z" fill="#E57373"/>
<path d="M14.0319 5.81249C13.8517 6.87888 13.2222 7.56027 12 7.49915C10.7778 7.43804 10.1667 6.76888 10.2003 5.54055C10.237 4.41305 11.4225 2.27416 12.0336 2.22222C12.6447 2.17027 14.0686 4.61777 14.0319 5.81249Z" fill="#FED654"/>
<path d="M13.2222 10.1666H11.0833C11.2422 9.42414 10.6219 8.26915 12.2291 8.33331C13.7416 8.39137 12.993 9.50053 13.2222 10.1666Z" fill="#E99A99"/>
<path d="M20.6136 20.2255H20.2255C20.2418 18.8159 20.25 17.4053 20.25 15.9936C20.9497 17.3533 20.2805 18.8353 20.6136 20.2255Z" fill="#B9ACAA"/>
<path d="M6.78421 11.343L6.8056 14.75H6.47865C6.67421 13.6103 6.19449 12.4278 6.78421 11.343Z" fill="#BB7D78"/>
</svg>
