<svg width="24" height="24" viewBox="0 0 24 24" fill="none" xmlns="http://www.w3.org/2000/svg">
<path d="M21.1667 9.27749C21.1667 12.3575 21.1086 15.4375 21.185 18.5144C21.2186 19.8527 20.7603 20.2775 19.4311 20.2591C14.5667 20.198 9.69918 20.198 4.82863 20.2591C3.40475 20.2744 2.80586 19.7641 2.84252 18.3036C2.9128 15.2725 2.87614 12.2383 2.8853 9.20416C3.49641 8.7061 4.21447 8.77943 4.91419 8.77638C9.61362 8.76416 14.3131 8.76416 19.0125 8.77638C19.758 8.77027 20.5342 8.71221 21.1667 9.27749Z" fill="#F8E7ED"/>
<path d="M21.1667 9.27749C15.0739 9.27749 8.97808 9.42721 2.88531 9.19804C2.88531 8.94749 2.90059 8.69388 2.90365 8.44027C2.92198 4.79194 2.92198 4.79194 6.4817 4.68805C6.638 4.80152 6.75198 4.96388 6.80559 5.14944C6.91864 5.45499 6.93392 5.89499 7.34947 5.93777C7.88114 5.99583 7.89336 5.4886 8.04919 5.14944C8.16531 4.89888 8.23253 4.56583 8.6603 4.68805H15.63C15.8312 4.84571 15.9672 5.07198 16.012 5.32361C16.1036 5.61388 16.1922 5.93472 16.5711 5.93472C16.95 5.93472 17.0111 5.58638 17.1425 5.32361C17.2739 5.06083 17.2586 4.56583 17.7995 4.685C18.3006 4.685 18.8047 4.70638 19.3089 4.7125C20.5311 4.72777 21.1942 5.30833 21.1972 6.54583C21.1972 7.4686 21.1667 8.37304 21.1667 9.27749Z" fill="#C2215C"/>
<path d="M8.63887 4.68805C8.52613 4.78604 8.44069 4.91157 8.39089 5.05241C8.34109 5.19324 8.32862 5.34457 8.3547 5.49166C8.3822 6.10277 8.30276 6.53054 7.50221 6.54276C6.64054 6.54276 6.5061 6.11193 6.53971 5.42443C6.53393 5.17733 6.50839 4.93108 6.46332 4.68805C6.55804 3.84471 6.07832 2.67444 7.76498 2.85472C9.2072 3.01972 8.35776 4.0861 8.63887 4.68805Z" fill="#A38C83"/>
<path d="M17.8056 4.68805C17.6885 4.78264 17.5986 4.90654 17.5449 5.04715C17.4912 5.18776 17.4757 5.34007 17.5 5.4886C17.5244 6.09971 17.4603 6.5336 16.6536 6.54277C15.8469 6.55194 15.6667 6.12721 15.6972 5.43055C15.6929 5.18276 15.6704 4.93562 15.63 4.69111C15.8194 3.96388 15.1472 2.79666 16.7819 2.85778C18.3372 2.90666 17.5428 4.05555 17.8056 4.68805Z" fill="#A48D84"/>
<path d="M11.728 13.3383L10.3775 13.7905C10.1758 12.3086 12.058 10.735 13.433 11.1353C13.9219 11.2789 13.8914 11.6089 13.8914 11.9511C13.8914 13.8272 13.8639 15.7033 13.9128 17.5794C13.9311 18.3677 13.5797 18.5236 12.9075 18.4961C12.2964 18.4625 11.6853 18.5877 11.7189 17.613C11.7708 16.2441 11.728 14.8753 11.728 13.3383Z" fill="#475C66"/>
</svg>
