<svg width="24" height="24" viewBox="0 0 24 24" fill="none" xmlns="http://www.w3.org/2000/svg">
<path d="M20.1919 18.435C20.5769 19.9627 19.8863 20.2897 18.4472 20.2683C10.6678 20.1674 3.5361 12.7516 3.90277 5.04554C3.9211 4.64526 3.8661 4.21749 4.33055 4.00054C6.51832 3.82332 6.63749 3.88138 6.63138 6.00193C6.63138 7.83526 7.29137 9.57081 7.41054 11.3858C8.82526 13.7783 10.68 15.7155 13.2161 16.9225C15.5047 17.6252 17.9277 17.665 20.1919 18.435Z" fill="#45A148"/>
<path d="M20.1919 18.4349C17.7842 18.328 15.355 18.3097 13.2253 16.9072C13.7692 16.3236 14.31 15.7369 14.8539 15.1502C15.0454 14.9162 15.3085 14.7514 15.6027 14.6813C15.8969 14.6112 16.206 14.6396 16.4825 14.7622C16.8035 14.9055 17.1465 14.9933 17.4969 15.0219C20.6319 15.0555 20.2897 15.4283 20.1919 18.4349Z" fill="#8FC692"/>
<path d="M7.41666 11.3889C6.51009 9.74604 6.09535 7.87706 6.22194 6.00498C6.29528 4.50471 5.84306 3.84776 4.33667 4.0036C5.62306 3.51776 6.92166 3.91804 8.21416 3.95165C8.33709 3.96316 8.45526 4.00489 8.55815 4.07313C8.66104 4.14137 8.74546 4.234 8.80388 4.34276C9.01777 5.37554 9.0086 6.48165 9.35694 7.45942C9.84277 8.83442 8.84971 9.38136 8.16833 10.1422C7.83527 10.5089 7.3525 10.7777 7.41666 11.3889Z" fill="#8FC692"/>
</svg>
