<svg width="24" height="24" viewBox="0 0 24 24" fill="none" xmlns="http://www.w3.org/2000/svg">
<path d="M7.39835 11.3934C8.83446 13.7645 10.6617 15.7262 13.2222 16.9179C15.3611 17.2051 17.445 17.9476 19.6389 18.0973C20.5892 18.1615 20.4334 18.962 20.2959 19.6251C20.2011 20.1293 19.8467 20.2118 19.4006 20.2362C11.6945 20.7373 3.51169 13.6851 3.89669 4.65286C3.94131 4.45738 4.01769 4.27055 4.1228 4.0998C4.80419 3.76675 5.51002 3.94092 6.20974 4.00203C6.34105 4.1226 6.44356 4.27116 6.50967 4.43671C6.57579 4.60226 6.60382 4.78056 6.59169 4.95842C6.5153 7.14925 7.1753 9.25453 7.39835 11.3934Z" fill="#F68D20"/>
<path d="M18.0012 7.55258C15.7645 7.55258 13.9953 7.53425 12.2262 7.55258C11.5173 7.55258 11.0987 7.45175 11.0956 6.57481C11.0925 5.69786 11.5539 5.61536 12.2414 5.62453C14.0106 5.64897 15.7828 5.62453 17.717 5.62453C17.4939 4.98286 16.5681 4.52758 17.4787 3.8187C18.0714 3.35731 18.3556 3.25647 18.9453 3.8187C21.8114 6.50453 21.842 6.50453 19.2112 9.04675C18.8445 9.4012 18.6 10.3545 17.6834 9.56314C16.9073 8.89092 16.9623 8.36842 18.0012 7.55258Z" fill="#F68E21"/>
<path d="M20.2897 19.6434C20.2897 18.7268 19.8956 18.4212 18.9331 18.3784C16.9561 18.2745 14.9608 18.0454 13.2222 16.9331C15.1503 14.6537 16.8217 14.2168 19.5167 15.2862C20.0239 15.4848 20.4333 15.8118 20.4333 16.3648C20.4272 17.4434 20.687 18.5526 20.2897 19.6434Z" fill="#FABA69"/>
<path d="M7.39837 11.3934C6.17615 9.09564 6.17615 6.59925 6.17615 4.09981C6.90404 3.86288 7.68616 3.84905 8.42198 4.06008C9.6717 5.92397 9.50059 8.71981 8.04004 10.2629C7.72226 10.5776 7.34337 10.8587 7.39837 11.3934Z" fill="#FBBA68"/>
<path d="M8.42197 4.06008L6.17308 4.11203H4.1228C5.54669 3.47036 6.98586 3.68425 8.42197 4.06008Z" fill="#C79869"/>
</svg>
