<svg width="24" height="24" viewBox="0 0 24 24" fill="none" xmlns="http://www.w3.org/2000/svg">
<path d="M7.41667 11.3889C8.83444 13.7783 10.6861 15.7156 13.2222 16.9256C15.5017 17.6253 17.9064 17.7414 20.1858 18.4533C20.4639 19.7764 20.1186 20.3142 18.5847 20.2867C11.3186 20.2133 4.52917 13.9739 4.025 6.72C3.96389 5.80333 3.41389 4.81945 4.33055 4.01278C6.51222 3.84167 6.63139 3.89972 6.62528 6.01417C6.62528 7.84444 7.28528 9.57083 7.41667 11.3889Z" fill="#4083C5"/>
<path d="M20.1858 18.435C17.7689 18.3647 15.3458 18.325 13.2222 16.9072C13.7997 16.2778 14.3589 15.6453 14.9608 15.0556C15.1288 14.8646 15.3532 14.7321 15.6015 14.6771C15.8498 14.6222 16.1091 14.6477 16.342 14.75C16.7168 14.8969 17.1075 14.9995 17.5061 15.0556C20.3295 15.4253 20.3325 15.4222 20.1858 18.435Z" fill="#7FB7E3"/>
<path d="M7.41666 11.3889C6.5078 9.74836 6.09688 7.87848 6.23416 6.00805C6.33194 4.48027 5.84 3.86916 4.34277 4.01277C5.565 3.54222 6.83611 3.89666 8.08277 3.89972C8.2867 3.91901 8.47925 4.00245 8.63277 4.13805C9.32944 4.72166 9.46083 8.80388 8.85583 9.50972C8.33333 10.0994 7.49611 10.4539 7.41666 11.3889Z" fill="#80B7E3"/>
<path d="M14.3008 5.63222C15.2756 5.65972 15.7614 6.24333 15.795 7.07138C15.8066 7.25196 15.7816 7.43301 15.7215 7.60369C15.6614 7.77437 15.5675 7.93117 15.4454 8.06469C15.3233 8.19821 15.1755 8.30571 15.0109 8.38075C14.8462 8.45579 14.6681 8.49682 14.4872 8.50138C14.2949 8.52485 14.0998 8.50703 13.9149 8.44914C13.73 8.39124 13.5596 8.29458 13.415 8.16562C13.2705 8.03665 13.155 7.87834 13.0765 7.70125C12.9979 7.52415 12.958 7.33234 12.9594 7.13861C12.9167 6.25555 13.4453 5.74222 14.3008 5.63222Z" fill="#4D88C6"/>
<path d="M19.5411 9.81833C19.2845 10.6983 18.82 11.3461 17.9553 11.2392C17.1761 11.1475 16.5528 10.6464 16.6231 9.71138C16.6934 8.77638 17.2342 8.35777 18.1203 8.39444C19.0064 8.4311 19.3089 9.15833 19.5411 9.81833Z" fill="#4B87C6"/>
<path d="M19.4984 5.32361C19.3761 6.04166 18.9178 6.68638 18.0622 6.67111C17.8705 6.68265 17.6785 6.65344 17.4989 6.5854C17.3192 6.51735 17.156 6.41202 17.0201 6.27633C16.8841 6.14065 16.7784 5.97769 16.71 5.7982C16.6416 5.61871 16.6119 5.42676 16.6231 5.23499C16.6231 4.37333 17.1211 3.91805 17.937 3.89361C18.7528 3.86916 19.3731 4.29999 19.4984 5.32361Z" fill="#4A86C5"/>
</svg>
