<svg width="24" height="24" viewBox="0 0 24 24" fill="none" xmlns="http://www.w3.org/2000/svg">
<path d="M7.4167 11.3889C8.83142 13.7844 10.6831 15.7216 13.2222 16.9286C15.3611 17.2739 17.445 17.9522 19.6389 18.1019C20.5983 18.1691 20.4242 18.9727 20.3142 19.6297C20.2133 20.1277 19.865 20.2011 19.4189 20.2408C11.4531 21.0933 2.9831 12.4889 3.93948 4.51388C3.98015 4.36772 4.04081 4.22788 4.11976 4.09833C4.80115 3.74999 5.50698 3.93944 6.19448 3.99749C6.32872 4.1159 6.43343 4.26403 6.50028 4.43008C6.56712 4.59612 6.59424 4.77549 6.57948 4.95388C6.46948 7.15082 7.14781 9.24998 7.4167 11.3889Z" fill="#45A148"/>
<path d="M14.3375 7.57248C15.6484 8.45248 15.355 8.9872 14.6736 9.59831C13.8486 10.3378 13.6042 9.44859 13.2559 9.11553C10.6403 6.59776 10.6434 6.57637 13.2559 4.06166C13.6195 3.71027 13.867 2.90972 14.692 3.61555C15.4222 4.24805 15.5384 4.78277 14.4048 5.63221C16.5772 5.63221 18.3281 5.66888 20.0728 5.61693C20.8978 5.59249 21.24 5.78804 21.2308 6.6986C21.2308 7.66109 20.69 7.58776 20.0453 7.57859C18.3311 7.56026 16.6139 7.57248 14.3375 7.57248Z" fill="#49A248"/>
<path d="M20.308 19.6388C20.308 18.6977 19.8619 18.435 18.9269 18.383C16.95 18.2638 14.9486 18.1111 13.2222 16.9225C13.7692 16.3297 14.3131 15.7308 14.8722 15.1502C15.1961 14.8111 15.5872 14.5208 16.0761 14.6889C17.0478 15.0219 18.0592 15.0433 19.0644 15.1625C19.9811 15.2725 20.5678 15.7736 20.4822 16.7911C20.4058 17.7383 20.7297 18.7222 20.308 19.6388Z" fill="#90C592"/>
<path d="M7.41667 11.3889C6.14251 9.10637 6.17918 6.59777 6.14862 4.09528C6.87454 3.85288 7.65735 3.83901 8.39139 4.05555C9.61361 5.66277 9.54028 8.73665 8.26 10.0567C7.89028 10.4325 7.35556 10.7258 7.41667 11.3889Z" fill="#8FC692"/>
<path d="M8.39141 4.05554L6.14252 4.09526H4.11975C5.53753 3.44443 6.96447 3.7011 8.39141 4.05554Z" fill="#809E7A"/>
</svg>
