<svg width="24" height="24" viewBox="0 0 24 24" fill="none" xmlns="http://www.w3.org/2000/svg">
<path d="M7.41669 11.3675C8.81613 13.7814 10.6831 15.7033 13.2222 16.9225C15.5047 17.613 17.9156 17.723 20.1919 18.4502C20.4975 19.7764 20.1278 20.305 18.6 20.2836C10.7503 20.1889 3.81114 13.0939 3.90587 5.22277C3.9242 3.58194 4.88364 3.76221 5.91336 3.81721C6.47253 4.05249 6.61919 4.55666 6.59169 5.07304C6.47253 7.22415 7.16003 9.26526 7.41669 11.3675Z" fill="#D4302F"/>
<path d="M20.2225 4.27555C19.9754 4.59948 19.7004 4.90109 19.4005 5.17693C18.05 6.11193 17.9217 7.01026 19.3761 7.98499C20.1614 8.50443 19.8864 8.94443 19.3303 9.51276C18.5786 10.2828 18.2211 9.59526 17.9125 9.17665C17.0417 7.99415 16.2778 7.93304 15.4008 9.17665C15.0281 9.70526 14.6217 10.1819 13.8731 9.41804C13.1917 8.72443 13.3811 8.30276 14.0106 7.89026C15.3642 6.9736 15.1625 6.14249 13.9708 5.27471C13.4361 4.88666 13.1336 4.49555 13.815 3.85694C14.3956 3.30999 14.8203 3.24583 15.2572 3.89055C16.2411 5.36638 17.1425 5.14943 18.0806 3.8386C18.2853 3.55444 18.5481 3.10222 19.0614 3.48416C19.425 3.74999 19.8069 3.98833 20.2225 4.27555Z" fill="#D43230"/>
<path d="M20.1889 18.4441C17.7781 18.3464 15.3458 18.325 13.2192 16.9164L14.8539 15.1564C15.0471 14.9227 15.3114 14.7586 15.6066 14.6891C15.9017 14.6196 16.2114 14.6485 16.4886 14.7714C16.8153 14.9 17.1541 14.9952 17.5 15.0555C20.3478 15.4619 20.3478 15.4558 20.1889 18.4441Z" fill="#E48283"/>
<path d="M7.41671 11.3675C6.47866 9.82138 6.3381 8.07666 6.17616 6.33805C6.09977 5.49472 6.31977 4.62389 5.91949 3.81722L7.75282 3.76833C8.13782 3.75305 8.58088 3.85694 8.66949 4.19C9.01906 5.554 9.2874 6.93754 9.4731 8.33332C9.56171 9.03305 8.82838 9.43027 8.4006 9.92221C8.02782 10.3561 7.38921 10.6433 7.41671 11.3675Z" fill="#E48283"/>
</svg>
