<svg width="24" height="24" viewBox="0 0 24 24" fill="none" xmlns="http://www.w3.org/2000/svg">
<path d="M11.7555 14.4444C11.2178 13.873 10.6953 14.0044 10.1972 14.4903C9.69916 14.9761 9.50055 15.4375 9.86722 16.1005C10.2339 16.7636 10.4264 17.4083 10.7778 18.0286C11.1689 18.7589 11.0528 19.1775 10.2675 19.5564C9.33555 20.0147 9.16749 19.4464 8.92611 18.8047C8.7507 18.2719 8.51814 17.7597 8.2325 17.2769C7.36166 15.9386 7.34333 14.7011 8.38222 13.4208C8.99333 12.66 9.07277 11.9755 7.91777 11.4469C7.4358 11.2055 7.01489 10.8579 6.68674 10.4303C6.3586 10.0026 6.13176 9.50608 6.02333 8.97805C5.7575 7.86583 5.20139 7.19972 4.04334 7.04389C3.01056 6.90333 2.76917 6.22806 2.90973 5.29306C3.05945 4.28473 3.82639 4.77973 4.34889 4.68195C4.7023 4.6437 5.05881 4.6437 5.41222 4.68195C6.37472 4.70334 7.52666 4.41306 8.25388 4.84084C9.10638 5.345 8.43416 6.61917 8.64805 7.5175C8.86194 8.41583 9.06666 9.525 10.4814 8.95055C13.8267 8.67708 17.1888 8.67708 20.5341 8.95055C21.573 9.98333 21.4172 11.1903 20.7847 12.2658C19.9339 13.6395 19.5086 15.2342 19.5625 16.8491C19.6144 18.4136 18.5358 19.6633 17.7291 20.9161C17.335 21.5272 16.4611 21.1086 15.5903 21.1697C16.183 20.0605 16.6139 19.153 17.1394 18.3036C17.665 17.4541 17.5336 16.7392 17.173 15.8103C16.5833 14.2886 15.6269 13.8486 14.1389 14.1389C13.3322 14.1053 12.5622 14.4444 11.7555 14.4444Z" fill="#A28980"/>
<path d="M20.531 8.96277C20.3599 9.28666 20.0513 9.29277 19.7488 9.29277H11.2574C10.9519 9.29277 10.6463 9.29277 10.4783 8.95666L11.7188 7.42889C13.9158 6.51222 16.1738 7.16305 18.2944 7.0225C17.9613 6.61 17.0385 6.26778 17.4785 5.26556C17.5017 4.85848 17.5017 4.45041 17.4785 4.04334C17.4021 3.25806 17.5671 2.85167 18.5174 2.86084C19.5196 2.86084 19.5502 3.39862 19.5227 4.12278C19.4952 4.84695 19.5777 5.65056 19.4983 6.40528C19.4244 6.88505 19.4814 7.37586 19.6631 7.82597C19.8449 8.27608 20.1447 8.66881 20.531 8.96277Z" fill="#64554F"/>
<path d="M17.4786 5.27778C17.5366 6.17 18.4869 6.5 18.8444 7.44111H11.7189C13.485 4.55056 14.368 4.22056 17.4786 5.27778Z" fill="#A28981"/>
<path d="M11.7555 14.4444C12.4889 13.8333 13.2528 13.4697 14.145 14.1389C13.2528 15.2083 13.9464 15.5994 14.8661 16.0364C15.4192 16.3022 16.5375 16.3114 15.8897 17.5397C15.5016 18.2761 15.138 18.4991 14.3864 18.0255C13.7508 17.6222 13.048 17.3197 12.3789 16.9714C10.8511 16.1861 10.8053 15.9936 11.7555 14.4444Z" fill="#86726B"/>
</svg>
