<svg width="24" height="24" viewBox="0 0 24 24" fill="none" xmlns="http://www.w3.org/2000/svg">
<path d="M3.81417 5.00582C4.3825 4.3336 5.13416 4.79193 5.79416 4.70026C6.93999 4.52915 6.66805 5.42749 6.85138 6.07832C7.09583 6.93082 7.71305 6.47248 7.98499 6.11498C9.81832 3.68888 12.3972 5.10054 14.6308 4.77665C14.7319 4.77841 14.8313 4.80328 14.9213 4.84936C15.0114 4.89543 15.0897 4.96149 15.1503 5.04249C16.235 6.80554 17.9766 6.49998 19.6389 6.49998C21.573 6.49998 22.0833 7.00109 22.0833 8.91387C22.0833 11.7586 22.0527 14.6064 22.0833 17.448C22.1047 18.8138 21.5272 19.3547 20.1766 19.3455C14.7928 19.315 9.40888 19.3109 4.025 19.3333C2.59194 19.3333 1.98695 18.6794 1.99 17.3136C1.99 14.5177 1.99 11.7219 1.99 8.92915C1.99 7.72831 2.29556 6.68943 3.72861 6.48471C4.27555 5.8736 5.21666 6.35332 5.88583 5.70554C5.27777 5.15249 4.36111 5.58332 3.81417 5.00582Z" fill="#8799A1"/>
<path d="M3.81417 5.00582L5.46722 4.98749C5.98055 4.97221 6.49999 4.95388 6.49999 5.71471C6.49999 6.42665 6.10888 6.53971 5.5375 6.52443C4.96611 6.50915 4.33361 6.49998 3.75 6.49998C3.75 6.00804 3.78972 5.50693 3.81417 5.00582Z" fill="#556F7A"/>
<path d="M17.4999 13.0816C17.4663 16.1983 15.1196 18.435 11.9052 18.4166C9.05438 18.3922 6.54578 15.8897 6.54578 13.0664C6.54578 10.1911 9.34466 7.28221 12.0947 7.50221C15.4099 7.75887 17.5916 9.99859 17.4999 13.0816Z" fill="#556E7A"/>
<path d="M9.29886 15.3611C7.99109 13.5522 8.07664 11.7433 9.52192 10.3408C10.9183 8.99331 12.6905 8.94748 14.4108 10.2186C14.7744 10.6433 14.5025 10.9977 14.2336 11.288C12.993 12.6325 11.7015 13.925 10.3591 15.1655C10.0811 15.4252 9.7297 15.6941 9.29886 15.3611Z" fill="#ABDEE8"/>
<path d="M9.29883 15.3611C11.342 14.0123 13.087 12.259 14.426 10.2094C16.1402 11.8778 16.2288 14.1144 14.643 15.6575C13.1244 17.1333 10.9274 17.008 9.29883 15.3611Z" fill="#8AD4E1"/>
</svg>
