<svg width="24" height="24" viewBox="0 0 24 24" fill="none" xmlns="http://www.w3.org/2000/svg">
<path d="M12.0581 21.188C6.98891 21.625 2.77836 16.5283 2.86697 12.2475C2.97392 6.99193 6.90947 3.00444 12.0336 2.85472C16.5192 2.72333 21.3194 6.99193 21.2981 12.1497C21.2706 16.8491 16.8064 21.6586 12.0581 21.188Z" fill="#F37E75"/>
<path d="M12.0702 19.3333C8.09802 19.3333 4.61164 16.015 4.73692 12.1497C4.89581 7.73443 7.9483 4.81638 12.2138 4.75832C16.1555 4.69416 19.3333 8.1561 19.3333 12.1528C19.3379 13.104 19.1525 14.0465 18.7881 14.9252C18.4237 15.8039 17.8876 16.601 17.2111 17.2697C16.5347 17.9385 15.7315 18.4655 14.8487 18.8199C13.966 19.1742 13.0213 19.3488 12.0702 19.3333Z" fill="#EF4638"/>
<path d="M17.3228 9.08498C16.8339 9.62886 16.672 9.82442 16.4947 10.0016C14.3558 12.1558 12.1772 14.2947 10.0475 16.4702C9.55558 16.9714 9.20113 17.0814 8.72141 16.4977C8.39924 16.1047 8.04009 15.7435 7.64892 15.4191C7.15392 15.0066 7.12031 14.6919 7.61225 14.1969C9.82447 12.0397 12.0143 9.85599 14.1817 7.64581C14.6247 7.19359 14.9058 7.12026 15.4039 7.60914C16.011 8.14198 16.652 8.63496 17.3228 9.08498Z" fill="#FFFCFB"/>
</svg>
