<svg width="24" height="24" viewBox="0 0 24 24" fill="none" xmlns="http://www.w3.org/2000/svg">
<path d="M16.8889 10.5608C16.2778 11.2727 16.9286 12.0672 16.7117 12.8677C15.9722 15.5658 14.0778 16.9683 11.2331 16.6475C11.1109 16.6367 10.9879 16.6531 10.8727 16.6953C10.7576 16.7376 10.6532 16.8047 10.567 16.8919C9.11864 16.1494 7.67337 15.4038 7.46865 13.5308C7.49004 12.3758 7.34337 11.2055 7.8842 10.1055C9.06365 7.70998 11.1598 7.31887 13.5186 7.47776C15.4009 7.67026 16.1464 9.11553 16.8889 10.5608Z" fill="#E04980"/>
<path d="M16.8889 10.5608C15.7431 9.55247 15.0556 8.06442 13.5278 7.46553C13.8701 6.19137 14.2612 4.92637 15.0067 3.82638C15.9234 2.47277 17.3381 2.55527 17.9064 4.07082C18.0842 4.59185 18.3807 5.06437 18.7726 5.45099C19.1646 5.8376 19.6411 6.12769 20.1645 6.29831C21.5395 6.83915 21.6311 8.30581 20.3967 9.14608C19.3322 9.84437 18.14 10.3252 16.8889 10.5608Z" fill="#D81F61"/>
<path d="M7.46867 13.5277C8.06451 15.0555 9.55867 15.7552 10.567 16.8888C10.3084 18.0785 9.86393 19.22 9.25006 20.2713C9.10459 20.568 8.87323 20.8141 8.58606 20.9776C8.29888 21.1411 7.96917 21.2144 7.63978 21.188C7.30647 21.1857 6.98438 21.0673 6.72896 20.8531C6.47353 20.639 6.30075 20.3425 6.24034 20.0147C5.93479 18.8658 5.15563 18.3158 4.08313 17.8758C2.57063 17.2647 2.48202 15.8897 3.83868 14.97C4.92951 14.2519 6.19451 13.8608 7.46867 13.5277Z" fill="#D81F61"/>
</svg>
