<svg width="24" height="24" viewBox="0 0 24 24" fill="none" xmlns="http://www.w3.org/2000/svg">
<path d="M15.7248 5.25334C15.7584 5.29306 15.8195 5.33584 15.8164 5.3725C15.6148 7.33417 16.7056 7.59389 18.3373 7.46861C19.5595 7.37695 20.2714 8.07972 20.25 9.44555C20.2093 11.8717 20.2093 14.2988 20.25 16.7269C20.25 17.5458 19.975 18.2333 19.2234 18.3586C18.1142 18.548 17.6956 19.1989 17.5153 20.1614C16.9959 19.6114 17.0631 19.0033 17.3351 18.3769C18.4167 17.3289 17.8759 16.0119 17.8789 14.8019C17.8789 14.2886 17.3381 14.2886 16.9317 14.2855C13.647 14.2611 10.3592 14.2855 7.07452 14.2855C6.39924 14.2855 5.97757 14.5269 6.05396 15.2511C6.15785 16.2717 5.65674 17.39 6.51535 18.2883C6.56104 18.36 6.58532 18.4432 6.58532 18.5282C6.58532 18.6132 6.56104 18.6964 6.51535 18.768C4.25424 18.4625 3.98841 18.1569 3.9823 15.8958C3.9823 13.8272 3.9823 11.7586 3.9823 9.69C3.99758 7.90556 4.44063 7.47167 6.22813 7.44417C6.93396 7.44417 7.63979 7.44417 8.34563 7.44417C8.95674 7.01028 9.56784 6.65889 9.96507 5.91639C10.5303 4.89278 12.5378 4.87139 13.8884 5.73306C13.2773 6.83611 11.9542 5.89195 11.0987 6.75056C12.0337 7.20278 12.932 6.93695 13.8089 7.01334C15.3031 7.36167 15.1106 5.86139 15.7248 5.25334Z" fill="#78909C"/>
<path d="M17.5947 18.4166C17.5672 19.0033 17.5428 19.5869 17.5184 20.1705C14.1267 20.195 10.735 20.2011 7.34643 20.2591C6.0356 20.2836 6.70782 19.3058 6.50921 18.768C6.50921 18.6519 6.50921 18.5389 6.50921 18.4227C5.81866 17.5061 6.03866 16.4886 6.13643 15.4955C6.22199 14.6369 6.87588 14.3314 7.66421 14.3191C10.5486 14.2794 13.4361 14.2855 16.3206 14.3191C17.3564 14.3191 17.9339 14.863 17.937 15.9111C17.9247 16.7452 18.1111 17.6283 17.5947 18.4166Z" fill="#67BB6A"/>
<path d="M15.7247 5.25333C15.6862 5.39995 15.6667 5.55091 15.6666 5.7025C15.8805 7.16305 15.303 7.76499 13.8333 7.42277C13.6382 7.21768 13.5274 6.9467 13.5228 6.66366C13.5183 6.38061 13.6204 6.10623 13.8089 5.895C12.8494 5.28389 11.7861 5.7025 10.7747 5.61694C10.6987 5.60523 10.6211 5.61116 10.5477 5.63428C10.4744 5.65739 10.4074 5.69708 10.3518 5.75025C10.2963 5.80342 10.2537 5.86866 10.2275 5.94092C10.2012 6.01318 10.1919 6.09051 10.2003 6.16694C10.3683 7.78333 9.24999 7.45333 8.33333 7.41666C8.17444 3.52695 8.94444 3.94556 12 3.90889C12.8067 3.90889 13.6164 3.93028 14.42 3.98528C15.2236 4.04028 15.5566 4.56278 15.7247 5.25333Z" fill="#4A5A62"/>
<path d="M17.5948 18.4166C17.5835 18.3673 17.5753 18.3173 17.5704 18.2669C17.3962 14.7958 17.3962 14.7958 13.9312 14.7958C11.9115 14.7958 9.88871 14.8539 7.87205 14.7714C6.78122 14.7255 6.44205 15.1136 6.53372 16.1555C6.56349 16.9093 6.55227 17.6641 6.50011 18.4166C6.10289 18.38 5.64761 18.435 5.62317 17.8361C5.62317 17.7353 5.62317 17.6344 5.60789 17.5305C5.23817 13.8486 5.23817 13.8486 8.88038 13.8486C11.667 13.8486 14.4537 13.8791 17.2373 13.8303C18.1754 13.815 18.5145 14.1358 18.4595 15.0525C18.4148 15.8667 18.4148 16.6827 18.4595 17.4969C18.4748 18.1111 18.2609 18.4594 17.5948 18.4166Z" fill="#495963"/>
<path d="M13.809 5.88889C13.809 6.39916 13.809 6.90638 13.8334 7.41666C12.9809 7.41666 12.1315 7.41666 11.279 7.41666C10.7351 7.43194 10.454 7.25777 10.454 6.65277C10.454 6.04777 10.6893 5.84916 11.2576 5.8675C12.107 5.91027 12.9595 5.88889 13.809 5.88889Z" fill="#FEFEFE"/>
<path d="M11.7709 19.3669C10.9337 19.4219 10.2829 18.6733 10.2431 17.5519C10.2167 17.3092 10.2442 17.0636 10.3236 16.8328C10.4031 16.6019 10.5325 16.3914 10.7026 16.2163C10.8728 16.0412 11.0795 15.9058 11.308 15.8197C11.5365 15.7337 11.7811 15.6992 12.0245 15.7186C13.0634 15.7186 13.8242 16.2808 13.8578 17.4939C13.8915 18.658 13.4209 19.3333 11.7709 19.3669Z" fill="#398F44"/>
</svg>
