<svg width="24" height="24" viewBox="0 0 24 24" fill="none" xmlns="http://www.w3.org/2000/svg">
<path d="M11.3888 12.9166C11.9449 12.7669 12.3483 12.5897 12.7058 13.4177C13.5308 15.3244 14.5391 17.1608 15.5383 18.9758C15.8438 19.5472 15.6146 19.6602 15.2113 19.8405C14.1022 20.3386 12.9349 20.2775 11.7677 20.2225C11.0038 20.1858 11.0955 19.6113 11.0924 19.1072C11.0924 17.6314 11.0924 16.1586 11.0924 14.6858C11.0924 14.0166 11.3277 13.1886 10.1422 13.213C9.05439 13.2375 9.28661 14.0014 9.27744 14.6186C9.21256 15.8838 9.2146 17.1516 9.28355 18.4166C9.42105 19.8894 8.91994 20.5097 7.43495 20.2194C6.96745 19.703 6.98884 19.0675 6.998 18.435C7.00717 17.8025 6.97661 17.2127 6.998 16.5802C7.01939 15.9477 6.97967 15.3397 6.998 14.7225C7.01634 14.1052 6.96134 13.4514 7.41661 12.9166H9.22244C9.52554 12.6611 9.90921 12.521 10.3056 12.521C10.7021 12.521 11.0857 12.6611 11.3888 12.9166Z" fill="#D0D9DC"/>
<path d="M21.1665 13.5705C19.7701 11.8808 17.7504 11.2544 16.0974 10.0903C15.5199 9.68693 14.8965 9.35082 14.319 8.94443C14.16 8.85726 14.0337 8.72062 13.9592 8.55521C13.8848 8.3898 13.8663 8.20463 13.9065 8.02777C13.945 7.85164 14.0454 7.69519 14.1896 7.58693C14.3337 7.47868 14.512 7.42584 14.6918 7.43805C16.6107 7.42582 18.5316 7.42582 20.4546 7.43805C21.2062 7.43805 21.1635 8.00943 21.1635 8.51971C21.1665 10.185 21.1665 11.8441 21.1665 13.5705Z" fill="#D0D9DD"/>
<path d="M13.8333 10.9153C15.9721 12.22 17.778 13.3352 19.5991 14.4047C20.3935 14.8722 20.7327 15.3214 20.0177 16.1647C19.3424 16.9744 18.7619 18.215 17.7657 18.2211C16.7177 18.2211 16.4396 16.8461 15.9905 15.963C15.2082 14.4444 14.3649 12.9655 13.8333 10.9153Z" fill="#D0D9DD"/>
<path d="M17.4999 5.59861C16.788 5.59861 16.076 5.63833 15.361 5.59861C14.7499 5.55277 13.8333 5.96833 13.8119 4.75528C13.7935 3.73778 14.313 3.00445 15.2388 2.92195C16.7539 2.79972 18.2765 2.79972 19.7916 2.92195C20.8091 2.98611 21.2032 3.67361 21.1513 4.72778C21.0902 5.9225 20.253 5.57722 19.6235 5.61083C18.9269 5.62916 18.218 5.59861 17.4999 5.59861Z" fill="#D0D9DD"/>
<path d="M7.43802 14.75V16.5833C6.34719 17.2097 5.19831 17.1394 4.03109 16.8889C3.73457 16.8621 3.45684 16.7322 3.24632 16.5217C3.0358 16.3112 2.90586 16.0334 2.87915 15.7369C2.75693 14.8478 3.66442 14.8875 4.05553 14.4444C5.21053 14.1755 6.35331 14.1144 7.43802 14.75Z" fill="#F8BBA8"/>
<path d="M4.03109 16.8889C5.11886 16.3083 6.2983 16.6658 7.43191 16.565C7.43191 17.1761 7.43191 17.7872 7.43191 18.3983C6.41441 19.0675 5.39692 18.9727 4.37636 18.3983C3.63386 18.05 3.70414 17.5 4.03109 16.8889Z" fill="#F8AC94"/>
<path d="M7.43798 14.75C6.30742 14.6491 5.13715 14.9914 4.04632 14.4444C3.36187 13.2833 4.18687 13.0358 5.0302 12.9411C5.82453 12.8871 6.62132 12.8789 7.41659 12.9166L7.43798 14.75Z" fill="#F5AB94"/>
<path d="M4.3855 18.4166H7.44105V20.2316C7.33937 20.2233 7.23717 20.2233 7.13549 20.2316C5.64133 20.4944 4.5505 20.143 4.3855 18.4166Z" fill="#F8BBA8"/>
<path d="M11.3889 12.9166H9.22559C9.31114 12.2628 8.99031 11.3094 9.96197 11.1872C11.1536 11.0222 11.0834 12.1864 11.3889 12.9166Z" fill="#EFAE98"/>
</svg>
