<svg width="24" height="24" viewBox="0 0 24 24" fill="none" xmlns="http://www.w3.org/2000/svg">
<path d="M11.8013 20.2499C8.56552 20.4149 6.15164 19.3333 4.51081 16.7238C3.99137 15.8988 3.53914 14.9425 3.77748 13.9739C4.30914 11.835 3.2947 9.91914 3.04109 7.89942C2.9097 6.8697 2.36887 5.57109 3.30387 4.95082C4.23887 4.33054 5.39081 5.17693 6.15775 5.85221C7.65497 7.1722 9.14302 8.0797 11.2575 7.47165C12.0055 7.31022 12.7832 7.35243 13.5094 7.59387C14.2825 7.82303 14.7316 7.55109 15.2724 7.10498C16.403 6.18832 17.4297 5.09748 18.9788 4.83471C19.6358 4.72165 19.9719 4.8561 19.9505 5.55582C19.9199 6.5672 20.0116 7.60915 19.813 8.58998C19.4738 10.2583 19.0186 11.8075 19.5074 13.6072C20.0605 15.578 17.888 18.545 15.578 19.5747C14.4028 20.1355 13.0981 20.3688 11.8013 20.2499Z" fill="#90A4AE"/>
<path d="M12.8585 15.6666C12.168 16.6566 11.6944 17.5 13.3383 17.5488C13.4017 17.5423 13.4657 17.5499 13.5259 17.5709C13.5861 17.592 13.6408 17.6261 13.6863 17.6707C13.7318 17.7153 13.767 17.7694 13.7892 17.8292C13.8114 17.8889 13.8202 17.9528 13.8149 18.0163C13.7905 18.4197 13.4452 18.5144 13.1519 18.4441C12.113 18.1997 11.0894 18.3402 10.0535 18.4441C9.76327 18.4777 9.40883 18.4594 9.35077 18.0591C9.29272 17.6588 9.57994 17.5397 9.90994 17.5275C11.3308 17.4847 11.2452 16.7941 10.466 15.908C11.2849 15.523 11.9694 15.7736 12.8585 15.6666Z" fill="#53636A"/>
<path d="M9.28357 13.3475C9.26829 14.1755 8.90468 14.6858 8.06135 14.7622C7.10496 14.8447 6.6283 14.2641 6.60385 13.4361C6.59265 13.2589 6.61867 13.0814 6.68024 12.9149C6.74181 12.7484 6.83756 12.5967 6.96133 12.4695C7.08511 12.3422 7.23416 12.2423 7.39888 12.1762C7.5636 12.1101 7.74035 12.0792 7.91774 12.0855C8.65718 12.0733 9.24996 12.4797 9.28357 13.3475Z" fill="#526269"/>
<path d="M15.193 12.0336C15.9386 12.1955 16.5803 12.4491 16.5986 13.3383C16.6169 14.2275 16.1647 14.75 15.248 14.7652C14.3314 14.7805 13.9494 14.2091 13.9128 13.4575C13.87 12.6477 14.4781 12.2505 15.193 12.0336Z" fill="#526269"/>
</svg>
