<svg width="24" height="24" viewBox="0 0 24 24" fill="none" xmlns="http://www.w3.org/2000/svg">
<path d="M1.09558 21.1215V2.87498C1.2778 2.66825 1.50347 2.50436 1.75644 2.39504C2.00941 2.28572 2.28341 2.23367 2.55885 2.24263C5.05566 2.19986 7.55248 2.19986 10.0493 2.24263C10.5554 2.21271 11.0528 2.384 11.4331 2.71919C11.8089 3.19574 11.7386 3.76699 11.7386 4.31075C11.7508 9.29217 11.7508 14.2736 11.7386 19.255C11.7386 19.9637 11.7386 20.6724 11.2346 21.259C9.62162 22.096 2.36028 21.9952 1.09558 21.1215Z" fill="#B19AC9"/>
<path d="M22.9071 2.87498V21.1215C22.7227 21.3298 22.4945 21.4948 22.2389 21.6046C21.9833 21.7145 21.7066 21.7665 21.4286 21.7569C19.0122 21.7966 16.5928 21.8027 14.1764 21.7569C13.6669 21.7883 13.1656 21.6182 12.7803 21.2834C12.2854 20.703 12.2641 19.9973 12.261 19.2855C12.2406 14.4528 12.2406 9.62005 12.261 4.78731C12.261 4.08164 12.261 3.36986 12.7437 2.77417C13.1988 2.2854 13.8006 2.24874 14.4024 2.2243C16.6508 2.19681 18.8961 2.2243 21.1445 2.2243C21.8104 2.2243 22.4428 2.31595 22.9071 2.87498Z" fill="#B19AC9"/>
<path d="M12.9178 21.1215H22.9071C23.237 22.6489 22.678 23.0247 21.1078 22.9941C15.0368 22.878 8.96483 22.879 2.89183 22.9972C1.3247 23.0277 0.753444 22.6581 1.09558 21.1246L11.1185 21.094C11.7233 20.5533 12.3221 20.5747 12.9178 21.1215Z" fill="#FDFCFD"/>
<path d="M2.95291 8.36146C2.95291 4.75065 2.95291 4.73537 6.53623 4.75676C9.68882 4.77203 9.26725 4.3749 9.30085 7.46028C9.30085 8.62417 9.27947 9.78806 9.30085 10.9489C9.31918 11.7187 9.0137 12.0486 8.23472 12.0334C6.87532 12.0028 5.51286 11.9875 4.15652 12.0334C3.24007 12.067 2.88571 11.6851 2.93458 10.7809C2.99263 9.98052 2.95597 9.17099 2.95291 8.36146Z" fill="#785DA8"/>
<path d="M12.9178 21.1215L11.1277 21.0909C11.1277 15.6798 11.1277 10.2677 11.1277 4.85451C11.1277 4.20383 11.0177 3.52872 11.4332 2.93913H12.8689C12.8812 9.00603 12.8974 15.0668 12.9178 21.1215Z" fill="#785DA8"/>
<path d="M6.03217 19.313H3.77465C3.21562 19.313 2.97429 19.0076 2.95901 18.4668C2.93763 17.8559 3.16369 17.5076 3.81437 17.5107C5.37029 17.5107 6.9252 17.5107 8.47909 17.5107C9.04424 17.5107 9.27946 17.7948 9.29473 18.3538C9.29473 18.9648 9.09617 19.3161 8.44244 19.31C7.63902 19.3069 6.83559 19.313 6.03217 19.313Z" fill="#795EA8"/>
<path d="M6.0139 15.6656C5.30823 15.6656 4.60257 15.6656 3.8969 15.6656C3.39285 15.6656 2.98045 15.5464 2.98045 14.9294C2.96212 14.3581 3.11181 13.8907 3.77776 13.8846C5.39071 13.8622 7.00468 13.8622 8.61967 13.8846C9.23064 13.8846 9.30701 14.3612 9.29784 14.853C9.28868 15.3448 9.10233 15.6411 8.59523 15.6472C7.73988 15.6472 6.88147 15.6472 6.02306 15.6472L6.0139 15.6656Z" fill="#795EA8"/>
<path d="M21.1139 8.43783C21.1139 12.0273 21.1139 12.0456 17.5611 12.0212C14.3383 12.0028 14.8118 12.4458 14.7598 9.20765C14.7598 8.14457 14.7873 7.06927 14.7598 6.01841C14.7293 5.12334 15.0653 4.71705 15.9818 4.74454C17.1896 4.8087 18.4 4.8087 19.6078 4.74454C20.8298 4.64679 21.23 5.16611 21.1353 6.32695C21.0589 7.01428 21.1139 7.723 21.1139 8.43783Z" fill="#785DA8"/>
<path d="M17.9858 15.6656H15.5786C15.0195 15.6656 14.7752 15.3784 14.7629 14.8194C14.7629 14.2084 14.9707 13.8632 15.6213 13.8663C17.1763 13.8663 18.7312 13.8663 20.2861 13.8663C20.8451 13.8663 21.0895 14.1504 21.1048 14.7094C21.1048 15.3204 20.8909 15.6656 20.2433 15.6594C19.4918 15.6656 18.7373 15.6656 17.9858 15.6656Z" fill="#795EA8"/>
<path d="M18.0438 17.4985C18.7464 17.4985 19.4521 17.4985 20.1547 17.4985C20.7657 17.4985 21.1017 17.7001 21.1048 18.3691C21.1048 18.9801 20.8757 19.313 20.2311 19.31C18.6731 19.31 17.1182 19.31 15.5603 19.31C14.989 19.31 14.7721 19.0045 14.7599 18.4485C14.7599 17.8375 14.989 17.4985 15.6336 17.5046C16.437 17.5137 17.2404 17.4985 18.0438 17.4985Z" fill="#795DA8"/>
</svg>
