<svg width="24" height="24" viewBox="0 0 24 24" fill="none" xmlns="http://www.w3.org/2000/svg">
<path d="M11.7372 19.0644C10.515 18.2883 9.17364 18.7252 7.90558 18.7375C3.12059 18.7772 2.66226 18.5602 2.83337 13.6561C2.91281 11.4775 2.83337 9.29276 2.8517 7.11109C2.8517 5.5436 3.69503 4.70943 5.29614 4.70332C9.76132 4.6911 14.2255 4.6911 18.6886 4.70332C20.6503 4.70332 21.1606 5.25637 21.1636 7.26081C21.1636 9.9497 21.1636 12.6386 21.1636 15.3275C21.1667 18.1111 20.58 18.6886 17.8239 18.7222C17.0264 18.383 17.1303 17.6711 17.1211 17.008C17.1913 16.5632 17.3436 16.1352 17.5703 15.7461C18.9025 12.9258 17.5703 10.735 14.4139 10.5853C14.1633 10.5853 13.9128 10.5853 13.6622 10.5853C11.5875 10.7778 9.43641 10.1911 7.11114 11.1078C8.63891 11.9694 10.1117 11.2116 11.34 11.8533C11.4455 11.9271 11.5285 12.0287 11.5797 12.1469C11.631 12.265 11.6485 12.395 11.6303 12.5225C11.2025 14.1358 11.9084 15.4925 12.547 16.8705C12.4553 17.665 12.7028 18.5939 11.7372 19.0644Z" fill="#BBC5CA"/>
<path d="M17.2739 16.7941L17.8239 18.7222L18.4809 22.0833C17.371 21.715 16.3147 21.2013 15.3398 20.5555C13.864 19.923 14.3253 18.7497 14.5301 17.6466C15.3153 16.9439 16.2778 16.8033 17.2739 16.7941Z" fill="#D43531"/>
<path d="M14.75 17.5886C14.8814 18.5877 14.3528 19.7275 15.3611 20.5463C13.7936 20.3905 12.773 21.7686 11.2208 22.0344C11.4072 21.0016 11.5814 20.033 11.7586 19.0644L12.3697 16.8125C12.7997 16.7273 13.2444 16.7539 13.6612 16.8898C14.0779 17.0257 14.4528 17.2663 14.75 17.5886Z" fill="#E54037"/>
<path d="M12.1559 8.36997C10.2278 8.36997 8.29978 8.36997 6.37173 8.36997C5.69034 8.36997 4.89284 8.38831 4.85923 7.51442C4.82562 6.64053 5.5834 6.55498 6.28617 6.55498H17.8545C18.5542 6.55498 19.2937 6.66498 19.2814 7.53275C19.2631 8.48303 18.432 8.36081 17.7873 8.36386C15.9081 8.37609 14.032 8.36997 12.1559 8.36997Z" fill="#56707C"/>
<path d="M14.7499 17.5886C13.873 17.5886 13.1366 17.1272 12.3574 16.8125C11.1077 15.4253 10.7655 13.8669 11.4683 12.11C11.6974 10.8328 12.6905 10.5058 13.7538 10.2767C15.6299 9.9711 17.1944 10.4722 18.111 12.223C19.0033 13.925 18.4991 15.4436 17.2708 16.8064C16.5164 17.2896 15.6454 17.5599 14.7499 17.5886Z" fill="#FAB31B"/>
<path d="M13.7478 10.2797C12.8604 10.7153 12.08 11.3413 11.4623 12.113C10.3011 12.0886 9.14309 12.0519 7.98504 12.0489C7.3281 12.0489 6.6681 11.9633 6.67115 11.1658C6.67421 10.3683 7.3831 10.2491 7.99726 10.2491C9.91309 10.2369 11.832 10.2675 13.7478 10.2797Z" fill="#58717C"/>
<path d="M17.4999 14.0441C17.4724 15.6147 16.4855 16.5741 14.9027 16.5741C13.3199 16.5741 11.9999 15.3305 12.0244 13.8333C12.0244 12.5714 13.5735 11.065 14.8233 11.1016C15.568 11.1381 16.2679 11.4682 16.7696 12.0198C17.2714 12.5713 17.534 13.2993 17.4999 14.0441Z" fill="#FFCF4E"/>
</svg>
