<svg width="24" height="24" viewBox="0 0 24 24" fill="none" xmlns="http://www.w3.org/2000/svg">
<path d="M21.1667 9.24998C21.1667 12.1955 21.1422 15.138 21.1667 18.0836C21.1667 18.9819 20.9222 19.3363 19.9658 19.3302C14.637 19.2936 9.30707 19.2936 3.97615 19.3302C3.11143 19.3333 2.83337 19.0277 2.83337 18.1752C2.88532 15.1808 2.88226 12.1864 2.9006 9.19192C3.4506 8.72136 4.12282 8.77637 4.77365 8.77331C9.61364 8.75905 14.4526 8.76822 19.2906 8.80081C19.9445 8.80387 20.6167 8.77025 21.1667 9.24998Z" fill="#D6C8E3"/>
<path d="M21.1667 9.24998L2.90671 9.19192C2.88532 5.19526 2.4331 5.6536 6.3106 5.63832C10.6281 5.61999 14.9486 5.70249 19.2661 5.5986C20.8367 5.55887 21.405 6.05693 21.2003 7.5847C21.1573 8.1387 21.146 8.6947 21.1667 9.24998Z" fill="#9176B5"/>
<path d="M11.945 17.5152C10.5761 17.5152 9.19503 17.5305 7.83226 17.5152C7.41365 17.5152 6.85143 17.7383 6.62532 17.1669C6.39921 16.5955 6.72615 16.073 7.18448 15.7125C7.61576 15.3546 8.12196 15.0982 8.66565 14.9623C9.20934 14.8264 9.77663 14.8144 10.3256 14.9272C11.4899 15.2205 12.7088 15.2205 13.8731 14.9272C14.9456 14.6583 15.9753 15.0219 16.9072 15.5841C17.1511 15.7289 17.3397 15.9508 17.4432 16.2148C17.5467 16.4788 17.5591 16.7698 17.4786 17.0416C17.3442 17.6986 16.7789 17.5 16.3634 17.5C14.8906 17.5275 13.4178 17.5152 11.945 17.5152Z" fill="#9175B5"/>
<path d="M11.0833 12.498C11.0497 13.268 10.6586 13.7753 9.81222 13.8303C9.63536 13.8577 9.45457 13.8443 9.28368 13.7911C9.11279 13.7379 8.95634 13.6463 8.82629 13.5233C8.69624 13.4004 8.59605 13.2493 8.53339 13.0816C8.47072 12.914 8.44723 12.7342 8.46473 12.5561C8.45947 12.3772 8.49124 12.1992 8.55803 12.0332C8.62483 11.8672 8.72521 11.7168 8.85289 11.5914C8.98056 11.466 9.13276 11.3684 9.29995 11.3046C9.46714 11.2408 9.64571 11.2123 9.82444 11.2208C10.5364 11.2239 11.0589 11.6425 11.0833 12.498Z" fill="#9377B6"/>
<path d="M15.6423 12.8005C15.5689 13.3719 15.1381 13.8333 14.2948 13.8333C14.1317 13.8431 13.9684 13.8182 13.8157 13.7602C13.663 13.7023 13.5243 13.6126 13.4087 13.4971C13.2932 13.3816 13.2035 13.2429 13.1456 13.0902C13.0876 12.9374 13.0627 12.7741 13.0725 12.6111C13.0596 12.4202 13.0892 12.2289 13.1592 12.0509C13.2292 11.8728 13.3378 11.7126 13.4772 11.5816C13.6167 11.4506 13.7834 11.3523 13.9655 11.2936C14.1475 11.2349 14.3404 11.2173 14.53 11.2422C15.2023 11.2789 15.7125 11.7372 15.6423 12.8005Z" fill="#9277B6"/>
<path d="M14.75 7.29442C14.75 7.98498 14.4689 8.33636 13.8609 8.33942C13.3537 8.33942 12.9625 8.10414 12.9748 7.56025C12.9719 7.3096 13.0655 7.06743 13.2361 6.88377C13.4066 6.7001 13.6413 6.58896 13.8914 6.57331C14.4659 6.49998 14.6645 6.91248 14.75 7.29442Z" fill="#61479C"/>
<path d="M17.5 7.37386C17.5 7.98497 17.2189 8.33636 16.6109 8.34247C16.1037 8.34247 15.7125 8.10414 15.7248 7.56331C15.7204 7.31192 15.8133 7.06856 15.9841 6.88408C16.1549 6.69959 16.3904 6.58825 16.6414 6.57331C17.1945 6.51526 17.4328 6.89109 17.5 7.37386Z" fill="#61479C"/>
<path d="M20.25 7.44416C20.2011 8.08888 19.8864 8.36082 19.3333 8.36082C18.7803 8.36082 18.4411 8.05527 18.4625 7.52054C18.462 7.3929 18.4881 7.26655 18.5393 7.14959C18.5904 7.03264 18.6654 6.92765 18.7595 6.84136C18.8535 6.75506 18.9646 6.68937 19.0855 6.64847C19.2064 6.60758 19.3345 6.59239 19.4617 6.60388C19.5697 6.60364 19.6767 6.62562 19.7758 6.66845C19.875 6.71127 19.9644 6.77403 20.0383 6.85283C20.1122 6.93162 20.1692 7.02478 20.2056 7.1265C20.242 7.22822 20.2571 7.33635 20.25 7.44416Z" fill="#E6457F"/>
</svg>
