<svg width="24" height="24" viewBox="0 0 24 24" fill="none" xmlns="http://www.w3.org/2000/svg">
<path d="M13.9036 18.3953C10.567 18.4136 7.23335 18.3953 3.89669 18.4655C3.08086 18.4655 2.91891 18.16 2.86697 17.3991C2.72947 15.4436 3.89669 14.3986 5.40919 13.653C7.71918 12.5133 10.0078 12.7364 12.2047 14.0533C14.0472 14.53 14.7011 16.2014 13.9036 18.3953Z" fill="#3F83C4"/>
<path d="M13.9036 18.3953C14.0258 16.678 13.9036 15.0555 12.2047 14.0564C13.3245 13.3057 14.649 12.9196 15.9967 12.9508C17.3445 12.9819 18.6497 13.4289 19.7336 14.2305C20.0466 14.4849 20.3417 14.7605 20.6166 15.0555C21.4783 15.9416 21.3653 17.1028 21.1025 18.0683C20.8794 18.8903 19.865 18.4044 19.2203 18.4228C17.4511 18.4839 15.6667 18.4166 13.9036 18.3953Z" fill="#67BC6B"/>
<path d="M8.46476 11.2942C7.01032 11.2942 5.65976 9.9436 5.64143 8.45555C5.62858 8.08809 5.69046 7.72185 5.82332 7.37901C5.95619 7.03617 6.15727 6.72388 6.41439 6.46104C6.67151 6.19821 6.97931 5.99031 7.31915 5.84995C7.65898 5.70958 8.02377 5.63967 8.39143 5.64444C9.13166 5.65977 9.83916 5.95245 10.3739 6.46455C10.9086 6.97664 11.2316 7.67083 11.2789 8.40971C11.3217 9.81221 9.87948 11.285 8.46476 11.2942Z" fill="#4184C5"/>
<path d="M15.7461 11.2728C15.0046 11.2546 14.2989 10.9497 13.7775 10.422C13.2561 9.89434 12.9596 9.18508 12.9503 8.44332C12.9495 7.70498 13.2408 6.99629 13.7605 6.47193C14.2803 5.94756 14.9864 5.65009 15.7248 5.64444C16.0915 5.63872 16.4558 5.70644 16.796 5.84361C17.1362 5.98078 17.4455 6.18463 17.7058 6.44317C17.966 6.7017 18.1719 7.00968 18.3113 7.34899C18.4507 7.6883 18.5208 8.05206 18.5175 8.41888C18.5175 9.92832 17.1945 11.2911 15.7461 11.2728Z" fill="#69BC6C"/>
</svg>
