<svg width="24" height="24" viewBox="0 0 24 24" fill="none" xmlns="http://www.w3.org/2000/svg">
<path d="M1.02139 22.9786C1.02139 15.9722 1.03361 8.94443 1 1.935C1 1.17417 1.17111 1 1.935 1C8.64499 1.03463 15.355 1.03463 22.065 1C22.8258 1 23 1.17111 23 1.935C22.9674 8.64499 22.9674 15.355 23 22.065C23 22.8258 22.8288 23.003 22.065 23C15.0555 22.9664 8.02776 22.9786 1.02139 22.9786Z" fill="#FFFEFE"/>
<path d="M12.1038 21.2033C9.72052 21.2033 7.33413 21.185 4.9508 21.2033C3.56053 21.2033 2.89136 20.5738 2.89442 19.1805C2.89442 14.4627 2.89442 9.74192 2.89442 5.02416C2.89442 3.49638 3.52081 2.90666 5.0333 2.90055C9.70219 2.87814 14.37 2.87814 19.0369 2.90055C20.7052 2.90055 21.1758 3.42916 21.1758 5.12499C21.1758 9.74294 21.1758 14.3599 21.1758 18.9758C21.1758 20.8519 20.8213 21.185 18.9299 21.1941C16.6719 21.2125 14.3863 21.2033 12.1038 21.2033Z" fill="#E63B35"/>
<path d="M19.3638 12.1528C19.3638 14.2366 19.3424 16.3175 19.3638 18.4014C19.3638 19.1011 19.1897 19.3822 18.4472 19.3791C14.2305 19.3486 10.0138 19.3425 5.80025 19.3791C4.94164 19.3791 4.80108 19.0216 4.80719 18.2883C4.82858 14.1725 4.83469 10.0567 4.80719 5.94388C4.80719 5.1036 5.01803 4.78277 5.91025 4.79194C10.0271 4.83472 14.1429 4.83472 18.2577 4.79194C19.0949 4.79194 19.4188 5.00583 19.3944 5.89805C19.3333 7.98499 19.3638 10.0689 19.3638 12.1528Z" fill="#FEFEFD"/>
<path d="M17.5641 8.44637C16.9758 8.8362 16.4134 9.26386 15.8805 9.72665C13.4727 12.0916 13.485 12.1008 15.8591 14.475C16.1464 14.7591 16.4152 15.0708 16.7269 15.3275C17.3075 15.8041 17.2219 16.1952 16.7269 16.6902C16.2319 17.1852 15.8927 17.335 15.358 16.7544C14.5208 15.8561 13.6041 15.0555 12.7791 14.1389C12.2964 13.6133 11.9541 13.5553 11.4469 14.1114C10.625 15.0097 9.7022 15.8133 8.88331 16.7147C8.30276 17.3564 7.92387 17.1486 7.40137 16.6444C6.87887 16.1402 6.87276 15.7889 7.40137 15.2939C8.29665 14.4689 9.10637 13.5553 10.0047 12.7303C10.5486 12.2291 10.5303 11.8655 10.0047 11.3736C9.11553 10.5425 8.30276 9.62581 7.40137 8.80998C6.82082 8.28443 6.95221 7.93915 7.4472 7.46249C7.9422 6.98582 8.24776 6.76276 8.7947 7.38304C9.55553 8.22637 10.4111 8.94443 11.1444 9.7847C11.783 10.5089 12.2628 10.6219 12.9441 9.81831C13.6989 8.93221 14.5758 8.14998 15.4069 7.3311C15.6483 7.09582 15.8897 6.71999 16.2869 7.08971C16.6841 7.45943 16.9591 7.7986 17.5641 8.44637Z" fill="#EE7774"/>
</svg>
