<svg width="24" height="24" viewBox="0 0 24 24" fill="none" xmlns="http://www.w3.org/2000/svg">
<path d="M1.02139 22.9786C1.02139 15.9722 1.03361 8.94443 1 1.935C1 1.17417 1.17111 1 1.935 1C8.64499 1.03463 15.355 1.03463 22.065 1C22.8258 1 23 1.17111 23 1.935C22.9674 8.64499 22.9674 15.355 23 22.065C23 22.8258 22.8288 23.003 22.065 23C15.0555 22.9664 8.02776 22.9786 1.02139 22.9786Z" fill="#FFFFFE"/>
<path d="M21.2002 12.1864C21.2002 14.5208 21.1819 16.8522 21.2002 19.1866C21.2002 20.5739 20.6196 21.2216 19.1896 21.2125C14.4719 21.1819 9.7541 21.2125 5.03633 21.1941C3.35884 21.1941 2.89745 20.6991 2.89745 18.9758C2.88726 14.4108 2.88828 9.8448 2.9005 5.27777C2.9005 3.44444 3.45967 2.90361 5.25633 2.90055C9.77243 2.88833 14.2885 2.88833 18.8046 2.90055C20.7632 2.90055 21.1941 3.35278 21.2002 5.345C21.2063 7.61832 21.2002 9.90388 21.2002 12.1864Z" fill="#44A047"/>
<path d="M12.1528 4.81638C14.2337 4.81638 16.3175 4.83776 18.4014 4.81638C19.1073 4.81638 19.3823 5.01499 19.3761 5.7636C19.3476 9.98025 19.3476 14.1969 19.3761 18.4136C19.3761 19.1133 19.1959 19.3944 18.4595 19.3883C14.2428 19.3608 10.0262 19.3547 5.80951 19.3883C4.9509 19.3883 4.81645 19.0277 4.81951 18.2944C4.84395 14.1816 4.86229 10.0658 4.81951 5.95304C4.81951 4.9386 5.2259 4.78582 6.08451 4.80721C8.08895 4.84693 10.1209 4.81638 12.1528 4.81638Z" fill="#FDFDFC"/>
<path d="M6.52446 12.0244C6.55605 10.5667 7.15273 9.17823 8.18858 8.15207C9.22443 7.12591 10.6184 6.54231 12.0764 6.52443C15.0739 6.52443 17.7506 9.20415 17.7139 12.1619C17.6742 15.0127 14.9456 17.7169 12.11 17.7139C9.13085 17.7108 6.50002 15.0341 6.52446 12.0244Z" fill="#7EBF81"/>
</svg>
