<svg width="24" height="24" viewBox="0 0 24 24" fill="none" xmlns="http://www.w3.org/2000/svg">
<path d="M10.1392 13.9097C12.9808 11.5325 15.4467 8.77331 18.0469 6.15165C18.9636 5.23499 19.4617 5.23499 20.3142 6.16999C21.7808 7.78026 21.8419 7.72832 20.3447 9.22554C17.3319 12.2383 14.3283 15.2572 11.3003 18.2516C10.9947 18.5572 10.8175 19.1683 10.1697 19.0308C9.81894 18.2235 9.63537 17.3535 9.63012 16.4734C9.62487 15.5932 9.79804 14.7211 10.1392 13.9097Z" fill="#84C886"/>
<path d="M10.1391 13.9097C10.1575 15.6147 10.1666 17.3207 10.1666 19.0277C7.74971 17.0202 5.71166 14.6247 3.44444 12.4797C2.99527 12.058 3.03194 11.728 3.47805 11.3675C3.55459 11.3016 3.62609 11.2301 3.69194 11.1536C5.4886 9.24997 5.4886 9.24997 7.3586 11.1139L10.1391 13.9097Z" fill="#50B04E"/>
</svg>
