<svg width="24" height="24" viewBox="0 0 24 24" fill="none" xmlns="http://www.w3.org/2000/svg">
<path d="M16.8491 12.0275C18.2674 13.8031 19.5367 15.6927 20.6441 17.6772C21.1635 18.5939 21.5058 19.5716 20.913 20.5341C20.3202 21.4966 19.3119 21.1666 18.4166 21.13C18.0805 20.8641 18.0072 20.4394 17.781 20.1094C16.6169 18.3952 14.6827 18.4197 13.6041 20.1736C13.4252 20.5367 13.1935 20.8714 12.9166 21.1666C10.2338 21.1666 7.55412 21.2186 4.87135 21.188C3.13886 21.1666 2.41469 20.0208 3.17247 18.4166C4.30544 16.0988 5.72405 13.9319 7.39524 11.9664C7.85306 11.6469 8.40554 11.4918 8.96273 11.5264C11.0252 11.505 13.0847 11.508 15.1472 11.5264C15.7546 11.4977 16.3541 11.6742 16.8491 12.0275Z" fill="#AC6CAD"/>
<path d="M16.8491 12.0275L7.39526 11.9664C7.83221 10.9336 8.61748 10.133 9.26831 9.2561C9.51922 7.84121 9.51922 6.39322 9.26831 4.97833C8.22637 5.03944 8.37609 4.30611 8.35165 3.65222C8.33637 2.93111 8.78248 2.85473 9.34165 2.85778C11.2076 2.85778 13.0725 2.85778 14.9364 2.85778C15.4833 2.85778 15.963 2.90056 15.9477 3.63083C15.9477 4.27556 16.1127 5.03028 15.0555 4.97528C14.8127 6.38989 14.8003 7.83448 15.0189 9.25304L16.8491 12.0275Z" fill="#D0A6CD"/>
<path d="M12.9166 21.1666C13.4666 19.1744 14.3894 18.3341 15.9263 18.435C17.2036 18.5175 18.2699 19.6755 18.4227 21.1422L12.9166 21.1666Z" fill="#CFA4CC"/>
<path d="M9.25 4.97221C9.73033 6.35769 9.73033 7.86451 9.25 9.24998C9.25 7.82406 9.25 6.39814 9.25 4.97221Z" fill="#B196B5"/>
<path d="M15.0158 9.24998C14.5613 7.85802 14.5752 6.35549 15.0555 4.97221L15.0158 9.24998Z" fill="#B4ACB2"/>
<path d="M9.26519 17.4175C9.30186 18.7986 8.73047 19.3639 7.5327 19.3364C6.44492 19.3119 5.49159 18.4625 5.63826 17.4755C5.68811 17.0219 5.89173 16.599 6.21525 16.2772C6.53877 15.9553 6.96271 15.7539 7.41659 15.7064C8.40964 15.5689 9.24991 16.51 9.26519 17.4175Z" fill="#D0A5CC"/>
<path d="M15.6666 15.1625C15.636 16.0058 15.251 16.5191 14.4016 16.5741C13.5521 16.6291 12.9807 16.235 12.9532 15.4039C12.9421 15.2128 12.9691 15.0214 13.0325 14.8408C13.096 14.6602 13.1947 14.494 13.3229 14.3519C13.4511 14.2097 13.6063 14.0945 13.7794 14.0128C13.9525 13.9311 14.1401 13.8847 14.3313 13.8761C15.1807 13.7905 15.6024 14.3619 15.6666 15.1625Z" fill="#CFA4CC"/>
</svg>
