<svg width="24" height="24" viewBox="0 0 24 24" fill="none" xmlns="http://www.w3.org/2000/svg">
<path d="M18.1325 10.1819C18.7986 13.4025 19.4372 16.6322 20.1461 19.8405C20.3752 20.8672 20.2469 21.2552 19.0491 21.2339C14.6858 21.1636 10.3194 21.1819 5.95305 21.2339C5.01805 21.2339 4.70639 21.075 4.93861 20.0636C5.58333 17.2525 6.13027 14.42 6.71999 11.5967C6.84527 10.9855 7.02555 10.405 6.57944 9.85499C7.66416 9.41194 8.78555 9.7511 9.88554 9.72055C11.9633 9.66249 14.0441 9.68694 16.125 9.72055C16.8216 9.70832 17.5641 9.60749 18.1325 10.1819Z" fill="#434343"/>
<path d="M18.1325 10.1819C15.0189 10.1819 11.9022 10.1605 8.78863 10.1819C8.03866 10.214 7.28932 10.1052 6.57946 9.86109L4.99058 8.33331C4.65752 6.80554 4.91724 5.23193 4.84086 3.68277C4.8233 3.5965 4.82648 3.5073 4.85012 3.4225C4.87377 3.3377 4.91721 3.25972 4.97688 3.19499C5.03654 3.13025 5.11072 3.08061 5.19331 3.05014C5.27591 3.01967 5.36456 3.00924 5.45197 3.01971C6.15882 3.01971 6.86465 3.01971 7.56946 3.01971C7.65911 3.01176 7.74945 3.02223 7.8349 3.05047C7.92036 3.07872 7.99914 3.12414 8.0664 3.18396C8.13365 3.24377 8.18796 3.31671 8.22599 3.39828C8.26401 3.47986 8.28495 3.56835 8.28752 3.65832C8.37002 5.04249 9.16446 5.02721 10.1636 4.6636C11.725 3.88749 13.2925 4.00971 14.8631 4.61777L16.5833 4.66665C17.7597 3.99138 19.0064 4.14416 20.25 4.3611C20.2775 5.41221 20.3386 6.46332 20.3233 7.51137C20.2958 8.96887 18.8933 9.32026 18.1325 10.1819Z" fill="#353635"/>
<path d="M14.86 4.63L10.1667 4.66666C9.88252 3.09917 10.6097 2.61945 12.0611 2.86083C12.4091 2.9189 12.7643 2.9189 13.1122 2.86083C14.5331 2.63472 15.1839 3.13889 14.86 4.63Z" fill="#484747"/>
<path d="M20.25 4.36112C19.0644 4.94167 17.8055 4.55667 16.5833 4.66667C16.8003 4.09528 16.1953 3.1389 16.9958 2.95251C18.0288 2.75997 19.09 2.77868 20.1155 3.00751C20.5555 3.1114 20.3264 3.89056 20.25 4.36112Z" fill="#464545"/>
<path d="M10.1667 4.66666C9.11554 5.18916 8.33332 5.35416 7.97582 3.79888C7.70388 2.60722 6.53666 3.32527 5.77583 3.20611C5.01499 3.08694 5.02111 3.67972 5.02111 4.21749C5.02111 5.58638 5.00277 6.96749 4.99361 8.33026C4.3825 6.72304 4.86527 5.05471 4.75222 3.41999C4.71861 2.94638 5.09138 2.87 5.47944 2.87C6.24027 2.87 7.00721 2.87 7.75888 2.87C8.2386 2.87 8.60221 3.01361 8.53193 3.53916C8.33332 5.03027 9.36304 4.66666 10.1667 4.66666Z" fill="#525050"/>
</svg>
