<svg width="24" height="24" viewBox="0 0 24 24" fill="none" xmlns="http://www.w3.org/2000/svg">
<path d="M12.0581 21.188C7.02862 21.6219 2.78446 16.5833 2.86696 12.2475C2.96779 7.0011 6.91556 3.00139 12.0336 2.85778C16.5619 2.72944 21.3347 7.03471 21.2919 12.1466C21.2491 16.7911 16.9194 21.6311 12.0581 21.188Z" fill="#86C989"/>
<path d="M12.1467 19.3333C11.1903 19.3721 10.2361 19.2167 9.34147 18.8765C8.44687 18.5362 7.63052 18.0182 6.94171 17.3536C6.2529 16.6891 5.70592 15.8919 5.33381 15.01C4.9617 14.1282 4.77217 13.1801 4.77667 12.223C4.84084 7.80471 7.38306 4.94472 12.1314 4.77361C15.8805 4.63611 19.4647 7.8811 19.3425 12.2078C19.3137 14.1008 18.5442 15.9071 17.1989 17.2392C15.8536 18.5713 14.0399 19.3231 12.1467 19.3333Z" fill="#67BB6A"/>
<path d="M12.0397 11.1658C10.5119 11.1658 8.98417 11.1414 7.48084 11.1658C6.73223 11.1842 6.52751 10.8603 6.53973 10.1667C6.53973 9.51583 6.77807 9.27444 7.43501 9.27749C10.5252 9.2999 13.6154 9.2999 16.7055 9.27749C17.393 9.27749 17.5428 9.58305 17.5642 10.1942C17.5886 10.9183 17.3197 11.175 16.5986 11.1567C15.08 11.1414 13.5583 11.1658 12.0397 11.1658Z" fill="#F9FCF9"/>
<path d="M12.0519 14.805C10.5822 14.805 9.1125 14.7836 7.64584 14.805C6.94001 14.805 6.50917 14.7133 6.53056 13.8333C6.54889 13.0389 6.92473 12.9167 7.5725 12.935C10.5608 12.9554 13.5481 12.9554 16.5344 12.935C17.1944 12.935 17.5489 13.0572 17.5703 13.8517C17.5978 14.7347 17.1608 14.8325 16.455 14.8172C14.9883 14.7836 13.5278 14.805 12.0519 14.805Z" fill="#FAFCF9"/>
</svg>
