<svg width="24" height="24" viewBox="0 0 24 24" fill="none" xmlns="http://www.w3.org/2000/svg">
<path d="M16.5375 3.85695C17.1941 3.80508 17.8529 3.78673 18.5114 3.80195C19.6083 3.88139 20.2622 4.37334 20.2531 5.63528C20.2164 10.5058 20.2154 15.3774 20.25 20.25C20.25 21.6525 19.6114 22.1108 18.2975 22.0833C14.1847 22.0497 10.0689 22.0833 5.95611 22.0833C4.28472 22.0833 3.92417 21.735 3.90889 20.0208C3.88445 16.7697 3.90889 13.5186 3.90889 10.2706C3.90889 8.95056 3.90889 7.6275 3.90889 6.29834C3.92417 4.1075 4.28778 3.75612 6.51222 3.77445C6.86667 3.77445 7.21806 3.81723 7.5725 3.83862C7.75321 4.12712 7.83569 4.46637 7.8076 4.80564C7.77951 5.14491 7.64236 5.46598 7.41667 5.72084C6.35333 6.09362 6.02028 6.84528 6.03861 7.95445C6.0875 11.3553 6.08139 14.7561 6.03861 18.1569C6.03861 19.315 6.43889 19.8008 7.63056 19.7825C10.5242 19.7367 13.4178 19.7428 16.3114 19.7825C17.4756 19.7825 17.9492 19.3456 17.9369 18.1692C17.9064 14.6675 17.9369 11.1658 17.9369 7.66112C17.9369 6.82695 17.7383 6.15473 16.8492 5.88584C16.0944 5.30528 16.0333 4.62389 16.5375 3.85695Z" fill="#5D4036"/>
<path d="M16.5375 3.85695L16.8186 5.65667C17.4083 8.07667 16.9072 8.78556 14.5453 8.81611C12.7761 8.8375 11.0069 8.85278 9.23777 8.81611C7.00722 8.76722 6.44805 7.78945 7.38611 5.65056L7.56944 3.86C8.62055 3.84472 9.53111 3.80806 10.3194 2.75695C11.1567 1.62639 13.0481 1.66917 13.9403 2.79972C14.6706 3.75 15.5292 3.84778 16.5375 3.85695Z" fill="#F9A01D"/>
<path d="M7.38611 5.64445C7.54805 8.43417 7.54805 8.43417 10.3775 8.43417C11.9481 8.43417 13.5278 8.35167 15.0922 8.45862C16.3694 8.55028 16.8492 8.11334 16.6811 6.85139C16.6776 6.44901 16.7238 6.04774 16.8186 5.65667C18.1081 5.40306 18.5694 5.82473 18.5328 7.23334C18.4289 11.1811 18.4717 15.135 18.5144 19.0858C18.5144 19.9842 18.3036 20.3233 17.3411 20.3081C13.8333 20.25 10.35 20.25 6.85444 20.3142C5.80639 20.3325 5.60166 19.9475 5.61389 19.0003C5.65972 15.1014 5.71166 11.1964 5.5925 7.29751C5.54666 5.80639 6.07527 5.42445 7.38611 5.64445Z" fill="#CEC5C3"/>
<path d="M12.0489 3.90279C12.5378 4.00973 12.9136 4.22973 12.9075 4.78584C12.9124 4.88677 12.8972 4.98767 12.8627 5.08265C12.8282 5.17763 12.7751 5.26478 12.7065 5.33902C12.638 5.41326 12.5553 5.4731 12.4634 5.51505C12.3715 5.557 12.2721 5.58021 12.1711 5.58334C12.0574 5.60069 11.9413 5.5937 11.8304 5.56283C11.7196 5.53196 11.6166 5.47791 11.5282 5.40425C11.4398 5.3306 11.3681 5.23902 11.3177 5.13558C11.2674 5.03213 11.2395 4.91917 11.2361 4.80418C11.1811 4.29695 11.5508 4.00362 12.0489 3.90279Z" fill="#5E4138"/>
</svg>
