<svg width="24" height="24" viewBox="0 0 24 24" fill="none" xmlns="http://www.w3.org/2000/svg">
<path d="M16.5833 11.6944C17.3533 10.8908 18.1111 10.0811 18.8933 9.2836C19.7305 8.42499 19.9291 7.49304 19.0064 6.63138C18.1783 5.85527 17.2616 5.93471 16.4428 6.75054C14.1083 9.08193 11.7678 11.4103 9.44555 13.7508C9.23166 13.9647 8.73055 14.1969 9.14 14.5911C9.54944 14.9853 9.75111 14.4505 9.97416 14.2428C11.889 12.3544 13.7926 10.4529 15.685 8.53804C16.1586 8.05526 16.4733 7.74971 17.118 8.4036C17.7628 9.05748 17.6864 9.38137 17.0814 9.96804C15.0708 11.9053 13.1336 13.9189 11.1383 15.8714C9.97416 17.0111 8.83444 17.0539 7.77722 16.0944C6.72 15.135 6.64667 13.7905 7.79555 12.6019C10.24 10.0872 12.6844 7.59082 15.2358 5.1861C16.8889 3.62472 18.8261 3.72555 20.3905 5.22582C21.8541 6.62832 21.9183 8.75498 20.4944 10.4203C19.7305 11.3003 18.8505 12.0794 18.0255 12.9014C16.953 13.2008 16.6383 12.6111 16.5833 11.6944Z" fill="#636363"/>
<path d="M16.5833 11.6944C16.953 12.2322 17.2983 12.8005 18.0378 12.8891C15.6392 15.2939 13.3169 17.778 10.8206 20.0819C8.41278 22.2941 5.73306 21.9886 3.48723 19.4952C1.58974 17.3991 1.77612 14.5789 4.09834 12.4858C7.07139 9.79998 10.1361 7.21499 13.158 4.58416C13.488 4.29999 13.7997 3.7836 14.2794 4.31221C14.7592 4.84082 14.1817 5.12805 13.8944 5.41527C11.01 8.29665 8.13167 11.1628 5.27778 14.0441C4.17779 15.1503 4.00362 16.4366 4.70945 17.8025C5.37251 19.0858 6.74139 19.6358 8.19889 19.3302C8.98417 19.1591 9.52805 18.6305 10.0719 18.0927L16.5833 11.6944Z" fill="#838383"/>
</svg>
