<svg width="24" height="24" viewBox="0 0 24 24" fill="none" xmlns="http://www.w3.org/2000/svg">
<path d="M11.945 21.2002C7.22417 21.5394 2.68973 16.8889 2.8639 11.8289C3.03501 6.85749 7.11111 2.91278 12.3055 2.87611C16.6658 2.83333 21.3408 6.92166 21.2828 12.2597C21.2369 16.6291 17.1242 21.628 11.945 21.2002Z" fill="#54656E"/>
<path d="M19.3944 12.058C19.4142 13.0226 19.2396 13.9813 18.8809 14.877C18.5223 15.7726 17.987 16.5869 17.3069 17.2712C16.6269 17.9556 15.816 18.496 14.9226 18.8602C14.0292 19.2245 13.0716 19.4051 12.107 19.3914C11.1416 19.406 10.1829 19.2283 9.28691 18.8686C8.39089 18.509 7.57542 17.9746 6.88804 17.2966C6.20065 16.6186 5.65509 15.8105 5.28316 14.9195C4.91122 14.0285 4.72036 13.0724 4.72169 12.1069C4.72483 10.1582 5.49682 8.28938 6.86992 6.90655C8.24303 5.52372 10.1063 4.73856 12.055 4.72166C13.0208 4.71352 13.9786 4.8977 14.8726 5.26347C15.7665 5.62924 16.5787 6.16927 17.2618 6.8521C17.9449 7.53494 18.4853 8.34691 18.8515 9.24069C19.2176 10.1345 19.4022 11.0922 19.3944 12.058Z" fill="#D0D6D7"/>
<path d="M11.1536 10.6769V8.35472C11.1536 7.91166 11.2514 7.54194 11.7953 7.5175C12.4278 7.49 12.553 7.89027 12.5439 8.4036C12.5485 8.45341 12.5485 8.50353 12.5439 8.55333C11.9053 11.4897 13.155 13.3322 15.8683 14.3589C16.2197 14.4903 16.6505 14.6644 16.3358 15.2419C16.0211 15.8194 15.6667 15.6666 15.2236 15.4039C14.6451 14.9899 14.0316 14.627 13.3903 14.3191C11.5967 13.5583 10.6036 12.3911 11.1536 10.6769Z" fill="#5A6A73"/>
</svg>
