<svg width="24" height="24" viewBox="0 0 24 24" fill="none" xmlns="http://www.w3.org/2000/svg">
<path d="M12.0825 21.188C6.95528 21.628 2.78446 16.5008 2.86696 12.2689C2.96779 7.00416 6.89723 3.01055 12 2.85472C16.5405 2.71722 21.298 7.0286 21.2858 12.1253C21.2797 16.8889 16.7697 21.6555 12.0825 21.188Z" fill="#F37E75"/>
<path d="M12.0611 19.3333C8.10722 19.3333 4.72778 16.0028 4.72778 12.1405C4.72778 8.19888 8.08889 4.70333 12.0886 4.74916C14.0341 4.77174 15.8914 5.56464 17.2534 6.95412C18.6154 8.34359 19.371 10.2163 19.3547 12.1619C19.2508 16.1922 16.1311 19.3333 12.0611 19.3333Z" fill="#EF4639"/>
<path d="M15.8928 9.38137C15.8378 9.84581 15.5047 10.0322 15.2664 10.2828C13.5553 12.0855 13.5553 12.0855 15.3061 13.9494C15.3386 13.9881 15.3744 14.0238 15.413 14.0564C16.1036 14.5055 15.8378 14.8905 15.3611 15.3611C14.8844 15.8316 14.6033 16.0944 14.0442 15.4589C13.485 14.8233 12.7211 13.7386 12.0764 13.7539C11.4317 13.7691 10.7075 14.8233 10.0964 15.4864C9.61055 16.0119 9.29583 15.8958 8.87416 15.4314C8.45249 14.9669 7.9575 14.6644 8.68777 14.1052C8.76504 14.0402 8.8366 13.9686 8.90166 13.8914C10.6128 12.0855 10.6342 12.058 8.90166 10.3347C8.33944 9.76942 8.16222 9.41803 8.82222 8.77026C9.48222 8.12248 9.79999 8.4647 10.2736 8.92915C12.003 10.6066 12.0122 10.5944 13.9403 8.84359C14.1817 8.62665 14.3864 8.14692 14.7866 8.40054C15.1886 8.68796 15.5593 9.0167 15.8928 9.38137Z" fill="#FFFCFC"/>
</svg>
