<svg width="24" height="24" viewBox="0 0 24 24" fill="none" xmlns="http://www.w3.org/2000/svg">
<path d="M14.3283 11.0283C12.4064 12.333 10.9214 13.8241 11.3339 16.4733C11.5172 17.6589 11.3339 18.9177 11.3339 20.14C10.5639 19.9994 10.7228 19.3516 10.7044 18.875C10.6311 17.7811 10.7044 16.6811 10.6708 15.5811C10.6708 14.9272 10.5211 14.3772 9.71751 14.3283C9.56126 14.3064 9.41587 14.2358 9.30195 14.1266C7.87501 12.6539 6.44501 11.1841 5.02418 9.7022C4.6514 9.31109 4.15641 9.00554 4.00668 8.43109C4.14615 8.24814 4.33062 8.10441 4.54213 8.01392C4.75364 7.92342 4.98498 7.88924 5.21363 7.91471C8.85584 7.91471 12.4981 7.70387 16.1372 8.02471C16.9408 8.33026 16.6353 8.78859 16.3297 9.24693C15.6667 9.86109 15.1533 10.6128 14.3283 11.0283Z" fill="#F38DAF"/>
<path d="M14.3283 11.0283C14.6981 10.2644 15.3458 9.76025 15.9875 9.24692C16.5298 8.9794 17.0243 8.62426 17.4511 8.19581C17.8647 7.7134 18.0699 7.0866 18.0218 6.453C17.9737 5.81941 17.6761 5.23079 17.1944 4.81638C16.1494 3.89971 14.8019 4.07693 13.8853 5.21665C13.4819 5.72082 13.3658 6.43887 12.7119 6.74443C12.1283 6.90637 11.5631 6.97359 11.0894 6.48165C11.2667 4.42527 12.2567 2.89443 14.2367 2.25277C16.0364 1.67221 17.7505 1.98694 19.1255 3.44443C20.4028 4.81332 20.6961 7.21193 19.7978 8.81303C18.7222 10.7533 16.8705 11.4958 14.3283 11.0283Z" fill="#45A148"/>
<path d="M11.0833 6.49998H12.9564C13.6439 5.91332 14.4842 6.01721 15.2694 6.06915C16.8889 6.16998 17.225 6.80554 16.5833 8.36998L4.00363 8.41581C3.51169 6.58248 3.53614 6.53665 5.34808 6.53054C7.26085 6.52239 9.17261 6.51221 11.0833 6.49998Z" fill="#E8467B"/>
<path d="M9.55559 14.1052C10.6281 13.54 11.0834 13.818 11.12 15.0708C11.1689 16.7575 10.8145 18.4625 11.3339 20.1277C11.7824 20.1501 12.2287 20.2053 12.6692 20.2927C13.2803 20.4486 13.0847 21.0016 13.1184 21.4233C13.1581 21.9702 12.8128 22.0986 12.3514 22.0986C11.0895 22.0986 9.83059 22.0802 8.5717 22.0986C7.89337 22.0986 7.43809 22.0558 7.44115 21.1575C7.4442 20.2591 7.94531 20.2102 8.5992 20.2408C8.80087 20.2408 9.00253 20.2408 9.21031 20.2408C9.70531 18.8689 9.29892 17.448 9.43031 16.0547C9.47309 15.41 9.27448 14.75 9.55559 14.1052Z" fill="#E9487D"/>
<path d="M9.55556 14.1053C9.55556 15.7002 9.58 17.2952 9.55556 18.8902C9.55556 19.3577 9.75111 19.9108 9.19806 20.2469C9.23269 18.2099 9.26528 16.1647 9.29584 14.1114C9.38223 14.1046 9.46894 14.1025 9.55556 14.1053Z" fill="#BE6779"/>
<path d="M16.5833 8.36999C17.005 6.88499 16.4214 6.35027 14.9364 6.53666C14.2805 6.57355 13.6227 6.56129 12.9686 6.49999C13.5125 4.36111 15.1075 3.29472 16.7392 4.02805C18.0378 4.60861 18.6489 5.63221 18.4136 7.05916C18.1936 8.40665 17.4145 9.19804 15.9875 9.25304L16.5833 8.36999Z" fill="#8EC591"/>
</svg>
