<svg width="24" height="24" viewBox="0 0 24 24" fill="none" xmlns="http://www.w3.org/2000/svg">
<path d="M11.7311 16.6108C11.9022 17.2403 12.2414 17.8758 12.2108 18.4961C12.1467 19.7428 11.5325 20.8214 10.2614 21.1117C9.06972 21.3805 7.67944 21.4355 7.05305 20.0728C6.52139 18.9147 6.29833 17.5367 7.43194 16.565C7.76084 16.3031 8.01759 15.9617 8.17797 15.573C8.33835 15.1844 8.39708 14.7612 8.34861 14.3436C8.29361 12.9228 8.29055 11.4958 8.34861 10.0658C8.39139 9.01166 8.27528 8.17444 7.28528 7.47166C6.38694 6.8361 6.53361 4.55972 7.34639 3.72249C7.87024 3.19306 8.57996 2.88886 9.32463 2.87459C10.0693 2.86033 10.7901 3.13712 11.3339 3.6461C12.3667 4.60249 12.6294 6.41749 11.5233 7.31277C10.3469 8.25999 10.3439 9.34166 10.4447 10.5425C10.57 12.0275 10.0597 13.5522 10.7503 14.9944C10.2736 15.4925 10.1972 15.5078 9.97417 15.0861C9.70833 14.5728 9.7725 14.0014 9.73889 13.4483C9.65639 12.0519 9.92528 10.6342 9.36611 9.25305C8.9987 11.0776 8.96661 12.9537 9.27139 14.7897C9.36 15.2817 9.94055 15.523 10.4356 15.6667C10.9856 15.8286 11.4683 16.0608 11.7311 16.6108Z" fill="#967AB7"/>
<path d="M11.7311 16.6108C10.8939 16.3053 10.072 15.9294 9.21641 15.6789C8.6878 15.5261 8.64502 15.19 8.64502 14.7622C8.64502 12.9472 8.64502 11.1292 8.64502 9.3111C8.64502 8.73666 8.75502 8.31805 9.47002 8.3486C10.127 8.37305 10.1545 8.80694 10.1545 9.28666C10.1545 11.0039 10.1545 12.7211 10.1545 14.4353C10.1545 14.7408 9.93141 15.465 10.7381 14.9853C11.2204 14.2791 11.9054 13.7358 12.7028 13.4269C14.3314 12.88 15.2725 11.8289 15.6025 10.1758C15.8548 9.92653 16.1951 9.78672 16.5497 9.78672C16.9044 9.78672 17.2447 9.92653 17.497 10.1758C17.277 12.4339 16.2503 14.1053 14.0472 14.9242C13.1275 15.2755 12.4492 15.9722 11.7311 16.6108Z" fill="#795FA8"/>
<path d="M17.5 10.1819H15.6055C13.7386 8.68472 13.3169 7.215 14.3833 5.86444C15.1319 4.91722 16.0944 4.44972 17.3105 4.79194C18.273 5.06083 19.1225 5.565 19.2753 6.64972C19.4464 7.87194 19.4616 9.09416 18.163 9.83055C17.9583 9.95889 17.7291 10.0658 17.5 10.1819Z" fill="#967BB7"/>
</svg>
