<svg width="24" height="24" viewBox="0 0 24 24" fill="none" xmlns="http://www.w3.org/2000/svg">
<path d="M10.7778 12.3055C10.2522 13.8333 9.95279 15.3061 11.3645 16.6475C12.6111 17.833 12.5072 19.3333 11.2636 20.525C10.2981 21.4416 8.29669 21.4416 7.36474 20.525C6.21586 19.3914 6.1028 17.668 7.3403 16.6169C8.25696 15.8469 8.40057 15.0219 8.34557 13.9708C8.28752 12.8586 8.3303 11.7372 8.34557 10.6097C8.34557 9.36915 8.46474 8.22943 7.18752 7.27915C6.06613 6.44193 6.29224 4.83471 7.30363 3.7561C7.77373 3.25107 8.41515 2.93932 9.10271 2.88169C9.79027 2.82407 10.4746 3.0247 11.0222 3.44443C11.5776 3.80358 11.9717 4.36433 12.1216 5.00846C12.2716 5.65258 12.1655 6.32976 11.8258 6.89721C11.4982 7.40236 11.14 7.88706 10.7533 8.34859C9.27141 8.73665 8.86196 9.73581 9.05752 11.1689C9.22252 12.3911 8.84363 13.653 9.38752 15.1105C9.94057 14.0625 9.59835 13.1091 9.87029 12.278C9.96196 12.0061 10.0292 11.6425 10.4447 11.7311C10.5073 11.7415 10.5668 11.7657 10.6189 11.8018C10.6711 11.8379 10.7146 11.8851 10.7464 11.9399C10.7783 11.9948 10.7976 12.056 10.803 12.1192C10.8084 12.1824 10.7998 12.246 10.7778 12.3055Z" fill="#967AB7"/>
<path d="M14.7958 14.0625C15.2144 14.2122 15.575 13.983 15.963 13.9127C17.5978 13.6072 19.1286 14.5605 19.3241 15.9447C19.59 17.8727 18.5083 19.4311 16.8247 19.5502C15.2664 19.6602 13.9494 18.328 13.873 16.568C13.873 16.2625 13.8455 15.9569 13.8333 15.6514C13.9326 15.0157 14.2784 14.4448 14.7958 14.0625Z" fill="#967BB7"/>
<path d="M14.7958 14.0625C14.6614 14.7072 14.4658 15.3183 13.8333 15.6666C12.6274 14.7322 11.5934 13.5948 10.7778 12.3055C10.4997 11.8564 10.2064 11.5539 10.1667 12.3911C10.127 13.2283 10.1483 14.0136 10.1667 14.8355C10.1667 15.3855 9.97417 15.6941 9.36917 15.6666C8.82834 15.633 8.6389 15.3611 8.6389 14.8752C8.6389 12.9502 8.5289 11.013 8.68168 9.10026C8.79473 7.73748 10.0322 8.55942 10.7472 8.34859C11.6333 10.5853 13.1244 12.388 14.7958 14.0625Z" fill="#795EA8"/>
</svg>
