<svg width="24" height="24" viewBox="0 0 24 24" fill="none" xmlns="http://www.w3.org/2000/svg">
<path d="M6.82696 19.3486C6.74751 19.2202 6.69862 19.043 6.58557 18.9697C4.26946 17.2861 3.75002 14.9486 4.09224 12.275C8.75195 12.0733 13.4086 12.0916 18.0683 12.275C18.1508 12.6172 18.8444 12.3147 18.7069 12.8861C20.1889 17.0661 20.0392 17.3716 15.8989 19.2111C15.079 19.6127 14.1707 19.7998 13.2589 19.755C11.1169 19.5747 8.92612 20.1889 6.82696 19.3486Z" fill="#F0F3F3"/>
<path d="M6.82696 19.3486C8.4464 19.3486 10.0811 19.2019 11.6822 19.37C13.8456 19.5991 15.7308 18.878 17.6161 18.053C19.2783 17.3228 19.7244 15.8194 18.6978 14.2794C18.3403 13.7416 18.5053 13.3383 18.6978 12.8739C20.7083 13.5461 20.2714 15.245 20.2011 16.6933C20.1339 18.0439 19.1408 18.7955 17.9675 19.2814C17.0936 19.6419 15.7858 19.2814 15.6789 20.8641C15.6514 21.2339 14.9853 21.1697 14.585 21.1697C12.3514 21.1697 10.1178 21.1941 7.88418 21.1697C6.47863 21.1361 6.29835 20.8 6.82696 19.3486Z" fill="#B3C0C7"/>
<path d="M10.1666 10.1667C10.1487 9.86209 10.1953 9.55717 10.3032 9.2718C10.4111 8.98643 10.578 8.72703 10.793 8.51055C11.7097 7.51139 12.7608 6.60389 12.9319 5.13112C12.9808 4.73695 13.2864 4.65139 13.6072 4.76445C14.0686 4.92334 14.1816 5.3175 14.0961 5.75139C13.8608 6.995 13.0389 7.89028 12.2628 8.80694C11.8716 9.25916 11.3461 9.6075 11.395 10.3347C11.4286 10.8114 11.3033 11.3492 10.7044 11.2758C10.1055 11.2025 10.1666 10.6189 10.1666 10.1667Z" fill="#B9C4CA"/>
<path d="M6.50004 8.82528C6.60376 8.25483 6.90306 7.73836 7.34642 7.36472C8.20222 6.65098 8.84848 5.71855 9.21642 4.66667C9.3692 4.19001 9.61059 3.97001 10.0934 4.12584C10.5761 4.28167 10.4936 4.68195 10.3989 5.01195C10.2409 5.75395 9.85653 6.42865 9.29892 6.94306C8.54114 7.60611 7.85365 8.35778 7.72837 9.43333C7.67642 9.90083 7.63365 10.4508 7.01031 10.35C6.46031 10.2522 6.47559 9.70222 6.50004 8.82528Z" fill="#B8C4CA"/>
<path d="M14.7195 9.30499C14.7079 8.97463 14.7655 8.64549 14.8886 8.33871C15.0118 8.03193 15.1977 7.75429 15.4345 7.52361C16.3267 6.67722 17.1211 5.77889 17.4786 4.57806C17.493 4.49188 17.5257 4.40979 17.5744 4.33732C17.6232 4.26484 17.687 4.20366 17.7614 4.15791C17.8358 4.11216 17.9192 4.08289 18.0059 4.07209C18.0925 4.06129 18.1805 4.06919 18.2639 4.09528C18.7406 4.20222 18.7528 4.59333 18.652 4.93555C18.4656 5.54666 18.322 6.18527 17.8056 6.67111C16.8889 7.53277 15.9539 8.39749 15.9172 9.81221C15.9214 9.89092 15.9079 9.96957 15.8778 10.0424C15.8476 10.1152 15.8016 10.1804 15.743 10.2331C15.6844 10.2858 15.6148 10.3248 15.5392 10.3471C15.4636 10.3695 15.384 10.3746 15.3061 10.3622C14.7286 10.2675 14.7195 9.77555 14.7195 9.30499Z" fill="#B8C4CA"/>
<path d="M18.0683 12.2658H4.09222C8.74002 11.8152 13.4205 11.8152 18.0683 12.2658Z" fill="#C3C4C3"/>
</svg>
