<svg width="24" height="24" viewBox="0 0 24 24" fill="none" xmlns="http://www.w3.org/2000/svg">
<path d="M13.2895 3.13888C15.8347 3.78971 17.1272 5.71166 17.8392 7.98498C18.9545 11.5386 18.8964 15.083 16.8217 18.3372C15.905 19.7489 14.7867 21.0016 12.9136 21.13C12.4095 20.6013 12.44 19.9261 12.437 19.2722C12.4227 14.5218 12.4227 9.77044 12.437 5.01804C12.437 4.40693 12.437 3.79582 12.767 3.25194C12.7936 3.20998 12.8284 3.17374 12.8692 3.14531C12.91 3.11687 12.956 3.09682 13.0046 3.08631C13.0532 3.07579 13.1034 3.07502 13.1523 3.08405C13.2012 3.09307 13.2478 3.11171 13.2895 3.13888Z" fill="#6E4D42"/>
<path d="M13.2894 3.13889L12.8647 3.21222C11.8289 3.71944 11.5264 4.55361 11.5386 5.68416C11.5844 10.1025 11.5661 14.5239 11.5386 18.9422C11.5386 19.6908 11.6547 20.47 11.0772 21.1177C9.83666 20.9925 8.93833 20.2622 8.14083 19.3975C4.56584 15.5291 4.77972 7.89332 8.58694 4.37638C9.9161 3.13889 11.4317 2.42083 13.2894 3.13889Z" fill="#6E4D42"/>
<path d="M11.0833 21.1055C11.0833 15.688 11.1353 10.2705 11.0436 4.85611C11.0192 3.38333 11.4989 2.92805 12.8586 3.19694C12.8749 9.1736 12.8912 15.1472 12.9075 21.1177C12.3056 21.2449 11.6834 21.2407 11.0833 21.1055Z" fill="#533830"/>
</svg>
