<svg width="24" height="24" viewBox="0 0 24 24" fill="none" xmlns="http://www.w3.org/2000/svg">
<path d="M6.24338 18.0819C4.58116 16.4105 4.05561 14.5222 3.93033 12.0625C3.75005 8.31941 5.49783 6.18052 8.36088 4.55802C11.0742 3.03024 15.9998 3.9683 18.0684 6.25997C17.9603 6.57144 17.7841 6.85486 17.5526 7.08957C17.321 7.32427 17.04 7.50434 16.7301 7.61663C15.9081 7.64413 15.3489 7.03913 14.6645 6.73663C12.4248 5.74969 10.3348 5.8933 8.40672 7.47302C8.30894 7.57997 8.20505 7.67774 8.10116 7.77858C5.88894 9.91747 5.52227 12.31 6.93088 15.06C7.20283 15.5886 7.652 16.0561 7.60922 16.7191C7.50129 17.0358 7.32197 17.3234 7.08514 17.5597C6.84831 17.796 6.5603 17.9747 6.24338 18.0819Z" fill="#D4DBE0"/>
<path d="M6.24341 18.0819C6.53787 17.6007 6.9394 17.194 7.41674 16.8933C8.02785 16.493 8.47091 16.9605 8.94452 17.1989C11.6701 18.5983 14.4445 18.3019 16.3542 16.3861C18.2242 14.5191 18.542 11.6133 17.1823 8.96108C16.9409 8.49358 16.4734 8.04442 16.8767 7.43331C17.1804 6.95581 17.5917 6.55607 18.0776 6.26608C22.0498 10.4247 20.7329 17.9139 15.1473 19.8327C11.9726 20.9144 8.83757 20.56 6.24341 18.0819Z" fill="#91A5AF"/>
<path d="M16.8675 7.42108C17.3962 8.91219 18.4839 10.1283 18.4473 11.9097C18.3403 17.2294 13.4148 20.1444 8.74283 17.5502C8.31199 17.318 7.98505 16.8505 7.41671 16.8933C6.99199 15.5244 5.88894 14.4489 5.81866 12.9211C5.71171 10.718 6.02644 8.76247 8.07366 7.49136C9.1431 8.1758 9.69921 9.26969 10.3287 10.3025C10.5548 10.6691 10.6159 11.0419 10.2156 11.3841C9.49449 11.9952 9.79088 12.3008 10.5212 12.6552C11.557 13.1441 11.5325 13.6116 10.5364 14.183C10.2309 14.3541 9.78477 14.3633 9.80005 14.8247C9.81533 15.2861 10.2584 15.3044 10.5853 15.3991C10.775 15.4529 10.948 15.5536 11.0885 15.6919C11.2289 15.8303 11.3322 16.0017 11.3889 16.1905C11.8106 17.37 12.2445 17.1591 12.6631 16.1905C12.7043 16.0423 12.7895 15.9102 12.9075 15.8116C14.0198 15.1822 14.915 14.5894 12.9412 13.8683C12.6539 13.7675 12.6937 13.1961 12.9595 13.0891C14.2428 12.5697 14.1817 11.7141 13.8242 10.5989C13.6959 10.1711 14.2306 9.69747 14.4812 9.25441C14.695 8.87858 15.1137 8.58525 14.9884 7.94969C14.0962 7.96802 13.7295 8.64636 13.2956 9.22997C12.22 10.6722 11.7434 10.7577 10.8878 9.27275C10.2125 8.10553 9.13394 7.86719 8.06755 7.46386C9.34171 5.79553 12.2628 5.22108 14.4628 6.24164C15.2787 6.60219 16.067 7.02691 16.8675 7.42108Z" fill="#B2BFC6"/>
<path d="M8.06752 7.46691C9.47308 7.21635 10.4295 7.67774 11.1506 8.99468C11.9603 10.4797 12.1039 10.4491 13.0511 8.93052C13.7172 7.86413 14.4139 7.05441 15.9722 7.68996C15.5536 8.31941 15.1228 8.86941 14.802 9.47746C14.4811 10.0855 13.4392 10.6202 14.6492 11.5002C14.9822 11.7416 15.0953 12.9425 13.8853 12.9516C13.5217 12.9516 13.0786 13.0036 13.0634 13.4344C13.045 13.96 13.5492 13.8561 13.87 13.85C14.5239 13.85 14.7653 14.128 14.7684 14.7666C14.7714 15.4052 14.5606 15.723 13.8945 15.6833C13.1703 15.6711 12.9167 16.0958 12.932 16.7558C12.9503 17.3669 12.5959 17.5136 12.0581 17.5197C11.447 17.5197 11.0559 17.3547 11.1078 16.6702C11.1597 15.9858 10.845 15.6344 10.13 15.6863C9.41502 15.7383 9.27752 15.3655 9.26835 14.7544C9.26835 14.0944 9.53724 13.8377 10.185 13.8561C10.512 13.8561 11.0039 13.9539 11.0192 13.4527C11.0436 12.8416 10.4845 12.9791 10.1025 12.9577C9.65335 12.9302 9.27446 12.8386 9.2928 12.2916C9.30808 11.8761 9.06363 11.2833 9.72363 11.1641C10.6831 10.993 10.0842 10.5775 9.88863 10.2658C9.29585 9.32468 8.66641 8.40191 8.0553 7.46996L8.06752 7.46691Z" fill="#758992"/>
</svg>
