<svg width="24" height="24" viewBox="0 0 24 24" fill="none" xmlns="http://www.w3.org/2000/svg">
<path d="M6.2464 18.0744C4.58418 16.4061 4.05557 14.5147 3.93335 12.055C3.75002 8.31194 5.50085 6.17 8.36084 4.5475C11.0772 3.01972 15.9997 3.95778 18.0714 6.2525C17.9652 6.5721 17.785 6.86211 17.5456 7.09892C17.3061 7.33573 17.0141 7.51265 16.6933 7.61527C15.8806 7.61527 15.3061 7.03166 14.6217 6.71999C12.2047 5.62611 9.80917 6.04166 7.93306 7.91777C6.05696 9.79388 5.62307 12.1955 6.71084 14.6125C7.0164 15.3 7.59084 15.8714 7.61223 16.6841C7.51347 17.0088 7.3377 17.3048 7.09988 17.5468C6.86207 17.7889 6.56926 17.9699 6.2464 18.0744Z" fill="#D4DBE0"/>
<path d="M6.2464 18.0744C6.54036 17.5947 6.94079 17.189 7.41667 16.8889C8.02778 16.4886 8.47084 16.9561 8.94445 17.1944C11.67 18.5939 14.4444 18.2975 16.3572 16.3816C18.2242 14.4994 18.5419 11.5905 17.1944 8.94443C16.9561 8.47388 16.4886 8.02777 16.8889 7.41666C17.1905 6.93775 17.6009 6.53679 18.0867 6.24638C22.0772 10.408 20.745 17.9003 15.1564 19.8191C11.9725 20.91 8.83751 20.5555 6.2464 18.0744Z" fill="#91A5AF"/>
<path d="M16.8889 7.41666C17.4144 8.90777 18.5022 10.1239 18.4656 11.9053C18.3586 17.228 13.4331 20.1552 8.76113 17.5489C8.31502 17.3105 7.98808 16.8461 7.41669 16.8889C7.07141 15.7308 6.19447 14.8294 5.90725 13.6286C5.23503 10.7258 6.30447 8.43416 8.60224 6.8086C10.6892 5.33583 13.0022 5.35722 15.2847 6.61916C15.8011 6.8911 16.2106 7.41666 16.8889 7.41666Z" fill="#B2BFC6"/>
<path d="M15.3244 14.2183C15.3031 14.7469 14.9394 15.3275 14.4078 15.8469C13.8761 16.3664 13.0694 16.458 12.7394 17.3105C12.5867 17.7016 11.5508 17.6955 11.3889 17.3655C10.9336 16.4489 9.97723 16.1097 9.39973 15.3703C9.09418 14.9639 8.65418 14.4536 9.14001 14.0503C9.25533 13.9502 9.38986 13.8748 9.53536 13.8286C9.68086 13.7824 9.83426 13.7664 9.98616 13.7815C10.1381 13.7967 10.2853 13.8427 10.4188 13.9168C10.5523 13.9908 10.6692 14.0914 10.7625 14.2122C11.1628 14.7133 11.56 15.1014 12.2689 15.0555C12.5249 15.065 12.7766 14.9886 12.9843 14.8386C13.1919 14.6886 13.3434 14.4735 13.4147 14.2275C13.5981 13.5858 13.1489 13.3108 12.605 13.1825C12.1161 13.0664 11.6058 13.0144 11.1322 12.8525C10.0964 12.495 9.14612 11.9633 8.95668 10.7625C8.76723 9.56166 9.42418 8.8161 10.2217 7.90249C11.6303 6.28305 12.6172 6.35333 13.7692 7.98499C13.8211 8.05833 13.9556 8.07055 14.0289 8.13472C14.6064 8.6236 15.5231 9.30194 15.1044 9.91305C14.6186 10.6189 13.6622 10.2522 13.0419 9.56166C12.8595 9.38642 12.6433 9.25022 12.4064 9.16138C11.6456 8.81305 11.0895 9.12471 10.8297 9.83666C10.57 10.5486 11.0681 10.8603 11.6578 11.0375C12.2475 11.2147 12.9472 11.3247 13.5522 11.5661C14.0906 11.7632 14.5525 12.1263 14.871 12.6031C15.1896 13.0798 15.3484 13.6454 15.3244 14.2183Z" fill="#758991"/>
</svg>
