<svg width="24" height="24" viewBox="0 0 24 24" fill="none" xmlns="http://www.w3.org/2000/svg">
<path d="M6.24346 18.0741C4.58127 16.4058 4.05573 14.5145 3.93045 12.0548C3.75018 8.31181 5.49792 6.1699 8.36092 4.54743C11.0773 3.01968 15.9997 3.95772 18.0713 6.24934C17.9654 6.56861 17.7857 6.8584 17.5468 7.09519C17.3079 7.33197 17.0165 7.50907 16.6963 7.6121C16.0424 7.63654 15.5719 7.20266 15.0402 6.93072C12.3361 5.55269 9.90395 5.91018 7.84454 8.00626C5.88902 9.99233 5.58348 12.4826 6.97067 15.1042C7.16011 15.4617 7.39844 15.7917 7.56038 16.1675C7.7376 17.2277 7.05317 17.6952 6.24346 18.0741Z" fill="#D4DBE0"/>
<path d="M6.24353 18.0741C6.50936 17.3958 7.46573 17.1575 7.41379 16.2744C7.38018 15.9689 7.52073 15.8681 7.80795 15.9689C10.1148 18.7922 13.7387 18.8472 16.4733 16.088C17.3005 15.1929 17.8335 14.0658 18.0006 12.8585C18.1678 11.6512 17.9611 10.4216 17.4083 9.3354C17.1028 8.74569 16.4275 8.22625 16.8736 7.41654C17.1761 6.93919 17.5864 6.53943 18.0714 6.24934C22.0618 10.4109 20.7296 17.903 15.1411 19.8219C11.9726 20.9096 8.83765 20.5552 6.24353 18.0741Z" fill="#91A5AF"/>
<path d="M7.72233 15.9719L7.41679 16.2775C5.16488 13.7995 5.2596 10.8968 6.75374 8.63874C8.58704 5.85518 11.9481 4.99353 14.7255 6.34406C15.4466 6.69545 16.1586 7.05905 16.8644 7.41654C17.7352 9.15207 18.823 10.8356 18.3921 12.9164C18.1232 14.1967 18.0866 15.6297 16.5833 16.2561C16.2013 16.2317 15.9538 15.9719 15.6666 15.7519C13.1458 13.7689 11.0834 13.7109 8.5076 15.5533C8.28894 15.7619 8.01738 15.9067 7.72233 15.9719Z" fill="#B2BFC6"/>
<path d="M7.72235 15.9719C10.2095 13.0356 14.0931 13.1639 16.5833 16.2775C16.5833 17.0505 15.905 17.2339 15.4283 17.5516C13.4667 18.8533 10.3134 18.7555 8.42512 17.3927C8.18202 17.2504 7.98593 17.04 7.86104 16.7875C7.73615 16.5351 7.68794 16.2515 7.72235 15.9719Z" fill="#758991"/>
<path d="M14.75 10.2307C14.7806 11.8623 13.7509 12.9164 12.1376 12.9164C10.6434 12.9164 9.31122 11.7187 9.28372 10.3315C9.25622 8.9443 10.6862 7.4196 12.0764 7.45321C12.7939 7.4831 13.4722 7.78848 13.9702 8.30582C14.4682 8.82315 14.7475 9.51259 14.75 10.2307Z" fill="#758991"/>
</svg>
