<svg width="24" height="24" viewBox="0 0 24 24" fill="none" xmlns="http://www.w3.org/2000/svg">
<path d="M6.24336 18.0743C4.58116 16.406 4.05561 14.5146 3.93033 12.0549C3.75005 8.31188 5.49782 6.16996 8.36085 4.54747C11.0772 3.01971 15.9997 3.95775 18.0713 6.2494C17.9651 6.569 17.785 6.85901 17.5455 7.09582C17.306 7.33263 17.014 7.50955 16.6933 7.61217C15.6422 7.51439 14.8966 6.69551 13.9219 6.41745C11.3614 5.66274 9.2225 6.33801 7.5053 8.35771C5.94392 10.191 5.74531 12.2627 6.64364 14.4688C6.94919 15.2143 7.5603 15.8163 7.60918 16.6779C7.51105 17.0036 7.33557 17.3007 7.09774 17.5438C6.85991 17.787 6.56678 17.969 6.24336 18.0743Z" fill="#D4DBE0"/>
<path d="M6.24341 18.0743C6.53754 17.5937 6.93918 17.1879 7.41673 16.8888C8.02784 16.4793 8.47089 16.959 8.9445 17.1943C11.6945 18.5876 14.4444 18.2912 16.3603 16.3785C18.2761 14.4657 18.5419 11.5905 17.1944 8.94438C16.953 8.47689 16.4855 8.02772 16.8889 7.41662C17.1914 6.93926 17.6016 6.53949 18.0866 6.2494C22.0772 10.411 20.7449 17.9032 15.1564 19.8221C11.9725 20.9098 8.83755 20.5554 6.24341 18.0743Z" fill="#91A5AF"/>
<path d="M16.8889 7.41662C17.4144 8.90771 18.5022 10.1269 18.4686 11.9082C18.3616 17.231 13.4331 20.1582 8.76116 17.5518C8.31199 17.3104 7.98811 16.846 7.41673 16.8888C7.07145 15.7307 6.19451 14.8293 5.90424 13.6285C5.23508 10.7258 6.30451 8.43411 8.60227 6.80857C10.6861 5.3358 13.0022 5.35719 15.2847 6.61912C15.8011 6.88801 16.2105 7.41662 16.8889 7.41662Z" fill="#B2BFC6"/>
<path d="M12.0855 16.5832H11.1688C8.5533 16.5832 8.54719 16.5832 8.86802 13.8882C8.88959 13.4951 8.78232 13.1057 8.56247 12.7791C8.27525 12.2169 8.03081 11.5019 8.84969 11.0802C9.4608 10.7746 9.20413 10.1941 9.28358 9.72965C9.75107 7.01329 12.1374 5.7208 14.2916 7.04079C14.5181 7.15327 14.7189 7.3114 14.8813 7.50523C15.1869 7.99411 15.853 8.61439 15.4221 9.07577C14.9913 9.53716 14.2366 9.33244 13.6194 8.89244C12.4522 8.05522 11.4805 8.428 11.1749 9.77854C10.9702 10.6158 11.1138 11.2055 12.1772 11.0985C12.4277 11.071 12.6844 11.0985 12.938 11.0985C13.5491 11.0588 13.8546 11.3063 13.873 11.9724C13.8883 12.718 13.5399 12.8677 12.8677 12.9593C12.1069 13.0602 10.958 12.3055 10.7013 13.8455C10.5852 14.5482 10.7319 14.7835 11.4163 14.7621C12.1008 14.7407 12.8616 14.6429 13.5552 14.7896C14.2977 14.9485 15.6544 14.041 15.6696 15.636C15.6696 17.3379 14.2458 16.3327 13.4788 16.5526C13.0327 16.6993 12.5438 16.5832 12.0855 16.5832Z" fill="#758991"/>
</svg>
