<svg width="24" height="24" viewBox="0 0 24 24" fill="none" xmlns="http://www.w3.org/2000/svg">
<path d="M6.50002 18.1111C5.66537 17.3661 4.99343 16.457 4.52624 15.4404C4.05905 14.4239 3.80667 13.3219 3.78487 12.2034C3.76307 11.0849 3.97234 9.97389 4.39957 8.93994C4.8268 7.90599 5.4628 6.97133 6.2678 6.19444C9.59529 2.90666 15.0983 3.05333 18.1111 6.49999C17.7231 7.01332 17.3594 7.54804 16.7422 7.8261C15.5872 7.43499 14.7683 6.46332 13.5278 6.19444C11.2728 5.71777 8.57474 6.58555 7.30668 8.35776C5.68113 10.628 5.59252 13.2741 7.07141 15.4314C7.35252 15.8408 7.76502 16.1739 7.83224 16.7147C7.56641 17.3472 7.01641 17.7077 6.50002 18.1111Z" fill="#FEC335"/>
<path d="M16.8644 7.74361C16.8821 7.419 17.0192 7.1124 17.2493 6.88281C17.4795 6.65322 17.7864 6.51687 18.1111 6.5C19.6508 8.03973 20.5158 10.128 20.5158 12.3055C20.5158 14.483 19.6508 16.5714 18.1111 18.1111C16.5714 19.6508 14.483 20.5158 12.3055 20.5158C10.128 20.5158 8.03973 19.6508 6.5 18.1111C6.5232 17.7915 6.66187 17.4913 6.89013 17.2664C7.11839 17.0415 7.42065 16.9073 7.74055 16.8889C8.35166 16.73 8.79166 17.1761 9.28361 17.3991C11.8014 18.5572 14.5483 18.16 16.345 16.3603C18.1416 14.5605 18.5511 11.6853 17.3075 9.17361C17.0905 8.70611 16.7086 8.30889 16.8644 7.74361Z" fill="#FCB318"/>
<path d="M16.8645 7.7436C20.1675 11.835 17.995 17.1852 13.8517 18.2272C11.6059 18.7894 9.57393 18.2975 7.7406 16.8644C5.54672 14.5269 4.90505 11.9755 6.46949 8.99026C6.91101 8.13284 7.54501 7.38926 8.32184 6.81774C9.09867 6.24622 9.99724 5.86226 10.9472 5.69595C11.8972 5.52963 12.8728 5.58546 13.7975 5.85906C14.7223 6.13267 15.5712 6.61663 16.2778 7.27304C16.4611 7.4411 16.6689 7.58776 16.8645 7.7436Z" fill="#FFD168"/>
<path d="M9.81526 15.5719C9.67632 15.4234 9.58447 15.2371 9.5513 15.0364C9.51813 14.8357 9.54512 14.6298 9.62887 14.4444C10.185 13.2558 9.71443 12.4308 8.80388 11.6944C8.52276 11.4592 8.01554 11.2117 8.21721 10.7503C8.41888 10.2889 8.94443 10.4722 9.31415 10.4936C10.3683 10.5944 11.0405 10.2522 11.3278 9.16749C11.4469 8.7061 11.7678 8.29666 12.0764 7.72221C12.3226 8.10753 12.5411 8.50983 12.7303 8.9261C13.1336 10.0567 13.8089 10.7014 15.1044 10.4936C15.41 10.4447 15.8897 10.3317 16.0639 10.7136C16.2655 11.1597 15.7919 11.3247 15.5108 11.4683C13.7172 12.4522 14.42 13.9953 14.7439 15.908C12.9655 14.3314 11.34 14.0991 9.81526 15.5719Z" fill="#FCB317"/>
</svg>
