<svg width="24" height="24" viewBox="0 0 24 24" fill="none" xmlns="http://www.w3.org/2000/svg">
<path d="M6.2464 18.0744C4.58418 16.4061 4.05557 14.5147 3.93335 12.055C3.75002 8.31194 5.50085 6.17 8.36084 4.5475C11.0772 3.01972 15.9997 3.95778 18.0714 6.2525C17.9652 6.5721 17.785 6.86211 17.5456 7.09892C17.3061 7.33573 17.0141 7.51265 16.6933 7.61527C15.9325 7.61527 15.3917 7.08666 14.7592 6.78722C12.2811 5.61083 9.86112 6.005 7.93001 7.92083C5.9989 9.83666 5.61085 12.275 6.78112 14.75C7.08668 15.3825 7.60918 15.9203 7.61529 16.6811C7.51666 17.0066 7.34061 17.3035 7.10221 17.5461C6.86381 17.7888 6.57016 17.97 6.2464 18.0744Z" fill="#D4DBE0"/>
<path d="M6.2464 18.0744C6.54036 17.5947 6.94079 17.189 7.41667 16.8889C8.02778 16.4886 8.47084 16.9561 8.94445 17.1944C11.67 18.5939 14.4444 18.2975 16.3572 16.3816C18.2242 14.4994 18.5419 11.5905 17.1944 8.94443C16.9561 8.47388 16.4886 8.02777 16.8889 7.41666C17.1905 6.93775 17.6009 6.53679 18.0867 6.24638C22.0772 10.408 20.745 17.9003 15.1564 19.8191C11.9725 20.91 8.83751 20.5555 6.2464 18.0744Z" fill="#91A5AF"/>
<path d="M16.8889 7.41666C17.4144 8.90777 18.5022 10.1239 18.4656 11.9053C18.3586 17.228 13.4331 20.1552 8.76113 17.5489C8.31502 17.3105 7.98808 16.8461 7.41669 16.8889C7.07141 15.7308 6.19447 14.8294 5.90725 13.6286C5.23503 10.7258 6.30447 8.43416 8.60224 6.8086C10.6861 5.33583 13.0022 5.35722 15.2847 6.61916C15.8011 6.8911 16.2106 7.41666 16.8889 7.41666Z" fill="#B2BFC6"/>
<path d="M13.8333 12.0336C13.8333 12.9503 13.8578 13.8669 13.8333 14.7836C13.8089 15.7003 13.5278 16.4794 12.4217 16.6169C11.3156 16.7544 10.405 16.2839 10.2828 15.1686C10.049 13.0992 10.0685 11.0091 10.3408 8.94443C10.4875 7.95138 11.1781 7.40138 12.1742 7.50527C13.1703 7.60916 13.8608 8.17443 13.8578 9.30499C13.8333 10.2064 13.8333 11.12 13.8333 12.0336Z" fill="#758992"/>
</svg>
