<svg width="24" height="24" viewBox="0 0 24 24" fill="none" xmlns="http://www.w3.org/2000/svg">
<path d="M6.2464 18.0744C4.58418 16.4061 4.05557 14.5147 3.93335 12.055C3.75002 8.31194 5.50085 6.17 8.36084 4.5475C11.0772 3.01972 15.9997 3.95778 18.0714 6.2525C17.9652 6.5721 17.785 6.86211 17.5456 7.09892C17.3061 7.33573 17.0141 7.51265 16.6933 7.61527C15.9844 7.61527 15.4711 7.14472 14.8967 6.85749C12.3361 5.58333 9.89473 5.95916 7.93306 7.92083C5.9714 9.88249 5.60779 12.3819 6.8514 14.8875C7.15695 15.4711 7.6214 15.9753 7.61529 16.6841C7.51623 17.0091 7.33999 17.3053 7.10162 17.5474C6.86325 17.7895 6.56982 17.9703 6.2464 18.0744Z" fill="#D4DBE0"/>
<path d="M6.2464 18.0744C6.54036 17.5947 6.94079 17.189 7.41667 16.8889C8.02778 16.4886 8.47084 16.9561 8.94445 17.1944C11.67 18.5939 14.4444 18.2975 16.3572 16.3816C18.2242 14.4994 18.5419 11.5905 17.1944 8.94443C16.9561 8.47388 16.4886 8.02777 16.8889 7.41666C17.1905 6.93775 17.6009 6.53679 18.0867 6.24638C22.0772 10.408 20.745 17.9003 15.1564 19.8191C11.9725 20.91 8.83751 20.5555 6.2464 18.0744Z" fill="#91A5AF"/>
<path d="M16.8889 7.41666C17.4144 8.90777 18.5022 10.1239 18.4655 11.9053C18.3586 17.228 13.433 20.1552 8.76109 17.5489C8.31498 17.3105 7.98804 16.8461 7.41665 16.8889C7.35554 16.1403 6.77498 15.6666 6.46943 15.028C5.17999 12.3575 5.5986 9.70221 7.72221 7.59694C9.76331 5.55889 12.3697 5.18305 15.025 6.4725C15.6391 6.775 16.125 7.35555 16.8889 7.41666Z" fill="#B2BFC6"/>
<path d="M9.43642 10.1942C10.5731 10.1942 11.3125 10.1575 12.0459 10.2094C12.4186 10.2369 13.0878 9.92221 13.0572 10.683C13.0328 11.2605 12.7517 11.7403 12.0031 11.6883C11.2972 11.6394 10.5853 11.6669 9.86419 11.6883C9.53114 11.6883 9.04531 11.5905 9.02086 12.0886C8.99031 12.718 9.54947 12.5653 9.91614 12.5867C10.4234 12.6142 10.9306 12.5867 11.4439 12.6019C11.725 12.6019 12.1406 12.5164 12.1681 12.9319C12.1956 13.3475 12.0184 13.7691 11.5234 13.8119C10.9734 13.8608 10.4142 13.8119 9.81225 13.8119C10.6464 15.468 12.3422 15.7889 13.9922 14.6125C14.5606 14.2091 14.9334 13.7508 15.5781 14.533C16.3022 15.413 15.4711 15.7247 15.0525 16.0883C13.1611 17.7536 9.90086 17.3716 8.2417 15.3611C7.75281 14.7683 7.59392 13.8089 6.55809 13.7936C6.47864 13.7936 6.40226 13.6836 6.32587 13.6225C7.8292 12.7517 5.27781 10.7105 7.4167 9.91916C7.98809 9.70832 8.27836 8.82221 8.78558 8.33944C9.59097 7.59368 10.6257 7.14342 11.7203 7.06238C12.815 6.98134 13.9047 7.27431 14.8111 7.89333C15.132 8.11638 15.8347 8.28444 15.242 8.86194C14.8784 9.21944 14.6645 9.9986 13.8028 9.4486C12.4064 8.55333 11.0375 8.7336 9.43642 10.1942Z" fill="#758992"/>
</svg>
