<svg width="24" height="24" viewBox="0 0 24 24" fill="none" xmlns="http://www.w3.org/2000/svg">
<path d="M6.5 18.1111C5.66414 17.3669 4.99111 16.458 4.52314 15.4414C4.05516 14.4248 3.80234 13.3224 3.78053 12.2035C3.75873 11.0846 3.96841 9.9732 4.39643 8.93914C4.82444 7.90507 5.46155 6.97063 6.26778 6.19444C9.58305 2.90666 15.0922 3.05333 18.0897 6.49999C17.7047 7.01332 17.3411 7.54804 16.7208 7.8261C15.5811 7.43499 14.75 6.46332 13.5278 6.19444C11.2728 5.71777 8.56861 6.58555 7.30055 8.35776C5.675 10.628 5.58639 13.2741 7.06528 15.4314C7.34639 15.8408 7.76194 16.1739 7.82611 16.7147C7.55111 17.3472 7.00111 17.7077 6.5 18.1111Z" fill="#FEC335"/>
<path d="M6.5 18.1111C6.52328 17.791 6.66238 17.4904 6.89127 17.2654C7.12016 17.0405 7.42317 16.9066 7.74361 16.8889C8.35472 16.73 8.79472 17.1761 9.27138 17.3991C11.7892 18.5572 14.5392 18.16 16.3389 16.3603C18.1386 14.5605 18.545 11.6853 17.3014 9.1736C17.0844 8.73055 16.6903 8.33333 16.8583 7.76805C16.8755 7.44771 17.0092 7.14472 17.2344 6.91619C17.4595 6.68767 17.7605 6.54942 18.0805 6.5275C19.4697 8.09141 20.209 10.1269 20.1473 12.2177C20.0856 14.3086 19.2276 16.297 17.7487 17.7763C16.2698 19.2556 14.2816 20.1141 12.1908 20.1763C10.0999 20.2386 8.06428 19.4998 6.5 18.1111Z" fill="#FCB318"/>
<path d="M16.8614 7.74361C20.1644 11.835 17.9889 17.1944 13.8333 18.2272C12.7801 18.5077 11.6749 18.5303 10.6111 18.2931C9.54736 18.0559 8.55642 17.5658 7.72221 16.8644C5.52221 14.5269 4.88054 11.9755 6.44804 8.99027C6.89021 8.13058 7.52554 7.38502 8.3042 6.81208C9.08287 6.23914 9.98368 5.85439 10.936 5.68802C11.8883 5.52166 12.8662 5.57819 13.793 5.8532C14.7198 6.1282 15.5703 6.61419 16.2777 7.27305C16.455 7.44111 16.6627 7.58777 16.8614 7.74361Z" fill="#FFD168"/>
<path d="M13.8333 12.1008C13.8333 12.9625 13.8333 13.8211 13.8333 14.6828C13.8333 15.7491 13.3077 16.4 12.2627 16.565C11.065 16.7544 10.3225 16.0364 10.2461 15.0005C10.1068 13.0861 10.1109 11.1639 10.2583 9.24999C10.2675 9.00446 10.3269 8.76341 10.4328 8.54171C10.5388 8.32 10.6889 8.12233 10.8742 7.96088C11.0594 7.79942 11.2757 7.67761 11.5098 7.60293C11.7439 7.52825 11.9908 7.5023 12.2352 7.52666C13.2955 7.61528 13.9189 8.33944 13.8425 9.52805C13.7905 10.3775 13.8333 11.2422 13.8333 12.1008Z" fill="#FCB317"/>
</svg>
