<svg width="24" height="24" viewBox="0 0 24 24" fill="none" xmlns="http://www.w3.org/2000/svg">
<path d="M3.8386 16.5619C1.91666 16.6536 1.91666 16.6536 2.17332 14.75C2.75693 10.6189 6.68943 7.11111 10.8817 6.71389C16.8094 6.15778 20.1461 9.65028 21.5089 13.0419C21.7265 13.5535 21.8913 14.0858 22.0008 14.6308C22.34 16.5619 22.233 16.6689 20.2469 16.5558C19.813 16.1831 19.8589 15.6392 19.7458 15.1564C18.8903 11.5447 15.7736 8.81 12.1467 8.82834C9.19804 8.84361 5.74832 10.4722 4.54749 14.75C4.3611 15.3611 4.29082 16.0364 3.8386 16.5619Z" fill="#F37147"/>
<path d="M3.83862 16.5619C4.44973 10.6097 9.43946 7.11111 14.75 8.92306C18.0072 10.0353 20.1339 12.99 20.25 16.5619L18.49 16.5833C17.9889 16.3358 18.0622 15.8286 17.9553 15.4039C17.2464 12.6294 14.8997 10.6647 12.2353 10.6006C9.48529 10.5364 7.19362 12.2689 6.29835 15.0831C6.13029 15.6117 6.02335 16.1617 5.6139 16.5742L3.83862 16.5619Z" fill="#FDED5A"/>
<path d="M5.61389 16.5833C6.06611 12.8739 8.27834 10.5364 11.6211 10.2369C14.4475 9.98639 17.2311 11.8442 18.1539 14.6614C18.3139 15.2927 18.4262 15.9352 18.49 16.5833C17.3106 16.782 16.6108 16.5589 16.2381 15.1533C15.7125 13.1703 14.0228 12.2108 11.9358 12.2475C10.0322 12.2811 8.23861 13.3231 7.93306 15.1136C7.64889 16.7728 6.75361 16.6781 5.61389 16.5833Z" fill="#49B4E5"/>
</svg>
