<svg width="24" height="24" viewBox="0 0 24 24" fill="none" xmlns="http://www.w3.org/2000/svg">
<path d="M4.09827 6.5947C5.51909 6.57026 6.93687 6.52443 8.3577 6.52748C8.95047 6.52748 9.31103 6.44804 9.27436 5.71776C9.19186 3.94249 10.9152 3.44444 11.7677 2.31389C11.8441 2.22222 12.1496 2.22222 12.3055 2.26194C13.2221 2.54611 14.9455 5.03332 14.9485 6.04471C14.9485 7.10804 14.9821 8.18359 14.9485 9.24081C14.918 9.96803 15.1807 10.2339 15.9079 10.2033C16.9743 10.1575 18.0468 10.2339 19.1071 10.1789C19.9107 10.1361 20.2927 10.3041 20.2682 11.233C20.1979 13.9219 20.2163 16.6108 20.201 19.2997C19.6296 19.8558 18.8963 19.7947 18.1966 19.7977C14.148 19.7977 10.0994 19.8222 6.05076 19.7977C4.05549 19.7977 3.93021 19.6297 3.93021 17.6313C3.93021 14.4444 3.93021 11.2575 3.93021 8.07053C3.93632 7.57859 3.78354 7.05609 4.09827 6.5947Z" fill="#556F7A"/>
<path d="M4.09833 6.59471C4.09833 10.3897 4.13805 14.1847 4.07999 17.9766C4.05555 19.0583 4.42527 19.3333 5.46721 19.3333C10.3775 19.2844 15.2877 19.3058 20.198 19.2997C20.528 20.8061 19.9994 21.2736 18.4074 21.2247C14.203 21.0994 9.99247 21.1422 5.78499 21.2063C4.53221 21.2247 3.85694 21.0597 3.88138 19.5563C3.94555 15.4038 3.86305 11.2514 3.85388 7.1111C3.85388 6.93082 4.01277 6.76277 4.09833 6.59471Z" fill="#758A94"/>
<path d="M11.9297 6.56109C11.0741 6.65887 11.1169 6.07526 11.1016 5.4886C11.0833 4.75527 11.5263 4.7186 12.0886 4.69416C12.8586 4.66054 13.0052 5.04249 13.0205 5.71471C13.0297 6.53054 12.5591 6.61609 11.9297 6.56109Z" fill="#83CCEC"/>
<path d="M5.62912 9.31719C5.52828 8.60525 5.83995 8.34248 6.54578 8.34553C7.25161 8.34859 7.53272 8.57164 7.52661 9.29275C7.5205 10.0139 7.28522 10.2736 6.57022 10.2705C5.85523 10.2675 5.53134 10.0444 5.62912 9.31719Z" fill="#83CCED"/>
<path d="M12.9991 9.36303C13.0877 10.133 12.6416 10.2553 11.9969 10.2797C11.2299 10.295 11.1108 9.89775 11.0802 9.25303C11.0833 8.47387 11.4652 8.3547 12.113 8.33331C12.8738 8.33331 13.0785 8.69998 12.9991 9.36303Z" fill="#83CCED"/>
<path d="M7.49918 12.8494C7.60001 13.6439 7.28223 13.9158 6.56113 13.9219C5.84002 13.928 5.58335 13.6225 5.60474 12.9166C5.60474 12.2841 5.81863 12 6.49085 12C7.16307 12 7.64584 12.0886 7.49918 12.8494Z" fill="#83CCEC"/>
<path d="M12.1038 12.0366C12.9075 11.9297 13.0205 12.4064 13.0205 13.0541C13.0358 13.8791 12.5347 13.9036 11.9266 13.9158C11.2147 13.9158 11.1169 13.5338 11.0986 12.9502C11.0833 12.2016 11.3888 11.9327 12.1038 12.0366Z" fill="#83CCEC"/>
<path d="M17.5672 13.8944C16.8369 13.9983 16.568 13.6714 16.5863 12.9502C16.6016 12.3391 16.7483 12 17.4449 12.0122C18.0805 12.0122 18.5235 12.1008 18.5113 12.9044C18.4991 13.5766 18.3402 14.0014 17.5672 13.8944Z" fill="#83CCEC"/>
<path d="M6.64359 15.688C7.46858 15.5933 7.51747 16.1127 7.52664 16.733C7.54192 17.5855 6.9797 17.5305 6.4022 17.5488C5.67192 17.5733 5.62914 17.1333 5.60776 16.5711C5.58331 15.7858 5.98053 15.6024 6.64359 15.688Z" fill="#83CCEC"/>
<path d="M12.9991 16.5833C13.0969 17.3044 12.7669 17.5763 12.0519 17.5611C11.4652 17.5611 11.0833 17.4388 11.0955 16.73C11.0955 16.1188 11.1597 15.6422 11.9786 15.6697C12.6111 15.685 13.0969 15.7766 12.9991 16.5833Z" fill="#83CCEC"/>
<path d="M17.5366 17.5244C16.6444 17.6405 16.5955 17.1272 16.5863 16.5008C16.5863 15.798 16.9438 15.6819 17.5396 15.6666C18.2638 15.6452 18.5174 15.9294 18.5113 16.6444C18.5052 17.3594 18.1569 17.6405 17.5366 17.5244Z" fill="#83CCEC"/>
</svg>
