<svg width="24" height="24" viewBox="0 0 24 24" fill="none" xmlns="http://www.w3.org/2000/svg">
<path d="M2.90978 11.3644C2.90978 9.89472 2.90978 8.42194 2.85783 6.95222C2.80589 5.4825 3.61256 4.75222 4.96006 4.74C9.77561 4.69111 14.5942 4.70028 19.4098 4.74C20.5495 4.74 21.1667 5.41222 21.1637 6.57333C21.1637 8.10111 21.1453 9.62889 21.1362 11.1567C19.8406 11.8411 18.4748 11.5264 17.1303 11.4164C16.6262 11.3767 16.3603 10.9764 16.1892 10.5272C16.0085 9.94151 15.6348 9.43424 15.1289 9.08805C13.1948 8.50139 11.2453 8.7275 9.32339 9.01778C8.68478 9.1125 8.27533 9.62889 8.05533 10.2217C7.68256 11.2361 6.92783 11.5936 5.91645 11.5325C4.90506 11.4714 3.89061 11.7281 2.90978 11.3644Z" fill="#8AD4E2"/>
<path d="M21.1668 12.9564C21.1668 14.5269 21.1668 16.1006 21.1668 17.6742C21.1668 18.8017 20.6504 19.3486 19.5046 19.3456C14.5871 19.3374 9.66872 19.3333 4.74928 19.3333C3.49039 19.3333 2.88539 18.6672 2.87622 17.4572C2.87622 15.9294 2.90678 14.4017 2.92511 12.8922C4.19928 12.1619 5.55289 12.5103 6.89733 12.6111C7.0764 12.6231 7.248 12.6874 7.39085 12.7961C7.5337 12.9047 7.64152 13.0529 7.70094 13.2222C8.31205 15.2114 9.86428 15.3611 11.5662 15.2175C11.7169 15.2099 11.8678 15.2099 12.0184 15.2175C12.7762 15.1778 13.5462 15.2358 14.2948 15.1778C14.6235 15.1702 14.9451 15.0803 15.2301 14.9165C15.5151 14.7526 15.7545 14.5199 15.9265 14.2397C17.1457 12.3361 18.9882 11.89 21.1668 12.9564Z" fill="#89D3E1"/>
<path d="M12.0001 15.6667C11.2912 15.6667 10.5823 15.6667 9.87646 15.7155C8.6084 15.7919 7.78646 15.1319 7.55729 13.9892C7.36479 13.0328 6.88507 12.9289 6.09674 12.9533C5.04868 12.9717 3.98535 12.9167 2.92507 12.9167L2.90674 11.3889C3.46285 11.0467 4.07702 11.1475 4.6759 11.1444C6.07229 11.1444 7.69174 11.5905 7.9209 9.36916C7.95757 9.02388 8.4159 8.7336 8.83757 8.66332C11.0101 8.30582 13.1826 8.05221 15.3581 8.66332C14.9456 9.13999 14.3681 9.13999 13.8303 9.13082C12.7517 9.10943 12.4462 9.68693 12.4615 10.6586C12.4818 11.8177 12.4818 12.9757 12.4615 14.1328C12.437 14.6492 12.4187 15.2083 12.0001 15.6667Z" fill="#7E8D94"/>
<path d="M12 15.6667C12 13.8578 12.1009 12.0428 11.9786 10.2431C11.8839 8.85278 12.4125 8.44639 13.6928 8.61445C14.2479 8.65692 14.8051 8.66508 15.3611 8.63889C15.8042 8.81612 16.3084 9.12778 16.3297 9.55556C16.4306 11.6486 17.937 11.1353 19.1592 11.1658C19.8192 11.1811 20.4792 11.1658 21.1392 11.1658C21.1392 11.7769 21.1392 12.3881 21.1636 12.9808C20.4578 12.9808 19.752 13.0267 19.0492 13.0083C17.827 12.9747 16.565 12.7028 16.3511 14.6003C16.2686 15.355 15.41 15.7431 14.5789 15.7431C13.7478 15.7431 12.8647 15.6667 12 15.6667Z" fill="#465B65"/>
</svg>
