<svg width="24" height="24" viewBox="0 0 24 24" fill="none" xmlns="http://www.w3.org/2000/svg">
<path d="M21.1146 9.24997C20.9466 9.5983 20.6166 9.55553 20.3263 9.55553C19.8282 9.55553 19.5838 9.7633 19.5991 10.2766C19.5991 10.7044 19.6266 11.1414 20.2102 11.1169C21.4966 11.0558 21.1696 11.9969 21.1757 12.6844C21.1818 13.3719 21.4416 14.1236 20.2591 14.1663C19.1713 14.2091 19.7427 15.138 19.6266 15.6941C19.7518 16.8094 19.541 18.1111 21.1268 18.4227C20.2927 18.7283 19.4982 18.9819 19.3118 20.1216C19.1805 20.9283 18.4166 21.2247 17.5519 21.2186C13.8669 21.1666 10.1849 21.1666 6.49993 21.1452C6.05077 20.6533 6.02632 20.0422 6.02327 19.4341C6.00799 15.6391 5.99882 11.8441 6.02327 8.0522C5.97385 7.49234 6.11022 6.93178 6.41132 6.4572C6.87577 6.0722 7.43799 6.03859 7.99715 6.03554C11.3583 6.00498 14.6949 6.01109 18.0438 6.03554C18.6055 5.98877 19.1668 6.1307 19.6388 6.43887L19.6021 6.57026C19.758 7.65498 19.5349 8.94442 21.1146 9.24997Z" fill="#A48AC0"/>
<path d="M6.56413 6.4511C6.5458 11.34 6.52645 16.238 6.50608 21.1452C5.21358 21.2247 4.78275 20.3722 4.77358 19.3302C4.73386 14.5239 4.74608 9.71443 4.77358 4.90805C4.77358 4.11666 5.01191 3.40166 5.85219 3.07472C7.27913 3.02277 6.7933 4.13805 6.94608 4.86527C6.94608 5.42444 6.96441 5.98666 6.56413 6.4511Z" fill="#795EA8"/>
<path d="M6.56411 6.45109L6.54883 5.02415C6.82688 4.33054 7.44716 4.23887 8.05827 4.22665C11.3522 4.16554 14.643 4.18387 17.9369 4.22665C18.4494 4.20757 18.9512 4.37595 19.3485 4.70026C19.8557 5.21359 19.5196 5.87359 19.6541 6.45109C15.2846 6.63442 10.9244 6.61303 6.56411 6.45109Z" fill="#FAF9FC"/>
<path d="M19.3485 4.68804C15.6636 4.68804 11.9796 4.70026 8.29663 4.72471C7.70079 4.72471 7.07441 4.59026 6.54885 5.03026C6.31969 4.3611 7.01024 3.38332 5.83997 3.07471C6.8483 2.61332 7.91163 2.91277 8.9444 2.89443C11.6944 2.84555 14.478 2.89443 17.2463 2.86999C18.5144 2.85777 19.2385 3.3986 19.3485 4.68804Z" fill="#A58BC1"/>
<path d="M21.1208 18.3922C19.1347 18.3922 18.8658 17.8941 19.6205 15.6636C21.3377 15.7247 21.3377 15.7247 21.1208 18.3922Z" fill="#7A5FA9"/>
<path d="M21.1147 9.24997C19.1286 9.24997 18.9086 8.84358 19.6083 6.58553C21.35 6.49998 21.35 6.49998 21.1147 9.24997Z" fill="#795EA7"/>
<path d="M12.8494 18.4166C11.7861 18.4166 10.7105 18.435 9.65636 18.4166C9.2347 18.4166 8.67553 18.6244 8.43414 18.0652C8.19276 17.5061 8.40664 17.008 8.80998 16.5375C10.0628 15.0952 12.9166 14.4444 14.9822 15.2022C15.595 15.4432 16.1859 15.7366 16.7483 16.0791C17.4694 16.4886 17.6375 17.1883 17.4541 17.9125C17.2555 18.7008 16.5375 18.3708 16.0425 18.3922C14.9791 18.4472 13.9127 18.4166 12.8494 18.4166Z" fill="#785DA7"/>
<path d="M15.6665 11.2361C15.6665 12.8464 14.6246 13.8516 12.996 13.8302C11.5049 13.815 10.2063 12.5744 10.246 11.1933C10.2704 9.91608 11.7585 8.37608 12.9685 8.37608C13.7039 8.40241 14.3993 8.71728 14.9043 9.25255C15.4092 9.78781 15.6831 10.5004 15.6665 11.2361Z" fill="#785DA8"/>
</svg>
