<svg width="24" height="24" viewBox="0 0 24 24" fill="none" xmlns="http://www.w3.org/2000/svg">
<path d="M12.3422 2.87917C16.8675 3.18472 20.6869 6.49693 21.1422 10.4905C21.7075 15.4711 19.2722 19.4097 14.7256 20.9008C13.8566 21.1775 12.936 21.2527 12.0336 21.1208C11.5508 20.6533 11.5203 20.0391 11.5172 19.428C11.4989 14.5177 11.4897 9.60748 11.5172 4.69722C11.5356 3.99444 11.5325 3.24583 12.3422 2.87917Z" fill="#414DA1"/>
<path d="M12.3422 2.87917C11.8961 3.40472 12.0581 4.03416 12.055 4.62694C12.0428 10.1269 12.0428 15.6269 12.055 21.1269C7.59697 22.01 2.83337 16.7727 2.83337 12.8311C2.87615 6.80555 6.65586 2.79361 12.3422 2.87917Z" fill="#B1B7DC"/>
</svg>
