<svg width="24" height="24" viewBox="0 0 24 24" fill="none" xmlns="http://www.w3.org/2000/svg">
<path d="M1.02527 18.3972V5.88991C1.30022 5.3064 1.36743 4.53348 2.27783 4.53654C6.88785 4.49682 11.4979 4.53654 16.1079 4.51821C17.0244 4.51821 17.8798 4.61291 17.9562 5.79826C18.2617 10.338 18.6039 14.8747 17.7087 19.3931C17.2902 19.9552 16.6609 19.9644 16.056 19.9736C11.8034 20.0377 7.55385 20.0011 3.30126 19.998C2.09453 20.0041 1.42242 19.445 1.02527 18.3972Z" fill="#00ACC1"/>
<path d="M22.9786 12.611C21.3961 14.166 20.2505 16.0631 18.8849 17.8045C18.4572 18.3452 18.1608 19.0265 17.4765 19.332C17.4765 15.0244 17.4765 10.7168 17.5376 6.41231C17.5529 5.2178 17.0152 4.97645 15.9673 4.98562C11.3054 4.9734 6.64341 4.9734 1.97839 4.9734C2.40304 4.59152 2.92545 4.6679 3.42647 4.6679C7.731 4.6679 12.0386 4.6679 16.3462 4.64957C16.7442 4.62033 17.1427 4.69948 17.4993 4.87861C17.856 5.05774 18.1574 5.33015 18.3716 5.66689C19.8503 7.72292 21.4358 9.6873 22.9786 11.6944V12.611Z" fill="#84D1DC"/>
<path d="M8.33587 17.499C7.11386 17.499 5.89185 17.5387 4.69123 17.4807C4.05884 17.4501 3.14233 17.8595 2.93459 16.8208C2.73907 15.8829 2.93459 14.9878 3.75945 14.3768C5.11893 13.3778 6.72587 13.0356 8.34198 12.999C9.7219 12.9649 11.088 13.2802 12.3135 13.9155C13.0345 14.2759 13.6822 14.7495 13.8349 15.666C14.0732 17.0988 13.7616 17.499 12.3074 17.499C10.9754 17.499 9.65869 17.499 8.33587 17.499Z" fill="#84D2DD"/>
<path d="M8.33587 12C6.88473 11.9786 5.60773 10.6802 5.66272 9.28098C5.71529 8.56821 6.02605 7.8991 6.53674 7.39909C7.04742 6.89909 7.72296 6.60255 8.43668 6.56507C9.89698 6.54063 11.1434 7.89706 11.1068 9.46734C11.0701 11.0376 9.99169 12.0274 8.33587 12Z" fill="#84D1DC"/>
</svg>
