<svg width="24" height="24" viewBox="0 0 24 24" fill="none" xmlns="http://www.w3.org/2000/svg">
<path d="M21.1942 12.1741C21.6861 16.6505 16.9164 21.3408 12.0275 21.298C7.13863 21.2552 2.76919 16.678 2.86697 12.2261C2.98002 7.03165 6.90946 3.02888 11.9022 2.8486C16.5497 2.6836 21.6769 7.01637 21.1942 12.1741Z" fill="#8B7068"/>
<path d="M12.9411 11.8961C12.88 13.0572 12.3453 13.7294 11.2086 13.8241C9.98643 13.925 9.37532 13.1458 9.35087 12.1222C9.34763 11.8794 9.39266 11.6384 9.48335 11.4131C9.57403 11.1878 9.70856 10.9828 9.87912 10.81C10.0497 10.6372 10.2529 10.4999 10.4769 10.4063C10.701 10.3126 10.9414 10.2644 11.1842 10.2644C11.4087 10.2476 11.6342 10.2773 11.8467 10.3517C12.0591 10.4261 12.2539 10.5435 12.4189 10.6967C12.5838 10.8499 12.7153 11.0355 12.8052 11.2419C12.8951 11.4483 12.9414 11.671 12.9411 11.8961Z" fill="#6E4E43"/>
<path d="M12.9167 6.35638C12.88 6.87888 12.4828 7.36165 11.6364 7.41971C10.7197 7.48693 10.3103 6.86971 10.2706 6.14249C10.2601 5.96527 10.2862 5.78778 10.3471 5.62105C10.4081 5.45431 10.5027 5.30189 10.6251 5.17325C10.7474 5.0446 10.8949 4.94247 11.0583 4.87319C11.2218 4.80392 11.3978 4.76898 11.5753 4.77055C12.2597 4.76138 12.9381 5.13721 12.9167 6.35638Z" fill="#6F4E43"/>
<path d="M17.5 15.303C17.4022 16.1097 16.9683 16.5619 16.125 16.5711C15.2083 16.5711 14.8203 15.9264 14.8447 15.2144C14.8443 15.0366 14.8805 14.8605 14.9511 14.6973C15.0217 14.534 15.1251 14.3871 15.2549 14.2655C15.3848 14.144 15.5383 14.0505 15.7058 13.9908C15.8734 13.9312 16.0514 13.9067 16.2289 13.9189C16.9469 13.9647 17.5642 14.3741 17.5 15.303Z" fill="#6F4F44"/>
<path d="M7.41666 9.28665C7.37388 9.80914 7.1386 10.1819 6.57943 10.1178C6.35113 10.1146 6.13321 10.0218 5.97262 9.8595C5.81203 9.69719 5.7216 9.47831 5.72083 9.24998C5.73348 9.01816 5.83661 8.80058 6.00804 8.64401C6.17946 8.48744 6.40548 8.40441 6.63749 8.41276C7.19055 8.37915 7.3861 8.78554 7.41666 9.28665Z" fill="#705045"/>
<path d="M9.30499 16.623C9.42025 16.6113 9.53668 16.6252 9.64593 16.6637C9.75519 16.7023 9.85456 16.7645 9.93692 16.846C10.0193 16.9275 10.0826 17.0262 10.1223 17.135C10.162 17.2439 10.1772 17.3601 10.1667 17.4755C10.185 17.9247 10.0078 18.2944 9.5311 18.3494C9.40679 18.3726 9.27895 18.3691 9.15612 18.339C9.03329 18.3089 8.9183 18.2529 8.81882 18.1748C8.71933 18.0967 8.63765 17.9983 8.57923 17.8862C8.5208 17.774 8.48697 17.6507 8.47999 17.5244C8.41582 17.0202 8.86805 16.7727 9.30499 16.623Z" fill="#705045"/>
<path d="M17.4665 8.51971C17.3809 8.96887 17.1334 9.26832 16.6567 9.21026C16.4264 9.20477 16.2072 9.11043 16.0449 8.94698C15.8826 8.78353 15.7898 8.56363 15.7859 8.33332C15.7818 8.21982 15.8029 8.10682 15.8476 8.00242C15.8923 7.89802 15.9596 7.80481 16.0446 7.72947C16.1296 7.65412 16.2302 7.59851 16.3392 7.56662C16.4482 7.53472 16.5629 7.52733 16.6751 7.54498C16.9007 7.58815 17.1038 7.70962 17.2486 7.88795C17.3934 8.06629 17.4705 8.29003 17.4665 8.51971Z" fill="#705045"/>
</svg>
