<svg width="24" height="24" viewBox="0 0 24 24" fill="none" xmlns="http://www.w3.org/2000/svg">
<path d="M16.8888 4.66667C17.0202 5.52528 17.7138 5.21056 18.2119 5.29612C19.5716 5.53139 20.3324 6.09667 20.2866 7.71305C20.1582 11.78 20.2499 15.8469 20.2499 19.9139C20.2499 21.8633 20.0421 22.0528 18.0285 22.0528C14.973 22.0528 11.9246 22.0528 8.88327 22.0528C6.70772 22.0528 6.70772 22.0528 6.82688 19.9139C6.84522 19.6083 6.82688 19.3028 6.82688 18.9972C6.29139 18.3788 6.01552 17.5775 6.05688 16.7605C6.05688 14.0105 6.03244 11.2819 6.05688 8.54111C6.08744 6.19445 7.07133 5.21667 9.39049 5.13723C10.2002 5.10973 11.016 5.0975 11.8349 5.13723C13.5332 5.21546 15.2341 5.05709 16.8888 4.66667Z" fill="#EDEFF0"/>
<path d="M16.8889 4.66667C16.1005 5.58333 15.08 5.65667 13.9586 5.60778C12.3361 5.5375 10.7075 5.58028 9.06973 5.60778C7.38612 5.60778 6.52446 6.44194 6.51834 8.07972C6.50307 11.1353 6.49696 14.1908 6.51834 17.2219C6.56824 17.8212 6.66427 18.4157 6.80557 19.0003C6.52946 18.8789 6.2418 18.7857 5.94696 18.7222C2.85168 18.3983 2.85168 18.4166 2.85168 15.3855C2.85168 11.6802 2.85168 7.97379 2.85168 4.26639C2.85168 2.45445 3.36502 1.94723 5.21362 1.94112C8.21214 1.94112 11.2086 1.94112 14.2031 1.94112C16.3175 1.94723 16.8308 2.48195 16.8889 4.66667Z" fill="#D0D9DD"/>
</svg>
