<svg width="24" height="24" viewBox="0 0 24 24" fill="none" xmlns="http://www.w3.org/2000/svg">
<path d="M21.1666 12C21.1666 13.8333 21.1666 15.6666 21.185 17.4816C21.2033 18.7436 20.6778 19.3333 19.37 19.3333C14.5483 19.3048 9.72565 19.3048 4.90196 19.3333C3.49029 19.3333 2.86085 18.6641 2.87613 17.2952C2.89446 15.52 2.90363 13.7447 2.9189 11.9694C4.01585 11.2055 5.25945 11.6089 6.44195 11.5325C7.19573 11.479 7.95234 11.479 8.70611 11.5325C12.1375 11.4744 15.5689 11.505 19.0003 11.505C19.7519 11.5172 20.5311 11.4561 21.1666 12Z" fill="#71B2E2"/>
<path d="M2.89754 8.58692C2.81504 4.92026 3.01976 4.7186 6.68337 4.7186H17.6558C21.1239 4.7186 21.2431 4.84387 21.1545 8.34859C20.6992 8.75498 20.137 8.76415 19.5778 8.76109C14.4597 8.73359 9.34169 8.8497 4.22365 8.8222C3.77143 8.8222 3.30698 8.8497 2.89754 8.58692Z" fill="#71B3E2"/>
<path d="M21.1666 12L8.66028 11.9694C9.12778 10.1361 11.0742 8.4647 12.8433 8.50136C15.6117 8.55636 18.3861 8.2997 21.1514 8.64498C21.1616 9.76738 21.1666 10.8857 21.1666 12Z" fill="#273338"/>
<path d="M21.1483 8.63886C18.7038 8.63886 16.2594 8.72136 13.8333 8.58998C12.3697 8.51359 11.2911 8.92914 10.4019 10.0628C9.86106 10.7502 9.24995 11.3461 8.65717 11.9755H2.91885C2.91885 10.845 2.91885 9.71747 2.89746 8.58998C3.28657 8.49218 3.68311 8.42678 4.08301 8.39442C9.76837 8.36998 15.4629 8.3547 21.1666 8.34859C21.1666 8.44942 21.1666 8.55025 21.1483 8.63886Z" fill="#475C66"/>
</svg>
