<svg width="24" height="24" viewBox="0 0 24 24" fill="none" xmlns="http://www.w3.org/2000/svg">
<path d="M17.5 4.66667C17.7109 4.45278 17.9217 4.23584 18.1325 4.02501C19.3089 2.84862 20.2134 3.0014 21.0231 4.46195C21.2522 4.87751 21.0964 5.10667 20.8214 5.37862C20.4028 5.74834 20.0086 6.13334 19.6114 6.50001C19.422 10.0261 19.2325 13.5583 19.7153 17.0753C19.9078 18.4686 19.5197 19.7672 19.2936 21.0964C18.5 21.2395 17.6895 21.2632 16.8889 21.1667C16.7545 19.7061 15.8684 18.3739 16.1556 16.8431C16.2167 14.6797 16.1556 12.5195 16.2075 10.1208C16.1861 10.1728 15.8745 10.3958 16.0761 10.3653C16.1709 10.35 16.2014 10.405 16.125 10.4997C14.2785 12.7673 12.1973 14.8331 9.91613 16.6628C9.82879 16.7147 9.7354 16.7558 9.63807 16.785C8.84057 16.9867 7.96363 17.2433 7.3678 16.51C6.77196 15.7767 7.08057 14.9822 7.5053 14.2336C8.96585 12.3208 10.8359 10.7961 12.4614 9.03917C12.7884 8.68473 13.3017 8.46778 13.3506 7.90862C11.5172 7.76501 9.68391 7.87501 7.85057 7.85667C6.68641 7.85667 5.51919 7.96362 4.37946 7.5939C3.93335 7.45028 3.2428 7.83223 3.06557 7.16612C2.87918 6.52551 2.87918 5.84506 3.06557 5.20445C3.32224 4.44667 4.20835 5.11584 4.66668 4.68195C4.93563 4.44167 5.26614 4.28097 5.62122 4.21783C5.9763 4.15469 6.34195 4.19161 6.67724 4.32445C8.72752 5.24112 10.8603 4.76445 12.9503 4.81945C14.4659 4.85612 15.9875 5.03028 17.5 4.66667Z" fill="#414EA1"/>
<path d="M4.68499 4.68194C4.31527 5.25944 3.07777 4.6025 3.12665 5.90416C3.16332 6.91861 3.26415 7.47166 4.50165 7.43194C7.57554 7.34639 10.6525 7.38916 13.7294 7.41055C14.035 7.41055 15.1533 7.07444 14.1725 8.05528C12.6378 8.1956 11.0956 8.23745 9.55554 8.18055C8.59915 8.18055 8.18971 8.57166 8.19582 9.53111C8.25393 11.0804 8.21106 12.6318 8.06749 14.1756C7.52971 14.8203 7.06527 15.6697 7.64582 16.3144C8.22638 16.9592 9.12471 16.62 9.86721 16.2625C11.5295 16.1042 13.2004 16.0542 14.8692 16.1128C15.4803 16.1128 16.0914 16.1311 16.5894 16.5772C16.4183 18.105 16.9347 19.6114 16.895 21.1606C16.7483 19.3272 15.4711 19.5197 14.1847 19.5411C11.453 19.5931 8.72138 19.5411 5.99277 19.5747C5.00582 19.5931 4.68193 19.2692 4.70332 18.27C4.76443 15.1319 4.73082 11.9939 4.70332 8.85583C4.70332 8.34861 4.91415 7.64889 3.99138 7.6825C2.10304 7.75278 3.00749 6.31666 2.88221 5.51305C2.71415 4.40389 3.64304 4.74611 4.22971 4.685C4.38127 4.67484 4.53331 4.67382 4.68499 4.68194Z" fill="#656FB4"/>
<path d="M19.2937 21.1086C19.2937 16.7086 19.2937 12.3086 19.2937 7.90861C19.2937 7.43194 19.1012 6.87889 19.6176 6.51222C19.5992 9.55963 19.5809 12.6009 19.5626 15.6361C19.5626 16.1922 19.6023 16.6444 20.3478 16.6108C21.5976 16.5558 21.1545 17.5275 21.1698 18.1386C21.1851 18.7497 21.5273 19.6389 20.3998 19.5533C19.0584 19.4372 19.9445 20.7817 19.2937 21.1086Z" fill="#6970B0"/>
<path d="M17.5 4.66667C17.0447 5.15556 16.4488 4.94472 15.9172 4.94778C12.1588 4.97222 8.41274 5.05472 4.66663 4.66667C4.71246 2.78139 5.04551 2.52778 6.92163 2.87306C7.32801 2.94639 7.65801 3.08694 7.60913 3.49944C7.45024 4.80722 8.30885 4.66361 9.1369 4.66056C11.9236 4.66667 14.7041 4.66667 17.5 4.66667Z" fill="#6D75B5"/>
<path d="M16.5833 16.5833C14.6889 16.5833 12.7944 16.6139 10.9 16.6047C10.5364 16.6047 10.075 16.7819 9.86108 16.2686L16.1036 9.68694L16.5741 9.9161L16.5833 16.5833Z" fill="#FDFDFD"/>
<path d="M8.05226 14.1755C7.22421 13.3903 7.67338 12.388 7.6581 11.4989C7.6031 7.66416 7.63671 7.6336 11.4837 7.68555C12.3759 7.68555 13.3689 7.27916 14.1725 8.05221L8.05226 14.1755Z" fill="#FAFAFB"/>
</svg>
