<svg width="24" height="24" viewBox="0 0 24 24" fill="none" xmlns="http://www.w3.org/2000/svg">
<path d="M11.7311 9.17665C12.388 9.46693 12.6294 8.8711 12.9533 8.56554C14.3711 7.18138 15.795 5.81555 17.1455 4.355C17.7566 3.70111 18.1202 3.79583 18.713 4.38555C20.58 6.23416 20.6044 6.21888 18.7558 8.05221C17.6436 9.16749 16.5588 10.3103 15.3947 11.3797C14.805 11.9297 14.8386 12.2689 15.41 12.8128C16.9561 14.2825 18.4227 15.8347 19.9627 17.3105C20.4333 17.7658 20.4455 18.0041 19.9872 18.5052C17.995 20.6716 18.0194 20.6869 15.9966 18.6733C14.6797 17.3411 13.3352 16.0303 12 14.7133C11.23 12.9166 11.4469 11.0405 11.7311 9.17665Z" fill="#D84444"/>
<path d="M11.7311 9.17665C12.278 11.01 11.8839 12.8708 11.9939 14.7133C10.2614 16.4794 8.51055 18.2333 6.79944 20.0208C6.38083 20.4577 6.15167 20.4211 5.70556 20.0391C3.44445 18.0897 3.42306 18.1111 5.50694 16.0241C6.5825 14.9455 7.6275 13.8333 8.74888 12.8066C9.35999 12.2475 9.29888 11.89 8.74888 11.3614C7.27916 9.95887 5.88583 8.48304 4.41611 7.08359C3.84167 6.53665 3.64306 6.19443 4.31834 5.52832C6.24639 3.59721 6.21583 3.55443 8.1225 5.47638C9.33555 6.6986 10.5303 7.9422 11.7311 9.17665Z" fill="#D4302F"/>
</svg>
