<svg width="24" height="24" viewBox="0 0 24 24" fill="none" xmlns="http://www.w3.org/2000/svg">
<path d="M19.2875 4.08916C19.2875 6.41749 19.2875 8.74684 19.2875 11.0772C19.0798 11.2715 18.8108 11.3872 18.5269 11.4045C18.243 11.4218 17.962 11.3396 17.7322 11.1719C17.0417 10.0597 17.3656 8.82221 17.3839 7.64888C17.3839 6.3961 16.9653 5.85833 15.7095 6.01416C15.025 6.09972 14.2978 5.8461 13.6592 6.27083C13.0481 6.98582 13.3933 7.83221 13.3231 8.61749C13.2742 9.17054 13.3231 9.73276 13.265 10.2858C13.1733 10.9825 12.825 11.4133 12.0703 11.3858C11.395 11.3614 11.0834 10.9428 10.9978 10.3225C10.9403 9.61107 10.9199 8.89714 10.9367 8.1836C10.9153 7.63971 11.062 7.0561 10.6036 6.60694C9.43947 6.19749 8.29058 6.08138 7.1753 6.72916C6.69558 7.54194 6.9828 8.42499 6.90947 9.27138C6.91589 9.72841 6.86352 10.1844 6.75364 10.628C6.68041 10.87 6.52053 11.0764 6.30459 11.2077C6.08866 11.3391 5.83186 11.3862 5.58336 11.34C5.0242 11.285 4.8317 10.9367 4.83475 10.3958C4.83475 8.51971 4.83475 6.64157 4.83475 4.76138C4.83475 4.21444 5.01503 3.90583 5.62308 3.92111C10.1667 4.02805 14.7317 3.71028 19.2875 4.08916Z" fill="#2BA79B"/>
<path d="M19.2875 4.08916C14.9639 4.08916 10.6403 4.11055 6.31976 4.05249C5.25948 4.05249 4.8806 4.35805 4.9356 5.42749C5.0181 6.99804 4.97226 8.57776 4.97226 10.1667C4.97226 10.6555 5.01504 11.0833 5.67198 11.1047C6.38698 11.1353 6.47559 10.7319 6.52143 10.1514C6.63143 8.75193 6.21587 7.32499 6.75059 5.95305C7.58781 6.85443 7.24559 7.97582 7.23643 9.0086C7.23643 10.2553 7.69781 10.6953 8.93837 10.6922C10.1789 10.6891 10.6892 10.3042 10.6617 9.03304C10.6373 8.00027 10.3561 6.89416 11.0864 5.94999C11.6975 7.25166 11.2239 8.62971 11.3584 9.96498C11.4164 10.5211 11.3003 11.1261 12.162 11.1169C13.0236 11.1078 12.8556 10.4386 12.9167 9.90387C13.0542 8.46776 12.5836 6.98888 13.2222 5.58638C13.3387 5.71682 13.4412 5.85918 13.5278 6.0111C13.812 7.06221 13.6836 8.14999 13.6745 9.19498C13.6653 10.24 14.0411 10.7014 15.1045 10.6586C15.8651 10.5797 16.6335 10.622 17.3809 10.7839C17.5379 10.8543 17.684 10.9469 17.8147 11.0589L19.3425 11.0772C19.3425 11.6883 19.3425 12.3208 19.3181 12.9411C18.9086 13.2986 18.4014 13.3078 17.8911 13.3811C17.8136 13.3861 17.7359 13.3745 17.6632 13.3471C17.5905 13.3197 17.5244 13.2771 17.4695 13.2222C14.3681 13.2222 11.2667 13.2405 8.16531 13.1733C7.12643 13.1519 6.70476 13.4269 6.76893 14.5269C6.85448 15.9966 6.80559 17.4725 6.76893 18.9483C6.76893 19.37 6.98587 19.865 6.49087 20.2011C5.87976 19.5166 6.08143 18.6733 6.03865 17.885C5.96226 16.5466 6.19754 15.1869 5.80032 13.6072C5.23504 14.5422 5.49476 15.3397 5.40921 16.0852C5.27782 17.445 5.79115 18.8964 4.97226 20.2072C4.42532 19.9016 4.66671 19.3975 4.66671 18.985C4.64837 14.368 4.66671 9.75415 4.64837 5.14027C4.64837 4.38249 4.60865 3.75 5.70865 3.75916C10.0261 3.80194 14.3406 3.7775 18.655 3.78055C18.9147 3.78055 19.1622 3.81111 19.2875 4.08916Z" fill="#81CBC3"/>
<path d="M17.775 13.1947C18.215 12.7547 18.7711 12.9869 19.2783 12.9411C19.2997 14.5025 19.3578 16.0669 19.3364 17.6283C19.3229 18.1255 19.1845 18.6114 18.9339 19.0411C18.6833 19.4707 18.3286 19.8305 17.9025 20.087C17.4764 20.3436 16.9925 20.4888 16.4955 20.5093C15.9985 20.5298 15.5044 20.4248 15.0586 20.2041C14.4995 19.92 14.7806 19.4036 14.7531 18.9819C14.7225 18.3708 15.2053 18.4319 15.6086 18.4228C16.4 18.4044 17.2953 18.5939 17.5397 17.4694C17.8269 16.0639 17.4267 14.6094 17.775 13.1947Z" fill="#2BA79B"/>
<path d="M4.97226 20.2072C4.97226 18.1253 4.9631 16.0455 4.94476 13.9678C4.94476 13.4269 4.96921 12.938 5.70865 12.935C6.44809 12.9319 6.50004 13.3964 6.50004 13.9494C6.50004 16.0272 6.50004 18.108 6.50004 20.1889L4.97226 20.2072Z" fill="#3AA79B"/>
<path d="M17.775 13.1947C17.6773 14.6247 18.0531 16.0761 17.555 17.4725C17.5184 16.0649 17.4899 14.6481 17.4695 13.2222C17.5703 13.2008 17.6711 13.1947 17.775 13.1947Z" fill="#63938C"/>
<path d="M11.0834 5.9225C11.0834 7.28528 11.0406 8.64805 11.0834 10.0108C11.0834 10.738 10.9306 11.0742 10.0903 11.123C6.81171 11.3033 6.81782 11.3369 6.81171 8.05222C6.81171 7.34639 6.7781 6.64055 6.76282 5.93778C8.1972 5.75977 9.64776 5.75464 11.0834 5.9225Z" fill="#FEFEFE"/>
<path d="M17.7781 11.0589C17.6865 11.0769 17.5933 11.0851 17.5 11.0833C16.7545 10.0933 17.0631 8.94443 17.06 7.85971C17.057 6.77499 16.6231 6.31055 15.5322 6.35332C14.7408 6.38388 13.9006 6.48777 13.2131 5.90721C13.2131 5.80332 13.2131 5.69944 13.2131 5.60166C14.3314 5.60166 15.4528 5.64749 16.5742 5.60166C17.4908 5.55582 17.8606 5.86444 17.8208 6.82388C17.7414 8.2111 17.7811 9.63498 17.7781 11.0589Z" fill="#63938D"/>
</svg>
