<svg width="24" height="24" viewBox="0 0 24 24" fill="none" xmlns="http://www.w3.org/2000/svg">
<path d="M7.41667 20.1614C6.57334 20.305 5.32667 20.6228 4.97222 20.0636C4.39778 19.1164 4.73389 17.8178 4.84084 16.6689C4.89945 16.4734 5.01945 16.302 5.18306 16.18C7.72222 13.8119 8.33334 10.7533 8.38834 7.45943C8.40667 6.32581 8.14389 5.16165 8.59 4.04637C10.0506 3.77137 11.5203 3.96998 12.9869 3.94248C13.4208 3.94248 14.1022 3.63693 14.2092 4.44359C14.2917 5.17693 14.0075 5.73304 13.2253 5.9347C12.7883 6.04776 12.3086 5.9347 11.9114 6.24026C11.5142 6.54581 11.5386 7.03776 11.5264 7.48998C11.6303 10.4814 11.2667 13.3597 9.49139 15.8989C9.45196 15.9632 9.43108 16.0373 9.43108 16.1128C9.43108 16.1883 9.45196 16.2623 9.49139 16.3266C10.5486 16.6322 11.6303 16.3755 12.6692 16.4733C13.43 16.5466 14.1083 16.7116 14.1083 17.668C14.1083 18.6733 13.3597 18.5572 12.6997 18.5572C11.5875 18.5572 10.4631 18.655 9.36306 18.5297C8.05528 18.3922 7.41667 18.8383 7.41667 20.1614Z" fill="#E63C35"/>
<path d="M7.41667 20.1614C7.16306 18.7864 7.65195 18.2119 9.11556 18.3617C10.3194 18.4839 11.56 18.3861 12.7639 18.3861C13.2772 18.3861 13.8181 18.4319 13.8242 17.6619C13.8303 16.8919 13.3261 16.8889 12.7883 16.8889C11.725 16.8889 10.6494 16.9072 9.59528 16.8889C9.17056 16.8889 8.65417 17.0814 8.38834 16.5161C9.52806 15.905 10.7625 16.1617 11.9572 16.1494C12.9839 16.1494 13.4056 15.7186 13.3933 14.6919C13.3628 12.4217 13.3933 10.1514 13.3719 7.8811C13.3719 7.35554 13.4789 6.69249 12.7608 6.5061C12.0428 6.31971 11.89 7.00416 11.615 7.45332C11.5694 7.54231 11.501 7.61753 11.4166 7.67124C11.3323 7.72495 11.2352 7.7552 11.1353 7.75888C10.9825 5.76054 10.9825 5.72693 12.9533 5.57416C13.6011 5.52527 13.815 5.2686 13.8883 4.67582C14.0014 3.7836 13.3475 4.12277 12.9992 4.11054C11.5233 4.05554 10.0567 4.05554 8.59 4.05554C11.0558 3.64304 13.5278 3.96999 16.0058 3.94249C16.8919 3.94249 16.7575 4.5536 16.7606 5.11277C16.7606 8.51666 16.7606 11.9175 16.7606 15.3183C16.7606 16.07 16.6964 16.788 17.8178 16.6383C18.3831 16.565 18.4717 16.9653 18.4656 17.4175C18.4594 17.8697 18.4656 18.2303 18.4656 18.6397C18.4656 20.1675 17.5489 20.7786 16.1006 20.253C15.795 20.1492 15.6667 19.9964 15.7094 19.7183C15.9111 18.4961 15.0983 18.5908 14.3069 18.603C12.7333 18.6244 11.1567 18.6978 9.58917 18.603C8.33334 18.5114 7.44722 18.6764 7.41667 20.1614Z" fill="#E7514D"/>
<path d="M11.1231 7.76498C11.285 6.65887 11.175 5.36332 13.0175 5.76665C13.6286 5.9011 13.8853 6.03554 13.8792 6.68332C13.8578 9.67471 13.8517 12.663 13.8792 15.6544C13.8792 16.3633 13.6806 16.6536 12.9381 16.62C11.4103 16.5558 9.90389 16.5528 8.38528 16.5253C10.7442 14.0564 11.1842 10.9886 11.1231 7.76498Z" fill="#FDFCFC"/>
</svg>
