<svg width="24" height="24" viewBox="0 0 24 24" fill="none" xmlns="http://www.w3.org/2000/svg">
<path d="M8.63888 15.3611C11.5203 18.7436 14.0717 19.0583 18.3708 16.5527C18.7619 19.0522 18.2486 19.7488 15.6697 20.1888C11.3889 20.9222 7.92388 19.0277 6.19444 15.0555C6.02639 14.8752 5.71778 14.7133 5.73305 14.4933C5.83389 12.773 5.19222 11.0252 5.90722 9.32636C6.33194 8.64803 6.72611 7.94831 7.18444 7.29137C8.3208 5.71088 9.97623 4.57977 11.8617 4.09557C13.7471 3.61137 15.7427 3.80484 17.5 4.64221C19.4555 5.61082 19.4861 5.70248 18.4839 7.69776C13.8028 5.06693 11.2728 5.38776 8.57166 8.95359C8.47388 9.21025 8.57166 9.49136 8.48611 9.75414C8.39916 10.371 8.1468 10.9528 7.75583 11.4377L7.77111 12.8219C8.3439 13.5432 8.65039 14.4401 8.63888 15.3611Z" fill="#FAA72B"/>
<path d="M7.76498 11.4439C7.87498 10.7839 7.89637 10.0994 8.37609 9.55247C11.398 9.24692 14.4261 9.48219 17.4511 9.43025C17.6833 9.43025 17.8025 9.58303 17.7933 9.82136C17.6925 11.0252 17.0355 11.3644 15.85 11.3491C13.1489 11.3247 10.4539 11.178 7.76498 11.4439Z" fill="#F5BA5B"/>
<path d="M8.63887 15.3611C8.16138 14.5971 7.87039 13.7314 7.78943 12.8341C10.2675 12.8708 12.7425 12.8861 15.2175 12.9655C15.6483 12.9655 16.5069 12.5408 16.4397 13.4636C16.3908 14.1389 16.2533 15.0158 15.1411 14.9914C13.4208 14.9486 11.7005 14.9608 9.98026 14.9914C9.5097 14.9944 8.94443 14.7225 8.63887 15.3611Z" fill="#F5B95B"/>
<path d="M5.90416 9.3111C5.96833 11.2239 5.61999 13.155 6.19138 15.0403C5.68416 15.0158 5.17999 14.9761 4.66361 14.9761C3.97611 14.9761 3.80194 14.5789 3.82333 13.9891C3.84472 13.4728 3.82333 12.935 4.57194 12.938C5.08222 12.938 5.57111 13.0053 5.58638 12.2016C5.60166 11.398 5.17694 11.3094 4.55055 11.3094C3.81111 11.3094 3.84777 10.7503 3.82639 10.2278C3.80805 9.55554 4.25722 9.55554 4.74 9.55554C5.13373 9.50396 5.52293 9.42224 5.90416 9.3111Z" fill="#F5B95D"/>
<path d="M17.7811 9.82138C16.6383 9.2561 15.4222 9.61666 14.2428 9.57388C12.2842 9.50666 10.3256 9.55555 8.36389 9.55555C8.33945 9.32332 8.33945 9.09721 8.58084 8.96277C9.19195 9.54638 9.91611 9.22555 10.5822 9.24082C12.6906 9.28666 14.8019 9.24082 16.9133 9.28666C17.1944 9.28971 18.05 8.77944 17.7811 9.82138Z" fill="#C9A169"/>
</svg>
