<svg width="24" height="24" viewBox="0 0 24 24" fill="none" xmlns="http://www.w3.org/2000/svg">
<path d="M6.80557 19.3119C6.54585 19.1591 6.5489 18.9024 6.5489 18.6488C6.5489 14.3466 6.5489 10.0413 6.5489 5.73909C6.5489 4.97215 6.7689 4.61159 7.58779 4.66659C8.34251 4.71548 9.11557 4.64826 9.86723 4.66659C10.6189 4.68493 11.2911 4.66659 11.1536 3.58187C11.0711 2.93104 11.5478 2.86687 12.0489 2.87604C12.55 2.8852 13.1978 2.83937 13.1214 3.57576C13.0297 4.44965 13.5736 4.68187 14.1817 4.92632C13.1611 5.43965 13.7722 6.20659 13.8761 6.89715C13.0297 7.86576 13.3811 8.99937 13.43 10.0933C13.1245 10.9763 13.815 11.6608 13.9189 12.4644C13.4514 14.038 13.705 15.6421 13.7142 17.2341C13.6561 17.943 13.1886 18.6244 13.5767 19.373C13.4181 19.4982 13.2953 19.6629 13.2208 19.8507C13.1462 20.0385 13.1225 20.2426 13.152 20.4424C13.2008 21.2094 12.6661 21.188 12.1406 21.188C11.615 21.188 11.0742 21.188 11.1414 20.4333C11.2086 19.6785 10.732 19.5838 10.1056 19.5471C9.02085 19.4799 7.90557 19.816 6.84835 19.3302C7.82307 18.4838 9.12168 19.156 10.4325 18.5694C8.55335 17.8208 8.80696 16.3266 8.84362 14.9546C8.88029 13.5827 8.37001 12.0152 10.515 11.2696C9.03307 10.7166 8.81001 9.71743 8.81918 8.51965C8.82835 7.32187 8.9414 6.30132 10.3256 5.81854C8.02779 4.90187 7.2914 5.36632 7.28529 7.56326C7.28529 10.8021 7.28529 14.041 7.28529 17.2799C7.25168 17.998 7.34946 18.7252 6.80557 19.3119Z" fill="#FBB55C"/>
<path d="M13.5553 19.3791C12.4003 18.768 12.9197 18.1569 13.5278 17.5091C13.6805 17.1669 14.0228 17.0355 14.2855 16.8155C15.468 15.8316 15.6117 14.4688 14.6767 13.268C14.4047 12.9196 13.9739 12.6996 13.8425 12.2383C12.7608 11.8288 12.6814 11.1138 13.2314 10.2094C14.4536 9.24992 14.5819 8.09187 13.8425 6.78409C13.4025 6.45103 12.7333 6.30437 12.9472 5.48853C13.1397 4.7552 13.7661 5.12187 14.1694 4.94159C16.5253 5.9377 17.3411 7.90242 16.2778 10.1941C16.018 10.7533 15.9417 11.0558 16.403 11.6088C18.9789 14.7194 17.5 18.6763 13.5553 19.3791Z" fill="#F68E20"/>
<path d="M6.80556 19.3119C6.80556 15.0096 6.86667 10.7044 6.80556 6.39909C6.80556 5.25631 7.12944 4.82853 8.26611 4.96297C8.9244 5.00578 9.58477 5.00578 10.2431 4.96297C10.7869 4.96297 11.1017 5.14631 11.0956 5.75131C11.0956 6.27075 10.8297 6.50298 10.3408 6.45714C9.31722 6.35631 9.11861 6.95214 9.22861 7.76797C9.39056 8.87714 8.47083 10.5974 10.7808 10.5546C11.0864 10.5546 11.0864 11.0221 11.0864 11.3246C11.0984 11.4138 11.0884 11.5045 11.0574 11.5889C11.0264 11.6734 10.9753 11.7489 10.9084 11.8091C10.8416 11.8693 10.7611 11.9123 10.6739 11.9344C10.5867 11.9565 10.4955 11.9569 10.4081 11.9358C9.30194 11.8227 9.1675 12.4644 9.21639 13.3413C9.26528 14.2183 9.23167 15.0646 9.21639 15.9233C9.21639 16.8796 8.99639 17.946 10.57 17.8024C11.0222 17.778 11.0833 18.2119 11.0833 18.5908C11.0833 19.1163 10.7961 19.2844 10.3133 19.2874C9.14917 19.2874 7.985 19.321 6.82083 19.3363L6.80556 19.3119Z" fill="#F68D20"/>
<path d="M13.8333 12.2383C15.1839 12.663 15.7308 13.6347 15.685 14.9883C15.6483 16.4061 14.8417 17.1761 13.5278 17.503C12.7486 15.8408 13.1703 14.1236 13.3078 12.4216C13.3139 12.3513 13.6592 12.3086 13.8333 12.2383Z" fill="#FDFCFB"/>
<path d="M11.1261 14.9119C11.1261 15.523 11.1078 16.1341 11.1261 16.7269C11.1444 17.3197 10.8511 17.503 10.298 17.503C9.74499 17.503 9.45777 17.3227 9.46999 16.7238C9.48833 15.5138 9.48833 14.3049 9.46999 13.0969C9.46999 12.4399 9.76027 12.2138 10.3867 12.2291C11.013 12.2444 11.1383 12.5897 11.1292 13.1061C11.12 13.7019 11.1261 14.3069 11.1261 14.9119Z" fill="#F0EDEB"/>
<path d="M13.8333 6.78409C15.3825 8.18659 15.1533 9.49742 13.2222 10.2094C12.7608 9.2927 13.0694 8.3302 13.0083 7.38909C12.9778 6.80854 13.3933 6.7627 13.8333 6.78409Z" fill="#F3ECE5"/>
<path d="M11.1322 8.89243C11.1551 9.22369 11.1273 9.5565 11.0497 9.87937C10.9245 10.301 10.4631 10.1513 10.1331 10.1635C10.046 10.1796 9.95628 10.1746 9.87149 10.149C9.7867 10.1235 9.70924 10.078 9.64557 10.0164C9.58191 9.95482 9.53387 9.87893 9.50546 9.79504C9.47705 9.71115 9.46908 9.62168 9.48223 9.53409C9.48223 8.98104 9.48223 8.42798 9.48223 7.87493C9.48223 7.32187 9.41196 6.75354 10.2675 6.72298C11.2208 6.69243 11.1506 7.30965 11.1445 7.92687C11.1292 8.12854 11.1322 8.33632 11.1322 8.89243Z" fill="#EEEAE7"/>
</svg>
