<svg width="24" height="24" viewBox="0 0 24 24" fill="none" xmlns="http://www.w3.org/2000/svg">
<path d="M12.9166 20.1736C12 20.1736 11.0833 20.5647 10.2369 19.9108C10.3714 19.0308 10.4844 18.1753 9.98026 17.3289C9.83154 17.0677 9.76945 16.7661 9.80294 16.4674C9.83644 16.1687 9.96377 15.8884 10.1667 15.6666C10.3212 15.3661 10.3852 15.0271 10.351 14.6909C10.3169 14.3547 10.186 14.0356 9.97415 13.7722C9.78267 13.3268 9.75348 12.8283 9.89165 12.3636C9.96499 12.22 10.0475 12.0794 10.13 11.9419C8.94749 9.80305 7.73749 7.70083 6.59472 5.55278C6.33805 5.07001 5.3725 4.38862 6.23111 4.00056C6.94305 3.69501 8.17138 3.38945 8.81304 4.5139C9.72971 6.09056 10.6005 7.68861 11.615 9.50361C12.55 7.85361 13.4789 6.41139 14.203 4.8714C14.8783 3.43223 16.0608 3.89362 17.0936 3.93029C17.7047 3.95168 17.3258 4.44362 17.17 4.71556C15.85 7.04593 14.5228 9.37222 13.1886 11.6944C13.2161 12.4858 13.4941 13.2803 13.1489 14.0625C13.2039 16.1158 13.3444 18.1569 12.9166 20.1736Z" fill="#549A8E"/>
<path d="M12.9166 20.1736C12.9166 18.0591 12.9166 15.9457 12.9166 13.8333C13.0812 13.6769 13.2794 13.5604 13.496 13.4926C13.7127 13.4248 13.942 13.4075 14.1663 13.4422C15.3122 13.5766 16.0761 13.0969 16.5619 12.0947C17.0874 13.8119 16.9133 14.0075 15.2725 14.1266C14.5575 14.1786 13.2772 13.4727 13.2313 14.8294C13.1763 16.4336 14.5819 15.4405 15.3061 15.6483C15.963 15.8347 16.8736 15.3794 16.8338 16.6841C16.8063 17.9063 15.9905 17.9063 15.2816 17.723C12.9533 17.0905 13.3077 18.9758 12.9166 20.1736Z" fill="#72B0A9"/>
<path d="M10.1666 15.6667C9.94968 17.0905 10.955 18.493 10.2308 19.923C10.1799 19.5689 10.1585 19.2112 10.1666 18.8536C10.2613 17.9828 9.89773 17.6528 9.04218 17.7383C8.53801 17.7872 8.02468 17.7139 7.5144 17.7383C6.69857 17.7994 6.48774 17.4328 6.46941 16.6567C6.45413 15.8194 6.80857 15.6117 7.56024 15.6483C8.43718 15.7064 9.29884 15.6667 10.1666 15.6667Z" fill="#6FAFA8"/>
<path d="M16.5833 12.0916C16.7575 13.378 16.2778 13.9922 14.9028 13.8425C14.2414 13.8019 13.5783 13.7989 12.9167 13.8333C13.0114 13.1275 12.6478 12.3636 13.1764 11.6944C14.255 12.3697 15.4711 11.7433 16.5833 12.0916Z" fill="#70AFA8"/>
<path d="M10.2002 13.8333C10.5883 14.4444 10.6525 15.0555 10.1666 15.6666C10.5486 13.7814 9.21329 14.1083 8.14385 14.1022C7.30052 14.1022 6.34107 14.3283 6.48774 12.88C6.55496 12.2353 6.73524 11.9817 7.38913 11.9969C8.30579 12.0183 9.22246 11.9603 10.1391 11.9358L10.1666 12.3055C9.4394 13.0389 8.3119 12.4278 7.41663 13.0786C8.33329 13.6989 9.44551 13.1153 10.2002 13.8333Z" fill="#7E9F9C"/>
<path d="M10.2003 13.8333C9.34471 13.8333 8.48915 13.8333 7.6336 13.8333C7.07138 13.8333 6.80249 13.598 6.82082 13.0144C6.84221 12.498 7.12638 12.3116 7.59388 12.3116C8.44943 12.3116 9.30498 12.3116 10.1605 12.3116C10.1666 12.8066 10.188 13.3139 10.2003 13.8333Z" fill="#6CB1AA"/>
</svg>
