<svg width="24" height="24" viewBox="0 0 24 24" fill="none" xmlns="http://www.w3.org/2000/svg">
<path d="M16.8675 11.6944C15.6453 13.5461 13.7814 14.0655 11.7189 13.9525C10.5853 13.8914 10.1911 14.2214 10.2736 15.3825C10.3744 16.9958 10.24 18.6214 10.3164 20.2377C10.3836 21.5883 9.44861 21.1544 8.78862 21.2094C8.07056 21.2614 7.41667 21.3469 7.44112 20.198C7.50834 17.2647 7.44112 14.3314 7.44112 11.395C7.17971 11.1002 7.03334 10.721 7.02885 10.327C7.02436 9.93306 7.16205 9.55067 7.41667 9.24999L7.43195 8.63888C7.17347 8.34338 7.02973 7.96486 7.02693 7.57227C7.02412 7.17969 7.16244 6.79915 7.41667 6.49999C7.55112 3.79889 7.55112 3.78055 10.295 3.80805C11.4531 3.80805 12.6142 3.68278 13.7722 3.96694C15.2817 4.33055 16.455 5.10972 17.1944 6.49999C18.3067 7.29138 17.5519 8.44332 17.7567 9.40582C18.0255 10.3867 17.4022 11.0161 16.8675 11.6944Z" fill="#F15B2D"/>
<path d="M17.5519 9.55554C17.3686 8.54415 17.6314 7.47777 17.1883 6.49999C18.0867 6.68638 19.5808 5.83082 19.37 7.89943C19.2569 9.03915 18.1111 8.22943 17.8055 8.90471C18.0805 9.6411 19.0278 8.86499 19.2814 9.56165C18.7222 10.0108 18.1294 10.0444 17.5519 9.55554Z" fill="#E78C6D"/>
<path d="M7.41667 6.49999C7.41667 7.21499 7.42176 7.92795 7.43195 8.63888C6.83612 8.33332 5.76362 9.17666 5.59862 7.77721C5.41529 6.12416 6.55806 6.55805 7.41667 6.49999Z" fill="#E99071"/>
<path d="M7.41669 9.25C7.41669 9.965 7.41669 10.68 7.43196 11.3889C6.83613 11.0833 5.76363 11.9297 5.59863 10.5272C5.4153 8.86806 6.56113 9.305 7.41669 9.25Z" fill="#E99071"/>
<path d="M17.5519 9.55554H19.2936C19.5167 10.7228 19.3853 11.5966 17.8422 11.3308C17.6635 11.3215 17.4848 11.349 17.3171 11.4115C17.1495 11.4741 16.9964 11.5704 16.8675 11.6944C16.9897 10.9397 17.5764 10.3469 17.5519 9.55554Z" fill="#E98C6C"/>
<path d="M13.8333 6.19446C14.7836 6.76279 15.0066 7.67334 15.0005 8.68779C14.203 9.2714 13.2864 8.97195 12.4216 9.03917C11.835 9.08806 11.233 8.99028 10.6769 9.26223C10.5198 9.31639 10.3484 9.31205 10.1942 9.25001C10.1942 8.70612 10.1942 8.15917 10.1942 7.61223C10.1942 5.33279 10.5455 5.11279 12.9441 5.82473C12.5928 6.45418 11.8808 6.09973 11.4164 6.39307C12.1037 6.47112 12.7977 6.47112 13.485 6.39307C13.6156 6.3564 13.7352 6.2882 13.8333 6.19446Z" fill="#EE8E6D"/>
<path d="M10.1942 9.24998C10.2889 9.24998 10.3836 9.24998 10.4783 9.2347L10.7014 9.20109C11.9817 9.09415 13.2681 9.25609 14.5453 9.09415C14.6991 9.08038 14.8536 9.1134 14.9883 9.18887C14.9028 10.2583 14.5697 11.1841 13.5278 11.6944C12.5011 11.7616 11.4317 11.4194 10.457 12C9.86112 11.1383 10.3622 10.1666 10.1942 9.24998Z" fill="#EF8D6C"/>
<path d="M13.8333 6.19444V6.5C12.7262 6.74335 11.5794 6.74335 10.4722 6.5C10.3989 5.79417 10.9122 5.88889 11.337 5.87056C11.8717 5.85222 12.4064 5.84611 12.9411 5.83694L13.8333 6.19444Z" fill="#FCFAF8"/>
<path d="M10.4722 12C11.3889 10.6678 12.4675 11.2941 13.5431 11.6944C12.5439 12.1589 11.5019 12.0611 10.4722 12Z" fill="#F9F4F2"/>
<path d="M10.4722 6.5L13.8333 6.5275C13.3055 6.77033 12.7307 6.89376 12.1497 6.88901C11.5687 6.88426 10.996 6.75143 10.4722 6.5Z" fill="#C8866E"/>
<path d="M10.4722 9.25L14.75 9.29278C13.3603 9.76312 11.8522 9.74804 10.4722 9.25Z" fill="#C8866E"/>
</svg>
