<svg width="24" height="24" viewBox="0 0 24 24" fill="none" xmlns="http://www.w3.org/2000/svg">
<path d="M5.01199 10.2277C4.48949 8.49219 4.55977 8.37913 6.23421 8.37913C10.2064 8.37913 14.1603 8.37913 18.1264 8.37913C18.8506 8.37913 19.5472 8.25691 19.5259 9.39968C19.5075 10.4447 18.8811 10.3438 18.2028 10.3591C15.8317 10.4019 15.8317 10.408 15.8317 12.8036C15.8317 14.0716 15.8317 15.3427 15.8317 16.6138C15.8317 17.448 16.1373 18.1141 17.002 18.3586C17.8667 18.603 18.4228 18.1019 18.872 17.4113C19.1072 17.0508 19.1347 16.4122 19.7031 16.4366C20.1649 16.4488 20.611 16.6072 20.9772 16.8888C21.3714 17.2311 20.9375 17.6344 20.7695 17.9705C19.7947 19.9016 18.4167 20.5983 16.4336 20.1888C14.9334 19.8833 13.9006 18.3219 13.87 16.3266C13.8395 14.3313 13.812 12.3544 13.7814 10.3897C12.4924 10.3316 11.2009 10.3622 9.91615 10.4813C8.29977 10.5761 6.64671 10.3255 5.01199 10.2277Z" fill="#D92262"/>
<path d="M5.01199 10.2278C7.93615 10.2278 10.8695 9.90386 13.7814 10.4019C10.5395 10.4722 10.5395 10.4722 10.3898 13.6836C10.2339 17.0783 8.86198 19.3272 6.46643 20.1002C5.21671 20.5066 4.66365 20.198 4.72477 19.1836C4.70877 18.9834 4.76974 18.7848 4.89523 18.628C5.02071 18.4713 5.20126 18.3684 5.40004 18.3402C7.74976 17.7291 8.3242 15.9355 8.36698 13.8027V13.65C8.40059 10.6555 8.39754 10.6586 5.41226 10.4111C5.26978 10.3721 5.13459 10.3102 5.01199 10.2278Z" fill="#E46693"/>
<path d="M6.80558 4.78887C10.0231 4.77054 13.2222 4.78887 16.4519 4.71859C17.9981 4.68193 17.3686 5.76054 17.4939 6.48165C15.407 6.88192 13.3017 6.5672 11.2056 6.6497C10.2522 6.68942 9.29891 6.6497 8.34252 6.6497C6.53975 6.65581 6.53975 6.65276 6.80558 4.78887Z" fill="#E56694"/>
<path d="M6.80562 4.78888C6.51535 6.21277 7.11118 6.59777 8.51368 6.54582C11.502 6.43277 14.4995 6.49388 17.4939 6.48165C17.3839 6.76888 17.1364 6.8086 16.8828 6.8086C13.7478 6.8086 10.6128 6.88193 7.48396 6.78415C5.84924 6.73527 6.44507 5.6536 6.80562 4.78888Z" fill="#B6A5A8"/>
</svg>
