<svg width="24" height="24" viewBox="0 0 24 24" fill="none" xmlns="http://www.w3.org/2000/svg">
<path d="M15.6666 9.55554C14.5819 12.7486 11.8594 12.9961 8.80388 13.2222L15.1533 21.0505C13.7141 21.3194 12.7303 21.2797 11.835 20.0544C10.1911 17.8055 8.33333 15.7186 6.54888 13.5583C6.17 13.1 5.71472 12.715 6.12416 11.9633C6.5 11.2697 6.97666 11.0986 7.72221 11.1047C9.73277 11.1047 11.8289 11.4347 13.4941 9.84276C14.2978 8.63888 14.7897 8.58388 15.6666 9.55554Z" fill="#4184C5"/>
<path d="M12.9167 6.22193C10.9947 5.51915 8.99641 5.98054 7.0378 5.86137C6.34114 5.81859 5.59864 6.02943 5.61697 4.86221C5.6353 3.69499 6.34419 3.8386 7.05919 3.8386H16.1953C16.837 3.8386 17.5153 3.67054 17.5428 4.75526C17.5703 5.83998 17.0539 5.93165 16.235 5.86443C15.8897 5.83998 15.5108 5.81554 15.2939 6.20054C14.4872 6.30137 13.6897 5.60165 12.9167 6.22193Z" fill="#5FA0D5"/>
<path d="M15.6667 9.55553C14.8478 8.91386 14.1389 9.22859 13.482 9.83053C12.9778 9.17664 12.2597 9.52497 11.6486 9.50359C10.1209 9.45164 8.61753 9.4822 7.09892 9.48831C6.32281 9.48831 5.58643 9.58609 5.58643 8.38525C5.58643 7.18442 6.34726 7.42887 7.01948 7.42581C8.7367 7.42581 10.457 7.42581 12.1742 7.42581C12.6539 7.42581 13.1978 7.60915 13.5889 7.12026C13.9369 6.99235 14.3109 6.95138 14.6783 7.0009C15.0457 7.05042 15.3955 7.18894 15.6972 7.40442C16.6139 7.44414 17.7811 7.09887 17.4756 8.74581C17.2708 9.9222 16.342 9.44859 15.6667 9.55553Z" fill="#5FA0D7"/>
<path d="M15.7094 7.41667C14.9975 7.39528 14.255 7.59389 13.6011 7.1325L12.9014 6.21583C12.5958 5.35417 13.2742 5.65056 13.6469 5.58639C14.31 5.47334 14.8142 5.78195 15.2786 6.1975L15.7094 7.41667Z" fill="#4686C6"/>
</svg>
