<svg width="24" height="24" viewBox="0 0 24 24" fill="none" xmlns="http://www.w3.org/2000/svg">
<path d="M14.7286 16.0211C13.0175 16.7941 11.3095 17.0203 9.6014 16.0211C8.53501 16.0394 8.22335 15.3366 8.10418 14.4536C7.27613 12.9258 7.18752 11.398 8.07668 9.87027C8.1181 9.41007 8.31917 8.97884 8.64506 8.65128C8.97095 8.32372 9.40114 8.12044 9.86112 8.07667C11.3889 7.16 12.9167 7.30667 14.4444 8.10417C15.3244 8.22639 16.0303 8.535 16.0089 9.60139C17.0142 11.3125 16.8125 13.0205 16.0089 14.7316C15.9132 15.0328 15.7472 15.3069 15.5246 15.5311C15.3019 15.7553 15.0291 15.9233 14.7286 16.0211Z" fill="#FFCC2D"/>
<path d="M16.0058 9.60136C15.6513 8.92609 15.028 8.53192 14.4413 8.10415C14.8202 7.78331 15.2266 7.49304 15.575 7.13859C16.1647 6.54582 16.6077 6.80248 17.1027 7.2822C17.6711 7.8322 17.4327 8.22331 16.9591 8.64498C16.6261 8.94442 16.3236 9.28359 16.0058 9.60136Z" fill="#F9D563"/>
<path d="M8.10417 14.4444C8.53195 15.0341 8.92611 15.6666 9.60139 16.0119C9.29584 16.3174 8.94445 16.623 8.645 16.9622C8.22334 17.4327 7.83223 17.6741 7.28223 17.1027C6.80251 16.6077 6.5489 16.1647 7.14167 15.5749C7.49001 15.2266 7.7864 14.8202 8.10417 14.4444Z" fill="#FAD662"/>
<path d="M9.86113 8.07664C9.15654 8.55048 8.55053 9.15648 8.07669 9.86108C8.06141 9.34775 7.68252 9.06664 7.36169 8.75802C6.89114 8.3058 6.52753 7.90553 7.1478 7.2547C7.76808 6.60386 8.24474 6.77192 8.75808 7.36164C9.05141 7.69469 9.3478 8.06442 9.86113 8.07664Z" fill="#FED75C"/>
<path d="M14.7286 16.0211C15.0063 15.4653 15.4551 15.0134 16.0089 14.7316C16.458 15.4497 18.3677 15.7369 16.8338 17.0416C15.5964 18.1111 15.4252 16.4 14.7286 16.0211Z" fill="#FFD85B"/>
<path d="M12.1192 14.7713C11.4003 14.7715 10.7099 14.4902 10.1959 13.9876C9.68194 13.485 9.38518 12.8012 9.3692 12.0825C9.39183 11.3637 9.68993 10.6812 10.2018 10.1761C10.7137 9.67104 11.4002 9.38212 12.1192 9.36914C12.8128 9.39488 13.471 9.68193 13.9617 10.1727C14.4525 10.6635 14.7396 11.3217 14.7653 12.0152C14.7746 12.3705 14.7134 12.7241 14.5851 13.0555C14.4568 13.3869 14.264 13.6896 14.0178 13.9459C13.7717 14.2023 13.4772 14.4072 13.1512 14.5489C12.8253 14.6906 12.4745 14.7662 12.1192 14.7713Z" fill="#FEFEFD"/>
</svg>
