<svg width="24" height="24" viewBox="0 0 24 24" fill="none" xmlns="http://www.w3.org/2000/svg">
<path d="M5.58333 9.24998C4.28778 8.87109 3.01667 8.4372 2.90056 6.80554C2.78445 5.17387 3.50861 3.97304 4.97222 3.24888C5.29305 3.09304 5.58333 2.99527 5.69944 2.57971C5.95916 1.71805 7.05611 1.9686 7.15388 2.17332C7.70999 3.2886 9.09721 3.39554 9.65944 4.44971C9.99555 5.0761 10.3989 5.71471 10.1453 6.42665C10.023 6.77498 9.51277 6.5947 9.17055 6.63443C8.17749 6.74137 8.33027 5.82776 8.00638 5.33582C7.20277 5.25637 6.36555 4.81637 5.63222 5.54054C5.36639 5.99276 4.91111 6.43887 5.63222 6.89415C6.35639 7.13554 7.20583 7.04387 7.77111 7.70081C9.10332 7.96359 10.1514 8.53803 10.295 10.0597C10.4539 11.7402 9.59832 12.9533 7.6825 13.818C6.99194 14.3802 6.30139 14.3314 5.60472 13.8364C4.50778 13.4789 3.60334 12.8769 3.19084 11.7525C3.00445 11.2544 2.485 10.5303 3.34667 10.2705C3.91806 10.0933 4.80417 9.88248 4.97528 10.9855C5.05584 11.2212 5.17455 11.4421 5.32667 11.6394C6.05083 11.8075 6.74139 11.6211 7.42888 11.4316C7.84444 11.0405 8.14999 10.6341 7.66722 10.0903C7.01027 9.70831 6.16694 9.81525 5.58333 9.24998Z" fill="#46A148"/>
<path d="M14.698 13.5277C15.5383 14.2366 16.5314 13.7386 17.448 13.8547C18.045 13.8982 18.6441 13.9033 19.2416 13.87C18.9147 15.8469 17.6466 15.96 16.1861 15.9019C15.5383 15.8744 14.2733 15.5964 14.3191 16.1769C14.3894 17.0691 15.5414 16.4611 16.2197 16.5986C16.6801 16.6418 17.1435 16.6418 17.6039 16.5986C17.5 17.8361 16.5833 18.3341 15.9386 19.0277C14.8966 19.2722 13.9525 18.6397 12.9319 18.6855H9.35999C9.60137 17.3502 9.88859 16.3541 11.4255 16.6016C11.6608 16.6414 11.9541 16.6016 11.9389 16.2319C11.9389 15.9905 11.7311 15.9447 11.5294 15.8836C11.1689 15.7736 10.4172 16.1311 10.5853 15.3489C10.7075 14.7805 10.7472 13.9555 11.6333 13.8944C11.9841 13.8783 12.3181 13.7399 12.5775 13.5033C13.2833 13.4697 13.9953 13.3047 14.698 13.5277Z" fill="#6DB46F"/>
<path d="M14.698 13.5278C13.9861 13.8822 13.2741 14.1114 12.5775 13.5003C14.0136 10.6158 17.0539 9.42721 19.8161 10.7075C20.2866 10.9244 21.1483 10.9947 20.6533 11.9297C20.2958 12.6203 20.0422 13.0297 19.0766 12.5225C17.4297 11.6517 15.9386 12.2078 14.698 13.5278Z" fill="#4BA249"/>
<path d="M12.9319 18.6763C14.0289 17.9552 14.9639 18.6763 15.9416 19.0186C17.0844 19.4402 18.2547 19.5716 19.3027 18.878C20.2194 18.2669 20.305 19.0858 20.6197 19.5136C21.0994 20.1583 20.58 20.3722 20.1186 20.635C17.7169 22.013 14.7286 21.2033 12.9319 18.6763Z" fill="#48A249"/>
<path d="M7.76194 7.70081L5.27778 7.15998C5.07611 6.52748 5.47639 5.89804 5.27778 5.26859C6.19444 4.42832 7.11111 4.56582 8.00333 5.33582C7.24861 6.05387 7.72222 6.90026 7.76194 7.70081Z" fill="#73B573"/>
<path d="M7.72222 11.6761C6.91555 12.1497 6.11194 12.1955 5.32056 11.6394C5.93167 10.9061 5.49472 10.0475 5.59861 9.25607C6.46333 9.21024 7.25777 9.48524 8.04305 9.75718C8.07324 10.4123 7.96388 11.0664 7.72222 11.6761Z" fill="#73B574"/>
<path d="M5.58334 13.8333L7.66112 13.815C7.66112 14.5239 7.42889 14.8844 6.61612 14.8844C5.80334 14.8844 5.54973 14.5697 5.58334 13.8333Z" fill="#6FB871"/>
<path d="M5.27779 5.27777C5.82168 5.90721 5.81556 6.53971 5.27779 7.16916C4.45279 6.52749 4.90196 5.88888 5.27779 5.27777Z" fill="#F2F2F0"/>
<path d="M7.72222 11.6761C7.64583 11.0039 7.31278 10.2858 8.05528 9.7572C8.69389 10.5272 8.33333 11.123 7.72222 11.6761Z" fill="#F0F0ED"/>
<path d="M13.7508 16.1739C13.65 16.6505 13.2558 16.5833 12.9167 16.565C12.6508 16.565 12.3819 16.4794 12.3758 16.1708C12.3758 15.6514 12.7792 15.6819 13.1305 15.6789C13.4819 15.6758 13.7355 15.7491 13.7508 16.1739Z" fill="#49A44B"/>
</svg>
