<svg width="24" height="24" viewBox="0 0 24 24" fill="none" xmlns="http://www.w3.org/2000/svg">
<path d="M19.0278 18.3891L7.62751 18.4411C6.20057 18.4411 5.36029 17.6527 4.95085 16.3877C4.36113 14.5544 4.69724 13.4147 6.00807 12.5744C6.45723 12.2902 6.83307 11.8197 7.63362 11.8258C7.63362 12.7791 7.67029 13.7233 7.63362 14.6614C7.5939 15.4619 7.91473 15.7186 8.69695 15.7033C10.9275 15.6666 13.1581 15.6575 15.3886 15.7033C16.1525 15.7033 16.3847 15.4283 16.3053 14.7408C17.1486 15.9997 18.7222 16.7238 19.0278 18.3891Z" fill="#7A60A9"/>
<path d="M19.0278 18.3891C18.933 17.6833 18.2517 17.4877 17.83 17.0905C17.1157 16.4604 16.5803 15.6531 16.2778 14.75C15.3277 11.5195 13.2951 8.71434 10.5211 6.80553C9.3814 6.0172 10.7442 5.47026 10.9306 4.81943C11.0833 4.32137 11.3889 3.90582 12.0611 4.39165C16.6169 7.7222 19.4494 11.9664 19.3333 17.8055C19.3333 18.0622 19.3608 18.3311 19.0278 18.3891Z" fill="#60469C"/>
</svg>
