<svg width="24" height="24" viewBox="0 0 24 24" fill="none" xmlns="http://www.w3.org/2000/svg">
<path d="M7.41662 15.6666C7.53579 14.7224 7.69773 13.7997 6.1944 13.9463C5.49774 14.0136 5.66885 13.3597 5.64135 12.9319C5.60774 12.44 5.65968 11.948 6.3319 12.055C7.5144 12.2475 7.4869 11.5325 7.47162 10.7044C7.44107 8.82524 7.50218 6.94608 7.44412 5.06997C7.41968 4.22664 7.64579 3.88136 8.53801 3.92414C9.85495 3.98831 11.178 3.92414 12.5102 3.94248C15.3274 3.9822 17.2983 5.52831 17.4969 7.83219C17.8024 11.4286 16.5374 13.2527 13.2741 13.8822C12.3574 14.2091 11.1841 13.5461 10.5241 14.2152C9.86412 14.8844 10.8052 15.9691 10.5852 16.8094C10.2063 18.2394 10.5516 19.7122 10.1697 21.1238L7.72218 21.1666C7.35246 19.7274 7.90246 18.163 7.08968 16.7666C6.89718 16.4305 7.14774 15.9722 7.41662 15.6666Z" fill="#E63C36"/>
<path d="M10.1667 21.1116C10.1667 19.2416 10.2431 17.3686 10.1331 15.5047C10.0567 14.2152 10.3683 13.5675 11.7708 13.7844C12.2722 13.8391 12.776 13.8676 13.2803 13.87C12.6233 14.2794 11.8992 14.0411 11.2086 14.0686C10.6128 14.093 10.4325 14.3436 10.4264 14.9058C10.4203 15.468 10.6983 15.688 11.2544 15.6819C12.4767 15.6605 13.6806 15.7002 14.8936 15.6819C15.5689 15.6636 15.9233 15.8377 15.9111 16.5986C15.8989 17.3594 15.7461 17.7627 14.9028 17.7322C13.8425 17.6955 12.7639 17.778 11.7219 17.7108C10.7594 17.6497 10.3653 17.9369 10.4019 18.9666C10.4142 19.6602 10.7289 20.4516 10.1667 21.1116Z" fill="#E26F67"/>
<path d="M7.41665 15.6666L7.7222 21.1666C7.09276 20.7724 7.4747 20.1613 7.41665 19.6572C7.31887 18.7405 7.82304 17.5641 6.08443 17.6375C5.38776 17.665 5.66887 16.8552 5.61999 16.3938C5.58332 15.8652 5.85832 15.6666 6.35637 15.6666C6.71082 15.6819 7.06526 15.6666 7.41665 15.6666Z" fill="#E37269"/>
<path d="M10.3011 8.87107C10.281 8.66787 10.281 8.46317 10.3011 8.25996C10.4844 7.42886 9.78775 6.34108 10.7564 5.78191C11.725 5.22275 14.2794 5.94386 15.0005 6.78719C15.3397 7.19769 15.5715 7.68608 15.675 8.20841C15.7785 8.73074 15.7505 9.27061 15.5935 9.77943C15.4365 10.2883 15.1555 10.7501 14.7757 11.1233C14.3959 11.4965 13.9292 11.7694 13.4177 11.9175C13.32 11.945 13.2222 11.9694 13.1122 11.9877C10.4539 12.4675 10.3011 12.3055 10.3011 8.87107Z" fill="#FDFAF9"/>
</svg>
