<svg width="24" height="24" viewBox="0 0 24 24" fill="none" xmlns="http://www.w3.org/2000/svg">
<path d="M9.82751 12.3514C8.23251 11.7677 6.88501 10.9611 6.77196 9.01775C6.64668 6.99192 7.74973 5.80025 9.4914 5.09442C9.98945 4.89581 10.292 4.66053 10.2003 4.1197C9.96501 2.71415 10.9244 2.93415 11.7831 2.87609C12.7272 2.81498 13.2711 3.04109 13.0786 4.09831C12.9625 4.73387 13.3231 4.9722 13.8547 5.18303C14.3121 5.34027 14.7339 5.58645 15.0957 5.90739C15.4576 6.22833 15.7523 6.61768 15.9631 7.05303C16.1525 7.47164 16.7331 8.03997 16.18 8.36081C15.6269 8.68164 14.7714 8.77636 14.2336 8.14997C13.9097 7.77414 13.7081 7.29442 13.2131 7.08053C12.1589 7.12942 11.0497 6.60997 10.0628 7.38608C9.02084 8.27525 9.12167 9.1308 10.1392 9.9558C11.1719 10.6402 12.5714 10.4722 13.5278 11.3889C15.1992 11.9816 16.4825 12.8739 16.6231 14.8783C16.7728 17.0172 15.7431 18.325 13.8394 19.0675C13.375 19.2477 12.9961 19.4494 13.0939 20.0269C13.3078 21.3194 12.4553 21.188 11.6089 21.2277C10.6525 21.2705 10.0017 21.1391 10.2095 19.9597C10.3133 19.3638 9.9039 19.1744 9.44556 19.0094C8.53258 18.6743 7.74873 18.0594 7.20584 17.2525C6.90029 16.8094 6.4114 16.183 7.00723 15.8225C7.4839 15.5352 8.31501 15.4313 8.82529 16.0088C9.22556 16.4611 9.52806 16.9988 10.1697 17.1608C11.1047 16.9683 12.0764 17.2433 13.0022 16.9438C14.5544 15.9752 14.6247 15.135 13.2558 13.7661C12.1436 13.1916 10.7992 13.2222 9.82751 12.3514Z" fill="#68A043"/>
<path d="M13.2222 17.2372C12.1925 17.6161 11.1719 17.72 10.1667 17.1577C10.0231 15.5597 10.5578 13.9127 9.83972 12.3513C11.0803 12.7088 12.4003 12.8097 13.5064 13.5247C13.653 14.7836 13.9464 16.0516 13.2222 17.2372Z" fill="#A6C68A"/>
<path d="M9.82445 7.04082C10.9581 6.40832 12.0886 6.31665 13.2039 7.0897C13.2803 8.52276 12.7822 9.99859 13.5094 11.3858C12.2872 11.0008 10.9397 11.0008 9.82139 10.2614C9.69866 9.1913 9.69968 8.11065 9.82445 7.04082Z" fill="#A6C58A"/>
<path d="M13.2222 17.2372C13.2986 15.9966 12.7486 14.7072 13.5278 13.5247C15.0953 14.973 14.9975 16.1586 13.2222 17.2372Z" fill="#F5F6F2"/>
<path d="M9.82444 7.0408C10.103 7.53177 10.2494 8.0866 10.2494 8.65108C10.2494 9.21556 10.103 9.77038 9.82444 10.2614C8.47083 9.08496 8.47083 8.26913 9.82444 7.0408Z" fill="#FBFBFA"/>
</svg>
