<svg width="24" height="24" viewBox="0 0 24 24" fill="none" xmlns="http://www.w3.org/2000/svg">
<path d="M9.6044 15.3764C9.21634 18.4319 9.21634 18.4319 12.3361 18.4319C13.6072 18.4319 14.8752 18.4533 16.1463 18.4319C16.8124 18.4319 17.176 18.5694 17.1822 19.3486C17.1883 20.1277 16.8216 20.2652 16.1555 20.2652C13.0572 20.2469 9.95884 20.2469 6.86051 20.2652C6.10579 20.2652 5.8919 20.033 6.0569 19.2691C6.3594 17.8666 6.56107 16.4611 6.80551 15.0555C6.40218 14.2641 6.66801 13.5705 7.11107 12.9014C7.6244 10.8939 7.5969 8.77944 8.29051 6.81166C9.43328 3.59417 13.8333 2.73251 16.0699 5.27778C16.3557 5.56585 16.5766 5.91174 16.7177 6.29222C16.9255 7.03166 17.7627 7.92999 16.6719 8.52583C15.6483 9.08499 14.5116 8.43721 14.1419 7.26694C14.0586 6.9442 13.8639 6.66131 13.5921 6.46838C13.3203 6.27544 12.989 6.1849 12.6569 6.21278C11.8563 6.21278 11.2666 6.61 11.0924 7.39222C10.7319 9.02082 10.4447 10.6617 10.1269 12.2811C9.9344 13.0908 10.5088 13.9678 9.91606 14.7439C9.79626 14.9465 9.69207 15.1579 9.6044 15.3764Z" fill="#3BC2D6"/>
<path d="M9.62274 14.75C10.1025 13.9953 9.57996 13.0297 10.1269 12.2872C10.7197 13.5278 11.8411 12.88 12.66 12.8494C14.1388 12.8097 14.75 13.2589 14.3955 14.75C12.8128 14.9791 11.2054 14.9791 9.62274 14.75Z" fill="#8CD3E1"/>
<path d="M7.11109 12.9166C7.20581 13.6653 6.99193 14.368 6.80554 15.0708C6.01415 15.0708 5.20137 15.2266 5.27776 13.9066C5.32971 12.3544 6.43582 13.1091 7.11109 12.9166Z" fill="#8AD3E1"/>
<path d="M9.62276 14.75H14.3955C13.595 15.4008 12.66 14.9272 11.7922 15.0555C11.0619 15.1594 10.2644 14.8569 9.60443 15.3855L9.62276 14.75Z" fill="#AFB4B6"/>
</svg>
