<svg width="24" height="24" viewBox="0 0 24 24" fill="none" xmlns="http://www.w3.org/2000/svg">
<path d="M4.31226 9.305C5.50699 10.0506 5.98976 11.0956 5.84004 12.5133C5.77814 13.4288 5.77304 14.3472 5.82476 15.2633C5.82476 15.8133 5.74532 16.5039 6.52143 16.5619C7.36171 16.6231 7.45643 15.9508 7.45643 15.3092C7.45643 13.6795 7.45643 12.0499 7.45643 10.4203C7.45643 8.58695 7.49615 6.75361 7.43504 4.92028C7.41671 4.08917 7.78338 3.89361 8.50449 3.87528C9.2256 3.85694 9.47921 4.18083 9.47615 4.8775C9.45476 8.48611 9.50365 12.0947 9.44254 15.7003C9.43594 16.4493 9.14062 17.167 8.6181 17.7037C8.09559 18.2405 7.38615 18.5549 6.63754 18.5817C5.06088 18.6336 3.97615 17.5 3.81421 15.6667C4.05865 13.9158 3.8356 12.1528 3.93949 10.3989C3.96088 10.0261 3.61254 9.45778 4.31226 9.305Z" fill="#9A59A3"/>
<path d="M14.75 8.55944C16.7056 9.98944 17.2739 11.4928 16.7789 13.4147C16.7581 13.5621 16.6946 13.7002 16.5964 13.812C16.4981 13.9239 16.3693 14.0045 16.2258 14.0442C13.4758 14.9608 11.12 13.2833 11.1108 10.4325C11.1108 8.85583 11.0681 7.27916 11.1292 5.7025C11.1597 4.97528 10.6036 3.83861 12.1497 3.86916C13.5828 3.89361 13.0664 4.94472 13.0969 5.63833C13.155 7.31278 13.1214 8.99944 13.1153 10.6708C13.1183 11.3889 13.2222 12.0428 14.1389 12C15.0556 11.9572 14.6828 11.1994 14.7317 10.735C14.805 10.0994 14.75 9.44555 14.75 8.55944Z" fill="#9B5BA3"/>
<path d="M13.5889 18.4442H16.3878C17.772 18.4442 18.4411 17.7383 18.432 16.3633C18.432 15.7522 18.432 15.1411 18.432 14.53C18.432 13.9739 18.7712 13.8394 19.2295 13.8792C19.5992 13.9128 20.1859 13.7081 20.1889 14.3161C20.1889 15.6728 20.577 17.0936 19.9384 18.3708C18.7223 20.8397 15.6025 20.9681 13.5889 18.4442Z" fill="#9A59A3"/>
<path d="M12.5439 17.5153C12.0031 17.2097 11.3675 16.8064 11.3217 16.293C11.2789 15.6636 11.9878 15.0189 12.5103 15.0036C12.8326 15.0365 13.1326 15.1831 13.3566 15.4171C13.5806 15.6512 13.7138 15.9574 13.7325 16.2808C13.7233 16.8064 13.0756 17.1944 12.5439 17.5153Z" fill="#8B489B"/>
<path d="M16.1372 17.5183C15.6514 17.1394 14.915 16.7667 14.967 16.2197C15.0189 15.6728 15.6483 14.9364 16.2442 14.9975C16.782 15.0556 17.5 15.6667 17.4053 16.3267C17.3228 16.84 16.7453 17.2983 16.1372 17.5183Z" fill="#8B499A"/>
<path d="M4.31224 9.30499C3.78668 10.7778 4.21446 12.2842 4.05557 13.7661C3.9914 14.3986 4.28168 15.08 3.80501 15.6575C3.78668 13.6897 3.75918 11.7219 3.76835 9.75416C3.77751 9.52193 3.51168 8.69693 4.31224 9.30499Z" fill="#895F93"/>
</svg>
