<svg width="24" height="24" viewBox="0 0 24 24" fill="none" xmlns="http://www.w3.org/2000/svg">
<path d="M9.22556 12.0305C5.96223 10.2216 5.73612 7.72221 8.72139 5.55888C9.38445 5.07916 9.24389 4.55055 9.26528 3.97916C9.28667 3.40777 9.17667 2.83333 10.075 2.88222C10.7136 2.91583 11.3553 2.8425 11.2483 3.7836C11.1658 4.50777 11.4531 4.74305 12.1894 4.74305C12.9747 4.74305 12.9992 4.30916 12.9411 3.77138C12.8525 2.95555 13.3261 2.88833 13.9678 2.88222C14.6094 2.87611 14.97 3.11138 14.8447 3.75916C14.6339 4.86527 15.1503 5.53444 16.0089 6.13027C16.6359 6.58414 17.0716 7.25508 17.2311 8.01249C16.8629 8.33127 16.3957 8.51275 15.9089 8.52612C15.4221 8.53949 14.9457 8.38391 14.5605 8.08582C14.1193 7.68538 13.6102 7.36671 13.0572 7.14471C12.8715 7.06614 12.6793 7.00378 12.4828 6.95832C11.0558 6.78416 9.61056 7.43193 9.46084 8.4036C9.23472 9.89776 10.5242 10.0078 11.4531 10.4264C11.5997 10.46 11.7372 10.5028 11.8778 10.5486C12.9686 10.8358 14.2061 10.7136 15.0494 11.6883C18.4105 13.6194 18.5878 16.2472 15.4375 18.5633C14.7255 19.0889 14.8753 19.6847 14.8814 20.3019C14.8875 20.9191 14.7408 21.2644 14.038 21.2186C13.4911 21.1758 12.8586 21.3286 12.9472 20.418C12.9992 19.8864 12.9931 19.4464 12.1925 19.4769C11.4531 19.5075 11.1964 19.7611 11.2514 20.473C11.3247 21.3897 10.6219 21.1727 10.0994 21.2125C9.57695 21.2522 9.18278 21.0841 9.28972 20.4608C9.51278 19.2875 9.01778 18.5327 7.99417 18.0408C7.90878 17.9855 7.83422 17.9151 7.77417 17.833C7.27001 17.2739 6.42056 16.6322 6.9064 15.9355C7.25167 15.4375 8.26306 15.5261 8.95361 15.9691C9.1125 16.0944 9.32639 16.1066 9.48528 16.2289C10.0964 16.7544 10.7228 17.1914 11.5783 17.1241C11.9878 17.1241 12.4003 17.1241 12.8006 17.1089C13.8608 17.0447 14.7439 16.6505 14.8936 15.5108C15.0433 14.3711 14.1389 13.9525 13.2986 13.5278C13.0698 13.4186 12.8315 13.3306 12.5867 13.265C12.4492 13.2314 12.3147 13.1855 12.1803 13.1397C11.3033 12.8678 10.295 12.9991 9.54945 12.3116C9.44556 12.2169 9.33861 12.1222 9.22556 12.0305Z" fill="#68A042"/>
<path d="M12.9808 6.72916C13.5767 6.84221 14.2031 7.00416 14.5422 7.51749C15.2908 8.64804 16.2044 8.53804 17.2219 8.01249C17.558 8.68471 17.0111 8.6786 16.6658 8.6236C15.0464 8.33943 14.8325 9.23471 15.0036 10.5028C15.0494 10.8939 15.0281 11.2941 15.0403 11.6914L11.6792 10.8022C12.3697 10.2583 12.5775 9.54026 12.5194 8.68776C12.4505 8.13966 12.5005 7.58313 12.6661 7.0561C12.7252 6.91076 12.8378 6.7937 12.9808 6.72916Z" fill="#A6C28B"/>
<path d="M9.18278 16.3022L8.94444 15.9722C9.60444 14.7011 9.085 13.3475 9.22555 12.0428L9.53111 12.1222C10.2797 13.2589 10.0169 14.4964 9.855 15.7125C9.82139 16.0394 9.65333 16.3786 9.18278 16.3022Z" fill="#98A786"/>
<path d="M9.18277 16.3022C9.94971 14.9608 9.3661 13.5003 9.54332 12.1069L12.2933 12.8983C11.9208 13.6572 11.7483 14.4986 11.7922 15.3428C11.7922 16.073 11.9236 16.843 11.3858 17.4816C10.4325 17.5 9.74805 17.0172 9.18277 16.3022Z" fill="#A7C58B"/>
<path d="M12.5775 12.9594C12.9157 13.0257 13.2478 13.1198 13.5705 13.2406C14.6125 13.7203 15.633 14.2917 15.3305 15.685C15.0586 16.9469 14.1083 17.4358 12.8861 17.4603C12.1894 15.9997 12.4308 14.4781 12.5775 12.9594Z" fill="#A6C48C"/>
<path d="M11.4225 10.7166C10.7747 10.7655 10.2522 10.4294 9.75723 10.1055C8.63584 9.36608 8.58695 7.96664 9.72362 7.24553C10.6922 6.63442 11.7769 6.14859 12.9808 6.72914L12.8678 6.85442C12.0122 7.31581 11.7158 8.03692 11.7831 8.99331C11.8228 9.57997 11.8747 10.2125 11.4225 10.7166Z" fill="#A6C38B"/>
<path d="M12.5775 12.9594C13.2589 14.42 12.7883 15.96 12.883 17.4603H11.3981C11.3889 16.2594 11.3889 15.0555 11.3278 13.8333C11.2819 13.0664 11.6517 12.8678 12.3025 12.8892C12.3901 12.9263 12.4828 12.95 12.5775 12.9594Z" fill="#FDFDFD"/>
<path d="M11.4225 10.7167C11.395 9.87638 11.4225 9.02388 11.3278 8.19277C11.175 6.92472 11.7342 6.5886 12.8555 6.85444C12.8555 7.7711 12.828 8.66943 12.9197 9.56471C13.0205 10.57 12.6142 10.9367 11.6608 10.7869C11.5875 10.7778 11.505 10.7472 11.4225 10.7167Z" fill="#FEFEFE"/>
</svg>
