<svg width="24" height="24" viewBox="0 0 24 24" fill="none" xmlns="http://www.w3.org/2000/svg">
<path d="M10.6249 11.8197C13.0184 9.43027 15.4129 7.03981 17.8085 4.64832C19.6999 2.7661 21.3163 2.8761 22.9785 4.98444V7.42888L14.6154 15.7553C12.6904 15.0555 11.4224 13.6714 10.6249 11.8197Z" fill="#E63B35"/>
<path d="M12.3085 18.1111C10.3744 19.4219 8.33631 20.3753 5.89187 20.25C4.7552 20.1919 3.61243 20.25 2.63159 20.25L8.03076 14.4444C9.06965 14.8203 9.64104 15.7492 10.3744 16.4703C10.9855 17.0569 11.6791 17.5366 12.3085 18.1111Z" fill="#B0BEC5"/>
<path d="M12.3085 18.1111C11.1322 18.2027 10.7105 17.1577 10.026 16.5436C9.3416 15.9294 8.69076 15.1411 8.03076 14.4444C8.89447 13.5705 9.75817 12.6977 10.6219 11.8258C11.8005 13.2813 13.1402 14.5985 14.6155 15.7522L12.3085 18.1111Z" fill="#79919D"/>
</svg>
