<svg width="24" height="24" viewBox="0 0 24 24" fill="none" xmlns="http://www.w3.org/2000/svg">
<path d="M4.77068 13.3261L4.78596 9.21332C4.92268 9.15028 5.07344 9.12389 5.22344 9.13675C5.37344 9.1496 5.51752 9.20126 5.64151 9.28665C9.8429 11.3278 14.0687 11.233 18.3129 9.43332C18.6368 9.29582 18.9423 9.10332 19.3182 9.21332V14.4597C18.8537 15.5414 17.9095 16.0333 16.8737 16.3419C13.7002 17.2983 10.3153 17.2983 7.14179 16.3419C5.64151 15.905 4.57818 15.0953 4.77068 13.3261Z" fill="#556F7B"/>
<path d="M4.78285 6.58249C4.5323 5.03333 5.36035 4.23583 6.70785 3.75916C9.92975 2.61372 13.4328 2.52488 16.7087 3.50555C19.205 4.2175 19.4067 4.58722 19.3089 7.1386C18.8689 8.16527 17.992 8.66638 17.002 8.97193C13.7346 9.99888 10.2293 9.98928 6.96757 8.94443C5.82785 8.5961 4.77368 8.05221 4.78285 6.58249Z" fill="#556F7B"/>
<path d="M19.3333 16.5314C19.4403 19.6816 19.0278 20.3753 15.5811 20.9772C13.0511 21.4203 10.4264 21.4875 7.88725 20.7908C4.9142 19.9811 4.70031 19.6389 4.78281 16.5344C4.91963 16.4688 5.07137 16.4404 5.22268 16.4522C5.37398 16.464 5.51949 16.5156 5.64447 16.6017C9.8978 18.7405 14.1695 18.5236 18.4503 16.6872C18.7143 16.5253 19.0299 16.4696 19.3333 16.5314Z" fill="#556F7A"/>
<path d="M19.3333 16.5314C15.6331 19.2386 9.16142 19.2416 4.7981 16.5314C4.7981 15.4599 4.7981 14.3884 4.7981 13.3169C4.89587 14.5697 5.58032 15.3305 6.74754 15.7247C10.2544 16.9568 14.0799 16.9363 17.5734 15.6666C18.2639 15.4222 18.7497 14.8936 19.3058 14.4628C19.3099 15.1513 19.3191 15.8408 19.3333 16.5314Z" fill="#5CC7D9"/>
<path d="M4.78286 6.58249C5.42452 8.33332 7.01646 8.63887 8.52896 8.94443C11.1947 9.51133 13.958 9.42537 16.5834 8.69387C17.6038 8.40882 18.5373 7.87434 19.2998 7.1386V9.21332C15.5934 11.9144 9.12785 11.9175 4.76758 9.21332C4.77776 8.33536 4.78286 7.45841 4.78286 6.58249Z" fill="#5CC7D9"/>
</svg>
