<svg width="24" height="24" viewBox="0 0 24 24" fill="none" xmlns="http://www.w3.org/2000/svg">
<path d="M2.18876 13.5275C1.35461 10.8479 2.88236 7.96654 5.1037 7.111C7.5481 6.15768 10.2247 6.34712 12.0947 8.96568C12.8311 9.99539 15.0738 10.6157 16.1768 10.1512C16.6199 9.96483 16.5343 9.61345 16.5954 9.2804C16.7543 8.42181 16.0821 7.20572 17.011 6.76573C17.9398 6.32573 19.1712 6.37768 20.2467 6.79934C20.6501 7.89626 20.094 9.07874 20.5523 10.1604C22.1962 9.85483 22.187 10.8876 22.0342 12.0242C21.3926 12.5803 20.6073 12.4673 19.8618 12.4703C16.4732 12.4917 13.0847 12.4703 9.69917 12.504C9.23779 12.504 9.03919 12.1342 8.78252 11.8256C7.64893 10.4843 6.86367 10.6034 6.20979 12.177C6.15084 12.3667 6.04588 12.5388 5.90424 12.6781C5.53759 12.7484 5.21676 12.5559 4.87454 12.4887C3.75012 12.2656 2.76319 12.3603 2.18876 13.5275Z" fill="#6BC3EE"/>
<path d="M9.31414 12.3237C9.74497 11.9998 10.2552 11.9998 10.7777 11.9998C14.536 11.9998 18.2932 12.0049 22.0495 12.0151C22.1686 14.0623 22.1686 14.0623 20.1092 14.0623C18.0498 14.0623 15.9629 14.0928 13.8913 14.0623C13.103 14.0439 12.6141 14.2456 12.2016 14.9789C10.8724 17.3561 8.61749 17.8786 6.19448 17.4233C4.10146 17.0475 2.75093 15.6175 2.18872 13.5275C2.38122 13.0539 1.94734 12.174 2.63788 12.1159C3.69508 12.0242 4.91728 11.5048 5.81254 12.617C7.54806 13.6712 7.54806 13.6712 9.31414 12.3237Z" fill="#3099D5"/>
<path d="M20.5554 10.1665C19.8648 9.09707 20.4026 7.9146 20.2498 6.80545C20.8976 7.8596 20.3629 9.03902 20.5554 10.1665Z" fill="#ABACB3"/>
<path d="M9.31422 12.3237C8.30285 14.2853 7.03788 14.3922 5.81262 12.614C5.87984 11.6056 5.87068 10.524 7.28232 10.4476C8.5809 10.3743 9.17367 11.1168 9.31422 12.3237Z" fill="#FBFBFC"/>
</svg>
