<svg width="24" height="24" viewBox="0 0 24 24" fill="none" xmlns="http://www.w3.org/2000/svg">
<path d="M12.113 21.188C6.91553 21.6341 2.7936 16.4703 2.86693 12.3055C2.9586 7.01944 6.87887 3.01667 11.9755 2.85472C16.5833 2.70806 21.2919 7.08055 21.2919 12.0947C21.2919 16.9469 16.7086 21.6494 12.113 21.188Z" fill="#F37E75"/>
<path d="M12.0672 19.3333C8.11027 19.3333 4.73389 16.0119 4.73389 12.1466C4.73389 8.20803 8.09499 4.70942 12.0917 4.74914C14.0356 4.77252 15.8911 5.56493 17.2523 6.953C18.6134 8.34107 19.3694 10.2118 19.3547 12.1558C19.2539 16.1891 16.1341 19.3333 12.0672 19.3333Z" fill="#EF4739"/>
<path d="M12.1284 10.2064C13.5461 10.2064 14.967 10.2614 16.3817 10.188C17.3197 10.1392 17.5795 10.4539 17.5825 11.3797C17.5825 13.9342 17.6345 13.9342 15.0342 13.9342C12.6539 13.9342 10.2706 13.8853 7.89336 13.9555C6.83614 13.9892 6.39003 13.6805 6.54892 12.605C6.60086 12.2535 6.60086 11.8962 6.54892 11.5447C6.39309 10.4844 6.79031 10.1147 7.87503 10.185C9.2867 10.2767 10.7106 10.2064 12.1284 10.2064Z" fill="#FFFDFC"/>
</svg>
