<svg width="24" height="24" viewBox="0 0 24 24" fill="none" xmlns="http://www.w3.org/2000/svg">
<path d="M16.788 10.1453C16.788 12.5775 16.788 15.0107 16.788 17.445C17.0264 18.2028 17.1364 18.9392 16.4244 19.535C13.4239 19.9017 10.4203 20.0819 7.4289 19.4372C7.18964 19.1677 7.0575 18.8198 7.0575 18.4594C7.0575 18.099 7.18964 17.7512 7.4289 17.4817V10.0872C7.4289 9.50667 7.73445 9.21028 8.31195 9.23473H15.9508C16.6658 9.13389 16.8003 9.57389 16.788 10.1453Z" fill="#68BC6B"/>
<path d="M7.45634 19.3333H16.6444C16.7228 19.233 16.8222 19.1512 16.9358 19.0936C17.0493 19.0361 17.1741 19.0042 17.3013 19.0002C18.3799 19.0766 18.9544 18.4869 19.2905 17.555C20.0422 18.5602 19.4952 19.6938 19.5472 20.745C19.5685 21.2216 19.0583 21.1666 18.7222 21.1666C14.3568 21.1666 9.99143 21.1666 5.62607 21.1666C4.03718 21.1666 4.88968 19.975 4.73384 19.2783C5.65051 18.6702 6.55495 18.7558 7.45634 19.3333Z" fill="#8E9BA1"/>
<path d="M8.29052 9.24998C7.90553 9.4111 7.59409 9.70946 7.41663 10.0872C5.6383 11.5447 5.6383 11.5447 3.93025 9.83359C3.65655 9.60794 3.40857 9.35278 3.19081 9.07276C2.92803 8.65415 1.94109 8.50137 2.68359 7.66721C3.27331 7.00415 3.81108 6.6711 4.70942 7.95137C4.70942 6.3411 4.73386 5.1586 4.70942 3.97916C4.66664 3.25805 4.80108 2.83333 5.66886 2.86694C6.43886 2.88833 6.77802 3.13583 6.75358 3.92721C6.71997 5.03027 6.75358 6.13638 6.75358 7.51749C7.67024 6.6161 8.18052 7.11415 8.71219 7.70387C9.39052 8.46471 8.36691 8.71221 8.29052 9.24998Z" fill="#369AD4"/>
<path d="M16.788 10.1453C16.6262 9.75023 16.3296 9.4254 15.9508 9.2286C15.6452 8.65416 14.7499 8.29055 15.7216 7.39527C16.6383 6.54583 16.9071 7.45638 17.4388 7.72221C17.8696 6.70472 17.5427 5.63833 17.6496 4.59944C17.7046 4.05555 17.4999 3.48722 17.8055 2.96167C19.0705 2.65611 19.7427 3.00139 19.5869 4.46194C19.5276 5.44574 19.5184 6.43192 19.5594 7.41666C20.476 6.73222 21.1116 7.01027 21.5669 7.78333C22.0221 8.55638 21.1146 8.7611 20.8335 9.21943C20.6797 9.4212 20.5022 9.6038 20.3049 9.76332C18.5938 11.4622 18.5938 11.4622 16.788 10.1453Z" fill="#359AD4"/>
<path d="M7.45636 19.3333L4.73387 19.2966C4.66665 17.5244 4.66665 17.5244 7.41664 17.4816C7.42886 18.105 7.4421 18.7222 7.45636 19.3333Z" fill="#4C5E67"/>
<path d="M19.2905 17.5458C19.3669 19.535 19.6358 19.3791 16.6444 19.3241C16.6627 18.6947 16.4977 18.053 16.785 17.445L19.2905 17.5458Z" fill="#4A5F67"/>
<path d="M17.8055 2.96167C17.5916 4.54139 18.2058 6.19444 17.4388 7.72222C17.7352 6.14861 17.0661 4.50167 17.8055 2.96167Z" fill="#618DB9"/>
<path d="M12.0794 18.4166C10.6341 18.4166 9.28049 17.1944 9.26827 15.8255C9.25605 14.4566 10.6585 12.9778 12.0702 12.9166C13.4208 12.8708 14.7377 14.2091 14.7499 15.6361C14.7499 17.4297 13.8333 18.3952 12.0794 18.4166Z" fill="#44A147"/>
</svg>
