<svg width="24" height="24" viewBox="0 0 24 24" fill="none" xmlns="http://www.w3.org/2000/svg">
<path d="M8.06137 7.41667L11.3919 7.435C11.8991 7.95445 11.6639 8.5625 11.615 9.15528C11.5569 9.8825 11.1872 11.1078 11.9205 11.1719C12.8586 11.2514 12.6019 9.94972 12.7822 9.24083C12.9472 8.59 12.6997 7.77722 13.5491 7.4075L16.8919 7.435C17.3991 7.95445 17.1669 8.5625 17.118 9.15528C17.06 9.8825 16.6903 11.1078 17.4236 11.1719C18.3616 11.2514 18.105 9.965 18.2853 9.24083C18.4503 8.59 18.2028 7.77722 19.0522 7.4075C20.9436 7.49917 21.1728 7.71306 21.1911 9.54639C21.1911 11.5783 21.1911 13.6133 21.1666 15.6575C20.25 16.2686 19.6541 15.5597 19.0278 15.1014C17.613 14.0808 17.3228 14.0747 15.9905 15.1503C14.4628 16.3725 13.323 16.4 11.6608 15.0403C10.6708 14.2306 9.82748 14.1725 8.83442 14.9914C7.06526 16.4336 6.14554 16.4122 4.25109 14.9914C3.75304 14.6461 3.11748 14.4628 2.91581 13.8058C2.91581 12.6906 2.88526 11.5783 2.8822 10.4631C2.8822 7.66417 3.13276 7.4075 5.9072 7.435C6.41748 7.95139 6.1822 8.55945 6.13637 9.15222C6.07526 9.87945 5.70554 11.1078 6.44192 11.1719C7.38304 11.2514 7.12331 9.94972 7.30359 9.24083C7.45942 8.59 7.21192 7.77722 8.06137 7.41667Z" fill="#D4A698"/>
<path d="M2.91585 13.8058C3.64983 14.1235 4.33175 14.55 4.93863 15.0708C5.99279 16.0058 7.27307 15.8867 8.32113 14.9242C9.86724 13.4972 10.3531 13.4942 12.0367 14.9242C13.3475 16.0272 14.4811 15.9906 15.7675 14.8081C17.1181 13.5553 17.8086 13.5278 19.1531 14.7286C19.7306 15.245 20.305 15.7217 21.1422 15.6453C21.1422 16.6597 21.1422 17.6772 21.1422 18.7008C21.1422 19.7245 20.6778 20.2286 19.6786 20.2286C14.5514 20.2286 9.4252 20.2286 4.30002 20.2286C3.29474 20.2286 2.8364 19.6603 2.84863 18.6795L2.91585 13.8058Z" fill="#FBCCBD"/>
<path d="M8.06142 7.41668C7.49614 8.53501 7.71003 9.77557 7.51448 10.952C7.41059 11.5631 7.27003 12.055 6.54281 12.0183C5.81559 11.9817 5.60476 11.4989 5.64142 10.8786C5.70864 9.72973 5.81559 8.5839 5.90726 7.43501C6.23726 6.36862 6.55809 5.29612 7.31892 4.43751C7.75892 3.94251 8.28448 3.41084 8.99337 3.99751C9.70226 4.58418 9.43337 5.11584 8.88642 5.66584C8.41881 6.1376 8.12754 6.75574 8.06142 7.41668Z" fill="#4A5D67"/>
<path d="M13.5492 7.41668C12.9839 8.53501 13.1978 9.77557 13.0022 10.952C12.8983 11.5631 12.7578 12.055 12.0305 12.0183C11.3033 11.9817 11.0925 11.4989 11.1139 10.8786C11.1842 9.72973 11.2911 8.5839 11.3828 7.43501C11.6883 6.36251 12.0367 5.29612 12.7914 4.43751C13.2283 3.94251 13.7569 3.41084 14.4658 3.99751C15.1747 4.58418 14.9089 5.11279 14.3558 5.66279C13.8941 6.13784 13.6093 6.75694 13.5492 7.41668Z" fill="#495D67"/>
<path d="M19.0309 7.41668C18.4656 8.53501 18.6795 9.77557 18.4809 10.952C18.38 11.5631 18.2395 12.055 17.5123 12.0183C16.785 11.9817 16.5864 11.4989 16.617 10.8786C16.6842 9.72973 16.7942 8.5839 16.8828 7.43501C17.1884 6.36251 17.5367 5.29612 18.2945 4.43751C18.7253 3.94251 19.26 3.41084 19.9689 3.99751C20.6778 4.58418 20.412 5.11279 19.8589 5.66279C19.3894 6.13475 19.0969 6.7542 19.0309 7.41668Z" fill="#495D67"/>
</svg>
