<svg width="24" height="24" viewBox="0 0 24 24" fill="none" xmlns="http://www.w3.org/2000/svg">
<path d="M15.9722 19.6388C15.6391 20.7724 14.8508 21.1666 13.708 21.1666C10.9244 21.1666 8.14083 21.2247 5.35722 21.2644C4.23278 21.2827 4.06472 20.5891 4.07084 19.6633C4.09324 16.4224 4.09324 13.1784 4.07084 9.93136C4.07084 7.52359 4.14417 7.42887 6.60083 7.42581C8.93221 7.42581 11.2636 7.42581 13.598 7.42581C14.5575 7.42581 15.3794 7.59081 15.6789 8.66636C15.9844 11.7219 15.7216 14.7927 15.8194 17.8544C15.8316 18.438 15.6666 19.0522 15.9722 19.6388Z" fill="#EDEFF0"/>
<path d="M19.2324 21.2094C18.7435 21.0383 17.8941 21.5852 17.5702 20.8305C17.3044 20.2194 17.3288 19.4525 18.2822 19.1591C18.4197 19.1163 18.4197 18.5083 18.4227 18.163C18.4227 15.6778 18.4227 13.1937 18.4227 10.7105C18.4227 10.1789 18.5235 9.67165 17.8116 9.34776C17.2005 9.07581 17.4694 8.34248 17.5549 7.81998C17.6466 7.2486 18.1966 7.48082 18.5633 7.45026C19.0188 7.41207 19.4767 7.41207 19.9321 7.45026C20.3477 7.49304 20.9435 7.19971 21.1238 7.78332C21.2766 8.29054 21.4477 8.98109 20.9496 9.3447C20.3691 9.77248 20.4699 10.2919 20.4669 10.8266C20.4669 13.21 20.4669 15.5923 20.4669 17.9736C20.4249 18.3728 20.4751 18.7762 20.6135 19.153C21.6371 21.0811 21.5699 21.2094 19.2324 21.2094Z" fill="#1F99A8"/>
<path d="M9.72966 4.90193C8.81299 4.90193 7.89633 4.90193 6.99494 4.90193C6.50911 4.90193 6.02022 4.81026 5.73911 5.45498C5.48856 6.02637 4.85606 5.86137 4.37939 5.78803C3.7469 5.69637 3.86301 5.1372 3.85078 4.70026C3.83551 4.14415 3.85078 3.58498 3.85078 3.02887C3.85078 2.63165 3.78356 2.1336 4.30606 2.03888C4.78273 1.95027 5.41217 1.77304 5.70245 2.28332C5.79386 2.48666 5.94773 2.65555 6.14171 2.76545C6.33568 2.87535 6.55965 2.92053 6.78105 2.89443C8.85577 2.89443 10.9305 2.89443 13.0052 2.89443C13.3413 2.89443 13.6896 2.95249 13.8669 2.48499C14.1724 1.67221 14.9027 1.99304 15.4344 2.08471C16.0455 2.18554 15.8621 2.79054 15.8805 3.22137C15.9019 3.7286 15.856 4.23582 15.8805 4.74915C15.9752 6.07831 14.7133 6.20665 14.3344 5.76665C13.0785 4.30915 11.5477 5.20137 10.1758 4.93554C10.0284 4.91092 9.87907 4.89967 9.72966 4.90193Z" fill="#249AAA"/>
<path d="M15.9721 19.6388C15.5016 19.2447 15.6666 18.7008 15.6666 18.218C15.6666 15.0372 15.6666 11.8533 15.6666 8.67245C16.1555 9.12162 15.9446 9.7144 15.9477 10.2461C15.9721 13.3597 15.9721 16.4916 15.9721 19.6388Z" fill="#D3D3D4"/>
</svg>
