<svg width="24" height="24" viewBox="0 0 24 24" fill="none" xmlns="http://www.w3.org/2000/svg">
<path d="M21.1453 13.0083C21.1453 14.5361 21.1453 16.0639 21.1758 17.5733C21.1758 18.7558 20.6594 19.3547 19.4372 19.3486C14.5687 19.3364 9.70118 19.3364 4.8347 19.3486C3.50859 19.3486 2.87914 18.6825 2.8822 17.3869C2.8822 15.9142 2.91275 14.4444 2.92803 12.9747C3.90275 12.2475 4.56886 12.5408 5.10359 13.5614C6.06914 15.3947 7.21803 15.7308 9.07581 14.7836C9.16617 14.7383 9.25299 14.6862 9.33553 14.6278C9.91914 14.2214 11.1353 14.6278 11.1872 13.925C11.2544 13.0083 10.0475 13.5064 9.49137 13.1397C9.327 13.0225 9.1923 12.8685 9.09801 12.69C9.00372 12.5115 8.95245 12.3134 8.9483 12.1116C8.94414 11.9097 8.98721 11.7097 9.07408 11.5275C9.16094 11.3452 9.28918 11.1858 9.44859 11.062C9.75028 10.8744 10.0872 10.7506 10.4386 10.6983C10.7625 10.6128 11.2514 10.6494 11.2575 10.1881C11.2636 9.72667 10.7778 9.74806 10.4478 9.68084C10.1959 9.67115 9.94634 9.62905 9.70525 9.55556C8.80386 9.08501 7.9422 8.60223 6.83914 8.83751C5.64748 9.09112 5.37859 10.0994 4.82553 10.9336C4.3672 11.6242 3.64303 11.6242 2.95248 11.1628C2.92803 9.74501 2.91886 8.32417 2.87303 6.90334C2.8272 5.48251 3.5972 4.78278 4.89275 4.76445C9.71442 4.71556 14.5351 4.71556 19.3547 4.76445C20.5066 4.76445 21.2247 5.42445 21.188 6.71695C21.1391 8.18973 21.1514 9.66251 21.1361 11.1322C20.0728 11.7433 19.3028 11.502 18.8658 10.3408C18.7426 9.97896 18.5279 9.65511 18.2425 9.40078C17.9572 9.14645 17.6108 8.9703 17.2372 8.88945C15.7094 8.51056 15.1991 8.88945 15.1778 10.4845C15.1778 11.4989 15.1472 12.5133 15.1778 13.54C15.2022 14.2 14.9211 15.1014 15.9875 15.2114C16.9866 15.3153 18.053 15.4497 18.6855 14.3436C18.9116 13.9494 18.9636 13.4514 19.2966 13.1214C19.8741 12.5622 20.4944 12.327 21.1453 13.0083Z" fill="#F490B1"/>
<path d="M2.95243 11.1475C3.90882 11.175 4.6666 11.2453 4.97216 9.86111C5.34493 8.16222 8.04604 7.74056 9.34771 9.02695C9.83049 9.50361 10.3927 9.25611 10.9213 9.30195C11.5324 9.35695 12.0305 9.52806 12.0427 10.2492C12.0549 10.9703 11.5447 11.1658 10.9274 11.1658C10.6219 11.1658 10.3163 11.1658 10.0108 11.1658C9.35993 11.1658 9.32021 11.5936 9.30799 12.0825C9.29577 12.5714 9.39355 12.9747 10.0352 12.9594C10.4888 12.9348 10.9436 12.9594 11.3919 13.0328C11.5691 13.0648 11.7301 13.1565 11.8479 13.2927C11.9658 13.4289 12.0334 13.6014 12.0397 13.7814C12.0672 14.1572 11.9327 14.6981 11.6363 14.6492C10.0169 14.3069 9.02688 15.9722 7.4166 15.8103C5.96216 15.6636 4.97216 15.2419 4.73077 13.7172C4.5291 12.4217 3.50855 13.2833 2.91882 12.9717C2.93716 12.3667 2.94327 11.7556 2.95243 11.1475Z" fill="#475B65"/>
<path d="M21.1452 13.0083C20.1002 12.8983 19.3913 13.0083 19.211 14.3833C19.0582 15.5597 15.9355 16.3847 15.0157 15.6483C14.7407 15.4283 14.7957 15.1014 14.7957 14.805C14.7957 12.9717 14.8141 11.1658 14.7957 9.34779C14.7805 8.62973 15.0341 8.40362 15.7521 8.36696C18.1019 8.24168 18.4624 8.43723 19.4188 10.6739C19.7946 11.5447 20.5646 10.9795 21.136 11.1231C21.136 11.7525 21.1421 12.3789 21.1452 13.0083Z" fill="#475B65"/>
</svg>
