<svg width="24" height="24" viewBox="0 0 24 24" fill="none" xmlns="http://www.w3.org/2000/svg">
<path d="M16.8889 4.07083C17.8056 4.95083 18.6734 5.85832 19.6175 6.69554C19.8402 6.89287 20.0134 7.13972 20.1233 7.41622C20.2332 7.69272 20.2766 7.99115 20.25 8.28749C20.2256 11.6333 20.2103 14.9791 20.25 18.325C20.25 19.6572 19.7673 20.2683 18.3831 20.2561C14.1756 20.2194 9.96811 20.2133 5.76061 20.2561C4.43756 20.2561 3.90895 19.645 3.9059 18.4227C3.89367 14.1633 3.89367 9.90489 3.9059 5.64749C3.9059 4.93249 4.02201 4.19611 4.93867 4.01888C6.61922 4.01888 5.76367 5.35721 6.02645 6.10277C6.06006 8.79165 6.06006 8.79165 8.80089 8.79471C10.0628 8.79471 11.3309 8.74582 12.5898 8.79471C13.8487 8.8436 14.3956 8.40665 14.2887 7.1386C14.252 6.58309 14.252 6.02578 14.2887 5.47027C14.2153 3.98222 14.7775 3.6675 16.8889 4.07083Z" fill="#384850"/>
<path d="M5.64454 6.22499C5.30232 5.52833 6.25565 4.42528 4.95093 4.03111C7.59092 3.65222 10.2462 3.89972 12.8954 3.90278C14.2123 3.90278 15.5751 3.44444 16.889 4.07083C15.8837 4.17778 14.4079 3.63083 14.7501 5.59861C14.1604 6.11194 13.4331 6.03249 12.7365 6.04166C10.3593 6.08444 7.99731 5.96527 5.64454 6.22499Z" fill="#788388"/>
<path d="M5.64453 6.22499C5.97453 5.55277 6.57647 5.5986 7.19064 5.61388C9.70536 5.61388 12.217 5.61388 14.7317 5.61388C14.9792 9.31109 14.9792 9.31109 11.2881 9.31109C9.87341 9.31109 8.45258 9.23776 7.04397 9.33554C5.89814 9.41498 5.46425 9.02998 5.62009 7.89943C5.66522 7.34243 5.67338 6.78306 5.64453 6.22499Z" fill="#AFB5B9"/>
<path d="M14.7897 15.8958C14.7317 17.448 13.5675 18.5114 11.997 18.4747C11.6289 18.467 11.266 18.3855 10.93 18.2349C10.594 18.0844 10.2917 17.8679 10.0409 17.5983C9.79016 17.3288 9.59608 17.0116 9.47019 16.6656C9.3443 16.3196 9.28917 15.9518 9.30807 15.5841C9.36578 14.8685 9.69143 14.2009 10.2199 13.7149C10.7484 13.2289 11.4409 12.9602 12.1589 12.9625C13.7019 12.9961 14.8508 14.2794 14.7897 15.8958Z" fill="#AFB5B9"/>
</svg>
