<svg width="24" height="24" viewBox="0 0 24 24" fill="none" xmlns="http://www.w3.org/2000/svg">
<path d="M3.17252 16.8308C2.46668 14.9364 3.00446 12.9869 2.91585 11.065C4.92946 10.3378 6.99501 10.7594 9.02695 10.8205C9.67473 10.8419 9.79695 11.3705 9.59223 11.9511C9.48834 12.2567 9.42417 12.5622 9.73278 12.77C10.0933 13.0022 10.405 12.7944 10.6922 12.5683C10.7717 12.5042 10.8419 12.4339 10.9214 12.3667C12.9839 10.6158 12.8311 9.15832 10.4447 7.84138C9.745 7.45333 9.46389 7.80777 9.52806 8.45249C9.58917 9.02694 9.59528 9.53721 8.89862 9.54943C6.90334 9.57999 4.88668 9.96805 2.91891 9.30805C2.68363 4.81944 2.61335 4.58417 7.1264 4.70028C8.84056 4.74305 10.5547 4.70028 12.2689 4.70028C14.5483 4.70028 14.9792 5.12194 15.0647 7.39833C15.1808 9.86416 15.52 12.3361 14.8325 14.7744C13.0481 15.575 11.1658 15.1075 9.34778 15.135C7.99723 14.5697 6.64362 13.9341 5.23196 14.9853C3.91501 14.8814 3.50863 15.8164 3.17252 16.8308Z" fill="#B1BEC5"/>
<path d="M2.93423 9.305H9.60449C8.71227 8.44333 8.76116 7.83222 9.54338 7.2425C10.46 6.54583 10.6831 7.54805 11.0467 7.88722C13.5278 10.2889 13.5278 10.3225 11.1842 12.6111C10.7442 13.0358 10.4387 13.9219 9.4731 13.2925C8.50755 12.663 9.06672 12 9.65644 11.0803H2.91589L2.93423 9.305Z" fill="#3199D4"/>
<path d="M14.75 14.75C14.75 12.773 14.75 10.7961 14.7714 8.81917C14.7714 8.33639 14.5942 7.78944 15.0769 7.4075L16.5375 7.46556C17.0783 7.97278 17.005 8.65111 17.0142 9.29889C17.0142 10.2431 17.4908 10.6097 18.4044 10.6586C19.318 10.7075 20.3233 10.3928 21.1239 11.1414V15.0158C20.6869 15.4833 20.1308 15.4467 19.5686 15.3947C19.3653 15.385 19.1692 15.3171 19.0033 15.1992C17.7444 14.0105 16.4764 14.2061 15.1931 15.1442C15.0865 15.1351 14.9858 15.0918 14.906 15.0208C14.8261 14.9497 14.7714 14.8547 14.75 14.75Z" fill="#2F99D5"/>
<path d="M15.0555 15.0158C16.7788 13.488 17.5366 13.488 19.2416 15.0708C19.8527 15.6391 19.7855 16.2594 19.3638 16.9041C18.0836 19.1347 16.2625 19.1133 14.7805 16.8491C14.2366 16.1433 14.4261 15.5475 15.0555 15.0158Z" fill="#475C66"/>
<path d="M5.23508 14.7255C6.47869 13.5797 7.7223 13.6408 8.94452 14.75C9.8459 15.3366 9.76951 16.0852 9.29896 16.8889C8.09507 18.9758 6.39008 19.0919 4.96008 17.1944C4.22064 16.2777 4.23591 15.4466 5.23508 14.7255Z" fill="#475C66"/>
<path d="M21.1269 11.1292C20.1125 11.1292 19.0919 11.0742 18.0714 11.1292C16.9194 11.1933 16.5192 10.6739 16.5803 9.60139C16.62 8.89555 16.5497 8.18361 16.5283 7.4625C18.7222 7.38 20.0636 8.44333 21.1269 11.1292Z" fill="#B5E1F6"/>
<path d="M9.2928 16.8889C9.2928 16.1555 9.36002 15.4069 8.93835 14.75H14.7439L15.0495 15.0189C14.9547 15.63 14.8631 16.2411 14.7714 16.8522L9.2928 16.8889Z" fill="#93A6AF"/>
<path d="M5.23503 14.7255C4.99159 15.0835 4.83881 15.4952 4.78984 15.9253C4.74087 16.3554 4.79718 16.7909 4.95392 17.1944C4.42837 16.7422 3.77142 16.9255 3.17254 16.8308C3.13893 14.7744 3.13893 14.7744 5.23503 14.7255Z" fill="#93A5AE"/>
<path d="M19.3517 16.8889C19.312 16.2778 19.2692 15.6667 19.2295 15.0555L21.13 15.0005C21.4723 16.5344 20.8612 17.1303 19.3517 16.8889Z" fill="#92A3AC"/>
</svg>
