<svg width="24" height="24" viewBox="0 0 24 24" fill="none" xmlns="http://www.w3.org/2000/svg">
<path d="M19.315 8.33332C19.315 11.9419 19.2814 15.5505 19.3394 19.1561C19.3608 20.5738 18.8719 21.1911 17.3961 21.1666C13.7987 21.1096 10.1921 21.1096 6.5764 21.1666C5.23502 21.1911 4.69418 20.58 4.69113 19.373C4.6728 14.5972 4.64835 9.82137 4.69113 5.04555C4.71252 3.27639 5.26557 2.78139 7.01946 2.85778C9.39056 2.96167 11.7831 2.48195 14.1267 3.14806C14.4169 4.03722 14.1756 4.95083 14.2703 5.84916C14.42 7.30971 14.9089 7.78638 16.3664 7.89332C17.3655 7.97277 18.4167 7.72221 19.315 8.33332Z" fill="#E0E5E8"/>
<path d="M19.3149 8.33333C18.3066 8.33333 17.2952 8.33333 16.2838 8.33333C14.5788 8.31194 13.9494 7.7925 13.8669 6.12723C13.818 5.13723 13.6133 4.1014 14.1358 3.15112C15.9904 4.74539 17.7218 6.47774 19.3149 8.33333Z" fill="#B1BEC6"/>
</svg>
