<svg width="24" height="24" viewBox="0 0 24 24" fill="none" xmlns="http://www.w3.org/2000/svg">
<path d="M9.55559 19.6389C7.23337 19.0827 6.60698 18.3464 6.53365 16.0791C6.50004 14.9547 5.72087 14.0472 5.58337 12.9533C6.31365 9.98026 6.92476 6.93693 10.2003 5.55582C11.4959 5.50082 12.8495 6.07832 14.0717 5.20749C15.905 6.90943 17.8881 8.51971 18.0072 11.3339C18.0317 11.945 18.8292 12.2505 18.71 12.9228C18.3739 14.2183 17.5306 15.3214 17.6803 16.8277C17.7872 17.8819 16.9439 18.7527 15.9356 19.2722C15.4467 19.5136 14.9395 19.7244 14.4414 19.9475C14.1523 19.8023 13.8727 19.639 13.6042 19.4586C12.9686 19.1361 12.4605 18.6086 12.162 17.9614C11.5234 18.4686 11.1873 19.1194 10.57 19.4708C10.2548 19.6224 9.90284 19.6808 9.55559 19.6389Z" fill="#A48B82"/>
<path d="M18.7222 12.9166C18.3463 12.6663 18.0369 12.3283 17.8208 11.9317C17.6046 11.5351 17.4883 11.0919 17.4817 10.6403C17.442 8.80692 16.1861 7.63359 14.915 6.53665C14.4781 6.16082 14.0595 5.83693 14.0839 5.20138C15.2664 3.45971 18.8567 3.38943 20.085 5.13415C21.5639 7.23026 21.3653 9.65942 21.0536 11.9847C20.9069 13.0022 19.7764 13.3108 18.7222 12.9166Z" fill="#8E6F64"/>
<path d="M10.2003 5.55582C9.96663 5.87598 9.69471 6.16637 9.39058 6.42054C8.66149 6.86894 8.03924 7.47129 7.56738 8.18542C7.09552 8.89954 6.78546 9.70818 6.65892 10.5547C6.54475 11.4428 6.17054 12.2773 5.58336 12.9533C3.69198 13.2222 2.92809 12.6111 2.88837 10.7594C2.8517 9.08193 2.9892 7.4411 3.65226 5.87055C4.43142 4.03722 5.99281 3.87222 7.68864 3.93638C8.86502 3.98527 9.93752 4.11972 10.2003 5.55582Z" fill="#8E6F64"/>
<path d="M9.55554 19.6389C9.75721 19.2875 10.1025 19.3333 10.4294 19.3027C11.563 19.9139 12.6997 19.9994 13.8364 19.3027C13.9187 19.2941 14.002 19.304 14.0801 19.3316C14.1582 19.3593 14.2291 19.404 14.2876 19.4626C14.3462 19.5212 14.3909 19.5921 14.4186 19.6701C14.4463 19.7482 14.4561 19.8315 14.4475 19.9139C12.8769 21.8602 10.8542 21.738 9.55554 19.6389Z" fill="#917267"/>
<path d="M13.8333 19.3333C12.6386 20.6686 11.6333 20.6655 10.4264 19.3333C10.9672 18.6947 11.6792 18.2058 12.0672 17.1638C12.45 18.0327 13.0602 18.7822 13.8333 19.3333Z" fill="#B2385F"/>
<path d="M12.0641 13.8333C12.7639 13.9036 13.7294 13.8119 13.705 14.7164C13.705 15.3 12.7425 15.5964 12.1283 15.633C11.4408 15.6666 10.4478 15.3275 10.4233 14.695C10.3897 13.8578 11.3889 13.9219 12.0641 13.8333Z" fill="#2F383D"/>
<path d="M10.2216 12.055C10.1911 12.605 9.91605 12.935 9.38439 12.9716C8.77328 12.9961 8.38828 12.6661 8.41272 12.0764C8.40825 11.9476 8.43173 11.8194 8.48153 11.7005C8.53134 11.5817 8.60629 11.4751 8.70124 11.388C8.79618 11.3009 8.90887 11.2354 9.03154 11.1959C9.15422 11.1565 9.28397 11.1442 9.41189 11.1597C9.52442 11.1635 9.63504 11.19 9.73716 11.2374C9.83928 11.2848 9.93083 11.3523 10.0064 11.4358C10.0819 11.5194 10.1399 11.6172 10.1768 11.7236C10.2138 11.8299 10.229 11.9426 10.2216 12.055Z" fill="#2E373C"/>
<path d="M14.8508 12.9686C14.3253 12.9686 13.9525 12.7028 13.9036 12.1894C13.8839 12.0631 13.8916 11.9339 13.9261 11.8108C13.9607 11.6876 14.0213 11.5734 14.1039 11.4757C14.1865 11.3781 14.2891 11.2993 14.4048 11.2448C14.5205 11.1903 14.6466 11.1612 14.7744 11.1597C15.3856 11.1078 15.6911 11.5019 15.6911 12.0978C15.6974 12.2112 15.6803 12.3247 15.6407 12.4312C15.6011 12.5377 15.54 12.6349 15.4611 12.7166C15.3822 12.7984 15.2873 12.8629 15.1823 12.9063C15.0773 12.9497 14.9644 12.9709 14.8508 12.9686Z" fill="#2E373C"/>
</svg>
