<svg width="24" height="24" viewBox="0 0 24 24" fill="none" xmlns="http://www.w3.org/2000/svg">
<path d="M23 11.0833V14.75C22.2239 17.2311 21.2797 17.9827 18.6428 18.2119C17.8423 18.1141 17.0539 17.9491 16.235 17.9247C14.9303 17.8849 14.6645 17.338 15.2725 16.1463C15.4345 15.8408 15.682 15.5658 15.8623 15.2602C16.1495 14.7744 15.9845 14.585 15.4406 14.4475C13.3017 13.9127 13.2406 13.8119 13.2223 11.5936C13.2223 10.628 13.2223 9.66553 13.2223 8.70304C13.2223 7.89026 13.1642 7.17527 12.052 7.15999C10.9398 7.14471 10.8145 7.78943 10.8298 8.64193C10.8298 9.80609 10.8298 10.9733 10.8298 12.1375C10.8298 13.4208 10.3898 14.3038 8.97507 14.4475C8.58702 14.4841 8.04313 14.4841 8.36396 15.135C8.73063 15.8836 9.58618 16.5833 9.02701 17.4633C8.52285 18.2424 7.4473 17.9583 6.65591 18.2455C3.54843 18.1263 1.72732 16.5833 1.01538 13.5277V10.4722C1.30566 8.19582 2.74787 6.92777 4.74925 6.12721C5.30678 5.87808 5.80083 5.50624 6.19453 5.03944C10.2584 0.694459 16.1709 1.46446 18.9636 6.68332C19.312 7.33415 19.6909 7.87193 20.412 8.14387C21.0629 8.36446 21.6445 8.75204 22.0986 9.26787C22.5528 9.7837 22.8636 10.4097 23 11.0833Z" fill="#8DAEDC"/>
<path d="M18.7223 17.7352C18.4192 17.7829 18.1119 17.7982 17.8056 17.781C15.5934 17.4235 13.9984 18.1721 13.0023 20.2255C12.4645 21.3407 11.7801 21.3255 11.1842 20.2102C10.1881 18.3341 8.71231 17.3594 6.51843 17.7291C7.12954 17.0722 8.51065 18.0347 8.67565 16.9988C8.76426 16.4152 7.88426 15.6605 7.40148 15.0127C6.76899 14.1602 6.89121 13.7599 8.01259 13.8149C10.4754 13.9341 10.1515 13.7019 10.1698 11.5141C10.1698 10.243 10.1973 8.97497 10.1698 7.70386C10.1515 6.88803 10.4417 6.53664 11.3095 6.48164C13.7906 6.34109 13.8456 6.35942 13.8456 8.88941C13.8456 10.0077 13.9037 11.1291 13.8273 12.2505C13.7478 13.4238 14.1328 13.9463 15.3734 13.8455C15.9845 13.7936 16.9012 13.5002 17.2067 14.0991C17.5123 14.698 16.617 15.1563 16.2901 15.7063C15.9631 16.2563 15.4926 16.623 15.3245 17.2983C16.4214 17.8055 17.6589 17.1302 18.7223 17.7352Z" fill="#B8CEEB"/>
</svg>
