<svg width="24" height="24" viewBox="0 0 24 24" fill="none" xmlns="http://www.w3.org/2000/svg">
<path d="M21.182 12.1467C21.182 14.4872 21.1514 16.8308 21.182 19.1744C21.2095 20.5769 20.6473 21.2278 19.2081 21.2186C14.4781 21.1881 9.75116 21.2186 5.02422 21.2003C3.44144 21.2003 2.88533 20.6533 2.88533 19.1225C2.87107 14.4373 2.87107 9.75213 2.88533 5.06694C2.88533 3.50555 3.53922 2.88833 5.15255 2.88222C9.77662 2.86389 14.4017 2.86389 19.0278 2.88222C20.6473 2.88222 21.1667 3.43833 21.1667 5.125C21.1942 7.46861 21.182 9.80916 21.182 12.1467Z" fill="#5BC8DA"/>
<path d="M6.7323 13.7569C8.47397 11.4439 10.0567 9.31417 11.6701 7.20584C12.2445 6.45722 12.5867 7.20584 12.819 7.53584C14.3467 9.53722 15.8256 11.5753 17.439 13.7569H6.7323Z" fill="#BCE5EE"/>
<path d="M11.8503 17.5C10.4294 17.5 9.01167 17.5 7.59083 17.5C6.95528 17.5 6.51833 17.4022 6.51528 16.6078C6.51222 15.8133 6.85445 15.6667 7.53583 15.6667C10.5242 15.685 13.5145 15.685 16.5069 15.6667C17.1944 15.6667 17.5 15.9172 17.5 16.6505C17.5 17.4664 17.0203 17.5214 16.4031 17.5183C14.8906 17.5 13.3689 17.5 11.8503 17.5Z" fill="#BBE4ED"/>
</svg>
