<svg width="24" height="24" viewBox="0 0 24 24" fill="none" xmlns="http://www.w3.org/2000/svg">
<path d="M13.5614 4.05553C16.8645 4.20219 20.3387 7.02246 21.0781 10.1666C21.955 13.8852 20.1614 17.5305 16.5559 19.3699C15.1614 20.1158 13.5673 20.4034 12.0001 20.1919C11.557 19.761 11.5173 19.1958 11.5142 18.6366C11.4806 14.3191 11.4653 10.0047 11.5142 5.69025C11.5509 3.9883 11.8137 3.82636 13.5614 4.05553Z" fill="#3E83C4"/>
<path d="M13.5614 4.05553C12.3392 3.93942 11.9481 4.41303 11.9695 5.68414C12.052 10.5089 12 15.3611 12 20.1919C6.80558 20.4455 2.81198 16.7208 2.89142 11.6608C2.94948 8.17136 6.3228 4.41303 9.82446 4.0922C11.0558 3.97915 12.3056 3.48415 13.5614 4.05553Z" fill="#579ED6"/>
</svg>
