<svg width="24" height="24" viewBox="0 0 24 24" fill="none" xmlns="http://www.w3.org/2000/svg">
<path d="M11.4897 20.2653C7.44417 20.7358 2.83333 16.5986 2.88222 11.6944C2.88141 9.36047 3.80654 7.1215 5.45462 5.46884C7.10269 3.81618 9.33909 2.88484 11.6731 2.87917C16.1281 2.80278 20.4211 6.99806 20.3569 11.8014C20.3081 15.6667 16.4917 20.7786 11.4897 20.2653Z" fill="#EF5552"/>
<path d="M6.52139 11.0375C6.44195 10.4661 7.36167 9.74499 6.6375 8.86499C6.47556 8.66943 6.94306 8.29055 7.36778 8.52582C7.7925 8.7611 8.12861 9.01471 8.5075 9.26527C10.4661 10.5669 10.5028 10.9764 8.84361 12.6264C8.6767 12.8193 8.4499 12.9506 8.1995 12.9994C7.94911 13.0481 7.68959 13.0115 7.4625 12.8953C6.80556 12.5592 6.59778 11.9389 6.52139 11.0375Z" fill="#2B3339"/>
<path d="M15.4344 12.9931C15.1845 13.0104 14.9347 12.9578 14.7129 12.8412C14.4911 12.7247 14.3061 12.5487 14.1786 12.3331C12.9167 10.4722 12.9167 10.4722 14.9364 9.13084C15.2673 8.89552 15.6133 8.68219 15.9722 8.49223C16.3267 8.31806 16.7269 8.63584 16.5833 8.85278C16.0089 9.72056 16.7392 10.4814 16.6658 11.2972C16.5833 12.1772 16.3022 12.8678 15.4344 12.9931Z" fill="#2D3339"/>
<path d="M11.6944 14.7958C12.8097 14.7958 13.925 14.7958 15.0372 14.7958C15.3642 14.7958 15.6728 14.9119 15.6758 15.2878C15.6789 15.6636 15.3397 15.7583 15.0311 15.7614C12.7517 15.7614 10.4722 15.7614 8.19278 15.7614C7.88722 15.7614 7.52972 15.6789 7.54806 15.2908C7.56639 14.9028 7.85361 14.7989 8.19889 14.7989L11.6944 14.7958Z" fill="#35343A"/>
</svg>
