<svg width="24" height="24" viewBox="0 0 24 24" fill="none" xmlns="http://www.w3.org/2000/svg">
<path d="M20.25 11.67C20.8611 16.0486 16.1128 20.3661 11.5203 20.3814C6.99195 20.3905 2.60112 15.74 2.83334 11.4775C3.07168 6.61305 6.74445 3.01972 11.7769 2.83333C15.5261 2.69278 20.9069 6.73221 20.25 11.67Z" fill="#81CAC4"/>
<path d="M9.31723 12.0183C9.2989 12.993 9.0789 13.8516 7.94834 13.8516C6.92473 13.8516 6.61307 13.0236 6.5764 12.168C6.53973 11.2514 6.86668 10.3164 7.89945 10.2583C8.93223 10.2003 9.28362 11.1016 9.31723 12.0183Z" fill="#29363C"/>
<path d="M13.8547 12.0947C13.9892 11.178 14.2366 10.24 15.3122 10.2614C16.3878 10.2828 16.6597 11.178 16.6414 12.1405C16.6414 13.0297 16.3358 13.8272 15.3244 13.8547C14.1908 13.8975 14.0014 12.9747 13.8547 12.0947Z" fill="#29363C"/>
<path d="M11.5447 14.7683C12.6875 14.8111 13.6561 15.0494 14.4933 15.685C14.5607 15.7204 14.6198 15.7697 14.6668 15.8296C14.7137 15.8894 14.7476 15.9585 14.766 16.0324C14.7845 16.1062 14.7872 16.1831 14.7739 16.258C14.7606 16.3329 14.7316 16.4042 14.6889 16.4672C14.5117 16.7178 14.2305 16.6505 14.0105 16.513C12.3789 15.5108 10.7717 15.5322 9.16139 16.565C9.10728 16.5994 9.04682 16.6226 8.98359 16.6332C8.92036 16.6438 8.85564 16.6417 8.79325 16.6268C8.73087 16.612 8.67209 16.5849 8.62039 16.5469C8.56868 16.509 8.5251 16.4611 8.49223 16.4061C8.33028 16.1586 8.49223 15.9141 8.68778 15.7461C9.50854 15.1184 10.5115 14.7751 11.5447 14.7683Z" fill="#2C3D42"/>
</svg>
