<svg width="24" height="24" viewBox="0 0 24 24" fill="none" xmlns="http://www.w3.org/2000/svg">
<path d="M11.6333 20.25C7.16612 20.8397 2.72028 16.235 2.85167 11.5661C2.9025 9.26746 3.83994 7.07743 5.46801 5.45392C7.09608 3.83041 9.28872 2.8991 11.5875 2.85472C16.2595 2.72639 20.5006 7.2425 20.3539 11.8411C20.2195 16.0761 16.3236 20.7175 11.6333 20.25Z" fill="#FFE082"/>
<path d="M13.8578 10.3164C13.977 9.39971 14.2 8.45249 15.2695 8.44638C16.3389 8.44027 16.6445 9.3386 16.6414 10.2797C16.6414 11.1505 16.4183 11.9755 15.3733 12.0367C14.2153 12.1069 14.032 11.1842 13.8578 10.3164Z" fill="#2D373A"/>
<path d="M9.31723 10.9336C9.31723 12.0947 9.06056 12.9595 7.95139 12.9686C6.94306 12.9686 6.61 12.1406 6.57945 11.2759C6.54584 10.3592 6.86056 9.42724 7.89945 9.36613C8.98417 9.30502 9.25 10.2095 9.31723 10.9336Z" fill="#2D373A"/>
<path d="M15.0861 13.9464C15.4222 13.9219 15.5781 14.0197 15.6636 14.2306C15.7116 14.3491 15.7131 14.4813 15.6678 14.6008C15.6225 14.7204 15.5337 14.8184 15.4192 14.8753C14.7424 15.3286 13.9608 15.6011 13.1489 15.6667C11.5019 15.8439 9.78778 15.6178 8.26 16.562C8.20622 16.5977 8.14577 16.6223 8.08228 16.6341C8.01878 16.6459 7.95355 16.6448 7.89049 16.6309C7.82743 16.6169 7.76784 16.5903 7.7153 16.5527C7.66276 16.5152 7.61835 16.4674 7.58473 16.4122C7.38306 16.0761 7.62139 15.8011 7.89028 15.6728C8.38135 15.4213 8.89234 15.2107 9.41806 15.0433C11.3217 14.4933 13.4575 15.2389 15.0861 13.9464Z" fill="#2D373A"/>
</svg>
