<svg width="24" height="24" viewBox="0 0 24 24" fill="none" xmlns="http://www.w3.org/2000/svg">
<path d="M20.25 11.5569C20.7572 16.2228 16.1647 20.3233 11.6058 20.3569C7.19361 20.3875 2.68973 16.2564 2.83334 11.5203C2.97695 6.73221 6.76889 2.87305 11.6119 2.88222C16.5314 2.89139 20.25 6.6161 20.25 11.5569Z" fill="#FFE082"/>
<path d="M11.5508 16.6536C10.0505 16.6689 8.7611 16.1922 7.80166 14.9975C7.59388 14.7377 7.27916 14.4322 7.6611 14.0808C8.04305 13.7294 8.27221 14.1205 8.51666 14.3405C10.6291 16.2227 12.6875 16.235 14.6919 14.3772C14.9364 14.148 15.138 13.6897 15.5322 14.0472C15.9264 14.4047 15.6239 14.7927 15.355 15.1075C14.3558 16.2777 13.0511 16.6994 11.5508 16.6536Z" fill="#2B353A"/>
<path d="M9.2989 10.4722C9.26529 11.1811 9.04835 12 7.99724 12.0183C6.86363 12.0428 6.57335 11.1628 6.56419 10.2522C6.55502 9.34166 6.91557 8.41888 7.96974 8.41888C9.0239 8.41888 9.31418 9.35694 9.2989 10.4722Z" fill="#2D373A"/>
<path d="M13.8486 10.3041C13.9708 9.38747 14.1939 8.44025 15.2664 8.44025C16.3389 8.44025 16.6414 9.33552 16.6353 10.2736C16.6353 11.1414 16.4092 11.9664 15.3611 12.0214C14.2031 12.0916 14.0228 11.1719 13.8486 10.3041Z" fill="#2D373A"/>
</svg>
