<svg width="24" height="24" viewBox="0 0 24 24" fill="none" xmlns="http://www.w3.org/2000/svg">
<path d="M11.6242 20.25C7.15389 20.8214 2.70196 16.2228 2.83334 11.5539C2.88655 9.25579 3.82587 7.0672 5.45499 5.44548C7.08412 3.82375 9.27697 2.89441 11.5753 2.85167C16.2533 2.72639 20.4975 7.23639 20.3508 11.8289C20.2194 16.0639 16.3175 20.7022 11.6242 20.25Z" fill="#FEE082"/>
<path d="M11.5875 17.5489C10.7778 17.5489 9.96806 17.5489 9.15834 17.5489C8.85278 17.5489 8.48917 17.5489 8.45251 17.1608C8.41584 16.7728 8.69695 16.6261 9.03306 16.6261C10.7564 16.6261 12.4767 16.6261 14.2 16.6261C14.2765 16.6146 14.3546 16.6215 14.4279 16.6463C14.5012 16.6711 14.5675 16.7131 14.6213 16.7687C14.6751 16.8243 14.7148 16.8919 14.7372 16.966C14.7596 17.04 14.764 17.1183 14.75 17.1944C14.7164 17.5336 14.4261 17.5366 14.1817 17.5397C13.3108 17.555 12.4492 17.5489 11.5875 17.5489Z" fill="#323B3C"/>
<path d="M15.4314 7.435C15.8247 7.5242 16.2054 7.66172 16.565 7.84444C17.0233 8.15 17.6619 8.66333 17.3655 9.12777C17.0141 9.67472 16.5344 9.08499 16.1433 8.77333C15.4894 8.25694 14.8142 8.3425 14.2489 8.93527C13.9433 9.27138 13.5369 9.52194 13.2405 9.14916C12.9442 8.77638 13.378 8.41277 13.6408 8.12861C14.0717 7.655 14.6522 7.50222 15.4314 7.435Z" fill="#30393B"/>
<path d="M7.83526 11.0253C8.33637 11.3522 9.27748 10.628 9.24692 11.7219C9.25164 11.8892 9.22198 12.0556 9.15976 12.2109C9.09755 12.3662 9.00411 12.5071 8.88523 12.6248C8.76636 12.7426 8.62458 12.8346 8.46867 12.8953C8.31277 12.9561 8.14606 12.9841 7.97887 12.9778C7.79922 12.9868 7.61966 12.9583 7.45161 12.8942C7.28357 12.83 7.13072 12.7316 7.00281 12.6051C6.8749 12.4786 6.77473 12.3269 6.70868 12.1596C6.64263 11.9923 6.61213 11.8131 6.61915 11.6333C6.58554 10.6555 7.5022 11.4072 7.83526 11.0253Z" fill="#363E3D"/>
<path d="M15.2786 11.0833C15.7216 11.3033 16.5558 10.7319 16.5741 11.6394C16.5931 11.8196 16.5717 12.0017 16.5117 12.1726C16.4516 12.3434 16.3543 12.4988 16.2268 12.6275C16.0993 12.7562 15.9448 12.8549 15.7745 12.9165C15.6041 12.9782 15.4222 13.0012 15.2419 12.9839C15.0615 12.9866 14.8826 12.951 14.7169 12.8795C14.5513 12.808 14.4026 12.7023 14.2808 12.5692C14.159 12.4361 14.0667 12.2787 14.0101 12.1074C13.9535 11.9361 13.9339 11.7547 13.9525 11.5753C14.0014 10.7044 14.8477 11.3216 15.2786 11.0833Z" fill="#363E3D"/>
</svg>
