<svg width="24" height="24" viewBox="0 0 24 24" fill="none" xmlns="http://www.w3.org/2000/svg">
<path d="M11.502 20.25C6.58558 20.25 2.87003 16.51 2.86392 11.5814C2.86392 6.76584 6.74141 2.98918 11.5509 2.85168C16.2992 2.71723 20.4883 7.29139 20.3539 11.8014C20.2317 15.9722 16.4061 20.7419 11.502 20.25Z" fill="#FFE082"/>
<path d="M11.6517 12.9533C12.9686 12.9533 14.2886 12.9991 15.6025 12.935C16.5803 12.8891 16.7636 13.3444 16.5192 14.1297C16.3731 14.6135 16.1679 15.0774 15.9081 15.5108C14.5972 17.6039 12.5256 17.7414 10.4081 17.4847C8.51974 17.2555 7.35252 16.0853 6.76586 14.2733C6.4603 13.3078 6.5428 12.8616 7.70697 12.935C9.01474 13.0144 10.3347 12.9533 11.6517 12.9533Z" fill="#EC437B"/>
<path d="M9.29586 10.5242C9.26836 11.1994 9.04225 12.0061 7.99419 12.0275C6.86058 12.0489 6.57336 11.1689 6.56419 10.2583C6.55503 9.34778 6.91864 8.425 7.9728 8.44028C9.02697 8.45556 9.31419 9.36 9.29586 10.5242Z" fill="#2D373A"/>
<path d="M13.8486 10.3011C13.9709 9.38444 14.1939 8.44028 15.2664 8.44028C16.3389 8.44028 16.6414 9.33555 16.6353 10.2736C16.6353 11.1414 16.4092 11.9664 15.3611 12.0214C14.2031 12.0917 14.0228 11.1719 13.8486 10.3011Z" fill="#2D373A"/>
</svg>
