<svg width="24" height="24" viewBox="0 0 24 24" fill="none" xmlns="http://www.w3.org/2000/svg">
<path d="M20.25 11.6578C20.7358 16.0547 16.3389 20.3691 11.508 20.3539C7.33111 20.3539 2.74167 16.3816 2.86695 11.5722C2.91068 9.27598 3.8415 7.0858 5.46434 5.46069C7.08717 3.83557 9.27604 2.90168 11.5722 2.85472C16.565 2.72639 20.8855 7.58471 20.25 11.6578Z" fill="#FFE082"/>
<path d="M17.5305 9.94664C17.4389 10.7105 15.7216 12.6111 15.1961 12.5316C14.585 12.4369 12.8739 10.2614 12.9808 9.62275C13.1275 8.74581 13.7508 8.09498 14.5575 8.47998C15.4894 8.91386 16.5986 7.7222 17.338 8.94442C17.5019 9.2514 17.569 9.60079 17.5305 9.94664Z" fill="#EC457B"/>
<path d="M7.90555 12.5408C7.33111 12.4827 5.57111 10.2827 5.65667 9.6533C5.77584 8.76414 6.41139 8.1072 7.20278 8.47692C8.20805 8.94136 10.2736 7.34636 10.2094 9.91303C10.1942 10.6433 8.41889 12.5927 7.90555 12.5408Z" fill="#EC457B"/>
<path d="M11.615 16.6536C10.0536 16.6841 8.73056 16.18 7.74973 14.9211C7.52667 14.6369 7.33112 14.2916 7.74973 14.0044C8.09806 13.7661 8.27528 14.09 8.49834 14.2855C10.7625 16.2472 12.5439 16.2502 14.7592 14.2855C14.9883 14.0839 15.1961 13.76 15.5078 13.9983C15.8194 14.2366 15.7033 14.6094 15.5078 14.9394C14.8692 15.9508 13.2956 16.6566 11.615 16.6536Z" fill="#2B353A"/>
</svg>
