<svg width="24" height="24" viewBox="0 0 24 24" fill="none" xmlns="http://www.w3.org/2000/svg">
<path d="M20.25 11.7586C20.25 17.28 16.8217 20.25 10.4722 20.25C6.56114 20.25 3.01059 16.2533 2.83337 12.0764C2.59504 6.71388 6.90031 3.09611 11.2331 2.79667C15.6361 2.49112 21.0169 6.66194 20.25 11.7586Z" fill="#B0BEC5"/>
<path d="M13.0084 15.6178C12.9381 16.6078 12.767 17.4969 11.6242 17.5214C10.5578 17.5428 10.2859 16.6903 10.24 15.8561C10.1911 14.9394 10.5059 14.0228 11.5447 13.9311C12.6417 13.8517 12.8984 14.7805 13.0084 15.6178Z" fill="#2A363C"/>
<path d="M8.39752 12.0611C8.10033 12.1066 7.79633 12.0591 7.52719 11.9251C7.25806 11.791 7.03696 11.5771 6.89419 11.3125C6.73836 11.0283 6.39002 10.6769 6.7078 10.3683C7.09586 9.99247 7.42891 10.2583 7.67641 10.6433C8.07058 11.2544 8.57474 11.2544 9.05752 10.7991C9.36307 10.4936 9.61363 9.88247 10.075 10.3744C10.4783 10.8205 10.0108 11.2911 9.67474 11.6669C9.33863 12.0427 8.88641 12.0794 8.39752 12.0611Z" fill="#313C42"/>
<path d="M14.7836 12.058C14.584 12.0871 14.3804 12.0727 14.1868 12.0157C13.9933 11.9588 13.8143 11.8606 13.6622 11.728C13.2925 11.34 12.7272 10.8572 13.1672 10.353C13.6072 9.84886 13.9036 10.463 14.2 10.8052C14.6125 11.2819 15.1167 11.2116 15.4956 10.7777C15.8011 10.4386 16.0517 9.88247 16.507 10.4019C16.8431 10.7839 16.4489 11.2422 16.1556 11.5875C15.9838 11.7734 15.7685 11.9138 15.529 11.9959C15.2895 12.0781 15.0334 12.0994 14.7836 12.058Z" fill="#2F3B41"/>
</svg>
