<svg width="24" height="24" viewBox="0 0 24 24" fill="none" xmlns="http://www.w3.org/2000/svg">
<path d="M11.5692 20.25C7.25472 20.8214 2.70805 16.3053 2.85777 11.4958C2.93394 9.22879 3.86837 7.07532 5.47203 5.4711C7.07568 3.86688 9.22882 2.93168 11.4958 2.85472C16.4061 2.69583 20.4547 7.43805 20.3569 11.7494C20.2592 16.0608 16.3175 20.7419 11.5692 20.25Z" fill="#FFE082"/>
<path d="M11.5692 16.6658C10.0719 16.6872 8.7825 16.2106 7.82306 15.0158C7.61528 14.7592 7.29444 14.4597 7.67028 14.0992C8.04611 13.7386 8.28139 14.1236 8.52583 14.3436C10.6647 16.2411 12.6936 16.2595 14.6889 14.3956C14.9333 14.1664 15.135 13.7081 15.5261 14.0533C15.9172 14.3986 15.6331 14.7958 15.3642 15.1136C14.3681 16.2778 13.0664 16.7117 11.5692 16.6658Z" fill="#2B353A"/>
<path d="M6.53055 13.4422C6.46944 14.2581 6.05694 14.75 5.20749 14.75C4.35805 14.75 3.8111 14.3558 3.82944 13.5278C3.82358 13.3354 3.85695 13.1439 3.92751 12.9648C3.99806 12.7858 4.10433 12.623 4.23984 12.4864C4.37534 12.3497 4.53724 12.2421 4.71569 12.17C4.89413 12.098 5.08537 12.063 5.27777 12.0672C6.09971 12.0336 6.49999 12.6111 6.53055 13.4422Z" fill="#F8A280"/>
<path d="M19.3333 13.2558C19.2753 14.2183 18.878 14.7194 18.0286 14.7592C17.1792 14.7989 16.6261 14.3864 16.6169 13.5369C16.6083 13.3467 16.638 13.1566 16.7041 12.978C16.7703 12.7994 16.8716 12.6359 17.0021 12.4971C17.1326 12.3584 17.2896 12.2472 17.4638 12.1702C17.638 12.0932 17.8259 12.052 18.0164 12.0489C18.8872 12 19.2355 12.6111 19.3333 13.2558Z" fill="#F8A280"/>
<path d="M8.02777 9.30498C8.48527 9.28168 8.93605 9.42254 9.29888 9.70221C9.72054 10.0261 10.3775 10.5058 10.0322 10.9978C9.6411 11.5569 9.21638 10.8878 8.82832 10.6067C8.69378 10.4909 8.53731 10.4033 8.36823 10.3493C8.19915 10.2952 8.02093 10.2757 7.84416 10.292C7.6674 10.3082 7.49571 10.3599 7.33933 10.4439C7.18294 10.5278 7.04505 10.6424 6.93388 10.7808C6.62832 11.1169 6.25554 11.3919 5.93471 11.0375C5.61388 10.683 6.02943 10.298 6.27693 10.0169C6.49473 9.77206 6.76587 9.58052 7.06944 9.45707C7.37301 9.33363 7.70089 9.2816 8.02777 9.30498Z" fill="#363D3D"/>
<path d="M15.2358 9.30501C15.62 9.28225 16.0034 9.36124 16.3472 9.53398C16.6911 9.70673 16.9833 9.96712 17.1944 10.2889C17.3442 10.5211 17.6558 10.7992 17.3228 11.0711C17.2619 11.1173 17.1926 11.1509 17.1186 11.17C17.0447 11.1892 16.9677 11.1935 16.8922 11.1827C16.8166 11.1719 16.7439 11.1462 16.6783 11.1071C16.6127 11.068 16.5555 11.0163 16.51 10.955C15.7614 10.1392 14.9822 10.0169 14.1786 10.8633C13.9036 11.1536 13.5675 11.3431 13.2619 11.0253C12.9564 10.7075 13.3047 10.3744 13.5156 10.1086C13.7223 9.85267 13.9847 9.64725 14.2828 9.50799C14.5809 9.36874 14.9069 9.29932 15.2358 9.30501Z" fill="#30393B"/>
</svg>
