<svg width="24" height="24" viewBox="0 0 24 24" fill="none" xmlns="http://www.w3.org/2000/svg">
<path d="M11.6303 20.25C7.17526 20.8397 2.72637 16.2411 2.85776 11.56C2.90861 9.26245 3.84583 7.07354 5.47341 5.45109C7.10098 3.82864 9.29284 2.89833 11.5905 2.85473C16.2441 2.72945 20.4914 7.23334 20.3447 11.8442C20.2103 16.0731 16.3236 20.7206 11.6303 20.25Z" fill="#FFE082"/>
<path d="M11.5569 16.6658C10.0566 16.6842 8.77024 16.2044 7.81385 15.0067C7.60607 14.7469 7.29746 14.4414 7.67635 14.09C8.05524 13.7386 8.28746 14.1267 8.52885 14.3497C10.625 16.235 12.6905 16.2533 14.6919 14.3894C14.9394 14.1603 15.1441 13.705 15.5322 14.0625C15.9202 14.42 15.6239 14.808 15.355 15.1228C14.3558 16.2778 13.0541 16.7147 11.5569 16.6658Z" fill="#2B353A"/>
<path d="M16.6567 10.2033C16.5955 11.12 16.4428 12.0214 15.2878 12.0367C14.2336 12.055 13.9433 11.2147 13.8975 10.3744C13.8455 9.45777 14.1603 8.52277 15.1992 8.44944C16.2778 8.37305 16.565 9.28361 16.6567 10.2033Z" fill="#2D373A"/>
<path d="M8.02775 9.30501C8.4845 9.28411 8.93384 9.42595 9.29581 9.70529C9.71747 10.0261 10.3744 10.5089 10.0291 10.9978C9.63497 11.557 9.21331 10.8847 8.82525 10.6067C8.69071 10.4909 8.53424 10.4034 8.36516 10.3493C8.19608 10.2952 8.01786 10.2757 7.84109 10.292C7.66433 10.3082 7.49264 10.3599 7.33626 10.4439C7.17987 10.5279 7.04199 10.6425 6.93081 10.7808C6.62525 11.12 6.24942 11.392 5.93164 11.0345C5.61386 10.677 6.02942 10.2981 6.27386 10.017C6.49198 9.77166 6.76362 9.57986 7.06776 9.4564C7.3719 9.33294 7.70038 9.28114 8.02775 9.30501Z" fill="#363D3D"/>
</svg>
