<svg width="24" height="24" viewBox="0 0 24 24" fill="none" xmlns="http://www.w3.org/2000/svg">
<path d="M18.7528 5.85528C22.2575 9.50055 22.1352 15.0678 18.4716 18.6886C16.7844 20.3328 14.5252 21.2586 12.1694 21.2711C9.81353 21.2836 7.54463 20.382 5.84 18.7558C5.71778 18.5205 5.62917 18.2333 5.80028 18.0378C7.27305 16.345 8.62666 14.5239 10.6678 13.43C11.4439 13.7355 11.4225 14.423 11.4653 15.0769C11.4566 15.5318 11.4863 15.9867 11.5539 16.4366C11.6028 16.6353 11.6975 16.8339 11.9236 16.8614C12.2292 16.9011 12.3667 16.6658 12.4278 16.4091C12.5033 15.9622 12.532 15.5085 12.5133 15.0555C12.5408 14.4444 12.6203 13.7875 13.213 13.4575C15.1075 12.4094 15.4558 10.738 15.1869 8.79166C15.7033 7.6 16.7728 6.90028 17.6558 6.04167C17.7882 5.8875 17.9703 5.78447 18.1706 5.75044C18.371 5.7164 18.5769 5.75348 18.7528 5.85528Z" fill="#FCB74E"/>
<path d="M10.4723 13.6042C9.22864 14.8722 7.98198 16.1341 6.74448 17.4053C6.35948 17.7994 5.8767 18.1294 5.82782 18.7589C4.89668 17.9312 4.14709 16.9197 3.62628 15.788C3.10547 14.6563 2.82473 13.429 2.80176 12.1834C2.7788 10.9378 3.0141 9.70098 3.49284 8.55085C3.97158 7.40072 4.68338 6.36223 5.58337 5.50083C6.45179 4.62309 7.49101 3.93279 8.63679 3.47261C9.78257 3.01242 11.0106 2.79213 12.2449 2.82535C13.4792 2.85857 14.6935 3.1446 15.8129 3.66575C16.9323 4.1869 17.9328 4.93209 18.7528 5.85528C17.2892 6.3625 16.6139 7.81388 15.4406 8.65111C14.8692 8.60527 14.6339 8.08583 14.2428 7.78638C12.7334 6.62528 10.952 6.70166 9.71447 7.99416C8.47698 9.28666 8.46781 10.9367 9.59531 12.4094C9.89475 12.8036 10.4081 13.0389 10.4723 13.6042Z" fill="#FECE85"/>
<path d="M10.4723 13.6042C9.01781 12.7089 8.15615 11.4653 8.44031 9.70833C8.69698 8.1225 9.66253 7.08667 11.2453 6.67723C12.8281 6.26778 14.1847 6.90028 15.4406 8.65111C16.0731 11.12 15.7003 12.2994 13.65 13.54C12.4859 14.2428 13.2131 15.2633 12.9839 16.1128C12.8586 16.5894 13.3353 17.335 12.5134 17.5C11.6914 17.665 11.0925 17.6436 11.062 16.4397C11.0375 15.5047 11.7556 14.3039 10.4723 13.6042Z" fill="#394850"/>
</svg>
