<svg width="24" height="24" viewBox="0 0 24 24" fill="none" xmlns="http://www.w3.org/2000/svg">
<path d="M18.053 11.9817C16.8104 14.53 15.5638 17.0824 14.313 19.6389C13.8028 20.6778 13.0572 21.2339 11.7983 21.2003C8.95972 21.1269 6.11806 21.1605 3.2764 21.2003C1.99612 21.2003 1.74862 20.6533 2.26501 19.5839C3.55445 16.95 4.84797 14.3181 6.14556 11.6883C9.79389 11.3828 13.4453 11.5661 17.0967 11.6028C17.2737 11.5956 17.4503 11.6256 17.615 11.6909C17.7797 11.7561 17.9289 11.8552 18.053 11.9817Z" fill="#F5A1BE"/>
<path d="M18.053 11.9817C14.5066 11.9939 10.9611 12 7.41666 12C6.97361 12 6.5 12.1039 6.15778 11.6608C7.31277 9.29583 8.47083 6.93694 9.6136 4.56889C10.1667 3.40473 11.0314 2.83334 12.3697 2.87306C15.0494 2.92501 17.7322 2.87306 20.4119 2.89139C21.9397 2.89139 22.2452 3.41695 21.5211 4.905C20.3905 7.27611 19.2111 9.62277 18.053 11.9817Z" fill="#F06492"/>
</svg>
