<svg width="24" height="24" viewBox="0 0 24 24" fill="none" xmlns="http://www.w3.org/2000/svg">
<path d="M4.77055 13.3261C4.77055 11.0405 4.81639 8.74276 4.73694 6.47249C4.69111 5.16471 5.20444 4.3336 6.38694 3.88444C10.015 2.47482 14.037 2.46175 17.6741 3.84777C19.4494 4.50472 19.6511 5.11583 19.4861 7.81999C18.7497 8.01554 18.4075 7.41054 17.9583 7.05916C17.6528 6.8361 17.3716 6.57943 17.0416 6.92471C16.8003 7.17832 16.9164 7.4686 17.063 7.76193C17.998 9.61971 17.9797 9.62276 15.8408 9.63804C14.9241 9.63804 14.0075 9.60443 13.1122 9.63804C12.608 9.66248 11.7342 9.38137 11.7342 10.1116C11.7342 10.9641 12.6508 10.6494 13.1886 10.6769C14.2978 10.7289 15.413 10.6769 16.5222 10.7014C17.0203 10.7166 17.61 10.6494 17.8789 11.175C18.1477 11.7005 17.6803 12.0916 17.3839 12.5011C17.1272 12.8433 16.5833 13.1916 17.0783 13.6408C17.5214 14.0411 17.9033 13.5797 18.2516 13.3016C18.6 13.0236 18.9514 12.55 19.5319 12.5836C19.5319 13.1305 19.5105 13.6775 19.5014 14.2244C19.1377 15.4466 18.0897 15.9325 17.0325 16.2655C13.774 17.2937 10.2779 17.2937 7.01944 16.2655C5.51 15.8439 4.63611 14.9669 4.77055 13.3261Z" fill="#556F7B"/>
<path d="M19.4922 16.2105C19.6694 19.48 19.0705 20.3936 15.52 20.9894C12.9991 21.4141 10.3836 21.4905 7.85358 20.7878C4.93553 19.975 4.70942 19.6236 4.79803 16.5344C5.16776 16.3297 5.48859 16.5039 5.7972 16.678C9.1583 18.5878 12.7364 18.1691 16.3236 17.5947C17.5 17.3992 18.3433 16.4672 19.4922 16.2105Z" fill="#556F7A"/>
<path d="M19.4983 12.6111C19.0155 13.0572 18.4961 13.4727 18.0591 13.9586C17.5244 14.5697 17.1424 14.4841 16.5619 13.9586C15.9813 13.433 16.183 13.0725 16.6444 12.6141C17.0202 12.2475 17.5611 11.9786 17.6741 11.1719H12.3819C11.7127 11.1719 11.0711 11.2605 11.0802 10.2155C11.0894 9.17053 11.7708 9.29886 12.4186 9.29886C14.1297 9.29886 15.8377 9.29886 17.5855 9.29886C17.5549 8.60831 17.0355 8.3822 16.7086 8.04914C16.2502 7.5847 15.8897 7.27303 16.5527 6.60692C17.2158 5.94081 17.5733 6.06609 18.1019 6.68025C18.4899 7.13248 18.8902 7.59692 19.4861 7.8322C19.629 8.09162 19.7914 8.33983 19.9719 8.5747C21.5944 10.408 21.5974 10.408 19.8924 12.168C19.7549 12.3055 19.6388 12.4461 19.4983 12.6111Z" fill="#5CC7D9"/>
<path d="M19.4922 16.2105C18.9463 16.9491 18.1649 17.4794 17.2769 17.7139C12.9778 18.8383 8.73666 19.1683 4.78278 16.5375C4.78278 15.466 4.78278 14.3945 4.78278 13.323C4.88055 14.6522 5.65666 15.4008 6.86666 15.7919C10.2989 16.9372 14.0133 16.9168 17.4328 15.7339C18.2883 15.4436 18.8383 14.7866 19.48 14.2336C19.6429 14.882 19.6471 15.5601 19.4922 16.2105Z" fill="#5CC7D9"/>
</svg>
