<svg width="24" height="24" viewBox="0 0 24 24" fill="none" xmlns="http://www.w3.org/2000/svg">
<path d="M17.4996 19.9441C17.3346 20.8608 16.7418 21.1663 15.8649 21.1663C12.1648 21.1663 8.46463 21.1663 4.76449 21.1663C3.52398 21.1663 2.87012 20.5277 2.86707 19.3086C2.86707 14.4413 2.86707 9.57399 2.86707 4.70668C2.86707 3.622 3.47815 2.93147 4.50478 2.90091C6.94913 2.82758 9.36904 2.87647 11.8042 2.90091C11.9723 2.90091 12.1403 3.07813 12.3084 3.17285C12.5161 4.12614 12.3817 5.09166 12.4428 6.05107C12.5192 7.25797 13.0997 7.91794 14.3555 7.93016C15.3172 7.88676 16.2808 7.92151 17.2368 8.03405C17.9762 8.73375 17.7562 9.64732 17.799 10.5028C18.187 11.1812 17.7684 11.8778 17.8295 12.5744C17.8907 13.2711 17.2185 13.2802 16.7265 13.3138C15.4158 13.4025 14.0989 13.3383 12.785 13.3536C12.331 13.3253 11.8753 13.354 11.4284 13.4391C11.1901 13.5002 10.8937 13.5613 10.9151 13.8883C10.9365 14.2152 11.2206 14.2549 11.4712 14.2824C12.3878 14.3802 13.3044 14.316 14.1997 14.3313C14.603 14.3313 15.0063 14.3313 15.4219 14.3313C18.0068 14.3313 18.0068 14.3313 17.912 16.9284C17.2826 17.8573 17.9212 18.9695 17.4996 19.9441Z" fill="#9BCFEB"/>
<path d="M17.744 16.8887C17.6493 16.5037 17.0046 16.2287 17.2612 15.8529C18.2237 14.4352 17.0412 14.7957 16.4027 14.7835C14.7497 14.7499 13.0631 14.7652 11.3887 14.7743C10.747 14.7743 10.1665 14.8018 10.2001 13.8577C10.2398 12.9777 10.8112 12.9411 11.4498 12.9411C13.4694 12.9411 15.4891 12.9411 17.7562 12.9411C16.7876 11.9756 17.5698 11.2575 17.7898 10.4753C19.3542 11.0039 20.0722 12.5194 21.2669 13.4819C21.3286 13.5281 21.3783 13.5885 21.4117 13.6579C21.4452 13.7274 21.4614 13.8038 21.459 13.8809C21.4566 13.9579 21.4356 14.0332 21.398 14.1005C21.3603 14.1677 21.3069 14.2249 21.2425 14.2671C20.167 15.2174 19.4092 16.5037 18.0465 17.1515C17.926 17.0895 17.8223 16.9993 17.744 16.8887Z" fill="#2088C9"/>
<path d="M17.2337 8.02795C15.706 8.55349 13.9339 8.94458 12.73 7.82629C11.4192 6.62245 11.9539 4.77085 12.3053 3.16675L17.2337 8.02795Z" fill="#2489CA"/>
<path d="M17.744 16.8887L18.0496 17.1667C17.359 17.9917 18.2329 19.1283 17.4935 19.9441C17.5943 18.9236 17.2307 17.8695 17.744 16.8887Z" fill="#ACAFB6"/>
</svg>
