<svg width="24" height="24" viewBox="0 0 24 24" fill="none" xmlns="http://www.w3.org/2000/svg">
<path d="M12.0153 21.2033C9.32028 21.2033 6.62834 21.1789 3.93335 21.2033C3.1664 21.2033 2.87307 21.0108 2.87918 20.1827C2.91178 14.7479 2.91178 9.31008 2.87918 3.86917C2.87918 3.01667 3.23057 2.86389 3.97001 2.87306C6.97056 2.89954 9.96908 2.89954 12.9656 2.87306C13.6286 2.87306 14.0044 2.98611 14.0167 3.77139C14.0289 4.55667 13.7111 4.8225 12.9381 4.81028C10.6006 4.77667 8.26306 4.83167 5.92557 4.78278C5.05473 4.76444 4.7889 5.05472 4.79807 5.91639C4.83473 10.0312 4.83473 14.148 4.79807 18.2669C4.79807 19.1653 5.10362 19.37 5.95001 19.3639C10.0658 19.3272 14.2 19.3211 18.3005 19.3639C19.2172 19.3639 19.3975 19.0339 19.3792 18.2119C19.3333 15.9264 19.3792 13.6286 19.3608 11.3522C19.3608 10.7136 19.2967 10.1728 20.253 10.1575C21.1697 10.1575 21.2186 10.5761 21.2125 11.2728C21.1911 14.2183 21.1697 17.17 21.2125 20.1155C21.2308 21.0108 20.9283 21.2186 20.088 21.2033C17.4022 21.1666 14.7072 21.2033 12.0153 21.2033Z" fill="#414EA1"/>
<path d="M17.5366 5.18917C16.8675 4.71862 16.125 5.18917 15.8102 4.66667C15.6086 4.32139 15.6575 3.78056 15.7094 3.34056C15.7797 2.76306 16.2991 2.90056 16.678 2.89445C17.8452 2.87612 19.0125 2.92501 20.1766 2.87306C21.0016 2.83334 21.2277 3.17862 21.2002 3.95167C21.1605 5.06695 21.2002 6.18222 21.2002 7.31278C21.2002 7.97278 21.3194 8.63583 20.2591 8.62972C19.1989 8.62361 19.3883 7.90861 19.3425 7.28222C19.3425 7.08972 19.3027 6.89722 19.2447 6.36556L13.983 11.618C13.5522 12.0489 13.103 12.4614 12.6966 12.9136C12.1925 13.4789 11.78 13.7355 11.0925 13.0603C10.405 12.385 10.6708 12.0183 11.2147 11.4867C13.3108 9.43638 15.3611 7.34944 17.5366 5.18917Z" fill="#7881BE"/>
</svg>
