<svg width="24" height="24" viewBox="0 0 24 24" fill="none" xmlns="http://www.w3.org/2000/svg">
<path d="M22.1323 12.1711C21.845 14.1511 20.577 15.4253 19.1592 16.4733C17.2685 17.9211 14.9214 18.6431 12.5439 18.5083C10.0873 18.4167 7.72227 18.4167 5.64449 16.9194C4.54844 16.1118 3.57842 15.1459 2.76616 14.0533C1.73032 12.7089 1.84949 11.4622 2.72949 10.1819C4.56282 7.52056 6.95227 6.01417 10.35 5.77889C13.1 5.58945 15.737 5.53445 18.0837 7.00112C19.9934 8.21723 21.7962 9.68389 22.1323 12.1711Z" fill="#E4F2FB"/>
<path d="M16.6048 12.1681C16.6009 12.7627 16.4787 13.3507 16.2453 13.8976C16.012 14.4446 15.6721 14.9397 15.2456 15.354C14.819 15.7683 14.3143 16.0937 13.7607 16.311C13.2072 16.5284 12.616 16.6334 12.0215 16.62C10.8228 16.5922 9.68237 16.0976 8.84289 15.2415C8.00341 14.3855 7.53119 13.2356 7.52673 12.0367C7.55729 9.61974 9.77868 7.45335 12.162 7.53585C13.3597 7.57798 14.4939 8.08541 15.3234 8.95036C16.153 9.81532 16.6127 10.9696 16.6048 12.1681Z" fill="#3474BA"/>
<path d="M14.7501 12.1283C14.7501 13.7875 13.647 14.8172 11.9542 14.7744C11.2434 14.7561 10.5679 14.4603 10.0723 13.9504C9.57664 13.4405 9.30018 12.7569 9.30201 12.0458C9.33756 11.3348 9.63621 10.6623 10.1399 10.1591C10.6436 9.65598 11.3164 9.35808 12.0276 9.32333C12.3921 9.32317 12.753 9.39622 13.0888 9.53817C13.4246 9.68012 13.7285 9.88807 13.9824 10.1497C14.2363 10.4113 14.4351 10.7212 14.567 11.0611C14.6989 11.401 14.7611 11.7639 14.7501 12.1283Z" fill="#273339"/>
</svg>
