<svg width="24" height="24" viewBox="0 0 24 24" fill="none" xmlns="http://www.w3.org/2000/svg">
<path d="M12.0978 18.4167C8.52276 18.6336 5.53748 17.4358 3.26415 14.6247C2.77369 14.0421 2.39086 13.3768 2.13359 12.66C1.92581 12.0489 1.94109 11.5142 2.5522 11.2239C3.16331 10.9336 3.56359 11.3308 3.89665 11.8594C6.45109 15.9111 9.78165 17.2983 14.475 16.3236C17.0141 15.7981 18.9361 14.4597 20.1278 12.1497C20.4516 11.5203 20.7816 10.8542 21.5761 11.2086C22.4408 11.5967 22.1872 12.4308 21.8816 13.0419C20.2439 16.2075 17.5794 17.9308 14.0778 18.3892C13.4191 18.4413 12.7577 18.4505 12.0978 18.4167Z" fill="#29343A"/>
</svg>
