<svg width="24" height="24" viewBox="0 0 24 24" fill="none" xmlns="http://www.w3.org/2000/svg">
<path d="M9.24999 17.1424C9.24999 16.3816 9.24999 15.6147 9.24999 14.8569C9.24999 13.9983 9.55554 12.9288 8.02777 13.0755C7.60305 13.1183 7.48999 12.6936 7.48999 12.3055C7.48999 11.5447 7.48999 10.7777 7.48999 10.023C7.48999 9.53108 7.66416 9.20108 8.18666 9.27441C9.46082 9.4608 9.2561 8.58691 9.26526 7.8383C9.30193 4.28776 10.7105 2.89137 14.255 2.88832C14.7133 2.88832 15.1716 2.91887 15.6269 2.88832C16.3358 2.83026 16.6719 3.09609 16.6047 3.83554C16.5558 4.18829 16.5558 4.54611 16.6047 4.89887C16.9102 6.54581 16.1158 6.97664 14.6705 6.7322C13.5889 6.54581 13.1244 6.89108 13.0786 8.07969C13.0297 9.36302 13.7447 9.22247 14.6064 9.30191C15.2664 9.37524 16.3816 8.65413 16.5405 9.93747C16.7483 11.615 15.6544 13.1488 14.3436 13.1C13.2619 13.0602 13.0878 13.543 13.1214 14.4627C13.1733 16.2961 13.0847 18.1294 13.158 19.9444C13.2008 20.9711 12.825 21.2277 11.8472 21.2247C9.24999 21.2124 9.24999 21.2583 9.24999 18.6641V17.1424Z" fill="#4083C4"/>
</svg>
