<svg width="24" height="24" viewBox="0 0 24 24" fill="none" xmlns="http://www.w3.org/2000/svg">
<path d="M2.24357 21.1453C1.73024 20.8978 1.97774 20.4303 1.97774 20.0728C1.97774 15.1472 2.02357 10.2217 1.97774 5.2961C1.97774 4.2786 2.15496 3.84471 3.28857 3.90276C4.3244 3.95165 5.0119 3.96082 4.90496 5.34499C4.77305 7.1473 4.87576 8.95912 5.21051 10.735C6.00801 9.90999 6.85746 9.12776 7.58468 8.24471C7.83785 7.89157 8.19814 7.62949 8.61208 7.49739C9.02602 7.36528 9.47153 7.37018 9.88246 7.51137C10.7991 7.81693 10.2186 8.7336 10.3469 9.37221C10.3903 9.76904 10.3954 10.1691 10.3622 10.5669L10.793 10.9061C11.5752 10.0078 12.3911 9.13999 13.1244 8.20193C13.3796 7.84956 13.7449 7.5922 14.1627 7.47048C14.5804 7.34876 15.0268 7.3696 15.4313 7.52971C16.2288 7.80471 15.7369 8.6786 15.8469 9.28054C15.9294 9.70832 15.7094 10.1789 16.1525 10.7808C17.0508 9.86415 17.9613 8.99026 18.7741 8.04915C19.0218 7.75222 19.357 7.5412 19.7318 7.44626C20.1067 7.35132 20.5019 7.37732 20.8611 7.52054C21.5455 7.72832 21.2033 8.4861 21.2033 8.98415C21.2033 12.4369 21.1788 15.8867 21.1575 19.3394C20.2408 20.0117 19.2233 19.8161 18.2241 19.6908C17.4236 19.593 17.1638 18.9972 17.0905 18.2822C16.9988 17.3655 17.0569 16.4489 17.0233 15.5322C16.9897 14.7255 16.6047 14.31 15.8011 14.31C12.9594 14.2855 10.1177 14.2703 7.27607 14.31C6.45107 14.31 6.1119 14.7744 6.09357 15.5658C6.07218 16.4275 6.09357 17.2922 6.05079 18.1569C5.99885 19.1164 5.53746 19.7336 4.55663 19.7122C3.42607 19.7122 2.7294 20.2225 2.24357 21.1453Z" fill="#55656F"/>
<path d="M2.24357 21.1452C2.00218 19.6877 2.59496 19.0889 4.05552 19.3333C5.21052 19.5289 5.68718 19.1011 5.61996 17.8483C5.55274 16.5955 5.05774 14.9852 5.83691 14.1816C6.68941 13.2894 8.33329 13.9066 9.62885 13.8761C11.7036 13.8211 13.7875 13.928 15.8591 13.8364C17.0814 13.7844 17.6497 14.0961 17.503 15.4191C17.4052 16.3205 17.5336 17.2525 17.4725 18.1539C17.4113 19.0552 17.778 19.4311 18.6947 19.3761C19.5014 19.3211 20.3172 19.3761 21.1391 19.3761C21.4722 20.8305 21.0688 21.35 19.4188 21.3102C13.6988 21.1239 7.96968 21.1666 2.24357 21.1452Z" fill="#38454D"/>
<path d="M11.5813 19.3853C10.826 19.3424 10.0687 19.3486 9.31411 19.4036C7.88717 19.5961 7.42578 19.1347 7.42578 17.6253C7.42578 16.1158 7.81078 15.5689 9.36911 15.7033C11.0835 15.8093 12.8027 15.8144 14.5177 15.7186C15.4344 15.685 15.7583 15.9722 15.7399 16.9133C15.6605 19.9689 15.9844 19.3089 13.4055 19.3853C12.7944 19.4005 12.1894 19.3853 11.5813 19.3853Z" fill="#A9B3B8"/>
</svg>
