<svg width="24" height="24" viewBox="0 0 24 24" fill="none" xmlns="http://www.w3.org/2000/svg">
<path d="M12.9167 17.7322C12.9167 14.0319 12.9167 10.7044 12.9167 7.39528C12.9167 6.57944 13.4026 6.78417 13.8151 7.07444C15.8012 8.55027 17.7659 10.0536 19.7581 11.5203C20.4059 11.9969 20.1492 12.2933 19.6603 12.6569C17.5367 14.255 15.407 15.8653 12.9167 17.7322Z" fill="#79919D"/>
<path d="M3.88147 17.6528C3.88147 13.9861 3.88147 10.7258 3.88147 7.45335C3.88147 6.69557 4.21758 6.72307 4.72175 7.10196C6.65591 8.55946 8.58701 10.0231 10.5273 11.4592C11.0834 11.8717 11.1384 12.1956 10.5548 12.6203C8.44035 14.2092 6.32591 15.8103 3.88147 17.6528Z" fill="#7A919D"/>
</svg>
