<svg width="24" height="24" viewBox="0 0 24 24" fill="none" xmlns="http://www.w3.org/2000/svg">
<path d="M10.515 8.33334C12.5714 10.1453 12.5806 10.1667 14.7133 8.26918C15.2397 7.79012 15.9105 7.49987 16.62 7.44418C18.9544 7.22418 19.8467 6.42057 20.1858 4.08307C20.3081 3.2489 20.47 2.76612 21.4539 2.89446C22.5081 3.03196 22.0894 3.81112 22.065 4.29084C21.9611 6.19446 21.1239 7.72223 19.4647 8.67557C18.7222 9.09723 18.4808 9.55557 18.5236 10.3408C18.6046 11.4057 18.6046 12.4752 18.5236 13.54C18.2914 15.9845 18.6367 18.1783 20.5311 19.9231C21.1422 20.4975 20.9283 20.8764 20.3294 21.3439C19.7306 21.8114 19.3914 21.7258 19.0125 21.1239C17.9094 19.367 15.8836 18.0256 16.7758 15.3856C14.4872 16.1678 13.6286 17.5245 13.98 19.7122C14.0961 20.4456 14.2336 21.4447 12.8617 21.3072C12.3178 21.2522 12.0061 21.1239 12.0306 20.5158C12.0897 19.8569 12.0846 19.1938 12.0153 18.5358C11.7372 16.8247 12.3667 15.6728 13.8486 14.7989C14.915 14.1878 14.8539 14.0686 14.7225 11.2636C14.6308 11.2453 14.4994 11.1842 14.4506 11.2239C12.4278 12.8556 12.4247 12.8617 10.5944 11.0222C10.13 10.5547 9.69305 10.0658 9.24083 9.58612C9.00555 8.49529 9.45166 8.10112 10.515 8.33334Z" fill="#5E4FA1"/>
<path d="M10.515 8.33334C10.186 8.34733 9.87414 8.48346 9.64021 8.71512C9.40629 8.94679 9.26714 9.25734 9.24995 9.58611C8.34856 9.94361 7.72218 9.70528 7.83218 8.66945C7.8994 7.97584 7.52662 7.655 7.13551 7.27306C6.0569 6.20973 4.99662 5.13417 3.88745 4.08917C3.49634 3.71945 3.34662 3.42306 3.79579 2.96472C4.24495 2.50639 4.53218 2.6225 4.92023 3.01667C5.88884 3.99139 6.86662 4.9325 7.83218 5.88889C8.3669 6.4175 8.8344 6.94 9.7419 6.89111C10.7777 6.84223 10.68 7.61834 10.515 8.33334Z" fill="#7C60A9"/>
<path d="M17.5885 5.08526C17.4999 5.93471 16.8888 6.5886 15.7735 6.63137C15.5213 6.64258 15.2695 6.60058 15.0345 6.50812C14.7996 6.41565 14.5867 6.27479 14.4098 6.09467C14.2329 5.91456 14.0958 5.69923 14.0075 5.46268C13.9192 5.22613 13.8817 4.97365 13.8974 4.72165C13.9707 3.60332 14.6093 2.97082 15.7307 2.91887C16.8521 2.86693 17.6221 3.73165 17.5885 5.08526Z" fill="#6152A2"/>
</svg>
