<svg width="24" height="24" viewBox="0 0 24 24" fill="none" xmlns="http://www.w3.org/2000/svg">
<path d="M19.0064 8.04609C19.5044 8.35165 19.3364 8.85887 19.3394 9.28971C19.3394 12.5897 19.318 15.8897 19.3394 19.1897C19.3577 20.6014 18.7589 21.2308 17.3441 21.2186C13.8455 21.1911 10.3439 21.2186 6.84525 21.2186C5.3358 21.2186 4.73691 20.635 4.72775 19.0797C4.70127 14.4638 4.70127 9.8448 4.72775 5.22276C4.72775 3.46582 5.36636 2.90665 7.17219 2.89748C9.10025 2.89748 11.0283 2.91887 12.9564 2.87915C13.7355 2.87915 14.3527 3.02276 14.7102 3.76832C14.588 4.25109 14.3008 4.68498 14.2427 5.18609C14.0227 7.11721 14.6736 7.87804 16.6139 7.95443C17.4175 7.97887 18.2211 7.77109 19.0064 8.04609Z" fill="#31A4DC"/>
<path d="M19.0063 8.0461C17.8025 8.58693 16.5405 8.39137 15.3152 8.25387C15.111 8.23847 14.9119 8.18272 14.7293 8.08985C14.5468 7.99699 14.3845 7.86885 14.2518 7.71285C14.1191 7.55685 14.0186 7.37608 13.9562 7.18101C13.8938 6.98594 13.8707 6.78043 13.8883 6.57637C13.9738 5.61693 13.0938 4.28471 14.7194 3.76221C16.2415 5.09384 17.6736 6.52495 19.0063 8.0461Z" fill="#3499D4"/>
<path d="M13.867 12.3055C14.2489 11.6944 13.0114 10.2736 14.9364 10.188C16.2167 10.133 16.8461 10.4203 16.6414 11.8319C16.592 12.5367 16.5838 13.2437 16.617 13.9494C16.617 14.2825 16.6903 14.7286 16.1617 14.7347C15.7584 14.7347 15.7461 14.4016 15.6972 14.093C15.6392 13.7325 15.902 13.1366 15.3397 13.0908C14.6522 13.0358 14.8325 13.6836 14.7836 14.0991C14.75 14.4016 14.75 14.75 14.3284 14.75C13.9067 14.75 13.8761 14.423 13.87 14.1114C13.8609 13.543 13.867 12.9869 13.867 12.3055Z" fill="#E6F5FD"/>
<path d="M10.2033 12.2597C10.4753 11.5691 9.46695 10.0016 11.4836 10.2155C12.4003 10.3164 12.9931 10.7441 12.9717 11.7647C12.9717 12.3208 12.9717 12.88 12.9717 13.4361C12.9717 14.6308 12.2231 14.7775 11.2483 14.8172C10.1361 14.8661 10.1758 14.2061 10.2033 13.4452C10.2125 13.0908 10.2033 12.7364 10.2033 12.2597Z" fill="#E0F2FC"/>
<path d="M6.54578 12.4308C6.54578 10.133 6.72911 9.93442 8.55633 10.2125C8.86189 10.2583 9.20717 10.2491 9.23772 10.6494C9.26828 11.0497 8.94744 11.1597 8.62661 11.1322C7.47161 11.0314 7.48994 11.7739 7.4655 12.6019C7.44105 13.43 7.59994 14.0014 8.61439 13.8853C8.91994 13.8486 9.253 13.9586 9.2255 14.365C9.198 14.7714 8.85272 14.753 8.55328 14.7989C6.70161 15.0739 6.54578 14.8936 6.54578 12.4308Z" fill="#E2F3FC"/>
<path d="M11.1292 12.4889C11.2514 12.0611 10.8908 11.2666 11.6303 11.3369C12.2658 11.3858 12.0183 12.1497 12.0153 12.605C12.0122 13.0603 12.2781 13.8272 11.5264 13.7478C10.8511 13.6866 11.2728 12.9166 11.1292 12.4889Z" fill="#2F9FD9"/>
</svg>
