<svg width="24" height="24" viewBox="0 0 24 24" fill="none" xmlns="http://www.w3.org/2000/svg">
<path d="M18.9911 8.11638C19.5442 8.31194 19.3334 8.79166 19.3364 9.15222C19.3548 12.5133 19.3364 15.8531 19.3578 19.2019C19.3578 20.6197 18.7467 21.2308 17.3411 21.2217C13.8425 21.2003 10.3409 21.1911 6.84226 21.2217C5.42448 21.2217 4.77059 20.5556 4.76448 19.205C4.7492 14.4872 4.74003 9.76638 4.76448 5.04555C4.76448 3.49944 5.37559 2.92194 6.90337 2.90666C8.98115 2.87916 11.0589 2.90666 13.1398 2.90666C13.6561 2.90666 14.1725 2.87305 14.4078 3.48111C14.3711 3.8325 14.307 4.18083 14.2764 4.53222C14.032 7.38611 14.4781 7.89333 17.3503 7.93916C17.9064 7.93916 18.4411 8.07972 18.9911 8.11638Z" fill="#644B9F"/>
<path d="M18.9911 8.11637C17.7689 8.59304 16.5253 8.2722 15.2939 8.31192C14.9973 8.27837 14.7216 8.14218 14.5148 7.92692C13.5675 7.06831 13.5156 4.3947 14.4048 3.47192C16.0371 4.91429 17.5694 6.46602 18.9911 8.11637Z" fill="#564098"/>
<path d="M16.675 12.6661C16.6537 13.4117 16.837 14.2428 15.9875 14.6981C14.8081 15.3275 13.867 14.7439 13.8487 13.3933C13.8179 12.8845 13.8179 12.3744 13.8487 11.8656C13.925 11.175 13.3812 10.1392 14.8509 10.185C16.0456 10.2186 16.6842 10.6739 16.6537 11.8992C16.672 12.1558 16.675 12.4094 16.675 12.6661Z" fill="#E8E3F1"/>
<path d="M6.5489 12.5714C6.52251 12.2664 6.52251 11.9597 6.5489 11.6547C6.63751 11.1628 6.19446 10.3867 7.00418 10.2614C7.72223 10.1667 8.7214 9.8611 9.1614 10.4722C9.6014 11.0833 9.42112 12.0305 9.20418 12.8189C9.12473 13.103 8.7764 13.0511 8.53807 13.0389C7.85057 12.993 7.4839 13.2314 7.53279 13.983C7.55723 14.3742 7.5939 14.8783 6.95835 14.7897C6.4664 14.7225 6.56112 14.2825 6.55196 13.9464C6.53973 13.4819 6.5489 13.0267 6.5489 12.5714Z" fill="#E9E4F2"/>
<path d="M11.5325 10.2155H12.3056C12.6111 10.2155 12.9533 10.2461 12.9931 10.6403C13.045 11.1505 12.66 11.1567 12.2903 11.1903C11.9206 11.2239 11.2147 11.0008 11.2728 11.7097C11.3186 12.2719 11.9206 12.0153 12.2811 12.0489C13.6195 12.1864 12.8739 13.2069 13.0206 13.8211C13.1672 14.4353 12.9167 14.9058 12.1345 14.8264C11.8289 14.7958 11.5233 14.8478 11.2178 14.8264C10.8542 14.7867 10.3011 15.0097 10.2522 14.4078C10.2033 13.8058 10.7472 13.928 11.1231 13.8792C11.4286 13.8364 11.9175 14.038 11.9878 13.543C12.0581 13.048 11.5997 13.0358 11.2545 13.0511C9.55863 13.1183 10.3561 11.8289 10.2339 11.1017C10.0475 9.99249 10.9183 10.2492 11.5325 10.2155Z" fill="#ECE8F4"/>
<path d="M14.8081 12.5347C14.9487 12.0947 14.5331 11.2911 15.2603 11.3125C15.9417 11.3125 15.6789 12.1192 15.6698 12.5744C15.6606 13.0297 15.9753 13.7967 15.2328 13.7967C14.4903 13.7967 14.967 12.9594 14.8081 12.5347Z" fill="#60489D"/>
</svg>
