<svg width="24" height="24" viewBox="0 0 24 24" fill="none" xmlns="http://www.w3.org/2000/svg">
<path d="M18.9819 8.11024C19.538 8.30274 19.3272 8.78246 19.3272 9.14302C19.3455 12.5041 19.3272 15.8316 19.3486 19.1774C19.3486 20.5921 18.7375 21.2063 17.3319 21.1971C13.8333 21.1666 10.3378 21.1666 6.83919 21.2002C5.42142 21.2002 4.76448 20.5341 4.76143 19.1896C4.74615 14.4749 4.73698 9.76023 4.76143 5.04859C4.76143 3.50554 5.37253 2.92805 6.9003 2.90971C8.97807 2.88221 11.0589 2.90971 13.1367 2.90971C13.653 2.90971 14.1664 2.8761 14.4017 3.4811C14.368 3.83249 14.3039 4.18082 14.2733 4.53221C14.0258 7.37997 14.475 7.8933 17.3289 7.93608C17.8972 7.93302 18.4319 8.07052 18.9819 8.11024Z" fill="#644B9F"/>
<path d="M18.9819 8.11024C17.7597 8.58385 16.5191 8.26607 15.2847 8.30274C14.9898 8.26834 14.7158 8.13347 14.5086 7.92079C13.5614 7.06219 13.5094 4.39165 14.3955 3.46887C16.0271 4.91095 17.5594 6.46161 18.9819 8.11024Z" fill="#564098"/>
<path d="M10.2705 11.89C11.6547 9.65025 11.6547 9.65025 12.8891 11.7861C12.9166 11.343 12.9319 11.0008 12.9625 10.6586C12.9629 10.5952 12.9771 10.5328 13.0041 10.4755C13.031 10.4181 13.0702 10.3674 13.1187 10.3267C13.1672 10.286 13.224 10.2564 13.2852 10.2398C13.3463 10.2232 13.4103 10.2202 13.4727 10.2308C13.7783 10.2308 13.9005 10.4814 13.9005 10.7472C13.9005 11.9113 13.9005 13.0786 13.9005 14.2427C13.9091 14.3052 13.905 14.3688 13.8887 14.4297C13.8723 14.4907 13.844 14.5477 13.8052 14.5975C13.7665 14.6473 13.7183 14.6889 13.6633 14.7198C13.6083 14.7507 13.5476 14.7703 13.485 14.7774C13.0572 14.8416 12.8433 14.5849 12.6783 14.2427C12.33 13.5277 12.1864 12.715 11.5294 11.9419L10.6128 14.0594C10.4722 14.4444 10.3408 14.8324 9.79999 14.7866C9.17055 14.7316 9.3111 14.2488 9.30194 13.87C9.28666 12.9533 9.2836 12.0366 9.30194 11.12C9.30194 10.7472 9.16749 10.2033 9.80305 10.2277C10.4386 10.2522 10.2278 10.79 10.2705 11.1444C10.2858 11.34 10.2705 11.505 10.2705 11.89Z" fill="#EEE9F4"/>
<path d="M6.94921 10.2064H7.62449C7.98199 10.2064 8.38532 10.2064 8.38532 10.7044C8.38532 11.2025 7.94838 11.1444 7.61227 11.175C7.22727 11.2086 6.65894 11.065 6.63449 11.6119C6.60394 12.2413 7.21199 12.0305 7.55116 12.0336C8.92309 12.0336 8.29671 13.0725 8.40671 13.6958C8.52587 14.3772 8.37004 14.918 7.47477 14.8111C7.27616 14.7866 7.06227 14.8416 6.86366 14.8111C6.42977 14.7194 5.69033 15.1166 5.66283 14.3374C5.63839 13.6469 6.32588 13.9341 6.72922 13.8699C7.01338 13.8241 7.39532 13.9219 7.39532 13.4727C7.39532 13.0236 7.03783 13.0236 6.73838 13.0419C4.94784 13.155 5.727 11.8044 5.63228 11.0283C5.507 9.87636 6.44811 10.3011 6.94921 10.2064Z" fill="#ECE8F4"/>
<path d="M14.7806 12.4338C14.765 12.1285 14.765 11.8225 14.7806 11.5172C14.8234 11.0894 14.5453 10.4599 15.0617 10.2949C15.7921 10.0902 16.5648 10.0902 17.2953 10.2949C17.5306 10.3499 17.5336 10.6005 17.5061 10.7991C17.4633 11.1047 17.2006 11.1413 16.9531 11.1749C16.5345 11.2299 15.8531 10.9947 15.8286 11.6058C15.8103 12.3055 16.5131 11.9694 16.8889 12.0335C17.2128 12.0855 17.5 12.1283 17.5 12.5194C17.5 13.0388 17.112 13.0419 16.7575 13.0205C16.0914 12.9777 15.6881 13.1702 15.7339 13.9371C15.7584 14.3252 15.8103 14.8538 15.187 14.7683C14.5636 14.6827 14.7836 14.1571 14.7622 13.7966C14.75 13.3444 14.7806 12.8891 14.7806 12.4338Z" fill="#E9E4F2"/>
</svg>
