<svg width="24" height="24" viewBox="0 0 24 24" fill="none" xmlns="http://www.w3.org/2000/svg">
<path d="M19.0063 8.06444C19.5502 8.35166 19.3425 8.86805 19.3425 9.28666C19.3608 12.5897 19.3425 15.8897 19.3638 19.1897C19.3638 20.6014 18.7527 21.2339 17.3533 21.2247C13.8547 21.2064 10.353 21.1942 6.85134 21.2247C5.43357 21.24 4.77357 20.5647 4.76746 19.2111C4.76746 14.4903 4.74301 9.76638 4.76746 5.04249C4.76746 3.49332 5.37857 2.86082 6.90634 2.9036C9.30496 2.9861 11.7219 2.54916 14.1022 3.15721C14.3405 3.99749 14.2091 4.86221 14.2519 5.71471C14.3405 7.41055 14.7836 7.8536 16.4488 7.91166C17.3013 7.95749 18.163 7.84444 19.0063 8.06444Z" fill="#E84F4B"/>
<path d="M19.0063 8.06443C17.7536 8.67554 16.4305 8.31804 15.1441 8.28137C14.4199 8.25998 14.0013 7.52665 13.9219 6.88193C13.7966 5.65971 13.5522 4.38554 14.0899 3.17249L19.0063 8.06443Z" fill="#E53E37"/>
<path d="M8.50745 8.43723L15.8072 13.0206L8.50745 17.6039V8.43723Z" fill="#FEEEEC"/>
</svg>
