<svg width="24" height="24" viewBox="0 0 24 24" fill="none" xmlns="http://www.w3.org/2000/svg">
<path d="M18.9911 8.11638C19.5442 8.31194 19.3364 8.79166 19.3364 9.15222C19.3548 12.5133 19.3364 15.8531 19.3578 19.2019C19.3578 20.6197 18.7467 21.2308 17.3411 21.2217C13.8425 21.2003 10.3409 21.1911 6.84226 21.2217C5.42448 21.2217 4.77059 20.5556 4.76448 19.205C4.7492 14.4872 4.74003 9.76638 4.76448 5.04555C4.76448 3.49944 5.37559 2.92194 6.90337 2.90666C8.98115 2.87916 11.0589 2.90666 13.1398 2.90666C13.6561 2.90666 14.1725 2.87305 14.4078 3.48111C14.3711 3.8325 14.307 4.18083 14.2764 4.53222C14.032 7.38611 14.4781 7.89333 17.3503 7.93916C17.9064 7.93916 18.4411 8.07972 18.9911 8.11638Z" fill="#644B9F"/>
<path d="M18.9911 8.11637C17.7689 8.59304 16.5253 8.2722 15.2939 8.31192C14.9973 8.27837 14.7216 8.14218 14.5148 7.92692C13.5675 7.06831 13.5156 4.3947 14.4048 3.47192C16.0371 4.91429 17.5694 6.46602 18.9911 8.11637Z" fill="#564098"/>
<path d="M11.2178 13.1183C11.1873 13.7814 11.1781 14.0564 11.1628 14.3405C11.1476 14.6247 11.0131 14.8141 10.6953 14.8019C10.6324 14.8079 10.569 14.8 10.5095 14.7789C10.4499 14.7578 10.3957 14.724 10.3506 14.6798C10.3055 14.6355 10.2706 14.582 10.2483 14.5229C10.2261 14.4637 10.217 14.4005 10.2217 14.3375C10.2217 13.1153 10.1484 11.893 10.2523 10.6708C10.3134 9.97109 10.897 10.1025 11.2301 10.4783C11.5142 10.8022 11.6273 11.2728 11.8412 11.7005C12.2017 11.4836 12.0276 11.1597 12.0551 10.903C12.0917 10.5975 12.0795 10.2705 12.4981 10.243C13.0267 10.2094 13.0328 10.6036 13.0389 10.9611C13.0389 11.8778 13.0634 12.7944 13.0389 13.7111C13.0389 14.1175 13.2681 14.7072 12.5562 14.7897C11.9451 14.8661 11.8626 14.3314 11.7006 13.9158C11.6242 13.7783 11.5326 13.6561 11.2178 13.1183Z" fill="#ECE7F3"/>
<path d="M15.4131 12.0397C16.9409 11.8044 16.6078 12.8922 16.6811 13.763C16.8064 15.1869 15.7859 14.7255 15.0678 14.8325C13.9861 14.9883 13.7631 14.4322 13.8456 13.5125C13.9103 13.0053 13.9103 12.4919 13.8456 11.9847C13.595 10.4875 14.2153 9.9436 15.6636 10.2064C16.0272 10.2736 16.5803 10.0536 16.6139 10.6617C16.6475 11.2697 16.1097 11.1261 15.74 11.1842C15.5017 11.2239 15.2664 11.3033 15.0311 11.3644C14.7256 11.8472 15.1167 12.3025 15.0311 12.9717C15.0311 12.9717 15.3122 12.7883 15.1106 12.7944C15.077 12.7944 15.0861 12.7486 15.0922 12.6508C15.0812 12.5289 15.1056 12.4063 15.1625 12.2979C15.2194 12.1895 15.3064 12.0998 15.4131 12.0397Z" fill="#EDE9F4"/>
<path d="M6.54894 12.6111C6.52411 12.306 6.52411 11.9995 6.54894 11.6944C6.63144 11.1964 6.21588 10.4294 6.97366 10.2766C7.68255 10.133 8.66644 9.86109 9.13088 10.4416C9.59533 11.0222 9.39366 11.9939 9.20727 12.7761C9.12171 13.1305 8.69699 13.0419 8.41283 13.0297C7.75588 12.9991 7.49616 13.2986 7.52366 13.9464C7.53894 14.3314 7.61227 14.863 6.98283 14.7928C6.35338 14.7225 6.57644 14.1939 6.55505 13.8333C6.53366 13.4728 6.54894 13.0114 6.54894 12.6111Z" fill="#E9E4F2"/>
<path d="M15.4131 12.0397C15.3347 12.2214 15.3075 12.4211 15.3344 12.6171C15.3613 12.8132 15.4414 12.9981 15.5659 13.1519C15.7492 13.3933 15.7981 13.7386 15.3825 13.8394C15.3119 13.8673 15.235 13.8754 15.1601 13.8629C15.0852 13.8503 15.0151 13.8177 14.9574 13.7684C14.8996 13.7191 14.8563 13.655 14.8322 13.5831C14.808 13.5111 14.8039 13.4339 14.8203 13.3597C14.8753 12.6936 14.5453 11.9847 15.0373 11.3705C15.0287 11.5065 15.0596 11.6419 15.1263 11.7607C15.193 11.8794 15.2926 11.9763 15.4131 12.0397Z" fill="#6952A2"/>
</svg>
