<svg width="24" height="24" viewBox="0 0 24 24" fill="none" xmlns="http://www.w3.org/2000/svg">
<path d="M18.9911 8.11638C19.5442 8.31194 19.3364 8.79166 19.3364 9.15221C19.3548 12.5133 19.3364 15.853 19.3578 19.2019C19.3578 20.6197 18.7467 21.2308 17.3411 21.2247C13.8425 21.2003 10.3409 21.1911 6.84226 21.2247C5.42448 21.2247 4.77059 20.5586 4.76448 19.208C4.7492 14.4903 4.74003 9.76944 4.76448 5.0486C4.76448 3.50249 5.37559 2.92499 6.90337 2.90971C8.98115 2.88221 11.0589 2.90971 13.1398 2.90971C13.6561 2.90971 14.1725 2.8761 14.4078 3.48416C14.3711 3.83555 14.307 4.18388 14.2764 4.53527C14.032 7.38916 14.4781 7.89638 17.3503 7.94221C17.9064 7.93916 18.4411 8.07971 18.9911 8.11638Z" fill="#644B9F"/>
<path d="M18.9911 8.11637C17.7689 8.59304 16.5253 8.2722 15.2939 8.31192C14.9972 8.27837 14.7216 8.14218 14.5148 7.92692C13.5675 7.06831 13.5278 4.39165 14.4048 3.47192C16.0371 4.91429 17.5694 6.46602 18.9911 8.11637Z" fill="#564098"/>
<path d="M13.7264 13.4789C13.1703 13.8028 13.4208 14.747 12.6111 14.8081C11.6547 14.8783 11.9389 13.7936 11.34 13.4545C11.0008 13.702 11.227 14.0656 11.1658 14.3711C11.1047 14.6767 10.9489 14.8111 10.6525 14.7867C10.3561 14.7622 10.2247 14.5636 10.2217 14.2764C10.2217 13.1122 10.2217 11.945 10.2217 10.7778C10.2217 10.512 10.292 10.2736 10.6158 10.237C10.7655 10.2036 10.9221 10.2246 11.0576 10.2963C11.1931 10.368 11.2987 10.4856 11.3553 10.6281L12.4522 13.1031C13.1306 12.4706 13.2131 11.5967 13.5981 10.897C13.7936 10.5395 13.9342 10.1086 14.4689 10.2553C14.9517 10.3867 14.7989 10.8236 14.8081 11.1445C14.8512 11.9587 14.8512 12.7747 14.8081 13.5889C14.7775 14.0106 15.1564 14.7714 14.3314 14.7653C13.5064 14.7592 14.0717 13.9189 13.7264 13.4789Z" fill="#EFEBF5"/>
<path d="M5.62619 12.5469C5.60463 12.2418 5.60463 11.9355 5.62619 11.6303C5.70258 11.0619 5.2748 10.1025 6.41453 10.2369C7.18758 10.3225 8.44342 9.54028 8.48008 11.3369C8.48008 12.1497 9.57092 12.6906 9.36008 13.7814C9.21953 14.5086 9.11869 14.9303 8.30286 14.8142C8.2011 14.8081 8.09906 14.8081 7.9973 14.8142C5.10064 14.7867 5.69647 15.1258 5.62619 12.5469Z" fill="#ECE7F3"/>
<path d="M17.0753 10.2216C17.5978 10.3469 18.5603 9.83971 18.4869 10.955C18.435 11.7678 19.1958 13.1641 17.335 13.0541C16.6842 13.0175 16.6872 13.5308 16.6689 14.0014C16.6689 14.3283 16.7667 14.7775 16.2258 14.7866C15.5964 14.7866 15.7064 14.3008 15.7003 13.9219C15.7003 13.1153 15.7583 12.3025 15.6819 11.505C15.575 10.4203 15.9722 9.99554 17.0753 10.2216Z" fill="#E9E4F2"/>
<path d="M7.46867 13.8761C7.16311 13.7997 6.63756 14.0258 6.64672 13.5033C6.64672 12.9289 7.20589 13.0603 7.58173 13.0542C7.95756 13.0481 8.37617 12.9961 8.31506 13.5278C8.25395 14.0595 7.76811 13.7906 7.46867 13.8761Z" fill="#61499D"/>
</svg>
