<svg width="24" height="24" viewBox="0 0 24 24" fill="none" xmlns="http://www.w3.org/2000/svg">
<path d="M19.0033 8.04303C19.5502 8.33026 19.3363 8.84664 19.3394 9.26525C19.3577 12.5683 19.3241 15.8683 19.3577 19.1713C19.373 20.583 18.7466 21.2125 17.3502 21.2063C13.8333 21.185 10.3408 21.1666 6.83608 21.2094C5.41525 21.2094 4.7583 20.5494 4.75525 19.1988C4.75525 14.475 4.7308 9.75109 4.75525 5.02721C4.75525 3.4811 5.36636 2.8486 6.89413 2.88832C9.29274 2.96777 11.7127 2.53082 14.093 3.13888C14.31 3.87526 14.2122 4.62998 14.2427 5.37859C14.3222 7.38303 14.7927 7.85359 16.7636 7.89942C17.4999 7.92692 18.2669 7.84748 19.0033 8.04303Z" fill="#D74444"/>
<path d="M19.0033 8.04302C17.7536 8.61136 16.455 8.34858 15.1839 8.20191C14.9066 8.16281 14.6491 8.03573 14.4495 7.83936C14.2498 7.64298 14.1184 7.3877 14.0747 7.11108C13.7692 5.78497 13.6225 4.47109 14.0931 3.15414L19.0033 8.04302Z" fill="#D43330"/>
<path d="M5.58335 12.4308C5.58335 12.1253 5.56501 11.8197 5.58335 11.5141C5.62612 10.903 5.3114 10.13 6.44196 10.1636C7.35862 10.1911 8.21417 10.2492 8.37612 11.3858C8.45556 11.9328 8.39445 12.498 8.42806 13.0511C8.5014 14.3558 7.88112 14.8233 6.59473 14.8478C5.14946 14.8753 5.66279 13.8853 5.57723 13.1886C5.56397 12.9361 5.56601 12.6831 5.58335 12.4308Z" fill="#FBEEEC"/>
<path d="M18.6458 10.4447C17.1792 11.8563 17.06 13.2436 18.5939 14.533C17.3992 15.193 17.1975 14.255 16.7269 13.7844C16.1158 14.0411 15.9569 15.2847 14.7836 14.5941C16.0058 13.2405 16.3572 11.8075 14.6492 10.4813C15.96 9.72052 16.1006 10.9611 16.675 11.3308C17.2128 10.9 17.3319 9.78468 18.6458 10.4447Z" fill="#FDF3F2"/>
<path d="M12.4552 11.9205C12.7058 11.1475 12.8066 10.8175 12.9197 10.4936C13.0327 10.1697 13.2802 10.188 13.5308 10.2186C13.8791 10.2705 13.8699 10.5547 13.8363 10.793C13.6194 11.9816 13.3841 13.1641 13.1519 14.3497C13.0786 14.7133 12.8036 14.805 12.4766 14.8019C12.0855 14.8019 11.9999 14.5177 11.9388 14.1908C11.7372 13.155 11.5172 12.1191 11.3277 11.0833C11.2727 10.7778 10.9458 10.3653 11.508 10.2155C12.0152 10.0811 12.2474 10.3744 12.2933 10.8603C12.3055 11.0833 12.3483 11.2666 12.4552 11.9205Z" fill="#FCF3F1"/>
<path d="M6.57031 12.5469C6.70476 12.0978 6.30448 11.3003 6.99503 11.288C7.68559 11.2758 7.42281 12.0733 7.41364 12.5103C7.40448 12.9472 7.7192 13.7325 7.01031 13.7325C6.25865 13.76 6.74448 12.9564 6.57031 12.5469Z" fill="#D63F3E"/>
</svg>
