<svg width="24" height="24" viewBox="0 0 24 24" fill="none" xmlns="http://www.w3.org/2000/svg">
<path d="M18.9911 8.10722C19.5442 8.30583 19.3333 8.78555 19.3364 9.14305C19.3517 12.5042 19.3364 15.8408 19.3547 19.1866C19.3547 20.6044 18.7436 21.2125 17.3411 21.2033C13.8334 21.1666 10.3409 21.1666 6.8392 21.2064C5.41837 21.2216 4.76754 20.5372 4.76143 19.1928C4.74615 14.475 4.73698 9.75721 4.76143 5.03944C4.76143 3.51167 5.37254 2.925 6.90031 2.90056C8.98114 2.87306 11.0589 2.90056 13.1397 2.90056C13.6561 2.90056 14.1725 2.87306 14.4047 3.47806C14.3681 3.82945 14.3039 4.17778 14.2734 4.52917C14.0197 7.37388 14.472 7.89027 17.3289 7.93305C17.9064 7.93305 18.4411 8.0736 18.9911 8.10722Z" fill="#6C52A2"/>
<path d="M18.9911 8.10723C17.7689 8.58695 16.5253 8.26612 15.2909 8.30584C14.9961 8.26894 14.7225 8.13323 14.5147 7.92084C13.5645 7.05917 13.5278 4.38251 14.4078 3.4689C16.0421 4.90605 17.5736 6.45595 18.9911 8.10723Z" fill="#61479C"/>
<path d="M6.54586 12.4644C6.56785 12.1593 6.56785 11.8529 6.54586 11.5478C6.40224 10.518 6.75669 10.1269 7.85669 10.1544C8.8803 10.1758 9.53113 10.2828 9.34168 11.5264C9.20724 12.4125 9.68391 13.1886 9.89474 14.0136C9.95585 14.255 10.2981 14.588 9.81224 14.7469C9.73211 14.7866 9.64406 14.8076 9.55466 14.8084C9.46527 14.8092 9.37686 14.7897 9.29603 14.7515C9.21521 14.7133 9.14408 14.6573 9.08796 14.5877C9.03184 14.5182 8.99218 14.4368 8.97196 14.3497C8.87724 14.0625 8.76113 13.7814 8.66641 13.4941C8.63072 13.3452 8.53819 13.2161 8.40858 13.1344C8.27897 13.0528 8.12257 13.0251 7.9728 13.0572C7.66724 13.0939 7.60308 13.3261 7.54196 13.5919C7.44113 14.0136 7.82919 14.8141 7.01335 14.7316C6.19752 14.6491 6.65891 13.8425 6.56113 13.3597C6.52771 13.0624 6.52259 12.7627 6.54586 12.4644Z" fill="#EAE5F2"/>
<path d="M15.1442 10.2094C15.5017 10.2094 15.7553 10.2094 16.0059 10.2094C16.3359 10.2094 16.617 10.3011 16.617 10.6953C16.617 11.0894 16.3114 11.1444 16.0059 11.178C15.5872 11.2239 14.9089 11.0008 14.8784 11.6028C14.8447 12.3055 15.5475 11.9786 15.9356 12.0336C16.3236 12.0886 16.6597 12.1191 16.6139 12.6141C16.5772 13.0328 16.2197 13.0358 15.9325 13.0114C15.1014 12.9441 14.7103 13.2528 14.7959 14.1297C14.8295 14.4353 14.7959 14.7653 14.365 14.7744C13.8486 14.7744 13.8547 14.3955 13.8517 14.0411C13.8517 13.2344 13.9097 12.4216 13.8364 11.6211C13.7447 10.5364 14.0411 9.9436 15.1442 10.2094Z" fill="#EBE7F3"/>
<path d="M11.5967 10.1667C12.0825 10.2797 12.6447 9.96805 12.9044 10.4569C13.2589 11.1169 12.4003 11.0467 12.2444 11.3736C11.8686 12.1742 12.1497 13.0511 12.0672 13.8914C12.0336 14.2611 12.1925 14.808 11.5386 14.7408C11.0406 14.698 11.1781 14.2458 11.1078 13.9219C10.8908 12.8983 11.4714 11.8594 10.3836 10.79C9.75722 10.1942 11.1933 10.4294 11.5967 10.1667Z" fill="#EBE7F3"/>
</svg>
