<svg width="24" height="24" viewBox="0 0 24 24" fill="none" xmlns="http://www.w3.org/2000/svg">
<path d="M18.7222 7.74361C19.2905 7.98194 19.3608 8.45555 19.3577 8.99638C19.3333 12.4461 19.3333 15.8958 19.3333 19.3333C19.3333 20.6105 18.7222 21.1819 17.4725 21.1666C13.87 21.1666 10.2675 21.1666 6.66498 21.1666C5.38471 21.1666 4.73998 20.4761 4.72776 19.315C4.68498 14.4933 4.68498 9.67268 4.72776 4.85306C4.72776 3.53917 5.46109 2.81501 6.86665 2.83028C8.94442 2.85778 11.0252 2.8639 13.1061 2.83028C13.8547 2.83334 14.3741 3.08695 14.7102 3.75001C14.6261 3.9853 14.5292 4.21583 14.42 4.44056C13.6469 6.75056 14.5147 7.95444 16.9133 7.93916C17.5197 7.91148 18.1238 7.84617 18.7222 7.74361Z" fill="#31A4DC"/>
<path d="M18.7221 7.7436C17.6405 8.91693 16.3083 8.30582 15.1074 8.14082C14.1908 8.0186 13.7691 7.1661 13.8669 6.30749C13.9647 5.44888 13.2008 4.1686 14.7224 3.7561C16.1505 4.98665 17.4872 6.31932 18.7221 7.7436Z" fill="#3499D4"/>
<path d="M9.28054 12.5317C9.30673 12.8367 9.30673 13.1433 9.28054 13.4483C9.20109 13.8914 9.58609 14.6369 8.84665 14.6919C8.16526 14.7408 8.44637 14.0289 8.36387 13.6286C8.31498 13.3903 8.36387 13.0755 8.00943 13.0603C7.61526 13.045 7.54804 13.3658 7.48387 13.6714C7.40443 14.0655 7.68554 14.7622 6.96749 14.698C6.32277 14.643 6.57638 13.983 6.55499 13.5705C6.51832 12.8617 6.60388 12.1405 6.53054 11.4317C6.41749 10.3744 6.91249 10.1942 7.85665 10.1605C8.99637 10.1208 9.46998 10.4661 9.29582 11.618C9.26781 11.9218 9.2627 12.2272 9.28054 12.5317Z" fill="#E6F5FD"/>
<path d="M12.0366 12.4553C12.0366 11.8992 12.0366 11.34 12.0366 10.7839C12.0366 10.3286 12.3422 10.1728 12.7516 10.1972C13.0908 10.1972 13.5094 10.0628 13.7325 10.4081C14.0013 10.8236 13.6988 11.0192 13.3444 11.2055C13.2008 11.2789 13.1366 11.5111 13.0389 11.67C14.7163 12.5133 12.663 13.2253 12.9411 14.0442C12.9745 14.1138 12.9901 14.1906 12.9865 14.2678C12.983 14.3449 12.9604 14.42 12.9207 14.4863C12.8811 14.5526 12.8256 14.608 12.7593 14.6476C12.693 14.6872 12.618 14.7098 12.5408 14.7133C12.0152 14.7378 12.0366 14.3253 12.0305 13.9739C12.0305 13.4667 12.0305 12.9625 12.0305 12.4461L12.0366 12.4553Z" fill="#DFF2FC"/>
<path d="M14.7775 12.4155V10.8878C14.7775 10.4783 14.9394 10.188 15.3886 10.2003C15.7736 10.2003 16.2503 10.0139 16.4978 10.4417C16.7453 10.8694 16.3786 11.0344 16.0517 11.2178C15.9142 11.2942 15.8714 11.5233 15.7828 11.7067C17.6955 12.6233 15.1319 13.3444 15.6758 14.2305C15.7889 14.42 15.5689 14.7194 15.2511 14.7133C14.8386 14.7133 14.7806 14.4078 14.7775 14.0808C14.7714 13.5278 14.7775 12.9716 14.7775 12.4155Z" fill="#DFF2FC"/>
<path d="M11.2147 12.5164C10.8297 13.2681 11.6486 14.5544 10.6189 14.5942C9.83053 14.6217 10.2277 13.3231 10.2491 12.6478C10.2736 11.8625 9.76025 10.4111 10.6616 10.4172C11.6669 10.4233 10.738 11.8625 11.2147 12.5164Z" fill="#F1FAFE"/>
</svg>
