<svg width="24" height="24" viewBox="0 0 24 24" fill="none" xmlns="http://www.w3.org/2000/svg">
<path d="M18.9911 8.11638C19.5442 8.31194 19.3364 8.79166 19.3364 9.15222C19.3548 12.5133 19.3364 15.8531 19.3578 19.2019C19.3578 20.6197 18.7467 21.2308 17.3411 21.2217C13.8425 21.2003 10.3409 21.1911 6.84226 21.2217C5.42448 21.2217 4.77059 20.5556 4.76448 19.205C4.7492 14.4872 4.74003 9.76638 4.76448 5.04555C4.76448 3.49944 5.37559 2.92194 6.90337 2.90666C8.98115 2.87916 11.0589 2.90666 13.1398 2.90666C13.6561 2.90666 14.1725 2.87305 14.4078 3.48111C14.3711 3.8325 14.307 4.18083 14.2764 4.53222C14.032 7.38611 14.4781 7.89333 17.3503 7.93916C17.9064 7.93916 18.4411 8.07972 18.9911 8.11638Z" fill="#644B9F"/>
<path d="M18.9911 8.11637C17.7689 8.59304 16.5253 8.2722 15.2939 8.31192C14.9972 8.27837 14.7216 8.14218 14.5148 7.92692C13.5675 7.06831 13.5278 4.39165 14.4048 3.47192C16.0371 4.91429 17.5694 6.46602 18.9911 8.11637Z" fill="#564098"/>
<path d="M9.29582 12.6111C9.31442 12.3058 9.31442 11.9997 9.29582 11.6944C9.17054 10.6769 9.36915 10.1667 10.625 10.1667C11.8808 10.1667 12.2078 10.5944 12.0886 11.7342C12.0122 12.4828 12.0886 13.2619 12.0703 14.0044C12.0703 14.3405 12.1528 14.7775 11.6272 14.7958C11.1017 14.8142 11.1567 14.4078 11.1139 14.0503C11.0711 13.6928 11.3339 13.1153 10.7014 13.1153C10.2492 13.1153 10.3042 13.6042 10.2858 13.9555C10.2675 14.3069 10.3653 14.8722 9.73887 14.7897C9.11249 14.7072 9.33249 14.1786 9.30804 13.8242C9.2836 13.4697 9.29582 13.0114 9.29582 12.6111Z" fill="#EBE6F3"/>
<path d="M12.9656 12.388C13.3262 11.8014 12.3179 10.4172 13.4881 10.3744C14.3437 10.3439 13.7754 11.7189 13.9006 12.4522C13.9502 12.9603 13.9502 13.4719 13.9006 13.98C13.9006 14.313 13.9862 14.753 13.4606 14.7805C12.9351 14.808 12.9534 14.4017 12.9534 14.0411C12.9626 13.5278 12.9656 13.0175 12.9656 12.388Z" fill="#F5F3F9"/>
</svg>
