<svg width="24" height="24" viewBox="0 0 24 24" fill="none" xmlns="http://www.w3.org/2000/svg">
<path d="M18.9911 8.11638C19.5442 8.31194 19.3364 8.79166 19.3364 9.15222C19.3548 12.5133 19.3364 15.8531 19.3578 19.2019C19.3578 20.6197 18.7467 21.2308 17.3411 21.2217C13.8425 21.2003 10.3409 21.1911 6.84226 21.2217C5.42448 21.2217 4.77059 20.5556 4.76448 19.205C4.7492 14.4872 4.74003 9.76638 4.76448 5.04555C4.76448 3.49944 5.37559 2.92194 6.90337 2.90666C8.98115 2.87916 11.0589 2.90666 13.1398 2.90666C13.6561 2.90666 14.1725 2.87305 14.4078 3.48111C14.3711 3.8325 14.307 4.18083 14.2764 4.53222C14.032 7.38611 14.4781 7.89333 17.3503 7.93916C17.9064 7.93916 18.4411 8.07972 18.9911 8.11638Z" fill="#644B9F"/>
<path d="M18.9911 8.11637C17.7689 8.59304 16.5253 8.2722 15.2939 8.31192C14.9973 8.27837 14.7216 8.14218 14.5148 7.92692C13.5675 7.06831 13.5156 4.3947 14.4048 3.47192C16.0371 4.91429 17.5694 6.46602 18.9911 8.11637Z" fill="#564098"/>
<path d="M16.672 12.5744C16.6936 12.7776 16.6936 12.9824 16.672 13.1855C16.5436 13.7233 17.0539 14.6217 16.2564 14.7378C15.3398 14.8722 15.8592 13.9311 15.6911 13.488C15.6178 13.2955 15.5842 13.0878 15.3275 13.0939C14.9364 13.0939 14.8723 13.375 14.8142 13.705C14.7439 14.093 15.0984 14.7867 14.3681 14.7714C13.5584 14.7714 13.9311 14.0197 13.8823 13.5858C13.8529 13.077 13.8529 12.5669 13.8823 12.058C13.8823 10.1117 14.0503 9.99249 15.9203 10.1942C16.5314 10.2583 16.7086 10.4997 16.6934 11.0497C16.6781 11.5997 16.672 12.0672 16.672 12.5744Z" fill="#EBE7F3"/>
<path d="M11.7586 12.0428C13.2864 11.7983 12.9808 12.88 13.042 13.763C13.155 15.19 12.1253 14.7255 11.4133 14.8325C10.3286 14.9914 10.1056 14.4322 10.1911 13.5094C10.2571 13.0023 10.2571 12.4888 10.1911 11.9817C9.93751 10.4539 10.5883 9.95276 12.0245 10.2094C12.3942 10.2736 12.9411 10.0658 12.9686 10.6769C12.9961 11.288 12.4492 11.1475 12.0795 11.1811C11.8289 11.2055 11.5692 11.1597 11.3858 11.3919C11.0375 11.8655 11.4683 12.3086 11.3675 13.1C11.392 12.9747 11.6731 12.7669 11.4714 12.7944C11.4347 12.7944 11.4408 12.7517 11.447 12.6539C11.4318 12.5325 11.4534 12.4094 11.5089 12.3005C11.5645 12.1915 11.6515 12.1017 11.7586 12.0428Z" fill="#ECE8F4"/>
<path d="M7.93613 10.1819C8.4128 10.3072 8.96891 9.97417 9.23169 10.4875C9.5678 11.1322 8.72141 11.0986 8.58085 11.4408C8.25697 12.2567 8.51058 13.1275 8.43724 13.9708C8.40974 14.3008 8.52891 14.7469 8.01252 14.7836C7.40141 14.8264 7.52363 14.3253 7.4503 13.9464C7.24558 12.9258 7.81697 11.8869 6.72002 10.8267C6.09363 10.2156 7.52974 10.4356 7.93613 10.1819Z" fill="#E9E5F2"/>
<path d="M11.7586 12.0428C11.6757 12.2258 11.6464 12.4285 11.6739 12.6275C11.7015 12.8265 11.7849 13.0137 11.9145 13.1672C12.1039 13.4117 12.1345 13.7783 11.6945 13.8425C11.2545 13.9067 11.1597 13.6103 11.1811 13.2803C11.2209 12.6508 10.9336 11.9786 11.3889 11.395C11.3776 11.5277 11.4069 11.6607 11.4729 11.7764C11.539 11.8921 11.6386 11.985 11.7586 12.0428Z" fill="#6850A1"/>
</svg>
