<svg width="24" height="24" viewBox="0 0 24 24" fill="none" xmlns="http://www.w3.org/2000/svg">
<path d="M19.0094 8.06444C19.5533 8.35166 19.3394 8.86805 19.3424 9.28666C19.3608 12.5867 19.3272 15.8897 19.3608 19.1897C19.3608 20.6014 18.7497 21.2339 17.3533 21.2247C13.8547 21.2064 10.353 21.1942 6.85133 21.2247C5.43049 21.24 4.7766 20.5647 4.77049 19.2111C4.77049 14.4872 4.7491 9.76333 4.77049 5.03944C4.77049 3.49333 5.3816 2.86083 6.90938 2.90055C9.30494 2.98305 11.7249 2.54611 14.1022 3.15416C14.316 3.88749 14.2213 4.64527 14.2488 5.39388C14.3283 7.39833 14.8019 7.86888 16.7697 7.91166C17.5183 7.94833 18.2699 7.86888 19.0094 8.06444Z" fill="#D74444"/>
<path d="M19.0094 8.06443C17.7596 8.62971 16.461 8.36999 15.1899 8.22026C14.9128 8.1807 14.6556 8.05346 14.456 7.85718C14.2564 7.66089 14.1249 7.40586 14.0808 7.12943C13.7599 5.80026 13.6316 4.48943 14.1021 3.17249L19.0094 8.06443Z" fill="#D43330"/>
<path d="M6.5427 12.5042C6.5224 12.199 6.5224 11.8927 6.5427 11.5875C6.61603 11.0253 6.17603 10.1789 7.33103 10.1881C8.3027 10.1881 9.20409 10.2461 9.31103 11.4958C9.35686 12.0458 9.31103 12.605 9.33547 13.1581C9.40881 14.4078 8.79159 14.8081 7.59992 14.86C6.18825 14.9211 6.58242 13.98 6.53659 13.2497C6.53047 13.0083 6.5427 12.7547 6.5427 12.5042Z" fill="#FBEFED"/>
<path d="M13.8517 12.4553C13.8517 12.1497 13.8334 11.8442 13.8517 11.5386C13.8945 10.9458 13.5675 10.1514 14.7042 10.1819C15.6209 10.2094 16.4734 10.2644 16.6384 11.4042C16.7178 11.9481 16.6598 12.5133 16.6903 13.0694C16.7667 14.3711 16.1525 14.8447 14.857 14.8692C13.4148 14.8997 13.922 13.9097 13.8395 13.2131C13.8283 12.9605 13.8323 12.7074 13.8517 12.4553Z" fill="#FBEEEC"/>
<path d="M11.5906 11.7922C11.7892 11.1811 11.8961 10.8572 12.0031 10.5364C12.0468 10.4171 12.1344 10.3191 12.248 10.2623C12.3616 10.2055 12.4926 10.1942 12.6142 10.2308C12.9625 10.2736 12.9778 10.5364 12.935 10.7931C12.7181 11.9878 12.4828 13.1764 12.2506 14.365C12.1772 14.7317 11.9053 14.8233 11.5784 14.8264C11.1842 14.8264 11.0925 14.5667 11.0284 14.2428C10.8389 13.2528 10.6067 12.2689 10.4478 11.2728C10.3959 10.9428 9.94974 10.4325 10.5853 10.2553C11.3492 10.0475 11.3461 10.68 11.4134 11.1719C11.4256 11.2819 11.4684 11.3889 11.5906 11.7922Z" fill="#FBEFED"/>
<path d="M8.40052 12.4706C8.21413 12.9717 8.63885 13.8242 7.92385 13.7417C7.26996 13.6653 7.67329 12.8097 7.61829 12.3086C7.57857 11.9664 7.36163 11.3125 7.92385 11.3339C8.74274 11.3675 8.10413 12.1681 8.40052 12.4706Z" fill="#D74241"/>
<path d="M14.8019 12.5561C14.9302 12.0489 14.6124 11.3003 15.1991 11.3339C16.0272 11.3553 15.6269 12.1864 15.6605 12.6631C15.688 13.0572 15.908 13.7936 15.306 13.7814C14.371 13.7539 15.1441 12.8556 14.8019 12.5561Z" fill="#D63F3E"/>
</svg>
