<svg width="24" height="24" viewBox="0 0 24 24" fill="none" xmlns="http://www.w3.org/2000/svg">
<path d="M18.7252 7.75583C19.2905 7.99417 19.3608 8.46778 19.3608 9.00555C19.3608 12.4563 19.3608 15.905 19.3608 19.3517C19.3608 20.6258 18.7496 21.185 17.503 21.185C13.9066 21.185 10.3071 21.185 6.71076 21.185C5.43048 21.185 4.78881 20.4944 4.77659 19.3333C4.73381 14.5178 4.73381 9.7012 4.77659 4.88361C4.77659 3.56972 5.50992 2.84555 6.91548 2.86083C8.99326 2.88833 11.071 2.89444 13.1458 2.86083C13.8944 2.86083 14.4138 3.09305 14.7499 3.74694C14.6627 3.98431 14.5606 4.21596 14.4444 4.44055C13.6744 6.7475 14.5421 7.95139 16.9377 7.93611C17.5367 7.91271 18.1336 7.8525 18.7252 7.75583Z" fill="#31A4DC"/>
<path d="M18.7251 7.75584C17.6313 8.94445 16.3021 8.33334 15.1013 8.15306C14.1846 8.03084 13.766 7.17834 13.879 6.31973C13.9921 5.46112 13.216 4.18084 14.7346 3.76834C16.1589 4.99986 17.4925 6.33248 18.7251 7.75584Z" fill="#3499D4"/>
<path d="M10.2063 12.7181C10.2314 12.3253 10.2314 11.9314 10.2063 11.5386C10.0596 10.4631 10.5119 10.1453 11.5691 10.1697C12.5285 10.1942 13.1427 10.3225 12.996 11.4806C12.9639 12.0362 12.9639 12.5932 12.996 13.1489C12.996 14.6767 12.1405 15.3244 10.741 14.7408C9.68687 14.3131 10.4752 13.2986 10.2063 12.7181Z" fill="#E1F2FC"/>
<path d="M17.3838 14.6247C16.3816 15.1564 16.2808 14.1389 15.8041 13.6897C15.193 13.9617 15.1716 15.1594 14.0777 14.6369C13.9952 14.2581 14.3283 13.9586 14.5269 13.6714C15.0463 12.9258 15.1716 12.2719 14.5666 11.4775C14.3436 11.1719 13.6194 10.6831 14.2611 10.2736C14.8049 9.93139 15.0983 10.6097 15.3947 11.0069C15.5101 11.1296 15.6358 11.242 15.7705 11.3431C15.9144 11.207 16.0463 11.0588 16.1647 10.9C16.4091 10.4967 16.7391 9.98334 17.2036 10.2889C17.7719 10.6617 17.1363 11.0803 16.9561 11.4225C16.4824 12.3392 16.4519 12.3239 17.3838 14.6247Z" fill="#E7F5FD"/>
<path d="M7.82907 11.7219C8.52268 11.3217 8.03074 10.0964 8.84963 10.3042C9.7663 10.5364 9.07268 11.3889 8.99935 11.9664C8.91074 12.663 8.75185 13.3536 8.63268 14.0503C8.56852 14.423 8.46768 14.7408 8.00324 14.7561C7.5388 14.7714 7.45324 14.4506 7.39213 14.0747C7.2088 13.0847 6.98268 12.1008 6.79629 11.1108C6.74129 10.8053 6.39602 10.3867 6.97963 10.2522C7.39824 10.1544 7.63046 10.4294 7.7038 10.8328C7.74657 11.1292 7.78324 11.4255 7.82907 11.7219Z" fill="#E1F2FC"/>
<path d="M12.0855 12.5194C11.9052 13.0144 12.3207 13.8028 11.5538 13.7417C10.8755 13.6928 11.1841 12.9381 11.1657 12.495C11.1474 12.0519 10.961 11.2453 11.5966 11.2728C12.4521 11.2942 11.7677 12.1803 12.0855 12.5194Z" fill="#2E9ED9"/>
</svg>
