<svg width="24" height="24" viewBox="0 0 24 24" fill="none" xmlns="http://www.w3.org/2000/svg">
<path d="M19.0064 8.04612C19.5044 8.35167 19.3364 8.86195 19.3394 9.28973C19.3394 12.5928 19.318 15.8958 19.3394 19.1989C19.3577 20.6197 18.7283 21.2308 17.3319 21.2186C13.8272 21.1911 10.3255 21.185 6.82385 21.2186C5.39997 21.2186 4.73691 20.5281 4.7308 19.1989C4.70432 14.473 4.70432 9.74704 4.7308 5.02112C4.7308 3.64001 5.42135 2.85473 6.9033 2.88223C8.98413 2.91279 11.068 2.88223 13.1489 2.88223C13.6775 2.88223 14.1755 2.88223 14.4169 3.47501C14.5789 4.19306 14.2 4.85306 14.2152 5.56501C14.2458 7.2914 14.7377 7.83529 16.4366 7.93612C17.3014 7.98806 18.1661 7.76501 19.0064 8.04612Z" fill="#31A4DC"/>
<path d="M19.0064 8.04611C17.8452 8.59917 16.6016 8.41278 15.4222 8.28139C13.7233 8.09195 13.4789 5.98056 14.1022 3.98528C14.1936 3.802 14.3087 3.63147 14.4444 3.47806C16.061 4.9018 17.5848 6.42761 19.0064 8.04611Z" fill="#3699D4"/>
<path d="M8.06435 11.9695C7.38907 12.6845 7.25157 13.4483 6.94296 14.1083C6.75963 14.5056 6.56102 14.8417 6.05074 14.7408C5.54046 14.64 5.64129 14.2244 5.63518 13.8853C5.6199 13.0236 5.61379 12.1589 5.63518 11.2942C5.63518 10.9183 5.47018 10.3347 6.01713 10.2858C6.75657 10.2186 6.46935 10.897 6.54574 11.2911C6.57629 11.4378 6.5824 11.5967 6.60685 11.8136C7.38601 11.5417 7.03157 10.3439 7.82907 10.2644C8.82213 10.1636 8.60213 11.2942 9.11851 11.722C9.42407 11.4958 9.25296 11.1811 9.28657 10.9122C9.32018 10.6433 9.34157 10.2675 9.75101 10.2644C10.1605 10.2614 10.2032 10.6036 10.2063 10.9092C10.2063 11.8747 10.2246 12.8403 10.2063 13.8058C10.2063 14.1786 10.3468 14.6767 9.72657 14.7408C9.27435 14.7836 9.13379 14.4353 8.98713 14.1053L8.06435 11.9695Z" fill="#E7F5FD"/>
<path d="M13.8791 12.6111C13.8978 12.8144 13.8978 13.019 13.8791 13.2222C13.7813 13.7295 14.1846 14.5636 13.543 14.6797C12.6263 14.8478 13.1121 13.9128 12.9319 13.482C12.8585 13.2925 12.8249 13.0786 12.5713 13.0817C12.1802 13.0817 12.1099 13.3689 12.0427 13.6928C11.9602 14.0808 12.2627 14.7958 11.5599 14.7317C10.8571 14.6675 11.1688 13.9342 11.1291 13.4881C11.0741 12.877 11.1749 12.2658 11.1016 11.6761C10.9702 10.5608 11.3521 10.1697 12.5163 10.2003C13.5491 10.2278 14.0288 10.4845 13.8821 11.5692C13.8589 11.9161 13.8578 12.2641 13.8791 12.6111Z" fill="#E6F5FD"/>
<path d="M16.0546 11.7311C16.8032 11.4714 16.2318 10.0536 17.1027 10.3256C18.0377 10.6158 17.2585 11.5233 17.1974 12.1589C17.1302 12.8586 16.9621 13.5492 16.8307 14.2428C16.8182 14.3936 16.7474 14.5335 16.6332 14.6328C16.5191 14.7321 16.3707 14.7829 16.2196 14.7745C15.8407 14.7745 15.7063 14.5545 15.6421 14.2153C15.4527 13.2253 15.2143 12.2414 15.0554 11.2483C15.0035 10.9245 14.5513 10.4081 15.2388 10.2675C15.746 10.1636 15.9141 10.5731 15.9629 11.0283C15.9721 11.2575 16.021 11.4958 16.0546 11.7311Z" fill="#E1F2FC"/>
</svg>
