<svg width="24" height="24" viewBox="0 0 24 24" fill="none" xmlns="http://www.w3.org/2000/svg">
<path d="M18.9911 8.11638C19.5442 8.31194 19.3364 8.79166 19.3364 9.15222C19.3548 12.5133 19.3364 15.8531 19.3578 19.2019C19.3578 20.6197 18.7467 21.2308 17.3411 21.2217C13.8425 21.2003 10.3409 21.1911 6.84226 21.2217C5.42448 21.2217 4.77059 20.5556 4.76448 19.205C4.7492 14.4872 4.74003 9.76638 4.76448 5.04555C4.76448 3.49944 5.37559 2.92194 6.90337 2.90666C8.98115 2.87916 11.0589 2.90666 13.1398 2.90666C13.6561 2.90666 14.1725 2.87305 14.4078 3.48111C14.3711 3.8325 14.307 4.18083 14.2764 4.53222C14.032 7.38611 14.4781 7.89333 17.3503 7.93916C17.9064 7.93916 18.4411 8.07972 18.9911 8.11638Z" fill="#644B9F"/>
<path d="M18.9911 8.11637C17.7689 8.59304 16.5253 8.2722 15.2939 8.31192C14.9973 8.27837 14.7216 8.14218 14.5148 7.92692C13.5675 7.06831 13.5156 4.3947 14.4048 3.47192C16.0371 4.91429 17.5694 6.46602 18.9911 8.11637Z" fill="#564098"/>
<path d="M11.117 12.495C11.117 12.2424 11.117 11.9888 11.117 11.7342C11.1071 11.4376 11.1774 11.1439 11.3207 10.884C11.4639 10.6242 11.6747 10.4079 11.9308 10.2579C12.1868 10.108 12.4786 10.03 12.7753 10.0322C13.072 10.0345 13.3626 10.1168 13.6164 10.2706C13.7066 10.3138 13.781 10.3842 13.8292 10.4719C13.8775 10.5596 13.8971 10.6601 13.8853 10.7594C13.8517 11.1872 13.5186 11.1475 13.2223 11.1903C12.8128 11.2483 12.1253 11.0008 12.1436 11.6608C12.162 12.3208 12.8556 11.9664 13.2498 12.0458C13.5553 12.1039 13.8792 12.1344 13.8975 12.5225C13.9189 13.0358 13.5125 13.0511 13.1581 13.0328C12.4339 12.99 11.9725 13.1764 12.0611 14.035C12.0948 14.3681 12.1314 14.805 11.5906 14.7897C11.0498 14.7744 11.1231 14.3619 11.117 14.0136C11.1109 13.5064 11.117 12.9992 11.117 12.495Z" fill="#EAE5F2"/>
<path d="M15.9722 10.2156C16.4245 10.2156 16.675 10.2156 16.9286 10.2156C17.2617 10.2156 17.5397 10.3072 17.5397 10.7045C17.5397 11.1017 17.2617 11.1567 16.9286 11.1933C16.5192 11.2422 15.8347 11.0039 15.8561 11.6608C15.8775 12.3178 16.565 11.9847 16.9592 12.0458C17.3045 12.1008 17.5428 12.1956 17.5336 12.5806C17.5245 12.9656 17.2097 13.0633 16.8889 13.0297C16.0395 12.9411 15.6667 13.2895 15.7583 14.1542C15.7889 14.4597 15.74 14.7806 15.3153 14.7928C14.8081 14.7928 14.7806 14.4414 14.7806 14.0717C14.7806 13.2131 14.8386 12.3514 14.7806 11.4989C14.6797 10.4142 15.0556 9.95278 15.9722 10.2156Z" fill="#E9E4F2"/>
<path d="M6.93085 10.2094C8.35474 10.2094 8.22946 10.1575 7.67946 11.4928C7.37391 12.2322 7.57252 13.1794 7.53891 14.0319C7.53891 14.3864 7.53891 14.7958 7.04085 14.7897C6.54279 14.7836 6.60391 14.3711 6.54279 14.0228C6.35641 12.9442 6.94613 11.8258 5.75446 10.7686C5.20141 10.2767 6.53668 10.405 6.93085 10.2094Z" fill="#E9E4F2"/>
<path d="M9.31116 12.5316C9.31116 11.9755 9.31116 11.4164 9.31116 10.8603C9.31116 10.5303 9.39672 10.2491 9.80922 10.2491C10.1301 10.2491 10.2462 10.4905 10.2523 10.7503C10.2676 11.9175 10.2523 13.0847 10.2523 14.2519C10.2523 14.5178 10.1545 14.753 9.83366 14.7714C9.44561 14.7928 9.30811 14.5514 9.30505 14.203C9.30811 13.65 9.31116 13.0908 9.31116 12.5316Z" fill="#F6F3F9"/>
</svg>
