<svg width="24" height="24" viewBox="0 0 24 24" fill="none" xmlns="http://www.w3.org/2000/svg">
<path d="M18.988 8.10417C19.5441 8.29973 19.3302 8.7825 19.3333 9.14C19.3333 12.5011 19.315 15.8622 19.3547 19.2019C19.3547 20.6197 18.7619 21.2308 17.3502 21.2156C13.8486 21.185 10.3439 21.1758 6.84219 21.2156C5.40607 21.2339 4.76746 20.5372 4.76135 19.2019C4.73996 14.4781 4.72774 9.75111 4.76135 5.02723C4.76135 3.47806 5.39385 2.91278 6.90024 2.88834C8.98107 2.86389 11.065 2.88834 13.1458 2.88834C13.6652 2.88834 14.1786 2.85778 14.4139 3.46278C14.3711 3.76834 14.3191 4.05861 14.2855 4.355C13.98 7.22111 14.53 7.87806 17.3411 7.92695C17.9094 7.94223 18.4411 8.08584 18.988 8.10417Z" fill="#6F7ABB"/>
<path d="M18.988 8.10418C17.8238 8.60224 16.6016 8.33946 15.413 8.28446C15.0759 8.2806 14.7523 8.15196 14.5045 7.92341C14.2568 7.69486 14.1025 7.3826 14.0716 7.04696C13.9219 5.82474 13.2374 4.55363 14.423 3.46585C16.055 4.89927 17.5807 6.44947 18.988 8.10418Z" fill="#616DB2"/>
<path d="M15.7247 13.1642C15.7247 14.0808 15.7675 14.9975 15.7247 15.9142C15.6636 16.9958 15.0494 17.555 13.9494 17.5703C12.8494 17.5856 12.2138 16.9745 12.0886 15.96C11.9511 14.8325 12.605 13.925 13.6805 13.9617C15.355 14.0136 14.6827 12.9014 14.7836 12.1742C14.9455 11.0192 14.1052 11.1872 13.4055 11.1781C11.1688 11.1506 11.1719 11.1506 11.1688 13.3506C11.1688 14.2153 11.1994 15.08 11.1444 15.9386C11.0772 17.0325 10.4386 17.552 9.35079 17.5703C8.9114 17.6132 8.47278 17.4815 8.12973 17.2036C7.78668 16.9257 7.56674 16.524 7.51746 16.0853C7.31273 15.0403 7.85662 14.0442 8.82829 14.0381C10.4172 14.0381 10.2247 13.155 10.2125 12.1375C10.1819 9.31113 10.2125 9.31113 13.103 9.31113C15.743 9.31113 15.743 9.31113 15.7461 11.9603V13.1825L15.7247 13.1642Z" fill="#F1F2F9"/>
</svg>
