<svg width="24" height="24" viewBox="0 0 24 24" fill="none" xmlns="http://www.w3.org/2000/svg">
<path d="M18.988 8.11174C19.5411 8.3073 19.3302 8.78702 19.3333 9.14757C19.3333 12.5087 19.3333 15.8392 19.3516 19.1851C19.3516 20.5998 18.7405 21.2109 17.335 21.2017C13.8333 21.1712 10.3377 21.1712 6.83913 21.2048C5.4183 21.2048 4.76441 20.5356 4.76135 19.1912C4.74607 14.4765 4.73385 9.75869 4.76135 5.04396C4.76135 3.51619 5.37246 2.92952 6.90024 2.90508C8.98107 2.87758 11.0619 2.90508 13.1397 2.90508C13.6561 2.90508 14.1725 2.87452 14.4047 3.47952C14.368 3.83091 14.3039 4.17924 14.2733 4.53063C14.0197 7.3723 14.4719 7.89174 17.3441 7.93452C17.9033 7.93757 18.438 8.07813 18.988 8.11174Z" fill="#6C52A2"/>
<path d="M18.9881 8.11175C17.7658 8.59148 16.5222 8.26759 15.2878 8.30731C14.9929 8.27291 14.7188 8.13804 14.5117 7.92536C13.5614 7.0637 13.5278 4.38703 14.4047 3.47342C16.039 4.91057 17.5705 6.46047 18.9881 8.11175Z" fill="#61479C"/>
<path d="M10.1911 14.6445C9.11859 15.1029 8.96887 14.2106 8.48609 13.8104C7.87498 14.0365 7.70692 15.3015 6.55803 14.5681C7.96359 13.2206 7.84748 11.7906 6.51831 10.4309C7.70998 9.78315 7.84442 10.9076 8.37303 11.2987C8.75498 11.2651 8.80081 10.9168 8.94748 10.6876C9.20109 10.3026 9.57692 10.0245 9.9497 10.269C10.4691 10.6112 9.9497 11.039 9.75414 11.2529C8.49525 12.5484 9.75109 13.5323 10.1911 14.6445Z" fill="#EDE9F4"/>
<path d="M17.5519 13.1015C17.5519 14.6659 16.3296 15.3534 15.1074 14.7698C15.0118 14.7418 14.9289 14.6813 14.8732 14.5988C14.8174 14.5162 14.7922 14.4167 14.8019 14.3176C14.8263 14.012 15.0402 13.9356 15.2999 13.8623C15.7277 13.7462 16.5221 14.2015 16.5221 13.4406C16.5221 12.744 15.6819 13.1931 15.2755 12.9945C14.3435 12.5331 14.9302 11.6654 14.7988 10.9901C14.6888 10.4126 15.031 10.1712 15.5994 10.2048C15.9049 10.2231 16.2105 10.1865 16.516 10.2048C16.8858 10.2384 17.4327 10.0276 17.5121 10.5959C17.613 11.3598 16.9591 11.1184 16.5649 11.1673C16.1708 11.2162 15.7888 11.2009 15.8469 11.7051C15.8927 12.1206 16.3021 12.0565 16.571 12.0259C17.7077 11.9067 17.5824 12.6767 17.5519 13.1015Z" fill="#EDE9F4"/>
<path d="M11.1291 12.524C11.1291 11.9129 11.1291 11.3201 11.1291 10.7151C11.1235 10.6526 11.1312 10.5896 11.1517 10.5304C11.1722 10.4711 11.205 10.4168 11.2481 10.3712C11.2911 10.3255 11.3433 10.2896 11.4013 10.2656C11.4593 10.2417 11.5217 10.2303 11.5844 10.2323C11.89 10.2323 12.0275 10.434 12.0397 10.7029C12.0641 11.207 12.0764 11.7112 12.0611 12.2123C12.0244 13.129 11.8961 14.1159 13.3658 13.8806C13.4279 13.8699 13.4917 13.8729 13.5525 13.8895C13.6134 13.9061 13.6698 13.9359 13.7179 13.9767C13.766 14.0175 13.8045 14.0683 13.8308 14.1256C13.8571 14.183 13.8704 14.2454 13.87 14.3084C13.8829 14.4071 13.8618 14.5071 13.8101 14.5921C13.7584 14.6772 13.6793 14.742 13.5858 14.7759C13.3302 14.927 13.0384 15.0059 12.7415 15.0045C12.4446 15.003 12.1536 14.9212 11.8995 14.7676C11.6454 14.6141 11.4376 14.3946 11.2982 14.1324C11.1588 13.8703 11.093 13.5752 11.1078 13.2787V12.524H11.1291Z" fill="#ECE7F3"/>
</svg>
