<svg width="24" height="24" viewBox="0 0 24 24" fill="none" xmlns="http://www.w3.org/2000/svg">
<path d="M18.9881 8.09805C19.5442 8.2936 19.3303 8.77332 19.3334 9.13388C19.3334 12.495 19.315 15.8347 19.3517 19.1836C19.37 20.6044 18.762 21.2125 17.3503 21.2002C13.8334 21.1666 10.3439 21.1666 6.84228 21.2033C5.40617 21.2216 4.76451 20.525 4.7584 19.1927C4.73701 14.4719 4.72784 9.74804 4.7584 5.02722C4.7584 3.48111 5.3909 2.91584 6.89728 2.88834C8.97811 2.86389 11.0589 2.88834 13.1428 2.88834C13.6592 2.88834 14.1756 2.85778 14.4109 3.46278C14.3681 3.76833 14.3131 4.05556 14.2825 4.355C13.977 7.21805 14.527 7.87499 17.3381 7.92388C17.9095 7.93305 18.4411 8.07971 18.9881 8.09805Z" fill="#6F7ABB"/>
<path d="M18.9881 8.09805C17.8209 8.5961 16.6017 8.33333 15.4131 8.27527C15.0778 8.27383 14.7551 8.14803 14.5072 7.92223C14.2594 7.69644 14.1042 7.38672 14.0717 7.05305C13.922 5.83083 13.2375 4.56278 14.4231 3.47501C16.0554 4.90268 17.5811 6.44781 18.9881 8.09805Z" fill="#616DB2"/>
<path d="M16.6475 11.835C16.6475 12.715 16.7025 13.5186 16.6292 14.313C16.565 15.028 17.1914 16.7361 15.3428 15.3825C15.135 15.2328 14.8295 15.1778 14.8111 15.5903C14.7531 16.8675 13.8059 16.6322 13.0236 16.6414C11.6028 16.6597 10.1789 16.6414 8.74586 16.6414C7.8567 16.6414 7.41365 16.2655 7.4442 15.3672C7.4442 15.2664 7.4442 15.1625 7.4442 15.0616C7.47781 10.5792 6.95531 11.1322 11.285 11.1047C12.0459 11.1047 12.8128 11.1047 13.5706 11.1047C13.9342 11.1047 14.4597 11.1047 14.5117 11.4408C14.8233 13.3383 15.8256 11.9083 16.6475 11.835Z" fill="#F1F2F9"/>
</svg>
