<svg width="24" height="24" viewBox="0 0 24 24" fill="none" xmlns="http://www.w3.org/2000/svg">
<path d="M18.9911 8.11638C19.5442 8.31194 19.3364 8.79166 19.3364 9.15222C19.3547 12.5133 19.3364 15.8531 19.3578 19.2019C19.3578 20.6197 18.7467 21.2308 17.3411 21.2217C13.8425 21.2003 10.3408 21.1911 6.84223 21.2217C5.42445 21.2217 4.77056 20.5556 4.76445 19.205C4.74917 14.4872 4.74 9.76638 4.76445 5.04555C4.76445 3.49944 5.37556 2.92194 6.90334 2.90666C8.98111 2.87916 11.0589 2.90666 13.1397 2.90666C13.6561 2.90666 14.1725 2.87305 14.4078 3.48111C14.3711 3.8325 14.3069 4.18083 14.2764 4.53222C14.0319 7.38611 14.4781 7.89333 17.3503 7.93916C17.9064 7.93916 18.4411 8.07972 18.9911 8.11638Z" fill="#644B9F"/>
<path d="M18.9911 8.11637C17.7689 8.59304 16.5253 8.2722 15.2939 8.31192C14.9972 8.27837 14.7216 8.14218 14.5147 7.92692C13.5675 7.06831 13.5156 4.3947 14.4047 3.47192C16.0371 4.91429 17.5694 6.46602 18.9911 8.11637Z" fill="#564098"/>
<path d="M15.4131 12.0397C16.9408 11.8045 16.6078 12.8922 16.6811 13.7631C16.8064 15.187 15.7858 14.7256 15.0678 14.8325C13.9861 14.9883 13.7631 14.4353 13.8456 13.5125C13.9105 13.0053 13.9105 12.4919 13.8456 11.9847C13.595 10.4845 14.2122 9.93751 15.6606 10.2033C16.0272 10.2706 16.5772 10.0506 16.6139 10.6586C16.6506 11.2667 16.1097 11.1231 15.74 11.1811C15.5017 11.2208 15.2664 11.3003 15.0311 11.3614C14.7256 11.8442 15.1167 12.2995 15.0311 12.9686C15.0311 12.9686 15.3122 12.7853 15.1106 12.7914C15.0769 12.7914 15.0861 12.7456 15.0922 12.6478C15.0818 12.5263 15.1064 12.4044 15.1633 12.2966C15.2202 12.1888 15.3069 12.0996 15.4131 12.0397Z" fill="#EDE9F4"/>
<path d="M10.2064 12.5744V11.8197C10.2064 10.3469 11.2575 9.63804 12.5989 10.2522C13.4056 10.625 12.9411 11.4072 13.0144 12C13.0664 12.4186 13.1458 13.0389 12.4644 13.0053C11.4958 12.9564 11.0375 13.2772 11.1658 14.2917C11.1813 14.3532 11.1821 14.4174 11.1681 14.4793C11.1541 14.5411 11.1257 14.5988 11.0852 14.6476C11.0447 14.6965 10.9933 14.735 10.9351 14.7603C10.8769 14.7855 10.8136 14.7966 10.7503 14.7928C10.3622 14.7928 10.2186 14.585 10.2156 14.2367C10.2156 13.6836 10.2156 13.1305 10.2156 12.5744H10.2064Z" fill="#E9E4F2"/>
<path d="M9.32334 12.5592V13.3169C9.3302 13.6119 9.25784 13.9033 9.11381 14.1608C8.96978 14.4183 8.75934 14.6324 8.50442 14.7809C8.24949 14.9295 7.95941 15.0069 7.66438 15.0052C7.36935 15.0036 7.08017 14.9228 6.82695 14.7714C6.73595 14.7307 6.66185 14.6598 6.61728 14.5707C6.57271 14.4815 6.56042 14.3797 6.58251 14.2825C6.65584 13.8761 6.97973 13.9189 7.27612 13.8669C7.66723 13.7997 8.32418 14.1205 8.33029 13.3964C8.3364 12.6722 8.69695 11.8686 8.0614 11.2575C7.82001 11.0344 7.33418 11.013 7.52057 10.5486C7.74973 9.97722 8.29973 10.2644 8.71529 10.2247C9.17973 10.1789 9.3264 10.4844 9.3264 10.8908V12.5561L9.32334 12.5592Z" fill="#ECE8F3"/>
<path d="M15.4131 12.0397C15.3347 12.2214 15.3074 12.4211 15.3344 12.6171C15.3613 12.8132 15.4413 12.9981 15.5658 13.1519C15.7492 13.3933 15.7981 13.7386 15.3825 13.8394C15.3119 13.8673 15.235 13.8754 15.1601 13.8629C15.0852 13.8503 15.0151 13.8177 14.9573 13.7684C14.8996 13.7191 14.8563 13.655 14.8322 13.5831C14.808 13.5111 14.8039 13.4339 14.8203 13.3597C14.8753 12.6936 14.5453 11.9847 15.0372 11.3705C15.0286 11.5065 15.0596 11.6419 15.1262 11.7607C15.1929 11.8794 15.2925 11.9763 15.4131 12.0397Z" fill="#6952A2"/>
</svg>
