<svg width="24" height="24" viewBox="0 0 24 24" fill="none" xmlns="http://www.w3.org/2000/svg">
<path d="M18.9911 8.10722C19.5442 8.30583 19.3333 8.78555 19.3364 9.14305C19.3517 12.5042 19.3364 15.8408 19.3547 19.1866C19.3547 20.6044 18.7436 21.2125 17.3411 21.2033C13.8334 21.1666 10.3409 21.1666 6.8392 21.2064C5.41837 21.2216 4.76754 20.5372 4.76143 19.1928C4.74615 14.475 4.73698 9.75721 4.76143 5.03944C4.76143 3.51167 5.37254 2.925 6.90031 2.90056C8.98114 2.87306 11.0589 2.90056 13.1397 2.90056C13.6561 2.90056 14.1725 2.87306 14.4047 3.47806C14.3681 3.82945 14.3039 4.17778 14.2734 4.52917C14.0197 7.37388 14.472 7.89027 17.3289 7.93305C17.9064 7.93305 18.4411 8.0736 18.9911 8.10722Z" fill="#6C52A2"/>
<path d="M18.9911 8.10723C17.7688 8.58695 16.5252 8.26612 15.2908 8.30584C14.996 8.26894 14.7224 8.13323 14.5147 7.92084C13.5644 7.05917 13.5277 4.38251 14.4077 3.4689C16.042 4.90605 17.5735 6.45595 18.9911 8.10723Z" fill="#61479C"/>
<path d="M13.7111 13.4514C13.1886 13.9066 13.3781 14.8172 12.5164 14.7928C11.6547 14.7683 11.9053 13.8394 11.4317 13.488C11.0008 13.488 11.2056 13.815 11.175 14.0044C11.12 14.3314 11.2514 14.7714 10.7014 14.7714C10.1514 14.7714 10.2156 14.3619 10.2125 14.0136C10.2125 12.9951 10.2125 11.9847 10.2125 10.9825C10.2125 10.6769 10.1636 10.3378 10.5578 10.243C10.7296 10.195 10.9134 10.2169 11.0691 10.3039C11.2248 10.3909 11.3398 10.536 11.3889 10.7075C11.7281 11.4928 12.0825 12.2719 12.4644 13.1336C13.1061 12.4308 13.2406 11.5569 13.6256 10.8114C13.7906 10.4905 13.9494 10.1544 14.3956 10.2339C14.8997 10.3225 14.7928 10.7472 14.8019 11.0742C14.8463 11.8313 14.8463 12.5904 14.8019 13.3475C14.75 13.8333 15.1717 14.6522 14.3803 14.75C13.485 14.8325 14.1114 13.8333 13.7111 13.4514Z" fill="#F0EBF5"/>
<path d="M9.29891 14.6308C8.15614 15.135 8.00947 14.145 7.56336 13.7142C6.95225 14.1083 6.86669 15.2205 5.68114 14.6125C6.96447 13.2711 7.02864 11.8442 5.59253 10.4753C6.65892 10.2858 6.65892 10.2858 7.42586 11.285C7.76808 11.3828 7.81391 11.0436 7.92086 10.8694C8.18364 10.4569 8.53197 9.9925 8.9903 10.2583C9.63502 10.6372 8.9903 11.1292 8.77336 11.3522C7.53892 12.66 8.88641 13.5553 9.29891 14.6308Z" fill="#EEEAF4"/>
<path d="M17.0111 14.8111C15.9722 15.0555 15.5597 14.5697 15.6667 13.4269C15.7553 12.5805 15.6819 11.7189 15.6881 10.8633C15.6881 10.5578 15.7583 10.2522 16.1617 10.2339C16.565 10.2155 16.6353 10.5394 16.6475 10.845C16.6658 11.2972 16.6719 11.7616 16.6475 12.2016C16.6108 13.1336 16.4794 14.1083 17.9492 13.8822C18.0117 13.8717 18.0758 13.8753 18.1368 13.8927C18.1978 13.91 18.2541 13.9407 18.3018 13.9825C18.3495 14.0244 18.3873 14.0763 18.4124 14.1345C18.4376 14.1927 18.4494 14.2558 18.4472 14.3191C18.4686 14.7347 18.1661 14.7958 17.8361 14.808C17.6161 14.8172 17.3656 14.8111 17.0111 14.8111Z" fill="#EBE5F2"/>
</svg>
