<svg width="24" height="24" viewBox="0 0 24 24" fill="none" xmlns="http://www.w3.org/2000/svg">
<path d="M18.9911 8.11027C19.5442 8.30582 19.3333 8.78554 19.3364 9.14304C19.3547 12.5041 19.3364 15.8378 19.3578 19.1836C19.3578 20.6014 18.7467 21.2125 17.3411 21.2033C13.8425 21.1819 10.3408 21.1727 6.84224 21.2033C5.42446 21.2033 4.77057 20.5372 4.76446 19.1897C4.74919 14.475 4.74002 9.75721 4.76446 5.04249C4.76446 3.49639 5.37557 2.91889 6.90335 2.90361C8.98112 2.87611 11.0589 2.90361 13.1397 2.90361C13.6561 2.90361 14.1725 2.87305 14.4078 3.47805C14.3711 3.82944 14.3069 4.17777 14.2764 4.52916C14.0319 7.37999 14.4781 7.89027 17.3503 7.93305C17.9064 7.93305 18.4411 8.0736 18.9911 8.11027Z" fill="#644B9F"/>
<path d="M18.9911 8.11025C17.7689 8.58692 16.5253 8.26609 15.2939 8.30581C14.998 8.26958 14.7233 8.13381 14.5147 7.92081C13.5675 7.0622 13.5156 4.38859 14.4047 3.46887C16.0363 4.91097 17.5686 6.46162 18.9911 8.11025Z" fill="#564098"/>
<path d="M15.7767 12.7241C15.4497 13.3811 16.5925 14.8355 14.5728 14.863C13.2222 14.8814 12.7395 14.5025 12.935 13.1764C13.0114 12.6761 13.0114 12.1672 12.935 11.6669C12.7456 10.4447 13.2864 10.1391 14.4475 10.1666C15.5108 10.1819 15.9233 10.5028 15.7858 11.5508C15.7593 11.9414 15.7563 12.3332 15.7767 12.7241Z" fill="#E8E3F1"/>
<path d="M9.29889 12.4828C9.27549 12.1776 9.27549 11.8712 9.29889 11.5661C9.36917 11.1108 8.99334 10.4172 9.67473 10.2705C10.3561 10.1239 11.0711 10.2278 11.7708 10.2705C11.9817 10.2705 12.0428 10.5333 12.0244 10.7472C12 11.1872 11.6639 11.2055 11.3889 11.1719C10.3439 11.0558 10.2644 11.6669 10.2858 12.4766C10.3072 13.2864 10.2156 14.0564 11.4164 13.87C11.7219 13.8211 12.0275 13.9311 12.0489 14.3283C12.0489 14.8691 11.6394 14.7805 11.3003 14.8172C9.33251 15.025 9.29889 14.9852 9.29889 12.4828Z" fill="#EAE5F2"/>
<path d="M8.4128 12.4705C8.4128 13.0817 8.4128 13.6928 8.4128 14.3039C8.42022 14.3667 8.41362 14.4304 8.39348 14.4903C8.37335 14.5503 8.34017 14.605 8.29633 14.6506C8.2525 14.6962 8.1991 14.7315 8.13999 14.7539C8.08087 14.7764 8.01751 14.7855 7.95446 14.7805C7.89134 14.7858 7.82783 14.7771 7.76846 14.755C7.70909 14.733 7.65531 14.6981 7.61097 14.6529C7.56662 14.6076 7.53278 14.5532 7.51188 14.4934C7.49098 14.4336 7.48351 14.3699 7.49002 14.3069C7.49002 13.1397 7.47474 11.9755 7.49002 10.8114C7.49002 10.4631 7.6428 10.2278 8.03696 10.2644C8.37002 10.2919 8.41891 10.57 8.42502 10.8083C8.44335 11.3675 8.42502 11.9236 8.42502 12.4828L8.4128 12.4705Z" fill="#F5F3F9"/>
<path d="M14.8142 12.5194C14.5514 12.9014 15.1747 13.7814 14.3192 13.76C13.6683 13.76 13.98 12.9503 13.9647 12.5072C13.9494 12.0642 13.6928 11.285 14.3711 11.285C15.1044 11.2758 14.6247 12.0703 14.8142 12.5194Z" fill="#5C459B"/>
</svg>
