<svg width="24" height="24" viewBox="0 0 24 24" fill="none" xmlns="http://www.w3.org/2000/svg">
<path d="M18.9911 8.11028C19.5442 8.30584 19.3333 8.78556 19.3364 9.14306C19.3547 12.5042 19.3364 15.8378 19.3578 19.1836C19.3578 20.6014 18.7467 21.2125 17.3411 21.2033C13.8425 21.1819 10.3408 21.1728 6.84223 21.2033C5.42446 21.2033 4.77057 20.5372 4.76446 19.1897C4.74918 14.475 4.74001 9.75722 4.76446 5.04251C4.76446 3.4964 5.37557 2.9189 6.90334 2.90363C8.98112 2.87918 11.0589 2.90363 13.1397 2.90363C13.6561 2.90363 14.1725 2.87307 14.4078 3.47807C14.3711 3.82946 14.3069 4.17779 14.2764 4.52918C14.0319 7.38001 14.478 7.89028 17.3503 7.93306C17.9064 7.93306 18.4411 8.07362 18.9911 8.11028Z" fill="#644B9F"/>
<path d="M18.9911 8.11028C17.7689 8.58695 16.5253 8.26612 15.2939 8.30584C14.998 8.26961 14.7232 8.13384 14.5147 7.92084C13.5675 7.06223 13.5156 4.38862 14.4047 3.4689C16.0363 4.911 17.5686 6.46165 18.9911 8.11028Z" fill="#564098"/>
<path d="M9.01473 12.0306C10.5425 11.7892 10.2369 12.8708 10.295 13.7508C10.4111 15.1778 9.37834 14.7133 8.66945 14.8203C7.58473 14.9792 7.36167 14.42 7.44723 13.4972C7.515 12.9902 7.515 12.4764 7.44723 11.9694C7.19362 10.4417 7.85056 9.94056 9.28056 10.1972C9.64723 10.2614 10.1972 10.0536 10.2247 10.6647C10.2522 11.2758 9.70528 11.1353 9.3325 11.1689C9.085 11.1933 8.82223 11.1475 8.63889 11.3797C8.24473 11.8533 8.82834 12.2964 8.73973 12.4675C8.64501 12.9594 8.92917 12.7547 8.73973 12.773C8.70001 12.773 8.70917 12.7272 8.71223 12.6325C8.69811 12.5136 8.71926 12.3931 8.77304 12.2861C8.82682 12.1791 8.91087 12.0902 9.01473 12.0306Z" fill="#ECE8F4"/>
<path d="M12.9533 12.4645C12.9533 12.2139 12.9533 11.9603 12.9533 11.7067C12.9473 11.4109 13.021 11.119 13.1665 10.8615C13.3121 10.6039 13.5242 10.3902 13.7806 10.2428C14.0371 10.0954 14.3284 10.0196 14.6242 10.0234C14.92 10.0272 15.2094 10.1105 15.4619 10.2645C15.5513 10.3079 15.6251 10.3779 15.6732 10.4648C15.7213 10.5518 15.7415 10.6515 15.7308 10.7503C15.7155 11.0772 15.4803 11.1231 15.2205 11.1781C14.7806 11.2728 13.9983 10.9092 13.9983 11.6608C13.9983 12.3025 14.7072 11.9664 15.1044 12.0367C15.4283 12.0917 15.7155 12.1436 15.7155 12.5347C15.7155 12.9258 15.4283 13.0511 15.1044 13.0145C14.1878 12.9106 13.7906 13.2864 13.8822 14.2122C13.9189 14.5514 13.7661 14.8081 13.3719 14.7836C12.9778 14.7592 12.9564 14.4445 12.9533 14.1389C12.9503 13.5767 12.9533 13.0206 12.9533 12.4645Z" fill="#E9E5F2"/>
<path d="M12.0581 12.5011C12.0581 13.0053 12.0581 13.5125 12.0581 14.0289C12.0581 14.368 12.1222 14.8141 11.5753 14.7744C11.0283 14.7347 11.1383 14.31 11.1353 13.9678C11.1353 13.0083 11.1353 12.0458 11.1353 11.0864C11.1353 10.7503 11.0528 10.295 11.56 10.2675C12.2231 10.2308 12.0244 10.793 12.0519 11.1475C12.0856 11.5875 12.0581 12.0458 12.0581 12.5011Z" fill="#F7F5FA"/>
<path d="M9.01473 12.0306C8.93034 12.2132 8.90017 12.4163 8.9278 12.6156C8.95542 12.8149 9.03968 13.0021 9.17056 13.155C9.36001 13.3994 9.38751 13.7661 8.95056 13.8303C8.51362 13.8944 8.41279 13.5981 8.43417 13.2711C8.47695 12.6417 8.18667 11.9694 8.64195 11.3858C8.63197 11.5183 8.66221 11.6508 8.72872 11.7658C8.79523 11.8808 8.89491 11.9731 9.01473 12.0306Z" fill="#6850A1"/>
</svg>
