<svg width="24" height="24" viewBox="0 0 24 24" fill="none" xmlns="http://www.w3.org/2000/svg">
<path d="M21.075 15.6666C19.6297 15.6972 19.2783 16.51 19.4831 17.8055C19.564 18.3582 19.5579 18.9201 19.4647 19.4708C19.2906 20.5188 18.7619 21.2247 17.5581 21.2216C13.9128 21.2063 10.2675 21.2216 6.62224 21.2216C5.35419 21.2216 4.80724 20.4944 4.7278 19.3272C4.67344 18.8194 4.67344 18.3072 4.7278 17.7994C4.90502 16.5405 4.65447 15.6605 3.14197 15.6911C3.56058 15.2297 4.1228 15.2175 4.66974 15.2114C9.51585 15.1686 14.3619 15.2114 19.2081 15.193C19.868 15.1777 20.5555 15.1289 21.075 15.6666Z" fill="#D74444"/>
<path d="M21.075 15.6666H3.13896C2.86396 13.8547 3.08091 12.0305 3.0198 10.2125C3.0198 9.9069 3.0198 9.45468 3.36202 9.47607C4.56285 9.56162 5.51618 8.7244 6.72312 8.73968C10.4234 8.79162 14.1267 8.77023 17.827 8.79468C18.3868 8.76519 18.9425 8.90465 19.422 9.19495C20.9223 9.02079 21.4142 9.67773 21.2309 11.1536C21.0475 12.6294 21.3562 14.1602 21.075 15.6666Z" fill="#D32F2E"/>
<path d="M19.4159 9.19802C15.3276 9.21636 11.2362 9.24386 7.14479 9.25608C3.17258 9.25608 3.17258 9.25608 3.17258 13.2466C3.16341 14.0563 3.13897 14.863 3.13897 15.6666C2.55536 13.7508 3.0198 11.783 2.8823 9.86108C2.8548 9.49747 3.07175 9.23469 3.42619 9.29886C4.95397 9.57386 4.74008 8.55025 4.72174 7.63969C4.61174 2.75081 4.72174 2.7997 9.49146 2.93109C11.0192 2.97081 12.5959 2.58581 14.1023 3.1847C14.3162 3.92109 14.2214 4.67581 14.2489 5.42136C14.3284 7.42581 14.802 7.89636 16.7667 7.93914C17.5153 7.95747 18.2701 7.87497 19.0064 8.07664C19.5289 8.30275 19.4709 8.74886 19.4159 9.19802Z" fill="#D74444"/>
<path d="M19.0064 8.06135C17.7567 8.62052 16.4581 8.36691 15.19 8.21413C14.9112 8.17389 14.6527 8.04487 14.4529 7.84618C14.2531 7.6475 14.1226 7.38972 14.0809 7.11107C13.76 5.78497 13.6317 4.47413 14.1023 3.16025L19.0064 8.06135Z" fill="#D43330"/>
<path d="M7.04696 11.7739C6.6039 12.7975 6.28001 13.485 6.00807 14.1908C5.84002 14.6247 5.60168 14.8813 5.11279 14.8019C4.62391 14.7225 4.7278 14.2825 4.72168 13.9586C4.72168 13.0419 4.7003 12.1252 4.72168 11.2086C4.72168 10.8419 4.5353 10.2919 5.12502 10.2308C5.87668 10.1544 5.64446 10.79 5.69029 11.1964C5.70557 11.3461 5.69029 11.5019 5.69029 11.6852C6.50001 11.4866 6.09668 10.2522 6.99807 10.2064C7.89946 10.1605 7.63362 11.2544 8.29668 11.5844C8.33334 11.2147 8.35473 10.8877 8.39751 10.5639C8.40907 10.4631 8.45902 10.3707 8.53699 10.3058C8.61496 10.2409 8.71493 10.2086 8.81612 10.2155C8.8778 10.201 8.94204 10.2015 9.00349 10.217C9.06494 10.2324 9.12181 10.2622 9.16936 10.3041C9.21691 10.346 9.25375 10.3986 9.27682 10.4576C9.29988 10.5166 9.3085 10.5803 9.30195 10.6433C9.30195 11.8655 9.30195 13.0877 9.30195 14.2855C9.31156 14.3481 9.30766 14.4119 9.29052 14.4728C9.27338 14.5337 9.24339 14.5903 9.20257 14.6386C9.16175 14.687 9.11104 14.726 9.05387 14.7531C8.9967 14.7802 8.93439 14.7948 8.87112 14.7958C8.72007 14.8181 8.56595 14.7874 8.43502 14.7088C8.30409 14.6303 8.20444 14.5087 8.15307 14.365C7.83529 13.6011 7.50223 12.8219 7.04696 11.7739Z" fill="#FBE9E8"/>
<path d="M11.2239 13.3597C11.2056 13.7722 11.1964 14.0594 11.1781 14.3436C11.1598 14.6277 11.0223 14.8111 10.7045 14.8019C10.3867 14.7927 10.2248 14.6461 10.2248 14.3436C10.2248 13.1214 10.2248 11.8991 10.2248 10.6769C10.2176 10.6143 10.2246 10.5509 10.2451 10.4914C10.2657 10.4318 10.2993 10.3776 10.3436 10.3327C10.3879 10.2879 10.4416 10.2535 10.5009 10.2322C10.5602 10.2109 10.6235 10.2031 10.6862 10.2094C10.8386 10.1932 10.9919 10.2304 11.12 10.3145C11.2482 10.3986 11.3432 10.5245 11.3889 10.6708C11.7251 11.4653 12.0764 12.2505 12.4553 13.1153C13.0909 12.5041 13.1887 11.6608 13.5553 10.9764C13.7417 10.628 13.8242 10.1666 14.3712 10.2278C15.0159 10.298 14.802 10.8205 14.8142 11.175C14.8448 12.0397 14.8509 12.9044 14.8142 13.7661C14.7989 14.1541 15.0801 14.7958 14.3131 14.7866C13.6592 14.7866 13.9403 14.2061 13.8639 13.87C13.8334 13.7447 13.7906 13.6225 13.7478 13.4727C13.1612 13.8211 13.4423 14.8936 12.4889 14.8325C11.6548 14.75 11.9114 13.8333 11.2239 13.3597Z" fill="#FBE9E8"/>
<path d="M16.9898 11.5875C17.1762 11.1811 17.3351 10.8205 17.5092 10.4691C17.5693 10.3564 17.6694 10.2701 17.7897 10.2271C17.9101 10.1842 18.0421 10.1877 18.1601 10.2369C18.4901 10.3133 18.4656 10.6005 18.4137 10.848C18.2028 11.9908 17.9737 13.1305 17.7567 14.2733C17.7465 14.4265 17.6769 14.5696 17.5628 14.6724C17.4487 14.7751 17.299 14.8292 17.1456 14.8233C16.6751 14.8477 16.5712 14.5544 16.4978 14.1694C16.3176 13.1733 16.0853 12.1894 15.9203 11.1933C15.8653 10.8633 15.459 10.3561 16.1556 10.2278C16.7026 10.1239 16.8278 10.5333 16.8645 10.9733C16.889 11.1627 16.944 11.3553 16.9898 11.5875Z" fill="#F9E2E1"/>
</svg>
