<svg width="24" height="24" viewBox="0 0 24 24" fill="none" xmlns="http://www.w3.org/2000/svg">
<path d="M21.0719 15.6666C19.6297 15.6972 19.2783 16.5099 19.4831 17.8055C19.564 18.3581 19.5579 18.9201 19.4647 19.4708C19.2906 20.5188 18.7619 21.2247 17.5581 21.2216C13.9128 21.2063 10.2675 21.2216 6.62224 21.2216C5.35419 21.2216 4.80724 20.4944 4.7278 19.3272C4.67344 18.8194 4.67344 18.3072 4.7278 17.7994C4.90502 16.5405 4.65447 15.6605 3.14197 15.6911C3.75308 15.0799 4.54752 15.1961 5.28085 15.1961C9.92325 15.1961 14.5667 15.1961 19.2111 15.1961C19.8742 15.1991 20.5555 15.1349 21.0719 15.6666Z" fill="#D74444"/>
<path d="M21.0719 15.6666H3.1389C2.8639 13.8547 3.08085 12.0305 3.01974 10.2125C3.01974 9.9069 3.01974 9.45468 3.36196 9.47607C4.56279 9.56162 5.51612 8.7244 6.72306 8.73968C10.4233 8.79162 14.1267 8.77023 17.8269 8.79468C18.3867 8.76519 18.9424 8.90465 19.4219 9.19495C20.9191 9.02079 21.4141 9.67773 21.2308 11.1536C21.0475 12.6294 21.3561 14.1602 21.0719 15.6666Z" fill="#D32F2E"/>
<path d="M19.4158 9.19802C15.3244 9.21636 11.2361 9.24386 7.14473 9.25608C3.17252 9.25608 3.17252 9.25608 3.17252 13.2466C3.1603 14.0563 3.13891 14.863 3.13891 15.6666C2.5553 13.7508 3.01974 11.783 2.88224 9.86108C2.85474 9.49747 3.07169 9.23469 3.42613 9.29886C4.9539 9.57386 4.74002 8.55025 4.72168 7.63969C4.61168 2.75081 4.72168 2.7997 9.4914 2.93109C11.0192 2.97081 12.5958 2.58581 14.1022 3.1847C14.3161 3.92109 14.2214 4.67581 14.2489 5.42136C14.3283 7.42581 14.8019 7.89636 16.7667 7.93914C17.5153 7.95747 18.27 7.87497 19.0064 8.07664C19.5289 8.30275 19.4708 8.74886 19.4158 9.19802Z" fill="#D74444"/>
<path d="M19.0064 8.06135C17.7567 8.62052 16.4581 8.36691 15.19 8.21413C14.9112 8.17389 14.6527 8.04487 14.4529 7.84618C14.2531 7.6475 14.1226 7.38972 14.0809 7.11107C13.76 5.78497 13.6317 4.47413 14.1023 3.16025L19.0064 8.06135Z" fill="#D43330"/>
<path d="M6.1303 13.3016C6.55197 12.3422 6.88502 11.5691 7.22724 10.7991C7.37696 10.4661 7.55419 10.1605 8.0003 10.2186C8.51363 10.2858 8.43724 10.6983 8.4403 11.0314C8.4403 11.9908 8.45863 12.9533 8.4403 13.9127C8.4403 14.2855 8.57168 14.805 7.92696 14.7866C7.28224 14.7683 7.52363 14.2275 7.45946 13.87C7.43502 13.7294 7.40141 13.5919 7.3678 13.433C6.75669 13.7386 7.06224 14.7927 6.14558 14.8141C5.22891 14.8355 5.51002 13.7844 4.7828 13.3475C4.7828 13.7783 4.7828 14.0441 4.7828 14.31C4.7828 14.5758 4.66669 14.7897 4.36114 14.8019C3.97614 14.8019 3.82642 14.6002 3.82642 14.2427C3.82642 13.0816 3.82642 11.9195 3.82642 10.7564C3.82642 10.4905 3.88753 10.2614 4.22058 10.2216C4.39542 10.1898 4.57583 10.2253 4.7255 10.3211C4.87518 10.4169 4.98299 10.5659 5.02725 10.738C5.33586 11.5202 5.68725 12.3055 6.1303 13.3016Z" fill="#FBE9E8"/>
<path d="M17.5397 13.8761C18.3892 13.4728 18.1508 13.1153 18.0806 12.7119C17.9156 11.8289 18.6917 11.9053 19.037 12.1008C19.8314 12.5836 19.3028 13.4636 19.4128 14.1633C19.5014 14.7225 19.1072 14.7744 18.655 14.8233C16.73 15.025 16.6047 14.9272 16.6047 12.99C16.6047 12.6355 16.6047 12.2811 16.6047 11.9266C16.6047 10.1941 17.167 9.76943 18.875 10.1819C19.1439 10.2461 19.3608 10.3194 19.3975 10.6128C19.4342 10.9061 19.3333 11.175 19.0278 11.1597C16.6536 11.0283 17.8208 12.6783 17.5397 13.8761Z" fill="#FAE8E6"/>
<path d="M12.9534 12.5194V11.7647C12.9534 10.3469 14.0564 9.65942 15.3978 10.2369C15.5192 10.2701 15.6235 10.3482 15.6893 10.4555C15.7552 10.5628 15.7777 10.6911 15.7522 10.8144C15.7064 11.12 15.4467 11.1536 15.2053 11.2055C14.7683 11.2972 13.9831 10.9183 14.0106 11.6883C14.0106 12.3177 14.7286 11.9939 15.1258 12.0458C15.4528 12.0947 15.737 12.1436 15.7614 12.5255C15.7858 13.0327 15.4008 13.0236 15.0403 13.0602C14.6797 13.0969 13.9617 12.8402 14.0197 13.5552C14.0656 14.1114 14.6736 13.815 15.0311 13.8608C15.3886 13.9066 15.7828 13.9066 15.7553 14.3986C15.7278 14.8905 15.2908 14.8111 14.9547 14.8416C12.9503 15.0097 12.9503 15.0127 12.9534 12.5194Z" fill="#FAE6E5"/>
<path d="M10.35 10.1666C11.2667 10.2766 12.2628 9.88859 12.0642 11.1139C11.9481 11.8319 12.7853 13.1366 11.0711 13.0602C10.46 13.0327 10.295 13.3658 10.2981 13.9036C10.2981 14.2672 10.46 14.8202 9.81835 14.805C9.08197 14.805 9.31724 14.1939 9.30197 13.7814C9.27141 13.0236 9.35391 12.2536 9.27752 11.505C9.16447 10.405 9.57391 9.9772 10.35 10.1666Z" fill="#F8DEDC"/>
</svg>
