<svg width="24" height="24" viewBox="0 0 24 24" fill="none" xmlns="http://www.w3.org/2000/svg">
<path d="M18.7035 7.76156C19.2688 7.99988 19.339 8.47347 19.339 9.01427C19.3329 12.4607 19.3329 15.9103 19.3329 19.3568C19.3329 20.6309 18.7219 21.19 17.4783 21.19C13.8821 21.19 10.2859 21.1747 6.6928 21.19C5.41259 21.19 4.77096 20.5025 4.75874 19.3568C4.71596 14.5394 4.71596 9.7221 4.75874 4.90478C4.75874 3.59096 5.48897 2.86683 6.89751 2.88517C8.97517 2.90961 11.0498 2.91572 13.1274 2.88517C13.873 2.88517 14.3924 3.11738 14.7285 3.77428C14.6412 4.01064 14.5392 4.24127 14.4229 4.4648C13.653 6.77162 14.5176 7.97544 16.9131 7.96322C17.5135 7.93285 18.1114 7.86551 18.7035 7.76156Z" fill="#31A4DC"/>
<path d="M18.7035 7.76155C17.625 8.94399 16.2959 8.33291 15.0951 8.16181C14.1785 8.03654 13.7599 7.18714 13.8577 6.3133C13.9555 5.43946 13.1947 4.17453 14.7132 3.76511C16.1379 4.99935 17.4715 6.33498 18.7035 7.76155Z" fill="#3499D4"/>
<path d="M9.1707 13.4202C7.99132 15.3114 7.88133 15.3023 6.79361 13.2674C6.72028 13.2918 6.60418 13.2949 6.58279 13.3438C6.37808 13.7929 6.88833 14.6912 6.09087 14.679C5.29342 14.6668 5.69673 13.8021 5.65395 13.3193C5.60913 12.5624 5.60403 11.8036 5.63867 11.0461C5.63867 10.7406 5.59284 10.3984 5.96255 10.2792C6.33225 10.1601 6.63473 10.3831 6.79667 10.7375C7.15109 11.5167 7.49941 12.2988 7.86605 13.1207C8.5749 12.5891 8.5749 11.7519 8.95071 11.1164C9.16765 10.7497 9.22264 10.1448 9.83983 10.2823C10.3898 10.4045 10.2004 10.93 10.2126 11.3028C10.2401 12.1094 10.2401 12.9221 10.2126 13.7288C10.2126 14.0985 10.3837 14.6454 9.81539 14.7187C9.20431 14.7829 9.34486 14.2176 9.29292 13.8418C9.26295 13.6984 9.22209 13.5574 9.1707 13.4202Z" fill="#E8F6FD"/>
<path d="M12.9472 12.2621C13.2038 11.5502 12.2169 9.99199 14.2274 10.215C15.1623 10.3189 15.7337 10.7497 15.7092 11.7672C15.7092 12.3263 15.7092 12.8824 15.7092 13.4385C15.7092 14.6362 14.9484 14.7706 13.9799 14.8134C12.8616 14.8592 12.9227 14.1718 12.9472 13.4354C12.9563 13.081 12.9472 12.7235 12.9472 12.2621Z" fill="#E0F2FC"/>
<path d="M12.0734 12.5677C11.7678 13.2552 12.4858 14.6026 11.5906 14.6056C10.6954 14.6087 11.1445 13.2704 11.1781 12.5677C11.2117 11.865 10.567 10.4992 11.6853 10.4289C12.3636 10.4014 11.8167 11.8191 12.0734 12.5677Z" fill="#F4FBFE"/>
<path d="M17.57 12.6105C17.2186 13.2796 18.0497 14.5629 17.0139 14.5995C16.2378 14.627 16.632 13.3285 16.6534 12.6532C16.6778 11.868 16.1614 10.4259 17.0689 10.4259C18.0313 10.435 17.2217 11.865 17.57 12.6105Z" fill="#F4FBFE"/>
<path d="M13.8699 12.4699C13.9524 12.0177 13.711 11.2844 14.2793 11.315C15.0584 11.3578 14.7285 12.1674 14.7529 12.6563C14.7712 13.0535 14.9607 13.7746 14.3557 13.7471C13.5032 13.7074 14.0746 12.8702 13.8699 12.4699Z" fill="#2F9FD9"/>
</svg>
