<svg width="24" height="24" viewBox="0 0 24 24" fill="none" xmlns="http://www.w3.org/2000/svg">
<path d="M19.0094 8.06444C19.5533 8.35166 19.3394 8.86805 19.3424 9.28666C19.3608 12.5867 19.3272 15.8897 19.3608 19.1897C19.3608 20.6014 18.7497 21.2339 17.3563 21.2247C13.8547 21.2064 10.353 21.1942 6.85133 21.2247C5.43049 21.24 4.7766 20.5647 4.77049 19.2111C4.77049 14.4872 4.7491 9.76333 4.77049 5.03944C4.77049 3.49333 5.3816 2.86083 6.90938 2.90055C9.30494 2.98305 11.7249 2.54611 14.1022 3.15416C14.316 3.88749 14.2213 4.64527 14.2488 5.39388C14.3283 7.39833 14.8019 7.86888 16.7697 7.91166C17.5183 7.94833 18.2699 7.86888 19.0094 8.06444Z" fill="#D74444"/>
<path d="M19.0094 8.06443C17.7596 8.62971 16.461 8.36999 15.1899 8.22026C14.9128 8.1807 14.6556 8.05346 14.456 7.85718C14.2564 7.66089 14.1249 7.40586 14.0808 7.12943C13.7599 5.80026 13.6316 4.48943 14.1021 3.17249L19.0094 8.06443Z" fill="#D43330"/>
<path d="M10.3408 12.5255C10.3408 13.0328 10.3408 13.5369 10.3408 14.0533C10.3408 14.4017 10.3592 14.7989 9.84583 14.8233C9.3325 14.8478 9.32333 14.5178 9.28055 14.1297C9.23778 13.7417 9.525 13.1519 8.94444 13.1305C8.24166 13.103 8.51972 13.7783 8.45861 14.1755C8.40972 14.4811 8.41583 14.7867 7.99111 14.8111C7.48083 14.8294 7.45028 14.475 7.45028 14.1022C7.49263 13.3456 7.4814 12.587 7.41666 11.8319C7.23944 10.4722 7.74972 10.0383 9.085 10.1667C10.3317 10.3103 10.3408 10.2247 10.3408 12.5255Z" fill="#FBECEA"/>
<path d="M12.4247 11.5417C12.8128 11.2942 12.7975 10.9092 12.8983 10.5822C12.9288 10.4603 13.0054 10.3549 13.1119 10.2883C13.2185 10.2216 13.3467 10.1988 13.4697 10.2247C13.9097 10.2644 13.8883 10.5883 13.8333 10.8908C13.6225 12.0275 13.3933 13.1611 13.1764 14.2978C13.1624 14.4472 13.0908 14.5853 12.9767 14.6828C12.8626 14.7804 12.7151 14.8297 12.5653 14.8203C12.4901 14.8301 12.4137 14.8241 12.341 14.8025C12.2683 14.781 12.201 14.7444 12.1434 14.6951C12.0857 14.6458 12.0391 14.585 12.0065 14.5166C11.9739 14.4481 11.9561 14.3736 11.9542 14.2978C11.7647 13.2589 11.5325 12.2292 11.343 11.1872C11.288 10.8572 10.8847 10.3561 11.5783 10.2308C12.11 10.1361 12.2628 10.5119 12.2994 10.9703C12.3289 11.1632 12.3708 11.3541 12.4247 11.5417Z" fill="#FCF3F1"/>
</svg>
