<svg width="24" height="24" viewBox="0 0 24 24" fill="none" xmlns="http://www.w3.org/2000/svg">
<path d="M18.9911 8.11333C19.5442 8.31194 19.3333 8.79167 19.3364 9.15222C19.3517 12.5133 19.3364 15.8531 19.3547 19.205C19.3547 20.6228 18.7436 21.2308 17.3411 21.2217C13.8394 21.1972 10.3408 21.1881 6.83917 21.2217C5.41833 21.2217 4.7675 20.5525 4.76139 19.205C4.74611 14.4842 4.73695 9.76333 4.76139 5.0425C4.76139 3.49639 5.3725 2.92194 6.90028 2.90361C8.98111 2.87611 11.0589 2.90361 13.1397 2.90361C13.6561 2.90361 14.1725 2.87305 14.4047 3.48111C14.3681 3.8325 14.3039 4.18083 14.2733 4.53222C14.0197 7.38 14.4719 7.89333 17.3289 7.93917C17.9064 7.93917 18.4411 8.07972 18.9911 8.11333Z" fill="#6C52A2"/>
<path d="M18.9911 8.11334C17.7689 8.59612 16.5253 8.27223 15.2908 8.31195C14.9956 8.27649 14.7216 8.14055 14.5147 7.92695C13.5644 7.06529 13.5278 4.38557 14.4078 3.47195C16.0421 4.91016 17.5736 6.46108 18.9911 8.11334Z" fill="#61479C"/>
<path d="M15.6086 11.7831C15.6575 11.2575 15.685 10.9764 15.7094 10.6983C15.7074 10.6356 15.7188 10.5732 15.7427 10.5152C15.7667 10.4573 15.8026 10.405 15.8483 10.362C15.8939 10.3189 15.9482 10.2861 16.0075 10.2656C16.0668 10.2451 16.1297 10.2374 16.1922 10.2431C16.2553 10.2389 16.3186 10.2488 16.3775 10.272C16.4363 10.2953 16.4893 10.3313 16.5325 10.3775C16.5758 10.4237 16.6083 10.4788 16.6276 10.5391C16.647 10.5993 16.6527 10.6631 16.6444 10.7258C16.6444 11.8839 16.6444 13.045 16.6444 14.2061C16.6444 14.4628 16.5864 14.7103 16.2778 14.7775C16.135 14.8127 15.9846 14.7991 15.8505 14.7387C15.7165 14.6783 15.6065 14.5747 15.5383 14.4445C15.3305 14.1389 15.4558 13.6042 14.8661 13.4453C14.8386 13.7906 14.8233 14.1114 14.7836 14.4322C14.782 14.482 14.7705 14.531 14.7498 14.5762C14.729 14.6215 14.6993 14.6621 14.6626 14.6957C14.6259 14.7293 14.5828 14.7552 14.5358 14.7719C14.4889 14.7886 14.4391 14.7957 14.3894 14.7928C14.0839 14.7928 13.8914 14.6614 13.8853 14.3681C13.87 13.1458 13.8303 11.945 13.8853 10.7381C13.9219 10.0231 14.4689 10.0872 14.8386 10.4325C15.1472 10.7106 15.2817 11.1781 15.6086 11.7831Z" fill="#EDE8F4"/>
<path d="M13.0297 12.7364C12.7058 13.3964 13.8303 14.8417 11.8228 14.8753C10.4692 14.8967 9.98943 14.5086 10.1911 13.1855C10.2675 12.6853 10.2675 12.1764 10.1911 11.6761C10.0017 10.4539 10.5394 10.1483 11.7005 10.1758C12.7639 10.1911 13.1703 10.5181 13.0358 11.56C13.0105 11.9517 13.0085 12.3445 13.0297 12.7364Z" fill="#EAE5F2"/>
<path d="M6.5489 12.5439C6.5489 12.2383 6.5489 11.9328 6.5489 11.6272C6.55546 11.3419 6.63673 11.0633 6.7846 10.8192C6.93248 10.5751 7.14179 10.3741 7.39164 10.2362C7.64149 10.0983 7.92314 10.0283 8.20849 10.0333C8.49383 10.0382 8.77288 10.1179 9.01779 10.2644C9.1089 10.3066 9.18414 10.3768 9.23251 10.4647C9.28089 10.5527 9.29987 10.6538 9.28668 10.7533C9.25307 11.1842 8.91696 11.1536 8.62057 11.1842C8.23863 11.2239 7.63668 11.0528 7.61529 11.5875C7.58168 12.3331 8.27529 11.9725 8.65724 12.0397C8.97807 12.0978 9.28668 12.1253 9.29279 12.5225C9.29279 13.045 8.90168 13.0481 8.54724 13.0267C7.85974 12.9839 7.4839 13.2131 7.52668 13.9708C7.54196 14.2947 7.63363 14.7561 7.09585 14.7775C6.46335 14.805 6.56418 14.3008 6.55196 13.9158C6.53668 13.4606 6.5489 13.0022 6.5489 12.5439Z" fill="#EAE6F2"/>
<path d="M12.055 12.6111C11.8564 12.9992 12.3972 13.8333 11.5692 13.76C10.9031 13.7019 11.2269 12.9197 11.2208 12.4675C11.2147 12.0153 10.9153 11.2208 11.6975 11.3033C12.3453 11.3889 11.8961 12.168 12.055 12.6111Z" fill="#654C9F"/>
</svg>
