<svg width="24" height="24" viewBox="0 0 24 24" fill="none" xmlns="http://www.w3.org/2000/svg">
<path d="M18.7222 7.82C19.4495 8.04 19.3547 8.645 19.3547 9.195C19.3547 12.5561 19.3364 15.9172 19.3547 19.2783C19.3547 20.6197 18.7772 21.2369 17.4358 21.2308C13.8761 21.2308 10.3195 21.2064 6.75974 21.2308C5.40307 21.2308 4.75529 20.5311 4.74612 19.2844C4.71353 14.5056 4.71353 9.72667 4.74612 4.94778C4.74612 3.63389 5.4489 2.88528 6.85446 2.90056C8.93835 2.92195 11.0253 2.93111 13.1061 2.90056C13.8578 2.90056 14.3803 3.12973 14.7164 3.78667C14.6431 4.13806 14.4108 4.41611 14.3161 4.76139C13.7753 6.90028 14.5758 7.96056 16.7606 7.96973C17.4182 8.01148 18.0785 7.96108 18.7222 7.82Z" fill="#31A4DC"/>
<path d="M18.7222 7.82001C17.8697 8.5289 15.3856 8.58695 14.5484 7.91473C13.8609 7.36167 13.5095 5.11584 13.977 4.20223C14.0536 4.0707 14.1633 3.96148 14.2951 3.88538C14.427 3.80927 14.5764 3.76893 14.7286 3.76834C16.175 5.00029 17.5113 6.35598 18.7222 7.82001Z" fill="#3499D4"/>
<path d="M6.7353 13.1581C6.28613 13.6836 6.94308 14.7195 6.09974 14.6858C5.25641 14.6522 5.7178 13.7111 5.65363 13.1825C5.60202 12.4706 5.59691 11.7562 5.63835 11.0436C5.63835 10.7381 5.59252 10.3989 5.95919 10.2767C6.32585 10.1545 6.63447 10.3745 6.79641 10.7289C7.15391 11.5081 7.49919 12.2903 7.86585 13.1061C8.55947 12.6356 8.54113 11.8442 8.89558 11.2728C9.13697 10.8695 9.1553 10.1514 9.8428 10.2981C10.4539 10.4295 10.1972 11.0467 10.2186 11.4622C10.2553 12.22 10.2492 12.99 10.2186 13.7386C10.2186 14.1083 10.3928 14.6553 9.82141 14.7286C9.2103 14.7958 9.35085 14.2306 9.29891 13.8578C9.26813 13.7125 9.22729 13.5696 9.17669 13.43C7.98808 15.3245 7.88113 15.3153 6.7353 13.1581Z" fill="#E8F6FD"/>
<path d="M13.8883 12.7181C13.537 13.3292 14.692 14.7408 12.7975 14.8294C11.502 14.8906 10.8817 14.5697 11.1078 13.1794C11.1445 12.7259 11.1445 12.2702 11.1078 11.8167C11.1078 10.3317 12.0245 9.71139 13.4056 10.2553C13.8883 10.4386 13.8883 10.4386 13.8883 12.7181Z" fill="#E1F2FC"/>
<path d="M14.7897 12.3056C15.0006 11.5294 14.1053 9.95278 16.177 10.2094C16.9928 10.3133 17.497 10.6953 17.5275 11.5539C17.5458 12.0611 17.5061 12.5714 17.5458 13.0817C17.6436 14.3039 17.1364 14.8019 15.8775 14.8294C14.4872 14.86 14.8295 13.9433 14.7928 13.1917C14.7806 12.9381 14.7897 12.6844 14.7897 12.3056Z" fill="#E1F2FC"/>
<path d="M12.9717 12.4981C12.825 12.935 13.2558 13.6958 12.5653 13.7631C11.7678 13.8425 12.0795 13.0481 12.0764 12.6325C12.0764 12.1406 11.7708 11.3003 12.5439 11.282C13.2558 11.2636 12.8097 12.0795 12.9717 12.4981Z" fill="#2F9FDA"/>
<path d="M16.6231 12.5286C16.4794 12.9472 16.8981 13.7203 16.2014 13.7508C15.5047 13.7814 15.7583 13.0083 15.7492 12.5806C15.74 12.1528 15.4833 11.3583 16.1311 11.3217C16.8339 11.2911 16.5161 12.0764 16.6231 12.5286Z" fill="#30A1DB"/>
</svg>
