<svg width="24" height="24" viewBox="0 0 24 24" fill="none" xmlns="http://www.w3.org/2000/svg">
<path d="M21.1666 12C21.1666 13.8333 21.185 15.6483 21.2094 17.4725C21.2094 18.6947 20.7419 19.3577 19.4128 19.3516C14.53 19.3333 9.66249 19.3333 4.795 19.3333C3.63084 19.3333 2.92195 18.8138 2.90973 17.6436C2.8639 13.9066 2.87001 10.1666 2.87306 6.4022C2.91179 6.20924 2.9853 6.02495 3.09001 5.85831C4.05556 7.11108 3.44445 8.54414 3.59112 9.89163C3.67973 10.7136 3.62167 11.5539 4.795 11.5539C8.85888 11.5111 12.9197 11.5202 16.9805 11.5539C18.105 11.5539 18.8444 11.2483 19.0828 10.0872C19.5839 9.50663 19.8191 10.0016 19.8955 10.3683C20.0544 11.1414 20.5555 11.5936 21.1666 12Z" fill="#FCB45A"/>
<path d="M4.74607 12C3.52385 12.2444 3.04108 11.8014 3.11747 10.5028C3.21219 8.97498 3.11747 7.41359 3.08997 5.87054C3.36802 4.97221 4.05552 4.75526 4.87135 4.7461C6.09357 4.7461 7.31579 4.81332 8.51357 4.72165C9.71134 4.62999 10.7105 4.86526 11.4286 5.88887C11.8594 6.49998 12.4736 6.57026 13.1672 6.5611C15.1411 6.5285 17.1149 6.5285 19.0888 6.5611C20.6472 6.58248 21.1819 7.12637 21.2033 8.66637C21.2033 9.77859 21.1727 10.8908 21.1513 12.003C19.0735 12.5011 19.8985 10.6219 19.3791 9.84276C18.1019 8.88942 16.6536 8.71526 15.1013 8.76415C12.7333 8.83748 10.3622 8.76415 7.99107 8.78554C5.76357 8.80081 5.54663 8.97803 5.09135 11.1628C5.0438 11.4651 4.92549 11.752 4.74607 12Z" fill="#F68D20"/>
<path d="M4.74615 12C4.74615 11.4408 4.70949 10.8816 4.74615 10.3255C4.83477 9.14915 5.4306 8.41887 6.6681 8.41276C10.2706 8.39443 13.8731 8.38832 17.4756 8.41276C18.3922 8.41276 19.1439 8.83748 19.3761 9.84581C19.3262 10.2512 19.3088 10.6599 19.3242 11.068C19.4067 11.9053 19.0186 12.0855 18.2517 12.0794C13.7539 12.0153 9.25004 12 4.74615 12Z" fill="#FFF4E7"/>
</svg>
