<svg width="24" height="24" viewBox="0 0 24 24" fill="none" xmlns="http://www.w3.org/2000/svg">
<path d="M19.0064 8.05529C19.5503 8.34251 19.3394 8.8589 19.3394 9.27751C19.3578 12.5775 19.3394 15.8745 19.3608 19.1745C19.3761 20.5861 18.7497 21.2156 17.3533 21.2064C13.8547 21.1881 10.3561 21.1758 6.85442 21.2064C5.43664 21.2064 4.7797 20.5464 4.77664 19.1958C4.77664 14.475 4.7522 9.75418 4.77664 5.03334C4.77664 3.49029 5.38775 2.85779 6.91553 2.89446C9.31109 2.9739 11.728 2.53696 14.1053 3.14501C14.3191 3.8814 14.2244 4.63612 14.255 5.38473C14.3344 7.38612 14.805 7.85668 16.7728 7.90251C17.503 7.93918 18.27 7.85973 19.0064 8.05529Z" fill="#D74444"/>
<path d="M19.0064 8.05528C17.7597 8.62362 16.4611 8.36084 15.19 8.21112C14.9117 8.17138 14.6537 8.04283 14.4544 7.84463C14.2551 7.64642 14.1252 7.38915 14.0839 7.11112C13.763 5.785 13.6347 4.47417 14.1022 3.15723L19.0064 8.05528Z" fill="#D43330"/>
<path d="M9.19803 13.3964C8.03081 15.3611 7.99109 15.3611 6.57942 13.1031C6.57942 13.5767 6.57942 13.8425 6.57942 14.1083C6.57942 14.3742 6.61303 14.7531 6.17609 14.7836C5.65664 14.8233 5.63525 14.4475 5.63525 14.0747C5.63525 13.0073 5.63525 11.9399 5.63525 10.8725C5.63525 10.567 5.63525 10.2614 6.07831 10.2217C6.2317 10.1958 6.38928 10.2253 6.52301 10.3047C6.65674 10.3842 6.75793 10.5085 6.80859 10.6556C7.15692 11.4439 7.50831 12.2292 7.89636 13.1C8.57164 12.4553 8.6572 11.5722 9.04831 10.842C9.25303 10.4692 9.43331 10.0872 9.96498 10.2461C10.4355 10.3928 10.298 10.8206 10.3041 11.1628C10.3286 12.0245 10.3347 12.8892 10.3041 13.7539C10.2889 14.1542 10.5303 14.7836 9.7847 14.7745C9.13386 14.7745 9.40581 14.1939 9.33248 13.8395C9.27748 13.6958 9.25303 13.5583 9.19803 13.3964Z" fill="#FBECEB"/>
<path d="M11.1139 12.6111V11.8381C11.1139 10.3256 12.1039 9.62889 13.488 10.2431C14.368 10.6311 13.7936 11.4897 13.9219 12.1283C14.0136 12.6111 13.8944 13.0694 13.2405 13.0236C12.4583 12.9686 11.9541 13.1642 12.0703 14.0961C12.1161 14.4628 12.0703 14.8447 11.5416 14.7928C11.1383 14.7531 11.12 14.4231 11.1169 14.1144C11.1108 13.6072 11.1169 13.1031 11.1139 12.6111Z" fill="#F9E6E5"/>
<path d="M17.5641 12.5683C17.5905 12.8733 17.5905 13.18 17.5641 13.485C17.4816 13.9311 17.8911 14.6675 17.17 14.7531C16.3236 14.8539 16.6902 14.0625 16.62 13.6378C16.565 13.2895 16.4489 13.0267 16.0761 13.0603C14.1236 13.2222 14.9761 11.7464 14.8141 10.8817C14.7561 10.5761 14.8508 10.2553 15.2602 10.2339C15.6697 10.2125 15.7614 10.4875 15.7797 10.8206C15.7797 11.0742 15.7797 11.3278 15.8072 11.5814C15.8051 11.6418 15.8164 11.7019 15.8402 11.7574C15.8641 11.8129 15.9 11.8624 15.9452 11.9024C15.9905 11.9425 16.0441 11.972 16.1021 11.9888C16.1601 12.0057 16.2211 12.0095 16.2808 12C16.5558 11.9786 16.5405 11.7586 16.5864 11.5661C16.73 11.1047 16.2441 10.1881 17.1089 10.2767C17.9186 10.3622 17.4144 11.2697 17.5397 11.8045C17.5743 12.0575 17.5825 12.3136 17.5641 12.5683Z" fill="#FAEAE9"/>
</svg>
