<svg width="24" height="24" viewBox="0 0 24 24" fill="none" xmlns="http://www.w3.org/2000/svg">
<path d="M18.9911 8.11333C19.5442 8.31194 19.3334 8.79167 19.3364 9.15222C19.3517 12.5133 19.3364 15.8531 19.3548 19.205C19.3548 20.6228 18.7436 21.2308 17.3411 21.2217C13.8395 21.1972 10.3409 21.1881 6.8392 21.2217C5.41837 21.2217 4.76754 20.5525 4.76143 19.205C4.74615 14.4842 4.73698 9.76333 4.76143 5.0425C4.76143 3.49639 5.37254 2.92194 6.90032 2.90361C8.98115 2.87611 11.0589 2.90361 13.1398 2.90361C13.6561 2.90361 14.1725 2.87305 14.4048 3.48111C14.3681 3.8325 14.3039 4.18083 14.2734 4.53222C14.0198 7.38 14.472 7.89333 17.3289 7.93917C17.9064 7.93917 18.4411 8.07972 18.9911 8.11333Z" fill="#6C52A2"/>
<path d="M18.9912 8.11334C17.769 8.59612 16.5254 8.27223 15.2909 8.31195C14.9957 8.27649 14.7217 8.14055 14.5148 7.92695C13.5645 7.06529 13.5279 4.38557 14.4079 3.47195C16.0422 4.91016 17.5737 6.46108 18.9912 8.11334Z" fill="#61479C"/>
<path d="M13.0297 12.3728C13.0062 12.7156 13.0062 13.0597 13.0297 13.4025C13.1947 14.5086 12.7884 14.8906 11.6303 14.8692C10.5517 14.8509 10.0047 14.64 10.1881 13.4514C10.2675 12.9514 10.2675 12.442 10.1881 11.942C9.91613 10.3867 10.6495 10.0628 12.0214 10.1911C13.9006 10.3622 12.6111 11.777 13.0297 12.3728Z" fill="#EAE5F2"/>
<path d="M6.54583 12.4858C6.54583 12.1803 6.54583 11.8747 6.54583 11.5692C6.54583 10.8633 6.37777 10.1147 7.54499 10.185C8.51971 10.243 9.25916 10.4478 9.31416 11.5814C9.34166 12.0886 9.29888 12.5958 9.33249 13.1092C9.41805 14.3314 8.8711 14.808 7.63971 14.8569C6.24333 14.9119 6.57944 14.0014 6.54888 13.2467C6.53971 12.993 6.54583 12.7394 6.54583 12.4858Z" fill="#EAE5F2"/>
<path d="M13.8608 12.5439V11.9328C13.8608 10.1972 14.3008 9.85805 16.0364 10.2125C16.3633 10.2767 16.6292 10.3469 16.6231 10.7411C16.6277 10.8054 16.6172 10.8698 16.5922 10.9292C16.5673 10.9886 16.5287 11.0413 16.4796 11.083C16.4305 11.1247 16.3722 11.1542 16.3095 11.1691C16.2468 11.184 16.1815 11.184 16.1189 11.1689C14.8264 10.9917 14.8172 11.78 14.7836 12.7394C14.747 13.76 15.187 13.9617 16.0486 13.8853C16.397 13.8486 16.6597 14.0228 16.617 14.4108C16.5742 14.7989 16.232 14.7836 15.9356 14.8264C14.0075 15.1014 13.8608 14.9425 13.8608 12.5439Z" fill="#ECE7F3"/>
<path d="M12.0489 12.4858C11.887 12.9106 12.3545 13.6928 11.6975 13.7692C10.8909 13.8608 11.2178 13.0328 11.227 12.6203C11.227 12.1497 10.8389 11.3033 11.7128 11.3125C12.2659 11.3186 11.9328 12.0642 12.0489 12.4858Z" fill="#654C9F"/>
<path d="M8.38531 12.5928C8.23253 13.0022 8.66336 13.815 7.89336 13.7539C7.25475 13.6928 7.58781 12.9044 7.56336 12.4461C7.54197 12.0428 7.32197 11.3003 7.93614 11.3278C8.65419 11.3583 8.25086 12.1405 8.38531 12.5928Z" fill="#6A51A1"/>
</svg>
