<svg width="24" height="24" viewBox="0 0 24 24" fill="none" xmlns="http://www.w3.org/2000/svg">
<path d="M19.0064 8.06139C19.5441 8.35167 19.3333 8.86805 19.3364 9.28361C19.3547 12.5867 19.3364 15.8867 19.3547 19.1867C19.3547 20.5983 18.7436 21.2278 17.3533 21.2186C13.8517 21.1942 10.35 21.2186 6.84832 21.2033C5.32054 21.2033 4.77054 20.6381 4.76443 19.0644C4.73998 14.4444 4.73998 9.82343 4.76443 5.20139C4.76443 3.47194 5.35109 2.91889 7.05609 2.90361C9.03609 2.88222 11.0283 2.90361 12.993 2.90361C13.54 2.90361 14.1419 2.7875 14.4108 3.47805C14.3925 3.62778 14.3803 3.78361 14.3619 3.92722C13.9341 7.45639 14.2794 7.86278 17.8055 7.93C18.2089 7.93849 18.6107 7.98246 19.0064 8.06139Z" fill="#6C52A2"/>
<path d="M19.0063 8.0614C17.7597 8.67251 16.4458 8.24168 15.1655 8.29973C14.919 8.25638 14.6941 8.13158 14.5269 7.94529C13.5705 7.08362 13.5094 4.39779 14.4077 3.47195L19.0063 8.0614Z" fill="#61479C"/>
<path d="M13.8577 12.5531C13.8577 12.3025 13.8577 12.0489 13.8577 11.7983C13.8577 10.3683 14.9974 9.63805 16.2838 10.2553C16.3656 10.3019 16.437 10.3647 16.4938 10.4398C16.5505 10.5149 16.5913 10.6008 16.6138 10.6922C16.6658 10.9978 16.4641 11.1475 16.1769 11.1719C15.8896 11.1964 15.6727 11.1719 15.4221 11.1994C15.1716 11.2269 14.8966 11.3125 14.863 11.5967C14.808 12.0458 15.1685 11.9969 15.4741 12.055C15.9049 12.1406 16.6505 11.78 16.6046 12.6081C16.568 13.2833 15.8988 12.9961 15.5046 13.0328C14.8691 13.0908 14.8171 13.4789 14.811 13.9739C14.811 14.2794 14.9333 14.7592 14.3924 14.7806C13.763 14.805 13.8821 14.2947 13.8669 13.9158C13.8333 13.4636 13.8577 13.0083 13.8577 12.5531Z" fill="#EBE7F3"/>
<path d="M7.95138 10.2095C8.34249 10.2797 8.90776 9.99862 9.19499 10.4172C9.60443 11.0283 8.79776 11.065 8.6236 11.3981C8.2111 12.1925 8.52276 13.0847 8.43415 13.9311C8.40054 14.2611 8.54415 14.7195 8.02776 14.7714C7.39832 14.8325 7.51749 14.3222 7.45026 13.9403C7.26999 12.8983 8.02165 11.6456 6.62221 10.8511C6.25554 10.6433 6.73221 10.2156 7.95138 10.2095Z" fill="#EAE5F2"/>
<path d="M12.996 10.7778C11.3888 11.6211 12.3482 13.2467 11.9999 14.5453C11.9419 14.7622 11.7249 14.8142 11.511 14.7775C11.2055 14.7225 11.123 14.4933 11.1199 14.2275C11.1199 13.5736 11.1199 12.9167 11.1046 12.2628C11.1046 11.89 11.2696 11.4072 10.7441 11.227C10.356 11.0956 10.0077 10.8206 10.301 10.4906C10.8327 9.87945 11.621 10.3103 12.2932 10.2247C12.5896 10.1881 12.9166 10.2186 12.996 10.7778Z" fill="#EBE7F3"/>
</svg>
