<svg width="24" height="24" viewBox="0 0 24 24" fill="none" xmlns="http://www.w3.org/2000/svg">
<path d="M21.0689 15.6667C19.8467 15.8408 19.2997 16.4764 19.5411 17.7536C19.6282 18.254 19.6282 18.7657 19.5411 19.2661C19.3669 20.3447 18.9086 21.1942 17.6222 21.1942C13.9291 21.1942 10.2349 21.1942 6.53975 21.1942C5.4153 21.1942 4.89586 20.5097 4.72781 19.5228C4.63874 18.9716 4.63359 18.4102 4.71253 17.8575C4.88058 16.5986 4.62086 15.7186 3.13586 15.6819C3.55753 15.2236 4.1167 15.2083 4.66364 15.2022C9.55252 15.1564 14.4597 15.2206 19.3547 15.2022C19.9689 15.1808 20.5983 15.1656 21.0689 15.6667Z" fill="#31A3DC"/>
<path d="M21.0689 15.6666H3.13893C2.59199 13.7386 2.89754 11.7678 2.94949 9.82749C2.97393 8.77027 4.09226 9.46082 4.67282 9.21638C5.21365 8.74582 5.89504 8.75193 6.5367 8.74888C10.3684 8.72138 14.2 8.74888 18.0317 8.77638C18.5908 8.77638 19.147 8.77638 19.5839 9.21638C20.8978 9.00249 21.3622 9.52193 21.2217 10.8603C21.0536 12.4675 21.3531 14.0747 21.0689 15.6666Z" fill="#2F99D5"/>
<path d="M19.5839 9.25H4.66675C4.66675 7.88417 4.66675 6.52139 4.70036 5.15556C4.73397 3.58806 5.36647 2.92501 6.8973 2.90362C8.96896 2.87612 11.0437 2.92195 13.1153 2.88223C13.8609 2.88223 14.3773 3.11445 14.7103 3.7714C14.6471 3.96049 14.5716 4.14524 14.4842 4.32445C13.6165 6.68334 14.5851 8.02778 17.0723 7.94833C17.6284 7.93 18.157 7.74667 18.7101 7.75584C18.9954 7.87998 19.2338 8.09166 19.3909 8.36025C19.548 8.62885 19.6156 8.94045 19.5839 9.25Z" fill="#31A4DC"/>
<path d="M18.7222 7.75583C17.8055 8.46166 15.5261 8.58694 14.6644 7.97583C13.9739 7.48694 13.5308 5.30833 13.9158 4.32444C13.976 4.15929 14.0846 4.01612 14.2274 3.91364C14.3702 3.81115 14.5406 3.75413 14.7164 3.75C16.1475 4.9859 17.4863 6.32474 18.7222 7.75583Z" fill="#2F99D5"/>
<path d="M7.16609 11.9328C6.47553 12.657 6.34415 13.4239 6.02942 14.0961C5.84915 14.4903 5.65665 14.8508 5.14637 14.7347C4.56887 14.6064 4.73998 14.1236 4.73082 13.7386C4.70637 12.9238 4.70637 12.109 4.73082 11.2942C4.73082 10.9183 4.56276 10.3378 5.10665 10.2797C5.84915 10.2033 5.57109 10.8908 5.64442 11.2728C5.67192 11.4225 5.68109 11.5783 5.70248 11.7983C6.47553 11.5233 6.1272 10.3286 6.9247 10.2522C7.91164 10.1606 7.66109 11.3217 8.24775 11.7281C8.29053 11.5722 8.33331 11.4439 8.36081 11.3125C8.44025 10.9092 8.16831 10.2186 8.87109 10.2736C9.51275 10.3256 9.24997 10.9947 9.26831 11.4042C9.30803 12.2139 9.29275 13.0267 9.26831 13.8486C9.26831 14.1756 9.39358 14.6125 8.90775 14.7256C8.42192 14.8386 8.21109 14.4475 8.04914 14.0625C7.79248 13.4117 7.51748 12.7639 7.16609 11.9328Z" fill="#E5F4FD"/>
<path d="M12.4736 13.1825C13.1428 12.443 13.2559 11.5539 13.6592 10.8175C13.8303 10.5119 13.9648 10.1453 14.4353 10.2736C14.8264 10.3805 14.7684 10.7319 14.7745 11.0222C14.8158 11.7804 14.8158 12.5404 14.7745 13.2986C14.7286 13.7844 15.1595 14.5942 14.365 14.695C13.5706 14.7958 14.1603 13.7783 13.702 13.4728C12.6417 15.2664 12.5592 15.2664 11.3217 13.3872C11.0161 13.6744 11.1995 14.0472 11.1231 14.3528C11.0681 14.5605 10.9795 14.7255 10.735 14.7347C10.6723 14.7447 10.6081 14.7402 10.5473 14.7217C10.4865 14.7032 10.4307 14.671 10.3842 14.6278C10.3377 14.5845 10.3016 14.5312 10.2788 14.4719C10.2559 14.4126 10.2468 14.3489 10.2523 14.2855C10.2523 13.1214 10.2523 11.9572 10.2523 10.793C10.2456 10.6648 10.2895 10.5391 10.3747 10.4431C10.4599 10.3471 10.5795 10.2884 10.7075 10.2797C11.0742 10.2339 11.2575 10.4783 11.3889 10.7655C11.7342 11.5294 12.0795 12.3055 12.4736 13.1825Z" fill="#E6F5FD"/>
<path d="M18.4625 12.3911C18.4861 12.683 18.4861 12.9762 18.4625 13.2681C18.3647 13.7631 18.7956 14.5789 18.0622 14.6797C17.2708 14.7928 17.6436 13.9647 17.5367 13.54C17.4725 13.2864 17.4236 13.0083 17.1028 13.0481C16.7361 13.0939 16.6872 13.4056 16.6322 13.7233C16.5681 14.1114 16.8339 14.8111 16.0944 14.6981C15.4833 14.6033 15.7461 13.9586 15.7156 13.5461C15.6789 12.9931 15.7828 12.4247 15.6942 11.8839C15.4436 10.3867 16.1708 10.0781 17.4756 10.1942C19.3333 10.3592 18.0347 11.7861 18.4625 12.3911Z" fill="#E2F3FC"/>
</svg>
