<svg width="24" height="24" viewBox="0 0 24 24" fill="none" xmlns="http://www.w3.org/2000/svg">
<path d="M18.9911 8.11333C19.5442 8.31194 19.3334 8.79167 19.3364 9.15222C19.3517 12.5133 19.3364 15.8531 19.3548 19.205C19.3548 20.6228 18.7436 21.2308 17.3411 21.2217C13.8395 21.1972 10.3409 21.1881 6.8392 21.2217C5.41837 21.2217 4.76754 20.5525 4.76143 19.205C4.74615 14.4842 4.73698 9.76333 4.76143 5.0425C4.76143 3.49639 5.37254 2.92194 6.90032 2.90361C8.98115 2.87611 11.0589 2.90361 13.1398 2.90361C13.6561 2.90361 14.1725 2.87305 14.4048 3.48111C14.3681 3.8325 14.3039 4.18083 14.2734 4.53222C14.0198 7.38 14.472 7.89333 17.3289 7.93917C17.9064 7.93917 18.4411 8.07972 18.9911 8.11333Z" fill="#6C52A2"/>
<path d="M18.9912 8.11334C17.769 8.59612 16.5254 8.27223 15.2909 8.31195C14.9957 8.27649 14.7217 8.14055 14.5148 7.92695C13.5645 7.06529 13.5279 4.38557 14.4079 3.47195C16.0422 4.91016 17.5737 6.46108 18.9912 8.11334Z" fill="#61479C"/>
<path d="M12.1254 13.7936C11.5295 14.1389 11.389 15.2114 10.237 14.6155C11.5662 13.268 11.5754 11.8442 10.1667 10.4722C11.1873 10.2858 11.1873 10.2858 12.1223 11.3339C12.217 11.2239 12.3209 11.12 12.4034 11.0039C12.6876 10.5914 12.9931 9.94665 13.534 10.2705C14.2215 10.683 13.4912 11.1597 13.2651 11.4744C12.7151 12.2475 12.7365 12.8892 13.2651 13.653C13.4637 13.9342 14.142 14.3375 13.5706 14.7469C13.1581 15.0342 12.7273 14.6858 12.489 14.2244C12.384 14.0679 12.2621 13.9234 12.1254 13.7936Z" fill="#EDE9F4"/>
<path d="M7.89949 10.1911C8.37005 10.292 8.93227 9.98946 9.21033 10.4478C9.59533 11.0833 8.75505 11.0772 8.59921 11.4225C8.24783 12.1833 8.52588 13.0206 8.44033 13.8181C8.4006 14.1847 8.60227 14.7347 7.99421 14.7714C7.38616 14.8081 7.51755 14.2825 7.45949 13.9006C7.30366 12.8525 7.79255 11.7861 6.68644 10.7595C6.15783 10.2767 7.48088 10.4081 7.89949 10.1911Z" fill="#EAE5F2"/>
<path d="M16.2961 10.2094C17.0905 10.2644 18.6244 9.90389 16.8094 11.5539C16.3908 11.9267 16.7086 13.1061 16.6658 13.9158C16.6475 14.2917 16.7758 14.8325 16.1311 14.7775C15.63 14.7408 15.7522 14.2917 15.688 13.9586C15.4833 12.9167 16.2778 11.6639 14.8691 10.8664C14.4872 10.6525 14.9608 10.2156 16.2961 10.2094Z" fill="#EAE5F2"/>
</svg>
