<svg width="24" height="24" viewBox="0 0 24 24" fill="none" xmlns="http://www.w3.org/2000/svg">
<path d="M18.9911 8.11333C19.5442 8.31194 19.3334 8.79167 19.3364 9.15222C19.3517 12.5133 19.3364 15.8531 19.3548 19.205C19.3548 20.6228 18.7436 21.2308 17.3411 21.2217C13.8395 21.1972 10.3409 21.1881 6.8392 21.2217C5.41837 21.2217 4.76754 20.5525 4.76143 19.205C4.74615 14.4842 4.73698 9.76333 4.76143 5.0425C4.76143 3.49639 5.37254 2.92194 6.90032 2.90361C8.98115 2.87611 11.0589 2.90361 13.1398 2.90361C13.6561 2.90361 14.1725 2.87305 14.4048 3.48111C14.3681 3.8325 14.3039 4.18083 14.2734 4.53222C14.0198 7.38 14.472 7.89333 17.3289 7.93917C17.9064 7.93917 18.4411 8.07972 18.9911 8.11333Z" fill="#6C52A2"/>
<path d="M18.9912 8.11334C17.769 8.59612 16.5254 8.27223 15.2909 8.31195C14.9957 8.27649 14.7217 8.14055 14.5148 7.92695C13.5645 7.06529 13.5279 4.38557 14.4079 3.47195C16.0422 4.91016 17.5737 6.46108 18.9912 8.11334Z" fill="#61479C"/>
<path d="M11.7312 14.8233C11.4073 14.8233 11.2056 14.8233 11.004 14.8233C10.6709 14.7989 10.2248 14.8814 10.2401 14.3497C10.2554 13.818 10.6801 13.9219 11.0223 13.87C11.3645 13.818 11.9634 14.1083 11.9756 13.4819C11.9879 12.8555 11.389 13.0633 11.0406 13.0389C9.60759 12.9381 10.3776 11.8411 10.2248 11.2056C10.072 10.57 10.3745 10.1514 11.1415 10.2247C11.4898 10.2583 11.8473 10.2247 12.1987 10.2247C12.5501 10.2247 12.9656 10.1911 12.984 10.6983C13.0023 11.2055 12.5806 11.1719 12.2323 11.1933C11.884 11.2147 11.282 11.0833 11.2606 11.6303C11.2331 12.2414 11.832 12.0336 12.1773 12.055C13.6195 12.1375 12.8954 13.2314 13.0054 13.8883C13.204 15.0769 12.2506 14.75 11.7312 14.8233Z" fill="#EDE9F4"/>
<path d="M15.2053 11.5203C15.572 11.2667 15.5414 10.8786 15.6606 10.5578C15.6802 10.4973 15.7117 10.4414 15.7532 10.3932C15.7947 10.345 15.8453 10.3056 15.9022 10.2771C15.9591 10.2487 16.021 10.2319 16.0844 10.2276C16.1479 10.2233 16.2115 10.2317 16.2717 10.2522C16.6108 10.3072 16.6383 10.5761 16.5925 10.8236C16.3756 12.0122 16.1403 13.2008 15.902 14.3864C15.8772 14.5098 15.809 14.6202 15.7098 14.6976C15.6105 14.775 15.4868 14.8142 15.3611 14.808C15.287 14.821 15.211 14.8184 15.138 14.8004C15.0649 14.7824 14.9965 14.7493 14.9369 14.7033C14.8774 14.6572 14.8281 14.5993 14.7923 14.5332C14.7564 14.467 14.7347 14.3941 14.7286 14.3192C14.4811 13.1336 14.2306 11.948 13.9861 10.7778C13.9433 10.5639 13.9556 10.3653 14.1847 10.2828C14.4139 10.2003 14.7347 10.1942 14.86 10.4447C15.0016 10.7942 15.1171 11.1537 15.2053 11.5203Z" fill="#E9E4F2"/>
<path d="M7.85369 10.2155C8.17452 10.2155 8.37924 10.2155 8.58091 10.2155C8.88647 10.2155 9.22563 10.2155 9.28063 10.6219C9.35702 11.1414 8.97508 11.2147 8.60535 11.1811C7.36174 11.0589 7.5573 11.9144 7.52674 12.6753C7.49619 13.4361 7.57869 14.0014 8.55952 13.8792C8.92313 13.8364 9.32647 13.8792 9.28063 14.4047C9.2348 14.9303 8.78563 14.7989 8.45563 14.8264C6.6223 14.9883 6.55202 14.9211 6.54897 13.1397C6.58134 12.631 6.58134 12.1207 6.54897 11.6119C6.39313 10.4722 6.80563 9.96499 7.85369 10.2155Z" fill="#EBE6F3"/>
</svg>
