<svg width="24" height="24" viewBox="0 0 24 24" fill="none" xmlns="http://www.w3.org/2000/svg">
<path d="M19.0064 8.04609C19.5044 8.35165 19.3364 8.85887 19.3394 9.28971C19.3394 12.5897 19.3181 15.8897 19.3394 19.1897C19.3578 20.6014 18.7589 21.2308 17.3442 21.2186C13.8456 21.1911 10.3439 21.2186 6.84528 21.2186C5.33583 21.2186 4.73694 20.635 4.72778 19.0797C4.7013 14.4638 4.7013 9.8448 4.72778 5.22276C4.72778 3.46582 5.36639 2.90665 7.17222 2.89748C9.10028 2.89748 11.0283 2.91887 12.9564 2.87915C13.7356 2.87915 14.3528 3.02276 14.7133 3.76832C14.5881 4.25109 14.3008 4.68498 14.2428 5.18609C14.0228 7.11721 14.6736 7.87804 16.6139 7.95443C17.4175 7.97887 18.2211 7.77109 19.0064 8.04609Z" fill="#31A4DC"/>
<path d="M19.0064 8.0461C17.8025 8.58693 16.5406 8.39137 15.3153 8.25387C15.1111 8.23847 14.9119 8.18272 14.7294 8.08985C14.5468 7.99699 14.3845 7.86885 14.2518 7.71285C14.1191 7.55685 14.0187 7.37608 13.9563 7.18101C13.8939 6.98594 13.8708 6.78043 13.8883 6.57637C13.9739 5.61693 13.0939 4.28471 14.7195 3.76221C16.2423 5.09306 17.6745 6.52421 19.0064 8.0461Z" fill="#3599D4"/>
<path d="M9.17055 13.4239C7.99417 15.3183 7.88111 15.3091 6.79028 13.2711C6.71694 13.2955 6.60083 13.3016 6.57944 13.3505C6.37472 13.7997 6.885 14.698 6.08444 14.6858C5.28389 14.6736 5.69333 13.8058 5.6475 13.323C5.60928 12.5647 5.60928 11.805 5.6475 11.0466C5.6475 10.7411 5.60167 10.3989 5.97444 10.2828C6.34722 10.1666 6.64667 10.3866 6.80861 10.7441C7.16305 11.5203 7.50833 12.3025 7.88111 13.1336C8.60528 12.5225 8.62667 11.6578 9.02083 10.9764C9.21639 10.6433 9.32639 10.1514 9.85805 10.2766C10.3347 10.3897 10.2217 10.8236 10.2278 11.1566C10.2461 12.0153 10.2522 12.8769 10.2278 13.7386C10.2278 14.1083 10.3958 14.6553 9.82444 14.7225C9.21333 14.7836 9.35694 14.2183 9.305 13.8425C9.27059 13.6998 9.22565 13.5599 9.17055 13.4239Z" fill="#E8F6FD"/>
<path d="M11.1628 12.4644C11.1628 11.8533 10.9917 11.1811 11.2025 10.6555C11.5539 9.78165 12.4247 10.3255 13.0878 10.2308C13.8119 10.1269 13.9617 10.6586 13.8639 11.2055C13.7508 11.8167 14.3558 12.77 13.2528 12.938C12.5194 13.0511 11.9481 13.1061 12.0306 14.0442C12.0519 14.3314 12.0581 14.7072 11.6303 14.7286C11.1047 14.7561 11.1292 14.3375 11.1231 13.9892C11.1231 13.4819 11.1231 12.9717 11.1231 12.4614L11.1628 12.4644Z" fill="#E4F4FD"/>
<path d="M17.5275 12.5683C17.5275 14.8997 17.4053 15.0372 15.5536 14.7958C15.248 14.7592 14.8905 14.8142 14.8478 14.4078C14.7897 13.8822 15.2144 13.9189 15.5628 13.87C15.9111 13.8211 16.5069 14.0503 16.5253 13.4514C16.5436 12.8525 15.9661 13.0389 15.6086 12.9839C15.3275 12.9411 14.9333 13.0389 14.8905 12.6233C14.8386 12.1283 15.2389 12.1039 15.5994 12.0489C15.96 11.9939 16.5405 12.22 16.5436 11.6058C16.5467 10.9916 15.9753 11.1903 15.6086 11.1475C15.2419 11.1047 14.8142 11.1475 14.8539 10.6433C14.8936 10.1391 15.3305 10.243 15.6667 10.2125C17.5183 10.0444 17.5275 10.0567 17.5275 12.5683Z" fill="#E4F3FC"/>
</svg>
