<svg width="24" height="24" viewBox="0 0 24 24" fill="none" xmlns="http://www.w3.org/2000/svg">
<path d="M19.0064 8.04609C19.5044 8.35165 19.3364 8.85887 19.3394 9.28971C19.3394 12.5897 19.318 15.8897 19.3394 19.1897C19.3577 20.6014 18.7589 21.2308 17.3441 21.2186C13.8455 21.1911 10.3439 21.2186 6.84525 21.2186C5.3358 21.2186 4.73691 20.635 4.72775 19.0797C4.70127 14.4638 4.70127 9.8448 4.72775 5.22276C4.72775 3.46582 5.36636 2.90665 7.17219 2.89748C9.10025 2.89748 11.0283 2.91887 12.9564 2.87915C13.7355 2.87915 14.3527 3.02276 14.7102 3.76832C14.588 4.25109 14.3008 4.68498 14.2427 5.18609C14.0227 7.11721 14.6736 7.87804 16.6139 7.95443C17.4175 7.97887 18.2211 7.77109 19.0064 8.04609Z" fill="#31A4DC"/>
<path d="M19.0063 8.0461C17.8025 8.58693 16.5405 8.39137 15.3152 8.25387C15.111 8.23847 14.9119 8.18272 14.7293 8.08985C14.5468 7.99699 14.3845 7.86885 14.2518 7.71285C14.1191 7.55685 14.0186 7.37608 13.9562 7.18101C13.8938 6.98594 13.8707 6.78043 13.8883 6.57637C13.9738 5.61693 13.0938 4.28471 14.7194 3.76221C16.2415 5.09384 17.6736 6.52495 19.0063 8.0461Z" fill="#3499D4"/>
<path d="M11.1353 12.5836C11.1567 12.9357 11.1567 13.2887 11.1353 13.6408C11.0833 14.038 11.3797 14.6889 10.683 14.7164C10.0872 14.7408 10.2705 14.1572 10.2155 13.7997C10.1758 13.5186 10.2736 13.1244 9.85497 13.0878C9.35997 13.048 9.35386 13.4575 9.30192 13.815C9.24997 14.1725 9.46386 14.7683 8.84359 14.7316C8.15609 14.6889 8.41581 14.0503 8.39136 13.6469C8.35164 12.9441 8.44331 12.2291 8.36692 11.5294C8.24164 10.4111 8.76109 10.1972 9.76331 10.1972C10.7655 10.1972 11.3064 10.4264 11.1505 11.5386C11.12 11.8861 11.1149 12.2354 11.1353 12.5836Z" fill="#E6F5FD"/>
<path d="M14.7805 12.5378C14.7576 12.8908 14.7576 13.245 14.7805 13.598C14.9333 14.6919 14.3313 14.8386 13.436 14.8203C12.6172 14.7958 11.9083 14.8417 12.0183 13.6653C12.1008 12.7486 12.0183 11.8319 12.0397 10.9336C12.0397 10.628 12.0947 10.2858 12.4919 10.2797C12.8891 10.2736 12.9472 10.6067 12.9533 10.9214C12.9533 11.5783 12.9533 12.2383 12.9716 12.8953C12.9716 13.2619 12.8341 13.8119 13.4605 13.7936C13.9647 13.7722 13.8333 13.2772 13.8455 12.9533C13.8699 12.2964 13.8455 11.6394 13.8455 10.9825C13.8455 10.6769 13.8455 10.3194 14.2519 10.2858C14.7927 10.24 14.7377 10.6861 14.753 11.0253C14.7958 11.5233 14.7805 12.0305 14.7805 12.5378Z" fill="#E6F5FD"/>
</svg>
