<svg width="24" height="24" viewBox="0 0 24 24" fill="none" xmlns="http://www.w3.org/2000/svg">
<path d="M18.9911 8.11639C19.5289 8.33333 19.3333 8.79472 19.3333 9.16139C19.3486 12.5225 19.3333 15.8592 19.3517 19.2111C19.3517 20.6319 18.7192 21.2339 17.3289 21.2247C13.8303 21.2033 10.3317 21.1942 6.83305 21.2247C5.41833 21.2247 4.75833 20.5464 4.75527 19.2019C4.73694 14.4811 4.72777 9.76028 4.75527 5.0425C4.75527 3.51472 5.38777 2.92194 6.89416 2.90361C8.97194 2.87611 11.0528 2.90361 13.1305 2.90361C13.65 2.90361 14.1603 2.88528 14.3955 3.48722C14.3528 4.28778 14.1725 5.07917 14.2305 5.89194C14.3314 7.35555 14.7958 7.85361 16.2869 7.93305C17.1916 7.92644 18.0956 7.98773 18.9911 8.11639Z" fill="#90489C"/>
<path d="M18.9911 8.1164C17.7689 8.56862 16.5283 8.36695 15.3 8.2539C14.9652 8.2345 14.6481 8.0976 14.4044 7.86731C14.1607 7.63702 14.0061 7.32811 13.9678 6.99501C13.8853 5.80945 13.3108 4.52306 14.4078 3.47501C16.0443 4.91086 17.576 6.46195 18.9911 8.1164Z" fill="#873F97"/>
<path d="M10.2063 12.44C10.1909 12.1346 10.1909 11.8287 10.2063 11.5233C10.2613 10.9856 9.91912 10.2186 10.9427 10.2033C11.838 10.2033 12.7394 10.2033 12.938 11.3308C12.9957 11.934 13.0181 12.54 13.0052 13.1458C13.0663 14.3925 12.4491 14.805 11.2483 14.8356C9.82746 14.8753 10.2644 13.9189 10.2033 13.1917C10.1908 12.9412 10.1918 12.6903 10.2063 12.44Z" fill="#EEE2F0"/>
<path d="M7.49609 10.1453C8.51665 10.2889 9.44553 9.92528 9.28665 11.0619C9.18276 11.7861 10.0047 13.0817 8.2997 13.0328C7.56942 13.0114 7.50831 13.4942 7.51442 14.0503C7.51442 14.4078 7.51442 14.8233 7.00109 14.7836C6.48776 14.7439 6.56109 14.31 6.55498 13.9678C6.55498 13.1519 6.61303 12.3331 6.53359 11.5233C6.42665 10.4081 6.8697 10.0108 7.49609 10.1453Z" fill="#EFE4F0"/>
<path d="M13.8639 12.4675C13.8405 12.1624 13.8405 11.8559 13.8639 11.5508C13.9311 11.0955 13.5583 10.3989 14.2794 10.2705C14.9725 10.1543 15.6817 10.1761 16.3664 10.3347C16.7544 10.4264 16.7483 10.9275 16.3022 11.0986C15.9967 11.2178 15.5964 11.1353 15.2572 11.2147C15.1662 11.2423 15.0826 11.2902 15.0127 11.3548C14.9429 11.4194 14.8886 11.4989 14.8539 11.5875C14.7744 11.9144 15.0464 11.9755 15.303 12.0397C15.7461 12.1497 16.5253 11.7555 16.565 12.4705C16.6169 13.3872 15.7369 12.883 15.2878 13.0267C14.7469 13.2008 14.8172 13.6011 14.7928 13.9983C14.7714 14.3344 14.86 14.7744 14.3222 14.7622C13.7844 14.75 13.8639 14.3222 13.8578 13.9769C13.8578 13.4819 13.8639 12.9747 13.8639 12.4675Z" fill="#F0E5F1"/>
<path d="M11.1566 12.4919C11.2941 12.0703 10.8847 11.2697 11.6425 11.3308C12.3055 11.3889 12.0183 12.1528 12.0152 12.6111C12.0122 13.0694 12.2964 13.8333 11.5447 13.763C10.8725 13.7019 11.3094 12.9167 11.1566 12.4919Z" fill="#8C439A"/>
</svg>
