<svg width="24" height="24" viewBox="0 0 24 24" fill="none" xmlns="http://www.w3.org/2000/svg">
<path d="M19.0003 8.11944C19.5533 8.315 19.3425 8.79777 19.3456 9.15527C19.3608 12.5164 19.3456 15.8561 19.3639 19.205C19.3639 20.6228 18.7528 21.2339 17.3472 21.2217C13.8456 21.1972 10.3439 21.1911 6.84529 21.2217C5.42446 21.2217 4.77057 20.5525 4.76752 19.205C4.75224 14.4842 4.74002 9.76333 4.76752 5.04555C4.76752 3.51777 5.37863 2.925 6.90641 2.90666C8.98418 2.87916 11.065 2.90666 13.1459 2.90666C13.6653 2.90666 14.1786 2.87916 14.4139 3.48416C14.3742 3.83555 14.31 4.18388 14.2795 4.53527C14.0258 7.38 14.4781 7.89638 17.3533 7.94222C17.9156 7.94527 18.4503 8.08583 19.0003 8.11944Z" fill="#6C52A2"/>
<path d="M19.0003 8.11945C17.778 8.59917 16.5344 8.27528 15.3 8.31806C15.005 8.28187 14.7312 8.14604 14.5239 7.93306C13.5705 7.07139 13.5278 4.39167 14.4169 3.47806C16.0505 4.91705 17.5819 6.46792 19.0003 8.11945Z" fill="#61479C"/>
<path d="M6.55196 12.5469C6.52542 12.242 6.52542 11.9353 6.55196 11.6303C6.63752 11.1414 6.20669 10.3653 7.03169 10.2583C7.74669 10.1667 8.7428 9.83666 9.17057 10.4753C9.59835 11.1139 9.44252 12.0397 9.17057 12.8158C9.12474 12.9472 8.73363 13.0267 8.50752 13.0175C7.80169 12.9839 7.48085 13.265 7.52057 13.9922C7.53891 14.3192 7.61224 14.7714 7.07446 14.7775C6.44807 14.7775 6.56113 14.2825 6.54585 13.9006C6.53974 13.4575 6.55196 13.0022 6.55196 12.5469Z" fill="#EAE5F2"/>
<path d="M10.2247 12.1986C10.6189 11.6639 9.35388 10.24 11.2178 10.2033C12.9442 10.1667 13.4636 10.7778 13.0297 12.4644C12.938 12.8128 12.7914 13.0542 12.4461 13.0144C11.4194 12.9014 11.065 13.3689 11.1658 14.3375C11.1745 14.401 11.1681 14.4656 11.1471 14.5261C11.126 14.5866 11.091 14.6412 11.0448 14.6856C10.9987 14.73 10.9426 14.7628 10.8814 14.7815C10.8201 14.8001 10.7553 14.804 10.6922 14.7928C10.6291 14.7974 10.5657 14.7883 10.5065 14.7661C10.4472 14.7439 10.3935 14.709 10.3491 14.664C10.3046 14.6189 10.2704 14.5648 10.249 14.5052C10.2275 14.4457 10.2192 14.3822 10.2247 14.3192C10.2186 13.6592 10.2247 12.9992 10.2247 12.1986Z" fill="#EAE5F2"/>
<path d="M15.1716 10.1911C15.6636 10.3286 16.2808 9.94054 16.5772 10.4967C16.9072 11.1353 15.9661 11.0925 15.9203 11.45C15.795 12.2842 15.8194 13.1397 15.7766 13.9861C15.7583 14.3253 15.8225 14.75 15.3122 14.7714C14.8019 14.7928 14.8508 14.3955 14.7805 14.0442C14.5666 12.9747 15.2328 11.8503 14.0136 10.79C13.4147 10.2797 14.75 10.4142 15.1716 10.1911Z" fill="#EAE6F2"/>
</svg>
