<svg width="24" height="24" viewBox="0 0 24 24" fill="none" xmlns="http://www.w3.org/2000/svg">
<path d="M20.2102 11.7586C20.2958 15.9752 17.1822 20.4455 13.1825 21.8755C12.8034 22.0202 12.3994 22.088 11.9938 22.0749C11.5883 22.0618 11.1894 21.968 10.8205 21.7991C8.11027 20.5983 6.07222 18.7222 4.92639 15.9722C4.92639 15.0555 5.58333 14.4963 6.10583 13.87C6.40246 13.5937 6.71795 13.3385 7.05 13.1061C9.03916 11.618 9.21638 11.6577 10.3042 13.815C11.1108 15.41 12.1711 16.0027 13.3903 15.5413C14.7103 15.0402 15.1839 13.8211 14.7164 12.1161C14.3725 11.0003 13.9276 9.91826 13.3872 8.8833C13.1733 8.43719 12.8464 7.92997 13.2161 7.46247C13.6286 6.93997 14.2305 7.15692 14.7714 7.26692C16.1549 7.60093 17.4298 8.28363 18.4747 9.24997C19.2172 9.97413 19.9444 10.7136 20.2102 11.7586Z" fill="#F9C02D"/>
<path d="M20.2103 11.7586L18.377 9.6197C18.3556 7.17526 16.5436 6.56415 14.7378 5.61388C12.7792 4.59638 11.12 4.67277 9.33255 5.7086C9.15838 5.80943 9.38144 5.69027 9.19505 5.77582C5.75145 7.36165 5.52839 7.82304 6.09978 11.6761C6.22811 12.5164 6.61616 13.3444 6.23728 14.2122L4.92645 15.9722C3.75006 14.1389 4.13812 12.055 3.81728 10.0841C3.27645 6.76276 4.38256 4.92943 7.74061 3.74999C12.1956 2.19166 12 2.11222 16.3848 3.74999C19.4403 4.88666 20.9253 6.49999 20.2561 9.79692C20.1278 10.4203 20.2195 11.0986 20.2103 11.7586Z" fill="#589ED6"/>
<path d="M6.23731 14.2152C5.56203 12.1588 5.58342 10.0383 5.58342 7.90552C5.55555 7.60412 5.63114 7.30221 5.79776 7.04951C5.96438 6.79681 6.21208 6.60838 6.50009 6.51525C8.22036 5.7758 9.94063 5.03025 11.6395 4.24803C12.1345 4.01886 12.5165 4.18386 12.9351 4.37942C14.2184 4.99053 15.4651 5.69942 16.8064 6.12719C18.1478 6.55497 18.6398 7.3708 18.4198 8.70913C18.39 9.01372 18.3788 9.31984 18.3862 9.62579C16.8889 8.48607 15.3612 7.38913 13.2223 7.49608C13.3048 8.43413 13.9495 9.0483 14.2887 9.79079C14.7578 10.7468 15.094 11.7625 15.2878 12.8097C15.5292 14.2947 14.8387 15.4558 13.4942 15.9538C12.2109 16.4274 11.1201 15.9936 10.2859 14.6797C10.2584 14.6369 10.2401 14.588 10.2095 14.5483C9.68397 13.8761 9.82452 12.4369 9.11563 12.4094C8.12258 12.3605 7.30064 13.3811 6.49092 14.0686C6.41043 14.1241 6.32562 14.1732 6.23731 14.2152Z" fill="#3E83C4"/>
</svg>
