<svg width="24" height="24" viewBox="0 0 24 24" fill="none" xmlns="http://www.w3.org/2000/svg">
<path d="M15.0311 13.5981L13.1611 12.3942C13.1611 13.8211 13.1825 15.0556 13.1611 16.29C13.1611 16.6597 13.4148 17.1853 12.932 17.3717C12.5134 17.5336 12.22 17.0936 11.9023 16.8553C9.99864 15.4345 8.1042 14.0167 6.10281 12.5195C5.47336 14.2336 6.35947 15.9417 5.58642 17.4572C5.1892 17.0722 5.13725 16.562 5.12809 16.0578C5.09142 13.4321 5.09142 10.8084 5.12809 8.18669C5.12809 7.68252 5.18614 7.17225 5.60475 6.79947C6.28003 8.32725 5.56809 9.96808 6.02642 11.7097C7.85975 10.3286 9.61059 8.98725 11.392 7.69475C11.8564 7.35864 12.3086 6.62836 12.9198 6.93697C13.4606 7.20586 13.1214 7.95141 13.1459 8.48308C13.1917 9.48836 13.1459 10.4997 13.1459 11.777L19.315 7.38308C19.5228 8.28141 18.8323 8.7428 18.3678 9.30502C18.0383 9.61761 17.6756 9.89323 17.2861 10.127C16.1159 11.01 14.8081 11.8075 15.0311 13.5981Z" fill="#788C96"/>
<path d="M15.031 13.5981C13.6652 11.3156 16.0149 10.8297 17.0171 9.93139C17.8849 9.14612 18.7435 8.42501 19.3149 7.39528C19.6907 7.03778 20.2102 6.2464 20.2316 7.55112C20.2744 10.8145 20.2316 14.0808 20.2316 17.6803L15.031 13.5981Z" fill="#778B95"/>
<path d="M5.60774 6.80557C5.60774 10.3561 5.60061 13.9087 5.58635 17.4633C4.36413 17.7383 3.77135 17.4847 3.84468 16.0028C3.97302 13.3903 3.94552 10.7625 3.84468 8.14696C3.80191 6.68946 4.30607 6.30751 5.60774 6.80557Z" fill="#5E7580"/>
</svg>
