<svg width="24" height="24" viewBox="0 0 24 24" fill="none" xmlns="http://www.w3.org/2000/svg">
<path d="M7.11108 12.9166C6.28914 11.8961 6.75663 10.7777 6.92775 9.72052C7.2333 7.7558 7.69469 5.81553 8.0308 3.85081C8.1683 3.03803 8.73357 2.89137 9.34468 2.8822C11.6302 2.85164 13.928 2.82414 16.2044 2.8822C17.1944 2.9097 17.7322 3.18775 16.8491 4.34275C15.4802 6.09969 14.3191 8.02774 12.935 10.0872H16.788C15.9202 11.9541 14.5299 13.1427 13.488 14.5911C12.1283 16.4702 10.625 18.2577 9.17968 20.0697C8.97191 20.3355 8.80691 20.7694 8.38524 20.6166C7.96358 20.4638 7.98802 20.0422 8.07969 19.6999C8.55635 17.6313 9.06052 15.578 9.55552 13.5277C9.67774 12.8677 9.16135 13.1213 8.88024 13.0755C8.30274 12.9686 7.67941 13.2375 7.11108 12.9166Z" fill="#EDEFF0"/>
<path d="M7.11108 12.9166C7.8108 12.9166 8.51052 12.9166 9.21024 12.9441C9.57691 12.9594 9.99857 13.0144 9.55857 13.5369C8.73969 12.9258 7.79247 13.3872 6.91858 13.2313C6.88191 13.2313 6.85136 13.1763 6.8208 13.1488L7.11108 12.9166Z" fill="#D2D2D2"/>
</svg>
