<svg width="24" height="24" viewBox="0 0 24 24" fill="none" xmlns="http://www.w3.org/2000/svg">
<path d="M17.7781 2.86082L12.8342 10.1178H16.9714L8.2295 21.1452C8.08589 19.0552 8.76727 17.1944 9.14616 15.2847C9.52505 13.375 9.58005 13.3383 7.72228 13.2222C6.827 13.1733 6.772 12.715 6.79033 12.0366C6.86672 9.14914 7.75283 6.38998 8.092 3.54221C8.16839 2.89138 8.73366 2.8486 9.26533 2.8486L17.7781 2.86082Z" fill="#B2BFC6"/>
<path d="M21.127 21.1666C20.5403 21.1666 20.0087 21.2186 19.9323 20.4761C19.8498 19.6663 19.2692 19.5808 18.6031 19.5961C17.937 19.6113 17.2281 19.4861 17.0142 20.5127C16.8003 21.5394 15.8623 21.2552 15.2451 21.1238C14.2887 20.9069 14.9792 20.2072 15.0953 19.8008C15.7401 17.5213 16.4978 15.2725 17.1395 12.99C17.3351 12.2841 17.6162 11.9847 18.3617 11.9633C19.1073 11.9419 19.5839 12.1161 19.8162 12.9044C20.5159 15.2755 21.2828 17.6283 21.9917 19.9963C22.227 20.7724 22.0406 21.3224 21.127 21.1666Z" fill="#92A5AF"/>
<path d="M18.6184 15.7522C18.6428 16.3633 19.0737 16.8339 18.7803 17.3747C18.6951 17.4086 18.6034 17.423 18.5119 17.4166C18.4203 17.4103 18.3314 17.3834 18.2517 17.338C17.8545 16.7636 18.212 16.3083 18.6184 15.7522Z" fill="#F9F9F9"/>
</svg>
