<svg width="24" height="24" viewBox="0 0 24 24" fill="none" xmlns="http://www.w3.org/2000/svg">
<path d="M7.59083 6.59775C8.38527 2.88525 8.38527 2.88525 12.1986 2.88525H17.6558L12.7211 10.2186H16.7361L14.0105 13.7966C13.3994 13.87 13.0939 13.4391 12.7608 13.0602C11.233 11.2269 9.70527 9.41191 8.00638 7.71913C7.72222 7.43497 7.23333 7.1508 7.59083 6.59775Z" fill="#79919C"/>
<path d="M7.59083 6.59774L14.0075 13.7966C15.5078 15.4955 16.9836 17.2188 18.5236 18.8841C19.0889 19.4952 19.1347 19.8466 18.4686 20.4455C17.7353 21.1085 17.4541 20.6013 17.0508 20.1399C15.6025 18.5327 14.1501 16.9275 12.6936 15.3244C11.4714 14.8936 10.9275 13.7263 10.1605 12.8616C9.11554 11.6791 7.76805 10.6952 7.22416 9.11246C6.05694 7.79246 4.91722 6.44191 3.70417 5.16774C3.09306 4.52913 3.38028 4.21441 3.87222 3.71636C4.45889 3.12663 4.76444 3.4108 5.17083 3.88135C5.95916 4.8133 6.78416 5.69941 7.59083 6.59774Z" fill="#C72B29"/>
<path d="M7.22724 9.12469C9.06057 11.1923 10.8837 13.2629 12.6967 15.3366L8.2264 21.0688L7.95446 20.9772C8.40668 18.8688 8.78251 16.7391 9.34168 14.6583C9.64723 13.5339 9.54946 13.0083 8.26001 13.1672C6.97057 13.3261 6.16391 13.1183 6.77807 11.4989C7.05918 10.7594 7.08668 9.91914 7.22724 9.12469Z" fill="#7B929E"/>
</svg>
