<svg width="24" height="24" viewBox="0 0 24 24" fill="none" xmlns="http://www.w3.org/2000/svg">
<path d="M11.065 13.9403C6.01723 13.3658 5.0639 9.55554 5.90418 6.0661C6.20973 4.84389 6.82084 4.51694 7.80168 5.10361C8.86195 5.73305 9.34778 5.32666 10.1178 4.52C12.1467 2.38111 12.1344 2.52778 14.0105 4.49555C14.8325 5.35416 15.3611 5.74527 16.455 5.07C17.4144 4.48027 18.0164 4.89583 18.2578 6.00805C18.9789 9.36915 18.4747 13.1764 13.1519 13.9525C13.0184 14.0452 12.8694 14.1135 12.7119 14.1541C12.1551 14.2837 11.5702 14.2078 11.065 13.9403Z" fill="#D42F2F"/>
<path d="M12.8922 13.9892C12.9306 13.9626 12.9749 13.946 13.0213 13.9406C13.0677 13.9353 13.1146 13.9415 13.1581 13.9586V16.5466C14.5911 15.2633 15.9722 14.3222 17.6772 13.9953C19.2447 13.6897 19.5655 13.9953 19.2753 15.578C18.5878 19.3852 15.7461 21.35 11.1628 21.1819C7.84445 21.0597 5.35724 18.5511 4.85307 15.0983C4.66668 13.7355 5.32057 13.7722 6.19446 13.925C8.02779 14.2458 9.58 15.1472 11.0192 16.6475L11.1444 14.1786C11.9175 14.3314 11.6975 14.9791 11.7556 15.4589C11.8289 16.0914 11.6394 16.7544 12.0122 17.4878C12.9747 16.4183 12.0947 14.9761 12.8922 13.9892Z" fill="#59975C"/>
<path d="M12.8922 13.9891C12.7761 15.4039 13.2894 16.9225 12.1344 18.2364C11.8199 18.0109 11.5778 17.6986 11.4378 17.3377C11.2978 16.9769 11.2659 16.5831 11.3461 16.2044C11.4286 15.5536 11.6242 14.808 11.1414 14.1755C11.1105 14.1454 11.0875 14.1083 11.0742 14.0673C11.0609 14.0263 11.0577 13.9827 11.065 13.9403C11.6713 13.8357 12.2924 13.8523 12.8922 13.9891Z" fill="#428041"/>
</svg>
