<svg width="24" height="24" viewBox="0 0 24 24" fill="none" xmlns="http://www.w3.org/2000/svg">
<path d="M21.1453 8.33333C21.1575 11.4255 21.1707 14.5188 21.185 17.613C21.185 18.7986 20.6289 19.3516 19.4097 19.3455C14.5392 19.3231 9.66964 19.3231 4.80113 19.3455C3.63696 19.3455 2.92502 18.8322 2.90974 17.6619C2.86391 13.9097 2.87002 10.1667 2.87308 6.40223C2.91181 6.20927 2.98532 6.02498 3.09002 5.85834C3.65835 7.92083 5.20752 7.93306 6.9614 7.89333C10.9642 7.79861 14.9669 7.85667 18.9697 7.86889C19.7214 7.86889 20.5067 7.78333 21.1453 8.33333Z" fill="#FCB45A"/>
<path d="M21.1453 8.33332L5.79113 8.35165C3.23669 8.35165 3.23669 8.35165 3.09003 5.85527C3.39558 4.90805 4.16252 4.73999 5.02113 4.73999C6.4878 4.73999 7.95446 4.75832 9.42113 4.73999C10.0322 4.73999 10.5395 4.85916 10.8786 5.3511C11.6242 6.4511 12.6814 6.62221 13.9158 6.57332C15.6819 6.49693 17.4572 6.51832 19.2264 6.57332C20.3233 6.59471 21.2369 6.95526 21.1453 8.33332Z" fill="#F68D20"/>
</svg>
