<svg width="24" height="24" viewBox="0 0 24 24" fill="none" xmlns="http://www.w3.org/2000/svg">
<path d="M12.993 15.028C12.6875 16.1922 13.2405 16.9041 14.915 16.6261C15.575 16.5161 15.7889 16.8889 15.798 17.5214C15.8072 18.1539 15.633 18.5969 14.8814 18.5358C14.478 18.5022 14.0686 18.5358 13.6592 18.5358C11.2147 18.5358 11.2147 18.5358 11.1292 16.0303C11.1292 15.63 11.3889 15.0525 10.7105 14.8997C10.0322 14.7469 9.85805 15.2053 9.67166 15.7216C9.06055 17.39 8.39749 19.0369 7.83833 20.7205C7.56027 21.5577 7.14777 21.4997 6.46944 21.2705C5.68722 21.0108 5.79111 20.5861 6.01417 19.9964C7.28833 16.5833 8.52888 13.1428 9.82749 9.73277C10.133 8.95055 10.0414 8.62055 9.1461 8.63277C8.33638 8.63277 7.52666 8.54722 6.71694 8.54722C6.00194 8.54722 5.61083 8.37305 5.60778 7.52055C5.60472 6.66805 5.95917 6.5 6.69861 6.53055C11.0161 6.73222 15.2541 7.20583 18.4166 10.625C18.7619 10.9947 19.7428 11.3461 18.8322 12.1528C18.1172 12.7914 17.6466 12.7303 17.0294 11.945C16.2472 10.9489 15.0739 9.69916 13.9739 10.0353C13.0878 10.3072 13.2436 12.0825 13.1092 13.2314C13.0633 13.6897 13.0511 14.1389 12.993 15.028Z" fill="#5E4FA1"/>
<path d="M13.1611 6.63139C11.9083 6.61306 11.0528 5.73917 11.1444 4.67584C11.2422 3.55751 11.8931 2.94028 13.0144 2.90973C13.2661 2.9056 13.5158 2.95401 13.7476 3.05188C13.9795 3.14975 14.1883 3.29492 14.3609 3.47811C14.5334 3.6613 14.6659 3.87847 14.7497 4.11575C14.8335 4.35303 14.8669 4.60519 14.8478 4.85611C14.7683 5.98056 14.0808 6.53667 13.1611 6.63139Z" fill="#6152A2"/>
<path d="M5.785 18.1111C5.54973 18.93 5.09751 19.5564 4.19917 19.4433C3.45362 19.3516 2.87612 18.8841 2.90668 18.0194C2.93723 17.1547 3.44445 16.6108 4.36112 16.6353C5.27778 16.6597 5.62612 17.3197 5.785 18.1111Z" fill="#7E63AA"/>
</svg>
