<svg width="24" height="24" viewBox="0 0 24 24" fill="none" xmlns="http://www.w3.org/2000/svg">
<path d="M14.97 7.37083C15.9539 7.06528 16.4397 6.12111 17.17 5.49167C17.7506 4.9875 18.3128 4.245 19.0583 5.09444C19.7183 5.84306 19.1592 6.46639 18.6031 7.05611C17.992 7.71917 17.1333 8.23861 16.9317 9.25917C17.9064 8.90778 18.4808 8.08583 19.1745 7.42583C19.6939 6.92778 20.3264 6.47555 20.8886 7.00111C21.4508 7.52667 21.2706 8.30583 20.6961 8.88028C19.6908 9.88861 18.707 10.9153 17.665 11.8808C16.9408 12.5531 15.9447 13.1336 15.0556 12.8556C13.5492 12.385 13.1428 13.2986 12.5531 14.2458C11.4011 16.0792 10.2033 17.9125 8.67557 19.4769C8.16114 20.0001 7.46449 20.3042 6.73112 20.3259C5.99775 20.3475 5.28438 20.0849 4.74001 19.5931C3.7164 18.6092 3.69501 16.5375 4.72473 15.4864C6.37779 13.815 8.37001 12.6111 10.3592 11.3889C11.1017 10.9367 11.5814 10.4356 11.4133 9.45472C11.1903 8.14694 11.7372 7.10194 12.6936 6.20972C13.65 5.3175 14.637 4.27556 15.6117 3.31611C16.1067 2.83333 16.6567 2.64694 17.1945 3.23667C17.6772 3.77139 17.4572 4.27556 17.005 4.70028C16.1983 5.44889 15.3764 6.17917 14.5606 6.91556L14.97 7.37083Z" fill="#90A4AE"/>
</svg>
