<svg width="24" height="24" viewBox="0 0 24 24" fill="none" xmlns="http://www.w3.org/2000/svg">
<path d="M1.02142 14.75C1.63253 14.8416 2.04198 14.6002 2.41781 14.0869C2.63597 13.7571 2.92558 13.4806 3.26518 13.278C3.60477 13.0755 3.98562 12.9519 4.37947 12.9166C4.20225 13.7477 3.90586 14.4444 3.96086 15.2083C3.99753 15.74 3.58197 15.85 3.13586 15.8652C2.43309 15.8897 1.72725 15.9263 1.02142 15.96V14.75Z" fill="#8369AD"/>
<path d="M13.8731 11.3339C14.0717 11.5325 14.0167 11.9939 14.4261 11.945C14.8356 11.8961 14.6981 11.4989 14.7683 11.233C14.9394 10.5944 14.31 9.60748 15.1442 9.35692C15.905 9.12776 16.4 10.0169 16.953 10.5394C17.7475 11.288 18.5511 11.5203 19.4464 10.4966C20.0269 9.83359 20.9955 10.1208 21.738 10.2736C22.3491 10.405 22.0436 11.1383 22.0803 11.6028C22.1294 12.3149 22.1294 13.0295 22.0803 13.7416C22.0497 14.1358 22.3858 14.7652 21.6769 14.8569C21.0933 14.9364 21.1789 14.3314 21.0658 13.9861C20.911 13.5252 20.6359 13.114 20.269 12.7949C19.9022 12.4759 19.4568 12.2605 18.9789 12.1711C17.4908 11.8411 15.9233 12.9655 15.9233 14.5575C15.9233 15.7461 15.4619 15.9141 14.4933 15.85C13.5767 15.7919 12.66 15.8133 11.7433 15.85C10.4111 15.8958 9.01168 16.2227 9.11251 14.0166C9.15224 13.1672 8.26307 12.6019 7.51752 12.0061C8.30127 11.9566 9.08757 11.9638 9.87029 12.0275C10.7717 12.1619 11.1261 11.7219 11.3461 10.9886C12.107 11.7433 12.9747 11.6547 13.8731 11.3339Z" fill="#7A5EA8"/>
<path d="M6.52139 16.6169C5.4489 16.6505 4.84084 16.0058 4.73695 14.8905C4.72402 14.6361 4.76423 14.3818 4.85504 14.1439C4.94584 13.9059 5.08523 13.6894 5.26434 13.5083C5.44344 13.3272 5.65832 13.1854 5.89527 13.0919C6.13222 12.9985 6.38605 12.9554 6.64056 12.9655C7.75584 13.0541 8.47389 13.7202 8.47389 14.8263C8.47389 15.9325 7.85361 16.6383 6.52139 16.6169Z" fill="#6052A2"/>
<path d="M18.5022 16.6138C17.3442 16.6138 16.6689 16.0027 16.6444 14.8722C16.62 13.7416 17.2953 13.0877 18.3953 12.9716C18.6489 12.9583 18.9026 12.9969 19.1408 13.0852C19.3789 13.1735 19.5965 13.3095 19.7803 13.4849C19.964 13.6603 20.1099 13.8714 20.209 14.1052C20.3082 14.3391 20.3585 14.5907 20.3569 14.8447C20.3585 15.0848 20.311 15.3226 20.2172 15.5437C20.1235 15.7647 19.9855 15.9642 19.8118 16.1299C19.638 16.2956 19.4322 16.4241 19.207 16.5073C18.9818 16.5905 18.742 16.6268 18.5022 16.6138Z" fill="#6052A2"/>
<path d="M19.7397 9.35387C19.2355 9.35387 18.7283 9.33859 18.2119 9.35387C17.4389 9.38137 17.5244 8.83443 17.5 8.33332C17.4755 7.83221 17.6619 7.48082 18.2669 7.49304C19.1836 7.51443 20.1003 7.5236 20.9986 7.49304C21.7166 7.46248 22.1169 7.59693 22.1169 8.46776C22.1169 9.38442 21.6158 9.41804 20.9558 9.38442C20.5494 9.36609 20.1461 9.38442 19.7336 9.38442L19.7397 9.35387Z" fill="#7C61AA"/>
<path d="M13.873 11.3339C13.6164 12.3727 12.773 11.9236 12.1497 11.9908C11.4286 12.0641 11.4042 11.505 11.3461 11.0039C12.5042 9.82136 13.0542 9.89164 13.873 11.3339Z" fill="#6152A3"/>
</svg>
