<svg width="24" height="24" viewBox="0 0 24 24" fill="none" xmlns="http://www.w3.org/2000/svg">
<path d="M16.5589 12.5897C16.0853 13.2008 15.3978 13.1244 14.7439 13.1244C12.8128 13.1244 10.8694 13.2589 8.95362 13.0908C7.14779 12.9319 5.8064 13.485 4.74918 14.8966C4.30307 15.5078 3.83252 16.0761 3.37418 16.6628L2.90057 16.3389C2.90057 12.1986 2.90057 8.05832 2.90057 3.91805C2.90057 3.15417 3.44141 2.89139 4.14113 2.89139C7.90149 2.89139 11.6619 2.89139 15.4222 2.89139C15.9111 2.89139 16.3389 3.00139 16.5833 3.45972C16.8132 6.49903 16.805 9.55167 16.5589 12.5897Z" fill="#F06492"/>
<path d="M20.8611 6.80555C21.2675 7.08666 21.1667 7.5236 21.1667 7.91165C21.1667 12.0631 21.1667 16.2156 21.1667 20.3691C21.1667 20.5494 21.133 20.7297 21.1025 21.0291L17.7811 17.8055C15.4864 17.4572 13.1794 17.7536 10.8786 17.6466C9.63195 17.5886 8.37307 17.8055 7.13251 17.5244L6.80557 17.1944C6.57946 16.8186 6.71696 16.4 6.66502 16.0028C6.54585 15.1289 6.93085 14.8753 7.78335 14.8875C10.8389 14.9272 13.8761 14.9089 16.9225 14.8875C17.4175 14.8875 17.94 15.0372 18.4044 14.7286H18.3892C18.7711 12.7211 18.5053 10.6953 18.5511 8.6786C18.603 6.45721 18.5633 6.45721 20.8611 6.80555Z" fill="#F5A1BE"/>
<path d="M18.4166 14.75C18.0347 15.2511 17.4816 15.0555 17.0019 15.0555C14.3069 15.0739 11.615 15.0555 8.91999 15.0555C6.47555 15.0555 6.87583 14.8844 6.81778 17.1944C6.09056 15.1258 6.31972 14.75 8.29666 14.75H18.4166Z" fill="#C495A3"/>
<path d="M7.13251 17.5C10.2614 17.5 13.3872 17.5 16.5161 17.5C16.953 17.5 17.4328 17.3686 17.7811 17.8055C14.7011 17.8055 11.6242 17.8055 8.54417 17.8055C8.07056 17.7811 7.52362 17.995 7.13251 17.5Z" fill="#B8ACAE"/>
<path d="M20.8611 6.80556C18.5572 6.88806 18.7864 6.41445 18.6917 9.06055C18.6244 10.955 19.0889 12.88 18.3861 14.7378L18.4167 8.26917C18.4167 6.29223 18.8383 6.03861 20.8611 6.80556Z" fill="#DCA4B6"/>
<path d="M16.5589 12.5897L16.5833 3.44443C17.1944 5.29304 16.7941 7.1997 16.8369 9.07581C16.8889 10.2461 17.2128 11.4714 16.5589 12.5897Z" fill="#BFA2A7"/>
</svg>
