<svg width="24" height="24" viewBox="0 0 24 24" fill="none" xmlns="http://www.w3.org/2000/svg">
<path d="M11.34 8.8864C13.0646 7.08786 15.0787 5.59128 17.2983 4.45891C18.1997 4.01585 19.3333 3.6003 20.0239 4.20224C20.8214 4.89585 20.1767 6.00196 19.7428 6.84835C18.7337 8.90154 17.3739 10.7628 15.7247 12.3483C15.0189 13.3445 14.2611 13.265 13.5431 12.3911C12.6631 11.3217 11.12 10.6556 11.34 8.8864Z" fill="#79919C"/>
<path d="M11.34 8.88641C11.8228 10.5242 13.2222 11.4347 14.2886 12.6111C14.8997 13.262 15.2419 12.4156 15.7247 12.3606C14.5025 14.0931 12.8525 15.297 11.0497 16.3328C10.5547 16.617 10.2308 16.3878 9.84887 16.0578C7.29137 13.8456 7.24249 13.2497 9.54332 10.7381C10.1116 10.0903 10.738 9.50058 11.34 8.88641Z" fill="#94A7B1"/>
<path d="M4.05556 18.8322C4.03417 17.0356 4.15945 15.5047 6.11501 14.8111C6.92473 14.5056 7.38306 14.5911 7.94834 15.2022C8.90167 16.2503 10.3378 17.0631 8.96584 18.8139C8.35472 19.6022 5.11278 20.7328 4.24195 20.2133C3.60029 19.8283 4.28167 19.1867 4.05556 18.8322Z" fill="#7A919D"/>
</svg>
