<svg width="24" height="24" viewBox="0 0 24 24" fill="none" xmlns="http://www.w3.org/2000/svg">
<path d="M17.5649 19.9366C17.2595 20.9353 16.5539 21.1949 15.5857 21.1858C12.0397 21.1583 8.49369 21.1858 4.95073 21.1858C3.42359 21.1858 2.90131 20.636 2.8952 19.0478C2.8952 15.6545 2.93185 12.2612 2.87382 8.86785C2.85244 7.51175 3.3564 6.73291 4.66974 6.49773C5.21951 6.04264 5.89145 6.0457 6.54201 6.04264C9.21756 6.04264 11.8962 6.00904 14.5748 6.04264C17.1923 6.07624 17.9528 6.86424 17.9711 9.55201C17.9894 12.2795 17.9711 15.0069 17.9711 17.7375C17.9961 18.4912 17.8575 19.2415 17.5649 19.9366Z" fill="#57A0D7"/>
<path d="M17.5649 19.9365C17.5425 16.251 17.5201 12.5635 17.4977 8.87393C17.4977 7.12688 16.9143 6.53741 15.1276 6.52214C11.6365 6.4977 8.15162 6.4977 4.66974 6.4977C4.78886 5.389 5.37528 4.76287 6.50231 4.69262C6.9971 4.25891 7.6049 4.22532 8.21576 4.22226C11.0471 4.20699 13.8814 4.18561 16.7128 4.22226C18.9332 4.25586 19.7151 5.04386 19.767 7.27654C19.8678 10.7126 19.6204 14.1548 19.9381 17.5878C19.3224 18.53 18.5135 19.3306 17.5649 19.9365Z" fill="#93C7EC"/>
<path d="M19.9564 17.5634C19.1073 17.3251 19.3456 16.6196 19.3456 16.0515C19.3303 13.1591 19.3456 10.2667 19.3456 7.3743C19.3456 5.0897 18.9485 4.68653 16.7219 4.68348L6.50232 4.66515C6.71001 3.32738 7.50107 2.83258 8.83579 2.85396C12.2291 2.90589 15.6224 2.85396 19.0188 2.87534C20.6681 2.87534 21.1567 3.39152 21.1751 5.06526C21.1751 8.56241 21.1567 12.0596 21.1751 15.5537C21.2056 16.5402 20.9307 17.2457 19.9564 17.5634Z" fill="#58A0D7"/>
<path d="M15.4513 19.3257C12.1802 19.3257 8.94572 19.3257 5.72346 19.3257C4.97516 19.3257 5.00265 18.9378 5.28059 18.44C5.55853 17.9421 5.89144 17.3954 6.19687 16.8731C7.38804 14.8542 7.41858 14.8359 8.73192 16.8242C9.19923 17.5328 9.48022 17.5328 9.87117 16.8059C10.3965 15.8224 10.931 14.8451 11.5174 13.8982C11.7312 13.5501 12.0214 13.0156 12.5253 13.6997C12.8919 14.1609 15.207 18.5102 15.4513 19.3257Z" fill="#93C7EC"/>
<path d="M8.35626 11.1891C8.40818 12.3344 7.88284 12.9117 6.66724 12.93C5.38444 12.9483 4.73694 12.197 4.75526 11.0974C4.7529 10.8566 4.79978 10.6177 4.89302 10.3956C4.98627 10.1735 5.12391 9.97275 5.29751 9.80573C5.47111 9.6387 5.67701 9.50891 5.90257 9.42431C6.12812 9.33971 6.36859 9.30209 6.60921 9.31375C7.62628 9.34735 8.40512 9.94293 8.35626 11.1891Z" fill="#93C7EB"/>
</svg>
