<svg width="24" height="24" viewBox="0 0 24 24" fill="none" xmlns="http://www.w3.org/2000/svg">
<path d="M21.1911 12.168C21.1911 14.9425 21.1911 14.7469 18.4197 15.0036C16.1341 15.2205 15.0738 13.763 13.7752 12.4705C13.5858 12.2811 13.4697 12.0366 13.6836 11.8136C14.5452 10.9672 15.2969 9.74192 16.3297 9.41192C17.6619 8.99025 19.2263 9.28358 20.6899 9.28664C21.1972 9.28664 21.1849 9.68997 21.188 10.0444C21.1972 10.7533 21.1911 11.4591 21.1911 12.168Z" fill="#785DA7"/>
<path d="M9.55555 2.96165C11.0161 2.94026 12.4797 2.94332 13.9403 2.88221C14.7622 2.84554 14.9914 3.22137 14.97 3.96998C14.9333 5.0272 14.97 6.08748 14.9547 7.14776C14.9547 7.75887 12.8158 10.4203 12.2292 10.5791C11.8503 10.683 11.6883 10.3866 11.4928 10.188C10.8205 9.50664 10.1697 8.80692 9.50972 8.11637C9.32022 6.40241 9.33561 4.67197 9.55555 2.96165Z" fill="#2BA79B"/>
<path d="M2.93111 14.75C2.97694 12.9167 2.53389 11.0833 3.17861 9.30194C4.78306 9.47048 6.40031 9.47867 8.00638 9.32639C8.05527 9.32639 8.11943 9.32639 8.14999 9.36611C11.4744 12.6417 11.4958 11.3644 8.02777 14.75C6.33649 14.9773 4.62239 14.9773 2.93111 14.75Z" fill="#B29BCA"/>
<path d="M14.75 21.1361H9.55553C9.31339 19.4229 9.31853 17.6839 9.57081 15.9722C12.55 12.7608 11.7097 12.7761 14.7286 16.0028C14.9862 17.7036 14.9934 19.4331 14.75 21.1361Z" fill="#7ECAC3"/>
<path d="M9.55553 2.96167L9.5097 8.11638C9.14303 6.39305 9.00859 4.66667 9.55553 2.96167Z" fill="#63938C"/>
<path d="M2.93109 14.75H8.02775C6.36482 15.2443 4.59402 15.2443 2.93109 14.75Z" fill="#B0AAB2"/>
<path d="M9.57079 15.9722C9.57079 17.6935 9.56569 19.4158 9.55551 21.1391C9.06245 19.4514 9.06776 17.657 9.57079 15.9722Z" fill="#86AAA6"/>
<path d="M14.75 21.1361C14.75 19.425 14.7428 17.7139 14.7286 16.0027C15.2382 17.6748 15.2457 19.4598 14.75 21.1361Z" fill="#ADB0AF"/>
<path d="M8.00636 9.32639C6.41906 9.71101 4.76191 9.70262 3.17859 9.30194L8.00636 9.32639Z" fill="#9D90B4"/>
</svg>
