<svg width="24" height="24" viewBox="0 0 24 24" fill="none" xmlns="http://www.w3.org/2000/svg">
<path d="M22.9817 12.1589C22.9817 15.5047 22.9633 18.8536 23 22.1994C23 22.8289 22.9053 22.9969 22.2331 22.9939C15.4314 22.9613 8.63074 22.9633 1.83111 23C1.03972 23 1 22.7556 1 22.1108C1.02648 15.3703 1.02648 8.62463 1 1.87389C1 1.18944 1.09167 1 1.84333 1C8.59407 1.04278 15.3407 1.04278 22.0833 1C22.9083 1 23 1.26583 22.9847 1.96556C22.9633 5.36333 22.9817 8.76111 22.9817 12.1589Z" fill="#FEFFFF"/>
<path d="M11.5753 16.6414C11.3721 16.663 11.1673 16.663 10.9642 16.6414C10.4233 16.5283 9.51277 16.9989 9.40277 16.2686C9.27138 15.3917 10.1972 15.8072 10.6647 15.7308C11.1994 15.6453 11.1444 15.3061 11.123 14.9547C11.0772 14.2367 10.6617 14.6919 10.3897 14.7439C9.52805 14.9089 8.7611 14.7897 8.25082 13.9861C8.03232 13.637 7.92866 13.2282 7.95442 12.8172C7.98018 12.4062 8.13406 12.0135 8.39443 11.6944C9.23166 10.4905 10.1483 9.34166 11.0222 8.16527C11.395 7.66416 11.725 7.51749 12.1925 8.10416C13.1397 9.28971 14.145 10.4325 14.9028 11.7708C15.3367 12.5255 15.4864 13.2772 14.9639 14.0533C14.4414 14.8294 13.6561 14.9058 12.8067 14.7225C12.5378 14.6644 12.1467 14.1817 12.0611 14.8997C12 15.3153 12.0305 15.6667 12.6294 15.7278C13.0664 15.7675 13.8517 15.4222 13.8303 16.183C13.7936 17.0355 12.9533 16.513 12.4828 16.6261C12.1819 16.6664 11.8773 16.6716 11.5753 16.6414Z" fill="#4D4C4C"/>
</svg>
