<svg width="24" height="24" viewBox="0 0 24 24" fill="none" xmlns="http://www.w3.org/2000/svg">
<path d="M22.9817 12.1588C22.9817 15.5199 22.9633 18.8535 23 22.1994C23 22.8105 22.9175 22.9999 22.2361 22.9969C15.4344 22.9623 8.63278 22.9623 1.83111 22.9969C1.05194 23.003 1 22.7738 1 22.1169C1.02648 15.3743 1.02648 8.62864 1 1.87994C1 1.20466 1.07944 1.00299 1.84028 1.00299C8.64194 1.04577 15.4426 1.04577 22.2422 1.00299C22.9358 1.00299 23 1.20771 23 1.80966C22.9664 5.25938 22.9817 8.7091 22.9817 12.1588Z" fill="#FEFEFF"/>
<path d="M11.6242 7.47467L14.1114 11.5844C14.2198 11.7201 14.2811 11.8874 14.286 12.061C14.291 12.2347 14.2393 12.4052 14.1389 12.5469C13.3078 13.8638 12.5194 15.2052 11.6211 16.6933C10.7442 15.2449 9.98945 13.9433 9.17667 12.6874C9.04297 12.5073 8.97335 12.2877 8.97888 12.0634C8.98442 11.8392 9.0648 11.6232 9.20723 11.4499C10.0078 10.2124 10.7411 8.94745 11.6242 7.47467Z" fill="#BE3C27"/>
</svg>
