<svg width="24" height="24" viewBox="0 0 24 24" fill="none" xmlns="http://www.w3.org/2000/svg">
<path d="M22.9817 12.1589C22.9817 15.5047 22.9633 18.8536 23 22.1994C23 22.8258 22.9083 22.9969 22.2331 22.9939C15.4314 22.9613 8.63074 22.9633 1.83111 23C1.04278 23 1 22.7586 1 22.1108C1.02648 15.3703 1.02648 8.62463 1 1.87389C1 1.1925 1.08861 1 1.84333 1C8.59407 1.04278 15.3407 1.04278 22.0833 1C22.9083 1 23 1.26278 23 1.9625C22.9633 5.36028 22.9817 8.75806 22.9817 12.1589Z" fill="#FEFFFF"/>
<path d="M12.1131 13.9403C11.832 15.0342 12.6448 14.7683 13.1917 14.805C13.4973 14.8264 13.8303 14.8264 13.8639 15.2328C13.9128 15.7858 13.4911 15.7339 13.1428 15.7369C12.1284 15.7369 11.1139 15.7369 10.0873 15.7369C9.75725 15.7369 9.30197 15.8164 9.33558 15.2572C9.36003 14.8631 9.68086 14.8142 10.0017 14.8111C10.2553 14.8111 10.512 14.8111 10.7625 14.7897C11.0925 14.75 11.1445 14.4842 11.1078 14.2306C11.0467 13.7967 10.8023 13.9861 10.5731 14.0778C9.43642 14.5331 8.47697 14.2489 8.12864 13.0756C7.7467 11.8197 8.41892 11.0283 9.70836 10.845C10.3714 10.7533 10.0139 10.3958 9.98031 10.0903C9.87947 8.93528 10.4203 8.16528 11.5661 8.12555C12.712 8.08583 13.2986 8.80694 13.265 9.98333C13.265 10.3133 12.8678 10.735 13.6225 10.8633C14.9242 11.0833 15.4925 11.9786 15.0311 13.1947C14.5698 14.4108 13.5034 14.53 12.3911 13.9494C12.3239 13.9067 12.2109 13.9403 12.1131 13.9403Z" fill="#4D4C4D"/>
</svg>
