<svg width="24" height="24" viewBox="0 0 24 24" fill="none" xmlns="http://www.w3.org/2000/svg">
<path d="M1.02139 22.9786C1.02139 15.9722 1.03361 8.94443 1 1.935C1 1.17722 1.16806 1 1.935 1C8.64499 1.03463 15.354 1.03463 22.0619 1C22.8227 1 23 1.16806 23 1.935C22.9674 8.64499 22.9674 15.355 23 22.065C23 22.8227 22.8319 23.003 22.065 23C15.0555 22.9664 8.02777 22.9786 1.02139 22.9786Z" fill="#FEFEFF"/>
<path d="M11.5997 9.53721C12.3239 8.74583 13.0725 7.99416 14.2183 8.59916C15.2786 9.15833 15.6086 10.0536 15.0739 11.1505C14.3161 12.715 13.1519 13.9953 12.0489 15.3183C11.6364 15.8164 11.395 15.5872 11.1322 15.2205C10.2767 14.093 9.38443 12.99 8.57471 11.8289C7.89027 10.845 7.55416 9.73888 8.65721 8.8436C9.80915 7.89944 10.7778 8.46777 11.5997 9.53721Z" fill="#BE3B27"/>
</svg>
