<svg width="24" height="24" viewBox="0 0 24 24" fill="none" xmlns="http://www.w3.org/2000/svg">
<path d="M18.4167 21.1361H12C11.4409 20.5036 11.5325 19.7214 11.5325 18.9728C11.5183 15.133 11.5183 11.2911 11.5325 7.44723C11.5325 6.49084 11.4256 5.63223 10.5181 5.08834C10.4203 4.19918 11.1597 4.29696 11.6181 4.27557C15.3122 4.11668 18.9056 6.00501 18.8628 10.5914C18.8353 13.43 18.8628 16.2686 18.8628 19.1103C18.8536 19.81 18.9331 20.5555 18.4167 21.1361Z" fill="#579ED6"/>
<path d="M10.4722 4.97222C11.7678 4.78277 12.052 5.39388 12.0367 6.60999C11.9633 11.4469 12 16.293 12 21.1361H5.58336C5.18003 20.6869 5.14642 20.1308 5.14336 19.5716C5.14336 16.5405 5.07308 13.5094 5.16475 10.4814C5.17242 9.38764 5.47218 8.31581 6.03302 7.37678C6.59386 6.43775 7.39541 5.66562 8.35474 5.14027C8.99946 4.75833 9.71141 4.38861 10.4722 4.97222Z" fill="#74B1E0"/>
<path d="M10.4722 4.97223C9.13479 5.11884 7.89917 5.75597 7.00412 6.76051C6.10906 7.76505 5.61811 9.06569 5.62612 10.4111C5.58334 13.9861 5.58334 17.5672 5.58334 21.1483C4.33973 21.405 3.75001 21.1025 3.82335 19.6205C3.94251 16.6811 3.84473 13.7355 3.86001 10.793C3.89057 6.59167 6.04473 3.92417 10.1178 3.0289C14.5392 2.05723 18.5969 4.15334 19.9964 8.08583C20.1858 8.66306 20.2717 9.26925 20.25 9.87638C20.25 13.0725 20.1705 16.2747 20.2897 19.4647C20.3478 20.9925 19.868 21.4936 18.4228 21.1361C18.4228 17.7016 18.3403 14.2672 18.4411 10.8358C18.5633 6.73833 15.9967 5.07 12.8128 4.72473C12.0397 4.63001 11.1872 4.40695 10.4722 4.97223Z" fill="#4083C5"/>
</svg>
