<svg width="24" height="24" viewBox="0 0 24 24" fill="none" xmlns="http://www.w3.org/2000/svg">
<path d="M8.33331 10.1819C8.34859 8.16221 8.41581 6.14555 8.3547 4.12889C8.33331 3.11139 8.67553 2.74472 9.65331 2.87917C9.90354 2.91583 10.1578 2.91583 10.408 2.87917C11.8472 2.65 12.3758 3.18472 12.2719 4.68805C12.1466 6.49999 12.2505 8.33332 12.2536 10.1361C12.5072 11.4532 12.5072 12.8065 12.2536 14.1236C12.2536 16.0486 12.1955 17.9736 12.2536 19.8986C12.278 20.8611 12.0214 21.243 10.9825 21.2125C7.74359 21.1208 8.45553 21.5027 8.35775 18.6947C8.30887 17.2341 8.96886 15.3764 8.11637 14.4169C7.26387 13.4575 5.36637 14.1878 3.90888 14.0655C3.66138 14.0441 3.41388 13.9891 3.16943 13.9494C3.85693 13.0694 4.84082 13.4178 5.70554 13.3903C7.3922 13.3322 7.97581 13.5033 7.90248 11.4469C7.88764 11.2181 7.91805 10.9886 7.99198 10.7715C8.06591 10.5545 8.18189 10.3541 8.33331 10.1819Z" fill="#AC6DAD"/>
<path d="M12.2628 14.1389C11.887 12.8363 11.887 11.454 12.2628 10.1514C12.5164 10.1667 12.77 10.1911 13.0236 10.1942C15.5536 10.2278 15.5536 10.2278 15.792 7.51138C17.552 8.94444 19.2264 10.298 20.8611 11.6944C21.3347 12.0916 20.9619 12.4064 20.6381 12.6783L16.0181 16.5161C15.8622 16.3755 15.737 16.3205 15.7308 16.2533C15.5292 13.9922 15.5322 13.9922 12.2628 14.1389Z" fill="#589ED6"/>
<path d="M8.33335 10.1819C8.50751 13.8761 8.50751 13.873 4.8378 13.8822C4.2878 13.8822 3.73475 13.925 3.18475 13.9494C2.57364 12.9197 2.96475 11.8105 2.93114 10.7258C2.90669 10.0536 3.54225 10.2064 3.96391 10.2003C5.41224 10.1666 6.86668 10.185 8.33335 10.1819Z" fill="#4485C4"/>
</svg>
