<svg width="24" height="24" viewBox="0 0 24 24" fill="none" xmlns="http://www.w3.org/2000/svg">
<path d="M12 21.1357C11.5416 21.1357 11.0833 21.1357 10.6311 21.1816C9.85805 21.2366 9.59833 20.9188 9.54945 20.1243C9.41195 18.0069 8.58391 17.463 6.59784 18.1933C5.62924 18.5477 4.95703 18.4988 4.4926 17.4844C4.23448 16.9336 3.92771 16.407 3.57595 15.9108C2.94957 14.9942 3.2704 14.3617 4.06483 13.7353C5.44286 12.6689 5.44897 11.3306 3.97316 10.3376C3.02901 9.70205 3.1604 9.07567 3.53928 8.29041C3.71345 7.92681 3.9915 7.61209 4.15038 7.23932C4.72787 5.82157 5.51313 5.36935 7.04088 6.13934C8.36086 6.80544 9.55556 5.93462 9.55556 4.39159C9.55556 3.14801 10.0169 2.76913 11.175 2.86385C11.9816 2.92801 12.7974 2.86385 13.6194 2.86385C14.041 2.86385 14.4657 2.86385 14.4199 3.47495C12.4766 3.78049 12.4766 3.78049 12.4277 5.80018C12.4589 6.30727 12.3968 6.81577 12.2444 7.30043C11.9541 7.92986 11.3277 8.05208 10.7686 8.24763C8.9689 8.85873 8.15003 10.2368 8.01864 12.0334C7.89031 13.5611 9.07279 15.2264 10.6525 15.9444C11.23 16.2072 11.9694 16.198 12.2994 16.8977C12.4766 18.3216 12.7699 19.7607 12 21.1357Z" fill="#94A6B0"/>
<path d="M12 21.1357V16.583L12.1528 16.4241C12.9197 16.0666 13.8058 16.0483 14.5177 15.5075C15.9446 14.3953 16.4152 12.947 16.1494 11.2298C15.8988 9.62259 14.8722 8.66011 13.3994 8.13456C12.9585 8.0301 12.5361 7.85907 12.1467 7.62735L12 7.41652C12 6.61598 12 5.81544 12 5.01796C12 2.94022 12.3239 2.72939 14.3986 3.45354C14.4933 3.84465 14.6002 4.23575 14.6827 4.62991C15.0127 6.21571 15.9049 6.80542 17.3166 6.07516C18.5846 5.41517 19.2721 5.72072 19.8007 6.92459C19.9842 7.34011 20.2105 7.73538 20.4759 8.10401C21.1359 9.03899 20.9251 9.73259 20.039 10.414C18.5907 11.5201 18.5113 12.6536 19.9443 13.6772C21.0473 14.4656 21.0595 15.205 20.3843 16.198C20.1455 16.5257 19.9407 16.8768 19.7732 17.2461C19.2904 18.4346 18.551 18.6119 17.396 18.1016C15.8255 17.4141 14.7958 17.9366 14.6674 19.608C14.5177 21.6612 13.2222 21.1968 12 21.1357Z" fill="#79919D"/>
<path d="M11.9999 16.583C9.9069 16.8397 7.70083 14.5847 7.48694 12.3053C7.30056 10.2948 8.94441 8.27513 11.1535 7.72208C11.4438 7.64875 11.7249 7.52653 12.0091 7.41653C12.5927 8.24763 12.4705 8.98706 11.7219 9.64705C9.24996 11.3153 9.23163 12.7545 11.6944 14.6336C12.3452 15.1989 12.5468 15.8314 11.9999 16.5769V16.583Z" fill="#7A919D"/>
<path d="M11.3888 9.49732C12.2688 9.00539 11.9754 8.16513 11.9999 7.41959C15.1471 7.92985 16.5831 9.35066 16.5831 11.9753C16.5831 14.875 14.9484 16.5127 11.9999 16.583C12.0274 15.8955 12.0946 15.1958 11.3888 14.7497C11.7402 14.3311 12.281 14.325 12.7393 14.1386C13.7293 13.7292 14.2854 12.9867 14.2274 11.9295C14.1754 10.9212 13.5368 10.304 12.5713 10.0198C12.1557 9.88843 11.6516 9.95565 11.3888 9.49732Z" fill="#94A6B0"/>
</svg>
