<svg width="24" height="24" viewBox="0 0 24 24" fill="none" xmlns="http://www.w3.org/2000/svg">
<path d="M21.1269 14.7928L21.1666 16.5833C20.2835 17.2739 19.2385 17.0019 18.2547 17.0386C17.1516 17.0783 16.0424 17.0722 14.9394 17.0386C13.8363 17.005 13.3383 17.4144 13.3811 18.5297C13.4024 19.1408 13.3811 19.7519 12.9044 20.2225L11.178 20.1919C10.5669 19.7152 10.6433 19.0247 10.6402 18.3861C10.6402 17.4266 10.1819 17.0416 9.25301 17.0416C7.74662 17.0416 6.24023 17.06 4.73385 17.0416C4.09218 17.0416 3.40774 17.1028 2.91885 16.5253L2.89746 15.0983C3.2244 14.3069 3.9394 14.3925 4.58412 14.3772C6.1119 14.3466 7.63968 14.3314 9.16745 14.3772C10.2461 14.4108 10.8113 14.0411 10.7197 12.8953C10.6647 12.1925 10.8022 11.4805 10.6372 10.7564C10.133 10.8786 9.98634 11.3889 9.58912 11.6119C9.04523 11.9175 8.61134 11.6944 8.18967 11.3858C7.76801 11.0772 7.47162 10.5608 7.85356 10.078C8.63884 9.08499 8.2844 8.48916 7.33106 7.93916C6.71995 7.57555 6.56412 6.90944 6.57329 6.21888C6.46634 4.66972 7.08968 3.50555 8.58384 3.05028C10.1666 2.52778 11.2758 3.33444 12.0916 4.81333C12.5347 4.10444 12.9563 3.44444 13.7049 3.13889C14.0517 2.98483 14.427 2.90524 14.8065 2.90524C15.1859 2.90524 15.5612 2.98483 15.908 3.13889C17.2891 3.72555 17.7413 4.79805 17.4358 6.80555C17.454 6.95804 17.4336 7.11265 17.3764 7.2552C17.3193 7.39775 17.2273 7.52367 17.1088 7.62138C16.1249 8.33332 15.3977 9.00554 16.3694 10.3194C16.6749 10.7319 16.1677 11.2361 15.7583 11.563C15.3488 11.89 14.9058 11.7586 14.5086 11.4653C14.1113 11.1719 13.8974 10.8053 13.378 10.3378C13.2833 11.288 13.378 12.1039 13.3261 12.9105C13.268 13.9341 13.6958 14.3864 14.7469 14.3558C16.3144 14.3161 17.8849 14.3314 19.4494 14.3558C20.0269 14.365 20.6685 14.2428 21.1269 14.7928Z" fill="#C52A29"/>
<path d="M6.54581 6.19443C7.08969 7.3372 7.79858 8.28442 9.19191 8.4097C9.22858 9.10942 8.67858 9.40887 8.3608 9.82137C7.97275 10.3255 7.77108 10.6433 8.42191 11.1628C9.07275 11.6822 9.33858 11.4989 9.72663 10.955C10.0689 10.4753 10.4691 10.0383 11.1597 9.19498C11.1597 11.1322 11.1597 12.6141 11.1597 14.0839C11.1597 14.8875 10.6066 14.7897 10.1086 14.7897C8.23247 14.7897 6.35942 14.7897 4.48331 14.7897C3.93942 14.7897 3.35887 14.6461 2.87915 15.0616C2.87915 13.0297 2.87915 11.0008 2.87915 8.97192C2.86998 7.11109 3.39248 6.57332 5.27775 6.49998C5.71164 6.46943 6.19442 6.63137 6.54581 6.19443Z" fill="#E8A9A9"/>
<path d="M21.1269 14.7928C18.7497 14.7928 16.3694 14.7928 13.9922 14.8172C13.213 14.8325 12.9105 14.588 12.9411 13.7814C12.993 12.3789 12.9563 10.9733 12.9563 9.12472C13.6255 9.9436 14.0686 10.4508 14.4841 10.9855C14.8294 11.4439 15.0952 11.6975 15.6849 11.2025C16.2135 10.7533 16.3999 10.4386 15.8622 9.88249C15.4661 9.42502 15.0948 8.94665 14.7499 8.44944C16.0455 8.34555 16.7819 7.61833 17.451 6.79639H17.9033C21.1666 6.87278 21.1666 6.87278 21.1666 10.1117C21.1666 11.673 21.1421 13.2222 21.1269 14.7928Z" fill="#E8A9A9"/>
<path d="M12.8922 20.2194C13.1275 19.0797 12.4094 17.5458 13.1978 16.8583C14.09 16.0914 15.6269 16.6597 16.8827 16.6108C18.3005 16.5589 19.7244 16.5802 21.1452 16.568C21.1941 20.2347 21.1941 20.2347 17.5794 20.2347C16.0241 20.25 14.4444 20.2255 12.8922 20.2194Z" fill="#E8A8A8"/>
<path d="M2.90664 16.51C5.16469 16.5436 7.42274 16.6444 9.67774 16.5803C10.8541 16.5466 11.3338 16.8858 11.1811 18.0805C11.1383 18.7827 11.1383 19.4867 11.1811 20.1889C9.15218 20.2041 7.12635 20.2316 5.09747 20.2347C3.20608 20.2347 2.90053 19.9291 2.88831 18.0286C2.86997 17.5244 2.89442 17.0172 2.90664 16.51Z" fill="#E8A9A9"/>
<path d="M9.39971 4.84692C9.90082 4.94776 10.2553 5.21053 10.1819 5.76359C10.176 5.87812 10.1453 5.99001 10.092 6.09157C10.0387 6.19312 9.9641 6.28194 9.87323 6.35191C9.78236 6.42188 9.67741 6.47134 9.56561 6.4969C9.45381 6.52246 9.3378 6.52351 9.22555 6.49998C9.01975 6.48285 8.82917 6.38473 8.69568 6.22718C8.56218 6.06962 8.4967 5.86551 8.5136 5.6597C8.52888 5.11581 8.86499 4.86831 9.39971 4.84692Z" fill="#F7F4F2"/>
<path d="M14.8599 4.85001C15.2999 4.89278 15.6788 5.10362 15.6758 5.66889C15.6838 5.78369 15.6667 5.89885 15.6259 6.00641C15.585 6.11398 15.5212 6.21138 15.439 6.29187C15.3567 6.37236 15.258 6.43403 15.1496 6.4726C15.0412 6.51118 14.9256 6.52574 14.8111 6.51528C14.7087 6.5202 14.6063 6.50462 14.51 6.46947C14.4138 6.43432 14.3255 6.3803 14.2503 6.31057C14.1752 6.24085 14.1147 6.15682 14.0725 6.06342C14.0303 5.97003 14.0071 5.86914 14.0044 5.76667C13.9616 5.24723 14.2305 4.90195 14.8599 4.85001Z" fill="#F7F4F2"/>
</svg>
