<svg width="24" height="24" viewBox="0 0 24 24" fill="none" xmlns="http://www.w3.org/2000/svg">
<path d="M12.0489 2.86388C13.8272 2.86388 15.6086 2.86388 17.3869 2.86388C18.6397 2.86388 19.3547 3.29471 19.3455 4.74304C19.315 9.65026 18.3311 14.3772 16.8278 19.0277C16.3389 20.5311 15.4986 21.4722 13.705 21.2033C12.6443 21.0627 11.5696 21.0627 10.5089 21.2033C8.91085 21.405 8.08585 20.6716 7.51446 19.2783C6.09363 15.8316 5.61085 12.1741 5.00586 8.54415C4.82558 7.45943 4.79808 6.35026 4.71558 5.25027C4.5903 3.58499 5.21058 2.89444 6.85446 2.87916C8.59307 2.85166 10.3225 2.86388 12.0489 2.86388Z" fill="#93C7EC"/>
<path d="M12.0642 9.27136C13.2864 9.27136 14.5086 9.31719 15.7064 9.27136C16.6658 9.22247 17.0294 9.61664 16.8614 10.518C16.4529 12.9494 15.9041 15.3551 15.2175 17.723C14.8722 18.8536 14.255 19.4127 12.9105 19.373C9.46999 19.263 9.47916 19.3333 8.48305 15.9722C7.92083 14.0838 7.66111 12.1405 7.26083 10.2186C7.08667 9.36608 7.435 9.25303 8.10416 9.25914C9.43027 9.28053 10.7472 9.27136 12.0642 9.27136Z" fill="#57A0D7"/>
</svg>
