<svg width="24" height="24" viewBox="0 0 24 24" fill="none" xmlns="http://www.w3.org/2000/svg">
<path d="M21.136 11.0832C21.3194 15.7307 17.0661 19.8098 11.9145 19.3698C9.50975 19.1651 7.60005 19.3943 6.00812 21.139C5.81256 20.9954 5.66895 20.9373 5.67201 20.8884C5.79423 18.6885 5.72395 16.5893 3.9273 14.9057C3.36508 14.3832 3.15425 13.4971 3.08703 12.666C2.94037 10.8327 3.08703 10.6249 4.8959 10.6096C9.74197 10.5669 14.588 10.5821 19.4341 10.6096C20.0391 10.6066 20.6533 10.6341 21.136 11.0832Z" fill="#44A147"/>
<path d="M21.136 11.0832C15.7216 11.0832 10.3102 11.1321 4.89889 11.0588C3.63696 11.0405 2.98919 11.3307 3.08697 12.6599C2.36892 9.60436 3.7714 6.38383 6.65277 4.48024C11.5966 1.21999 18.386 3.06247 20.7113 8.28437C21.1182 9.15731 21.2656 10.1289 21.136 11.0832Z" fill="#6AB36C"/>
</svg>
