<svg width="24" height="24" viewBox="0 0 24 24" fill="none" xmlns="http://www.w3.org/2000/svg">
<path d="M12.9564 6.59164C16.1952 7.08053 18.4166 8.92608 19.1836 12.0427C19.8894 14.8966 19.2202 17.5825 16.8064 19.5869C15.6406 20.5349 14.2164 21.1098 12.7193 21.2368C11.2222 21.3637 9.72149 21.0369 8.41276 20.2988C5.66582 18.7222 4.3611 15.8714 4.88359 12.5347C5.32665 9.65025 7.63359 7.34025 10.7319 6.71081C11.3186 6.91248 11.343 7.45025 11.4775 7.93303C11.5539 8.23859 11.615 8.60525 11.9725 8.60831C12.443 8.60831 12.4461 8.16831 12.5102 7.82609C12.5927 7.3922 12.5164 6.8972 12.9564 6.59164Z" fill="#F37046"/>
<path d="M11.4163 4.05554C12.1313 2.68054 13.1946 1.91665 14.8019 2.00526C15.6177 2.04499 15.8224 2.36582 15.6666 3.13887C15.3305 4.85304 14.1388 5.62915 12.6294 6.12415C11.9602 6.49387 11.3246 6.35942 10.9702 5.74831C10.6158 5.1372 10.9121 4.52609 11.4163 4.05554Z" fill="#49A249"/>
<path d="M11.4164 4.05553C11.0161 5.2197 11.1384 6.08136 12.6386 6.14553L12.9625 6.6008C12.9625 7.04997 12.9625 7.50219 12.987 7.95136C13.0114 8.58386 12.987 9.22247 12.1681 9.28969C11.3859 9.3508 11.1231 8.84052 11.1139 8.14691C11.1542 7.6424 11.0216 7.1392 10.7381 6.71997C10.567 5.8033 9.91614 5.2747 9.16142 4.84997C8.58697 4.52609 8.1317 4.10747 8.51975 3.41692C8.94447 2.6622 9.59836 2.83331 10.2034 3.18164C10.6281 3.44442 11.0131 3.74998 11.4164 4.05553Z" fill="#387F3F"/>
</svg>
