<svg width="24" height="24" viewBox="0 0 24 24" fill="none" xmlns="http://www.w3.org/2000/svg">
<path d="M6.8056 7.41664C7.80476 5.68109 8.46171 5.42137 10.7259 5.86137C11.557 6.11498 12.0428 6.73526 12.437 7.45637C12.5073 8.04303 12.3331 8.64497 12.602 9.22553C13.1336 10.3775 13.7295 10.5455 14.7622 9.83664C15.6361 9.22553 16.5284 8.65109 17.5795 9.51275C19.9475 10.8022 20.082 13.048 17.885 14.5147C17.1822 14.8202 16.7484 14.3222 16.2809 13.9555C15.6025 13.4269 14.8631 13.1733 14.0259 13.4911C13.3903 13.7325 12.8434 14.1419 12.6845 14.8233C12.495 15.5597 13.2223 15.6666 13.6531 15.9722C14.7898 16.7208 15.3459 17.6711 14.7714 19.0277C14.4903 20.3966 13.6561 21.1116 12.2567 21.1972C10.8573 21.2827 9.89781 20.6625 9.45782 19.3638C9.38764 19.1048 9.24671 18.8703 9.0508 18.6868C8.8549 18.5034 8.61177 18.378 8.34865 18.325C7.95539 18.2148 7.59937 18 7.31849 17.7036C7.03762 17.4071 6.84241 17.04 6.75365 16.6413C6.47254 15.355 6.58865 14.4016 8.2356 14.1755C9.25004 14.035 9.69309 13.1733 9.7267 12.1558C9.77659 11.6417 9.6371 11.127 9.33442 10.7084C9.03174 10.2899 8.58669 9.99617 8.08282 9.88247C6.61921 9.50053 6.4206 8.6572 6.8056 7.41664Z" fill="#7DB342"/>
<path d="M6.80553 7.41663C6.68637 8.52579 6.87275 9.22551 8.26303 9.44857C9.65331 9.67162 10.3194 11.0191 10.1666 12.4644C10.0139 13.9097 9.21636 14.698 7.79247 14.7499C6.2647 14.7866 7.04081 15.9936 6.75359 16.6536C6.59927 15.5056 6.06077 14.4436 5.22581 13.6408C4.82498 13.2333 4.60034 12.6846 4.60034 12.113C4.60034 11.5414 4.82498 10.9927 5.22581 10.5852C6.19442 9.64412 6.49998 8.58385 6.80553 7.41663Z" fill="#97C268"/>
<path d="M17.5733 9.50359C17.1433 9.39438 16.6945 9.38186 16.2591 9.46692C15.8238 9.55199 15.4127 9.73252 15.0555 9.99554C14.5788 10.3378 14.3252 11.3491 13.543 10.8541C12.6538 10.2919 11.9205 9.47609 12.0152 8.26915C12.0802 7.97515 12.1776 7.68924 12.3055 7.41665C12.1497 6.77193 12.1252 6.15471 12.663 5.65054C12.9105 5.80332 12.8983 6.21582 13.4635 6.02943C16.2777 5.09138 17.891 6.47554 17.5733 9.50359Z" fill="#97C268"/>
<path d="M14.7714 19.0277C14.8294 17.5 14.3252 16.3572 12.7027 15.9355C11.9755 15.7491 11.945 15.2663 12.2169 14.6369C12.3736 14.2339 12.6258 13.8749 12.9517 13.5907C13.2777 13.3065 13.6677 13.1057 14.0883 13.0053C14.5089 12.905 14.9476 12.9082 15.3667 13.0146C15.7858 13.121 16.1729 13.3275 16.4947 13.6163C16.9194 13.9677 17.2464 14.4566 17.8636 14.5086C17.7566 14.7163 17.4877 14.8141 17.558 15.1441C17.8911 16.895 17.0875 17.9644 15.4527 18.4594C15.1166 18.5602 14.9791 18.8138 14.7714 19.0277Z" fill="#96C268"/>
<path d="M12.6477 5.65359C12.6477 6.2647 12.663 6.87581 12.2902 7.4197C11.6677 7.01056 11.1337 6.48066 10.7197 5.86137C10.3469 5.02109 9.87025 4.27554 9.02386 3.82637C8.46469 3.52082 8.17136 3.06249 8.52886 2.46971C8.88636 1.87693 9.44553 1.9136 9.98636 2.19165C10.6547 2.54094 11.2389 3.03154 11.6985 3.62938C12.1581 4.22722 12.482 4.91795 12.6477 5.65359Z" fill="#5B8E41"/>
</svg>
