<svg width="24" height="24" viewBox="0 0 24 24" fill="none" xmlns="http://www.w3.org/2000/svg">
<path d="M13.8517 18.4166C10.5517 18.4349 7.25168 18.4349 3.95474 18.4777C3.20002 18.4777 2.91585 18.2852 2.86085 17.4633C2.72946 15.5016 3.86001 14.4322 5.38473 13.6805C7.64584 12.5713 9.89778 12.7119 12.0672 14.0166C14.0106 14.4444 14.7286 16.2105 13.8517 18.4166Z" fill="#3F83C4"/>
<path d="M13.8517 18.4166C13.9678 16.6627 13.9403 14.9639 12.0673 14.0136C15.2084 12.3452 18.2272 12.6936 20.4456 14.8508C21.4142 15.7889 21.1942 16.8797 21.1453 17.9583C21.1147 18.6213 20.4884 18.4563 20.0697 18.4563C17.9981 18.4441 15.9264 18.4166 13.8517 18.4166Z" fill="#3AC2D6"/>
<path d="M8.39139 11.288C7.6263 11.2346 6.91187 10.8861 6.39881 10.3161C5.88575 9.746 5.61418 8.99893 5.64139 8.23247C5.68399 7.51815 6.00335 6.84857 6.53165 6.36591C7.05995 5.88325 7.75558 5.62553 8.47083 5.64747C9.95888 5.67192 11.3125 7.03469 11.2942 8.48608C11.2758 9.93747 9.79083 11.3339 8.39139 11.288Z" fill="#4184C5"/>
<path d="M15.7155 11.3094C14.9435 11.2683 14.219 10.9243 13.699 10.3523C13.179 9.78026 12.9055 9.02624 12.938 8.25386C12.9824 7.53999 13.2979 6.87005 13.8198 6.38104C14.3418 5.89202 15.0308 5.62087 15.7461 5.62303C17.2463 5.64442 18.6275 7.0133 18.5816 8.43719C18.5358 9.86108 17.0569 11.3552 15.7155 11.3094Z" fill="#3DC2D6"/>
</svg>
