<svg width="24" height="24" viewBox="0 0 24 24" fill="none" xmlns="http://www.w3.org/2000/svg">
<path d="M3.21226 11.0833C2.41782 9.55554 3.11143 8.44943 4.2542 7.50832C5.63837 6.36555 7.34031 5.94694 9.05142 5.76972C12.0367 5.46416 15.0342 5.41527 17.8575 6.71083C19.9964 7.69166 20.4853 8.71527 20.0697 11.0894C19.5503 11.6333 18.8689 11.5447 18.2364 11.5478C13.8486 11.5478 9.45984 11.5478 5.07004 11.5478C4.40698 11.5325 3.72559 11.6272 3.21226 11.0833Z" fill="#FECD82"/>
<path d="M20.1277 12.168C21.6372 13.3139 21.6402 14.4383 20.1277 15.7217C19.6388 16.1708 19.0033 16.1097 18.4166 16.1097C13.9127 16.1097 9.40783 16.1097 4.90191 16.1097C4.2908 16.1097 3.67969 16.1708 3.17858 15.7094C1.59275 14.4139 1.59581 13.378 3.17858 12.0428C3.67358 11.4531 4.36108 11.5447 5.01191 11.5417C9.41191 11.5417 13.8129 11.5417 18.2149 11.5417C18.8994 11.5539 19.6388 11.4653 20.1277 12.168Z" fill="#4F352F"/>
<path d="M20.1522 16.6017C20.7633 18.435 20.1522 19.3211 18.273 19.3272C13.8649 19.3435 9.45773 19.3435 5.05163 19.3272C2.89136 19.3272 2.50636 18.7528 3.19691 16.62C3.69802 16.0303 4.38858 16.125 5.03024 16.1219C9.45264 16.1219 13.874 16.1219 18.2944 16.1219C18.9513 16.125 19.6388 16.0394 20.1522 16.6017Z" fill="#FECC81"/>
<path d="M20.1278 12.168C16.8033 11.8839 13.4728 12.0978 10.1422 12.0489C7.82001 12.0153 5.49779 12.0489 3.17252 12.0489C2.71724 11.6944 2.95557 11.3889 3.21224 11.0833H20.0697C20.3661 11.4255 20.4761 11.7861 20.1278 12.168Z" fill="#8EC786"/>
<path d="M20.1522 16.6016L3.19691 16.623C2.78441 16.3175 2.96774 16.0119 3.16024 15.7064H20.1308C20.2713 16.0119 20.3966 16.3022 20.1522 16.6016Z" fill="#DD3C35"/>
<path d="M11.0833 7.51139C11.013 8.1225 10.6311 8.37611 10.0413 8.31194C9.58301 8.26305 9.25912 8.00639 9.32634 7.51444C9.34409 7.258 9.45825 7.01778 9.64587 6.84206C9.83349 6.66634 10.0807 6.56815 10.3377 6.56722C10.8877 6.55806 11.0833 6.98583 11.0833 7.51139Z" fill="#FFDFB1"/>
<path d="M14.7316 8.41584C14.6674 9.02695 14.2885 9.28667 13.6957 9.22861C13.2405 9.18278 12.9135 8.92306 12.9746 8.43722C12.9908 8.18126 13.103 7.94083 13.2888 7.76407C13.4747 7.5873 13.7204 7.48723 13.9769 7.48389C14.5391 7.46861 14.7499 7.89028 14.7316 8.41584Z" fill="#FFDFB1"/>
<path d="M6.55803 8.37915C6.67487 8.36684 6.79298 8.38102 6.90359 8.42061C7.0142 8.46021 7.11448 8.52422 7.19696 8.60788C7.27945 8.69154 7.34203 8.7927 7.38006 8.90387C7.41809 9.01503 7.43059 9.13333 7.41664 9.24998C7.434 9.36476 7.4261 9.48195 7.39349 9.59336C7.36087 9.70477 7.30432 9.80772 7.2278 9.89501C7.15127 9.98231 7.05661 10.0518 6.95043 10.0988C6.84424 10.1457 6.72909 10.1688 6.61303 10.1666C6.09664 10.2033 5.66886 9.99859 5.6597 9.44248C5.65053 8.88637 6.06303 8.55332 6.55803 8.37915Z" fill="#FFDFB1"/>
<path d="M17.5367 8.37917C17.6528 8.36834 17.7699 8.38361 17.8793 8.42387C17.9888 8.46412 18.0878 8.52834 18.1693 8.61182C18.2507 8.6953 18.3124 8.79594 18.35 8.90636C18.3875 9.01678 18.3998 9.13419 18.3861 9.25001C18.404 9.36461 18.3965 9.48174 18.3643 9.59316C18.3321 9.70458 18.2758 9.8076 18.1995 9.89496C18.1232 9.98232 18.0287 10.0519 17.9227 10.0989C17.8166 10.1458 17.7015 10.1689 17.5856 10.1667C17.0692 10.2033 16.6383 9.99862 16.6292 9.44251C16.62 8.8864 17.0417 8.55334 17.5367 8.37917Z" fill="#FFDFB1"/>
</svg>
