<svg width="24" height="24" viewBox="0 0 24 24" fill="none" xmlns="http://www.w3.org/2000/svg">
<path d="M9.31724 2.88529C9.65029 1.96863 10.3714 1.78529 11.1658 2.06029C11.8686 2.30779 12.4095 2.88529 12.2567 3.69807C11.8197 6.05084 13.0267 6.96139 15.1197 7.55417C17.5367 8.24167 17.5 8.3975 17.5 10.9947C17.5 12.5225 17.5 14.0503 17.5 15.578C17.5 16.3878 17.3014 17.0844 16.5344 17.5C14.1982 17.7363 11.8444 17.7434 9.50668 17.5214C7.60002 16.1433 6.52141 14.0503 4.97225 12.3789C4.64836 12.0275 4.97225 11.7128 5.16169 11.4439C5.46725 11.0283 5.82475 10.738 6.43891 10.8817C7.35558 11.0955 8.29974 11.2147 9.23168 11.3767C9.58918 8.55028 9.41807 5.71473 9.31724 2.88529Z" fill="#A3ABD7"/>
<path d="M13.3384 22.0833H10.8939C9.16145 22.0833 9.06062 21.9213 9.23173 20.1522C9.28978 19.5808 9.47923 19.3425 10.0537 19.3455C12.2353 19.3455 14.42 19.373 16.6017 19.3455C17.8453 19.3272 17.4206 20.2255 17.4817 20.8427C17.5459 21.5272 17.5734 22.175 16.5284 22.1077C15.4834 22.0405 14.4017 22.0833 13.3384 22.0833Z" fill="#7B86C1"/>
<path d="M9.31725 2.88528C9.81225 5.70861 9.50669 8.54721 9.47919 11.3797C9.47919 11.4011 9.40586 11.4347 9.36614 11.4347C9.31735 11.4233 9.27086 11.4036 9.22864 11.3767C9.25919 8.54518 9.28873 5.71472 9.31725 2.88528Z" fill="#9598B4"/>
<path d="M9.49756 17.5L16.5253 17.4786C14.2094 17.9719 11.8164 17.9792 9.49756 17.5Z" fill="#AFACB2"/>
</svg>
