<svg width="24" height="24" viewBox="0 0 24 24" fill="none" xmlns="http://www.w3.org/2000/svg">
<path d="M16.7758 10.1667C17.8056 14.1389 16.0578 16.9347 13.0633 19.2569C12.385 19.7825 11.8717 20.5127 11.2056 21.0597C10.79 21.4019 10.5517 22.34 9.81529 21.8847C9.0789 21.4294 8.50751 20.7511 8.74279 19.7183C8.97196 18.7314 9.09724 17.72 9.3539 16.7453C9.54946 16.0211 9.2989 15.8286 8.6389 15.853C7.26594 15.8714 5.894 15.8714 4.52308 15.853C2.55836 15.8255 2.11225 15.2725 1.98086 13.2833C1.84947 11.2942 2.79364 9.74499 3.50863 8.08888C5.67502 3.2 4.37947 4.02805 9.70224 3.94861C11.3797 3.92416 13.0633 3.94861 14.7317 3.94861C16.0761 3.93333 16.6933 4.67277 16.7422 5.91333C16.8186 7.3311 16.7758 8.75499 16.7758 10.1667Z" fill="#DD5A5A"/>
<path d="M18.4441 9.40276C18.4441 7.98193 18.4961 6.55804 18.4258 5.14026C18.383 4.2236 18.6183 3.91804 19.59 3.91804C22.0925 3.91804 22.0925 3.85693 22.0925 6.33193C22.0925 8.80692 22.0405 11.2208 22.1169 13.6378C22.1505 14.6644 21.8114 15.0036 20.8366 14.86C20.4839 14.8111 20.1261 14.8111 19.7733 14.86C18.7069 15.0097 18.3525 14.585 18.4227 13.5155C18.5144 12.1497 18.4441 10.7778 18.4441 9.40276Z" fill="#D3302E"/>
</svg>
