<svg width="24" height="24" viewBox="0 0 24 24" fill="none" xmlns="http://www.w3.org/2000/svg">
<path d="M7.44423 13.9341C6.41756 9.92219 8.21728 7.09275 11.2514 4.74914C11.8901 4.2572 12.3789 3.57581 12.9962 3.05026C13.4025 2.70193 13.6898 1.82804 14.4414 2.36887C15.0862 2.83943 15.6637 3.41998 15.4039 4.41609C15.1442 5.4122 15.022 6.40831 14.7928 7.39525C14.6125 8.13775 14.8417 8.40969 15.6087 8.3883C16.9806 8.35164 18.3587 8.36997 19.7245 8.3883C21.6678 8.40358 21.9581 8.81608 22.1261 10.683C22.3645 13.3047 20.8734 15.3366 20.0056 17.5733C18.9484 20.2683 18.8812 20.25 16.0517 20.25C13.9128 20.25 11.7739 20.25 9.63506 20.25C8.01256 20.25 7.46867 19.703 7.44117 18.0591C7.41673 16.678 7.44423 15.3061 7.44423 13.9341Z" fill="#6AB36C"/>
<path d="M5.7484 14.7683C5.7484 16.238 5.69951 17.7077 5.76673 19.1713C5.80951 20.0666 5.46118 20.253 4.63618 20.2652C1.99313 20.2958 1.99313 20.3294 1.99313 17.6741C1.99313 15.2938 2.03896 12.9166 1.97174 10.5394C1.94729 9.55552 2.23757 9.24997 3.24896 9.24997C5.7484 9.28358 5.7484 9.23164 5.7484 11.725V14.7683Z" fill="#47A148"/>
</svg>
