<svg width="24" height="24" viewBox="0 0 24 24" fill="none" xmlns="http://www.w3.org/2000/svg">
<path d="M5.61394 20.1919C4.47116 20.2836 4.04033 19.5808 4.03422 18.6152C4.01283 15.465 3.90894 12.3086 4.10144 9.17053C4.27866 6.32887 7.83532 3.24582 10.9581 2.89749C15.0342 2.43916 18.597 4.71249 19.9781 8.60831C20.1532 9.083 20.2452 9.58432 20.25 10.0903C20.25 12.7832 20.25 15.4762 20.25 18.1691C20.25 19.3913 19.8314 20.253 18.4167 20.2072C17.8056 19.4677 18.0011 18.5725 17.9706 17.7291C17.94 16.8858 17.9431 16.0058 17.9706 15.1472C17.9981 14.1389 17.5886 13.6408 16.5406 13.6652C15.9448 13.6652 15.3184 13.708 14.8264 13.2314C15.6575 12.5255 16.6414 13.0266 17.5459 12.9044C18.0317 12.8402 18.3617 12.8494 18.4625 12.1955C18.9086 8.94442 16.6445 5.6261 13.4636 4.99971C10.1025 4.3336 6.82394 6.26471 5.99894 9.45164C5.69338 10.5914 5.84005 11.7678 5.89199 12.9319C6.04172 15.3611 6.45116 17.8055 5.61394 20.1919Z" fill="#9176B5"/>
<path d="M5.61389 20.1919C5.76056 17.775 5.27778 15.3305 5.88889 12.9319C9.37527 12.993 9.37527 12.993 9.37527 16.5252V16.678C9.37833 20.3905 9.37833 20.3905 5.61389 20.1919Z" fill="#4856A6"/>
<path d="M14.8081 13.2222C18.4381 13.048 18.4381 13.048 18.435 16.6964C18.435 17.8636 18.4136 19.0308 18.4014 20.198C14.7684 20.3264 14.7653 20.3264 14.7684 16.7055C14.7714 15.5536 14.7959 14.3925 14.8081 13.2222Z" fill="#4655A5"/>
</svg>
