<svg width="24" height="24" viewBox="0 0 24 24" fill="none" xmlns="http://www.w3.org/2000/svg">
<path d="M12.9167 23C12.6417 21.4386 13.3659 20.9772 14.8204 21.185C15.5048 21.2828 16.2198 21.1544 16.9165 21.2094C18.1112 21.3042 18.6123 20.8214 18.4167 19.6389C18.8934 19.0003 19.3548 18.3433 20.2042 18.1478C20.2684 19.8742 20.6412 21.68 19.0279 23H12.9167Z" fill="#4957A6"/>
<path d="M20.2073 18.1447C19.7889 18.8244 19.1603 19.349 18.4167 19.6389C17.2342 19.4342 15.9875 19.9444 14.8417 19.3181C15.3275 18.8383 15.9631 18.8842 16.5559 18.8933C17.6223 18.9147 17.9737 18.3739 17.9584 17.39C17.937 16.1678 17.9584 14.9639 17.9584 13.7508C17.9584 13.1397 17.9584 12.5286 18.4045 12.0336C18.5298 10.2889 18.432 8.57778 17.5459 7.01639C16.2137 4.66667 13.1795 3.44445 10.4356 4.15334C9.12424 4.48595 7.96134 5.2466 7.13114 6.3148C6.30093 7.383 5.85087 8.69767 5.85227 10.0506C5.85227 10.7075 5.87977 11.3644 5.8981 12.0244C6.24949 13.6836 5.97449 15.3581 6.0356 17.0264C6.09977 18.7528 6.06921 18.7589 7.81699 18.8964C8.32727 18.9361 8.83449 18.9636 9.22865 19.3547C8.00643 19.8619 6.74754 19.6603 5.53449 19.4922C5.09462 19.4458 4.68982 19.2309 4.40499 18.8925C4.12015 18.5541 3.97741 18.1186 4.00671 17.6772C4.00671 14.5361 3.8631 11.3797 4.09227 8.25389C4.36115 4.73695 8.87421 1.64778 12.7975 2.03278C17.2953 2.47584 20.25 5.72084 20.25 10.2369C20.25 12.8739 20.2195 15.5078 20.2073 18.1447Z" fill="#9176B5"/>
<path d="M18.4168 12.0306C18.4168 13.9983 18.3862 15.9722 18.4565 17.937C18.4932 18.9545 18.2334 19.4647 17.1243 19.3364C16.3673 19.2911 15.6086 19.2839 14.8509 19.315C14.8295 17.2097 14.8234 15.1014 14.7684 12.9931C14.7684 12.2933 14.964 11.9878 15.7034 12.0245C16.5987 12.0703 17.5001 12.0306 18.4168 12.0306Z" fill="#4856A4"/>
<path d="M9.25002 19.3547C5.62002 19.2294 5.58335 19.2264 5.6353 15.5842C5.65058 14.3986 5.35419 13.1733 5.90419 12.0244C9.38446 12.0642 9.40585 12.0642 9.37224 15.5994C9.36308 16.8522 9.55558 18.1111 9.25002 19.3547Z" fill="#4856A5"/>
</svg>
