<svg width="24" height="24" viewBox="0 0 24 24" fill="none" xmlns="http://www.w3.org/2000/svg">
<path d="M12.2811 5.58333C14.1388 3.70111 17.0874 3.29778 19.0277 4.64833C21.2308 6.1761 21.8755 8.98109 20.6258 11.5416C19.4677 13.9189 17.5916 15.7064 15.6697 17.4205C14.4872 18.4777 13.5033 19.7977 12.003 20.4761C11.5508 19.865 11.5141 19.1713 11.5141 18.4594C11.5141 14.8875 11.4958 11.3125 11.5141 7.74054C11.5355 6.9461 11.4316 6.08444 12.2811 5.58333Z" fill="#EC437B"/>
<path d="M12.2811 5.58332C12.0464 6.14397 11.95 6.75286 12 7.3586C12 11.728 12 16.0985 12 20.47C9.22254 18.27 6.59782 15.908 4.4406 13.0816C3.26727 11.5539 2.57367 9.8122 2.97089 7.83526C3.64616 4.47416 7.62754 2.76305 10.625 4.51083C11.1995 4.83777 11.7342 5.21971 12.2811 5.58332Z" fill="#F06795"/>
</svg>
