<svg width="24" height="24" viewBox="0 0 24 24" fill="none" xmlns="http://www.w3.org/2000/svg">
<path d="M21.1667 8.42804C21.1667 8.81609 21.292 9.32637 20.6839 9.34471C20.1828 9.34471 19.6359 9.58609 19.2936 8.81915C17.7445 5.34805 15.627 4.76749 12.6753 6.98582C12.1284 7.39832 11.9084 7.29138 11.4348 6.93388C8.64505 4.76138 6.24033 5.4336 4.95089 8.76721C4.61478 9.62276 3.97617 9.39665 3.42311 9.32943C2.62867 9.23471 2.91895 8.58082 3.01061 8.13165C3.75006 4.62694 7.61838 2.79055 11.0375 4.37638C11.3568 4.55516 11.7166 4.64904 12.0825 4.64904C12.4485 4.64904 12.8083 4.55516 13.1275 4.37638C16.1831 2.92194 19.5259 4.15638 20.8306 7.10193C21.0441 7.51187 21.1591 7.9659 21.1667 8.42804Z" fill="#EC457C"/>
<path d="M20.9895 11.123C20.7603 12.7027 19.9904 13.2986 18.5695 13.1183C16.889 12.9166 15.3612 13.1977 14.0412 14.3711C13.2406 15.0861 12.4859 14.9975 11.9023 14.038C11.7159 13.7325 11.4562 13.4819 11.2606 13.1855C10.6495 12.2689 10.2034 11.3858 8.98426 12.7486C8.11648 13.708 4.05566 13.1611 3.54233 12.275C3.12983 11.5539 2.99233 11.0527 4.13816 11.1139C4.7951 11.1566 5.46427 11.068 6.11815 11.1322C7.36176 11.2544 8.38232 10.9825 9.18898 9.9283C9.85815 9.05442 10.6281 9.07886 11.2943 10.02C11.4684 10.2675 11.6548 10.5089 11.8381 10.7533C13.1001 12.4339 13.1062 12.44 14.9915 11.4164C15.3446 11.2134 15.7453 11.1079 16.1526 11.1108C17.7262 11.1261 19.2967 11.123 20.9895 11.123Z" fill="#EC467D"/>
<path d="M18.4778 15.1197C16.6047 17.2861 14.4383 18.7864 12.5531 20.6197C12.2475 20.9252 11.9267 20.8672 11.612 20.583C9.59835 18.7497 7.40446 17.1272 5.50085 14.9425C7.02863 14.5697 8.07057 14.8172 9.16751 15.8591C11.9817 18.5633 12.1039 18.5725 14.8692 15.9814C15.9142 14.9822 16.9867 15.0036 18.4778 15.1197Z" fill="#EC457C"/>
</svg>
