<svg width="24" height="24" viewBox="0 0 24 24" fill="none" xmlns="http://www.w3.org/2000/svg">
<path d="M19.1819 1.18866C19.2521 3.23396 19.2521 3.23396 17.2526 3.23396H6.87347C4.7946 3.23396 4.7946 3.23396 4.66333 1.18866H19.1819Z" fill="#33A79B"/>
<path d="M4.66328 22.9604C4.4618 21.4341 5.18224 21.0891 6.63531 21.1288C10.2477 21.2387 13.861 21.2387 17.4754 21.1288C18.9437 21.0861 19.5268 21.489 19.191 22.9604H4.66328Z" fill="#30A79B"/>
<path d="M13.1405 7.49552V16.4704C13.7511 16.4368 13.9739 15.9942 14.2578 15.6859C14.7188 15.1852 15.0607 15.0753 15.604 15.6248C16.1474 16.1743 16.3092 16.5834 15.6529 17.0809C15.5747 17.1459 15.5022 17.2174 15.4361 17.2946C11.7149 21.1197 11.6569 21.1013 8.18601 16.9619C7.70063 16.3849 7.91127 16.1224 8.31728 15.7408C8.72328 15.3592 8.9736 14.9471 9.53835 15.5363C9.9352 15.9545 10.2618 16.4887 10.9609 16.7146V7.68784C10.3504 7.77942 10.0787 8.25258 9.76425 8.60364C9.21171 9.21418 8.82402 9.0707 8.27149 8.56701C7.66095 8.01753 7.84106 7.6512 8.35086 7.2513C8.42717 7.19025 8.49128 7.10783 8.56454 7.04067C9.7612 5.97223 10.7686 3.87198 12.0538 3.98798C13.2932 4.08567 14.3769 6.01191 15.546 7.11393C16.0345 7.57489 16.3581 7.93816 15.6956 8.57617C15.1126 9.13786 14.7188 9.13176 14.2273 8.53343C13.8838 8.16831 13.521 7.82184 13.1405 7.49552Z" fill="#54B9B0"/>
</svg>
