<svg width="24" height="24" viewBox="0 0 24 24" fill="none" xmlns="http://www.w3.org/2000/svg">
<path d="M21.1666 12.3239C21.1666 17.5764 17.3717 20.9802 11.9358 21.2369C7.11112 21.4722 2.67446 16.4978 2.81196 11.835C2.94946 7.25166 7.18751 2.73555 12.2261 2.815C16.3542 2.87916 21.7961 6.8636 21.1666 12.3239Z" fill="#74B4E3"/>
<path d="M19.3333 12.1344C19.324 14.0266 18.5738 15.8398 17.2436 17.1855C15.9133 18.5311 14.1089 19.3022 12.2169 19.3333C7.86584 19.4677 4.66668 15.8897 4.76446 12.1436C4.88668 7.45942 7.88112 4.8561 12.0581 4.78582C13.0276 4.75652 13.9929 4.92712 14.8937 5.28702C15.7945 5.64691 16.6116 6.18839 17.294 6.87773C17.9765 7.56708 18.5097 8.38954 18.8606 9.2939C19.2114 10.1983 19.3723 11.1652 19.3333 12.1344Z" fill="#57A0D7"/>
<path d="M15.7125 9.29582C15.7446 9.67948 15.6926 10.0655 15.5602 10.427C15.4277 10.7885 15.2179 11.1168 14.9455 11.3889C14.1236 12.22 13.268 13.0053 13.0236 14.2397C12.8616 15.0494 12.1466 14.8264 11.6455 14.7622C10.848 14.6583 11.1292 14.038 11.233 13.5705C11.4775 12.4766 12.2261 11.7158 12.9808 10.9489C14.0686 9.84582 14.1236 8.71832 13.1733 7.93915C12.223 7.15999 11.3583 7.40443 10.4417 8.76109C10.2705 9.04762 9.99349 9.25534 9.67048 9.33937C9.34747 9.42341 9.00437 9.37704 8.71527 9.21026C7.97277 8.85887 8.58388 8.21721 8.77943 7.78026C9.11664 7.03382 9.69696 6.42376 10.4256 6.04971C11.1543 5.67566 11.9883 5.55972 12.7914 5.72082C14.588 6.1211 15.7125 7.50221 15.7125 9.29582Z" fill="#FCFDFF"/>
<path d="M12.107 18.4594C11.4347 18.5419 11.0711 18.3127 11.0956 17.5611C11.117 16.9958 11.1872 16.5772 11.8961 16.5924C12.4858 16.5924 13.0053 16.5924 12.987 17.4266C12.9747 18.0469 12.9167 18.5511 12.107 18.4594Z" fill="#F1F8FD"/>
</svg>
