<svg width="24" height="24" viewBox="0 0 24 24" fill="none" xmlns="http://www.w3.org/2000/svg">
<path d="M5.58333 15.7003L2.16722 12.5194C2.375 12.2322 2.44222 12.0855 2.47278 12.0916C4.09833 12.3544 4.71861 11.7403 5.04861 10.0383C5.80639 6.13637 9.62278 3.5697 13.6714 3.89665C17.6069 4.2022 20.8947 7.34331 21.1789 11.0375C21.5272 15.5108 19.0644 19.3028 15.0219 20.1064C12.2536 20.6564 9.54639 20.3508 7.41667 18.1325C7.08055 17.0814 7.74361 16.8064 8.5625 16.6505C10.1208 17.2005 11.5233 18.1569 13.32 18.0561C16.2594 17.8941 18.7069 15.6941 18.9239 12.828C19.1836 9.38442 17.1944 6.76887 13.8333 6.11498C11.23 5.61081 8.095 7.59692 7.30055 10.2491C7.09278 10.9397 6.94611 11.4928 8.00028 11.6547C9.58917 11.9022 9.65639 12.1986 8.58083 13.375C8.205 13.7875 7.80167 14.1755 7.40444 14.5697C6.80555 14.9639 6.5 15.8561 5.58333 15.7003Z" fill="#F68C20"/>
<path d="M5.58333 15.7003L7.08361 14.4261C7.75888 15.1503 8.55027 15.8011 8.68777 16.8705C8.35604 16.8825 8.041 17.019 7.80542 17.2529C7.56985 17.4868 7.43104 17.8008 7.41666 18.1325C6.59998 17.4993 5.96709 16.6597 5.58333 15.7003Z" fill="#FAB053"/>
<path d="M8.67249 16.8889C8.06138 16.1219 7.25777 15.4833 7.06833 14.4444L8.99944 12.3605C8.95055 12.0336 8.73055 12.055 8.53805 12.055C6.3136 11.9969 6.21888 11.8472 7.05305 9.75719C7.37315 8.94081 7.85719 8.1987 8.47527 7.57668C9.09336 6.95466 9.83238 6.46592 10.6467 6.14065C11.461 5.81537 12.3334 5.66046 13.2099 5.68547C14.0865 5.71049 14.9486 5.91489 15.743 6.28608C18.9208 7.71913 20.3264 11.7402 18.7558 14.9333C18.3725 15.7075 17.8368 16.3962 17.1808 16.9584C16.5248 17.5205 15.7621 17.9444 14.9384 18.2046C14.1146 18.4648 13.2468 18.556 12.387 18.4727C11.5271 18.3895 10.6929 18.1334 9.93444 17.72C9.49997 17.4645 9.07878 17.1871 8.67249 16.8889Z" fill="#FFDDB3"/>
<path d="M13.5278 10.3469C12.8189 12.4003 14.6094 13.0236 16.0822 13.9006C16.458 14.1267 17.3258 14.1694 16.8033 15.0464C16.2808 15.9233 15.853 15.2419 15.4375 15.0006C11.7342 12.8617 11.7433 12.8617 12.0336 8.46778C12.0703 7.91167 12.0886 7.45944 12.8342 7.48083C13.4972 7.50222 13.5369 7.91166 13.5278 8.3975C13.5094 8.96278 13.5278 9.52194 13.5278 10.3469Z" fill="#F78E22"/>
</svg>
