<svg width="24" height="24" viewBox="0 0 24 24" fill="none" xmlns="http://www.w3.org/2000/svg">
<path d="M6.53363 9.24999H6.39307H6.25252C5.81863 8.38527 4.6728 8.13777 4.41919 7.11111C5.18919 6.01416 5.75141 4.74917 6.97363 4.02806C8.38224 3.65222 9.47001 3.93333 10.3133 5.27778C10.7045 5.88889 11.2911 6.89416 12.1467 6.61C13.1336 6.28305 13.87 5.38778 14.2703 4.36417C14.4658 3.86 14.3528 3.24889 14.7806 2.815C15.1075 3.06861 14.7042 3.90889 15.4406 3.77445C17.5794 3.37722 18.2883 5.07 19.2692 6.35944C19.4106 6.56427 19.5412 6.77642 19.6603 6.995C19.59 8.21722 18.2517 8.37305 17.7628 9.24388C17.4297 11.4317 17.7017 13.6317 17.61 15.8255C17.5886 16.3725 17.555 16.9225 17.5275 17.4694C17.0882 17.8213 16.534 17.9976 15.9722 17.9644C13.4483 17.9889 10.9214 18.0103 8.39446 17.9644C6.8178 17.9308 6.69863 17.7444 6.65891 16.2044C6.60085 13.8791 6.83002 11.56 6.53363 9.24999Z" fill="#679F42"/>
<path d="M6.53362 9.25C7.14473 11.2881 6.69862 13.3689 6.78418 15.4283C6.86974 17.4878 6.80557 17.5 8.83751 17.5C11.7342 17.5 14.6319 17.4929 17.5305 17.4786C17.6833 18.0957 17.6833 18.7407 17.5305 19.3578C16.9194 19.8314 16.2014 19.7855 15.4956 19.7886C13.4697 19.7886 11.4439 19.8497 9.42112 19.7733C8.24168 19.7275 7.35251 20.0208 6.80862 21.1116C6.28307 20.8061 6.56418 20.2897 6.56112 19.8894C6.53362 16.3328 6.53974 12.7914 6.53362 9.25Z" fill="#55803A"/>
<path d="M6.80557 21.1024C6.6039 19.8008 6.97057 19.2202 8.4739 19.2874C11.4867 19.4219 14.5086 19.3394 17.5275 19.3486C17.9217 20.7755 17.4664 21.3072 15.9111 21.2338C12.8892 21.0902 9.86112 21.1361 6.80557 21.1024Z" fill="#669E42"/>
<path d="M14.7836 2.81498C15.2328 4.81026 13.7722 5.80025 12.6233 6.97053C12.1589 7.44414 11.7953 7.40747 11.3644 6.94303C10.8542 6.38998 10.0964 5.9622 9.81222 5.31748C9.20111 3.94554 8.12862 3.98831 6.97362 4.04026C7.29751 3.68581 7.73139 3.79581 8.11639 3.81415C8.90473 3.85081 9.61056 3.85081 9.51584 2.6347L12 5.45803C13.155 4.77664 13.5675 3.36193 14.7836 2.81498Z" fill="#58823C"/>
<path d="M20.635 8.26611C20.8 8.4525 20.9772 8.63278 21.13 8.82833C22.1169 10.1147 21.6891 11.4286 20.1614 11.9206C19.7489 12.0519 19.6053 11.8075 19.4403 11.5692C19.0736 11.0283 18.7222 10.4722 18.3739 9.92222C19.0919 9.32333 19.7183 8.59611 20.635 8.26611Z" fill="#6BA144"/>
<path d="M5.59862 10.185C5.52355 10.3696 5.43469 10.5484 5.33279 10.7197C4.44057 12.0397 2.88835 11.9572 2.29557 10.4569C1.93502 9.52191 2.98002 9.03914 3.44446 8.38831C4.36113 8.75192 5.21668 9.1858 5.59862 10.185Z" fill="#6CA145"/>
<path d="M5.59862 10.185C4.91723 9.55552 3.99751 9.18886 3.44446 8.3883C3.65143 7.88512 3.9864 7.44481 4.41612 7.11108C4.93557 7.89942 6.43584 7.84442 6.24945 9.24997C6.14367 9.62588 5.91441 9.95524 5.59862 10.185Z" fill="#57823C"/>
<path d="M20.635 8.2661C20.0239 9.01165 19.5105 9.89471 18.3708 9.92221L17.7597 9.24388C17.3931 8.47082 18.1478 8.40054 18.4961 8.07666L19.6572 6.99805L20.635 8.2661Z" fill="#57813B"/>
<path d="M11.9297 11.0833H9.95583C8.42806 11.0833 7.94528 10.3897 8.35167 8.91083C8.49834 8.37611 8.84972 8.3425 9.26833 8.33944C11.0833 8.33333 12.9167 8.36389 14.75 8.33333C15.9325 8.31806 15.633 9.1675 15.6667 9.82444C15.7155 10.5425 15.6667 11.1506 14.6644 11.0956C13.7569 11.0497 12.8433 11.0833 11.9297 11.0833Z" fill="#54803A"/>
</svg>
