<svg width="24" height="24" viewBox="0 0 24 24" fill="none" xmlns="http://www.w3.org/2000/svg">
<path d="M10.2553 19.2752C8.78557 19.2752 7.3128 19.2752 5.84614 19.3363C4.86836 19.3883 4.62392 18.9574 4.66364 18.0744C4.71558 16.6566 4.64836 15.2358 4.68808 13.815C4.70947 12.9227 4.70947 12.165 3.46586 12.3086C3.08698 12.3513 2.69587 12.1802 3.19698 11.7158C8.19891 11.3063 13.21 11.5813 18.2181 11.5538C18.6215 11.5434 19.016 11.6742 19.3333 11.9236C19.5396 14.3759 19.5396 16.8412 19.3333 19.2936L13.8333 19.3333C13.2803 18.6947 13.4361 17.9155 13.4025 17.173C13.3597 16.2563 13.595 15.1533 12.0672 15.1991C10.845 15.2358 10.6556 15.5047 10.6067 17.2524C10.5822 17.9308 10.7167 18.658 10.2553 19.2752Z" fill="#F8CDCC"/>
<path d="M19.2997 12.1008C14.4383 12.0825 9.5739 12.0764 4.71253 12.0336C4.20531 12.0336 3.58809 12.3391 3.18475 11.728C5.68114 9.49442 8.2203 7.32498 10.6403 5.03026C11.6731 4.05554 12.327 3.85999 13.4575 4.97221C15.9019 7.37998 18.5297 9.61359 21.0964 11.9175C20.528 12.3514 19.9017 12.113 19.2997 12.1008Z" fill="#E63B35"/>
<path d="M10.2553 19.2753C10.2553 18.4686 10.2156 17.6589 10.2828 16.8583C10.3378 16.1953 9.87945 15.1961 10.6281 14.9394C11.4836 14.6339 12.5133 14.808 13.4636 14.8569C13.9433 14.8814 13.8608 15.3611 13.8608 15.6972C13.8608 16.9041 13.8333 18.1111 13.8333 19.3333L10.2553 19.2753Z" fill="#E63E37"/>
<path d="M19.2997 12.1008L21.0842 11.9175C19.2355 12.2933 19.6817 13.7508 19.6114 14.973C19.5289 16.4122 19.9414 17.8819 19.3364 19.2844L19.2997 12.1008Z" fill="#C2B6B5"/>
</svg>
