<svg width="24" height="24" viewBox="0 0 24 24" fill="none" xmlns="http://www.w3.org/2000/svg">
<path d="M10.1667 4.70333C10.4081 3.68889 10.9153 2.925 12.0703 2.91583C13.1336 2.91583 13.7142 3.52694 13.9555 4.52305C14.2286 5.069 14.3549 5.67657 14.3222 6.2861C14.3222 10.187 14.3222 14.0869 14.3222 17.9858C14.363 18.545 14.2477 19.1046 13.9892 19.6022C13.7142 20.5402 13.2405 21.188 12.1253 21.2063C10.903 21.2277 10.4753 20.4669 10.1544 19.5136C9.65639 18.9758 9.71139 18.2914 9.70833 17.6466C9.69 13.9555 9.69 10.2634 9.70833 6.57027C9.69305 5.91638 9.65944 5.2411 10.1667 4.70333Z" fill="#EF5552"/>
<path d="M13.9739 19.6022C13.7814 14.5728 13.8333 9.55556 13.9433 4.52002C14.4261 4.67585 14.9058 4.82557 15.3856 4.98141C15.7577 5.06818 16.0861 5.28614 16.3105 5.59535C16.535 5.90457 16.6405 6.28432 16.6078 6.66501C16.5833 10.2614 16.6078 13.8547 16.6078 17.4511C16.6017 19.2569 15.1381 19.2386 13.9739 19.6022Z" fill="#FCB64E"/>
<path d="M10.1667 4.70331C10.1667 9.64107 10.1616 14.5778 10.1514 19.5135C7.79862 19.0888 7.50223 18.7527 7.50223 16.4886C7.50223 13.5552 7.50223 10.6229 7.50223 7.69163C7.49 5.4122 7.80167 5.06997 10.1667 4.70331Z" fill="#FCB74F"/>
</svg>
