<svg width="24" height="24" viewBox="0 0 24 24" fill="none" xmlns="http://www.w3.org/2000/svg">
<path d="M16.2777 9.24999C16.0361 9.86102 15.6416 10.3997 15.1319 10.8144C13.9891 11.6639 13.7875 12.3758 15.0586 13.4025C16.6047 14.6491 17.283 16.458 17.503 18.4075C17.7597 18.9391 17.7536 19.3608 17.0539 19.5014C14.1175 18.4564 11.2941 17.1364 8.41887 15.9386C8.13044 15.837 7.89059 15.6309 7.74665 15.3611C8.14082 13.928 9.29581 13.0847 10.3164 12.1222C8.6572 10.515 7.14165 8.86193 6.80554 6.48166C6.54276 6.02027 6.68332 5.52527 6.6986 5.04249C7.15693 4.57805 7.63665 4.85611 8.09193 5.04249C10.3958 5.9286 12.6722 6.87481 14.9211 7.8811C15.5169 8.1286 16.3419 8.29666 16.2777 9.24999Z" fill="#96C8EC"/>
<path d="M16.2777 9.24996C15.7522 8.40358 14.808 8.19274 13.9953 7.84747C11.6272 6.83914 9.21943 5.92247 6.82999 4.97219C6.9461 4.18386 7.61832 4.2572 8.11943 4.24497C10.8358 4.16553 13.5583 4.15331 16.2777 4.24497C17.28 4.27858 17.9827 4.64831 17.5 5.8583C17.5 7.12941 16.9622 8.22024 16.2777 9.24996Z" fill="#BEDDF3"/>
<path d="M17.5 5.85222C17.4725 5.31444 17.6039 4.68194 16.73 4.685C13.5553 4.70333 10.3805 4.70638 7.20277 4.73388C7.08055 4.73388 6.95833 4.88666 6.8361 4.96916L6.81777 6.49694C6.38694 5.94388 6.39916 5.21361 5.75749 4.66361C5.0425 4.0525 5.73916 2.89139 6.75666 2.88528C10.1422 2.85065 13.5298 2.84555 16.9194 2.87C17.393 2.87 18.0622 2.61639 18.2883 3.17555C18.5144 3.73472 18.6397 4.44055 18.0714 5.00888C17.8534 5.27037 17.662 5.55287 17.5 5.85222Z" fill="#B2BFC6"/>
<path d="M16.8889 19.3333C17.5153 19.315 17.4725 18.8505 17.5 18.4166C17.7836 18.7536 18.042 19.1111 18.273 19.4861C18.82 20.5127 18.3861 21.1605 17.1394 21.1666C13.7457 21.1666 10.3531 21.1666 6.96139 21.1666C6.50611 21.1666 5.84611 21.4233 5.675 20.7327C5.53445 20.1736 5.40306 19.5105 6.24639 19.2508C6.57639 19.1469 6.49084 18.7375 6.55195 18.4502C8.87416 19.1622 11.2636 18.7986 13.6225 18.8627C14.7317 18.878 15.8378 18.8872 16.8889 19.3333Z" fill="#B0BFC6"/>
<path d="M16.8889 19.3333C13.9433 19.3333 10.9947 19.3027 8.05223 19.3669C7.73392 19.4053 7.41191 19.3359 7.13771 19.1697C6.86351 19.0036 6.65296 18.7502 6.53973 18.4502C6.57889 17.3138 7.00344 16.2244 7.74362 15.3611C10.8236 16.6077 13.9892 17.6558 16.8889 19.3333Z" fill="#BEDEF4"/>
</svg>
