<svg width="24" height="24" viewBox="0 0 24 24" fill="none" xmlns="http://www.w3.org/2000/svg">
<path d="M9.27445 4.05556C9.34473 4.18084 9.4639 4.29695 9.48223 4.42834C9.55556 4.97834 9.33862 5.65056 10.3256 5.63222C11.3125 5.61389 10.952 4.84084 11.1292 4.36723C12.2597 5.07306 12.2597 5.07306 12.9075 4.09834C13.2436 4.93556 13.3261 6.09056 14.7408 5.58639C15.4864 5.22278 16.2106 4.83778 16.5925 4.04028C16.8614 4.88973 16.9439 5.77278 18.2547 5.79722C18.9055 5.79722 19.3486 6.56722 19.3425 7.40444C19.318 10.8389 19.318 14.2743 19.3425 17.7108C19.3425 18.875 18.5878 19.2875 17.6619 19.5136C17.2141 19.6048 16.7537 19.6151 16.3022 19.5441C15.0219 19.373 13.9892 19.5441 13.8211 21.1055C12.8128 19.2233 12.1619 19.1744 10.2217 20.8458C10.2736 19.8344 9.85806 19.3608 8.79473 19.5411C8.38811 19.5768 7.97914 19.5768 7.57251 19.5411C5.37557 19.5411 4.75224 18.93 4.74307 16.7728C4.74307 13.9922 4.74307 11.2096 4.74307 8.425C4.74307 6.10889 5.15557 5.675 7.43196 5.57417C8.1714 5.23195 8.90168 4.86528 9.27445 4.05556Z" fill="#8D73B3"/>
<path d="M10.2186 20.8611C10.3057 20.5426 10.461 20.2468 10.6737 19.9942C10.8864 19.7416 11.1514 19.5383 11.4504 19.3982C11.7494 19.2582 12.0753 19.1847 12.4055 19.183C12.7357 19.1813 13.0623 19.2514 13.3628 19.3883C14.1878 19.7519 13.6683 20.5433 13.8181 21.1208C12.6111 21.1055 11.3706 21.5944 10.2186 20.8611Z" fill="#63499C"/>
<path d="M9.27446 4.05557C9.54029 5.62001 8.61446 5.75445 7.44113 5.58334C7.44419 3.6614 7.46252 3.64612 9.27446 4.05557Z" fill="#6D56A0"/>
<path d="M16.5986 4.05556C16.8675 5.63222 15.9356 5.76972 14.7469 5.60166C14.75 3.6675 14.75 3.6675 16.5986 4.05556Z" fill="#6B559E"/>
<path d="M12.9167 4.10747C12.7761 4.64525 13.3047 5.45497 12.2506 5.61691C11.1964 5.77886 11.5142 4.77358 11.1292 4.36108C11.6395 3.74997 12.3056 4.14108 12.9167 4.10747Z" fill="#6D56A2"/>
<path d="M16.5069 12.8403C13.8517 13.045 13.8731 13.045 13.8303 15.6361C13.8303 16.2472 14.2122 17.1791 13.4331 17.3869C12.5408 17.6253 11.5294 17.4725 10.5731 17.4144C10.2156 17.393 10.2064 16.9836 10.2003 16.6811C10.2003 16.2228 10.2003 15.7644 10.2003 15.3091C10.2003 13.0144 10.2003 13.0144 7.81696 12.8647C8.92612 11.0008 10.4447 9.59527 11.6944 8.00027C12.1314 7.44416 12.5133 8.07055 12.7761 8.37916C13.9953 9.79388 15.1747 11.2392 16.5069 12.8403Z" fill="#5F459C"/>
</svg>
