<svg width="24" height="24" viewBox="0 0 24 24" fill="none" xmlns="http://www.w3.org/2000/svg">
<path d="M7.41666 9.24999C6.9125 7.2761 6.97361 5.37555 8.63888 3.96083C10.405 2.45444 12.5164 2.58583 14.5239 3.30694C16.1464 3.8875 16.9255 5.25944 16.9164 7.00416C16.9164 7.75888 16.8339 8.51666 16.788 9.27138C16.6865 9.38965 16.5616 9.48569 16.4212 9.55352C16.2808 9.62134 16.128 9.65948 15.9722 9.66555C13.3861 9.80916 10.7941 9.80916 8.20805 9.66555C8.0544 9.65553 7.90457 9.61336 7.76824 9.54178C7.63192 9.47019 7.51214 9.37079 7.41666 9.24999Z" fill="#F281A7"/>
<path d="M16.1189 11.3064C15.2528 14.2104 14.2328 17.0663 13.0633 19.8619C12.8555 20.3508 12.7578 21.1086 12.1467 21.1239C11.4133 21.1422 11.3186 20.3356 11.1169 19.7978C10.0536 16.9683 9.02388 14.1236 7.97888 11.285C9.24999 10.3133 14.86 10.3317 16.1189 11.3064Z" fill="#8E6F64"/>
<path d="M16.1189 11.3064C13.4101 11.0686 10.6859 11.0614 7.97585 11.285C7.30668 11.2667 6.69557 11.1567 6.53057 10.3683C6.3778 9.64721 6.91557 9.45166 7.42279 9.25916L16.785 9.28054C17.2403 9.5861 17.6619 9.89165 17.4969 10.5486C17.3044 11.2942 16.73 11.3247 16.1189 11.3064Z" fill="#F06593"/>
</svg>
