<svg width="24" height="24" viewBox="0 0 24 24" fill="none" xmlns="http://www.w3.org/2000/svg">
<path d="M11.8778 19.3333C9.1889 19.3333 6.50001 19.2814 3.80502 19.3333C2.41474 19.3669 1.91669 18.7833 1.91669 17.4297C1.96252 13.8761 1.94113 10.3194 1.91669 6.76583C1.91669 5.4 2.5278 4.685 3.92113 4.685H20.085C21.4172 4.685 22.1261 5.1525 22.0925 6.66805C22.01 10.2186 22.0375 13.7753 22.0925 17.3289C22.1078 18.7375 21.5425 19.3577 20.1155 19.3333C17.3625 19.2905 14.6217 19.3333 11.8778 19.3333Z" fill="#D0D9DD"/>
<path d="M10.2278 10.3622C10.1728 11.9786 8.96585 13.0603 7.31279 12.9747C6.59851 12.9276 5.93025 12.6056 5.44827 12.0763C4.9663 11.5471 4.70807 10.8517 4.7278 10.1361C4.78294 9.42129 5.10178 8.75246 5.62239 8.25951C6.14301 7.76657 6.82824 7.48469 7.54501 7.46863C7.91209 7.47959 8.27331 7.56348 8.60764 7.71541C8.94197 7.86734 9.24274 8.08427 9.49241 8.35357C9.74209 8.62287 9.93569 8.93916 10.0619 9.28401C10.1882 9.62886 10.2446 9.99538 10.2278 10.3622Z" fill="#3575BB"/>
<path d="M7.38 17.5366C6.67417 17.5366 5.96222 17.5825 5.2625 17.5366C4.77056 17.4939 4.01278 17.8789 3.86612 17.0814C3.71945 16.2839 3.63389 15.4925 4.38861 14.8539C5.82778 13.6316 9.22249 13.6316 10.6464 14.8539C11.3889 15.5016 11.2208 16.3541 11.0833 17.1027C10.9458 17.8514 10.1667 17.4816 9.66555 17.5214C8.89861 17.5794 8.13777 17.5366 7.38 17.5366Z" fill="#3575BB"/>
<path d="M16.6169 11.1444C15.7614 11.1444 14.9028 11.1444 14.0472 11.1444C13.4575 11.1444 13.0328 10.8816 13.0114 10.2889C13 10.1609 13.0165 10.032 13.0598 9.9111C13.1032 9.79018 13.1723 9.68013 13.2624 9.58857C13.3525 9.49702 13.4614 9.42615 13.5817 9.38087C13.7019 9.3356 13.8305 9.317 13.9586 9.32636C15.7736 9.30803 17.5886 9.30192 19.4005 9.32636C19.9903 9.32636 20.3172 9.7297 20.2653 10.3378C20.2133 10.9458 19.8466 11.1169 19.3486 11.1261C18.4319 11.1566 17.5244 11.1444 16.6169 11.1444Z" fill="#485D66"/>
<path d="M16.6719 14.7928C15.8072 14.7928 14.9425 14.7928 14.0808 14.7928C13.4697 14.808 13.0664 14.5361 13.0205 13.9525C13.0049 13.8239 13.0183 13.6935 13.0597 13.5708C13.1011 13.4481 13.1694 13.3362 13.2596 13.2433C13.3499 13.1504 13.4598 13.0789 13.5812 13.034C13.7027 12.9891 13.8327 12.972 13.9616 12.9839C15.74 12.9564 17.5183 12.9533 19.2966 12.9839C19.8466 12.9839 20.2744 13.2742 20.2683 13.925C20.2622 14.5758 19.8436 14.7867 19.263 14.7867L16.6719 14.7928Z" fill="#485C66"/>
</svg>
