<svg width="24" height="24" viewBox="0 0 24 24" fill="none" xmlns="http://www.w3.org/2000/svg">
<path d="M16.5405 3.85388C17.1971 3.80202 17.8559 3.78366 18.5144 3.79888C19.6113 3.87833 20.2652 4.37333 20.2561 5.63221C20.2194 10.5048 20.2174 15.3774 20.25 20.25C20.25 21.6555 19.6113 22.1138 18.2975 22.1016C14.1816 22.068 10.0658 22.1016 5.95304 22.1016C4.2786 22.1016 3.91805 21.7533 3.90277 20.0391C3.87833 16.788 3.90277 13.5369 3.90277 10.2858C3.90277 8.96276 3.90277 7.64276 3.90277 6.3136C3.9211 4.11972 4.28471 3.77138 6.5061 3.78666C6.86054 3.78666 7.21499 3.82944 7.56637 3.85388C7.74474 4.14005 7.82646 4.47594 7.79951 4.81205C7.77255 5.14817 7.63834 5.46675 7.41665 5.72082C6.35332 6.09055 6.02332 6.84527 6.0386 7.95137C6.09054 11.3522 6.08138 14.7561 6.0386 18.16C6.02332 19.315 6.43582 19.8008 7.63054 19.7825C10.5241 19.7366 13.4361 19.7458 16.3144 19.7825C17.4786 19.7825 17.9491 19.3455 17.94 18.1722C17.9063 14.6675 17.94 11.1658 17.94 7.6611C17.94 6.82388 17.7413 6.15471 16.8491 5.88277C16.0975 5.30527 16.0364 4.62388 16.5405 3.85388Z" fill="#5D4036"/>
<path d="M16.5406 3.85389L16.8186 5.65361C17.4114 8.07666 16.9103 8.78554 14.5453 8.8161C12.7761 8.83749 11.007 8.84971 9.2378 8.8161C7.00725 8.76416 6.44808 7.78944 7.38614 5.6475C7.44725 5.05166 7.5053 4.45583 7.56642 3.85695C8.61752 3.84167 9.53113 3.805 10.3164 2.75389C11.1536 1.62334 13.045 1.66612 13.9372 2.79667C14.6736 3.75 15.5292 3.84472 16.5406 3.85389Z" fill="#F9A01D"/>
<path d="M7.38611 5.64142C7.545 8.43419 7.545 8.43419 10.3744 8.43419C11.948 8.43419 13.5278 8.35169 15.0922 8.45863C16.3725 8.54724 16.8491 8.11336 16.6841 6.85142C16.6792 6.44795 16.7254 6.04549 16.8216 5.65364C18.1111 5.40309 18.5725 5.82475 18.5327 7.2303C18.4289 11.1811 18.4747 15.135 18.5144 19.0889C18.5144 19.9872 18.3066 20.3111 17.3411 20.3111C13.8333 20.25 10.35 20.25 6.85444 20.3142C5.80639 20.3325 5.60167 19.9506 5.61389 19.0033C5.65667 15.1014 5.71167 11.1964 5.58945 7.29753C5.54361 5.80642 6.07528 5.42447 7.38611 5.64142Z" fill="#CFC6C4"/>
<path d="M12.9167 4.78281C12.8281 5.34808 12.5194 5.63836 12 5.58336C11.7947 5.57004 11.6024 5.47818 11.463 5.32684C11.3236 5.1755 11.2478 4.97631 11.2514 4.77059C11.2415 4.65601 11.2569 4.54067 11.2965 4.43269C11.336 4.32472 11.3989 4.22676 11.4805 4.14574C11.5621 4.06472 11.6605 4.0026 11.7687 3.96379C11.877 3.92498 11.9924 3.91042 12.1069 3.92114C12.3279 3.9299 12.5366 4.02513 12.6881 4.1863C12.8396 4.34747 12.9216 4.56169 12.9167 4.78281Z" fill="#5E4138"/>
<path d="M10.6831 14.0869C10.4906 13.4086 9.91001 13.0358 9.4364 12.605C8.85279 12.0794 8.67863 11.728 9.34474 11.0772C10.0108 10.4264 10.3225 10.8266 10.7717 11.2636C11.2208 11.7005 11.5875 12.3055 12.2536 12.5194C12.547 12.623 12.8112 12.7955 13.024 13.0226C13.2367 13.2497 13.3917 13.5246 13.4758 13.8241C13.8805 14.3258 14.3109 14.8062 14.7653 15.2633C15.2908 15.7491 15.465 16.0852 14.8569 16.7055C14.2489 17.3258 13.8975 17.0905 13.4178 16.6016C12.9381 16.1127 12.6111 15.5689 11.9817 15.3152C11.6824 15.2301 11.408 15.0739 11.182 14.8601C10.9559 14.6463 10.7847 14.381 10.6831 14.0869Z" fill="#C93533"/>
<path d="M13.488 13.8333C12.9647 13.5236 12.5407 13.071 12.2658 12.5286C12.6722 12.0916 13.103 11.673 13.488 11.2147C13.9555 10.6403 14.3069 10.5516 14.9058 11.1475C15.5047 11.7433 15.2877 12.1191 14.7836 12.5683C14.3161 12.9502 13.9127 13.3933 13.488 13.8333Z" fill="#C62B29"/>
<path d="M10.683 14.0869C11.2254 14.3596 11.6766 14.7843 11.9817 15.3091C11.5539 15.74 11.0894 16.1433 10.7044 16.6108C10.2094 17.2219 9.83971 17.2219 9.26221 16.6475C8.68472 16.073 8.84055 15.7308 9.34777 15.3122C9.80916 14.9272 10.24 14.4994 10.683 14.0869Z" fill="#C62B29"/>
</svg>
