<svg width="24" height="24" viewBox="0 0 24 24" fill="none" xmlns="http://www.w3.org/2000/svg">
<path d="M4.66667 9.24997C4.72215 8.39036 4.72725 7.52824 4.68195 6.66803C4.52612 5.14026 5.25028 4.27248 6.59473 3.79276C10.1017 2.52908 13.9373 2.51397 17.4542 3.74998C18.7986 4.19915 19.4769 4.9722 19.3853 6.56109C19.2325 9.18886 19.3211 11.8319 19.3058 14.4658C19.1309 14.8589 18.8741 15.2102 18.5527 15.4963C18.2313 15.7824 17.8527 15.9967 17.4419 16.125C13.9031 17.3971 10.0295 17.383 6.5 16.0852C5.60167 15.7797 4.91723 15.2022 4.75529 14.1816L4.66667 11.3369C6.10278 10.2094 7.72222 10.7441 9.28667 10.9122C9.69 10.958 9.76639 11.3919 9.61667 11.78C9.45759 12.0964 9.25155 12.3869 9.00556 12.6416C8.75195 12.9472 8.37611 13.3016 8.81 13.6775C9.24389 14.0533 9.55861 13.6775 9.87944 13.43C10.0383 13.3016 9.86111 13.4758 9.98944 13.323C10.8389 12.3055 12.6111 11.5875 12.4583 10.2552C12.3055 8.79469 10.5394 8.02775 9.55555 6.87886C9.51612 6.81236 9.46061 6.75682 9.39412 6.71737C9.32762 6.67791 9.25228 6.6558 9.17501 6.65306C9.09774 6.65033 9.02103 6.66705 8.95191 6.7017C8.88279 6.73635 8.82348 6.78781 8.77944 6.85136C8.68799 6.97269 8.637 7.1197 8.63371 7.2716C8.63042 7.4235 8.67499 7.57258 8.76111 7.69775C9.67778 9.61358 9.65944 9.65025 7.48084 9.61053C6.53056 9.59525 5.5314 9.90997 4.66667 9.24997Z" fill="#556F7A"/>
<path d="M19.3333 16.5313C19.4403 19.6816 19.0278 20.3569 15.5903 20.9772C13.1122 21.4202 10.5394 21.4874 8.05222 20.8244C4.81334 19.9688 4.57501 19.5808 4.75529 16.2777C4.90078 16.2278 5.06013 16.2377 5.19834 16.3052C7.99417 18.4166 11.2392 18.0347 14.4139 17.9461C15.6321 17.8646 16.8202 17.5317 17.9033 16.9683C18.3525 16.7605 18.7589 16.3999 19.3333 16.5313Z" fill="#556E7A"/>
<path d="M4.66668 9.24995H9.3814C9.26529 8.57468 8.78557 8.31801 8.43723 7.99412C7.91168 7.50523 7.73446 7.1569 8.35779 6.54885C8.98112 5.94079 9.27445 6.02635 9.80001 6.58857C10.7167 7.59384 11.7067 8.5594 12.7058 9.49745C13.2528 10.0138 13.3811 10.4141 12.77 10.9916C11.7342 11.9633 10.732 12.9747 9.75417 14.0074C9.22862 14.5605 8.86807 14.4169 8.3639 13.9616C7.79251 13.4483 7.85362 13.0999 8.3639 12.6172C8.75807 12.2566 9.26223 11.9541 9.45168 11.1963C7.80779 11.1627 6.22196 10.9794 4.63613 11.3308C3.79585 11.3002 2.72335 11.7158 2.84558 10.13C2.97085 8.6694 4.05557 9.48217 4.66668 9.24995Z" fill="#5CC7D9"/>
<path d="M19.3333 16.5314C15.0556 19.3027 10.5639 18.9575 6.03253 17.3227C5.54364 17.1486 5.17698 16.6383 4.75531 16.2839C4.75531 15.5811 4.75531 14.8814 4.75531 14.1816C5.36234 15.0661 6.27389 15.6959 7.31586 15.9508C10.4369 16.8674 13.7556 16.8674 16.8767 15.9508C17.7977 15.6613 18.6359 15.1552 19.3211 14.475C19.315 15.1553 19.3191 15.8408 19.3333 16.5314Z" fill="#5CC7D9"/>
</svg>
