<svg width="24" height="24" viewBox="0 0 24 24" fill="none" xmlns="http://www.w3.org/2000/svg">
<path d="M6.53971 4.40079C6.68637 3.48413 7.22415 2.87302 8.14387 2.87302C10.5883 2.83024 13.0328 2.87302 15.4589 2.87302C15.63 2.87302 15.798 3.05329 15.9661 3.14802C16.0781 3.85512 16.119 4.57165 16.0883 5.28691C16.1464 7.42579 16.6139 7.87802 18.71 7.92691C19.5197 7.94524 20.3447 7.85357 21.0872 8.29052C21.1096 12.0468 21.133 15.8031 21.1575 19.5594C21.1575 20.6166 20.7083 21.1789 19.6297 21.1789C15.7736 21.1789 11.9175 21.1789 8.06137 21.1789C6.90026 21.1789 6.58554 20.4241 6.5336 19.5075C6.45969 18.4903 6.45969 17.4691 6.5336 16.4519C6.60998 15.41 6.28609 15.0036 5.18609 15.0433C4.4436 15.0677 3.57276 15.4497 2.92804 14.6919C3.53915 14.2061 4.29082 14.368 4.98443 14.3619C7.06832 14.3436 9.15221 14.3283 11.2361 14.3619C12.0397 14.3802 12.9717 14.3008 12.5469 15.6789C12.3636 16.2716 12.828 16.4152 13.265 16.0791C13.9023 15.5722 14.4795 14.994 14.9853 14.3558C15.1259 14.2035 15.2014 14.0022 15.1957 13.795C15.19 13.5878 15.1035 13.391 14.9547 13.2466C14.5047 12.6948 13.9989 12.191 13.4453 11.7433C12.9258 11.343 12.4644 11.3033 12.498 12.165C12.5164 12.6905 12.3972 13.1183 11.835 13.1855C10.2677 13.4093 8.67599 13.401 7.1111 13.1611C6.98359 13.1372 6.86873 13.0688 6.78701 12.968C6.70529 12.8673 6.66204 12.7408 6.66498 12.6111C6.59471 9.87635 6.82387 7.13246 6.53971 4.40079Z" fill="#CBBCDC"/>
<path d="M6.80553 12.9441H12.0641C12.3697 12.5469 12.0428 12.3575 11.8839 12.1314C11.4744 11.5539 12.0183 11.3278 12.2964 11.0191C12.5744 10.7105 12.9075 10.7472 13.213 11.0405L13.7569 11.5691C16.128 13.8822 16.1433 13.8975 13.7325 16.2197C13.3689 16.568 13.1458 17.5489 12.2047 16.7544C11.3553 16.0272 11.9175 15.5597 12.6661 14.7011H2.88831C2.66526 13.3903 3.06248 12.7119 4.53526 12.938C5.1896 12.9862 5.84684 12.979 6.49998 12.9166C6.61914 12.773 6.71692 12.7761 6.80553 12.9441Z" fill="#785DA8"/>
<path d="M21.0872 8.28439C20.3356 8.31494 19.5839 8.36689 18.8292 8.36994C16.1464 8.36994 15.7064 7.94217 15.7339 5.20439C15.7339 4.523 15.4986 3.79272 15.9661 3.15717C17.6752 4.86624 19.3822 6.57531 21.0872 8.28439Z" fill="#7A5FA9"/>
<path d="M6.80556 12.9442H6.66194L6.5 12.9167C6.5 10.0791 6.51019 7.24045 6.53056 4.40082C7.11417 5.64748 6.73222 6.96748 6.78722 8.25082C6.86361 9.81221 6.80556 11.3889 6.80556 12.9442Z" fill="#ABA3BB"/>
</svg>
