<svg width="24" height="24" viewBox="0 0 24 24" fill="none" xmlns="http://www.w3.org/2000/svg">
<path d="M14.75 17.4419C14.9914 16.1953 15.7614 15.7094 17.0172 15.6789C21.9061 15.5566 21.1422 16.2105 21.1972 20.4791C21.1972 21.1391 20.8122 21.2002 20.3081 21.1972C14.8264 21.1972 9.34476 21.1972 3.8631 21.1972C3.15727 21.1972 2.80894 20.9833 2.88838 20.2408C2.91283 19.9902 2.88838 19.7336 2.88838 19.48C2.88838 15.8133 4.33366 14.753 7.94226 15.7675C8.55337 15.9325 9.08504 16.2166 9.23476 16.9133C9.44865 17.1578 9.4242 17.6558 9.88865 17.6283C11.5111 17.5336 13.1459 17.9094 14.75 17.4419Z" fill="#FCB74E"/>
<path d="M13.1917 11.2941C13.6208 10.9371 14.0289 10.5555 14.4139 10.1514C14.8753 9.5922 15.2267 9.5922 15.7492 10.1269C16.2717 10.6616 16.4244 11.0161 15.795 11.5875C14.5728 12.7089 13.4881 14.643 12.1528 14.8447C10.8725 15.025 9.85195 12.8555 8.64501 11.7891C8.11029 11.3155 7.5664 10.9366 8.41279 10.13C9.20112 9.38442 9.52807 9.91303 9.96195 10.3897C10.237 10.6953 10.4722 11.0252 10.7258 11.343L11.1322 11.2208V5.88887C11.1322 5.27776 11.1658 4.66665 11.1322 4.05554C11.0772 3.27943 11.227 2.83332 12.1803 2.86082C13.0694 2.88221 13.155 3.3161 13.1489 4.00971C13.1275 5.9897 13.1489 7.98192 13.1489 9.94664C13.1214 10.2919 13.155 10.6341 13.1917 11.2941Z" fill="#178B7D"/>
<path d="M14.75 17.4419C13.0511 18.1691 11.2942 17.723 9.55558 17.6863C9.2103 17.6863 9.25002 17.2158 9.23169 16.9194C9.53724 17.396 9.95585 17.5305 10.5059 17.4999C11.9236 17.451 13.3383 17.4572 14.75 17.4419Z" fill="#C9A066"/>
</svg>
