<svg width="24" height="24" viewBox="0 0 24 24" fill="none" xmlns="http://www.w3.org/2000/svg">
<path d="M12.0795 21.1666C7.01031 21.7166 2.97393 16.5466 2.83338 12.443C2.63477 7.02553 7.4167 2.97081 11.777 2.81192C16.4184 2.64998 21.3378 7.01636 21.3072 12.1772C21.2828 16.6566 16.8889 21.7991 12.0795 21.1666Z" fill="#74B4E3"/>
<path d="M19.3333 12.223C19.3119 16.2105 16.0945 19.2783 12 19.3333C7.82919 19.3944 4.6667 15.8591 4.76448 12.1283C4.90503 7.4472 7.87197 4.85303 12.1864 4.77053C13.1531 4.76311 14.1111 4.95315 15.0018 5.329C15.8925 5.70486 16.697 6.25862 17.3662 6.95636C18.0353 7.65409 18.5549 8.4811 18.8932 9.38672C19.2314 10.2923 19.3812 11.2575 19.3333 12.223Z" fill="#57A0D7"/>
<path d="M11.1108 13.8333C11.1108 13.2222 11.1322 12.6111 11.1108 12C11.0803 11.3369 11.3767 11.1016 12.0275 11.1108C12.6172 11.1108 13.0083 11.2422 12.9961 11.945C12.9778 13.214 12.9778 14.4841 12.9961 15.7552C12.9961 16.4091 12.7211 16.6536 12.0795 16.6474C11.4867 16.6474 11.0895 16.5161 11.117 15.8102C11.1353 15.1411 11.1139 14.4811 11.1108 13.8333Z" fill="#F7FBFE"/>
<path d="M12.9625 8.36693C13.0633 9.23165 12.5653 9.29887 11.945 9.30804C11.3247 9.3172 11.1078 9.00248 11.0956 8.39137C11.0772 7.67943 11.3553 7.42276 12.0611 7.43498C12.767 7.44721 13.097 7.72221 12.9625 8.36693Z" fill="#F0F7FD"/>
</svg>
