<svg width="24" height="24" viewBox="0 0 24 24" fill="none" xmlns="http://www.w3.org/2000/svg">
<path d="M22.9778 16.888C22.9778 18.6599 22.9503 20.4318 22.9778 22.2037C22.9961 22.7842 22.9472 22.998 22.2476 22.998C15.4146 22.9614 8.58153 22.9614 1.74848 22.998C1.04888 22.998 1 22.7842 1 22.1915C1.04277 20.4196 1 18.6477 1 16.8758C1.39408 16.5571 1.89796 16.4067 2.40225 16.4572C4.45217 16.4786 6.50208 16.3625 8.552 16.5275C9.64459 16.9128 10.8009 17.0849 11.9583 17.0346C15.6458 16.9796 19.3301 17.1263 22.9778 16.888Z" fill="#FFFFFE"/>
<path d="M22.9778 16.888C22.3791 17.3421 21.6341 17.5596 20.8851 17.499C17.4574 17.4624 14.0266 17.4685 10.5958 17.499C9.85649 17.499 9.19661 17.4074 8.65282 16.888C8.54589 16.7811 8.44202 16.6742 8.34732 16.5611C8.0021 16.1059 8.0021 15.5652 7.96238 15.0336C7.96238 14.8778 7.94711 14.7281 7.94711 14.5662C7.94711 14.0957 7.94711 13.6253 7.94711 13.1548C7.94711 12.5193 7.94711 11.8808 7.94711 11.2454C7.9409 10.7698 7.96539 10.2942 8.02043 9.82177C8.04844 9.66632 8.10213 9.51662 8.17929 9.37879C8.21588 9.31194 8.27322 9.25881 8.34266 9.2274C8.41209 9.19599 8.48986 9.188 8.56422 9.20466C10.4583 11.0041 12.8993 11.9206 15.105 13.2098C15.6885 13.5519 16.2843 13.2648 16.8342 12.9868C18.3617 12.2169 19.8281 11.3126 21.3495 10.5183C21.8597 10.2525 22.3271 9.72095 22.9931 10.1731L22.9778 16.888Z" fill="#FFD494"/>
<path d="M8.58257 7.43578C8.74289 7.17149 8.97265 6.95625 9.24684 6.8135C9.52102 6.67076 9.82911 6.60597 10.1376 6.6262C13.9838 6.58954 17.8362 6.35736 21.6825 6.74229C22.1829 6.79925 22.6445 7.03982 22.9778 7.41745V8.02845C22.6265 8.71278 21.9422 8.94496 21.3189 9.27796C20.3841 9.76981 19.3607 10.1945 18.5694 10.8513C16.4584 12.5896 14.5398 12.1161 12.5816 10.6863C11.2863 9.73926 9.61211 9.38183 8.53063 8.09872C8.48193 7.99299 8.46113 7.87654 8.47022 7.76048C8.47931 7.64443 8.51799 7.53264 8.58257 7.43578Z" fill="#FFD495"/>
<path d="M8.59173 7.98566C10.6264 9.11907 12.6977 10.1883 14.6743 11.4103C15.5022 11.9205 16.0887 11.8441 16.8647 11.4103C18.878 10.2464 20.9371 9.16184 22.9747 8.04981V10.1883C20.8362 11.001 18.9605 12.3268 16.9564 13.3839C15.9696 13.8879 15.2119 13.833 14.2924 13.2495C12.8779 12.3574 11.4054 11.557 9.90844 10.8054C9.21801 10.5172 8.66912 9.96836 8.38093 9.27793C7.98989 8.76469 7.8738 8.30643 8.59173 7.98566Z" fill="#FCB74E"/>
<path d="M8.33202 11.0835C8.45227 11.763 8.43774 12.4595 8.28925 13.1334C8.21952 13.238 8.12952 13.3276 8.02458 13.3969C7.91963 13.4662 7.80187 13.5137 7.67825 13.5367C5.43892 13.6436 3.19348 14.1385 1.01831 13.222V11.0835C3.39254 10.2955 5.95779 10.2955 8.33202 11.0835Z" fill="#53B6E6"/>
<path d="M8.5917 7.98571C8.23732 8.36759 8.45728 8.84112 8.37785 9.26882L8.30453 9.23216C8.14443 9.39289 7.94976 9.51497 7.73534 9.58908C7.52093 9.6632 7.29243 9.68741 7.06724 9.65986C5.05093 9.49489 2.98269 10.1426 1.01831 9.25049V7.41748H8.58253L8.5917 7.98571Z" fill="#4BB5E7"/>
<path d="M8.33202 15.0367L8.56726 16.5642C6.05846 16.8334 3.52838 16.8396 1.01831 16.5825V15.055C1.55599 14.5693 2.24032 14.5845 2.86965 14.6426C4.68739 14.7953 6.56317 14.1752 8.33202 15.0367Z" fill="#47B6E8"/>
<path d="M8.33202 11.0835H1.01831V9.55597C3.43166 9.29829 5.86617 9.30956 8.27703 9.58958L8.33202 11.0835Z" fill="#FCFCFC"/>
<path d="M1.01831 16.5825L8.56115 16.558L8.6528 16.891H1.01526L1.01831 16.5825Z" fill="#A3AEBE"/>
<path d="M8.27703 9.58956L1.01831 9.55595V9.25045L8.30453 9.22906L8.27703 9.58956Z" fill="#A7ABB3"/>
<path d="M1.01831 14.7495H8.33202C8.37209 14.8474 8.37209 14.9571 8.33202 15.055H1.01831V14.7495Z" fill="#6A9DC4"/>
</svg>
