<svg width="24" height="24" viewBox="0 0 24 24" fill="none" xmlns="http://www.w3.org/2000/svg">
<path d="M6.52137 17.8055L3.50859 21.3622L2.8822 20.9314V17.0447C2.8822 13.1336 2.8822 9.21943 2.8822 5.30832C2.8822 3.5086 3.47498 2.89443 5.22581 2.88832C9.79489 2.87406 14.364 2.87406 18.933 2.88832C20.6075 2.88832 21.1728 3.4261 21.1819 5.02721C21.2033 8.53193 21.1819 12.0397 21.1819 15.5444C21.1819 16.5039 20.9558 17.2525 19.9261 17.5244C16.0516 17.7903 12.1711 17.5672 8.29359 17.6497C7.7222 17.6711 7.11109 17.5214 6.52137 17.8055Z" fill="#39C2D6"/>
<path d="M6.52136 17.8055C6.82692 17.4052 7.25164 17.5244 7.6397 17.5244C11.7403 17.5244 15.8408 17.5326 19.9414 17.5489C19.59 17.9797 19.1011 17.8177 18.6672 17.8177C14.6186 17.8055 10.57 17.8055 6.52136 17.8055Z" fill="#A7ADB1"/>
<path d="M9.27749 10.1667C9.34166 10.8542 9.07583 11.1261 8.42805 11.1383C7.78027 11.1506 7.42888 10.9122 7.4411 10.1881C7.4411 9.57696 7.6611 9.2714 8.31194 9.28668C8.96277 9.30196 9.39972 9.45779 9.27749 10.1667Z" fill="#CEEBF2"/>
<path d="M12.9411 10.2216C13.0022 10.8572 12.7303 11.1383 12.0825 11.1383C11.4347 11.1383 11.0833 10.9122 11.0986 10.1911C11.0986 9.57997 11.3186 9.27441 11.9695 9.27441C12.6203 9.27441 13.0297 9.4883 12.9411 10.2216Z" fill="#CEEBF2"/>
<path d="M15.6666 11.1169C15.0158 11.1841 14.7652 10.8786 14.7775 10.2338C14.7775 9.50051 15.1747 9.28662 15.8377 9.28662C16.565 9.28662 16.6047 9.7419 16.6169 10.295C16.6261 10.9855 16.2777 11.175 15.6666 11.1169Z" fill="#CDEBF2"/>
</svg>
