<svg width="24" height="24" viewBox="0 0 24 24" fill="none" xmlns="http://www.w3.org/2000/svg">
<path d="M3.86613 12.1528C3.86613 9.51586 3.90891 6.87586 3.84474 4.23892C3.81724 3.16948 4.16863 2.73865 5.23502 2.8792C5.64093 2.92859 6.05133 2.92859 6.45724 2.8792C7.42585 2.7692 7.65807 3.23364 7.65501 4.12281C7.62751 9.39974 7.61529 14.6736 7.65501 19.9506C7.65501 20.9925 7.29446 21.2369 6.33196 21.2125C3.36502 21.1331 3.90585 21.5181 3.86919 18.8444C3.84169 16.617 3.86613 14.3833 3.86613 12.1528Z" fill="#4284C5"/>
<path d="M15.6667 13.8333C15.627 13.8639 15.5903 13.8975 15.5476 13.925C14.8387 14.3619 13.6837 13.6194 13.3231 14.4017C12.9626 15.1839 13.1948 16.1769 13.1673 17.0844C13.1673 17.335 13.1673 17.5886 13.1673 17.8392C13.1673 21.3164 13.1673 21.3164 9.56785 21.1269C9.28063 20.4944 9.43646 19.8283 9.43341 19.1805C9.41915 14.2672 9.41915 9.35288 9.43341 4.43752C9.43341 3.94252 9.30813 3.42307 9.57091 2.94946C11.8137 2.94946 14.0687 2.54919 16.2931 3.11752C15.8348 3.64613 15.1962 3.53002 14.6095 3.56363C13.9526 3.60029 13.3873 3.71946 13.369 4.5414C13.3353 5.29001 13.369 5.96529 14.3467 6.09362C14.7745 6.15168 15.2634 6.15779 15.4315 6.72307C15.3711 6.83552 15.2836 6.93107 15.1768 7.00099C15.0701 7.07091 14.9475 7.11298 14.8203 7.12334C14.0931 7.22723 13.6348 7.5114 13.6226 8.3639C13.6103 9.21639 13.8884 9.71139 14.7226 9.89167C14.8675 9.93764 14.9959 10.0247 15.0923 10.1422C15.1381 10.625 14.7592 10.7533 14.4323 10.7931C13.4453 10.9489 13.2987 11.5906 13.3476 12.4339C13.3995 13.3658 14.0656 13.375 14.7256 13.4392C14.9016 13.4332 15.0768 13.4653 15.2393 13.5333C15.4017 13.6014 15.5475 13.7037 15.6667 13.8333Z" fill="#589ED6"/>
<path d="M15.6666 13.8333C15.416 13.8333 15.1624 13.8089 14.9119 13.8089C13.0633 13.8089 12.3391 12.7181 12.9563 10.9611C13.1122 10.5181 13.4116 10.4906 13.7691 10.46C14.2122 10.4233 14.6858 10.57 15.0647 10.2064C16.2624 9.14002 16.406 7.97891 15.3702 6.71391C15.1923 6.62696 15.0073 6.5554 14.8172 6.50002C14.206 6.36252 13.3077 6.85447 13.0388 6.11502C12.7699 5.37558 12.9166 4.52614 12.9533 3.71947C12.9747 3.16947 13.4422 3.16336 13.8699 3.15725L16.2777 3.13892C19.1774 4.02808 20.3935 5.91947 20.2499 9.28668C20.1308 11.4897 18.2883 13.3292 15.6666 13.8333Z" fill="#3F83C5"/>
<path d="M9.55558 2.96167V21.1391C9.11864 20.9375 9.25003 20.528 9.25003 20.2225C9.25003 14.7836 9.25003 9.34471 9.25003 3.90583C9.25003 3.56361 9.11253 3.16028 9.55558 2.96167Z" fill="#6E90BC"/>
<path d="M15.3611 6.72614C17.1669 8.0553 17.063 9.24085 15.0555 10.2186C13.4208 10.4631 13.1305 9.6778 13.1 8.17141C13.0541 6.14253 14.4444 6.9278 15.3611 6.72614Z" fill="#FCFDFD"/>
</svg>
