<svg width="24" height="24" viewBox="0 0 24 24" fill="none" xmlns="http://www.w3.org/2000/svg">
<path d="M19.5992 10.1667C19.6145 10.2125 19.6175 10.2767 19.6511 10.3042C20.9681 11.4042 21.4845 12.5164 19.7459 13.7111C19.6542 13.7722 19.6664 13.9861 19.6297 14.1297C18.7436 15.2206 17.6681 16.125 16.6781 17.1181C16.4092 17.3869 16.1159 17.7292 15.6392 17.5092C15.1075 16.8981 15.2573 16.1647 15.2481 15.4711C15.2328 14.6461 14.8631 14.2703 14.0442 14.2672C12.7761 14.2672 11.5081 14.2917 10.24 14.2672C9.23171 14.2367 8.71227 14.6247 8.75505 15.6819C8.7702 16.037 8.74561 16.3926 8.68171 16.7422C8.51977 17.5825 8.02783 17.7292 7.41672 17.1944C6.34727 16.2778 5.25644 15.3611 4.46506 14.1389C4.4345 13.9953 4.46506 13.7783 4.37033 13.7142C2.50034 12.3942 3.39867 11.3033 4.63922 10.2308C5.6445 8.8039 6.59172 7.3128 8.41588 6.77808C8.52135 6.89195 8.60061 7.02753 8.6481 7.1753C8.95366 9.73585 8.95366 9.73585 11.6028 9.73585H12.5195C15.1136 9.73585 15.1136 9.73585 15.352 7.22724C15.3894 7.07821 15.4558 6.93803 15.5475 6.81474C15.7011 6.68188 15.9009 6.61504 16.1035 6.62878C16.306 6.64251 16.495 6.73571 16.6292 6.88808C17.6803 7.91168 18.9147 8.78252 19.5992 10.1667Z" fill="#7DCAC3"/>
<path d="M4.45585 14.1388C6.04474 14.7316 6.72307 16.3999 8.16529 17.2586C8.22945 17.1363 8.33945 17.0233 8.34251 16.9041C8.4739 13.8333 8.47084 13.8333 11.505 13.8333H11.8106C12.9778 13.8577 14.3436 13.5277 15.2572 14.0044C16.2869 14.5636 15.4375 16.0608 15.7186 17.1088C15.7817 17.2519 15.8673 17.384 15.9722 17.4999C16.7178 18.4563 16.3205 19.5563 16.3664 20.6013C16.2228 20.8458 16.1128 21.2338 15.7553 20.8824C15.6483 20.7786 15.7186 20.4944 15.7033 20.2927C15.5383 17.7261 15.5383 17.7261 13.0114 17.7261C12.7608 17.7261 12.5072 17.7261 12.2536 17.7261C11.1383 17.7444 9.80917 17.3991 8.9689 17.8849C7.98195 18.4472 8.8864 19.9413 8.35779 21.246C6.58251 19.4677 4.89891 17.7749 3.20613 16.0913C2.90058 15.7858 3.03502 15.5627 3.2703 15.3305C3.66141 14.9333 4.05558 14.5452 4.45585 14.1388Z" fill="#2DA79B"/>
<path d="M19.5991 10.1666C18.5724 9.51275 17.8727 8.51358 16.9805 7.7222C16.5833 7.35248 16.2991 6.80553 15.6666 6.80553C15.6328 6.78404 15.6068 6.75222 15.5925 6.71479C15.5782 6.67737 15.5763 6.63633 15.5872 6.59776C15.6147 6.52748 15.6422 6.49387 15.6666 6.49387V3.27026C16.5222 3.27026 16.791 3.95165 17.231 4.35498C18.0438 5.10359 18.8047 5.91026 19.5869 6.69248C21.298 8.4097 21.298 8.4097 19.5991 10.1666Z" fill="#2EA79C"/>
<path d="M8.36393 6.78417L4.63005 10.2431C2.91589 8.36694 2.88839 8.33944 4.71866 6.57639C5.90727 5.44278 6.89421 4.08612 8.33337 3.20001C8.5802 4.38099 8.59058 5.59916 8.36393 6.78417Z" fill="#2FA79C"/>
<path d="M16.3572 20.5891C15.5536 19.6388 16.1494 18.5144 15.9722 17.5C17.1241 16.2991 18.05 14.8508 19.6389 14.1389C19.9719 14.4444 20.2866 14.7714 20.635 15.0555C21.1666 15.4894 21.2736 15.8683 20.7052 16.4C19.2294 17.7597 17.8055 19.1836 16.3572 20.5891Z" fill="#2DA79B"/>
<path d="M8.36393 6.78417L8.33337 3.20001C8.89559 3.91195 8.5656 4.72779 8.57476 5.49778C8.58393 6.26778 8.85587 6.53973 9.63198 6.52139C11.6303 6.47862 13.6439 6.5 15.6667 6.5V6.80556C13.2984 7.60068 10.7353 7.60068 8.36699 6.80556L8.36393 6.78417Z" fill="#63938D"/>
<path d="M8.36698 6.80554H15.6667C15.7033 10.1666 15.7033 10.1666 12.3881 10.1666H11.777C8.33337 10.1819 8.33337 10.1819 8.36698 6.80554Z" fill="#27A79B"/>
</svg>
