<svg width="24" height="24" viewBox="0 0 24 24" fill="none" xmlns="http://www.w3.org/2000/svg">
<path d="M18.9819 18.9941L18.6947 19.3333C17.8086 19.0889 17.998 18.3219 17.9705 17.72C17.9033 16.1922 17.9308 14.6644 17.9491 13.1642C17.9644 12.0122 17.4816 11.5233 16.3144 11.5386C13.5308 11.5722 10.7411 11.6272 7.96056 11.5142C6.66195 11.4622 6.19446 12.5072 5.30835 12.9747C2.83335 10.5181 3.38335 7.26084 6.58557 5.8889C7.21881 5.60939 7.78153 5.19179 8.23251 4.66668C10.8847 1.75474 15.1992 2.46363 16.8614 6.05084C17.063 6.48778 17.1669 6.92473 17.7505 7.17223C20.7266 8.43111 21.2522 10.4478 19.3486 13.0205C19.2374 13.1859 19.1354 13.3573 19.043 13.5339C19.2358 15.3501 19.2152 17.1827 18.9819 18.9941Z" fill="#967AB7"/>
<path d="M5.30833 12.9716C5.64444 11.3216 6.71694 11.0008 8.26916 11.0711C11.0436 11.1933 13.8303 11.1658 16.6108 11.0711C17.9919 11.0283 18.5389 11.4683 18.4441 12.8891C18.3525 14.5605 18.4166 16.235 18.4166 17.9033C18.4166 18.3861 18.2394 18.9269 18.6916 19.3302C18.8994 20.6991 18.3861 21.2369 16.9377 21.1941C13.7966 21.0994 10.6464 21.0811 7.50833 21.1941C5.98055 21.2522 5.30833 20.8274 5.58639 19.2661C4.71861 17.2708 5.21667 15.2144 5.30833 13.1763C5.29825 13.1085 5.29825 13.0395 5.30833 12.9716Z" fill="#B0BEC5"/>
<path d="M5.31143 13.1825C5.97448 15.1869 5.49781 17.2433 5.58948 19.2722C4.63309 18.4747 3.69199 17.6528 2.71115 16.8889C2.03893 16.3633 2.13977 15.9722 2.74477 15.4894C3.63393 14.75 4.45893 13.9525 5.31143 13.1825Z" fill="#795EA8"/>
<path d="M18.982 18.9941C18.5604 17.1608 18.4748 15.3275 19.0401 13.4941C22.5845 16.1341 22.5845 16.1341 18.982 18.9941Z" fill="#795EA8"/>
<path d="M9.2959 16.1494C9.2959 16.9072 9.2959 17.6772 9.2959 18.4228C9.31423 19.0339 9.14312 19.3608 8.45256 19.3669C7.76201 19.373 7.45034 19.1194 7.46562 18.3953C7.49618 16.9317 7.48701 15.4681 7.46562 14.0014C7.46562 13.3292 7.68868 12.9778 8.42201 12.9594C9.23784 12.9381 9.31117 13.4056 9.2959 14.0289C9.28367 14.75 9.29895 15.4436 9.2959 16.1494Z" fill="#7A60A9"/>
<path d="M11.1292 16.2594C11.1292 15.4527 11.1292 14.643 11.1292 13.8333C11.1292 13.1794 11.4897 12.9747 12.0947 12.9625C12.7761 12.9441 12.9656 13.268 12.9564 13.8944C12.9381 15.4222 12.935 16.9255 12.9564 18.4441C12.9564 19.0552 12.7608 19.3608 12.0886 19.3608C11.3614 19.3608 11.0833 19.0888 11.12 18.3769C11.1567 17.665 11.1292 16.9683 11.1292 16.2594Z" fill="#7A60A9"/>
<path d="M16.6078 16.1953C16.6078 16.9561 16.5865 17.723 16.6078 18.4716C16.6323 19.1255 16.3481 19.3669 15.6912 19.3608C15.0342 19.3547 14.7501 19.1897 14.7745 18.5083C14.7959 16.9805 14.7929 15.4711 14.7745 13.9525C14.7745 13.2405 15.0801 12.9655 15.7798 12.9625C16.4795 12.9594 16.6292 13.3261 16.614 13.9189C16.5834 14.6766 16.6078 15.4375 16.6078 16.1953Z" fill="#7A5FA9"/>
</svg>
