<svg width="24" height="24" viewBox="0 0 24 24" fill="none" xmlns="http://www.w3.org/2000/svg">
<path d="M10.2034 9.50361C8.67562 9.50361 7.14784 9.48222 5.63535 9.53722C4.74007 9.56777 4.68813 9.07278 4.67285 8.38528C4.65757 7.69778 4.92951 7.41667 5.64757 7.41667C6.9146 7.45333 8.18367 7.45333 9.45478 7.41667C9.98034 7.40139 10.7442 7.72222 10.9826 7.14778C11.1514 6.80179 11.2085 6.41191 11.1461 6.03203C11.0837 5.65215 10.9048 5.30103 10.6342 5.02723C10.0231 4.41612 10.0231 3.65528 10.4295 2.92195C10.8359 2.18862 11.5937 1.97168 12.3851 2.03279C13.1764 2.0939 13.6073 2.65918 13.9128 3.3314C14.2184 4.00362 13.9312 4.55362 13.5431 4.99667C13.2995 5.29071 13.1448 5.64811 13.0972 6.02696C13.0496 6.40581 13.111 6.79038 13.2742 7.13556C13.5126 7.71306 14.2764 7.39222 14.802 7.41056C15.9662 7.45028 17.1364 7.43194 18.3037 7.41056C18.9912 7.41056 19.6023 7.3525 19.59 8.38833C19.5778 9.42416 19.04 9.52805 18.2273 9.51583C16.8584 9.4975 15.4773 9.54027 14.1176 9.55861C12.8183 9.75005 11.4967 9.73148 10.2034 9.50361Z" fill="#7B929E"/>
<path d="M10.2033 9.5036C11.4864 9.08655 12.8723 9.11237 14.1389 9.57693C14.1389 12.1436 14.0411 14.7164 14.1786 17.2769C14.2764 19.153 13.5675 20.5586 12.3055 21.7961C11.4592 21.3622 11.56 20.5464 11.5478 19.813C11.5081 17.2494 11.4928 14.6828 11.5478 12.1192C11.5753 10.9428 11.3125 10.0475 10.1361 9.59832L10.2033 9.5036Z" fill="#AFBCC4"/>
<path d="M10.1422 9.59832C11.6119 9.26832 12.0917 9.82443 12.0336 11.3369C11.9205 14.2275 12.0061 17.1425 11.9969 20.0208C11.9969 20.6319 11.9969 21.243 12.3025 21.7961C11.3675 21.7319 10.1636 20.1155 10.1636 18.823C10.1453 15.7491 10.1667 12.6753 10.1422 9.59832Z" fill="#CBD4D7"/>
<path d="M7.46253 14.7011L9.1278 14.7958C8.58697 16.1555 6.98892 17.0203 5.36031 16.7942C4.71476 16.7005 4.08538 16.5175 3.49031 16.2503C2.91893 15.9967 2.03893 15.7461 2.24365 14.9761C2.39032 14.4444 3.23365 14.8753 3.75004 14.7103C4.31888 14.3989 4.95664 14.235 5.60512 14.2333C6.2536 14.2317 6.89215 14.3926 7.46253 14.7011Z" fill="#9479B5"/>
<path d="M20.2805 14.6889C20.8305 14.8875 21.8083 14.4322 21.903 14.9944C22.0344 15.8408 21.0444 16.1342 20.3752 16.4061C18.1599 17.2922 16.1586 16.7117 14.8936 14.8019L16.5619 14.7072C17.1316 14.3961 17.7697 14.2315 18.4189 14.2283C19.068 14.2251 19.7077 14.3834 20.2805 14.6889Z" fill="#9479B5"/>
<path d="M20.2805 14.6889L16.5527 14.7164C17.1363 13.2497 17.723 11.7861 18.4136 10.0566C19.2615 11.4999 19.8907 13.061 20.2805 14.6889Z" fill="#C2B0D4"/>
<path d="M7.46249 14.7011L3.75 14.7133L5.65972 10.0016C6.38694 11.7708 7.18749 13.1275 7.46249 14.7011Z" fill="#C2B0D4"/>
</svg>
