<svg width="24" height="24" viewBox="0 0 24 24" fill="none" xmlns="http://www.w3.org/2000/svg">
<path d="M20.2225 17.4479C19.8681 17.4632 19.5136 17.4907 19.1561 17.4937C16.7728 17.5121 16.7331 17.5121 16.6261 15.0799C16.5834 14.2579 16.2778 14.0777 15.5262 14.0532C13.9403 14.0013 12.6509 14.0532 11.5845 15.7185C10.2768 17.7687 7.11123 18.1598 4.97236 17.011C2.6196 15.7521 1.51044 13.2557 2.18877 10.7441C3.23071 12.116 4.5843 11.4835 5.8554 11.3216C6.16096 11.5477 6.20985 11.9052 6.28012 12.2382C6.4054 12.831 6.70179 13.2527 7.3465 13.3199C7.99122 13.3871 8.37927 13.0541 8.68788 12.5468C8.93538 12.1405 8.99343 11.563 9.6412 11.5049C13.0512 11.5294 16.455 11.5049 19.8589 11.5263C20.6106 11.5263 21.3867 11.4285 22.0405 11.9877C22.0405 12.5988 22.0304 13.2099 22.01 13.821C20.5769 13.7599 20.1339 14.4657 20.3478 15.8254C20.4394 16.354 20.5372 16.9376 20.2225 17.4479Z" fill="#FFD168"/>
<path d="M22.0527 11.9999C18.272 11.9999 14.4933 12.0091 10.7167 12.0274C10.2123 12.0792 9.70506 11.962 9.27449 11.6943C8.22339 10.6249 7.08673 10.5424 5.86147 11.3888C4.99064 12.5224 3.78065 11.9632 2.71733 11.951C2.00539 11.951 2.38122 11.1535 2.18872 10.7502C2.79983 8.39132 4.32759 7.00716 6.73229 6.68328C9.13699 6.35939 11.0467 7.20883 12.2506 9.3202C12.6814 10.0749 13.1672 10.2369 13.9372 10.2369C16.1128 10.2002 18.3005 10.3285 20.4699 10.188C21.9885 10.081 22.3491 10.6677 22.0527 11.9999Z" fill="#FCB318"/>
<path d="M20.2225 17.4479C20.2653 16.8457 20.2653 16.2412 20.2225 15.639C20.0147 14.1877 20.5647 13.5766 22.0253 13.8363C20.5372 14.0196 20.3967 15.0127 20.525 16.2349C20.5556 16.6321 20.7633 17.1576 20.2225 17.4479Z" fill="#BEB3A2"/>
<path d="M5.86153 11.3888C7.16624 9.82434 8.21428 9.91907 9.27455 11.6943C9.30511 13.0051 8.73372 13.9065 7.36485 13.8118C5.91347 13.711 5.72403 12.5896 5.86153 11.3888Z" fill="#FCFAF8"/>
</svg>
