<svg width="24" height="24" viewBox="0 0 24 24" fill="none" xmlns="http://www.w3.org/2000/svg">
<path d="M17.1303 3.96694C17.6833 4.03111 18.27 3.9975 18.7833 4.17778C20.4058 4.74 20.467 5.32666 19.2417 6.52444C14.9181 10.7503 10.6342 15.0189 6.31059 19.2416C5.8492 19.6908 5.48253 20.7419 4.51087 19.8191C3.5392 18.8964 4.33059 18.3158 4.94476 17.72C6.69253 16.0241 8.41892 14.3008 10.2186 12.66C10.9214 12.0214 10.9978 11.5722 10.2186 11.0283C9.09725 10.2553 9.15531 9.56166 10.2186 8.68777C11.4225 7.67944 12.4981 6.51527 13.6195 5.40916C14.5789 4.44055 15.6667 3.76833 17.1303 3.96694Z" fill="#79919D"/>
</svg>
