<svg width="24" height="24" viewBox="0 0 24 24" fill="none" xmlns="http://www.w3.org/2000/svg">
<path d="M5.62004 21.1178C2.87004 21.2919 2.87004 21.2919 2.87004 18.6366C2.87004 17.8269 2.9006 17.0141 2.87004 16.1922C2.82727 15.303 2.83338 14.533 4.09226 14.695C4.54449 14.7653 4.66671 14.4444 4.66671 14.0258C4.66671 13.6072 4.6056 13.155 4.0556 13.2222C2.92199 13.3475 2.87616 12.6844 2.87004 11.8258C2.83338 8.38833 2.83338 8.38833 6.22198 8.35472C6.32282 8.35472 6.42365 8.35472 6.52754 8.33944C7.06532 7.85361 7.74976 7.89028 8.39142 7.88417C10.2614 7.86889 12.1314 7.83833 14.0014 7.88417C15.2572 7.92083 16.2259 7.72833 16.2411 6.18222C16.2679 5.97831 16.3717 5.79241 16.5314 5.66278C16.7606 7.5725 17.3992 8.98416 19.7581 8.39444C20.027 8.32722 20.2133 8.61444 20.2133 8.88944C20.2133 10.1575 20.2133 11.4255 20.1981 12.6936C20.1981 13.1917 19.7642 13.1886 19.4097 13.1855C18.8934 13.1855 18.6917 13.433 18.6886 13.9342C18.6856 14.4353 18.82 14.75 19.3608 14.7072C20.3203 14.6278 20.2439 15.2755 20.2408 15.8989C20.2408 17.0661 20.1308 18.2455 20.2653 19.3975C20.4425 20.9253 19.8283 21.4111 18.4045 21.1758C18.1 21.1439 17.7937 21.1337 17.4878 21.1453C16.837 20.3478 17.1059 19.3975 17.0478 18.5022C17.0142 17.995 17.0692 17.4847 16.9928 16.9744C16.9256 16.5314 16.7361 16.1983 16.2289 16.18C16.115 16.1629 15.9988 16.1692 15.8875 16.1987C15.7761 16.2283 15.672 16.2803 15.5816 16.3515C15.4911 16.4228 15.4162 16.5119 15.3615 16.6132C15.3067 16.7146 15.2733 16.8261 15.2634 16.9408C15.1106 17.7964 15.2084 18.6641 15.1747 19.5258C15.1503 20.085 15.1747 20.6533 14.7592 21.1086L12.9167 21.1666C12.2689 20.3722 12.5347 19.4189 12.4797 18.5266C12.4461 18.0225 12.4981 17.5122 12.4247 16.9989C12.3575 16.5558 12.1711 16.2228 11.667 16.2014C11.5533 16.1829 11.437 16.1879 11.3253 16.2163C11.2136 16.2446 11.109 16.2956 11.0178 16.3661C10.9267 16.4366 10.8511 16.5251 10.7956 16.6261C10.7401 16.727 10.706 16.8383 10.6953 16.953C10.5425 17.8086 10.6403 18.6764 10.6036 19.538C10.5792 20.0911 10.6036 20.6625 10.2003 21.1208L8.33337 21.1666C7.68865 20.3691 7.95448 19.4189 7.89948 18.5236C7.86587 18.0194 7.91781 17.5091 7.84142 16.9958C7.77726 16.5528 7.58781 16.2197 7.08365 16.2014C6.96993 16.1833 6.85371 16.1888 6.74221 16.2176C6.63072 16.2463 6.52631 16.2977 6.43549 16.3684C6.34466 16.4392 6.26935 16.5279 6.21422 16.629C6.1591 16.7301 6.12534 16.8414 6.11504 16.9561C5.96226 17.8147 6.06004 18.6794 6.02337 19.5411C6.00504 20.0911 6.03254 20.6625 5.62004 21.1178Z" fill="#98A8AF"/>
<path d="M16.5314 5.67196C16.6964 8.36084 16.6964 8.36084 13.9801 8.35778C11.4969 8.35778 9.01275 8.35167 6.52757 8.33945C6.54446 7.93696 6.53528 7.53381 6.50007 7.13251C6.34118 5.98973 6.70174 5.43362 7.95146 5.60473C8.6634 5.70862 9.43645 5.74223 9.2684 4.5964C9.24395 4.42835 9.36312 4.08001 9.43645 4.0739C10.3837 4.00057 11.337 3.94557 12.2873 3.94251C13.1337 3.94251 14.2276 3.6064 14.0839 5.16473C14.0381 5.6689 14.5209 5.61084 14.8601 5.62612C15.4223 5.64751 15.9723 5.65668 16.5314 5.67196Z" fill="#566F7B"/>
<path d="M5.62 21.1177C5.62 19.7091 5.67194 18.3005 5.62 16.895C5.57111 15.6728 6.34416 15.7247 7.19972 15.6728C8.16222 15.6208 8.42194 16.0394 8.3761 16.9225C8.33333 18.3341 8.33333 19.7428 8.33333 21.1666L5.62 21.1177Z" fill="#56707C"/>
<path d="M10.2003 21.1147C10.2003 19.6908 10.2401 18.267 10.2003 16.837C10.1667 15.6881 10.8878 15.7125 11.7067 15.6759C12.6081 15.6361 13.0053 15.9111 12.9565 16.8767C12.8862 18.2975 12.9259 19.7214 12.9198 21.1545L10.2003 21.1147Z" fill="#56707C"/>
<path d="M14.7654 21.1238C14.7654 19.7152 14.8173 18.3036 14.7654 16.895C14.7165 15.6544 15.4987 15.7277 16.3481 15.6727C17.3076 15.6208 17.5704 16.0272 17.5337 16.9164C17.4695 18.3341 17.5001 19.7427 17.5001 21.1666L14.7654 21.1238Z" fill="#556F7B"/>
</svg>
