<svg width="24" height="24" viewBox="0 0 24 24" fill="none" xmlns="http://www.w3.org/2000/svg">
<path d="M5.61085 21.1483C2.87613 21.295 2.87613 21.295 2.87613 18.6428C2.87613 17.8819 2.89141 17.115 2.87613 16.3572C2.85474 15.4894 2.85474 14.6767 4.09835 14.7439C4.67891 14.7744 4.70947 14.3406 4.70947 13.9097C4.70947 13.4789 4.56891 13.1672 4.09835 13.2131C3.02585 13.3292 2.87613 12.7669 2.87613 11.8472C2.87613 8.425 2.8303 8.425 6.5428 8.34556C7.08669 7.85667 7.76502 7.90861 8.41891 7.90556C10.4509 7.88722 12.4797 7.92389 14.5117 7.88417C15.077 7.88417 15.8531 8.04611 15.9845 7.19056C16.1159 6.335 15.352 6.43889 14.86 6.27389C14.5545 6.15778 14.1297 6.12417 14.1878 5.61694C14.6342 5.62781 15.0808 5.61659 15.5261 5.58333C16.5976 5.44889 17.0447 5.9062 16.8675 6.95528C16.6414 8.28139 17.3717 8.54722 18.4411 8.37306C19.917 8.11944 20.4731 8.70306 20.25 10.1667C20.1989 10.7767 20.1989 11.39 20.25 12C20.25 12.6386 20.2897 13.2589 19.3609 13.2222C18.8261 13.1947 18.6856 13.5278 18.6795 14.0075C18.6734 14.4872 18.8506 14.8019 19.3761 14.7622C20.3295 14.6919 20.2531 15.3458 20.25 15.9661C20.25 17.1883 20.1706 18.4106 20.2684 19.6114C20.3661 20.8122 20.0331 21.4447 18.7131 21.2278C18.3105 21.1812 17.9053 21.1608 17.5 21.1667C16.8889 20.4272 17.0967 19.535 17.0539 18.6947C17.0264 18.1906 17.0539 17.6833 17.0264 17.1669C16.9836 16.6078 16.7881 16.1708 16.1372 16.1647C15.4864 16.1586 15.2664 16.5711 15.2206 17.1425C15.1686 17.8972 15.2206 18.6703 15.19 19.4128C15.1717 20.0239 15.19 20.635 14.7592 21.1361L12.9167 21.1667C12.2689 20.3692 12.5347 19.4158 12.4797 18.5206C12.4461 18.0133 12.4981 17.5031 12.4217 16.9928C12.3575 16.5497 12.1681 16.2197 11.6609 16.2014C11.5469 16.1838 11.4305 16.1899 11.319 16.2192C11.2075 16.2485 11.1032 16.3005 11.0126 16.3718C10.9221 16.4432 10.8471 16.5324 10.7925 16.634C10.738 16.7356 10.7049 16.8473 10.6953 16.9622C10.5425 17.8208 10.6403 18.6886 10.6036 19.5503C10.5822 20.1094 10.6036 20.6778 10.1881 21.1361L8.33335 21.1667C7.72224 20.4272 7.93613 19.535 7.89335 18.6947C7.86585 18.1906 7.89335 17.6864 7.8628 17.1669C7.82002 16.6078 7.62752 16.1708 6.97669 16.1647C6.32585 16.1586 6.1028 16.5681 6.06002 17.1394C6.00502 17.8942 6.06002 18.6519 6.02641 19.4097C6.01724 20.03 6.05391 20.6472 5.61085 21.1483Z" fill="#7DCAC3"/>
<path d="M14.1603 5.60472C14.4659 5.99277 14.9059 5.91027 15.2909 5.87055C16.2931 5.76055 16.5926 6.17611 16.6109 7.16611C16.6292 8.2875 16.0762 8.38833 15.1962 8.37C12.3056 8.33333 9.40894 8.34861 6.51533 8.33333C6.52907 8.07991 6.52907 7.82592 6.51533 7.5725C6.34422 6.21277 6.57644 5.2625 8.30283 5.60472C8.71839 5.68722 9.32644 5.72389 9.24394 4.99361C9.1095 3.805 9.85505 3.80805 10.6648 3.83555C11.1728 3.88661 11.6846 3.88661 12.1926 3.83555C13.592 3.6125 14.2642 4.15027 14.1603 5.60472Z" fill="#2BA79B"/>
<path d="M5.61091 21.1483C5.61091 19.6756 5.6598 18.1997 5.59563 16.7269C5.5498 15.6025 6.25258 15.6942 6.98896 15.685C7.72535 15.6758 8.41285 15.6453 8.36396 16.7514C8.2998 18.2211 8.33341 19.6969 8.33341 21.1667L5.61091 21.1483Z" fill="#29A79B"/>
<path d="M14.75 21.1667C14.75 19.6908 14.7988 18.2119 14.75 16.7392C14.7011 15.6117 15.4069 15.7033 16.1433 15.6972C16.8797 15.6911 17.5733 15.6514 17.5244 16.7606C17.4541 18.2211 17.5 19.6969 17.5 21.1667H14.75Z" fill="#29A79B"/>
<path d="M10.188 21.1453C10.188 19.7336 10.2277 18.3189 10.188 16.9072C10.1452 15.685 10.9091 15.7186 11.7769 15.685C12.7485 15.6361 12.9808 16.0761 12.9502 16.95C12.8891 18.3464 12.9166 19.7611 12.9166 21.1667L10.188 21.1453Z" fill="#2AA79B"/>
</svg>
