<svg width="24" height="24" viewBox="0 0 24 24" fill="none" xmlns="http://www.w3.org/2000/svg">
<path d="M13.2558 15.9721C12.7577 16.6291 12.0336 16.9957 11.1414 17.6343V12.2291L3.97004 17.5671V11.4744C3.97004 10.5577 3.90893 9.64107 3.98837 8.72441C4.04337 8.1133 3.47199 7.23026 4.15948 6.9247C4.74615 6.66498 5.22892 7.53581 5.7453 7.89331C7.46557 9.11552 9.12472 10.4111 11.1139 11.9083C11.1139 10.2522 11.1139 8.9658 11.1139 7.67636C11.1139 7.40137 10.9641 7.0347 11.3339 6.87582C11.7036 6.71693 11.8961 6.99193 12.1375 7.18137C13.8302 8.46265 15.526 9.7419 17.2249 11.0191C17.5763 11.2819 17.836 11.7158 18.3799 11.6486C18.428 11.6976 18.4657 11.7558 18.4909 11.8197C18.5161 11.8836 18.5282 11.952 18.5265 12.0206C18.5247 12.0893 18.5093 12.1569 18.481 12.2195C18.4526 12.2821 18.412 12.3383 18.3616 12.3849L15.6666 14.1663C15.5985 14.0282 15.5799 13.871 15.6138 13.7208C15.6477 13.5707 15.7322 13.4367 15.853 13.3413C16.8155 12.4247 16.5283 11.7219 15.5474 11.0436C14.6736 10.4325 13.9127 9.68385 13.0205 9.10635C12.2872 8.63274 11.78 8.64497 11.7983 9.71746C11.7983 11.3888 11.8716 13.0785 11.7739 14.7255C11.6944 15.9721 12.718 15.6116 13.2558 15.9721Z" fill="#788C96"/>
<path d="M13.2558 15.9721C11.3889 16.4182 11.3889 16.4182 11.3889 14.5635C11.3889 12.7088 11.4134 10.9274 11.3889 9.11241C11.3889 8.29659 11.5967 7.95131 12.4217 8.3302C14.1847 9.13991 15.4589 10.6127 17.005 11.7341C17.3839 12.0152 17.1547 12.4674 16.8583 12.7974C16.458 13.2465 16.0761 13.714 15.685 14.1663C14.9764 14.8934 14.1564 15.503 13.2558 15.9721Z" fill="#778C96"/>
<path d="M18.4471 7.11107C18.8046 6.34108 19.5044 6.6558 19.9963 6.75663C20.4882 6.85746 20.2316 7.44718 20.2346 7.81384C20.2499 10.6402 20.2499 13.4574 20.2499 16.2777C20.2499 17.7138 20.033 17.8054 18.4533 17.1943C18.6443 13.8359 18.6423 10.4693 18.4471 7.11107Z" fill="#556F7A"/>
<path d="M18.4471 7.11108C18.9849 8.9994 18.6427 10.9244 18.6702 12.831C18.6885 14.2763 18.9757 15.7552 18.4441 17.1791C18.4196 15.582 18.3942 13.983 18.3677 12.3819L18.386 11.6455C18.4064 10.1401 18.4267 8.62866 18.4471 7.11108Z" fill="#778C96"/>
</svg>
