<svg width="24" height="24" viewBox="0 0 24 24" fill="none" xmlns="http://www.w3.org/2000/svg">
<path d="M21.1667 9.24996C21.1667 12.1955 21.1392 15.138 21.1667 18.0836C21.1667 19.0002 20.9192 19.3363 19.9658 19.3302C14.637 19.2936 9.30707 19.2936 3.97615 19.3302C3.11143 19.3333 2.83337 19.0277 2.83337 18.1752C2.88226 15.1808 2.88226 12.1863 2.9006 9.1919C3.4506 8.72135 4.12282 8.77635 4.77365 8.77329C9.6116 8.75904 14.4506 8.7682 19.2906 8.80079C19.9445 8.80385 20.6167 8.77024 21.1667 9.24996Z" fill="#D6C9E3"/>
<path d="M21.1667 9.24998L2.90675 9.19193C2.88841 5.20138 2.42702 5.6536 6.31063 5.63832C10.6281 5.61999 14.9517 5.70249 19.2662 5.5986C20.8398 5.55888 21.405 6.05999 21.2003 7.58776C21.1573 8.14074 21.1461 8.69572 21.1667 9.24998Z" fill="#9176B5"/>
<path d="M19.3334 14.3741C19.3334 17.5885 19.3334 17.5397 16.1037 17.5427C15.0067 17.5427 14.6859 17.173 14.7531 16.1341C14.8249 14.967 14.8249 13.7965 14.7531 12.6294C14.689 11.5386 15.0281 11.1016 16.2015 11.1016C19.3334 11.1016 19.3334 11.0497 19.3334 14.3741Z" fill="#9276B5"/>
<path d="M8.74889 13.8486C7.88723 13.8486 7.02251 13.8058 6.1639 13.8486C5.2014 13.9097 4.67279 13.7325 4.68807 12.5591C4.70334 11.3858 5.10362 11.0527 6.21584 11.0925C8.08889 11.1627 9.97111 11.1658 11.8442 11.0925C13.0664 11.0466 12.9136 11.8044 12.9533 12.5775C12.9961 13.4361 12.7944 13.9219 11.7953 13.8516C10.7961 13.7813 9.76334 13.8486 8.74889 13.8486Z" fill="#9277B5"/>
<path d="M9.05443 15.7064C10.0689 15.7064 11.0833 15.7064 12.11 15.7064C12.8036 15.7064 12.9594 16.07 12.9533 16.6719C12.9472 17.2739 12.7547 17.5214 12.1589 17.5183C9.97721 17.5183 7.79453 17.5183 5.61083 17.5183C5.06999 17.5183 4.73694 17.3533 4.73694 16.7483C4.73694 16.1433 4.88972 15.7247 5.56194 15.7186C6.72916 15.7033 7.89638 15.7186 9.06665 15.7186L9.05443 15.7064Z" fill="#9377B6"/>
<path d="M14.75 7.37385C14.75 7.98496 14.4689 8.33635 13.8578 8.34246C13.3506 8.34246 12.9595 8.10413 12.9717 7.56329C12.9674 7.31222 13.0604 7.06921 13.2313 6.88521C13.4022 6.70122 13.6377 6.59053 13.8884 6.57635C14.4445 6.51524 14.6889 6.89107 14.75 7.37385Z" fill="#61479C"/>
<path d="M16.5834 6.54584C17.2342 6.58862 17.5 6.9125 17.5 7.42278C17.5193 7.54756 17.5088 7.67513 17.4696 7.79512C17.4303 7.91512 17.3633 8.02418 17.274 8.11346C17.1848 8.20273 17.0757 8.26972 16.9557 8.30898C16.8357 8.34825 16.7081 8.35868 16.5834 8.33945C16.0792 8.33945 15.7034 8.08583 15.7278 7.53278C15.7523 6.97973 16.18 6.71084 16.5834 6.54584Z" fill="#61479C"/>
<path d="M19.3028 6.56415C19.9292 6.60998 20.2195 6.90026 20.247 7.43804C20.2652 7.55169 20.2584 7.66796 20.2271 7.77872C20.1957 7.88949 20.1406 7.99208 20.0656 8.07936C19.9905 8.16663 19.8973 8.23648 19.7925 8.28404C19.6877 8.33159 19.5737 8.35571 19.4586 8.3547C18.927 8.39748 18.542 8.14081 18.487 7.6122C18.4167 7.01026 18.8628 6.72915 19.3028 6.56415Z" fill="#E6457F"/>
</svg>
