<svg width="24" height="24" viewBox="0 0 24 24" fill="none" xmlns="http://www.w3.org/2000/svg">
<path d="M11.1169 12.8861C11.1352 10.2583 10.8602 7.78027 8.02773 6.5C7.48995 6.25861 7.37689 5.74528 7.64273 5.21055C7.90856 4.67583 8.33328 4.66667 8.813 4.80111C9.61355 5.015 10.2002 5.59861 11.1261 6.13639C11.1261 5.36639 11.1261 4.74306 11.1261 4.12278C11.1261 3.5025 11.2941 2.98 12.003 2.93112C12.8219 2.87612 13.0235 3.46584 13.0419 4.12584C13.0663 5.02417 13.0419 5.92555 13.0419 6.97055C13.8424 6.52139 14.5116 6.10583 15.2144 5.76666C15.7155 5.52528 16.2777 5.57417 16.5038 6.14555C16.7299 6.71694 16.6872 7.21805 15.9905 7.5236C14.0624 8.37305 13.2405 9.96804 13.1397 11.9908C13.0636 12.2273 13.0356 12.4766 13.0572 12.7241C13.0816 13.4361 12.9288 14.0228 12.0733 14.0961C11.1566 14.1755 11.3216 13.3811 11.1169 12.8861Z" fill="#46A148"/>
<path d="M11.1169 12.8861C11.4225 13.2894 11.4591 14.0075 12.2322 13.818C13.2375 13.5705 12.7119 12.5347 13.1489 11.9847C13.0725 13.818 13.6255 15.4375 14.4964 17.0386C15.3152 18.5419 14.9364 19.8986 13.7386 20.7785C12.9075 21.3897 10.9611 21.3041 10.1575 20.6197C9.16748 19.7733 8.96276 18.2761 9.71442 16.8522C10.3775 15.5994 11.0589 14.3558 11.1169 12.8861Z" fill="#B4D9B6"/>
</svg>
