<svg width="24" height="24" viewBox="0 0 24 24" fill="none" xmlns="http://www.w3.org/2000/svg">
<path d="M9.30803 17.8972C6.62831 15.6361 5.88887 13.3138 7.04081 10.738C7.49006 9.73922 8.22467 8.8956 9.15221 8.3133C10.0798 7.731 11.1588 7.43603 12.2536 7.46551C13.3493 7.49463 14.4111 7.85174 15.3017 8.49069C16.1923 9.12964 16.8708 10.0211 17.2494 11.0497C18.0255 13.2375 17.61 15.2419 15.9814 16.9347C15.6148 17.2827 15.2292 17.6102 14.8264 17.9155C14.0463 18.551 13.0701 18.8964 12.0639 18.8931C11.0578 18.8897 10.0839 18.5378 9.30803 17.8972Z" fill="#FFCB2B"/>
<path d="M9.3081 17.8972C10.1722 18.2979 11.1128 18.507 12.0653 18.5102C13.0178 18.5134 13.9597 18.3105 14.8264 17.9156C15.2848 21.2186 15.2848 21.2186 12.0764 21.2186C9.14616 21.2186 9.14616 21.2186 9.3081 17.8972Z" fill="#566F7A"/>
<path d="M13.1824 4.60248C13.2038 5.15248 13.2527 5.88887 12.0855 5.89192C10.6586 5.89192 11.1688 4.87442 11.1016 4.18387C11.013 3.42304 11.0833 2.83331 12.1527 2.83331C13.4116 2.83331 13.1611 3.64609 13.1824 4.60248Z" fill="#F5DD8D"/>
<path d="M3.44444 12.2139C3.88444 12.6814 4.92333 11.3889 4.97222 12.9167C4.99972 13.9861 4.465 14.1847 3.56972 14.1389C2.75083 14.1022 1.92889 14.2489 1.95944 12.9717C1.98389 11.5325 3.03194 12.6845 3.44444 12.2139Z" fill="#F2DC8D"/>
<path d="M18.9881 8.38833C18.3036 8.10722 17.6314 7.68555 17.6711 7.16611C17.7292 6.42055 18.4442 5.79416 19.1561 5.66583C19.7336 5.56194 20.3967 6.24639 20.3783 6.76889C20.3386 7.53278 19.4617 7.85972 18.9881 8.38833Z" fill="#F8DE86"/>
<path d="M20.797 12.3055C21.4081 12.3514 22.117 12.11 22.0833 13.1244C22.0497 14.1389 21.3378 14.1389 20.6045 14.1389C19.9261 14.1389 19.2997 14.2153 19.3242 13.1764C19.3547 11.945 20.25 12.4339 20.797 12.3055Z" fill="#FEE382"/>
<path d="M4.11055 5.58331C4.67278 6.03248 5.44889 6.40526 5.50694 7.18137C5.54361 7.67942 4.92027 8.31498 4.43444 8.24776C4.06442 8.18148 3.72417 8.00176 3.46084 7.7335C3.1975 7.46524 3.02412 7.12172 2.96472 6.75054C2.89444 6.26776 3.52694 5.88887 4.11055 5.58331Z" fill="#FEE285"/>
</svg>
