<svg width="24" height="24" viewBox="0 0 24 24" fill="none" xmlns="http://www.w3.org/2000/svg">
<path d="M9.26832 18.1111C7.51749 16.7147 6.85443 14.9944 6.67415 12.6661C6.3686 8.85888 10.9978 6.02638 14.863 8.11638C17.778 9.68999 18.6703 14.1389 16.4428 16.458C15.3978 17.5458 14.8753 18.5969 15.0647 20.0605C15.1136 20.4303 15.2175 20.8886 14.7592 21.1514C14.0594 20.3203 14.3864 19.3394 14.3619 18.438C12.6111 18.9728 10.9092 19.1561 9.26832 18.1111Z" fill="#B2BEC3"/>
<path d="M9.26832 18.1111C10.9458 18.2425 12.608 18.8261 14.3008 18.0958C14.8692 17.8514 14.7744 18.4381 14.7805 18.7436C14.7805 19.5472 14.7805 20.3508 14.7622 21.1544C13.3903 21.1544 12.0122 21.1056 10.6494 21.2217C9.48526 21.3194 9.08499 20.9161 9.24693 19.7856C9.29233 19.2286 9.29948 18.6691 9.26832 18.1111Z" fill="#566F7B"/>
</svg>
