<svg width="24" height="24" viewBox="0 0 24 24" fill="none" xmlns="http://www.w3.org/2000/svg">
<path d="M11.0833 16.5833C9.66549 16.5833 8.24772 16.6536 6.83605 16.6078C5.84047 16.5569 4.89592 16.1516 4.17305 15.4651C3.45017 14.7787 2.99664 13.8563 2.89438 12.8647C2.65605 10.2858 3.81105 8.28138 5.91633 7.73138C7.44411 7.32499 9.03605 7.53888 10.6005 7.51443C11.1169 7.51443 11.3247 7.78943 11.3124 8.27527C11.3289 8.6831 11.3156 9.09158 11.2727 9.49749C11.0466 10.8297 11.5386 11.3889 12.9166 11.0833C13.6102 10.6433 14.2702 10.4997 14.8202 11.3003C13.9586 12.1986 12.8463 11.7555 11.8441 11.8105C10.9549 11.8594 10.1361 11.9022 9.72661 12.8525C9.6745 12.9141 9.60655 12.9604 9.53008 12.9862C9.45362 13.0121 9.37154 13.0166 9.29272 12.9992C8.80994 12.5775 8.89549 11.9908 8.86188 11.4469C8.81911 10.7869 8.88633 10.0536 7.92994 10.0047C6.97355 9.95582 5.97133 10.0047 5.55577 11.1628C4.97216 12.7883 5.80327 14.1389 7.53577 14.313C8.19331 14.3467 8.85213 14.3467 9.50966 14.313C11.3491 14.4964 11.4255 14.6064 11.0833 16.5833Z" fill="#5A727E"/>
<path d="M12.9655 9.22858C12.66 7.81386 13.2405 7.31275 14.643 7.48997C15.5963 7.60913 16.5772 7.48997 17.5305 7.61525C19.4097 7.85358 20.8916 9.2133 21.1452 10.8083C21.5608 13.4941 20.7938 15.2602 18.8383 16.2594C18.0683 16.6505 17.2647 16.6016 16.458 16.6169C15.7982 16.5848 15.1371 16.5909 14.478 16.6352C13.2252 16.8033 12.6661 16.3847 12.9502 15.083C13.3627 14.1939 14.1725 14.4077 14.9027 14.3497C15.303 14.3497 15.7063 14.3711 16.1066 14.3497C17.8269 14.3008 18.655 13.7661 18.8566 12.5744C19.0858 11.2727 18.493 10.4355 16.9072 9.80608C16.1127 9.57691 15.3 9.70525 14.4963 9.68386C13.9555 9.67469 13.3872 9.69302 12.9655 9.22858Z" fill="#566F7B"/>
<path d="M15.0769 14.7317C14.3772 14.8967 13.6011 14.5942 12.938 15.0831C12.938 14.8783 12.9166 14.6767 12.9075 14.4719C12.88 13.8944 13.0939 13.1917 12.0794 13.2314C11.1627 13.2681 11.4377 13.9311 11.3614 14.4536C11.2544 15.1625 11.7402 15.96 11.0558 16.5925C11.4591 14.9517 10.5241 14.6522 9.20108 14.7408C8.75803 14.1297 8.72747 13.5186 9.27136 12.9258C9.3614 12.9502 9.45632 12.9502 9.54636 12.9258C10.4783 12.2414 11.56 12.5194 12.5775 12.5194C13.5155 12.5194 14.2122 12.2506 14.6614 11.4133C14.148 10.8664 13.4636 11.2881 12.8891 11.1078C12.9105 10.4967 12.9319 9.87027 12.9502 9.25305C14.3589 9.51583 15.8194 8.96583 17.2097 9.52194C15.5872 10.0414 15.303 11.2483 15.4619 12.7547C15.5505 13.4086 15.5811 14.1389 15.0769 14.7317Z" fill="#9BA4AA"/>
<path d="M9.28657 12.9166C9.26213 13.5278 9.24074 14.1389 9.21629 14.7316C8.36074 14.7469 7.50518 14.9058 6.65574 14.643C5.70546 14.3375 5.04241 13.8028 4.94768 12.7486C4.85296 11.6944 4.83768 10.5853 5.90713 9.90387C6.87574 9.29275 7.96046 9.42109 9.00852 9.57692C9.43629 9.63803 9.31407 10.1544 9.31407 10.4936C9.32018 11.285 9.29574 12.0947 9.28657 12.9166Z" fill="#FEFEFE"/>
<path d="M14.6766 11.3889C14.9821 12.5653 14.5818 13.0511 13.3199 12.9503C12.058 12.8494 10.8143 12.9167 9.55546 12.9167C9.37824 11.7464 9.82129 11.2758 11.0466 11.3889C12.2719 11.5019 13.4666 11.3889 14.6766 11.3889Z" fill="#58717D"/>
<path d="M15.0769 14.7317C15.0769 13.7753 15.0586 12.8189 15.0555 11.8625C15.0555 9.6625 15.0555 9.6625 17.225 9.4975C18.8475 10.0139 19.5197 10.9703 19.3333 12.4858C19.1561 13.9006 18.1875 14.7225 16.5833 14.7744C16.0883 14.7897 15.5811 14.75 15.0769 14.7317Z" fill="#FEFEFE"/>
</svg>
