<svg width="24" height="24" viewBox="0 0 24 24" fill="none" xmlns="http://www.w3.org/2000/svg">
<path d="M17.6374 20.033C14.7377 20.5005 11.8135 20.1949 8.90463 20.1919C7.90547 20.1919 8.61741 19.1041 8.31185 18.5999C7.80158 17.9277 7.85352 17.2586 8.31185 16.5894C8.37296 14.203 8.48908 11.8136 8.24769 9.42719C8.04364 9.13314 7.94154 8.78035 7.95699 8.42278C7.97244 8.06521 8.10459 7.72254 8.33324 7.44719C8.12852 5.91942 8.80074 5.49164 10.2888 5.59859C12.2963 5.73914 14.3191 5.62303 16.3327 5.64136C16.8032 5.64136 17.3746 5.44275 17.6557 6.0722C17.4602 7.29442 18.0896 8.44025 17.9399 9.6533C17.9949 11.9205 17.9949 14.1867 17.9399 16.4519C18.0927 17.668 17.451 18.8169 17.6374 20.033Z" fill="#67BC6B"/>
<path d="M17.6375 20.033L17.5825 16.4763C17.7404 16.221 17.9614 16.0105 18.2241 15.8652C20.4241 14.2916 20.4241 11.6547 18.2241 10.1239C18.0062 9.99844 17.8093 9.83966 17.6405 9.6533C17.335 8.46164 17.61 7.26997 17.6405 6.07831C17.6069 6.99497 17.7964 7.58469 18.9055 7.91164C20.7939 8.44941 21.9611 10.4202 22.0955 12.4491C22.2544 15.028 21.4477 17.1119 18.9636 18.0866C17.888 18.493 17.6008 19.0522 17.6375 20.033Z" fill="#4284C5"/>
<path d="M8.3333 7.44721C8.45326 8.10438 8.43034 8.77968 8.26607 9.4272H5.54969C6.46636 10.405 6.13024 11.0283 5.36941 11.508C4.55969 12.0183 4.32136 11.1536 3.95469 10.7991C1.55914 8.47387 1.55303 8.44026 3.98525 6.09054C4.35191 5.7361 4.55969 4.72166 5.4733 5.37249C6.2158 5.90721 6.26774 6.2586 5.72691 7.44721H8.3333Z" fill="#4384C5"/>
<path d="M8.33329 16.5833C8.33329 17.2555 8.33329 17.9247 8.33329 18.5939C7.47773 18.5939 6.61607 18.5939 5.76357 18.6336C4.97218 18.6855 4.66663 18.4166 4.66663 17.61C4.66663 16.8033 4.97218 16.5436 5.73912 16.5864C6.60079 16.6322 7.4594 16.5833 8.33329 16.5833Z" fill="#5189C6"/>
<path d="M16.5833 13.0694C16.5833 15.2664 15.1717 16.6169 12.9167 16.5955C10.7778 16.5711 9.2775 15.0983 9.25 12.9808C9.25 11.0833 11.0558 9.24998 12.9594 9.27136C15.135 9.28359 16.6078 10.8236 16.5833 13.0694Z" fill="#398F43"/>
<path d="M17.6467 9.64722C19.2478 9.95277 20.1553 11.0436 20.2683 12.8067C20.3814 14.5697 19.4158 15.9203 17.5825 16.4733L17.6467 9.64722Z" fill="#F4F4F4"/>
</svg>
