<svg width="24" height="24" viewBox="0 0 24 24" fill="none" xmlns="http://www.w3.org/2000/svg">
<path d="M18.4533 9.31108C18.5419 11.1108 17.7444 12.6722 16.9958 14.2C15.9136 16.4936 14.5505 18.6438 12.938 20.6013C12.3269 21.3347 11.8075 21.3316 11.23 20.6013C8.90777 17.6863 6.95222 14.5544 5.90416 10.955C5.14333 8.35775 5.93472 6.12109 7.96971 4.40998C10.0047 2.69887 12.3544 2.4086 14.7989 3.49332C17.1211 4.5322 18.4655 6.72303 18.4533 9.31108Z" fill="#E63C36"/>
<path d="M16.6108 9.22858C16.4703 12.0305 14.9486 14.2886 13.598 16.5833C12.1925 18.9727 12.0703 18.9605 10.6128 16.5833C9.39055 14.6033 8.24777 12.5744 7.62444 10.298C7.07444 8.29358 7.92999 6.82692 9.39971 5.64442C10.8694 4.46192 12.5011 4.4222 14.1083 5.21053C15.7155 5.99886 16.6719 7.31886 16.6108 9.22858Z" fill="#E9635E"/>
<path d="M12.0672 6.6344C12.7865 6.64397 13.4734 6.935 13.9806 7.44508C14.4879 7.95516 14.775 8.64368 14.7806 9.36301C14.7674 10.0546 14.4917 10.7153 14.0094 11.2112C13.5271 11.7071 12.8743 12.0011 12.1833 12.0336C11.4632 12.0494 10.7656 11.782 10.2405 11.2889C9.71539 10.7958 9.40473 10.1163 9.37529 9.39662C9.37738 8.67675 9.65949 7.98593 10.1619 7.47039C10.6643 6.95485 11.3477 6.65503 12.0672 6.6344Z" fill="#FEFDFD"/>
</svg>
