<svg width="24" height="24" viewBox="0 0 24 24" fill="none" xmlns="http://www.w3.org/2000/svg">
<path d="M16.9072 10.1667C19.1225 10.2767 19.3272 10.4722 19.3303 12.6753C19.3303 14.9608 19.3058 17.2586 19.3303 19.5319C19.3486 20.693 18.8108 21.2033 17.6864 21.2003C13.9311 21.2003 10.1789 21.1728 6.42361 21.2003C5.29 21.2003 4.80416 20.6044 4.78583 19.648C4.73083 17.06 4.72166 14.4719 4.80111 11.8869C4.83472 10.68 5.61083 10.1361 6.84833 10.1667C8.68166 10.2094 10.515 10.1667 12.3269 10.1667C14.7347 10.1667 14.7347 10.1667 14.7714 7.78333C15.4589 7.78333 15.3642 8.35777 15.3825 8.7336C15.4375 9.48527 15.8958 9.7511 16.5222 9.89777C16.6563 9.97883 16.7849 10.0687 16.9072 10.1667Z" fill="#90A4AE"/>
<path d="M16.5833 10.1819C15.4833 10.3561 14.8233 10.0628 15.022 8.77027C15.0739 8.44333 15.1258 8.05833 14.7867 7.7986C14.3986 6.57638 14.3008 5.12805 12.5286 4.99971C11.0895 4.89277 9.93751 5.36944 9.63806 6.83305C9.39362 8.05527 8.5839 7.84749 7.93612 7.67027C7.01945 7.41971 7.38612 6.58555 7.55723 6.00805C7.8187 5.13636 8.34174 4.36608 9.05551 3.80151C9.76928 3.23694 10.6393 2.90536 11.5478 2.85166C14.2978 2.78138 15.6208 3.53916 16.4703 5.71166C16.617 6.08749 16.7208 6.4786 16.8461 6.8636C16.4947 7.94833 16.9622 9.09721 16.5833 10.1819Z" fill="#CCD5D9"/>
<path d="M16.5833 10.1819C16.7269 9.07887 16.2778 7.92692 16.8492 6.86053C16.8706 7.96053 16.8889 9.06053 16.9103 10.1575L16.5833 10.1819Z" fill="#B8B7B8"/>
<path d="M13.8486 15.7767C13.8853 16.9194 13.3658 17.5092 12.1497 17.5275C10.8694 17.5458 10.2217 16.7972 10.2431 15.6942C10.2394 15.4529 10.2853 15.2135 10.3779 14.9907C10.4705 14.768 10.6078 14.5666 10.7814 14.399C10.955 14.2315 11.1611 14.1013 11.387 14.0166C11.6129 13.9319 11.8538 13.8945 12.0947 13.9067C13.1214 13.9372 13.8822 14.5422 13.8486 15.7767Z" fill="#C8D2D7"/>
</svg>
