<svg width="24" height="24" viewBox="0 0 24 24" fill="none" xmlns="http://www.w3.org/2000/svg">
<path d="M16.5833 10.1667C19.1347 10.2981 19.3517 10.5211 19.3547 13.0328C19.3547 15.1167 19.3181 17.2036 19.3547 19.2875C19.3853 20.6686 18.7436 21.2217 17.4206 21.2156C13.8119 21.2156 10.2064 21.1972 6.59778 21.2156C5.37556 21.2156 4.80111 20.5678 4.76445 19.4494C4.71861 17.005 4.72472 14.5606 4.76445 12.1161C4.79806 10.3714 6.06 10.1667 7.41667 10.1667C8.08584 9.64111 8.88639 9.69305 9.66861 9.64417C11.3553 9.8 13.045 9.68083 14.7347 9.73889C15.3947 9.72666 16.0456 9.71444 16.5833 10.1667Z" fill="#E63B35"/>
<path d="M16.5833 10.1667H14.75C14.2856 9.67777 14.4047 9.03611 14.31 8.4525C14.0533 6.86972 13.2558 6.20055 11.7708 6.31361C10.46 6.42361 9.87945 7.1325 9.84889 8.68166C9.84889 9.12472 9.97722 9.59833 9.50667 9.90388C8.86806 10.4325 8.14389 10.2278 7.43806 10.1544C7.46861 9.195 7.36778 8.20805 7.56028 7.28222C8.08278 4.69722 10.2033 3.60638 13.6103 4.05555C15.3856 4.29388 16.6078 6.06916 16.5772 8.35166C16.5833 8.95972 16.5833 9.55555 16.5833 10.1667Z" fill="#F19D9C"/>
<path d="M14.5025 14.5239C14.3882 14.7188 14.2484 14.8976 14.0869 15.0556C13.4178 15.5781 13.5492 16.0456 14.1481 16.4917C14.7469 16.9378 14.5361 17.277 14.0961 17.6925C13.6561 18.1081 13.3078 18.5267 12.7914 17.8209C12.3269 17.1853 11.8747 17.1547 11.3553 17.7934C10.8358 18.432 10.4386 17.9767 10.0078 17.5978C9.57695 17.2189 9.58611 16.8431 10.0414 16.5009C10.6525 16.0395 10.7442 15.5842 10.075 15.0922C9.40584 14.6003 9.64417 14.2428 10.1147 13.757C10.6372 13.2161 11.0314 13.2284 11.45 13.7997C11.8686 14.3711 12.2994 14.3589 12.7639 13.7997C12.9594 13.5584 13.1886 13.1153 13.6072 13.4209C14.0272 13.6705 14.3446 14.0615 14.5025 14.5239Z" fill="#F19C9A"/>
</svg>
