<svg width="24" height="24" viewBox="0 0 24 24" fill="none" xmlns="http://www.w3.org/2000/svg">
<path d="M8.61445 15.413C7.64584 12.6111 7.2089 9.73581 7.72223 6.7811C8.07973 4.73693 9.55556 3.17555 11.3003 2.91888C12.3073 2.75554 13.3402 2.92789 14.2396 3.40936C15.1391 3.89084 15.8552 4.65472 16.2778 5.58332C16.8889 6.8911 16.6383 8.29359 16.5069 9.62581C16.3631 11.4839 15.978 13.3153 15.3611 15.0739C13.1306 15.41 10.8481 14.9302 8.61445 15.413Z" fill="#6E4D42"/>
<path d="M15.028 16.2778C16.0303 17.6161 15.9019 18.8811 14.6217 20.2255C13.5522 21.35 11.4836 21.6005 10.185 20.7603C8.62667 19.758 8.0614 17.8911 8.91695 16.5711C10.9183 15.7369 12.9778 16.1128 15.028 16.2778Z" fill="#6E4D42"/>
<path d="M15.0281 16.2778C13.0175 16.9164 10.952 16.4428 8.91696 16.5833L8.6114 15.4314C8.73974 15.2297 8.87113 14.8508 8.99946 14.8539C11.1383 14.8722 13.2772 14.3833 15.3672 15.0922C15.3611 15.4986 15.3397 15.9294 15.0281 16.2778Z" fill="#5D4038"/>
</svg>
