<svg width="24" height="24" viewBox="0 0 24 24" fill="none" xmlns="http://www.w3.org/2000/svg">
<path d="M1.02142 22.9786C1.02142 15.9722 1.03364 8.94443 1.00003 1.935C1.00003 1.17111 1.17114 1 1.93503 1C8.64502 1.03463 15.355 1.03463 22.065 1C22.8289 1 23 1.17111 23 1.935C22.9674 8.64499 22.9674 15.355 23 22.065C23 22.8289 22.8289 23.003 22.065 23C15.0556 22.9664 8.0278 22.9786 1.02142 22.9786Z" fill="#FEFEFE"/>
<path d="M2.20393 6.49997C3.19087 3.60331 5.23198 2.04498 8.20503 2.02359C12.4217 1.98998 16.6414 2.02359 20.8581 1.99609C21.7258 1.99609 22.1444 2.13054 22.1169 3.14498C22.0344 5.89498 22.0619 8.64497 22.0467 11.3736C21.3744 11.3736 21.3072 10.7625 21.0414 10.3836C18.9422 7.34636 15.3795 6.98275 12.935 9.77247C11.7128 11.1444 10.4417 11.6455 8.70003 11.5386C7.03781 11.4347 5.36031 11.5386 3.69198 11.4989C3.11753 11.4989 2.44226 11.615 2.10004 10.9122C2.14893 9.43025 1.96254 7.95442 2.20393 6.49997Z" fill="#556F7B"/>
<path d="M22.0253 14.4841C22.0466 16.7178 22.0436 18.9514 22.1078 21.185C22.1291 21.9458 21.8358 22.1016 21.1392 22.1016C14.8417 22.0833 8.54723 22.0833 2.24974 22.0527C1.91669 19.8436 2.18557 17.6191 2.09391 15.4039C2.06946 14.8569 2.29863 14.5269 2.85474 14.4872C3.07933 14.4388 3.3137 14.4689 3.51885 14.5723C3.72399 14.6757 3.88753 14.8462 3.98224 15.0555C4.16882 15.5834 4.24475 16.144 4.20529 16.7025C4.20529 17.5916 4.65751 17.9583 5.53446 17.9736C6.4114 17.9889 6.97668 17.6833 6.99195 16.6872C7.00723 15.6911 7.03473 14.6339 8.29667 14.4291C10.0414 14.1511 11.5569 14.2397 12.2689 15.4925C13.1856 17.0722 14.5422 18.0225 16.4947 17.9828C18.5328 17.943 20.1369 17.2494 21.1117 15.3641C21.3133 14.9853 21.4141 14.4444 22.0253 14.4841Z" fill="#546E7A"/>
<path d="M22.0253 14.4842C20.3447 18.1936 17.06 19.5594 13.9678 17.83C13.0795 17.3262 12.3486 16.5858 11.8564 15.6911C11.3889 14.8814 8.49529 14.3161 7.78945 14.9303C7.21195 15.4375 7.40751 16.1922 7.4839 16.8003C7.72223 18.4167 6.82084 18.4594 5.62001 18.4778C4.41918 18.4961 3.58807 18.383 3.75002 16.8003C3.81113 16.1464 4.44363 14.7806 2.98002 14.8386C1.61113 14.8936 2.28946 16.1708 2.2528 16.8889C2.16113 18.6061 2.2528 20.3325 2.2528 22.0528C1.80058 21.8725 1.91669 21.4722 1.91669 21.1422C1.91669 16.6404 1.91669 12.1385 1.91669 7.63668C1.91669 7.24251 1.88308 6.81779 2.19169 6.48779C2.20798 8.01557 2.22428 9.54334 2.24057 11.0711C2.70196 12.2292 3.58807 12.5103 4.77363 12.4828C7.49306 12.4186 10.2186 12.4492 12.9411 12.4828C13.7447 12.4828 14.5819 12.4614 15.1014 13.2681C16.4519 14.7806 16.7942 14.7408 18.5175 12.8739C19.6939 12.3819 20.8642 12.2628 22.0222 12.9258L22.0253 14.4842Z" fill="#98A8AF"/>
<path d="M22.0344 12.9166C20.8397 13.0633 19.59 12.6111 18.4411 13.2405C18.3072 13.1695 18.2 13.0569 18.1356 12.9197C17.83 12.2169 17.4572 11.5233 16.5283 11.67C15.6972 11.8014 15.4895 12.4919 15.3703 13.1977C15.3604 13.3206 15.3258 13.4403 15.2685 13.5495C15.2113 13.6587 15.1326 13.7552 15.0372 13.8333C14.7011 13.1489 14.2214 12.8708 13.3903 12.8891C10.2645 12.9533 7.13558 12.828 4.01281 12.9502C2.48503 13.0114 2.00531 12.4736 2.25281 11.065L10.295 11.0833C10.8603 11.0833 11.3492 11.0833 11.7189 10.4722C14.6339 5.7972 20.2225 6.84525 22.0467 11.3644C22.0406 11.8839 22.0375 12.3972 22.0344 12.9166Z" fill="#8799A1"/>
<path d="M15.0372 13.8333C15.0922 13.1947 14.8203 12.498 15.297 11.9328C15.7339 11.4164 16.287 11.0161 17.005 11.2055C17.457 11.2941 17.8578 11.5526 18.1249 11.9277C18.3921 12.3029 18.5052 12.7661 18.4411 13.2222C17.5367 15.1166 16.5833 15.2878 15.0372 13.8333Z" fill="#556F7B"/>
</svg>
