<svg width="24" height="24" viewBox="0 0 24 24" fill="none" xmlns="http://www.w3.org/2000/svg">
<path d="M7.77731 15.0339C4.45293 10.1359 7.01038 5.04853 10.9031 3.4444C12.0737 2.96504 13.3464 2.78887 14.6032 2.9322C15.86 3.07553 17.0603 3.53372 18.0929 4.26434C19.1255 4.99496 19.9571 5.97437 20.5105 7.11184C21.0639 8.24931 21.3213 9.50805 21.2588 10.7715C21.1964 12.0349 20.8161 13.2621 20.1532 14.3394C19.4902 15.4168 18.5662 16.3094 17.4665 16.9346C16.3669 17.5598 15.1272 17.8974 13.8624 17.916C12.5976 17.9347 11.3485 17.6338 10.2309 17.0414C9.87338 16.8519 9.54339 16.6136 9.19812 16.3997C8.85139 16.3414 8.53032 16.1798 8.27684 15.9362C8.02337 15.6925 7.84928 15.3781 7.77731 15.0339Z" fill="#EC447C"/>
<path d="M7.77731 15.0339L9.19812 16.4058C7.79259 17.8052 6.37789 19.1894 4.98764 20.601C4.42543 21.1724 3.78378 21.5176 3.15434 20.9065C2.52491 20.2954 3.06268 19.7027 3.5485 19.2199C4.95607 17.8185 6.36567 16.4231 7.77731 15.0339Z" fill="#7B60A9"/>
<path d="M19.3332 10.472C19.3179 13.7659 17.0844 15.8833 13.7691 15.9719C10.8359 16.0575 8.11342 13.3687 8.07675 10.2612C8.02787 7.41655 10.7778 4.63299 13.6286 4.7216C16.7208 4.81938 19.4646 6.90934 19.3332 10.472Z" fill="#F06695"/>
<path d="M13.7966 6.80543C15.9721 6.83598 17.5152 8.31484 17.4999 10.3773C17.4663 12.3237 15.6971 14.1386 13.8333 14.1386C11.5967 14.1386 10.1361 12.5467 10.1667 10.1848C10.2003 8.08568 11.5967 6.7871 13.7966 6.80543Z" fill="#EC437B"/>
<path d="M12 10.414C11.9267 9.21928 12.44 8.63873 13.6714 8.63873C14.8019 8.63873 15.5047 9.149 15.6391 10.2643C15.6644 10.5291 15.6324 10.7964 15.5453 11.0478C15.4582 11.2993 15.318 11.529 15.1342 11.7215C14.9505 11.9139 14.7275 12.0646 14.4803 12.1632C14.2332 12.2618 13.9677 12.3061 13.7019 12.2931C12.5622 12.2228 12.0336 11.514 12 10.414Z" fill="#F06695"/>
</svg>
