<svg width="24" height="24" viewBox="0 0 24 24" fill="none" xmlns="http://www.w3.org/2000/svg">
<path d="M7.43805 14.4719C5.87056 12.4827 4.33667 10.4722 2.7264 8.51051C2.09695 7.74357 2.11529 7.30968 2.96167 6.71079C8.35777 2.8608 15.9019 2.90358 21.3316 6.80551C22.1658 7.41662 22.065 7.75884 21.4966 8.45245C19.8894 10.4111 18.3616 12.4247 16.8033 14.4261C16.2778 14.8691 15.6666 14.8294 15.0708 14.6736C13.1469 14.1885 11.1344 14.1748 9.20416 14.6338C8.60222 14.7652 8.00027 14.8202 7.43805 14.4719Z" fill="#2D98D5"/>
<path d="M7.43805 14.4718C10.5547 13.6652 13.6775 13.7966 16.8033 14.426C15.468 16.1371 14.1389 17.836 12.8097 19.5624C12.2505 20.2957 11.893 20.2254 11.343 19.4982C10.0842 17.8054 8.74277 16.1432 7.43805 14.4718Z" fill="#83CCF1"/>
</svg>
