<svg width="24" height="24" viewBox="0 0 24 24" fill="none" xmlns="http://www.w3.org/2000/svg">
<path d="M2.16114 4.02804C2.50641 3.13888 3.20002 2.8761 4.08919 2.8761C9.40381 2.8761 14.7174 2.8761 20.03 2.8761C21.35 2.8761 22.1139 3.43526 22.1017 4.87137C22.0833 8.47081 22.0833 12.0611 22.0589 15.6666C21.5242 16.1555 20.858 16.1555 20.1981 16.1586C14.8356 16.1586 9.47307 16.183 4.11058 16.1586C2.20391 16.1586 2.07864 15.9936 2.09697 14.0564C2.12447 10.7014 2.0053 7.3647 2.16114 4.02804Z" fill="#273238"/>
<path d="M2.16112 4.02802C2.16112 7.52356 2.1764 11.0191 2.16112 14.5147C2.16112 15.2847 2.26807 15.7369 3.21834 15.7369C9.49444 15.6666 15.7767 15.6666 22.0589 15.6666C22.1872 17.2188 21.2094 17.7016 19.92 17.7597C18.5144 17.8269 17.1058 17.7597 15.6972 17.7872C15.2267 17.7872 14.6675 17.5763 14.3344 18.1447C12.8593 17.8518 11.3429 17.8332 9.86111 18.0897C8.38528 17.3624 6.82084 17.8422 5.30223 17.7841C2.55223 17.6924 1.90445 17.1119 1.9014 14.3986C1.9014 11.4163 1.9014 8.43717 1.9014 5.45496C1.91668 4.97218 1.72418 4.44051 2.16112 4.02802Z" fill="#8A8F93"/>
<path d="M9.86111 18.0897C11.0192 17.2494 13.2222 17.2708 14.3497 18.1324C14.8355 19.0491 16.183 19.9169 15.7217 20.8305C15.2603 21.7441 13.7936 21.1177 12.7761 21.1849C11.6119 21.2613 10.4386 21.1849 9.27138 21.2094C8.19583 21.243 8.18361 20.6991 8.59305 19.9872C8.96277 19.3333 9.42722 18.7222 9.86111 18.0897Z" fill="#475257"/>
<path d="M12 13.9006C9.66555 13.9006 7.33111 13.8639 4.99972 13.9158C4.08306 13.9372 3.75 13.6744 3.7775 12.7211C3.83861 10.4396 3.83861 8.15714 3.7775 5.87363C3.75 4.90196 4.11972 4.67891 4.99972 4.68807C9.72156 4.72067 14.4404 4.72067 19.1561 4.68807C20.0116 4.68807 20.308 4.93557 20.2897 5.80335C20.2408 8.13779 20.2408 10.4712 20.2897 12.8036C20.308 13.6897 19.9841 13.9281 19.1408 13.9128C16.7666 13.87 14.3833 13.9006 12 13.9006Z" fill="#5F6BB2"/>
<path d="M11.9481 12.9533C11.4928 12.9533 11.0314 12.9808 10.5853 12.9533C10.1392 12.9258 9.60751 13.1611 9.36307 12.6203C9.11862 12.0794 9.39668 11.5233 9.75112 11.0925C10.6983 9.91609 13.4453 9.90692 14.4444 11.0497C14.602 11.249 14.7094 11.4831 14.7578 11.7324C14.8062 11.9817 14.7941 12.2391 14.7225 12.4828C14.6003 13.1183 14.035 12.9441 13.6103 12.9625C13.0603 12.9716 12.5042 12.9533 11.9481 12.9533Z" fill="#9EA6D4"/>
<path d="M13.8639 7.61832C13.8333 8.8161 13.1886 9.3111 12.0305 9.2836C10.8725 9.2561 10.2614 8.50749 10.243 7.45027C10.2213 7.207 10.2534 6.96193 10.3371 6.73248C10.4207 6.50303 10.554 6.29484 10.7272 6.12272C10.9005 5.9506 11.1096 5.81879 11.3396 5.73665C11.5696 5.65451 11.8149 5.62407 12.058 5.64749C13.1916 5.69333 13.9066 6.35638 13.8639 7.61832Z" fill="#9EA5D3"/>
</svg>
