<svg width="24" height="24" viewBox="0 0 24 24" fill="none" xmlns="http://www.w3.org/2000/svg">
<path d="M20.5857 7.97363C21.1969 8.29756 21.1694 8.86902 21.1694 9.43437C21.1694 12.4323 21.1449 15.4271 21.1694 18.425C21.1694 19.7085 20.6468 20.2585 19.3358 20.2585C14.5135 20.228 9.69125 20.228 4.86897 20.2585C3.56714 20.2585 2.8551 19.7176 2.8551 18.3791C2.8551 15.4332 2.8551 12.4873 2.8551 9.54133C2.8551 8.96681 2.91622 8.42286 3.45101 8.06531C4.00414 8.31284 4.42586 8.76207 4.97898 9.0371C6.95312 10.2595 8.93337 11.4605 10.8708 12.7317C11.7448 13.3063 12.4966 13.3001 13.3645 12.7042C15.2347 11.4207 17.2058 10.2961 19.1097 9.0646C19.6689 8.77735 20.0478 8.267 20.5857 7.97363Z" fill="#FFD494"/>
<path d="M20.5857 7.97364C20.5582 8.77736 19.8828 8.96682 19.3358 9.25103C17.3005 8.4412 15.4884 7.22188 13.6365 6.08507C12.6219 5.47388 11.7571 5.35164 10.6905 6.00867C9.25119 6.88878 7.80573 7.72306 6.3725 8.58789C5.8634 8.91708 5.29429 9.14244 4.69784 9.25103C4.24556 8.90265 3.58242 8.76819 3.47546 8.06227C6.03329 6.2287 8.86309 4.83825 11.5309 3.17276C11.6933 3.05289 11.8899 2.98822 12.0917 2.98822C12.2935 2.98822 12.4901 3.05289 12.6525 3.17276C15.2653 4.82297 18.0706 6.15841 20.5857 7.97364Z" fill="#FDC673"/>
<path d="M4.69781 9.25099C6.91847 7.89008 9.1493 6.53222 11.3903 5.17742C11.557 5.05956 11.7537 4.99128 11.9575 4.98046C12.1614 4.96965 12.3642 5.01674 12.5424 5.1163C14.816 6.4762 17.2639 7.54883 19.3358 9.25099L12.848 13.4162C12.6363 13.5879 12.3719 13.6816 12.0993 13.6816C11.8267 13.6816 11.5624 13.5879 11.3506 13.4162C9.1656 11.983 6.92254 10.6292 4.69781 9.25099Z" fill="#FCB74E"/>
</svg>
