<svg width="24" height="24" viewBox="0 0 24 24" fill="none" xmlns="http://www.w3.org/2000/svg">
<path d="M21.1147 8.62056L21.1667 17.7444C21.1667 18.8078 20.6656 19.3333 19.5931 19.3333C14.5718 19.3333 9.55151 19.3333 4.53226 19.3333C3.44449 19.3333 2.90977 18.6794 2.9006 17.7353C2.86393 13.9892 2.9006 10.24 2.93115 6.49084C3.02893 6.24028 3.20004 6.07834 3.47504 6.20056C3.61226 6.24994 3.7254 6.34991 3.79129 6.48C3.85719 6.61009 3.87085 6.76045 3.82949 6.90028C3.39254 7.76195 3.69199 8.33945 4.51087 8.74889C6.72309 9.86111 8.94448 10.9581 11.1536 12.0794C11.9786 12.495 12.6997 12.3147 13.4575 11.9267C15.4406 10.9183 17.4297 9.91611 19.4311 8.9475C19.9445 8.69695 20.4578 8.22639 21.1147 8.62056Z" fill="#FFD494"/>
<path d="M3.75004 6.87279C3.63088 6.41751 3.38949 6.21584 2.9281 6.50001C2.97393 5.21057 3.77143 4.7339 4.92643 4.73085C9.73587 4.71862 14.5473 4.71862 19.3608 4.73085C20.7083 4.73085 21.2308 5.53751 21.1636 6.80862C19.4281 8.24167 17.1945 8.78556 15.3611 10.0139C13.1611 11.4867 11.1384 11.4989 8.94448 10.0139C7.69781 9.17667 6.24337 8.64806 4.90199 7.94223C4.42532 7.70084 3.81115 7.56945 3.75004 6.87279Z" fill="#FFD495"/>
<path d="M3.75002 6.87276C6.31363 8.18665 8.88335 9.4822 11.4286 10.845C12.0795 11.1903 12.5714 10.9703 13.1306 10.7044C15.8103 9.40276 18.383 7.88415 21.1667 6.80554C21.1667 7.41665 21.133 8.02776 21.1178 8.63887C18.4717 9.91915 15.8103 11.1689 13.1917 12.498C12.8711 12.6894 12.5047 12.7904 12.1314 12.7904C11.7581 12.7904 11.3917 12.6894 11.0711 12.498C8.73668 11.2758 6.35335 10.1391 4.00669 8.93832C2.8578 8.33332 2.79363 7.63665 3.75002 6.87276Z" fill="#FCB74E"/>
</svg>
