<svg width="24" height="24" viewBox="0 0 24 24" fill="none" xmlns="http://www.w3.org/2000/svg">
<path d="M11.9633 19.3486C9.93747 19.3486 7.91165 19.3211 5.88887 19.3639C5.07915 19.3639 4.73999 19.1928 4.70943 18.2822C4.66665 16.7117 5.27776 15.6117 6.66804 15.0006C8.37078 14.2119 10.2255 13.8054 12.102 13.8097C13.9785 13.8139 15.8313 14.2287 17.5305 15.025C17.981 15.2597 18.3931 15.5616 18.7527 15.9203C19.7061 16.7636 19.48 17.9369 19.2752 18.9086C19.0827 19.8253 18.053 19.2967 17.4419 19.3211C15.6116 19.3975 13.7875 19.3486 11.9633 19.3486Z" fill="#1F88C9"/>
<path d="M8.38529 8.49529C8.36396 7.52484 8.72831 6.58553 9.39847 5.8833C10.0686 5.18107 10.9899 4.77322 11.9603 4.74919C12.4532 4.73412 12.9443 4.81629 13.4055 4.99102C13.8667 5.16575 14.289 5.42962 14.6482 5.76755C15.0074 6.10548 15.2965 6.51086 15.4991 6.96054C15.7016 7.41022 15.8136 7.89539 15.8286 8.38835C15.8286 10.3897 14.0442 12.2017 12.0581 12.2017C11.088 12.1707 10.1668 11.7692 9.48363 11.0798C8.8005 10.3905 8.40745 9.46556 8.38529 8.49529Z" fill="#1F88C9"/>
</svg>
