<svg width="24" height="24" viewBox="0 0 24 24" fill="none" xmlns="http://www.w3.org/2000/svg">
<path d="M12.8983 14.0808C12.1405 14.0808 11.3522 13.9158 10.628 14.0655C7.47776 14.7102 5.35721 13.1947 3.49332 10.9244C3.03499 10.3652 2.92499 10.0383 3.51165 9.60136C3.59417 9.54121 3.66729 9.46913 3.7286 9.38747C5.38776 7.02859 7.60609 6.02636 10.4936 6.50303C11.2789 6.63136 12.11 6.50303 12.9197 6.47859C13.6041 6.02331 14.2855 5.95914 14.9669 6.47859C16.0761 6.47859 17.1852 6.54886 18.2914 6.50914C19.0491 6.48164 19.3822 6.68025 19.3608 7.50831C19.3088 9.37219 19.3211 11.2391 19.3608 13.103C19.3608 13.8486 19.0552 14.0716 18.3739 14.0472C17.2647 14.0075 16.1555 14.0289 15.0464 14.0227C14.3405 14.5422 13.6316 14.75 12.8983 14.0808Z" fill="#9B53A0"/>
<path d="M12.8983 14.0808L15.0372 14.0258C15.0128 16.293 14.9639 18.5602 14.9761 20.8274C14.9761 21.631 14.9333 22.1352 13.8791 22.1352C12.825 22.1352 12.9166 21.573 12.9166 20.8855C12.9319 18.6182 12.9166 16.348 12.8983 14.0808Z" fill="#5C737E"/>
<path d="M14.9669 6.48163H12.9166C12.9166 5.67496 12.9503 4.87135 12.9166 4.06774C12.883 3.32524 12.9503 2.84552 13.928 2.84552C14.9058 2.84552 15.0127 3.29469 14.9791 4.06774C14.9455 4.84079 14.97 5.67496 14.9669 6.48163Z" fill="#617680"/>
<path d="M12.2139 11.9999H8.26609C7.86581 11.9999 7.41359 12.0916 7.10498 11.7738C6.59165 11.2483 5.57721 10.8358 5.7636 10.0902C5.91442 9.62598 6.20078 9.21752 6.5858 8.91746C6.97081 8.6174 7.43684 8.43948 7.92387 8.40662C10.8541 8.27217 13.7936 8.35467 16.73 8.35162C16.8308 8.33586 16.9339 8.34391 17.0311 8.37515C17.1282 8.40639 17.2167 8.45993 17.2895 8.5315C17.3623 8.60307 17.4173 8.69068 17.4501 8.78731C17.4829 8.88395 17.4927 8.98693 17.4786 9.08801C17.4786 9.34162 17.4786 9.59523 17.4786 9.84884C17.503 11.9877 17.503 11.9877 15.3916 11.9877L12.2139 11.9999Z" fill="#AF70AF"/>
</svg>
