<svg width="24" height="24" viewBox="0 0 24 24" fill="none" xmlns="http://www.w3.org/2000/svg">
<path d="M9.22251 14.0838L8.76723 14.0441C7.47779 13.9127 5.82474 14.6186 4.98141 13.705C4.22057 12.8769 4.76752 11.2789 4.7553 10.0383C4.72474 6.55802 4.7553 6.56108 8.18057 6.53664C8.53501 6.53664 8.88946 6.50914 9.2439 6.49386C9.93751 6.03858 10.6311 5.96525 11.3247 6.49386C12.1345 6.51219 12.9686 6.66191 13.7478 6.5183C16.7453 5.9683 18.8444 7.27608 20.6167 9.52802C21.0994 10.1391 21.2278 10.5058 20.5922 10.9886C20.5521 11.0195 20.5162 11.0554 20.4853 11.0955C18.7681 13.3902 16.5833 14.5941 13.6103 14.0625C12.8769 13.9311 12.0825 14.0625 11.337 14.0625C10.6372 14.7133 9.9314 14.6675 9.22251 14.0838Z" fill="#9C53A0"/>
<path d="M9.22247 14.0839H11.3369C11.3369 16.3694 11.3002 18.6672 11.3369 20.9405C11.3369 21.7319 11.2116 22.1322 10.2766 22.1413C9.34164 22.1505 9.23164 21.7105 9.24997 20.9405C9.26831 18.655 9.24997 16.3694 9.22247 14.0839Z" fill="#5C727E"/>
<path d="M11.3247 6.47555H9.25001C9.25001 5.66583 9.28973 4.85306 9.25001 4.04639C9.21028 3.23973 9.31723 2.82417 10.2828 2.84861C11.2483 2.87306 11.3889 3.25806 11.3339 4.05556C11.2789 4.85306 11.3247 5.66889 11.3247 6.47555Z" fill="#607580"/>
<path d="M11.8961 12C10.4784 12 9.06058 11.9663 7.64586 12C6.79336 12.0275 6.42364 11.7127 6.50614 10.8572C6.54185 10.3486 6.54185 9.83804 6.50614 9.32941C6.46947 8.64191 6.72308 8.30885 7.45947 8.31191C10.3439 8.3333 13.2283 8.31191 16.1097 8.33024C17.2861 8.33024 17.7903 9.38135 18.4258 10.1116C18.8017 10.5455 17.2464 11.945 16.287 11.9663C14.8295 12.0244 13.3628 12 11.8961 12Z" fill="#AF70AF"/>
</svg>
