<svg width="24" height="24" viewBox="0 0 24 24" fill="none" xmlns="http://www.w3.org/2000/svg">
<path d="M4.94778 11.1506C4.31528 10.6983 3.93334 10.0292 3.47195 9.42722C1.86473 7.33722 1.86473 7.33722 4.16861 5.97139C6.81793 4.44058 9.85404 3.71017 12.9097 3.86851C15.9654 4.02685 18.9098 5.06716 21.3867 6.86361C21.8969 7.2425 22.3033 7.52667 21.735 8.16833C20.9131 9.12778 20.1217 10.1147 19.315 11.0894C18.6794 11.3064 18.1233 11.0008 17.5703 10.7839C15.7933 10.0601 13.8898 9.69781 11.9712 9.71827C10.0526 9.73873 8.15726 10.1415 6.39611 10.9031C5.94084 11.0833 5.47639 11.3431 4.94778 11.1506Z" fill="#2D98D5"/>
<path d="M4.94775 11.1506C9.72664 8.60224 14.5178 8.77641 19.3089 11.0895C17.3166 14.0809 14.9394 16.782 12.7425 19.6389C12.4614 20.0025 12.168 20.5556 11.5875 19.8161C9.33248 16.95 7.0072 14.1542 4.94775 11.1506Z" fill="#82CCF2"/>
</svg>
