<svg width="24" height="24" viewBox="0 0 24 24" fill="none" xmlns="http://www.w3.org/2000/svg">
<path d="M3.15416 19.3608C2.75083 19.1377 2.32916 18.9269 2.22222 18.4166C1.96555 14.0716 2.18555 9.72663 2.1 5.38164C2.08166 4.46497 2.67444 4.2908 3.36805 4.23275C4.68194 4.12886 5.99888 4.18997 7.31277 4.18692C9.9935 4.18692 12.6753 4.18692 15.358 4.18692C16.0577 4.18692 16.7819 4.11969 17.4205 4.52608C17.9216 6.05386 17.6344 7.62747 17.6008 9.17357C17.5794 10.0627 16.6841 9.91913 16.0425 9.93746C15.694 9.89672 15.3649 9.75553 15.0953 9.53107C14.1144 7.93608 12.9564 6.53663 10.9916 6.13636C6.82082 5.47025 3.60027 8.73357 4.35194 12.8586C5.0099 15.1787 6.51018 16.5945 8.85276 17.1058C9.26038 17.15 9.64026 17.3335 9.92832 17.6252C10.6525 19.2691 10.5394 19.4861 8.85887 19.4586C6.95832 19.428 5.05166 19.6022 3.15416 19.3608Z" fill="#0F8A7C"/>
<path d="M15.6483 9.60746C17.2922 9.8519 17.723 9.03913 17.5458 7.55107C17.4297 6.60996 17.4816 5.64747 17.4572 4.69413C17.0966 4.15941 17.0233 3.63691 17.5153 3.1358C18.1569 4.73691 17.7475 6.4083 17.7903 8.04607C17.8147 9.00552 18.0041 9.58913 18.9453 10.0444C23.0152 12.0152 23.4094 18.5297 19.2905 21.2858C18.1661 22.0374 16.9591 22.1658 15.6758 22.0435C14.8478 20.6869 15.3611 19.1805 15.1961 17.7505C15.2009 17.6494 15.2409 17.5533 15.3091 17.4786C17.5336 15.8163 17.5336 15.8163 15.5078 13.7936C15.4416 13.7156 15.3918 13.6252 15.3611 13.5277C15.2358 12.1986 14.8844 10.8633 15.6483 9.60746Z" fill="#B0BEC5"/>
<path d="M15.6483 9.60749L15.6667 13.8333C15.649 13.9327 15.607 14.0261 15.5444 14.1053C14.0167 15.7644 14.0167 15.7644 15.3489 17.5366C16.0119 19.0003 15.4864 20.5464 15.6758 22.0436C14.8226 22.1786 13.9491 22.0931 13.1383 21.7952C12.3275 21.4973 11.6064 20.9969 11.0436 20.3416C10.8272 20.0964 10.5564 19.9052 10.253 19.7832C9.94953 19.6612 9.62177 19.6118 9.29583 19.6389C7.72528 19.6755 6.15472 19.6633 4.58417 19.6389C4.09528 19.6389 3.55751 19.7978 3.15417 19.3333C4.88056 19.3547 6.60695 19.3853 8.34861 19.3914C10.3836 19.3914 10.3836 19.3914 9.52805 17.4969C9.29902 17.262 9.12339 16.9804 9.01318 16.6714C8.90296 16.3624 8.86076 16.0332 8.88944 15.7064C9.195 12.9105 10.3836 10.7167 13.048 9.50666C13.7111 9.27138 14.3589 8.93222 15.0983 9.20111L15.6483 9.60749Z" fill="#D0D9DC"/>
<path d="M17.5153 3.13888C17.4969 3.65832 17.4755 4.17777 17.4572 4.69721C12.8739 4.69721 8.30889 4.7461 3.73779 4.67582C2.51557 4.65749 2.19168 5.04249 2.21002 6.2311C2.26807 10.295 2.21002 14.3589 2.21002 18.4227C2.1088 18.3088 2.0328 18.1748 1.98699 18.0295C1.94118 17.8841 1.92659 17.7308 1.94418 17.5794C1.94418 13.2069 1.94418 8.83442 2.00224 4.46499C2.0328 2.40555 2.50946 2.02055 4.59029 1.99916C8.09806 1.9849 11.6058 1.9849 15.1136 1.99916C16.0639 2.00527 17.0967 1.94721 17.5153 3.13888Z" fill="#5BB2AA"/>
<path d="M4.05555 12.938C3.27639 10.7747 4.08611 8.8833 5.52527 7.46858C6.96444 6.05386 8.88638 5.05469 11.12 5.87052C9.99554 6.33497 10.8817 7.2058 10.7167 7.8658C10.5211 7.9208 10.7839 7.93608 10.5853 7.93608C7.52972 7.91163 6.25555 9.66552 6.07833 12.495C5.40611 12.6936 4.51389 11.8472 4.05555 12.938Z" fill="#34A195"/>
<path d="M4.05554 12.938C4.15943 12.498 3.87221 11.9022 4.59026 11.7158C5.41221 11.4958 5.55582 12.1864 5.88887 12.6325C6.85137 13.8028 7.84442 14.9639 9.24998 15.6667L9.50664 17.5366C6.66804 17.3503 4.63304 15.6453 4.05554 12.938Z" fill="#59B2A9"/>
<path d="M10.793 7.72219C10.3469 7.38914 9.65635 7.24553 9.87635 6.42358C10.0688 5.70247 10.6677 5.99581 11.0986 5.88275C13.045 6.2647 14.42 7.32497 15.0708 9.24386L13.1916 9.85497C12.443 9.07886 11.5722 8.44636 10.793 7.72219Z" fill="#59B2A9"/>
<path d="M15.3611 17.5366C14.4689 17.2311 13.8884 16.62 13.9403 15.6605C13.9861 14.6278 14.75 14.1389 15.6667 13.8333C16.8095 14.0839 17.6589 14.6308 17.5 15.9539C17.3472 17.1944 16.4764 17.5672 15.3611 17.5366Z" fill="#138A7D"/>
<path d="M10.7931 7.72223C11.9664 8.0125 12.8403 8.63889 13.2039 9.86111C10.732 10.9917 9.53113 13.0083 9.25002 15.6667C7.43502 15.4222 6.40836 14.3039 5.88892 12.6356C5.98669 11.7892 5.77892 10.9336 6.09975 10.0872C6.94308 7.82306 8.76419 7.57556 10.7931 7.72223Z" fill="#0B897B"/>
</svg>
