<svg width="24" height="24" viewBox="0 0 24 24" fill="none" xmlns="http://www.w3.org/2000/svg">
<path d="M20.5557 22.8721H3.86173C3.09486 22.5177 2.41048 22.0472 2.39826 21.1154C2.3616 18.1976 2.09274 15.2706 2.5388 12.362C3.08264 11.3721 3.83729 11.8488 4.49112 12.1543C6.59314 13.1381 8.6646 14.1799 10.7177 15.2554C11.1723 15.5233 11.6903 15.6646 12.2179 15.6646C12.7455 15.6646 13.2635 15.5233 13.718 15.2554C15.4534 14.3388 17.2346 13.4955 18.9822 12.5973C19.4619 12.3529 20.0057 12.1604 20.351 11.4546C18.788 11.9385 17.3001 12.6378 15.93 13.5322C13.4858 15.1057 11.1699 15.3654 8.65238 13.6819C6.78256 12.4293 4.52472 11.8304 2.74045 10.3883C2.43493 9.43816 2.85655 8.78127 3.58981 8.24966C4.50639 7.87386 5.17244 7.36974 5.21827 6.23319C5.21827 5.83295 5.27021 4.7911 6.26011 5.54881C6.4862 5.9521 6.48315 6.4165 6.56564 6.85341C6.57298 6.97898 6.6061 7.1017 6.66292 7.21393C6.71975 7.32615 6.79906 7.42548 6.89593 7.50573C6.9928 7.58597 7.10515 7.64542 7.22599 7.68037C7.34683 7.71532 7.47357 7.72503 7.59832 7.70888C8.75015 7.70888 9.90504 7.8097 11.0385 7.50112C11.9796 7.66916 12.3584 7.30253 12.4867 6.3279C12.6487 5.1058 12.89 5.03553 13.7699 5.62519C13.8372 7.6325 13.9074 7.70277 15.8811 7.7211C16.7195 7.68482 17.5595 7.71752 18.3926 7.81887C19.5047 7.84025 19.5902 7.04283 19.7735 6.22402C19.8927 5.70768 20.0149 4.60779 20.9193 5.75962C22.3888 10.4769 22.123 15.3654 22.0833 20.2018C22.0833 21.3873 21.7778 22.3925 20.5557 22.8721Z" fill="#D0A6CD"/>
<path d="M3.0246 11.9282C3.0246 11.4486 3.0246 10.9658 3.0246 10.4861C4.58278 10.6511 5.74072 11.7388 7.14309 12.2765C7.9549 12.551 8.7234 12.9399 9.42537 13.4314C11.3624 14.9163 13.1436 14.5985 15.0837 13.3825C16.6572 12.3957 18.3987 11.6746 20.076 10.8589C20.3601 10.7183 20.7176 10.3334 21.0109 10.7092C21.1481 10.8947 21.2162 11.1224 21.2033 11.3528C21.1905 11.5832 21.0976 11.8018 20.9406 11.971C20.6653 12.2624 20.3379 12.4998 19.9752 12.6707C17.6776 13.8378 15.3617 14.9682 13.0795 16.1384C12.8251 16.2967 12.5332 16.3847 12.2336 16.3932C11.9341 16.4018 11.6377 16.3307 11.3746 16.1873C8.60045 14.7543 5.81099 13.3428 3.0246 11.9282Z" fill="#AC6CAD"/>
<path d="M3.88925 8.61936V5.45105C3.00017 6.40735 2.43189 6.19959 1.86362 5.49688C1.1273 4.59863 2.08665 4.34199 2.45023 3.96925C4.80583 1.52504 4.83027 1.54032 7.29281 4.07618C7.68083 4.47642 8.49659 4.76056 7.76638 5.64048C7.10033 6.44401 6.59316 6.07738 6.00044 5.67103C5.51771 5.57326 5.69491 5.97656 5.71324 6.12626C5.95461 7.58668 5.52993 8.53686 3.88925 8.61936Z" fill="#AD6FAE"/>
<path d="M11.1944 7.69668V5.41135C10.4795 5.88491 9.97228 6.55401 9.29096 5.67715C8.86017 5.13026 8.71657 4.78196 9.30624 4.33895C9.34596 4.3084 9.37651 4.26562 9.41317 4.23202C12.8992 1.00566 11.286 0.923168 14.9249 4.31451C15.429 4.78502 15.4901 5.14248 14.9737 5.6741C14.4574 6.20571 13.9991 6.30654 13.5408 5.63132C12.4379 5.74742 13.1589 6.58762 12.9878 7.07035C12.8473 7.46448 13.1284 8.02665 12.5784 8.25274C11.9704 8.50327 11.5152 8.23746 11.1944 7.69668Z" fill="#AD6FAE"/>
<path d="M18.472 8.31992V5.48464C17.6104 6.35844 17.0208 6.24845 16.4525 5.5213C15.7406 4.60472 16.7183 4.37863 17.0635 4.00895C19.4405 1.56474 19.4619 1.56474 21.8969 4.04866C22.3064 4.46724 23.0427 4.76665 22.3186 5.61907C21.6525 6.40427 21.1515 6.07125 20.5587 5.64962C20.4808 5.64944 20.4031 5.6566 20.3265 5.67101C20.269 5.95952 20.2474 6.25405 20.2624 6.54787C20.4854 7.97467 19.9446 8.60406 18.472 8.31992Z" fill="#AD6EAE"/>
</svg>
