<svg width="24" height="24" viewBox="0 0 24 24" fill="none" xmlns="http://www.w3.org/2000/svg">
<path d="M8.41684 8.29358C8.41684 7.37691 8.43518 6.46024 8.37101 5.54358C8.32212 4.85913 8.64907 4.6483 9.24184 4.62691C9.7034 4.3362 10.2392 4.18527 10.7847 4.19231C11.3301 4.19936 11.8618 4.36409 12.3157 4.66663C12.7221 4.71247 13.2141 4.74913 13.1071 5.31747C12.8871 6.50913 13.7182 6.55497 14.5035 6.75358C16.2055 7.19663 17.4918 8.14997 18.1335 9.84885C17.7852 10.845 17.0885 10.7655 16.3002 10.46C16.0451 9.99676 15.6958 9.59213 15.2747 9.27215C14.8537 8.95218 14.3703 8.72395 13.8557 8.60219C12.6136 8.77169 11.3597 8.83914 10.1066 8.80385C9.50768 8.75497 8.88129 8.80691 8.41684 8.29358Z" fill="#57707C"/>
<path d="M14.149 17.5C13.7121 17.8422 12.994 17.9583 13.2324 18.8078C13.4707 19.6572 14.1246 19.2906 14.6104 19.3272C15.3707 19.3685 16.1327 19.3685 16.8929 19.3272C17.5224 19.3089 17.8096 19.535 17.8096 20.2042C17.8279 20.9375 17.5407 21.1819 16.8318 21.1789C13.7335 21.1667 10.6382 21.1667 7.54293 21.1667C7.0846 21.1667 6.55599 21.2125 6.69655 20.4761C6.79432 19.9628 6.67821 19.2875 7.5521 19.3272C8.10696 19.389 8.66734 19.3818 9.22043 19.3058C9.88043 19.1622 11.0874 19.9169 11.069 18.5144C11.0538 17.2067 9.92016 17.9553 9.29682 17.8147C8.47793 17.6283 7.58266 18.0194 6.77599 17.5642C6.87384 17.4173 7.00587 17.2964 7.16074 17.2118C7.31561 17.1271 7.4887 17.0813 7.66516 17.0783C9.55886 16.9332 11.4609 16.9332 13.3546 17.0783C13.5085 17.0917 13.6582 17.136 13.7947 17.2084C13.9312 17.2809 14.0517 17.38 14.149 17.5Z" fill="#98A8AE"/>
<path d="M14.149 17.5L6.78512 17.5794C6.24734 15.7705 6.28096 15.7278 8.36179 15.6514C9.1224 15.3121 9.9459 15.1368 10.7787 15.1368C11.6116 15.1368 12.4351 15.3121 13.1957 15.6514C13.8232 15.6478 14.4385 15.4776 14.9786 15.1582C15.5187 14.8387 15.9642 14.3815 16.2696 13.8333C17.669 13.2772 17.8829 13.3475 18.1029 14.4444C17.7637 15.2517 17.2212 15.9574 16.5283 16.4929C15.8355 17.0283 15.0158 17.3753 14.149 17.5Z" fill="#56707C"/>
<path d="M18.1212 14.4444C17.7912 13.3933 16.899 14.0166 16.2879 13.8333C15.7134 12.6997 15.2795 11.5691 16.3337 10.4722C16.9448 10.2736 17.6598 10.3928 18.167 9.86108C19.7895 11.4897 19.8537 12.6447 18.1212 14.4444Z" fill="#99A9B0"/>
<path d="M8.41673 8.29358C10.2226 8.55941 12.0834 8.06136 13.8587 8.59913C12.8564 9.53413 12.5937 10.8602 12.0467 12.0366C11.6373 10.5761 10.4487 10.5089 9.24784 10.5089C7.64978 10.2583 8.63061 9.0483 8.41673 8.29358Z" fill="#99A8AF"/>
<path d="M13.1865 15.63L8.34343 15.6422C8.01343 13.8333 9.06759 13.7722 10.4365 13.8333C13.2323 13.9372 13.1315 13.4758 13.1865 15.63Z" fill="#62A4D8"/>
<path d="M9.26006 10.4875C11.4814 9.69915 12.0101 9.98637 12.0589 12.0153C11.7717 12.2933 11.4051 12.1619 11.072 12.2169C9.66339 12.4675 9.00339 11.9511 9.26006 10.4875Z" fill="#617681"/>
<path d="M12.3157 4.66665H9.22957C9.15623 3.61248 9.11957 2.83331 10.6932 2.83331C12.2668 2.83331 12.4501 3.4597 12.3157 4.66665Z" fill="#9BA9B0"/>
</svg>
