<svg width="24" height="24" viewBox="0 0 24 24" fill="none" xmlns="http://www.w3.org/2000/svg">
<path d="M13.2222 3.13891C14.4659 3.55752 14.8906 4.61169 14.9395 5.73307C15.025 7.58779 14.967 9.45473 14.8722 11.3125C14.7989 12.7028 14.1206 13.6897 12.6203 13.9006C11.6853 14.0931 11.6059 13.3689 11.5814 12.8006C11.4551 9.93445 11.4551 7.06733 11.5814 4.19919C11.6181 3.13891 12.22 2.7753 13.2222 3.13891Z" fill="#13ADC1"/>
<path d="M13.2223 3.13891C12.5011 3.13891 11.9664 3.22141 12 4.19308C12.0489 7.07751 12.0214 9.96501 12 12.8494C12 13.3383 12.055 13.7661 12.6111 13.9006C10.9367 14.2244 10.017 13.6744 9.52504 12.0672C9.31754 9.60428 9.32776 7.12783 9.5556 4.66669C10.3745 2.93724 11.3431 2.5278 13.2223 3.13891Z" fill="#5EC8D6"/>
<path d="M11.0834 15.7094C13.9404 15.8194 16.0395 14.8691 16.5498 11.7372C16.6904 10.8725 17.3381 11.1261 17.8454 11.1261C18.5817 11.1017 18.4228 11.673 18.4228 12.0978C18.4228 14.2916 16.672 16.6108 14.2612 17.3136C13.3445 17.5825 13.0145 17.9553 13.1154 18.8597C13.204 19.6419 13.2437 20.3141 12.0245 20.2836C10.8054 20.253 11.1659 19.4677 11.1079 18.8444C11.0773 18.493 11.0865 18.1386 11.0804 17.7841C10.6679 17.0936 10.4723 16.403 11.0834 15.7094Z" fill="#58717D"/>
<path d="M11.0834 15.7094C11.0834 16.4 11.0834 17.0936 11.0834 17.7842C8.33337 17.0875 6.37782 15.5444 5.73615 12.6539C5.60782 12.0642 5.2381 11.285 6.28309 11.1261C7.08059 11.007 7.6917 11.0436 7.78948 12.2047C7.95448 14.1389 9.42725 15.0556 11.0834 15.7094Z" fill="#93A4AB"/>
<path d="M9.55564 4.66669C9.55564 7.12946 9.55564 9.59223 9.55564 12.055C9.0713 9.61605 9.0713 7.10565 9.55564 4.66669Z" fill="#7DABB3"/>
</svg>
