<svg width="24" height="24" viewBox="0 0 24 24" fill="none" xmlns="http://www.w3.org/2000/svg">
<path d="M2.25281 16.8644C1.85559 16.5772 1.94725 16.1494 1.94725 15.7522C1.94725 12.2017 1.94725 8.65314 1.94725 5.10667C1.94725 3.37723 2.47586 2.8639 4.22364 2.86084C9.49752 2.86084 14.7704 2.86084 20.0422 2.86084C21.8053 2.86084 22.0589 3.11751 22.0558 4.905C22.0558 8.50138 22.0222 12.1008 22.0008 15.7003C21.3561 16.2533 20.5678 16.128 19.8253 16.128C14.8651 16.1443 9.90492 16.1443 4.94475 16.128C3.97614 16.128 3.03197 16.1739 2.25281 16.8644Z" fill="#BCC5CA"/>
<path d="M2.25283 16.8644C2.05116 15.7216 2.74172 15.6666 3.60644 15.6666C9.74198 15.6941 15.8775 15.6911 22.01 15.6972C22.2453 17.225 21.3103 17.6925 20.0759 17.7536C18.5725 17.8269 17.06 17.7536 15.5536 17.7841C15.1198 17.7841 14.4598 17.5183 14.4689 18.3952C12.9656 17.7841 11.4134 17.8788 9.86115 18.0897C8.22643 17.3991 6.51532 17.8911 4.84394 17.7841C3.85699 17.7413 2.94033 17.6711 2.25283 16.8644Z" fill="#8A9BA3"/>
<path d="M9.8611 18.0928C11.3889 17.1303 13.3658 17.2556 14.4689 18.3983C14.9547 19.2355 16.1983 19.978 15.7094 20.9283C15.3366 21.6525 14.0472 21.1605 13.1703 21.1972C11.9144 21.2522 10.6555 21.1972 9.39971 21.2186C8.14388 21.24 8.14693 20.693 8.67554 19.8467C9.04832 19.2417 9.46387 18.6733 9.8611 18.0928Z" fill="#556F7B"/>
<path d="M12 13.8761C9.66552 13.8761 7.33108 13.8394 4.99969 13.8944C4.05553 13.9158 3.77747 13.5889 3.79886 12.6722C3.84775 10.3928 3.84775 8.11128 3.79886 5.82777C3.77747 4.9386 4.1258 4.71249 4.95691 4.71555C9.67468 4.7461 14.3914 4.7461 19.1072 4.71555C20.0483 4.71555 20.3294 5.0211 20.3141 5.93777C20.2652 8.16832 20.253 10.3989 20.3141 12.6294C20.3447 13.6561 19.9627 13.925 18.9941 13.9005C16.6597 13.8333 14.3252 13.8761 12 13.8761Z" fill="#5E6BB2"/>
</svg>
