<svg width="24" height="24" viewBox="0 0 24 24" fill="none" xmlns="http://www.w3.org/2000/svg">
<path d="M12.9167 2.90973C17.3655 3.05334 21.3927 7.72219 21.2308 11.5905C21.0291 16.3296 19.043 19.7762 14.7867 20.8915C9.37228 22.3123 4.5751 19.7365 3.15428 14.1388C2.86706 13.6255 3.03205 13.1274 3.08094 12.5621C3.7501 12.6905 3.76844 13.2221 4.02205 13.5277C5.73314 15.7185 7.96062 16.9377 10.7442 16.4824C13.7661 15.9935 15.8072 14.1999 16.4092 11.0955C16.9408 8.34551 16.0608 6.11192 13.815 4.42527C13.7064 4.31931 13.61 4.20143 13.5278 4.07389C12.5164 3.38639 12.5164 3.38639 12.9167 2.90973Z" fill="#90A4AE"/>
<path d="M4.02204 13.5277L3.15427 12.7821V14.1388C2.51872 13.161 2.99844 12.1069 2.84872 10.686C3.56371 11.786 3.7501 12.6721 4.02204 13.5277Z" fill="#A3B1B8"/>
<path d="M12.9167 2.90973C12.4767 3.62778 13.5461 3.56667 13.5278 4.07389C12.6661 3.88139 11.942 3.31306 10.9948 3.34973L11.0375 2.90973H12.9167Z" fill="#A9B6BD"/>
</svg>
