<svg width="24" height="24" viewBox="0 0 24 24" fill="none" xmlns="http://www.w3.org/2000/svg">
<path d="M12.1131 13.8638C10.842 13.8883 10.2797 13.2099 10.2095 12.1069C10.1954 11.8529 10.2365 11.5989 10.33 11.3623C10.4234 11.1257 10.5669 10.9121 10.7506 10.7362C10.9344 10.5603 11.154 10.4262 11.3945 10.3432C11.6349 10.2602 11.8905 10.2302 12.1436 10.2552C13.2681 10.3163 14.0045 10.9763 13.977 12.0641C13.9495 13.1519 13.3292 13.9586 12.1131 13.8638Z" fill="#4A5E68"/>
<path d="M6.61312 10.2461C7.68867 10.2461 8.65423 11.1628 8.51062 12.165C8.367 13.1672 7.82312 13.8822 6.61006 13.8761C5.30229 13.8761 4.77673 13.1733 4.77673 12.0061C4.77673 10.8389 5.48257 10.2919 6.61312 10.2461Z" fill="#4B5E68"/>
<path d="M19.3518 11.9481C19.3793 13.2008 18.8873 13.8272 17.6773 13.8669C16.4673 13.9067 15.7859 13.3047 15.6973 12.1192C15.6803 11.8666 15.7183 11.6133 15.8088 11.3768C15.8993 11.1404 16.0401 10.9264 16.2214 10.7498C16.4028 10.5731 16.6203 10.4379 16.859 10.3536C17.0977 10.2693 17.3519 10.2378 17.604 10.2614C18.6887 10.3286 19.4251 10.8175 19.3518 11.9481Z" fill="#4A5D67"/>
</svg>
