<svg width="24" height="24" viewBox="0 0 24 24" fill="none" xmlns="http://www.w3.org/2000/svg">
<path d="M12.0978 10.1666C13.0939 10.3133 13.818 10.7258 13.873 11.9541C13.9341 13.2313 13.2619 13.8394 12.1344 13.9891C11.1444 14.1236 10.2155 13.1213 10.2553 12.0519C10.298 10.9397 10.9061 10.3072 12.0978 10.1666Z" fill="#4B5E68"/>
<path d="M12.1528 4.7583C13.2925 4.88052 13.922 5.43663 13.8761 6.71997C13.8303 7.94219 13.0848 8.41886 12.0428 8.51358C11.0009 8.6083 10.1728 7.57858 10.24 6.51219C10.3256 5.3633 10.9825 4.80108 12.1528 4.7583Z" fill="#4B5E68"/>
<path d="M13.8669 17.5C13.8669 18.765 13.3261 19.3333 12.1314 19.3578C10.8389 19.3914 10.2644 18.7069 10.2675 17.5244C10.2675 16.4153 10.9061 15.6911 12.0427 15.6911C13.1794 15.6911 13.9097 16.3358 13.8669 17.5Z" fill="#4A5E67"/>
</svg>
