<svg width="24" height="24" viewBox="0 0 24 24" fill="none" xmlns="http://www.w3.org/2000/svg">
<path d="M2.92192 13.7783C2.92192 11.7005 2.92192 9.62276 2.8822 7.54498C2.8822 6.29526 3.36803 5.37249 4.57192 4.95693C5.77581 4.54138 6.8758 4.67277 7.62747 5.8736C8.0033 6.48471 8.46163 6.81776 9.05135 6.11804C10.6586 4.2236 12.6294 4.61471 14.6308 5.21666C15.0189 5.33318 15.3898 5.50066 15.7338 5.71471C16.8858 6.43887 17.9399 6.93693 18.8627 5.33582C19.2049 4.72471 19.9658 4.6361 20.6472 4.82555C21.408 5.03332 21.1941 5.70554 21.1941 6.22193C21.1941 8.75498 21.1605 11.288 21.1422 13.8211C16.8827 14.6858 12.5866 14.0686 8.30886 14.255C6.49939 14.3735 4.68246 14.2128 2.92192 13.7783Z" fill="#384850"/>
<path d="M2.92187 13.7783L21.1421 13.8333C20.9099 14.3405 20.4424 14.0961 20.0757 14.1542C19.709 14.2122 19.5991 14.4597 19.6113 14.7958C19.6235 15.1319 19.5441 15.4558 20.0085 15.6514C21.4935 16.2778 21.5882 16.7972 20.5554 18.0714C20.4676 18.1917 20.3869 18.3172 20.314 18.4472C19.2202 16.9194 19.2202 16.9194 17.4877 17.8055C16.8063 17.7505 16.1004 17.6283 15.7368 18.4472C14.646 16.9194 14.646 16.9194 12.9196 17.7994C12.2413 17.7628 11.5232 17.6161 11.1688 18.4503C10.0627 16.9225 10.0627 16.9225 8.34852 17.7994C7.6763 17.7811 6.9338 17.5794 6.58853 18.4472C5.49464 16.9194 5.49464 16.9194 3.76214 17.8055C2.70187 17.8666 2.92187 17.0997 2.89437 16.4764C2.86992 15.9172 3.08687 15.6239 3.67353 15.6636C4.2602 15.7033 4.74298 15.6361 4.70631 14.8111C4.66964 13.9861 4.10437 14.1755 3.63687 14.1389C3.3527 14.1144 3.01659 14.1847 2.92187 13.7783Z" fill="#8A9497"/>
<path d="M3.75 17.8055C4.19305 17.1944 4.55666 16.4733 5.50388 16.7055C6.4511 16.9377 6.54277 17.668 6.57638 18.4472C6.35027 19.3638 5.63833 19.4158 4.90194 19.3333C4.00972 19.2294 3.79278 18.5725 3.75 17.8055Z" fill="#3D4B53"/>
<path d="M8.33325 17.8055C8.77631 17.2158 9.13686 16.4733 10.081 16.7147C11.0252 16.9561 11.1291 17.6711 11.1535 18.4563C10.9091 19.3547 10.2185 19.428 9.46992 19.3394C8.56547 19.2263 8.38825 18.5511 8.33325 17.8055Z" fill="#3D4C53"/>
<path d="M12.9166 17.8055C13.3536 17.2097 13.7233 16.4764 14.6613 16.7116C15.5994 16.9469 15.7186 17.6619 15.7338 18.4533C15.4894 19.3425 14.8172 19.4341 14.0563 19.3425C13.1488 19.2233 12.9594 18.5541 12.9166 17.8055Z" fill="#3D4C53"/>
<path d="M17.4724 17.8055C17.9155 17.2127 18.2791 16.4702 19.2232 16.7055C20.1674 16.9408 20.2743 17.6588 20.2988 18.4472C20.0727 19.3638 19.3607 19.4158 18.6244 19.3333C17.7352 19.2294 17.5182 18.5724 17.4724 17.8055Z" fill="#3D4B53"/>
</svg>
