<svg width="24" height="24" viewBox="0 0 24 24" fill="none" xmlns="http://www.w3.org/2000/svg">
<path d="M11.0588 7.96058C11.6699 6.64058 12.6752 6.2678 14.0013 6.73836C15.8163 7.41669 17.8055 7.85364 18.4655 10.0659C18.9849 11.2056 18.1355 11.7067 17.4297 12.2628C16.9469 12.6447 16.2074 12.7486 15.9355 13.6439C17.2738 13.1275 18.4899 13.3628 19.706 13.4881C21.3408 14.2459 22.1505 15.4895 21.961 17.0172C21.8854 17.7499 21.575 18.4384 21.0761 18.9802C20.5772 19.5221 19.9166 19.8881 19.1927 20.0239C17.396 20.3661 16.2594 19.752 15.3122 17.9278C14.1877 16.5497 13.4972 14.9456 12.9166 13.2895C12.8238 13.0853 12.7804 12.8622 12.79 12.6382C12.7995 12.4141 12.8618 12.1955 12.9716 12C13.6408 11.0436 13.543 10.8603 12.446 10.6984C11.5294 10.567 11.0283 11.3736 10.2369 11.4806C9.28231 11.6439 8.30533 11.6231 7.35855 11.4195C6.55494 11.2117 6.37466 10.5884 6.51522 9.8703C6.65577 9.15225 7.03466 8.89558 7.72216 9.28058C8.67855 9.26225 9.71744 9.58614 10.4722 8.66947C10.5985 8.38354 10.8016 8.13817 11.0588 7.96058Z" fill="#5E4FA1"/>
<path d="M13.2222 12.0336C12.9166 13.4942 13.8516 14.6033 14.4077 15.7706C14.7947 16.4523 15.1022 17.1761 15.3244 17.9278C14.9302 18.2883 14.6033 18.6244 13.9341 18.5847C12.1894 18.4808 10.4355 18.5267 8.68468 18.5114C8.40968 18.1906 8.57468 17.8422 8.62357 17.5031C8.99023 14.9242 7.27912 13.2894 4.75523 13.8028C4.41607 13.8731 4.08301 14.0594 3.73773 13.8272C2.67134 12.6661 2.6744 11.5569 3.73773 10.3378C4.71857 9.20111 5.57107 7.94222 6.60384 6.54889L7.72218 9.26528C6.98273 9.20722 6.78718 9.59222 6.80551 10.2706C6.82384 10.9489 7.18134 11.1078 7.76496 11.0986C8.76107 11.0803 9.75718 11.0986 10.7533 11.0986C11.4988 11.6181 12.5072 11.4439 13.2222 12.0336Z" fill="#795DA8"/>
<path d="M3.72551 13.8333C5.1219 13.1061 6.44801 12.8708 7.79551 14.038C9.29274 15.3367 9.43024 16.8186 8.67246 18.5175C7.2394 20.0789 5.68107 20.5219 4.13801 19.8039C2.84551 19.1928 2.08163 17.7414 2.25579 16.1769C2.31417 15.7025 2.47607 15.2467 2.73003 14.8417C2.984 14.4367 3.32384 14.0925 3.72551 13.8333Z" fill="#5F50A1"/>
<path d="M11.0589 7.96055C11.0338 8.11696 10.9656 8.26328 10.862 8.3831C10.7584 8.50291 10.6234 8.59149 10.4722 8.63888C10.3195 8.02777 9.92529 8.41888 9.63807 8.45249C9.21257 8.52813 8.77404 8.44893 8.40188 8.22922C8.02972 8.00951 7.74852 7.66381 7.60918 7.25471C7.44505 6.90914 7.40373 6.5179 7.49207 6.14566C7.58041 5.77343 7.79311 5.44247 8.09502 5.20749C8.38674 4.92213 8.76899 4.74763 9.17571 4.71415C9.58242 4.68068 9.98806 4.79033 10.3225 5.02416C10.7042 5.23016 10.9957 5.57047 11.1408 5.97917C11.2859 6.38787 11.2741 6.83586 11.1078 7.23638C11.0406 7.45027 10.5853 7.70083 11.0589 7.96055Z" fill="#6354A3"/>
<path d="M19.7061 13.488C18.5327 13.6683 17.2616 13.213 16.1891 14.0991C15.8286 14.4047 15.6758 14.1633 15.52 13.8608C15.3061 13.4422 15.3336 13.0541 15.7339 12.7944C16.1341 12.5347 16.623 12.3055 17.0722 12.0611C17.8819 11.6394 18.4655 11.0558 18.4655 10.0658C19.0177 10.0795 19.5682 10.1336 20.1125 10.2277C20.7633 10.3897 21.845 9.67774 22.0039 10.738C22.1414 11.6547 21.0077 11.4989 20.418 11.7555C19.59 12.1161 18.7222 12.3666 17.8941 13.0327C18.5175 13.3475 19.2416 12.99 19.7061 13.488Z" fill="#7B60A9"/>
<path d="M20.4975 16.5833C20.5056 16.849 20.4613 17.1137 20.3671 17.3622C20.2729 17.6107 20.1307 17.8383 19.9485 18.0318C19.7663 18.2254 19.5478 18.3811 19.3054 18.4901C19.063 18.5991 18.8015 18.6593 18.5358 18.6672C18.2701 18.6764 18.0054 18.6314 17.7577 18.5349C17.51 18.4385 17.2845 18.2926 17.0949 18.1063C16.9054 17.9199 16.7558 17.6969 16.6552 17.4508C16.5547 17.2047 16.5052 16.9408 16.51 16.675C16.5527 15.4986 17.1577 14.7836 18.3708 14.7042C18.6354 14.6803 18.9021 14.7107 19.1545 14.7935C19.4069 14.8763 19.6398 15.0097 19.8389 15.1857C20.038 15.3616 20.1991 15.5763 20.3123 15.8166C20.4255 16.0569 20.4885 16.3178 20.4975 16.5833Z" fill="#F9F8FB"/>
<path d="M13.2222 12.0336C12.3575 11.8228 11.0833 12.6447 10.7533 11.0894C11.9419 9.37528 13.1794 10.5822 14.4719 10.9306C14.2702 11.6608 13.543 11.6089 13.2222 12.0336Z" fill="#F4F2F7"/>
<path d="M7.67935 16.6322C7.69065 16.898 7.64745 17.1632 7.55243 17.4116C7.45741 17.66 7.31256 17.8863 7.12681 18.0766C6.94105 18.267 6.71832 18.4173 6.4723 18.5183C6.22629 18.6194 5.9622 18.669 5.69629 18.6642C4.53212 18.6153 3.81712 18.0011 3.72546 16.7972C3.68862 16.534 3.70945 16.266 3.78651 16.0116C3.86357 15.7572 3.99501 15.5227 4.17173 15.3241C4.34845 15.1256 4.56622 14.9679 4.80994 14.8619C5.05367 14.7559 5.31753 14.7042 5.58324 14.7103C5.84852 14.6925 6.11466 14.7287 6.36554 14.8167C6.61643 14.9047 6.84683 15.0428 7.0428 15.2225C7.23877 15.4022 7.39623 15.6197 7.50565 15.8621C7.61506 16.1044 7.67416 16.3664 7.67935 16.6322Z" fill="#FAF9FB"/>
</svg>
