<svg width="24" height="24" viewBox="0 0 24 24" fill="none" xmlns="http://www.w3.org/2000/svg">
<path d="M20.8183 18.0836C20.1466 19.1112 19.2785 19.9959 18.2638 20.6869C17.5366 21.1972 17.1241 20.2805 16.6841 19.8619C15.578 18.8139 14.4933 17.7383 13.4513 16.6292C12.9625 16.1128 12.6325 16.0364 12.1191 16.6047C11.34 17.4725 10.4752 18.2639 9.6533 19.095C9.16135 19.5931 8.85274 19.6144 8.62357 18.8414C7.28219 14.3375 5.90719 9.84279 4.55969 5.33891C4.31525 4.52002 4.68191 4.35502 5.43969 4.58419C9.88552 5.94391 14.3313 7.29752 18.7894 8.6114C19.7061 8.88335 19.5441 9.22251 19.0247 9.72362C18.8413 9.90085 18.6549 10.075 18.4869 10.2645C17.7199 11.1292 16.1983 11.8411 16.29 12.7975C16.3816 13.7539 17.7352 14.5056 18.5449 15.3428C19.1102 15.9264 19.6938 16.4917 20.2652 17.0692C20.4261 17.1874 20.559 17.3396 20.6546 17.5149C20.7501 17.6902 20.806 17.8843 20.8183 18.0836Z" fill="#D0D9DC"/>
</svg>
