<svg width="24" height="24" viewBox="0 0 24 24" fill="none" xmlns="http://www.w3.org/2000/svg">
<path d="M5.35722 11.1139C7.19055 11.1139 8.66944 11.1139 10.1422 11.1139C10.6769 11.1139 11.1444 11.1475 11.123 10.3622C11.0833 8.80388 11.123 7.24555 11.123 5.38777C10.6776 5.748 10.256 6.13688 9.8611 6.55194C9.33249 7.20277 8.94443 7.23027 8.30888 6.60388C7.67333 5.97749 7.94833 5.63222 8.43416 5.16472C9.45777 4.17777 10.4722 3.17861 11.45 2.14278C11.9022 1.66611 12.22 1.64167 12.6722 2.1275C13.7233 3.23055 14.7897 4.32138 15.9111 5.35416C16.5528 5.94694 16.1678 6.27083 15.7583 6.69249C15.3489 7.11416 15.0005 7.34638 14.5361 6.75971C14.203 6.32888 13.8394 5.92555 13.488 5.50999L13.0939 5.69944C13.0939 7.29138 13.0939 8.88332 13.0939 10.4753C13.0939 10.9183 13.2711 11.1169 13.705 11.1139C15.3122 11.1139 16.9164 11.1139 18.5205 11.1139L18.8872 10.6097C18.4625 10.353 18.0225 10.1178 17.613 9.83971C16.9561 9.38749 16.8278 8.97804 17.5061 8.31193C18.1844 7.64582 18.4655 7.91471 18.9452 8.42193C19.8619 9.38138 20.7786 10.3408 21.7502 11.2208C22.4377 11.8319 22.5202 12.2811 21.7991 12.9289C20.828 13.8159 19.903 14.7521 19.0278 15.7339C18.4533 16.3664 18.1111 16.345 17.4541 15.7583C16.7208 15.083 17.1486 14.7591 17.6191 14.3344L18.9452 13.1122H13.6744C13.0633 13.1122 13.1091 13.5675 13.1091 13.9739C13.1091 15.5016 13.1091 17.005 13.1091 18.5572C13.7386 18.4472 13.9678 17.9461 14.3314 17.6161C14.7805 17.1944 15.08 16.7147 15.7583 17.4389C16.3419 18.05 16.4153 18.4166 15.7583 19.0064C14.7439 19.923 13.7844 20.913 12.8464 21.9152C12.2994 22.5019 11.9022 22.4836 11.3583 21.8969C10.3805 20.8611 9.36916 19.8558 8.33332 18.8872C7.80777 18.3983 7.76805 18.0805 8.31194 17.5611C8.85582 17.0416 9.2286 16.7941 9.72666 17.5183C10.0322 17.9705 10.3378 18.435 10.6433 18.8811L11.1261 18.5541C11.1261 16.953 11.1261 15.3489 11.1261 13.7478C11.1261 13.3078 10.9489 13.1061 10.4997 13.1091C8.8986 13.1091 7.29749 13.1091 5.69944 13.1091L5.45805 13.5033C5.87972 13.8394 6.29222 14.1847 6.72611 14.5025C7.40138 14.9975 7.08666 15.3519 6.64972 15.8225C6.15472 16.3572 5.81555 16.3969 5.30222 15.8469C4.29694 14.7714 3.25806 13.708 2.17945 12.7211C1.61112 12.2047 1.6875 11.8655 2.20084 11.3889C3.27333 10.3775 4.33972 9.34776 5.32361 8.25693C5.90416 7.61832 6.20972 7.96666 6.64972 8.38221C7.08972 8.79777 7.36166 9.19193 6.71083 9.70221C6.22988 10.1433 5.77775 10.6148 5.35722 11.1139Z" fill="#394951"/>
</svg>
