<svg width="24" height="24" viewBox="0 0 24 24" fill="none" xmlns="http://www.w3.org/2000/svg">
<path d="M9.55557 3.98223C12.8464 3.67668 16.1464 3.93334 19.4403 3.84168C20.3111 3.81723 20.25 4.39779 20.25 4.97223C20.2358 8.12149 20.2215 11.2728 20.2072 14.4261C19.2295 14.0533 18.5542 13.4208 18.4014 12.3331C18.4014 10.8053 18.4014 9.27751 18.432 7.74973C18.432 7.20584 18.4106 6.70779 17.662 6.74751C15.5445 6.8514 13.4117 6.50307 11.3033 6.9339C11.1567 8.94445 11.3033 10.9581 11.227 12.9656C11.227 13.372 11.4958 13.9739 10.897 14.1328C10.4356 14.255 10.072 13.8272 9.76029 13.5217C9.44862 13.2161 9.14918 12.8525 9.25001 12.3331L9.29279 12.3178C9.58307 10.1453 9.32945 7.96057 9.42418 5.78195C9.44251 5.18307 9.2714 4.56279 9.55557 3.98223Z" fill="#3499D4"/>
<path d="M9.25003 12.3331L10.955 14.1664C11.3553 11.6058 10.7778 9.25 11.2973 6.94305C11.3156 9.83667 11.4256 12.7486 11.3186 15.6239C11.2606 17.1914 10.622 18.6978 8.92614 19.1683C7.56948 19.5442 6.11809 19.6756 4.95392 18.4869C3.88142 17.3992 3.52086 15.3092 4.22059 13.9617C4.62056 13.2488 5.24083 12.6849 5.9884 12.3543C6.73596 12.0238 7.57054 11.9445 8.36698 12.1283C8.6542 12.2078 8.94448 12.2689 9.25003 12.3331Z" fill="#67C0EC"/>
<path d="M18.3953 12.33L20.2012 14.4231C20.2012 15.4223 20.4548 16.4428 19.9873 17.4023C19.2417 18.93 17.8484 19.5748 15.8042 19.3364C14.5453 19.1867 13.2528 17.9034 12.9717 16.5192C12.8098 15.7706 12.888 14.99 13.1952 14.2884C13.5024 13.5868 14.0229 12.9999 14.6828 12.6111C15.8439 11.9817 17.1548 12.4034 18.3953 12.33Z" fill="#67C0EC"/>
<path d="M9.55565 3.98224C9.55565 6.28613 9.55565 8.59002 9.55565 10.8939C9.55565 11.3767 9.71454 11.9083 9.28982 12.3178C9.2776 9.79187 9.26843 7.26289 9.26232 4.73085C9.2501 4.45585 9.13704 4.10446 9.55565 3.98224Z" fill="#618DB9"/>
</svg>
