<svg width="24" height="24" viewBox="0 0 24 24" fill="none" xmlns="http://www.w3.org/2000/svg">
<path d="M14.9639 6.95221C14.9822 10.0078 15.0464 13.0633 14.9975 16.0975C14.9669 17.9644 13.7539 19.6113 12.2475 20.1186C11.4036 20.4163 10.489 20.4494 9.6258 20.2135C8.7626 19.9777 7.99191 19.484 7.41667 18.7986C6.33806 17.4419 6.31362 15.1502 7.36167 13.6683C8.36695 12.2383 10.1453 11.6944 11.9206 12.3055C13.3903 11.8228 13.8639 13.1489 14.7408 13.9005C14.7989 14.0014 14.8692 13.6622 14.7408 13.818C14.6797 13.8914 14.6186 13.8852 14.5972 13.7844C14.0778 11.6028 14.2458 9.41193 14.5178 7.2211C14.5225 7.17066 14.5391 7.12205 14.566 7.07917C14.593 7.03628 14.6296 7.00032 14.673 6.97417C14.7164 6.94801 14.7653 6.93241 14.8158 6.92859C14.8664 6.92478 14.9171 6.93287 14.9639 6.95221Z" fill="#67C0EC"/>
<path d="M14.9639 6.95223C14.4903 8.78556 14.8722 10.6525 14.7592 12.4981C14.7256 13.045 14.7592 13.598 14.7592 14.4169C13.7997 13.4697 13.1306 12.4858 11.9267 12.2964C11.9817 9.55047 12.0357 6.80047 12.0886 4.04641C14.1837 3.81262 16.2986 3.81877 18.3922 4.06474C18.4218 4.21409 18.4422 4.36512 18.4533 4.51696C18.5236 6.70473 18.5205 6.69862 16.2961 6.73834C15.8408 6.75668 15.3611 6.64668 14.9639 6.95223Z" fill="#3698D2"/>
<path d="M18.3861 4.07696L12.0825 4.05557C14.1585 3.58748 16.3134 3.59479 18.3861 4.07696Z" fill="#67C0EC"/>
</svg>
