<svg width="24" height="24" viewBox="0 0 24 24" fill="none" xmlns="http://www.w3.org/2000/svg">
<path d="M12.1405 7.49306C14.1175 7.49306 16.0944 7.49306 18.0714 7.49306C18.6825 7.49306 19.3303 7.44417 19.3486 8.37306C19.3669 9.30194 18.7558 9.4425 18.0439 9.4425C14.038 9.4425 10.0353 9.4425 6.02945 9.4425C5.29918 9.4425 4.82862 9.13694 4.80723 8.40972C4.77057 7.56028 5.41834 7.49306 6.06612 7.49306H12.1405Z" fill="#5C737F"/>
<path d="M12 11.1139C13.983 11.1139 15.9722 11.1139 17.9461 11.1139C18.5969 11.1139 19.3211 11.0253 19.3455 12.0306C19.37 12.9809 18.7344 13.1092 18.0439 13.1092C14.0818 13.1214 10.1188 13.1214 6.15473 13.1092C5.43057 13.1092 4.79501 12.9014 4.79501 12.0336C4.79501 11.0803 5.51918 11.0895 6.20668 11.0895L12 11.1139Z" fill="#5B737E"/>
<path d="M12.0856 16.6017C10.0108 16.6017 7.93306 16.6017 5.85835 16.6017C5.29307 16.6017 4.80418 16.5192 4.79807 15.8408C4.79807 15.2297 5.05779 14.7531 5.77585 14.7531C9.97621 14.7531 14.1796 14.7531 18.3861 14.7531C19.0828 14.75 19.3333 15.1625 19.3333 15.8408C19.3333 16.5925 18.8353 16.6017 18.3067 16.6017H12.0856Z" fill="#576F7A"/>
</svg>
