<svg width="24" height="24" viewBox="0 0 24 24" fill="none" xmlns="http://www.w3.org/2000/svg">
<path d="M3.16791 19.3552C2.76465 19.1291 2.34611 18.9214 2.22391 18.4173C1.96728 14.073 2.18725 9.72268 2.10171 5.37844C2.08338 4.46193 2.67911 4.28474 3.3726 4.2328C4.78402 4.12587 6.20155 4.19003 7.61603 4.18392C10.1904 4.18392 12.7678 4.18392 15.3483 4.18392C16.051 4.18392 16.7719 4.11671 17.4074 4.52914C17.884 5.93751 17.6243 7.39475 17.5907 8.82145C17.5724 9.73796 16.7383 9.60965 16.0876 9.56382C15.4155 9.40802 15.3911 8.78479 15.1711 8.29293C14.4929 6.8143 13.1976 6.55462 12.0336 7.68193C11.6334 8.0638 11.2912 8.51289 10.7138 8.65343C10.0972 8.77101 9.46386 8.77101 8.84721 8.65343C8.20565 8.51289 7.90015 7.9416 7.448 7.55667C6.61704 6.85707 5.74635 6.67377 4.87872 7.45585C4.51762 7.77898 4.29916 8.23195 4.27111 8.71571C4.24305 9.19947 4.4077 9.67465 4.72903 10.0374C4.89535 10.2266 5.09737 10.3811 5.32352 10.4922C5.54966 10.6032 5.79548 10.6685 6.04691 10.6844C6.29834 10.7003 6.55044 10.6665 6.78876 10.5848C7.02709 10.5031 7.24696 10.3752 7.43578 10.2084C7.98263 9.77462 8.40117 9.17278 9.12216 8.98642C9.74543 8.81689 10.4052 8.83818 11.0163 9.04752C11.2015 9.13432 11.3554 9.27639 11.4566 9.45419C11.5578 9.632 11.6014 9.83679 11.5815 10.0404C10.6191 11.5679 9.1802 12.5455 7.71073 13.4987C7.36037 13.5318 7.007 13.5112 6.66286 13.4376C5.67303 13.3246 4.84512 13.572 4.43575 14.5741C4.25879 14.9436 4.22324 15.3652 4.3358 15.7592C4.44837 16.1531 4.70126 16.4923 5.04675 16.7126C5.90216 17.3236 6.76062 17.1495 7.54576 16.5079C7.72653 16.3323 7.91619 16.1661 8.114 16.0099C8.63946 15.6678 9.14354 15.5975 9.55597 16.178C10.9307 19.3521 10.8635 19.4804 7.49688 19.4529C6.06102 19.4407 4.60988 19.5965 3.16791 19.3552Z" fill="#0D897B"/>
<path d="M15.666 9.23394C17.0377 9.50278 17.7312 9.08729 17.5327 7.54451C17.4516 6.59465 17.421 5.64116 17.441 4.68806C17.0927 4.15343 17.0194 3.63102 17.4991 3.14221C18.1406 4.7461 17.7282 6.4172 17.774 8.0547C17.7984 9.01397 17.9879 9.58221 18.9288 10.0557C22.9981 12.0018 23.3983 18.5243 19.2832 21.2799C18.1589 22.0314 16.9553 22.1598 15.6752 22.0376C14.8442 20.6872 15.3697 19.1842 15.1925 17.7605C15.2536 17.3542 15.611 17.2625 15.9074 17.0884C17.4349 16.1994 17.4624 15.3806 16.0601 14.2961C15.8092 14.146 15.5993 13.9361 15.4491 13.6851C15.2491 13.1162 15.1863 12.508 15.2658 11.9101C15.3227 11.4652 15.2728 11.0132 15.1203 10.5914C14.9679 10.1696 14.7172 9.79018 14.389 9.48445C14.6945 8.79096 15.1742 8.94676 15.666 9.23394Z" fill="#B0BEC5"/>
<path d="M14.4226 9.5272C15.4094 9.42027 15.7393 9.87547 15.6752 10.8378C15.611 11.8001 15.6752 12.8297 15.6752 13.8287C15.658 13.9272 15.616 14.0198 15.553 14.0975C14.0255 15.7595 14.0255 15.7595 15.3575 17.5314C16.0112 18.9947 15.4827 20.5558 15.666 22.0375C14.8134 22.1738 13.9401 22.0888 13.1297 21.7909C12.3193 21.4929 11.599 20.992 11.0377 20.3359C10.8212 20.0937 10.5516 19.9048 10.2501 19.784C9.94856 19.6632 9.62317 19.6136 9.29935 19.6393C7.73212 19.676 6.16183 19.6638 4.59461 19.6393C4.10886 19.6393 3.56812 19.7982 3.16791 19.3338C5.17506 19.3552 7.17916 19.3338 9.18326 19.4072C10.1975 19.4346 10.2372 19.0864 9.88591 18.2585C9.62231 17.5026 9.41802 16.7273 9.27491 15.9397C9.13962 15.7941 9.04345 15.6165 8.99537 15.4237C8.94729 15.2308 8.94886 15.0289 8.99995 14.8368C9.13112 14.1617 9.33602 13.5029 9.61096 12.8725C10.0764 11.8364 10.7861 10.9286 11.6792 10.2268C12.5652 9.90602 13.2953 8.94674 14.4226 9.5272Z" fill="#D0D9DC"/>
<path d="M17.499 3.14217C17.4777 3.66458 17.4593 4.18394 17.441 4.70329C12.8218 4.70329 8.2026 4.73995 3.58645 4.68802C2.52941 4.66969 2.22391 5.01796 2.22391 6.06889C2.26974 10.184 2.22391 14.2991 2.22391 18.4173C2.12247 18.3029 2.04635 18.1684 2.00055 18.0226C1.95474 17.8768 1.94029 17.7229 1.95812 17.5711C1.95812 13.2024 1.95812 8.82758 2.01617 4.45889C2.04672 2.39675 2.5233 2.01487 4.60378 1.99043C8.10484 1.97821 11.6079 1.97821 15.1131 1.99043C16.0632 1.99959 17.0927 1.93849 17.499 3.14217Z" fill="#5BB2AA"/>
<path d="M9.3024 14.7513C9.3024 15.1576 9.28101 15.5609 9.26879 15.9733C9.04411 15.9317 8.81213 15.9576 8.60221 16.0479C8.3923 16.1382 8.21388 16.2887 8.08955 16.4804C7.26469 17.7208 6.05185 17.846 4.91843 17.18C3.87667 16.569 3.4673 15.5089 4.08441 14.2839C4.75652 12.9519 5.83189 12.7563 7.13944 13.1779C7.3405 13.2184 7.54538 13.2368 7.75044 13.2329C8.04252 13.4619 8.30249 13.729 8.52337 14.0272C8.73722 14.3052 9.10993 14.4458 9.3024 14.7513Z" fill="#34A195"/>
<path d="M8.97858 9.27363C8.08346 9.77771 7.75657 10.9906 6.50401 11.1066C5.18424 11.2136 4.33189 10.6698 3.92863 9.49359C3.58341 8.49155 3.96834 7.58115 4.79625 6.96403C5.79219 6.21861 6.7973 6.40496 7.67714 7.22982C8.02425 7.59052 8.35259 7.96883 8.66086 8.36323C8.81711 8.64672 8.92452 8.95449 8.97858 9.27363Z" fill="#34A195"/>
<path d="M14.4226 9.52718C13.387 9.52718 12.6477 10.2787 11.722 10.5537C11.628 10.5276 11.5441 10.4736 11.4814 10.3989C11.4187 10.3242 11.3801 10.2322 11.3707 10.1351L11.0835 9.28583C10.8666 9.01393 10.5764 8.76648 10.778 8.36932C11.0311 8.21113 11.2579 8.01424 11.4501 7.78581C12.0611 6.75627 12.9012 6.23691 14.0866 6.66767C15.2719 7.09843 15.8341 7.963 15.6783 9.24612C15.2536 9.31027 14.774 9.15141 14.4226 9.52718Z" fill="#37A296"/>
<path d="M11.3707 10.1351L11.722 10.5537C11.0259 11.278 10.4234 12.0867 9.92869 12.961C9.27797 13.181 9.09161 14.0517 8.32785 14.1128C8.14484 14.0517 7.98774 13.9308 7.88187 13.7695C7.77601 13.6082 7.72756 13.416 7.74434 13.2238L11.3707 10.1351Z" fill="#59B2A9"/>
<path d="M10.778 8.35712C10.8819 8.66262 10.9827 8.96812 11.0835 9.27362H8.97858C8.23926 9.18808 8.39812 8.78788 8.67308 8.35712H10.778Z" fill="#56B1A7"/>
<path d="M15.3605 17.5314C14.4715 17.2259 13.891 16.6149 13.943 15.6525C13.9858 14.623 14.7495 14.1403 15.666 13.8348C16.8086 14.0822 17.6579 14.6321 17.499 15.9519C17.3432 17.1709 16.4756 17.5619 15.3605 17.5314Z" fill="#138A7D"/>
<path d="M8.33395 14.1128C8.84109 13.6912 9.00606 12.793 9.93479 12.9611L9.32378 14.7482C8.84414 14.7513 8.3645 14.7666 8.33395 14.1128Z" fill="#1D8F82"/>
</svg>
