<svg width="24" height="24" viewBox="0 0 24 24" fill="none" xmlns="http://www.w3.org/2000/svg">
<path d="M2.15805 4.03415C2.50638 3.15415 3.19999 2.8822 4.08611 2.8822C9.40277 2.8822 14.7174 2.8822 20.03 2.8822C21.353 2.8822 22.1169 3.44137 22.1017 4.87748C22.0833 8.47387 22.0833 12.0641 22.0619 15.6666C21.5272 16.1555 20.858 16.1555 20.2011 16.1586C14.8355 16.1586 9.47305 16.183 4.11055 16.1586C2.20083 16.1586 2.07555 15.9966 2.09388 14.0594C2.12444 10.7044 2.00222 7.36776 2.15805 4.03415Z" fill="#273238"/>
<path d="M2.15805 4.03418C2.15805 7.52668 2.17639 11.0222 2.15805 14.5147C2.15805 15.2817 2.26194 15.737 3.21528 15.737C9.49444 15.6667 15.7767 15.6667 22.0619 15.6667C22.1903 17.2158 21.2094 17.6986 19.9231 17.7597C18.5175 17.8239 17.1089 17.7597 15.7003 17.7842C15.2328 17.7842 14.6736 17.5764 14.3375 18.1417C12.8613 17.85 11.3441 17.8313 9.86111 18.0867C8.38528 17.3595 6.80555 17.8392 5.29917 17.7811C2.54917 17.6895 1.90139 17.1089 1.89833 14.3986C1.89833 11.4195 1.89833 8.44029 1.89833 5.46112C1.91667 4.97224 1.72417 4.44668 2.15805 4.03418Z" fill="#8A8F93"/>
<path d="M9.8611 18.0866C11.0192 17.2494 13.2222 17.2708 14.3497 18.1294C14.8355 19.0461 16.183 19.9139 15.7217 20.8275C15.2603 21.7411 13.7967 21.1147 12.7761 21.1819C11.6119 21.2583 10.4386 21.1819 9.27138 21.2064C8.19277 21.24 8.1836 20.6961 8.58999 19.9841C8.96277 19.3333 9.42721 18.7222 9.8611 18.0866Z" fill="#475257"/>
<path d="M12.1344 4.70943C14.4169 4.70943 16.7178 4.7461 18.985 4.6911C19.9292 4.66665 20.3417 4.87749 20.3081 5.93165C20.2317 8.2111 20.2531 10.4936 20.3081 12.7761C20.3264 13.6225 20.0636 13.9219 19.1897 13.9158C14.42 13.8822 9.65028 13.8883 4.88055 13.9158C4.14417 13.9158 3.77139 13.7539 3.78667 12.9075C3.82944 10.5272 3.83861 8.14082 3.78667 5.76054C3.75 4.8011 4.20528 4.68804 4.97222 4.69721C7.36472 4.72776 9.74805 4.70943 12.1344 4.70943Z" fill="#5F6BB2"/>
<path d="M15.4467 11.12C14.1236 11.4255 12.7944 10.9214 11.7189 9.76943C10.7136 8.69082 9.78777 8.78554 8.82527 9.8061C7.73139 10.9611 6.38083 11.3003 4.81639 11.1292C4.23277 11.065 4.01583 10.8236 4.025 10.2583C4.025 9.7786 4.05555 9.21332 4.69111 9.30804C6.58861 9.59526 7.67944 8.22637 8.92 7.26693C9.88555 6.51832 10.5914 6.35026 11.5172 7.26693C13.0969 8.83443 14.9761 9.66249 17.2739 9.27443C17.9308 9.16443 18.4656 9.29276 18.4564 10.1911C18.4472 11.0894 17.8758 11.1078 17.2342 11.1078C16.7239 11.1139 16.2167 11.12 15.4467 11.12Z" fill="#9EA6D4"/>
</svg>
