<svg width="24" height="24" viewBox="0 0 24 24" fill="none" xmlns="http://www.w3.org/2000/svg">
<path d="M13.8333 8.92305C13.9922 8.03083 13.6653 7.63972 12.718 7.72222C11.9817 7.78638 11.2361 7.72222 10.4936 7.72222C10.4459 7.65892 10.4246 7.57956 10.4343 7.50088C10.444 7.4222 10.4839 7.35037 10.5455 7.30055C10.8322 7.08707 11.1899 6.9919 11.5447 7.03472C12.7303 7.20277 13.43 6.64666 13.8364 5.60166C13.8914 3.20306 14.2275 2.85167 16.5864 2.85167C17.5519 2.85167 18.5175 2.81806 19.48 2.85167C20.5494 2.90056 21.1605 3.48722 21.185 4.58111C21.2094 5.675 21.2033 6.81472 21.185 7.94222C21.185 9.77555 20.6258 10.353 18.7405 10.4203C17.5183 10.463 16.2961 10.4447 15.0739 10.4539C14.7278 10.3702 14.4188 10.175 14.1946 9.89834C13.9704 9.6217 13.8435 9.27898 13.8333 8.92305Z" fill="#B29BCA"/>
<path d="M10.4997 7.46859C10.4835 7.55221 10.4743 7.63704 10.4722 7.7222C10.0597 9.98942 9.57694 10.3714 7.25167 10.408C2.83334 10.4936 2.76918 9.9283 2.86696 5.99581C2.93723 3.19387 3.1939 2.88221 6.02945 2.87915H7.55722C9.76333 2.87915 10.2522 3.34665 10.4692 5.62915C10.7289 6.22803 10.515 6.85137 10.4997 7.46859Z" fill="#5BA2D8"/>
<path d="M13.8333 16.5833C13.8822 14.1389 14.2092 13.8517 16.6933 13.8333C21.3347 13.7692 21.2552 13.7325 21.1819 18.2853C21.1819 18.7405 21.1819 19.2019 21.1819 19.6511C21.1819 20.635 20.6777 21.1514 19.6908 21.1575C18.3219 21.1575 16.9408 21.1575 15.5903 21.1575C14.753 21.1575 14.0136 20.6655 14.0014 20.0269C13.9739 18.4503 12.9655 18.7314 12.0397 18.7161L10.5119 18.6886C10.4864 18.659 10.4672 18.6245 10.4558 18.5871C10.4443 18.5497 10.4407 18.5104 10.4453 18.4716C10.4499 18.4327 10.4626 18.3953 10.4825 18.3617C10.5024 18.328 10.529 18.2989 10.5608 18.2761C10.8486 18.068 11.2044 17.9764 11.5569 18.0194C12.7242 18.1905 13.4239 17.6467 13.8333 16.5833Z" fill="#96C9EC"/>
<path d="M10.5303 18.4411C10.4959 18.521 10.4853 18.609 10.4997 18.6947C9.96805 21.1392 9.88861 21.1942 7.40139 21.1972C6.59473 21.1972 5.78501 21.1728 4.97834 21.1972C3.59418 21.24 2.90973 20.5861 2.89445 19.2081C2.89445 18.0958 2.89445 16.9836 2.89445 15.8745C2.9189 14.5942 3.58501 13.9036 4.86528 13.8761C6.22806 13.8456 7.59389 13.8761 8.95667 13.8761C9.30067 13.8666 9.63677 13.9802 9.90451 14.1964C10.1722 14.4126 10.3541 14.7173 10.4172 15.0556V16.5833C10.5602 17.1917 10.5984 17.8199 10.5303 18.4411Z" fill="#795EA8"/>
<path d="M10.4172 15.0555L8.95972 13.8608C10.5792 12.2128 12.2037 10.5669 13.8333 8.92303L15.083 10.4722L10.4172 15.0555Z" fill="#3569B2"/>
<path d="M10.5303 18.4411C9.97112 17.8575 10.0597 17.2342 10.4203 16.6078H13.8333C14.1786 18.1356 13.5767 18.7283 12.0397 18.4839C11.5383 18.4323 11.0338 18.418 10.5303 18.4411Z" fill="#3E6CB3"/>
<path d="M10.4997 7.46861C9.93444 6.8575 10.1942 6.24639 10.46 5.61389H13.8333C14.1389 7.01639 13.6867 7.69778 12.1558 7.46861C11.6046 7.42706 11.051 7.42706 10.4997 7.46861Z" fill="#3F6DB3"/>
<path d="M17.5 8.31498C15.8072 8.74887 16.0089 7.60303 15.8989 6.48165C15.74 4.91109 16.6261 5.02415 17.7322 4.91109C19.3975 4.73693 19.2875 5.66582 19.373 6.81776C19.483 8.35776 18.7222 8.5197 17.5 8.31498Z" fill="#FEFEFE"/>
<path d="M8.33334 6.72608C8.76112 8.32413 7.80168 8.31802 6.59779 8.40969C5.07001 8.5258 4.96613 7.82608 4.88974 6.57636C4.79501 5.04858 5.50085 4.93247 6.72307 4.87441C8.21112 4.80719 8.6389 5.37247 8.33334 6.72608Z" fill="#FEFEFE"/>
<path d="M17.61 15.9905C19.0644 15.63 19.3639 16.3144 19.373 17.6711C19.3822 19.0277 19.0278 19.3761 17.6772 19.3761C16.3266 19.3761 15.8714 19.0002 15.9019 17.6008C15.9264 16.3113 16.1983 15.6666 17.61 15.9905Z" fill="#FEFEFE"/>
<path d="M8.37612 17.885C8.84667 19.4342 7.73751 19.2997 6.51223 19.4128C4.95084 19.5411 4.91723 18.8017 4.82862 17.5794C4.70946 15.9569 5.43973 15.7644 6.76279 15.8469C8.37306 15.9325 8.37612 15.8622 8.37612 17.885Z" fill="#FEFEFE"/>
</svg>
