<svg width="24" height="24" viewBox="0 0 24 24" fill="none" xmlns="http://www.w3.org/2000/svg">
<path d="M21.1911 5.86133C22.1077 6.09356 22.0894 6.82383 22.0863 7.55105C22.0863 10.3897 22.0863 13.2283 22.0863 16.0669C22.0863 18.1049 21.5669 18.6213 19.4677 18.6335C16.0211 18.6549 12.5714 18.6335 9.12167 18.6335C8.57473 18.6335 7.99723 18.5205 7.50834 18.9024C7.38278 18.8164 7.27659 18.7052 7.19661 18.5757C7.11662 18.4462 7.0646 18.3015 7.0439 18.1507C6.83918 14.5666 6.94612 10.9824 6.98279 7.39522C6.98279 6.558 7.18751 5.733 8.315 5.74828C12.6111 5.8155 16.8889 5.623 21.1911 5.86133Z" fill="#7B86C2"/>
<path d="M7.41668 18.4777L7.49918 18.9116C6.95223 20.0544 5.25029 20.6991 4.10752 20.2133C3.49641 19.9505 3.80197 19.4219 3.80197 19.0308C3.77141 15.5902 3.77447 12.1466 3.80197 8.70301C3.80197 8.05524 3.76835 7.58774 2.9953 7.32496C1.98697 6.9858 1.95031 6.06608 2.09697 5.16469C2.24364 4.26331 2.91586 3.86303 3.73169 3.96386C5.02724 4.1197 6.66501 3.20914 7.47779 5.04858C7.54909 5.16345 7.57423 5.30107 7.54815 5.43373C7.52207 5.56639 7.44671 5.68425 7.33723 5.76358C6.61307 6.04469 5.99279 6.32274 6.00807 7.32802C6.0539 10.5058 6.00807 13.6836 6.02946 16.8613C6.01242 17.1647 6.11188 17.463 6.30751 17.6955C6.63446 18.0255 7.17834 18.0438 7.41668 18.4777Z" fill="#4A5D66"/>
<path d="M7.41668 5.6322L7.49001 5.04553C7.89334 5.65664 8.50445 5.58636 9.11556 5.58331C12.6131 5.58331 16.1117 5.58331 19.6114 5.58331C20.1461 5.58331 20.7389 5.39081 21.2033 5.85525C17.2586 5.85525 13.3108 5.94692 9.36917 5.85525C7.7864 5.81859 7.38918 6.37164 7.42585 7.86274C7.51446 11.398 7.44418 14.9394 7.42585 18.4777L5.89807 18.3677C5.59252 14.3955 5.81557 10.4233 5.78196 6.45108C5.76668 5.24109 6.92779 6.04164 7.41668 5.6322Z" fill="#A1A9D2"/>
<path d="M16.2778 14.7713C16.8889 14.7316 17.3503 14.753 17.5886 13.9035C18.0103 12.3911 19.4525 12.7699 20.4089 13.0113C21.79 13.3597 21.0994 14.7072 21.13 15.6116C21.1666 16.7635 20.1797 16.5833 19.4464 16.5833C17.7536 16.5833 16.1953 15.7522 14.4261 15.9019C13.1214 16.0119 12.0122 16.843 10.6281 16.6291C9.7114 16.4885 9.20418 16.2747 9.25918 15.2755C9.31418 14.2763 9.01779 13.1152 10.5058 12.9472C11.2182 12.9053 11.9324 12.9053 12.6447 12.9472C12.9397 13.1516 13.1436 13.4628 13.2131 13.8149C12.6906 14.9547 13.6103 14.6888 14.1603 14.7835C14.1267 15.7644 14.8814 15.2449 15.2205 15.2449C15.5597 15.2449 16.3022 15.7522 16.2778 14.7713Z" fill="#A2ABD7"/>
<path d="M16.293 10.4875C16.5986 9.90079 16.5528 9.52496 15.7553 9.54024C14.7928 9.56163 13.8303 9.54024 12.8678 9.54024C12.5622 9.54024 12.1558 9.52496 12.113 9.88551C11.9144 11.4561 10.7319 11.0375 9.78472 11.0802C9.09723 11.1108 8.36695 11.0802 8.37306 10.1422C8.37917 9.20413 7.91779 7.90858 9.25 7.53885C10.3164 7.2333 11.5875 7.05913 12.333 8.36996C12.8708 9.12163 13.6775 8.78857 14.3742 8.84663C15.0708 8.90468 15.853 8.81913 16.5955 8.90468C17.6436 9.26218 18.0164 9.78468 17.0141 10.6372C16.8921 10.6832 16.7595 10.6935 16.6319 10.667C16.5042 10.6405 16.3867 10.5782 16.293 10.4875Z" fill="#A2ABD7"/>
<path d="M16.8889 10.4722C17.4602 9.89469 17.6589 9.40886 16.5833 9.24997C16.3511 9.00247 16.0944 8.76108 16.2778 8.36998C16.5253 8.12502 16.7989 7.90781 17.0936 7.7222C18.0469 7.26692 19.2325 7.06831 19.9291 7.78025C20.6258 8.4922 20.3477 9.70219 20.0697 10.6677C19.923 11.1689 19.3333 11.0833 18.875 11.0833C18.3158 11.0833 17.7566 11.0833 17.2005 11.0833C16.9164 10.9794 16.733 10.8144 16.8889 10.4722Z" fill="#A2ABD7"/>
<path d="M16.8889 10.4722L17.1944 11.0833L13.1978 13.8027C13.0187 13.744 12.8649 13.6261 12.7616 13.4684C12.6583 13.3107 12.6117 13.1226 12.6294 12.9349L16.2961 10.4905L16.8889 10.4722Z" fill="#C2C7E5"/>
<path d="M16.2778 8.37C16.3816 8.67555 16.4825 8.95666 16.5833 9.24999C15.3428 9.24999 14.1053 9.23471 12.8678 9.24999C12.1528 9.24999 11.9511 9.00555 12.333 8.37H16.2778Z" fill="#C2C6E4"/>
<path d="M16.2778 14.7714L17.335 15.245V15.465H13.0725C13.21 14.808 13.9342 15.2052 14.145 14.7714H16.2778Z" fill="#C0C5E4"/>
<path d="M7.41667 5.63218C6.00501 5.78802 5.84612 6.66496 5.8889 7.90856C5.95307 11.3888 5.8889 14.8813 5.8889 18.3677C5.40612 17.9705 5.63834 17.4296 5.63529 16.956C5.61084 13.7813 5.69334 10.6036 5.58946 7.4319C5.54668 6.0019 5.90723 5.33579 7.41667 5.63218Z" fill="#7B86C2"/>
</svg>
