<svg width="24" height="24" viewBox="0 0 24 24" fill="none" xmlns="http://www.w3.org/2000/svg">
<path d="M21.1666 10.1666C21.1666 12.8005 21.1483 15.4344 21.2094 18.0683C21.2339 19.0766 20.8672 19.3485 19.8955 19.3394C14.7296 19.2986 9.56168 19.2986 4.3917 19.3394C3.28254 19.3394 2.84865 19.0063 2.88227 17.8666C2.95254 15.2847 2.9281 12.6997 2.94338 10.1177C3.42615 9.66552 4.05559 9.68996 4.6667 9.68691C9.54131 9.66857 14.4159 9.66857 19.2905 9.68691C19.9444 9.68691 20.6105 9.68385 21.1666 10.1666Z" fill="#99A8AF"/>
<path d="M2.91587 6.77496C2.87309 4.76747 2.87309 4.7583 4.84086 4.75525H19.2722C21.2277 4.75525 21.2277 4.75525 21.1666 6.83302C20.7407 6.99644 20.2817 7.05512 19.8283 7.00413C14.5728 6.9858 9.31417 6.94607 4.05864 7.02552C3.65836 7.02857 3.24281 7.11107 2.91587 6.77496Z" fill="#57707C"/>
<path d="M21.1666 10.1666L2.9281 10.1208V8.67245C3.23365 7.90856 3.93337 7.88412 4.58421 7.87801C9.58307 7.82912 14.5819 7.84134 19.5808 7.87801C20.143 7.87801 20.6961 7.93912 21.1269 8.37301C21.131 8.96986 21.1442 9.56772 21.1666 10.1666Z" fill="#566F7B"/>
<path d="M21.1177 8.36387H4.68196C4.07085 8.36387 3.45975 8.25693 2.91891 8.66943C2.91891 8.03591 2.91891 7.40341 2.91891 6.77193C3.70169 6.58242 4.50641 6.49917 5.3114 6.52444C9.9599 6.53666 14.6074 6.53666 19.2539 6.52444C19.9108 6.52444 20.5677 6.49999 21.1697 6.82999C21.1666 7.34332 21.133 7.8536 21.1177 8.36387Z" fill="#98A7AF"/>
<path d="M16.0761 17.4999C12.9564 17.4999 12.9564 17.4999 12.9564 14.3955C12.9564 12.0152 12.9564 12.0152 15.4986 12.0152C19.3425 12.0152 19.2569 12.0152 19.3791 15.6116C19.4311 17.1699 18.985 17.7505 17.445 17.5121C16.9898 17.4713 16.532 17.4672 16.0761 17.4999Z" fill="#556F7B"/>
<path d="M7.76501 13.8332C7.05918 13.8332 6.3564 13.8332 5.65057 13.8332C5.03946 13.8332 4.7003 13.6469 4.73391 12.9716C4.7553 12.3605 4.99058 12.0121 5.62613 12.0121C7.18446 12.0121 8.74584 12.0121 10.3042 12.0121C11.0039 12.0121 11.1292 12.4002 11.1231 12.9838C11.1169 13.5674 10.9306 13.8546 10.3317 13.8332C9.47611 13.8332 8.62056 13.8332 7.76501 13.8332Z" fill="#57707C"/>
<path d="M7.84446 17.4999C7.13557 17.4999 6.42363 17.4999 5.70558 17.4999C5.13725 17.4999 4.70336 17.4144 4.71558 16.6902C4.71558 16.0791 4.92642 15.6941 5.5803 15.691C7.15391 15.691 8.72751 15.691 10.3011 15.691C11.0192 15.691 11.1047 16.1219 11.1047 16.6902C11.1047 17.2585 10.8419 17.5152 10.2767 17.506C9.47001 17.4999 8.65723 17.4999 7.84446 17.4999Z" fill="#57707C"/>
</svg>
