<svg width="24" height="24" viewBox="0 0 24 24" fill="none" xmlns="http://www.w3.org/2000/svg">
<path d="M6.73834 17.558V6.61304L13.9189 11.6944C14.6583 12.2169 14.0044 12.4033 13.6714 12.6416C11.4469 14.2275 9.21639 15.8041 6.73834 17.558Z" fill="#556F7B"/>
<path d="M17.5 11.9999C17.5 13.5277 17.4664 15.0555 17.5 16.5833C17.5244 17.3105 17.2892 17.5335 16.5558 17.5366C15.7736 17.5366 15.6392 17.2127 15.6575 16.5374C15.6881 13.5949 15.7033 10.6494 15.6575 7.70689C15.6575 6.86661 15.9631 6.71383 16.7086 6.668C17.6528 6.59772 17.5 7.19661 17.5 7.73744C17.5 9.15827 17.5 10.5791 17.5 11.9999Z" fill="#566F7B"/>
</svg>
