<svg width="24" height="24" viewBox="0 0 24 24" fill="none" xmlns="http://www.w3.org/2000/svg">
<path d="M12 21.1299C7.83834 21.8052 3.21835 17.4816 2.87002 13.0022C2.41474 7.11108 6.9064 3.18775 11.2056 2.91581C12.0886 2.86081 13.0206 2.59192 13.8792 3.09914C13.3475 3.63692 12.2383 3.60331 12.2781 4.70942C11.9511 5.62608 11.1017 6.16691 10.4967 6.9308C11.9481 7.30663 13.4544 6.60386 14.7744 7.41663C14.6981 8.14691 14.09 8.08274 13.6317 8.10108C13.3033 8.09041 12.9808 8.19032 12.716 8.38479C12.4511 8.57927 12.2592 8.85704 12.1711 9.17358C11.9297 9.53108 11.5203 9.63191 11.1689 9.81524C10.1819 10.3316 9.62278 11.1566 9.70834 12.2597C9.79389 13.3627 10.5792 14.0166 11.6333 14.3191C11.9694 14.4138 12.3331 14.4383 12.6081 14.6919C12.6814 15.3702 12.3361 15.9416 12.1253 16.5466C11.6975 17.0783 10.9917 16.785 10.4172 17.1211C10.7717 18.1569 11.8869 18.5297 12.4033 19.4036C12.4736 20.0238 12.4278 20.6227 12 21.1299Z" fill="#8089C4"/>
<path d="M12 4.70328C11.6334 2.99829 12.8525 3.15412 13.8884 3.09912C18.872 4.07384 21.9581 8.52272 21.1086 13.8669C20.3295 18.7008 15.3825 21.7777 12 21.1299C11.9786 20.5188 11.945 19.8771 12.3056 19.3119C12.2323 18.1599 13.4178 17.8574 13.8334 17.0233C13.2467 16.7635 12.4859 17.1669 12 16.5405C12 15.8835 11.8381 15.1747 12.6111 14.7927C12.8984 14.1816 13.6286 14.0013 13.9861 13.436C14.1644 13.1511 14.2833 12.8331 14.3358 12.5012C14.3883 12.1692 14.3733 11.8301 14.2917 11.504C14.2101 11.178 14.0636 10.8717 13.861 10.6036C13.6583 10.3355 13.4037 10.111 13.1123 9.94355C12.7273 9.7205 12.2475 9.638 11.997 9.21939C11.7923 8.02772 12.3056 7.56939 13.4881 7.72217C13.8914 7.77106 14.4048 7.92995 14.6859 7.37384C13.5551 6.75686 12.6234 5.83053 12 4.70328Z" fill="#5F6BB2"/>
<path d="M12 9.21942C13.4789 9.40581 14.5911 10.0322 14.7806 11.6639C14.9639 13.2405 14.3497 14.1083 12.6142 14.7958C10.5883 14.7072 9.37834 13.7936 9.27446 12.2689C9.17057 10.7441 10.1331 9.65331 12 9.21942Z" fill="#E7E9F5"/>
<path d="M12 16.5405H14.9028L12.3056 19.3119C11.065 18.8627 10.4295 17.7841 9.42419 16.6841L12 16.5405Z" fill="#E3E5F3"/>
<path d="M12 4.70331C12.9842 5.49909 13.8869 6.39059 14.695 7.36469H9.50055L12 4.70331Z" fill="#E7E9F5"/>
<path d="M7.39529 9.76025V14.5086C6.36557 14.0655 5.8339 13.1213 5.06696 12.4614C4.67585 12.1283 4.92335 11.8502 5.18307 11.5783C5.79418 10.9152 6.40529 10.24 7.0164 9.5708L7.39529 9.76025Z" fill="#E6E8F5"/>
<path d="M16.6597 14.4811V9.15527C17.5458 10.0719 18.1875 10.7778 18.8597 11.4194C19.3456 11.8747 19.3364 12.1955 18.8597 12.663C18.2119 13.3017 17.6375 14.0228 17.0417 14.7072L16.6597 14.4811Z" fill="#E2E5F3"/>
</svg>
