<svg width="24" height="24" viewBox="0 0 24 24" fill="none" xmlns="http://www.w3.org/2000/svg">
<path d="M21.1667 12.9777C21.1973 15.5841 20.3692 17.7994 18.2517 19.4341C18.102 19.5502 17.8942 19.758 17.9095 19.9016C18.1111 21.848 16.7178 21.4722 15.6178 21.4722C13.045 21.4722 10.4723 21.4722 7.89642 21.4722C7.42586 21.4722 6.86364 21.68 6.52753 21.1147C7.09281 20.6625 7.77114 20.7297 8.42503 20.7266C10.6067 20.7266 12.7884 20.7266 14.97 20.7266C15.5536 20.7266 16.1923 20.8611 16.7575 20.305C16.3389 19.6388 15.7003 19.8222 15.1534 19.8069C12.2659 19.7152 9.37531 19.9475 6.49086 19.6877C3.87836 18.16 3.00753 15.7308 2.89142 12.8922C3.48114 12.3636 4.21447 12.443 4.91114 12.443C9.61466 12.4267 14.3172 12.4267 19.0186 12.443C19.7703 12.443 20.5556 12.3727 21.1667 12.9777Z" fill="#D0D8DC"/>
<path d="M4.72168 11.0619C4.85918 9.13998 5.9439 7.98497 7.74057 7.53275C7.97776 7.48047 8.20058 7.37675 8.39329 7.22892C8.586 7.08108 8.7439 6.89274 8.85585 6.6772C10.4875 4.0922 13.6317 4.09525 15.3245 6.6497C15.5658 7.01636 15.7033 7.40442 16.2747 7.5022C18.2364 7.83525 19.2081 9.14303 19.4983 11.0405C18.9667 11.6303 18.322 11.4989 17.665 11.3247C17.4907 11.2329 17.3417 11.0996 17.2311 10.9366C16.0914 9.40886 15.6239 9.36609 14.3528 10.7044C14.1499 10.9882 13.8788 11.2162 13.5645 11.3675C12.5338 11.5936 11.4663 11.5936 10.4356 11.3675C8.45251 9.46386 8.45251 9.46386 6.31668 11.3308C5.74835 11.4897 5.18612 11.5691 4.72168 11.0619Z" fill="#FFD651"/>
<path d="M4.7217 11.0619L6.50003 11.0833C7.0595 10.7677 7.69099 10.6018 8.33336 10.6018C8.97574 10.6018 9.60723 10.7677 10.1667 11.0833H13.8334C14.3924 10.7665 15.0241 10.6 15.6667 10.6C16.3093 10.6 16.9409 10.7665 17.5 11.0833L19.4984 11.0589C20.3875 11.3889 21.3561 11.6944 21.1667 12.9778C15.077 12.9625 8.98725 13.1336 2.89753 12.8922C2.88836 11.6669 3.80197 11.3614 4.7217 11.0619Z" fill="#E63C35"/>
<path d="M6.5 19.6878C6.78722 19.2783 7.22417 19.3822 7.61222 19.3822C10.5578 19.3822 13.5003 19.3822 16.4428 19.3822C17.1272 19.3822 17.5856 19.4158 17.5947 20.3233C17.5947 21.2919 17.0508 21.2186 16.4244 21.2125C13.1265 21.1738 9.83056 21.1381 6.53667 21.1055L6.5 19.6878Z" fill="#E53C35"/>
<path d="M12.1773 10.2858C11.777 9.74496 11.4409 9.24996 11.0834 8.79163C10.7778 8.40968 10.2645 8.07663 10.6342 7.50829C10.9612 7.01024 11.3584 6.49996 12.055 6.54274C12.3828 6.56059 12.7015 6.65641 12.9848 6.82222C13.268 6.98803 13.5076 7.21904 13.6837 7.49607C13.8975 7.80163 13.6653 8.05524 13.4606 8.2844C12.9115 8.8655 12.4763 9.54435 12.1773 10.2858Z" fill="#D0AA45"/>
<path d="M10.1819 11.0619L6.5 11.0833C6.80556 10.1147 7.38 9.27138 8.46472 9.3386C9.40583 9.38443 10.2033 9.90388 10.1819 11.0619Z" fill="#D0AA45"/>
<path d="M17.5 11.0649H13.8334C14.1389 10.0994 14.7103 9.25606 15.7981 9.32328C16.73 9.38439 17.5245 9.90384 17.5 11.0649Z" fill="#D0AA45"/>
</svg>
