<svg width="24" height="24" viewBox="0 0 24 24" fill="none" xmlns="http://www.w3.org/2000/svg">
<path d="M15.1014 14.2214C16.4071 14.3855 17.6722 14.7851 18.8353 15.4008C21.0322 16.5528 21.7686 18.1997 21.1819 20.58C21.0475 21.1177 20.7328 21.1911 20.3019 21.1911C14.7673 21.185 9.23882 21.1768 3.71643 21.1666C3.35587 21.1666 3.05032 21.133 2.89754 20.6808C2.36282 19.1164 3.02588 16.9225 4.42532 15.9325C5.76597 15.0194 7.30646 14.442 8.91697 14.2489C9.71753 15.4253 10.6556 16.5069 11.3797 17.7322C11.945 18.6886 12.3789 18.4869 12.8892 17.6741C13.6133 16.5253 14.3986 15.3978 15.1014 14.2214Z" fill="#59C1EF"/>
<path d="M7.50533 7.44111C7.48394 6.32278 7.44422 5.2075 7.44116 4.08001C7.44116 2.72334 8.11949 1.9839 9.48532 1.96862C11.2148 1.94723 12.9411 1.94418 14.6798 1.96862C15.5445 1.96862 16.2686 2.30168 16.6078 3.19084C16.8317 4.62401 16.8235 6.08389 16.5834 7.51444C16.1586 7.85972 15.6484 7.88416 15.1442 7.89333C13.1214 7.92185 11.0987 7.92185 9.07588 7.89333C8.5106 7.88416 7.93922 7.88416 7.50533 7.44111Z" fill="#59C2EF"/>
<path d="M7.50531 7.4411H16.5406C16.8217 7.71916 16.7361 8.03388 16.62 8.35777C16.0089 10.7564 13.8028 12.4675 11.7006 12.1925C9.25003 11.8747 7.56642 9.96193 7.50531 7.4411Z" fill="#4083C5"/>
<path d="M15.1014 14.2214C15.2298 15.6391 14.0595 16.403 13.4331 17.4175C12.1467 19.4983 12.0337 19.4983 10.7503 17.3961C10.1209 16.3633 8.9506 15.6361 8.91699 14.258C10.9429 13.7281 13.0694 13.7155 15.1014 14.2214Z" fill="#4083C4"/>
<path d="M16.62 8.36083C16.5925 8.05527 16.5681 7.74972 16.5406 7.44416L16.5834 3.20306C17.0461 4.88958 17.0587 6.66791 16.62 8.36083Z" fill="#A7B1BF"/>
<path d="M18.5786 19.1316C17.662 19.1316 17.5458 20.3355 16.9714 20.0941C16.5161 19.9016 15.5322 19.3547 15.8622 18.7008C16.0211 18.3952 16.5467 17.3105 17.1792 17.665C17.7742 18.0126 18.2592 18.5209 18.5786 19.1316Z" fill="#B7E5FA"/>
</svg>
