<svg width="24" height="24" viewBox="0 0 24 24" fill="none" xmlns="http://www.w3.org/2000/svg">
<path d="M14.6491 14.2061C15.4018 14.2899 16.1295 14.5258 16.788 14.8997C19.0705 16.0211 20.0086 18.2028 19.3333 20.6228C19.1805 21.1667 18.8261 21.1667 18.4166 21.1667C14.1389 21.1667 9.89164 21.1667 5.62915 21.1667C4.85915 21.1667 4.74304 20.7786 4.71248 20.1217C4.49554 16.6169 5.76665 15.0372 9.55553 14.2092C10.353 14.7714 10.573 15.7003 10.9916 16.4978C11.4179 17.2369 11.7857 18.0082 12.0916 18.8047C12.8616 17.3167 13.2955 15.5169 14.6491 14.2061Z" fill="#59C1EF"/>
<path d="M7.46553 7.51139C7.46553 6.35028 7.43192 5.18612 7.44414 4.02501C7.44414 2.75696 8.10109 2.01751 9.38442 1.98696C11.1505 1.94724 12.9227 1.95335 14.6919 1.98696C15.5475 1.98696 16.2686 2.32918 16.6016 3.20918C16.8177 4.63928 16.8043 6.09468 16.5619 7.52056C16.0883 7.89333 15.523 7.89028 14.9669 7.89639C12.9951 7.9188 11.0232 7.9188 9.05136 7.89639C8.49831 7.89028 7.93303 7.89333 7.46553 7.51139Z" fill="#59C2EF"/>
<path d="M7.46552 7.51141L16.5833 7.46252C16.8124 7.73447 16.733 8.03697 16.6627 8.33641C15.8744 10.9336 14.0747 12.3056 11.6944 12.1039C9.34468 11.9206 7.75885 10.1911 7.46552 7.51141Z" fill="#EB447C"/>
<path d="M14.6491 14.2061L12.0825 19.4983L9.55554 14.2091C11.2203 13.7359 12.9838 13.7349 14.6491 14.2061Z" fill="#EA467C"/>
<path d="M16.6535 8.33333C16.626 8.02777 16.5985 7.74972 16.5741 7.45638L16.6016 3.20612C17.0373 4.88531 17.0551 6.64565 16.6535 8.33333Z" fill="#ACB0BC"/>
<path d="M16.183 20.25C15.7124 19.8039 14.9944 19.4433 14.8936 18.9514C14.7744 18.3769 15.6666 17.7291 16.018 17.6803C16.6077 17.5886 17.2708 18.3678 17.3563 18.9025C17.4174 19.2539 16.6199 19.7641 16.183 20.25Z" fill="#B7E5FA"/>
</svg>
