<svg width="24" height="24" viewBox="0 0 24 24" fill="none" xmlns="http://www.w3.org/2000/svg">
<path d="M12.3056 21.1116L12.165 21.1299H12.0275C11.5087 20.9193 11.0545 20.5757 10.7106 20.1338C8.02781 16.3847 6.88503 11.893 9.69919 7.44414C9.25003 7.28525 8.68169 7.56025 8.36086 7.11108C8.14756 6.82931 7.95066 6.53549 7.77114 6.23109C7.56031 5.83081 7.27003 5.37859 7.53892 4.94775C7.80781 4.51692 8.45558 4.59331 8.78558 4.7522C9.76336 5.20748 10.2186 4.90803 10.7809 4.02803C11.6975 2.57359 12.5347 2.65609 13.5064 4.0922C13.812 4.52609 13.8975 5.21053 14.692 4.94775C15.3581 4.7247 16.3725 4.33665 16.6261 4.92637C16.9317 5.64137 16.4183 6.56414 15.7095 7.15386C15.4039 7.51136 14.9272 7.24858 14.5667 7.48386C17.1303 11.9725 16.3083 16.1525 13.4392 20.1522C13.159 20.5722 12.7661 20.9047 12.3056 21.1116Z" fill="#C695C3"/>
<path d="M8.36084 7.11106C8.97195 7.19968 9.55251 6.99801 10.6067 6.53662C7.06529 12.1191 8.27529 16.7849 12 21.1238C10.0628 20.2499 7.87196 19.7885 6.28918 18.2791C3.66446 15.7766 4.21446 10.0872 7.16612 8.02773C7.57862 7.73745 7.96362 7.41662 8.36084 7.11106Z" fill="#DEBEDB"/>
<path d="M12.3055 21.1116C14.1389 18.5633 15.8469 15.9997 15.7033 12.6233C15.6397 10.5793 14.9412 8.60575 13.705 6.97667C14.4566 6.57334 15.0647 7.28223 15.7216 7.1539C16.4641 7.74973 17.3044 8.20195 17.9614 8.92917C18.8444 9.90695 19.4494 10.9458 19.3455 12.3208C19.296 12.9309 19.296 13.5441 19.3455 14.1542C19.5655 16.8033 18.2669 18.5511 15.9355 19.4555C14.6644 19.9444 13.6775 20.9558 12.3055 21.1116Z" fill="#DEBEDB"/>
</svg>
