<svg width="24" height="24" viewBox="0 0 24 24" fill="none" xmlns="http://www.w3.org/2000/svg">
<path d="M17.8209 10.1666C21.2034 10.3194 21.2034 10.3194 21.2034 13.7355C21.2034 15.8744 21.1667 17.9888 21.2217 20.1124C21.2431 20.9771 20.9681 21.2399 20.1064 21.2277C17.2739 21.1788 14.4353 21.1513 11.6059 21.2277C10.4631 21.2613 10.0445 20.9221 10.1881 19.7916C10.2283 19.135 10.2211 18.4763 10.1667 17.8207C10.0447 17.6636 9.94207 17.4923 9.86116 17.3105C9.53727 15.2999 9.71449 13.2771 9.74199 11.2605C9.74199 10.2888 10.2889 9.75104 11.2698 9.73271C13.2864 9.70521 15.3092 9.52798 17.3198 9.84882C17.4992 9.93381 17.6675 10.0405 17.8209 10.1666Z" fill="#67BC6B"/>
<path d="M2.98919 13.8119C2.95558 10.4722 2.93114 7.11107 2.88225 3.77441C2.87308 3.13885 3.13891 2.87302 3.77447 2.88219C7.13557 2.93413 10.4661 2.95858 13.812 2.98913C14.0696 4.1754 14.0768 5.40238 13.8333 6.59162C12.3361 7.31884 10.7411 6.89718 9.19196 6.96135C6.98585 7.03773 7.03168 6.9919 6.9553 9.1644C6.9003 10.7136 7.29752 12.3086 6.60391 13.8149C5.41384 14.0834 4.1788 14.0824 2.98919 13.8119Z" fill="#FCB74F"/>
<path d="M13.8028 6.52135V2.98914C14.3864 3.69191 14.0809 4.51691 14.0534 5.27469C14.0167 6.29524 14.3956 6.60385 15.355 6.52441C16.057 6.50054 16.7598 6.51482 17.4603 6.56718C17.4821 6.60698 17.4953 6.65097 17.4989 6.69623C17.5025 6.74149 17.4964 6.787 17.4811 6.82974C17.4658 6.87249 17.4416 6.9115 17.4101 6.94419C17.3786 6.97689 17.3405 7.00252 17.2983 7.01941C16.0914 7.19357 14.8081 7.82607 13.8028 6.52135Z" fill="#CCC173"/>
<path d="M2.9892 13.8119H6.52141C7.82613 14.8202 7.19363 16.1036 7.01947 17.3197C7.00225 17.3619 6.9763 17.4 6.94332 17.4316C6.91033 17.4631 6.87107 17.4873 6.82808 17.5026C6.7851 17.5179 6.73938 17.5239 6.6939 17.5203C6.64842 17.5167 6.60422 17.5035 6.56419 17.4816C6.51225 16.4336 6.82086 15.1288 6.30752 14.4261C5.73614 13.6255 4.33975 14.2641 3.3192 14.093C3.20003 14.0502 3.0992 13.9005 2.9892 13.8119Z" fill="#CCC173"/>
<path d="M17.4481 6.83303C17.4643 6.74539 17.4715 6.65631 17.4695 6.5672C18.1753 7.70692 17.5978 8.97192 17.8209 10.1605H17.5C17.185 9.66477 17.0133 9.09144 17.0042 8.50411C16.995 7.91679 17.1486 7.33839 17.4481 6.83303Z" fill="#BCB5A4"/>
<path d="M6.56421 17.4724C6.65444 17.4736 6.74455 17.4654 6.8331 17.448C7.33915 17.1474 7.9187 16.993 8.50725 17.0022C9.0958 17.0114 9.67026 17.1837 10.1667 17.4999V17.8361C8.97198 17.5977 7.72226 18.1722 6.56421 17.4724Z" fill="#BBB5A4"/>
<path d="M10.1667 17.4999L6.83919 17.4633C6.66196 16.2563 7.14474 14.9913 6.53363 13.821C6.53363 11.7922 6.5703 9.76633 6.5153 7.7405C6.4878 6.82384 6.80558 6.49078 7.73752 6.51828C9.76335 6.57023 11.7922 6.53662 13.8181 6.53662C14.9883 7.14773 16.2625 6.66801 17.4633 6.84217L17.5 10.1666C15.4528 10.1666 13.4239 10.2277 11.3889 10.1666C10.4722 10.1666 10.1667 10.4722 10.1667 11.3888C10.2247 13.4238 10.1667 15.4558 10.1667 17.4999Z" fill="#FEED59"/>
</svg>
