<svg width="24" height="24" viewBox="0 0 24 24" fill="none" xmlns="http://www.w3.org/2000/svg">
<path d="M14.75 17.4419C14.9914 16.1953 15.7614 15.7094 17.0172 15.6789C21.9061 15.5566 21.1422 16.2105 21.1972 20.4791C21.1972 21.1391 20.8122 21.2002 20.3081 21.1972C14.8264 21.1972 9.34476 21.1972 3.8631 21.1972C3.15727 21.1972 2.80894 20.9833 2.88838 20.2408C2.91283 19.9902 2.88838 19.7336 2.88838 19.48C2.88838 15.8133 4.33366 14.753 7.94226 15.7675C8.55337 15.9325 9.08504 16.2166 9.23476 16.9133C9.44865 17.1578 9.4242 17.6558 9.88865 17.6283C11.5111 17.5336 13.1459 17.9094 14.75 17.4419Z" fill="#FCB74E"/>
<path d="M13.1123 7.61528C13.1123 9.92527 13.1123 12.2353 13.1123 14.5453C13.1123 15.2205 13.1978 15.8561 12.162 15.8805C11.0559 15.9019 11.1048 15.2542 11.1078 14.4994C11.1262 12.1894 11.1078 9.87944 11.1078 7.49305C10.3623 7.68861 10.0598 8.18361 9.70838 8.57472C9.14922 9.18583 8.81311 8.88027 8.34255 8.46166C7.75894 7.96361 7.83228 7.62139 8.34255 7.13555C9.41199 6.11704 10.4519 5.07611 11.4623 4.01278C11.9206 3.52695 12.2231 3.53306 12.6845 4.01278C13.6562 5.04861 14.6645 6.05083 15.6973 7.02555C16.2289 7.52666 16.4 7.87805 15.7798 8.49222C15.1595 9.10638 14.7684 8.96583 14.3192 8.38833C14.0687 8.08278 13.8181 7.74666 13.5675 7.42583L13.1123 7.61528Z" fill="#795FA8"/>
<path d="M14.75 17.4419C13.0511 18.1692 11.2942 17.723 9.55558 17.6864C9.2103 17.6864 9.25002 17.2158 9.23169 16.9194C9.53724 17.3961 9.95585 17.5305 10.5059 17.5C11.9236 17.4511 13.3383 17.4572 14.75 17.4419Z" fill="#C9A066"/>
</svg>
