<svg width="24" height="24" viewBox="0 0 24 24" fill="none" xmlns="http://www.w3.org/2000/svg">
<path d="M1.02789 8.63435C1.66613 7.71822 2.55477 7.46782 3.65106 7.47392C8.97069 7.50752 14.2934 7.47392 19.613 7.49225C21.6987 7.49225 22.056 7.88007 22.056 9.98105C22.056 11.908 22.056 13.8379 22.056 15.7649C22.0774 16.9772 21.5185 17.4902 20.3001 17.4902C14.5255 17.4658 8.74777 17.4505 2.97008 17.5085C2.07227 17.5085 1.59894 17.0291 1.02789 16.5619V8.63435Z" fill="#775CA7"/>
<path d="M11.5572 15.7343C9.17224 15.7343 6.79032 15.7068 4.4084 15.7343C3.31515 15.7526 2.81739 15.3434 2.88152 14.2074C2.94565 13.0714 2.91817 11.8744 2.88152 10.7048C2.85404 9.68179 3.34264 9.27564 4.36564 9.28175C9.23332 9.30007 14.1 9.30007 18.9656 9.28175C19.9672 9.28175 20.3093 9.7337 20.2787 10.6804C20.2421 11.9019 20.2207 13.1234 20.2787 14.3449C20.3367 15.4198 19.894 15.7801 18.8557 15.7618C16.4249 15.7038 13.988 15.7343 11.5572 15.7343Z" fill="#DACDE5"/>
<path d="M6.36586 13.8929C5.31842 13.8929 4.80539 13.4074 4.76569 12.6164C4.74113 12.4242 4.76003 12.2289 4.821 12.045C4.88198 11.861 4.98347 11.6931 5.11799 11.5536C5.25251 11.4141 5.41664 11.3065 5.59826 11.2389C5.77988 11.1713 5.97436 11.1453 6.16736 11.1629C6.96134 11.1629 7.47742 11.6728 7.48658 12.5279C7.51812 12.8573 7.41793 13.1859 7.20791 13.4417C6.9979 13.6975 6.69515 13.8597 6.36586 13.8929Z" fill="#2C363D"/>
<path d="M11.1388 12.76C11.1244 12.9287 11.0756 13.0927 10.9954 13.2419C10.9153 13.3911 10.8055 13.5223 10.6728 13.6275C10.5401 13.7328 10.3873 13.8098 10.2238 13.8538C10.0603 13.8979 9.8895 13.9081 9.72191 13.8837C9.54196 13.8926 9.36221 13.8625 9.195 13.7954C9.02779 13.7283 8.87708 13.6258 8.75321 13.495C8.62934 13.3641 8.53524 13.2081 8.47737 13.0374C8.4195 12.8668 8.39923 12.6857 8.41796 12.5065C8.40831 12.3128 8.44232 12.1194 8.51745 11.9406C8.59258 11.7618 8.70692 11.6021 8.85203 11.4734C8.99713 11.3447 9.1693 11.2503 9.3558 11.1971C9.54231 11.1438 9.73839 11.1332 9.92956 11.1659C10.7174 11.2422 11.1785 11.7828 11.1388 12.76Z" fill="#2C363D"/>
<path d="M13.4169 11.1232C14.1712 11.2301 14.7361 11.5629 14.7789 12.4393C14.8216 13.3158 14.4124 13.8105 13.5574 13.8776C12.6413 13.9509 12.0855 13.4318 12.058 12.5493C12.0458 11.7309 12.6107 11.2789 13.4169 11.1232Z" fill="#2C363D"/>
<path d="M17.0601 13.899C16.1898 13.8257 15.7042 13.3157 15.7286 12.5156C15.7185 12.3222 15.7518 12.1288 15.8259 11.9498C15.9001 11.7708 16.0133 11.6106 16.1573 11.481C16.3013 11.3513 16.4724 11.2555 16.6582 11.2004C16.844 11.1454 17.0397 11.1326 17.2311 11.1628C17.4114 11.1672 17.5888 11.21 17.7513 11.2884C17.9137 11.3668 18.0576 11.479 18.1732 11.6175C18.2889 11.7559 18.3736 11.9175 18.4218 12.0914C18.47 12.2652 18.4805 12.4473 18.4526 12.6256C18.3915 13.4806 17.8693 13.8715 17.0601 13.899Z" fill="#2C363D"/>
</svg>
