<svg width="24" height="24" viewBox="0 0 24 24" fill="none" xmlns="http://www.w3.org/2000/svg">
<path d="M6.55513 2.94636C8.28763 3.29163 9.1829 2.07247 10.1668 1.02136H12.0001C13.1643 1.88303 14.0229 3.35886 15.8318 2.92191C16.2168 3.60636 16.0915 4.40997 16.339 5.13107C16.5009 7.73135 16.0946 8.18662 13.5157 8.2019C11.8962 8.2019 10.2737 8.22329 8.65429 8.2019C6.51541 8.16523 6.08458 7.74051 6.0418 5.60468C6.0336 5.35169 6.04382 5.09843 6.07236 4.84691C6.0968 4.17469 5.97152 3.46886 6.55513 2.94636Z" fill="#F9A01E"/>
<path d="M19.5534 9.23163C20.8825 8.96885 21.1575 9.74191 21.1545 10.8266C21.1453 14.1663 21.1147 17.4999 21.1667 20.861C21.185 21.9335 20.7084 22.1077 19.7947 22.0833C16.6078 22.0466 13.4178 22.0833 10.2309 22.0833C7.89644 22.0833 7.70394 21.8327 8.28144 19.5166C7.74672 18.8474 7.93616 18.0499 7.89033 17.2922C7.80478 15.1747 7.82922 13.0572 7.86589 10.9397C7.8995 9.17968 8.257 8.8283 10.0445 8.8008C12.4614 8.77024 14.8845 8.73052 17.3014 8.82524C18.0775 8.84663 18.8903 8.63885 19.5534 9.23163Z" fill="#EFEBEB"/>
<path d="M8.30895 17.5458C8.30895 18.1966 8.29367 18.8474 8.28756 19.4983C7.17534 19.4983 6.06006 19.5258 4.94784 19.4983C3.61868 19.4677 2.88535 18.7985 2.88229 17.4266C2.88229 13.2772 2.86396 9.13079 2.88229 4.98442C2.88229 3.50553 3.53924 2.91275 5.02118 2.88525C5.52534 2.88525 6.02951 2.92192 6.53367 2.94636C6.50923 3.55747 6.48173 4.14108 6.45729 4.73997C5.38784 5.19525 5.06395 6.00497 5.09451 7.14774C5.16173 9.77246 5.09451 12.4033 5.11895 15.0311C5.11895 16.8644 5.11895 16.8644 6.90951 17.0477C7.43506 17.0966 7.94839 17.1119 8.30895 17.5458Z" fill="#5F4239"/>
<path d="M19.5533 9.23161H17.5336C16.843 8.53189 17.0539 7.63356 17.0722 6.81162C17.0967 5.85523 16.8033 5.16162 15.9233 4.75218C15.5811 4.15634 15.7675 3.52996 15.8317 2.91885C16.3358 2.91885 16.8369 2.87913 17.3411 2.87301C18.7711 2.85468 19.48 3.59107 19.5075 5.0119C19.535 6.43273 19.5411 7.81995 19.5533 9.23161Z" fill="#63463C"/>
<path d="M15.9234 4.7522C17.2954 4.44664 17.7079 5.05775 17.5581 6.36247C17.498 7.31771 17.4898 8.27551 17.5337 9.23163C14.8968 9.23163 12.2598 9.28663 9.62288 9.23163C8.63899 9.21941 8.29982 9.55552 8.33343 10.5486C8.38538 12.88 8.33343 15.2144 8.33343 17.5458C4.75233 17.5458 4.75233 17.5458 4.75233 13.9402C4.75233 11.4194 4.85622 8.89247 4.71261 6.38081C4.62705 4.88053 5.20455 4.52609 6.50316 4.73998C6.67427 7.62136 6.67427 7.62136 9.55871 7.62136C11.1201 7.62136 12.6906 7.53275 14.2429 7.64886C15.5965 7.75275 16.1037 7.28525 15.9081 5.95608C15.8755 5.5552 15.8806 5.15213 15.9234 4.7522Z" fill="#CEC5C3"/>
<path d="M12 3.95466C11.9893 4.0627 11.9566 4.1674 11.9041 4.26242C11.8516 4.35743 11.7803 4.44077 11.6945 4.50737C11.6088 4.57396 11.5104 4.62242 11.4053 4.6498C11.3003 4.67717 11.1907 4.68289 11.0834 4.66661C10.9702 4.66461 10.8587 4.63825 10.7566 4.58933C10.6545 4.5404 10.5642 4.47006 10.4917 4.38308C10.4192 4.2961 10.3663 4.19453 10.3366 4.08527C10.3069 3.97602 10.301 3.86165 10.3195 3.74994C10.3221 3.63681 10.3488 3.52553 10.3978 3.42356C10.4469 3.32158 10.5172 3.23126 10.6039 3.15865C10.6907 3.08603 10.792 3.0328 10.9011 3.0025C11.0101 2.97221 11.1244 2.96556 11.2362 2.983C11.3508 2.99505 11.4618 3.02997 11.5627 3.08569C11.6636 3.14141 11.7522 3.2168 11.8234 3.3074C11.8947 3.39799 11.947 3.50196 11.9773 3.61314C12.0077 3.72432 12.0154 3.84045 12 3.95466Z" fill="#654537"/>
</svg>
