<svg width="24" height="24" viewBox="0 0 24 24" fill="none" xmlns="http://www.w3.org/2000/svg">
<path d="M10.3928 12C10.3928 13.7264 10.3439 15.4527 10.4111 17.1761C10.4509 18.1691 10.1331 18.5052 9.11865 18.4747C6.0631 18.3891 6.62532 18.7527 6.59476 16.0027C6.56115 13.0603 6.63143 10.1147 6.56421 7.17221C6.53671 6.00804 6.83309 5.55582 8.09198 5.60165C10.3959 5.6811 10.3989 5.60165 10.3989 7.8872L10.3928 12Z" fill="#3399D5"/>
<path d="M13.8608 11.9236C13.8608 10.2522 13.9127 8.57778 13.8425 6.90945C13.7997 5.91945 14.1083 5.49168 15.1227 5.62306C15.5284 5.67578 15.9392 5.67578 16.3449 5.62306C17.3166 5.49779 17.5336 5.95306 17.5213 6.84528C17.4816 10.2889 17.4755 13.7355 17.5213 17.1792C17.5366 18.1508 17.2799 18.6061 16.2563 18.4625C15.9046 18.4136 15.5478 18.4136 15.1961 18.4625C14.1113 18.6092 13.7997 18.1386 13.8455 17.0905C13.9188 15.3611 13.8608 13.6469 13.8608 11.9236Z" fill="#2F98D5"/>
</svg>
