<svg width="24" height="24" viewBox="0 0 24 24" fill="none" xmlns="http://www.w3.org/2000/svg">
<path d="M15.4283 6.558C17.5336 6.40522 18.9422 7.44411 19.6664 9.308C20.6411 11.8227 20.7297 14.371 19.0033 16.6413C17.2311 18.9666 15.1533 20.9191 12.0031 21.1391C11.8485 20.9694 11.7293 20.7708 11.6522 20.5547C11.5751 20.3386 11.5417 20.1093 11.5539 19.8802C11.5539 16.1769 11.3797 12.4705 11.6486 8.77022C11.8112 8.26085 12.1605 7.83186 12.6264 7.56939C13.4789 6.998 14.3528 6.49995 15.4283 6.558Z" fill="#F47D21"/>
<path d="M12 8.35468C12 12.6182 12 16.8766 12 21.1299C6.80552 20.9374 2.46359 14.4077 4.3397 9.61356C5.50997 6.62524 7.30052 6.05079 10.9733 7.47468C11.5783 7.46857 11.8563 7.82912 12 8.35468Z" fill="#F59531"/>
<path d="M12.3819 4.79802C13.0694 3.49636 14.0441 2.75997 15.6239 2.79053C16.7055 2.81192 16.7789 3.23664 16.5405 4.07997C16.3176 4.9667 15.7925 5.74794 15.0555 6.28913C14.421 6.81539 13.6277 7.11249 12.8036 7.13246C11.4836 6.40219 11.4164 6.03552 12.3819 4.79802Z" fill="#47A148"/>
<path d="M12.3819 4.79805C12.4186 5.49777 11.3705 6.45415 12.8586 6.80554C13.2008 7.06526 13.1153 7.37693 12.9716 7.69471L12 8.35471L10.9794 7.48999C10.7686 6.3961 10.5241 5.32666 9.62276 4.54138C9.51677 4.46982 9.42886 4.3746 9.36599 4.26323C9.30311 4.15187 9.26699 4.02741 9.26047 3.89969C9.25395 3.77196 9.27722 3.64448 9.32842 3.52729C9.37963 3.4101 9.45738 3.30642 9.55554 3.22444C10.0322 2.71111 10.5578 2.76 11.01 3.22444C11.4622 3.68888 11.9297 4.26638 12.3819 4.79805Z" fill="#715145"/>
<path d="M12.9717 7.69468C12.935 7.38912 12.8984 7.1019 12.8586 6.80551C13.6144 6.75557 14.3567 6.58109 15.0556 6.28912L15.4161 6.55801L12.9717 7.69468Z" fill="#F1DDCB"/>
</svg>
