<svg width="24" height="24" viewBox="0 0 24 24" fill="none" xmlns="http://www.w3.org/2000/svg">
<path d="M19.3578 11.3583C20.0208 11.6944 20.25 12.2169 20.25 12.9625C20.2164 15.3458 20.2041 17.7291 20.25 20.1094C20.2714 20.968 20.0116 21.2247 19.1469 21.2186C14.4332 21.1799 9.7175 21.1799 4.99973 21.2186C4.14723 21.2186 3.87529 21.0077 3.90584 20.1124C3.98223 17.8819 3.90584 15.6513 3.94557 13.4208C3.94557 12.6844 3.86001 11.8594 4.69112 11.4072C9.06667 10.735 13.4514 10.7808 17.83 11.2239C18.3525 11.2727 18.8719 11.1414 19.3578 11.3583Z" fill="#556F7A"/>
<path d="M6.55798 3.18474C6.75354 2.74168 7.16909 2.87918 7.47465 2.87918C10.5088 2.87918 13.546 2.90363 16.5832 2.85474C17.4999 2.85474 17.8055 3.12668 17.8055 4.07696C17.7657 6.40223 17.8269 8.7275 17.8452 11.0558C16.0974 11.4592 14.3221 11.1719 12.5591 11.23C10.9855 11.2819 9.40576 11.1872 7.83215 11.2606C6.86965 11.3064 6.63743 10.955 6.63743 10.0383C6.64965 7.74667 6.80548 5.46112 6.55798 3.18474Z" fill="#99A8AF"/>
<path d="M6.55798 3.18475C7.13854 5.26864 6.76576 7.39836 6.77187 9.50058C6.77187 10.787 7.16909 11.1384 8.41881 11.1017C11.5599 11.0131 14.7071 11.0559 17.8513 11.0467C18.3524 11.1567 18.9391 10.8511 19.3577 11.3522L4.69104 11.4011C4.7551 11.2882 4.85189 11.1974 4.96864 11.1407C5.08538 11.084 5.21658 11.064 5.34493 11.0834C6.47548 11.2484 6.53354 10.5853 6.52437 9.72058C6.49993 7.54502 6.5427 5.36336 6.55798 3.18475Z" fill="#8F969A"/>
<path d="M11.0834 7.07444C11.3431 8.26916 10.6434 8.3486 9.69309 8.39138C8.56864 8.44332 8.34559 7.97582 8.33948 6.96444C8.33948 5.83694 8.83448 5.63222 9.82447 5.59555C10.9856 5.55277 11.2606 6.0661 11.0834 7.07444Z" fill="#58717D"/>
<path d="M15.6452 7.00109C15.9202 8.25998 15.2297 8.34859 14.2733 8.39137C13.1519 8.44026 12.9258 7.97887 12.9197 6.96443C12.9197 5.84304 13.4086 5.62304 14.4016 5.5986C15.5352 5.58332 15.8927 6.01415 15.6452 7.00109Z" fill="#58717D"/>
</svg>
