<svg width="24" height="24" viewBox="0 0 24 24" fill="none" xmlns="http://www.w3.org/2000/svg">
<path d="M4.08004 16.5833L13.8334 6.80554C15.5536 7.41665 16.5833 8.74582 17.4389 10.2491C14.3732 13.3271 11.3034 16.404 8.22948 19.48C7.92392 19.7855 7.67642 20.2316 7.13559 20.2041C5.91337 19.6511 5.1342 18.5969 4.26337 17.6558C4.01587 17.39 3.75004 17.0141 4.08004 16.5833Z" fill="#FCB74E"/>
<path d="M15.0098 5.58332C17.1945 3.37722 18.4748 3.54527 20.085 6.25555C20.2501 6.48085 20.327 6.75882 20.3011 7.03693C20.2752 7.31504 20.1483 7.57403 19.9445 7.76499C19.5228 8.19684 19.0991 8.62563 18.6734 9.05137C18.2212 9.24082 17.7567 9.23165 17.4328 8.86193C16.5528 7.82304 14.9303 7.32499 15.0098 5.58332Z" fill="#E57675"/>
<path d="M15.0097 5.58331C15.9875 6.99192 17.0142 8.35164 18.6764 9.0483C18.3641 9.53342 17.9463 9.9418 17.4542 10.243C16.232 9.10636 15.2145 7.7772 13.8486 6.79942C14.1392 6.31182 14.5361 5.89612 15.0097 5.58331Z" fill="#C8CAE1"/>
<path d="M4.08007 16.5833C4.61785 18.1905 6.25562 18.8689 7.13562 20.1919C6.93395 20.1919 6.73534 20.2255 6.52451 20.2286C3.58507 20.2744 3.13896 19.59 4.08007 16.5833Z" fill="#FFD597"/>
</svg>
