<svg width="24" height="24" viewBox="0 0 24 24" fill="none" xmlns="http://www.w3.org/2000/svg">
<path d="M1.02139 22.9786C1.02139 15.9722 1.03361 8.94443 1 1.935C1 1.17111 1.17111 1 1.935 1C8.64499 1.03463 15.355 1.03463 22.065 1C22.8288 1 23 1.17111 23 1.935C22.9674 8.64499 22.9674 15.355 23 22.065C23 22.8289 22.8288 23.003 22.065 23C15.0555 22.9664 8.02776 22.9786 1.02139 22.9786Z" fill="#FEFFFF"/>
<path d="M21.1972 12.0611C21.1972 14.4474 21.1697 16.8338 21.1972 19.2172C21.2186 20.638 20.5861 21.2185 19.1713 21.2094C14.4505 21.1758 9.7297 21.2094 5.00887 21.188C3.40776 21.188 2.89443 20.6624 2.88832 19.101C2.87202 14.4811 2.87202 9.86209 2.88832 5.24413C2.90054 3.44441 3.47193 2.89747 5.27776 2.89136C9.79794 2.89136 14.3151 2.89136 18.8291 2.89136C20.7266 2.89136 21.1819 3.34969 21.1941 5.21052C21.2063 7.49302 21.1972 9.77857 21.1972 12.0611Z" fill="#2D98D5"/>
<path d="M12.0274 19.3333C9.94661 19.3333 7.86578 19.3027 5.788 19.3333C4.89273 19.3547 4.66662 18.9819 4.67273 18.1569C4.67273 16.7116 5.39078 15.7522 6.63133 15.1747C10.1697 13.5247 13.7355 13.433 17.3258 15.0891C17.9733 15.3869 18.5424 15.8315 18.988 16.3877C19.5991 17.1455 19.4402 18.0652 19.2538 18.8627C19.0674 19.6602 18.2241 19.2905 17.6741 19.3027C15.7827 19.3608 13.9066 19.3333 12.0274 19.3333Z" fill="#6BC3EE"/>
<path d="M12.0274 12C10.1238 11.9786 8.36078 10.3072 8.36078 8.49833C8.33328 6.52444 10.1483 4.70333 12.1344 4.69417C13.9922 4.68806 15.6666 6.5 15.6666 8.48916C15.6666 10.7075 14.2947 12.0305 12.0274 12Z" fill="#6BC3EE"/>
</svg>
