<svg width="24" height="24" viewBox="0 0 24 24" fill="none" xmlns="http://www.w3.org/2000/svg">
<path d="M5.66577 19.9261C5.66577 14.7989 5.61688 9.67168 5.63522 4.54447C5.6287 4.21257 5.6886 3.88273 5.8114 3.57432C5.9342 3.26592 6.11742 2.98518 6.35029 2.74861C6.58316 2.51203 6.86098 2.32441 7.16741 2.19676C7.47384 2.06911 7.8027 2.00402 8.13466 2.0053C10.7828 1.94623 13.4238 1.94623 16.0577 2.0053C17.561 2.03586 18.4074 2.92197 18.4135 4.40086C18.4319 8.76724 18.4135 13.1336 18.3891 17.5C16.9683 17.9553 16.5191 17.7017 16.4794 16.2319C16.403 13.1764 16.4794 10.1422 16.4488 7.09891C16.4488 6.50307 16.5802 5.87669 16.0149 5.40919C13.6163 4.88058 11.1933 5.19835 8.78549 5.2228C7.86882 5.2228 7.91466 6.06307 7.90855 6.7078C7.87799 9.53418 7.90855 12.3636 7.89327 15.19C7.89327 15.8958 7.94827 16.6078 7.67632 17.2831C6.46327 17.7475 6.49994 19.1744 5.66577 19.9261Z" fill="#93A6B0"/>
<path d="M5.66577 19.9261C5.78351 19.7927 5.86567 19.6318 5.90466 19.4582C5.94366 19.2846 5.93821 19.104 5.88883 18.933C5.67188 17.6283 6.3716 17.3564 7.45632 17.4847C8.03993 16.95 8.77327 17.0294 9.47604 17.0203C11.1474 16.9989 12.8188 16.9775 14.4902 17.0203C15.6605 17.0539 16.1188 16.5772 16.1035 15.413C16.073 12.5256 16.0821 9.635 16.1035 6.74751C16.1035 6.04778 16.0149 5.3114 16.5466 4.72473C17.1119 5.14334 16.8521 5.7514 16.8521 6.27084C16.8766 9.50972 16.9194 12.7517 16.8369 15.9875C16.8033 17.2097 17.2005 17.668 18.3646 17.4939C18.383 18.105 18.4196 18.7161 18.4135 19.3119C18.386 21.3011 17.6374 22.0619 15.6849 22.0619C13.3077 22.0772 10.9244 21.9978 8.55021 22.0894C6.92466 22.175 6.00188 21.4966 5.66577 19.9261Z" fill="#78909C"/>
<path d="M16.5496 4.7278C16.568 8.61752 16.571 12.5103 16.623 16.4031C16.623 17.2525 16.3571 17.5581 15.4955 17.5397C12.8188 17.5 10.1391 17.5 7.45938 17.5C7.45938 13.6958 7.48994 9.89168 7.43494 6.09058C7.43494 5.04253 7.70077 4.66975 8.7916 4.70336C11.3888 4.76753 13.9646 4.72169 16.5496 4.7278Z" fill="#414DA1"/>
<path d="M12.1557 20.4058C11.4804 20.0361 10.3224 20.7725 10.3224 19.7947C10.3224 18.8994 11.4743 19.3853 12.0946 19.3608C12.7149 19.3364 13.7507 18.9575 13.7599 19.7458C13.7752 20.8764 12.611 19.9169 12.1557 20.4058Z" fill="#F0F1F2"/>
</svg>
