<svg width="24" height="24" viewBox="0 0 24 24" fill="none" xmlns="http://www.w3.org/2000/svg">
<path d="M17.5649 19.9365C17.2595 20.9352 16.5539 21.1949 15.5857 21.1857C12.0397 21.1582 8.49369 21.1857 4.95073 21.1857C3.42359 21.1857 2.90131 20.6359 2.8952 19.0477C2.8952 15.6544 2.93185 12.2611 2.87382 8.86779C2.85244 7.51169 3.3564 6.73285 4.66974 6.49767C5.21951 6.04258 5.89145 6.04564 6.54201 6.04258C9.21756 6.04258 11.8962 6.00898 14.5748 6.04258C17.1923 6.07618 17.9528 6.86418 17.9711 9.55195C17.9894 12.2794 17.9711 15.0069 17.9711 17.7374C17.9961 18.4912 17.8575 19.2414 17.5649 19.9365Z" fill="#57A0D7"/>
<path d="M17.5648 19.9365C17.5424 16.251 17.52 12.5635 17.4976 8.87393C17.4976 7.12688 16.9143 6.53741 15.1275 6.52214C11.6365 6.4977 8.15156 6.4977 4.66968 6.4977C4.78879 5.389 5.37522 4.76287 6.50224 4.69262C6.99704 4.25891 7.60484 4.22532 8.2157 4.22226C11.047 4.20699 13.8814 4.18561 16.7127 4.22226C18.9332 4.25586 19.7151 5.04386 19.767 7.27654C19.8678 10.7126 19.6204 14.1548 19.938 17.5878C19.3224 18.53 18.5134 19.3306 17.5648 19.9365Z" fill="#93C7EC"/>
<path d="M19.9564 17.5633C19.1073 17.3251 19.3456 16.6196 19.3456 16.0515C19.3303 13.1591 19.3456 10.2667 19.3456 7.37427C19.3456 5.08967 18.9485 4.6865 16.7219 4.68345L6.50232 4.66512C6.71001 3.32735 7.50107 2.83255 8.83579 2.85393C12.2291 2.90586 15.6224 2.85393 19.0188 2.87531C20.6681 2.87531 21.1567 3.39149 21.1751 5.06523C21.1751 8.56238 21.1567 12.0595 21.1751 15.5536C21.2056 16.5402 20.9307 17.2457 19.9564 17.5633Z" fill="#58A0D7"/>
<path d="M10.1674 19.3257C8.80209 19.3257 7.43683 19.344 6.07157 19.3257C5.61037 19.3257 4.96897 19.5761 4.76128 18.9103C4.65233 18.6202 4.62605 18.3055 4.68537 18.0014C4.74469 17.6973 4.88728 17.4156 5.09725 17.1877C5.94329 16.2286 7.0245 15.7735 8.24316 15.517C10.2753 15.0535 12.4046 15.2947 14.2815 16.2011C14.6814 16.414 15.0403 16.6964 15.3413 17.035C15.8514 17.5786 15.7658 18.2842 15.5856 18.9011C15.4054 19.5181 14.7488 19.3012 14.2693 19.3257C12.9162 19.344 11.5387 19.3257 10.1674 19.3257Z" fill="#93C7EC"/>
<path d="M12.9163 11.186C12.9163 12.9117 11.9297 13.8493 10.1674 13.8279C8.75328 13.8279 7.41856 12.5146 7.45216 11.1646C7.45561 10.7846 7.53504 10.4091 7.68577 10.0603C7.83649 9.71143 8.05547 9.39625 8.32982 9.13329C8.60416 8.87033 8.92833 8.6649 9.28325 8.52908C9.63817 8.39327 10.0167 8.32982 10.3965 8.34246C11.7373 8.40049 12.9468 9.75048 12.9163 11.186Z" fill="#93C7EC"/>
</svg>
