<svg width="24" height="24" viewBox="0 0 24 24" fill="none" xmlns="http://www.w3.org/2000/svg">
<path d="M19.2906 6.57031C19.2906 9.41198 19.3854 12.2598 19.2906 15.1014C19.2234 18.0745 16.4826 20.7909 13.4179 21.1667C8.36396 21.7778 4.51091 18.5817 4.74619 13.5034C4.85313 11.2728 4.74619 9.03003 4.74619 6.79642C5.64146 5.64448 6.82396 6.02337 7.93619 6.25253C8.59008 6.38698 8.46785 7.01337 8.48313 7.51142C8.55646 9.92837 8.33035 12.3545 8.59924 14.7684C9.07285 16.73 10.4662 17.72 12.492 17.5184C14.3926 17.3381 15.6056 16.1709 15.6667 14.252C15.7462 11.7128 15.7004 9.17059 15.7065 6.63142C16.889 5.70864 18.0806 5.84309 19.2906 6.57031Z" fill="#D4302F"/>
<path d="M8.60529 14.7714C8.18362 12.5653 8.42501 10.3347 8.45251 8.11944C8.46779 6.82999 8.06751 6.38082 6.82696 6.57027C6.13946 6.67721 5.40918 6.38999 4.75223 6.79944C4.75223 6.18832 4.70029 5.57721 4.7064 4.98444C4.7064 2.63777 4.44057 2.98916 6.7964 2.82721C8.3914 2.71416 8.7489 3.27027 8.69084 4.77055C8.56557 8.1011 8.6389 11.4378 8.60529 14.7714Z" fill="#B2BFC6"/>
<path d="M19.2905 6.57029L15.7125 6.64362C15.6941 6.03251 15.7125 5.4214 15.6514 4.82862C15.4955 3.45667 15.74 2.74473 17.4572 2.79362C18.985 2.8364 19.5686 3.23056 19.3364 4.75529C19.2812 5.35862 19.2659 5.96494 19.2905 6.57029Z" fill="#B1BEC5"/>
</svg>
