<svg width="24" height="24" viewBox="0 0 24 24" fill="none" xmlns="http://www.w3.org/2000/svg">
<path d="M2.88829 15.9111C2.74461 15.3381 2.7656 14.7361 2.94885 14.1745C3.13209 13.6129 3.47014 13.1144 3.92413 12.7364C4.66051 12.1253 4.31829 11.8197 3.86301 11.3339C2.65607 10.0078 2.48496 8.43723 3.32218 7.01029C4.21135 5.48251 5.64745 4.8714 7.45939 5.35112C8.11023 5.52529 8.27828 5.38779 8.49828 4.7889C9.24384 2.76307 10.3713 1.94724 12.1649 1.98085C13.9097 2.01446 15.0005 2.83641 15.6024 4.85001C15.8377 5.63834 16.183 5.51307 16.6749 5.31751C17.0205 5.15609 17.3985 5.07602 17.7799 5.08343C18.1613 5.09085 18.5359 5.18556 18.8749 5.36029C19.1805 5.9164 18.8535 6.20973 18.4135 6.45112C17.5977 6.70473 16.4885 6.50307 16.3541 7.80473C16.238 8.92306 16.3541 9.86417 17.5244 10.4936C18.5449 11.0467 19.1285 10.7625 19.6052 9.84584C19.816 9.4425 19.8527 8.96889 20.0971 8.57473C20.4485 8.18667 20.8305 7.96362 21.3194 8.33028C21.4286 8.90665 21.3813 9.50175 21.1825 10.0537C20.9837 10.6056 20.6405 11.0941 20.1888 11.4683C19.6327 11.9786 19.706 12.2536 20.2071 12.7761C21.5791 14.2092 21.7349 15.4955 20.9099 17.0539C20.536 17.7796 19.9237 18.3546 19.1759 18.6824C18.4281 19.0101 17.5904 19.0705 16.8033 18.8536C16.0272 18.6672 15.7858 18.8169 15.5535 19.59C15.028 21.3286 13.9219 22.0772 12.1924 22.1016C10.2491 22.1291 9.27439 21.5333 8.6205 19.7122C8.31495 18.8811 8.00939 18.5511 7.09273 18.9391C6.80834 19.0564 6.49962 19.1023 6.19342 19.073C5.88722 19.0437 5.59281 18.9401 5.33579 18.7711C4.92023 18.2455 5.19829 17.7597 5.42134 17.2708C5.47084 17.2153 5.53455 17.1742 5.60561 17.1522C5.67667 17.1301 5.75241 17.1278 5.82468 17.1455C6.4969 17.3289 7.2944 17.7322 7.72217 16.9164C7.93214 16.5392 8.03383 16.1113 8.01604 15.68C7.99824 15.2486 7.86166 14.8306 7.62134 14.4719C7.38955 14.1433 7.07825 13.8787 6.71651 13.7029C6.35477 13.5271 5.95438 13.4458 5.55273 13.4667C4.9844 13.5033 4.73385 13.9922 4.51996 14.4628C4.33051 14.8753 4.39162 15.3642 4.11968 15.7553C3.74996 16.0303 3.35885 16.3389 2.88829 15.9111Z" fill="#42C3D8"/>
<path d="M21.3408 8.33333C20.9462 8.30688 20.5543 8.41455 20.2286 8.63889C18.5725 8.48305 18.0133 7.77417 18.3647 6.26473L18.8872 5.36945C19.8191 4.52001 20.8458 4.38556 21.68 5.36945C22.5141 6.35334 22.1597 7.41667 21.3408 8.33333Z" fill="#795FA8"/>
<path d="M2.88837 15.9111L3.97614 15.572C5.36336 15.6178 5.68725 15.9417 5.75753 17.3564L5.37253 18.7558C4.42531 19.6083 3.38948 19.8895 2.49115 18.8078C1.64476 17.8056 1.89837 16.7606 2.88837 15.9111Z" fill="#7A5FA9"/>
<path d="M8.3639 8.49837C8.3639 9.72059 6.69863 11.5906 5.68113 11.3217C5.15766 11.2054 4.69512 10.9009 4.38136 10.4661C4.06761 10.0312 3.92449 9.49625 3.97919 8.96281C4.0403 7.34948 4.9753 6.27088 6.38085 6.24949C7.9239 6.22504 8.37307 6.73532 8.3639 8.49837Z" fill="#FDFDFD"/>
<path d="M12.1864 21.1483C11.497 21.1673 10.8279 20.9136 10.3244 20.4422C9.82099 19.9708 9.52385 19.3198 9.49756 18.6306C9.49756 18.0194 11.3309 16.4917 12.0948 16.4672C12.7059 16.4672 14.7592 18.0989 14.75 18.6061C14.7287 19.8467 13.4606 21.1086 12.1864 21.1483Z" fill="#FEFEFE"/>
<path d="M12.1497 3.10532C13.5828 3.1206 14.8417 4.37337 14.7531 5.70254C14.7225 6.17309 12.7242 7.65809 12.0917 7.67642C11.4011 7.69781 9.44251 6.14865 9.47001 5.59254C9.47346 5.2504 9.5466 4.91255 9.68498 4.59962C9.82335 4.28669 10.0241 4.00525 10.2748 3.77249C10.5256 3.53972 10.8212 3.36051 11.1436 3.2458C11.4659 3.1311 11.8083 3.08329 12.1497 3.10532Z" fill="#FEFEFE"/>
<path d="M15.8989 15.7766C15.8989 14.3986 17.222 12.8555 18.4411 12.8066C19.2234 12.7761 20.2256 14.1633 20.2378 15.2939C20.2561 16.8216 19.2295 17.8269 17.6681 17.83C16.1648 17.83 15.8989 17.5214 15.8989 15.7766Z" fill="#FDFDFE"/>
<path d="M5.75758 17.3563C5.54369 16.3816 4.84092 15.8927 3.9762 15.5719C3.9762 14.0441 4.78286 12.8219 5.76064 12.8769C7.04091 12.9502 8.40063 14.3313 8.34869 15.6055C8.32119 16.2991 8.7398 17.2097 7.76508 17.5916C7.0898 17.8575 6.33202 18.2119 5.75758 17.3563Z" fill="#FDFDFD"/>
<path d="M18.3647 6.25555C18.38 7.52361 19.1225 8.22027 20.2286 8.62971C20.1522 10.1575 19.2905 11.4286 18.3953 11.343C17.0233 11.2117 15.8897 9.76332 15.9081 8.16222C15.9172 6.5 16.1922 6.27694 18.3647 6.25555Z" fill="#FCFDFD"/>
<path d="M14.7653 13.5278C14.0503 13.9739 13.3811 14.5514 12.605 14.8294C11.2789 15.3061 10.4661 14.1633 9.50666 13.5706C9.33187 12.5436 9.34844 11.4932 9.55555 10.4722C11.2911 8.80696 13.0236 9.08196 14.75 10.4722C14.9791 11.4773 14.9843 12.5205 14.7653 13.5278Z" fill="#F9F9F9"/>
<path d="M17.3809 12.1283C16.8309 12.4339 16.4276 13.045 15.8195 12.6539C15.5384 12.4705 15.5476 11.7922 15.844 11.5783C16.4703 11.1322 16.889 11.6944 17.3809 12.1283Z" fill="#D4DFE2"/>
<path d="M11.0162 8.36389C10.2706 8.66945 9.97729 9.41195 9.38146 8.975C9.24297 8.82586 9.16779 8.62876 9.17178 8.42527C9.17577 8.22177 9.25862 8.02778 9.40285 7.88417C9.91313 7.47779 10.2767 8.02778 11.0162 8.36389Z" fill="#F4F6F6"/>
<path d="M10.8633 15.9447C10.2003 16.0914 9.8764 16.8858 9.33557 16.2716C9.11557 16.0272 9.09418 15.3703 9.42418 15.1869C10.0047 14.8569 10.3806 15.3611 10.8633 15.9447Z" fill="#F0F2F3"/>
<path d="M14.6339 7.59998C14.7927 8.06459 14.8065 8.56647 14.6736 9.03914C14.1145 9.13692 13.7784 8.73358 13.3567 8.4922C13.4864 8.25513 13.6692 8.05125 13.8908 7.89648C14.1123 7.74171 14.3667 7.64024 14.6339 7.59998Z" fill="#EBEDEF"/>
<path d="M14.6125 16.4916C14.0595 16.4916 13.7967 16.0761 13.3353 15.8805C13.6409 15.355 14.1267 14.9883 14.5178 15.1869C14.9792 15.4283 14.7928 16.0241 14.6125 16.4916Z" fill="#EFF2F3"/>
<path d="M8.25697 12.7639C7.75904 12.7216 7.29636 12.4897 6.96448 12.1161C7.28531 11.6914 7.73753 11.2728 8.1867 11.505C8.5442 11.7097 8.4067 12.3056 8.25697 12.7639Z" fill="#F0F0F1"/>
<path d="M9.55561 10.4722C9.55561 11.5019 9.52811 12.5286 9.51284 13.5583C9.30795 13.0685 9.20603 12.5417 9.21338 12.0108C9.22074 11.4799 9.33723 10.9562 9.55561 10.4722Z" fill="#A8AEB2"/>
<path d="M14.7653 13.5278L14.75 10.4875C14.9779 10.9614 15.0975 11.4801 15.1002 12.0059C15.1028 12.5317 14.9884 13.0516 14.7653 13.5278Z" fill="#6BA7B3"/>
<path d="M10.2156 11.8625C10.2583 11.3982 10.4785 10.9682 10.8302 10.662C11.1819 10.3558 11.6381 10.197 12.1039 10.2186C13.1275 10.1942 14.1053 11.2147 13.98 12.1803C13.9506 12.6678 13.7369 13.1259 13.3823 13.4618C13.0277 13.7977 12.5587 13.9862 12.0703 13.9892C11.0986 14.0625 10.1667 13.0053 10.2156 11.8625Z" fill="#EA4A7E"/>
</svg>
