<svg width="24" height="24" viewBox="0 0 24 24" fill="none" xmlns="http://www.w3.org/2000/svg">
<path d="M19.3333 12.168C19.3333 14.5544 19.3089 16.9408 19.3333 19.3272C19.3517 20.6105 18.7895 21.188 17.5 21.1819C13.8945 21.1819 10.2889 21.1544 6.68337 21.1819C5.38171 21.1819 4.74615 20.5035 4.73393 19.3486C4.68504 14.5249 4.68504 9.70015 4.73393 4.87442C4.73393 3.57276 5.4581 2.84553 6.87282 2.85776C10.3745 2.88831 13.8792 2.85776 17.3839 2.85776C18.6856 2.85776 19.3333 3.50553 19.3211 4.83164C19.3333 7.29136 19.3333 9.72968 19.3333 12.168Z" fill="#7DCAC3"/>
<path d="M18.3617 17.4327H6.0509C6.66201 16.0516 7.68562 15.0677 8.49534 13.9524C9.02395 13.2344 9.35395 14.1174 9.62589 14.3985C11.2087 16.0363 11.1934 16.0546 12.6142 14.2946C14.3375 12.1558 14.3406 12.1558 15.9753 14.3099C16.7331 15.2694 17.4603 16.241 18.3617 17.4327Z" fill="#27A79B"/>
<path d="M8.61448 10.1666C7.20893 10.1666 6.71698 9.43635 6.58254 8.47996C6.46032 7.60913 7.6917 6.42358 8.55031 6.57941C9.50364 6.75052 10.2278 7.25774 10.1728 8.41274C10.1178 9.56774 9.42725 10.0719 8.61448 10.1666Z" fill="#29A79B"/>
</svg>
