<svg width="24" height="24" viewBox="0 0 24 24" fill="none" xmlns="http://www.w3.org/2000/svg">
<path d="M20.25 12.0794C20.25 14.2183 20.2286 16.3572 20.25 18.4961C20.25 19.6877 19.755 20.25 18.5236 20.25C14.2458 20.2296 9.97724 20.2296 5.7178 20.25C4.66669 20.25 4.05558 19.8711 3.99142 18.7955C3.93642 18.0377 3.83558 17.2677 3.83253 16.5222C3.8142 13.1153 3.80808 9.71137 3.83253 6.30749C3.84781 4.43444 4.29086 3.86305 5.97141 3.86305C9.94362 3.81111 13.9158 3.78972 17.8636 3.86305C20.0025 3.90888 20.25 4.28777 20.25 6.44193C20.25 8.31397 20.25 10.1931 20.25 12.0794Z" fill="#7DCAC3"/>
<path d="M18.3342 17.4328H6.0509C6.66201 16.0517 7.68562 15.0678 8.49534 13.9525C9.02395 13.2344 9.35395 14.1175 9.62589 14.3986C11.2087 16.0394 11.1934 16.0547 12.6142 14.2978C14.3375 12.1589 14.3375 12.1589 15.9753 14.2978C16.345 14.7775 16.7239 15.2511 17.0875 15.7369C17.4512 16.2228 17.8209 16.7269 18.3342 17.4328Z" fill="#27A79B"/>
<path d="M8.80087 10.1666C7.20893 10.185 6.71698 9.4394 6.58254 8.48301C6.46032 7.61218 7.6917 6.42663 8.55031 6.58246C9.50364 6.75357 10.2217 7.2608 10.1759 8.41579C10.1331 9.44857 9.39364 10.1666 8.80087 10.1666Z" fill="#29A79B"/>
</svg>
