<svg width="24" height="24" viewBox="0 0 24 24" fill="none" xmlns="http://www.w3.org/2000/svg">
<path d="M14.7499 21.1483L4.85912 21.191C3.52996 21.191 2.90357 20.4974 2.90051 19.2172C2.90051 14.4485 2.90051 9.67875 2.90051 4.90802C2.90051 3.62775 3.5819 2.90969 4.87134 2.90358C9.69096 2.88525 14.5106 2.88525 19.3302 2.90358C20.5341 2.90358 21.1971 3.56969 21.191 4.81941L21.1269 15.0127C20.5585 15.2358 20.1613 14.8233 19.7305 14.6063C18.551 13.9952 17.4694 13.2313 16.2747 12.6752C14.4413 11.8227 13.2924 10.7258 13.3169 8.43107C13.3383 6.5183 11.0161 4.93858 9.06967 5.10969C6.98273 5.29302 5.09745 7.24857 5.09745 9.25913C5.09745 11.398 6.73828 13.268 8.76411 13.4238C9.84883 13.5063 10.903 13.4025 11.7952 12.6844C12.4949 12.1161 13.1519 12.1802 13.8913 12.6172C15.7094 13.6683 17.5427 14.6583 19.3333 15.7186C20.5188 16.4213 20.6227 16.9836 19.5991 17.7841C18.0469 18.9972 16.5833 20.3538 14.7499 21.1483Z" fill="#3E83C4"/>
<path d="M14.75 21.1483C15.6666 20.418 16.5466 19.6786 17.4572 18.9574C18.3677 18.2363 19.3944 17.6894 20.25 16.678C17.8483 15.3 15.5261 13.9708 13.2222 12.6111C12.6478 12.278 12.4094 12.7516 12.0611 13.0113C11.2676 13.5634 10.3271 13.8654 9.36052 13.8785C8.39396 13.8916 7.4456 13.6151 6.63749 13.0847C5.8953 12.5091 5.33839 11.7283 5.03585 10.8391C4.7333 9.94997 4.69843 8.99155 4.93555 8.08275C5.21456 7.12956 5.78819 6.28918 6.57423 5.68209C7.36027 5.075 8.31834 4.73236 9.31109 4.70331C10.2537 4.71142 11.172 5.00395 11.9456 5.5426C12.7192 6.08125 13.3122 6.84093 13.6469 7.72219C13.8039 8.10081 13.8678 8.51155 13.8333 8.91997C13.5919 10.4111 14.2519 11.2055 15.575 11.8502C17.4847 12.7669 19.2783 13.9463 21.1238 15.0127C21.1238 16.235 21.134 17.4653 21.1544 18.7038C20.2946 19.8065 19.1429 20.6459 17.83 21.1269L14.75 21.1483Z" fill="#92C3E9"/>
<path d="M17.833 21.1269C18.8994 20.25 19.9444 19.3516 21.1666 18.7039C21.2155 21.0872 20.8397 21.3622 17.833 21.1269Z" fill="#4584C5"/>
</svg>
