<svg width="24" height="24" viewBox="0 0 24 24" fill="none" xmlns="http://www.w3.org/2000/svg">
<path d="M11.1108 14.75C10.8694 12.55 11.8166 10.9306 13.5552 9.66864C14.0878 9.27962 14.5747 8.83169 15.0066 8.33337C15.8775 7.3342 15.9233 6.19448 15.2725 5.08225C14.6216 3.97003 13.5736 3.86003 12.4705 3.99448C11.2758 4.15031 10.5547 4.85614 10.4233 6.09364C10.3469 6.83614 10.1941 7.64892 9.24385 7.5267C8.17746 7.39225 8.32719 6.46031 8.42496 5.71475C8.75496 3.36503 10.8389 1.8617 13.3811 2.01753C14.5025 2.05704 15.565 2.52947 16.3455 3.33564C17.1261 4.14181 17.5639 5.21903 17.5672 6.34114C17.5214 8.35475 16.7055 9.70225 15.2297 10.845C14.313 11.5539 13.265 12.1773 13.155 13.5186C12.9166 15.2389 12.66 15.3948 11.1108 14.75Z" fill="#57707C"/>
<path d="M11.1108 14.75C12.1191 14.8753 13.045 14.8692 13.155 13.5125C13.155 14.3742 13.3902 14.8997 14.3466 15.2756C16.0913 15.9722 16.5191 17.6711 16.8888 19.3333C16.767 19.4995 16.5889 19.6157 16.3877 19.6603C13.5711 19.9353 10.7344 19.9353 7.91774 19.6603C7.71613 19.6168 7.53769 19.5003 7.41663 19.3333C7.52051 16.8889 8.8069 15.41 11.1108 14.75Z" fill="#99A8AF"/>
<path d="M7.41668 19.3334H16.8889C17.9003 19.4556 17.445 20.25 17.4756 20.745C17.5153 21.3928 16.9439 21.2125 16.5864 21.2125C13.6164 21.2288 10.6454 21.2288 7.67335 21.2125C7.27307 21.2125 6.65891 21.4234 6.68335 20.6748C6.69557 20.1278 6.4389 19.37 7.41668 19.3334Z" fill="#556F7A"/>
</svg>
