<svg width="24" height="24" viewBox="0 0 24 24" fill="none" xmlns="http://www.w3.org/2000/svg">
<path d="M19.0278 15.9722C18.16 18.4778 15.7645 20.0789 13.2223 20.2714C9.27143 20.5769 6.94921 18.6428 5.53144 15.2175C5.30227 14.6614 5.13727 14.0686 4.43755 13.8883C3.19089 13.5614 2.83339 12.6294 2.85478 11.4622C2.85478 10.1972 3.65839 9.59527 4.74311 9.23777C5.3756 8.67861 6.16088 8.79166 6.90032 8.80083C8.55949 8.81916 10.2217 8.67861 11.8717 8.90166C13.0603 9.38444 13.7631 10.0719 13.5034 11.5539C13.1978 13.3353 14.3314 14.4994 16.1678 14.3039C17.6192 14.1389 18.4961 14.6767 19.0278 15.9722Z" fill="#FACDD2"/>
<path d="M12.4309 9.36307L4.74316 9.25002C5.67816 3.03197 11.3615 0.0466982 16.6415 2.99225C18.7498 4.16864 19.7704 6.08141 20.2501 8.35168C20.6229 9.26835 20.079 9.53113 19.3334 9.65029C18.487 9.78474 17.6315 9.67168 16.779 9.68696C15.3429 9.58307 13.8334 10.1667 12.4309 9.36307Z" fill="#D42F2F"/>
<path d="M12.4309 9.36304H16.6109C18.2548 9.86109 18.9453 10.5608 18.7223 12.1528C18.542 13.375 19.4403 14.2183 19.4465 15.3152L19.0278 15.9722C18.1387 15.1472 17.4573 14.313 15.8562 14.7102C14.0962 15.1441 12.5379 13.268 13.1062 11.5722C13.4484 10.4966 12.9962 9.98942 12.4309 9.36304Z" fill="#394850"/>
<path d="M19.4372 15.3153C18.6092 14.3803 18.0439 13.482 18.4136 12.0489C18.7406 10.7778 17.6528 9.96807 16.6108 9.35391C17.5275 9.33557 18.4442 9.25307 19.3456 9.31724C20.1369 9.37529 20.3142 9.01168 20.2622 8.35168C20.6747 8.70002 20.6931 9.26835 21.2125 9.63807C22.6547 10.6525 22.4836 12.8647 20.9069 13.7661C20.2225 14.1572 19.6633 14.5453 19.4372 15.3153Z" fill="#F8CBD1"/>
<path d="M12.4706 17.5245C11.5078 17.6096 10.5467 17.3449 9.76333 16.7789C9.52195 16.6108 9.23472 16.397 9.42722 16.0364C9.61972 15.6758 9.89472 15.7308 10.1942 15.9111C11.7678 16.9256 13.3475 16.8583 14.9211 15.9111C15.1533 15.7706 15.41 15.685 15.5872 15.9508C15.8042 16.2564 15.6269 16.5345 15.3672 16.73C14.5332 17.344 13.5011 17.6271 12.4706 17.5245Z" fill="#8E6C6C"/>
<path d="M10.24 12.0672C10.2536 12.1799 10.2437 12.2942 10.2108 12.4028C10.1779 12.5114 10.1228 12.612 10.0489 12.6982C9.97509 12.7844 9.88414 12.8543 9.78185 12.9035C9.67956 12.9527 9.56817 12.98 9.45473 12.9839C9.32892 13.0104 9.19875 13.0084 9.07383 12.9779C8.94891 12.9474 8.83244 12.8892 8.73301 12.8077C8.63358 12.7261 8.55374 12.6233 8.49937 12.5068C8.445 12.3903 8.4175 12.263 8.4189 12.1344C8.40536 12.0063 8.42032 11.8768 8.46271 11.7551C8.5051 11.6334 8.57388 11.5226 8.66411 11.4306C8.75433 11.3386 8.86379 11.2678 8.98463 11.223C9.10546 11.1783 9.2347 11.1609 9.36307 11.1719C9.86112 11.1689 10.185 11.5019 10.24 12.0672Z" fill="#444F57"/>
</svg>
