<svg width="24" height="24" viewBox="0 0 24 24" fill="none" xmlns="http://www.w3.org/2000/svg">
<path d="M12 22.9814L4.08007 8.94435C3.64924 8.07048 4.05562 7.57854 4.847 7.26382C5.7881 7.26382 6.10282 8.01853 6.4817 8.66019C8.16529 11.4896 9.65027 14.4443 11.3491 17.2645C12.0641 18.4531 12.2077 18.4867 12.8769 17.2645C14.5116 14.3434 16.1035 11.3979 17.7657 8.48908C18.0713 7.96353 18.2882 7.36465 18.9879 7.24243C19.7426 7.4166 20.2957 7.75881 20.2498 8.6388L12.3055 22.9814H12Z" fill="#FECD83"/>
<path d="M20.2499 8.63877C19.9598 8.12892 19.5375 7.70671 19.0277 7.41657C18.5416 7.27959 18.0775 7.07381 17.6497 6.80547C13.9342 4.688 10.2156 4.72772 6.50009 6.80547C6.02903 7.09402 5.51246 7.30065 4.97234 7.41657C4.37651 7.75268 3.97318 8.19878 4.05568 8.94432C2.57682 6.75658 2.57682 6.75658 4.66679 5.17688C8.81923 2.02664 15.6422 2.06025 19.7182 5.25632C21.5118 6.67408 21.5179 6.71075 20.2499 8.63877Z" fill="#FEE0B3"/>
<path d="M4.97229 7.4166C8.99029 3.79582 15.9019 4.21443 19.0276 7.4166C17.4082 9.24991 16.6016 11.5904 15.3305 13.6437C14.4138 15.1471 13.5552 16.6993 12.7119 18.2637C12.1864 19.2323 11.8625 18.9878 11.4194 18.1873C9.64722 14.9882 7.83836 11.8257 6.06311 8.63881C5.78811 8.14993 5.52228 7.67021 4.97229 7.4166Z" fill="#FFD69A"/>
<path d="M13.9128 13.9065C13.8364 14.9912 13.2803 15.6603 12.1406 15.7398C11.889 15.7554 11.6369 15.718 11.4007 15.6299C11.1646 15.5418 10.9496 15.4049 10.7697 15.2283C10.5899 15.0516 10.4493 14.8391 10.357 14.6045C10.2647 14.3699 10.2227 14.1186 10.234 13.8667C10.3226 12.7606 10.9764 12.0701 12.0856 12.0823C13.1947 12.0945 13.8333 12.7331 13.9128 13.9065Z" fill="#48A148"/>
<path d="M11.1567 8.3485C11.1047 9.48516 10.5456 10.1818 9.39363 10.2215C8.2417 10.2613 7.56033 9.57071 7.50838 8.47684C7.48277 8.23313 7.50989 7.98677 7.58791 7.75448C7.66592 7.52218 7.79301 7.3094 7.96054 7.13056C8.12807 6.95173 8.33212 6.81104 8.55883 6.71804C8.78554 6.62504 9.02961 6.58191 9.27447 6.59158C10.3745 6.55186 11.0558 7.19352 11.1567 8.3485Z" fill="#E63D36"/>
</svg>
