<svg width="24" height="24" viewBox="0 0 24 24" fill="none" xmlns="http://www.w3.org/2000/svg">
<path d="M14.0258 7.06223C13.4147 8.80389 14.5575 9.91916 16.3236 10.8206C17.7628 11.5508 19.0736 12.5103 20.4608 13.3689C20.8 13.5797 21.13 13.7355 21.2125 14.2336C21.4142 15.4864 21.133 15.7614 19.9292 15.3916C18.2853 14.8814 16.6322 14.3955 15.0006 13.8486C14.2489 13.595 13.9922 13.7844 14.032 14.5728C14.1084 15.4827 14.1084 16.3975 14.032 17.3075C13.9036 18.3525 14.4414 18.9147 15.2114 19.3852C15.8225 19.755 16.1128 20.3539 15.7797 20.913C15.4742 21.4294 14.8447 21.1025 14.4017 20.913C13.0542 20.3019 11.7556 20.4669 10.4295 21.0169C10.0872 21.1605 9.5403 21.3897 9.34474 20.9283C9.14919 20.4669 9.09724 19.865 9.6503 19.5686C12.0947 18.2791 10.8725 16.0089 11.0742 14.145C11.1597 13.3078 10.402 13.7783 10.072 13.873C8.47391 14.3344 6.89114 14.8783 5.27781 15.3611C4.85003 15.4864 4.22365 16.0516 3.97003 15.4008C3.71642 14.75 3.66448 13.9311 4.5292 13.4147C6.22808 12.4094 7.84447 11.2758 9.57085 10.3072C10.7228 9.67166 11.3186 8.93528 11.1353 7.55723C11.0039 6.56112 11.117 5.5314 11.1139 4.51696C11.1139 3.64002 11.4561 3.01974 12.3911 2.94029C13.4086 2.85474 13.8853 3.50557 13.9953 4.39474C14.0527 5.28273 14.0629 6.17315 14.0258 7.06223Z" fill="#0E8A7C"/>
</svg>
