<svg width="24" height="24" viewBox="0 0 24 24" fill="none" xmlns="http://www.w3.org/2000/svg">
<path d="M4.75529 17.668C4.75529 14.0411 4.75529 10.7686 4.75529 7.49608C4.75529 6.82691 4.98141 6.64969 5.54974 7.08052C7.5664 8.6083 9.57695 10.1361 11.6058 11.6302C12.2475 12.1069 11.8319 12.3452 11.4531 12.6294L4.75529 17.668Z" fill="#566F7B"/>
<path d="M15.9142 12.1741C15.9142 13.595 15.8805 15.0158 15.9142 16.4336C15.9386 17.1944 15.7308 17.5336 14.9028 17.5213C14.1694 17.5 13.8333 17.3563 13.8333 16.513C13.8761 13.5736 13.8761 10.6321 13.8333 7.68859C13.8333 6.86359 14.1786 6.61609 14.9089 6.61609C15.6972 6.61609 15.9478 7.00414 15.9233 7.76192C15.8836 9.23164 15.9142 10.7044 15.9142 12.1741Z" fill="#7C8F99"/>
<path d="M19.3333 12.1619C19.3333 13.5858 19.3028 15.0066 19.3333 16.4397C19.3516 17.1791 19.1989 17.5458 18.3403 17.5305C17.5367 17.5305 17.448 17.1608 17.4542 16.51C17.4766 13.6133 17.4766 10.7177 17.4542 7.82306C17.4542 7.10195 17.558 6.70473 18.4289 6.70778C19.3791 6.70778 19.3303 7.27611 19.3272 7.90861C19.3333 9.31722 19.3333 10.7411 19.3333 12.1619Z" fill="#768A94"/>
</svg>
