<svg width="24" height="24" viewBox="0 0 24 24" fill="none" xmlns="http://www.w3.org/2000/svg">
<path d="M10.1667 3.13889C15.0128 1.73639 20.8917 5.84917 21.1667 10.8419C21.4417 15.8347 19.263 19.3333 14.8386 20.8794C13.9202 21.1649 12.9523 21.2555 11.9969 21.1453C11.6242 20.5647 11.2606 19.9811 11.3858 19.2386C11.9542 18.8169 12.6508 18.933 13.2833 18.8016C16.183 18.1508 18.0714 16.4244 18.7222 13.5278C19.373 10.6311 18.2608 8.26305 15.9722 6.45722C14.9902 5.72181 13.7886 5.33958 12.5622 5.3725C11.8656 5.3725 11.1383 5.49778 10.4936 5.08528C10.1881 4.26333 11.3461 4.50472 11.34 3.86306C11.1567 3.35278 10.4142 3.6125 10.1667 3.13889Z" fill="#75BA77"/>
<path d="M11.3889 19.3638C12.1619 19.758 12.0367 20.4669 12 21.1452C7.49307 21.2797 3.46891 17.7841 2.93419 13.2436C2.37197 8.47996 5.41835 4.21441 10.1667 3.13885C10.515 3.13885 10.8633 3.17858 11.2086 3.17552C11.6547 3.17552 11.9847 3.26413 12.0153 3.80802C12.0458 4.35191 11.8656 4.66663 11.2789 4.66663C11.1297 4.64746 10.9781 4.66531 10.8374 4.71859C10.6967 4.77188 10.5713 4.85897 10.4722 4.97218C10.1208 5.60468 9.43334 5.75441 8.87418 6.07829C6.46029 7.44718 5.09752 9.55551 5.22585 12.3055C5.36641 15.3611 6.98585 17.5336 9.93751 18.603C10.4508 18.7772 11.0406 18.8413 11.3889 19.3638Z" fill="#46A248"/>
<path d="M10.2553 16.2778V7.92389L15.8164 12.0825L10.2553 16.2778Z" fill="#48A148"/>
</svg>
