<svg width="24" height="24" viewBox="0 0 24 24" fill="none" xmlns="http://www.w3.org/2000/svg">
<path d="M15.1595 16.8094C14.6033 19.3669 14.6033 19.3669 11.7983 19.3669C9.96501 19.3669 8.15307 19.3669 6.3289 19.3669C5.85223 19.3669 5.29918 19.5564 4.93251 19.0369C4.7064 17.2036 4.89279 15.3917 4.82557 13.5736C4.80418 12.9136 5.18001 12.6569 5.74223 12.605C7.36712 12.47 9.00047 12.4721 10.625 12.6111C11.6364 12.7028 11.7678 13.1642 11.2147 14.0839C10.9703 14.4842 10.3897 14.7408 10.7045 15.5811C12.1803 14.75 13.1672 13.5094 14.1786 12.3055C14.2404 12.2219 14.2737 12.1207 14.2737 12.0168C14.2737 11.9128 14.2404 11.8116 14.1786 11.728C13.3507 10.6377 12.3853 9.65895 11.3064 8.8161C11.2574 8.77495 11.2008 8.74394 11.1397 8.72488C11.0787 8.70581 11.0144 8.69907 10.9508 8.70504C10.8871 8.71101 10.8252 8.72958 10.7688 8.75966C10.7123 8.78974 10.6624 8.83073 10.622 8.88026C10.405 9.10943 10.5333 9.34165 10.6433 9.57387C11.56 11.4928 11.56 11.4989 9.30196 11.505C8.18668 11.505 7.06835 11.5569 5.94085 11.4683C5.36029 11.4225 4.80418 11.2911 4.83779 10.5119C4.91723 8.69998 4.65446 6.87582 4.98446 5.06998C5.9714 4.45887 7.05612 4.81332 8.09196 4.77971C9.85807 4.7186 11.6272 4.75832 13.3933 4.76443C14.2245 4.76443 15.0311 4.96915 14.9211 5.98665C14.7775 7.37082 15.4253 7.61221 16.5833 7.49304C17.187 7.46933 17.7916 7.48975 18.3922 7.55415C18.5083 8.77637 18.8689 9.94971 18.6978 11.1811C18.4564 12.9717 19.0339 14.7958 18.4564 16.568L18.3556 16.6689C17.3075 16.8889 16.2228 16.6017 15.1595 16.8094Z" fill="#1E88C9"/>
<path d="M4.99056 5.06079C4.99056 6.73524 4.99056 8.4219 4.97528 10.0811C4.97528 10.6311 5.01806 11.1108 5.75139 11.1077C7.07139 11.1077 8.38834 11.1261 9.72361 11.1077C10.2033 11.1077 10.7136 11.2605 11.1903 10.9702C11.0803 10.3958 10.6219 10.1086 10.2553 9.80912C9.57695 9.25607 9.80917 8.89246 10.3042 8.36385C10.8511 7.78024 11.1536 7.97885 11.6394 8.43107C15.4894 12 15.4925 12 11.6547 15.6086C11.1933 16.0455 10.8572 16.4794 10.1667 15.8286C9.47611 15.1777 9.9375 14.8294 10.3653 14.3772C10.7014 14.0258 11.1903 13.7661 11.2819 12.9686C9.35084 12.9686 7.45945 12.9472 5.565 12.9686C4.90806 12.9686 4.97223 13.5461 4.95389 13.9952C4.97223 15.6819 4.97223 17.3533 4.94473 19.0277C4.49552 14.3821 4.51087 9.70333 4.99056 5.06079Z" fill="#69B8E3"/>
<path d="M18.4686 16.5528V11.0986C19.1806 10.5547 19.8864 10.5425 20.5831 11.1261C20.1339 11.8014 18.7497 10.7503 18.7131 12.0825C18.6642 13.5492 19.8864 12.715 20.5036 12.9655C20.7199 13.034 20.9051 13.1768 21.0264 13.3685C21.1478 13.5603 21.1974 13.7888 21.1667 14.0136C21.1667 14.6461 20.7206 15.0464 20.2256 14.9792C18.9361 14.7989 18.6703 15.5994 18.4686 16.5528Z" fill="#6DB9E2"/>
<path d="M20.5922 11.1261L18.4778 11.0986C18.4503 9.90999 18.4258 8.72444 18.4014 7.53583C18.4961 7.69472 18.6886 7.86583 18.6733 8.00944C18.5236 9.23166 18.9789 9.77861 20.2439 9.58611C20.5647 9.54027 21.0139 9.48833 21.1117 9.95277C21.2095 10.4172 21.3195 10.9825 20.5922 11.1261Z" fill="#6ABAE4"/>
<path d="M15.1595 16.8094C16.2106 16.3756 17.2983 16.6506 18.3678 16.6536C17.3197 17.1211 16.232 16.8369 15.1595 16.8094Z" fill="#6DB9E2"/>
</svg>
