<svg width="24" height="24" viewBox="0 0 24 24" fill="none" xmlns="http://www.w3.org/2000/svg">
<path d="M6.9064 14.365C6.52446 13.9586 6.12418 13.5736 5.76668 13.1428C4.97224 12.1864 4.91113 11.2392 5.84307 10.3133C7.78334 8.38222 9.66862 6.39306 11.6486 4.50778C14.1786 2.13668 17.3075 2.34446 19.6572 4.93251C15.9905 8.54416 12.5347 12.3361 8.67862 15.74C7.78029 15.7003 7.31585 15.0555 6.9064 14.365Z" fill="#E9635E"/>
<path d="M8.57779 15.7461C12.0469 12.2301 15.5169 8.72339 18.988 5.22581C19.1966 5.09068 19.4288 4.99633 19.6725 4.94775C21.735 7.25469 21.8114 10.1422 19.6939 12.44C17.8117 14.4872 15.7828 16.4122 13.8089 18.3677C12.8922 19.2844 11.9297 19.2019 10.9978 18.3677C10.5883 17.9919 10.1942 17.6008 9.79084 17.2158C9.22251 16.8552 8.6389 16.513 8.57779 15.7461Z" fill="#E63B35"/>
<path d="M8.5778 15.7461C8.98113 16.2319 9.38752 16.7178 9.80002 17.2066C8.67252 18.3005 7.55113 19.4036 6.41141 20.4852C5.41225 21.4294 4.11975 21.4722 3.32837 20.5555C2.45753 19.5411 2.76615 18.6427 3.63392 17.7719C4.7492 16.6689 5.80947 15.5078 6.89419 14.3741C7.63363 14.6186 7.95752 15.3611 8.5778 15.7461Z" fill="#FFE0B3"/>
</svg>
