<svg width="24" height="24" viewBox="0 0 24 24" fill="none" xmlns="http://www.w3.org/2000/svg">
<path d="M7.13251 17.4603C5.7239 17.4603 4.31223 17.4236 2.90973 17.5091C2.53946 17.5469 2.16601 17.4802 1.83171 17.3166C1.49742 17.1529 1.21565 16.8989 1.01834 16.5833V14.75C1.67057 14.2045 2.45819 13.8455 3.29779 13.7111C4.8714 13.4728 5.74223 12.1344 6.6589 11.01C7.71412 9.6488 8.95803 8.44502 10.3531 7.43498C13.7447 5.01803 18.9422 7.11109 19.3333 11.0558C19.2339 11.1788 19.1059 11.2756 18.9606 11.3379C18.8152 11.4002 18.6568 11.4261 18.4992 11.4133C17.662 11.4133 17.17 10.7503 16.5497 10.3378C15.6117 9.72664 14.637 9.39053 13.5767 10.0505C13.0298 10.3852 12.6377 10.9228 12.486 11.5457C12.3342 12.1686 12.4353 12.8263 12.767 13.375C13.32 14.3589 14.692 14.6797 15.9997 14.0991C16.8767 13.7111 17.5581 12.9686 18.5022 12.6875C18.8933 12.6966 19.3333 12.6111 19.3333 13.2222C19.246 14.3598 18.7401 15.4246 17.9132 16.2108C17.0864 16.997 15.9975 17.4487 14.857 17.4786C13.0878 17.5091 11.3186 17.4786 9.54945 17.4603C9.42723 16.8889 9.92223 16.6872 10.1667 16.3419C11.1139 15.0861 10.7778 12.7578 9.55556 12C9.08806 11.7128 8.69084 11.5997 8.67556 12.3758C8.67556 12.9014 8.5564 13.4575 8.12556 13.7325C6.60084 14.6919 6.50001 15.9722 7.13251 17.4603Z" fill="#F8BBCF"/>
<path d="M18.4472 11.0833L19.3333 11.0558C20.7114 11.4072 21.6067 9.77554 23 10.1728V13.8333C22.7616 14.0276 22.4595 14.1265 22.1524 14.1107C21.8453 14.0949 21.5549 13.9655 21.3378 13.7478C20.7267 13.2222 20.0544 13.1886 19.3333 13.2222C19.1255 12.8891 18.7711 12.9166 18.4503 12.883C17.8697 12.3055 17.9644 11.6944 18.4472 11.0833Z" fill="#D2DADD"/>
<path d="M7.1325 17.4603C5.78195 15.8286 5.83084 15.2603 7.49306 13.8944C8.13167 13.3689 8.535 12.7822 8.26612 11.9267C7.92084 10.8175 8.54112 11.1231 9.12167 11.3156C9.65773 11.4875 10.1292 11.8177 10.4739 12.2628C10.8186 12.7078 11.0204 13.2469 11.0528 13.8089C11.1781 14.9975 11.3308 16.2869 9.95278 17.0111C9.78778 17.0997 9.68084 17.3167 9.54945 17.4542L7.1325 17.4603Z" fill="#F38BAF"/>
<path d="M18.4472 11.0833V12.8769C17.2678 13.7019 16.2686 14.8172 14.6064 14.7652C13.5278 14.7347 12.7303 14.4597 12.3117 13.4238C11.8472 12.2688 11.8045 11.1597 12.7272 10.1788C13.0781 9.77579 13.5403 9.48556 14.0558 9.34473C14.5713 9.20391 15.1169 9.21877 15.6239 9.38746C16.7483 9.69607 17.3075 10.8663 18.4472 11.0833Z" fill="#F38BAE"/>
</svg>
