<svg width="24" height="24" viewBox="0 0 24 24" fill="none" xmlns="http://www.w3.org/2000/svg">
<path d="M17.4389 6.61609V17.5519C14.9669 15.8072 12.6355 14.1602 10.3011 12.5194C9.86415 12.2139 9.79998 11.9939 10.3011 11.6394C12.6294 10.0383 14.918 8.39747 17.4389 6.61609Z" fill="#556F7A"/>
<path d="M6.62222 12.1527C6.62222 10.6249 6.64361 9.12162 6.62222 7.60607C6.60694 6.90329 6.84527 6.58857 7.58166 6.61301C8.23249 6.6344 8.60833 6.77496 8.60222 7.55412C8.56759 10.5852 8.56759 13.6163 8.60222 16.6474C8.60222 17.4755 8.17749 17.4908 7.56027 17.5213C6.81166 17.561 6.60389 17.2524 6.62222 16.5466C6.64972 15.083 6.62222 13.6163 6.62222 12.1527Z" fill="#5F7581"/>
</svg>
