<svg width="24" height="24" viewBox="0 0 24 24" fill="none" xmlns="http://www.w3.org/2000/svg">
<path d="M15.6484 17.4205C13.0236 18.933 10.2614 18.8353 8.11642 17.1516C7.1153 16.3606 6.37181 15.2899 5.98035 14.0755C5.58889 12.8611 5.5671 11.5577 5.91776 10.3309C6.26842 9.10413 6.9757 8.00918 7.94982 7.1851C8.92394 6.36102 10.121 5.84498 11.3889 5.70248C14.1756 5.34192 16.5834 6.80553 18.1325 9.86109C18.8873 11.1872 18.5236 12.5897 18.4106 13.9739C18.4061 14.6071 18.1911 15.2209 17.7995 15.7186C17.2464 16.4886 16.7759 17.3716 15.6484 17.4205Z" fill="#465B64"/>
<path d="M15.6483 17.4205C16.3653 16.9821 16.9693 16.3813 17.4114 15.6666C17.9247 15.8622 18.1295 16.345 18.432 16.7422C18.5236 16.9072 18.5878 17.0875 18.6917 17.2463C19.5747 18.163 20.4303 19.0797 21.3531 19.9627C21.9061 20.4852 21.8206 20.858 21.3286 21.3438C20.8367 21.8297 20.4822 21.9825 19.9506 21.4019C18.9545 20.305 17.9125 19.2661 16.8889 18.2272C16.5253 17.8788 16.2503 17.39 15.6483 17.4205Z" fill="#6D7E86"/>
<path d="M18.6917 17.2311L18.3861 16.9805C17.7292 16.0914 18.27 15.1044 18.1569 14.1725C18.57 12.7638 18.5615 11.265 18.1325 9.86109C18.7436 8.50748 18.27 7.08053 18.3983 5.69331C18.4564 5.0547 18.3983 4.40692 18.7039 3.76831L18.6917 17.2311Z" fill="#D5D5D5"/>
<path d="M4.44363 20.3111H16.8889V20.4639H4.42224L4.44363 20.3111Z" fill="#BAB7B7"/>
<path d="M16.6658 12.058C16.6834 12.6665 16.5771 13.2722 16.3534 13.8384C16.1298 14.4046 15.7935 14.9195 15.3649 15.3518C14.9363 15.7841 14.4244 16.1248 13.8601 16.3533C13.2959 16.5818 12.6911 16.6933 12.0825 16.6811C11.4734 16.686 10.8694 16.5694 10.3059 16.3382C9.74235 16.107 9.23055 15.7658 8.8004 15.3345C8.37025 14.9032 8.03039 14.3905 7.80067 13.8264C7.57095 13.2622 7.45599 12.6579 7.46251 12.0489C7.48183 10.8475 7.96478 9.70005 8.8104 8.84646C9.65603 7.99286 10.7989 7.49917 12 7.46858C12.6093 7.45761 13.2147 7.56826 13.7807 7.79406C14.3468 8.01986 14.8621 8.35628 15.2966 8.78362C15.731 9.21097 16.0759 9.72067 16.311 10.2829C16.5461 10.8451 16.6668 11.4486 16.6658 12.058Z" fill="#BEDDF4"/>
</svg>
