<svg width="24" height="24" viewBox="0 0 24 24" fill="none" xmlns="http://www.w3.org/2000/svg">
<path d="M8.29364 2.88836C10.9092 2.03892 12.9931 3.61864 14.9548 5.8492C16.7881 7.9392 18.8506 9.82142 20.8489 11.777C21.732 12.6356 21.7228 13.3598 20.8489 14.2214C18.6 16.4214 16.3848 18.6489 14.1786 20.8886C13.3781 21.6984 12.6509 21.7442 11.8442 20.9161C9.09623 18.1376 6.33707 15.3764 3.5667 12.6325C3.32908 12.4101 3.14386 12.1376 3.02444 11.8348C2.90501 11.532 2.85436 11.2065 2.87614 10.8817C2.90975 8.70309 2.93114 6.52142 2.87614 4.34281C2.84253 3.18475 3.32225 2.81503 4.40392 2.87614C5.48559 2.93725 6.63448 2.88836 8.29364 2.88836Z" fill="#A18880"/>
<path d="M19.3334 12.9167C19.1072 13.1948 18.9422 13.4392 18.7222 13.647C17.0539 15.3611 15.3611 17.0173 13.6897 18.7223C13.1397 19.2906 12.7517 19.315 12.2047 18.7223C11.1628 17.61 10.0659 16.5559 8.98724 15.4803C8.34863 14.8417 8.24474 14.2948 9.00558 13.5828C10.6709 12.0214 12.272 10.3898 13.8547 8.74587C14.3864 8.18975 14.7317 8.11337 15.2939 8.72142C16.3939 9.91309 17.5795 11.0253 18.7222 12.1803C18.93 12.4095 19.1011 12.6509 19.3334 12.9167Z" fill="#C8B8B2"/>
<path d="M4.68808 8.78864C4.68808 4.68809 4.68808 4.68198 7.93308 4.69114C9.65947 4.69114 11.4806 4.31226 12.715 6.13642C13.1122 6.72003 13.1917 7.01642 12.6814 7.51448C10.9438 9.21133 9.2266 10.9275 7.52975 12.6631C7.04391 13.1611 6.74753 13.1336 6.15475 12.7242C4.36114 11.4836 4.66669 9.69003 4.68808 8.78864Z" fill="#C7B7B1"/>
<path d="M6.80559 8.00337C6.84531 7.11114 7.26392 6.78114 7.99115 6.80864C8.71837 6.83614 9.27142 7.28531 9.21337 8.0492C9.21043 8.20413 9.17601 8.35684 9.11221 8.49806C9.04841 8.63927 8.95656 8.76603 8.84224 8.87064C8.72791 8.97524 8.59351 9.0555 8.4472 9.10654C8.30089 9.15758 8.14573 9.17833 7.99115 9.16753C7.31892 9.10031 6.73226 8.72142 6.80559 8.00337Z" fill="#FDFDFD"/>
</svg>
