<svg width="24" height="24" viewBox="0 0 24 24" fill="none" xmlns="http://www.w3.org/2000/svg">
<path d="M6.5 16.9102C6.39937 16.8857 6.29733 16.8673 6.19444 16.8552C2.86084 16.7025 2.86084 16.7025 2.86084 13.268V12.2108C2.86084 9.15525 3.40473 8.54415 6.46639 8.27526C7.0775 7.8047 7.81083 7.86581 8.51972 7.8597C10.8083 7.8597 13.103 7.8322 15.3886 7.8597C16.5497 7.87804 17.06 7.4197 17.0203 6.24332C16.9958 5.49776 16.8919 4.69415 17.5366 4.10443C17.943 5.1311 17.6741 6.20054 17.7108 7.24554C17.7353 7.9422 17.8178 8.32415 18.6764 8.40665C20.5464 8.58081 21.1514 9.30803 21.1758 11.1566C21.1941 12.7272 21.1758 14.3008 21.1758 15.8744C21.1758 16.568 20.9619 16.8339 20.2225 16.8797C17.778 17.0233 17.7933 17.0569 17.7108 19.4769C17.6792 19.72 17.6239 19.9595 17.5458 20.1919C16.7605 19.4616 17.0233 18.4961 17.0141 17.6161C16.9714 13.3933 16.9866 13.3933 12.7089 13.3933C11.2911 13.3933 9.87333 13.4208 8.45861 13.3933C7.35555 13.3658 6.90028 13.8364 6.93083 14.9211C6.9675 15.5933 7.05917 16.3358 6.5 16.9102Z" fill="#79919C"/>
<path d="M6.50001 16.9103C6.63751 15.6575 5.97751 14.0258 6.78112 13.2436C7.64279 12.388 9.29279 12.993 10.5944 12.9564C12.5286 12.9044 14.4628 12.9778 16.4 12.9289C17.2708 12.9075 17.555 13.2344 17.5397 14.0778C17.5092 16.1128 17.558 18.1478 17.5733 20.1889C14.2306 20.2103 10.8847 20.2133 7.54196 20.2591C6.76279 20.2591 6.42362 20.0086 6.47557 19.2111C6.52751 18.4136 6.50001 17.6711 6.50001 16.9103Z" fill="#D0D8DC"/>
<path d="M17.5427 4.09527C17.4541 5.44887 18.1202 7.17526 17.2677 8.06748C16.4153 8.9597 14.6675 8.33637 13.3169 8.3547C11.0375 8.38831 8.75499 8.31193 6.47555 8.28137C6.55194 6.87276 5.86444 5.00582 6.74444 4.19304C7.4686 3.51471 9.32943 4.04332 10.6892 4.04943C12.9716 4.05554 15.2572 4.07693 17.5427 4.09527Z" fill="#D1D8DC"/>
<path d="M19.3333 11.0222C19.2814 11.7403 18.9483 12.0428 18.3525 11.9969C17.8422 11.9542 17.4847 11.6761 17.5458 11.1322C17.5497 11.0059 17.5788 10.8817 17.6314 10.7668C17.684 10.652 17.7591 10.5488 17.8522 10.4634C17.9453 10.3779 18.0546 10.312 18.1736 10.2695C18.2925 10.2269 18.4188 10.2086 18.545 10.2156C18.756 10.2196 18.9569 10.3064 19.1044 10.4574C19.2519 10.6083 19.3341 10.8112 19.3333 11.0222Z" fill="#CCD5D9"/>
</svg>
