<svg width="24" height="24" viewBox="0 0 24 24" fill="none" xmlns="http://www.w3.org/2000/svg">
<path d="M21.1117 8.61747C21.127 11.6547 21.1331 14.695 21.1606 17.7322C21.1667 18.9024 20.5983 19.3333 19.4678 19.3333C14.5035 19.3088 9.53929 19.3088 4.57504 19.3333C3.44449 19.3333 2.85477 18.8902 2.86394 17.7291C2.88838 14.588 2.90875 11.4479 2.92505 8.30886C3.8081 8.17441 4.47116 8.72441 5.16477 9.09719C6.89421 10.0291 8.80087 10.6433 10.3439 11.9144C10.8114 12.6905 11.3553 13.4422 11.4623 14.3772C11.4989 14.7225 11.5478 15.138 12.0367 15.1166C12.4186 15.0983 12.495 14.753 12.5531 14.4597C12.7089 13.6897 13.1642 13.0786 13.5798 12.4461C13.9917 11.8124 14.5802 11.3132 15.2725 11.01C16.7178 10.3164 18.1356 9.56774 19.5747 8.87108C20.0483 8.63886 20.5281 8.25386 21.1117 8.61747Z" fill="#AEBDC5"/>
<path d="M2.89754 7.7497C2.74171 5.0761 3.08088 4.69415 5.70254 4.69415C10.1698 4.69415 14.6349 4.69415 19.0981 4.69415C20.5158 4.70332 21.3225 5.27776 21.1667 6.80554C18.7117 8.44777 16.064 9.78186 13.2834 10.7778C12.575 10.6633 11.8528 10.6633 11.1445 10.7778C8.78559 10.3866 6.8667 8.94442 4.76449 8.00026C4.13199 7.7222 3.57282 7.41665 2.89754 7.7497Z" fill="#AEBDC5"/>
<path d="M13.1764 10.5333C15.3336 9.49748 17.5 8.45248 19.6389 7.41665C20.1308 7.18443 20.6472 7.0011 21.1667 6.80554C21.1483 7.41665 21.133 8.01248 21.1178 8.61748C18.9972 9.63498 16.8889 10.6678 14.75 11.6608C14.2886 11.8747 14.1725 12.33 13.8333 12.6264C13.3597 12.0183 13.2222 11.288 13.1764 10.5333Z" fill="#79919D"/>
<path d="M2.89752 7.74972C3.10224 7.01027 3.45058 6.93388 4.16252 7.27305C6.46335 8.36999 8.6114 9.79693 11.0833 10.4905C11.172 11.2392 10.6495 11.6119 10.1667 12.003L2.92502 8.30888L2.89752 7.74972Z" fill="#79909C"/>
<path d="M10.1667 12C10.2186 11.3369 10.7625 10.9764 11.0834 10.4875C11.4072 10.3239 11.7663 10.2422 12.1291 10.2497C12.4919 10.2571 12.8473 10.3535 13.1642 10.5302C13.8517 11.0802 13.8486 11.8502 13.8456 12.6233C13.4178 13.4055 12.7731 14.09 12.9289 15.1197C13.0206 15.685 12.5256 15.7308 12.1009 15.7308C11.6761 15.7308 11.0681 15.8194 11.1659 15.2725C11.4164 13.9586 10.3378 13.1366 10.1667 12Z" fill="#475C65"/>
</svg>
