<svg width="24" height="24" viewBox="0 0 24 24" fill="none" xmlns="http://www.w3.org/2000/svg">
<path d="M12 19.3089C9.92528 19.3089 7.85056 19.3089 5.7789 19.3547C4.99363 19.373 4.74613 19.095 4.70641 18.3066C4.64427 17.6989 4.76855 17.0866 5.06273 16.5512C5.35691 16.0158 5.80705 15.5826 6.35335 15.3091C7.81996 14.5245 9.42764 14.0384 11.0833 13.8792C11.8472 13.9647 12.4278 14.2397 12.3972 15.1503C12.4369 16.0303 12.4278 16.9103 12.4278 17.7903C12.4917 18.3331 12.3379 18.8792 12 19.3089Z" fill="#45B3E6"/>
<path d="M11.9756 12.275C9.94056 11.9695 8.50751 10.5731 8.37612 8.80697C8.28647 7.95098 8.50703 7.09125 8.99769 6.38415C9.48835 5.67704 10.2165 5.16953 11.0497 4.95392C12.6967 4.59031 12.3117 5.83392 12.4278 6.68642C12.4538 7.14132 12.4538 7.59734 12.4278 8.05225V10.4722C12.44 11.1109 12.4706 11.7617 11.9756 12.275Z" fill="#47B4E6"/>
<path d="M12 19.3089V17.8055C12.1528 17.5367 12.3331 17.2372 12.6417 17.2097C14.863 17.0203 17.0967 16.6169 19.2783 17.4725C19.5839 18.9025 19.0797 19.4555 17.5642 19.3486C15.7217 19.2233 13.8517 19.315 12 19.3089Z" fill="#99DBF8"/>
<path d="M19.2905 17.4755C17.4572 17.4755 15.5964 17.4755 13.7478 17.4755C13.1366 17.4755 12.5439 17.4266 12.0122 17.7811V15.0372C14.1114 15.4222 16.3114 14.8294 18.3647 15.6819C18.7986 16.2166 19.5044 16.6077 19.2905 17.4755Z" fill="#5FC4F0"/>
<path d="M18.3647 15.6819C16.7666 15.6819 15.1686 15.6453 13.5705 15.6819C12.9319 15.6819 12.3911 15.6025 12.0122 15.0433C12.1955 14.2642 11.5294 14.1633 11.0955 13.8853C13.708 13.7019 16.2013 14.0228 18.3647 15.6819Z" fill="#9FDAF4"/>
<path d="M12.0153 8.02777V6.82694C12.8341 5.67805 13.9861 6.16083 15.0494 6.21583C15.3843 6.58578 15.6202 7.03446 15.7351 7.52009C15.8499 8.00573 15.8401 8.51253 15.7064 8.99332C14.9799 8.85846 14.2447 8.77676 13.5064 8.74888C12.9166 8.73666 12.3055 8.6786 12.0153 8.02777Z" fill="#9BDAF7"/>
<path d="M12.0153 8.02777C12.7486 8.53499 13.5828 8.2936 14.3803 8.33333C14.9119 8.36999 15.5475 8.18055 15.7064 8.97805C15.7079 9.40278 15.5788 9.81772 15.3366 10.1667C14.2794 10.7778 13.1519 10.7044 12.0153 10.4967V8.02777Z" fill="#60C4F0"/>
<path d="M12.0152 10.4905C13.0725 9.8794 14.2305 10.298 15.3366 10.1605C14.7255 11.6883 13.4025 12.055 11.9755 12.2749C12 11.6944 12 11.0833 12.0152 10.4905Z" fill="#9CD9F5"/>
<path d="M15.0556 6.19444C14.1389 6.92777 12.9167 6.10277 12.0214 6.80555C11.8381 6.10888 12.5133 4.97222 11.0528 4.9325C12.6967 4.36111 13.9983 4.90194 15.0556 6.19444Z" fill="#6BC5EE"/>
</svg>
