<svg width="24" height="24" viewBox="0 0 24 24" fill="none" xmlns="http://www.w3.org/2000/svg">
<path d="M11.9816 16.6016C9.69609 16.6016 7.41359 16.623 5.1311 16.6016C3.63693 16.5833 2.92805 15.8683 2.89749 14.3589C2.86694 12.8494 2.89749 11.3033 2.89749 9.79082C2.89749 8.37915 3.66138 7.54804 5.03638 7.53276C9.75415 7.4798 14.4729 7.4798 19.1927 7.53276C20.4913 7.53276 21.2369 8.28137 21.2186 9.67165C21.1941 11.2972 21.2186 12.9197 21.2186 14.5605C21.2186 15.9019 20.5341 16.62 19.1591 16.6169L11.9816 16.6016Z" fill="#465B64"/>
<path d="M8.37916 13.8333C7.77265 13.8138 7.16552 13.8311 6.56111 13.8853C5.14028 14.0961 4.65139 13.6256 4.66361 12.1069C4.67584 10.5883 4.96917 9.91306 6.57333 10.1942C7.17574 10.2631 7.78216 10.2906 8.38833 10.2767C8.68243 10.8236 8.83561 11.4352 8.83401 12.0562C8.83241 12.6771 8.67608 13.2879 8.37916 13.8333Z" fill="#C33333"/>
<path d="M8.37915 13.8333V10.2766L11.9725 10.2491C12.7089 11.4469 12.6386 12.6447 11.9878 13.8455L8.37915 13.8333Z" fill="#E8C836"/>
<path d="M12 13.8517C12 12.6539 11.9949 11.4551 11.9847 10.2553C12.8463 10.2339 13.7111 10.2553 14.5666 10.1758C15.5505 10.0842 15.7613 10.5395 15.743 11.4194C15.6666 14.4017 15.9722 13.8333 13.3658 13.8975C12.9166 13.9067 12.4552 13.87 12 13.8517Z" fill="#2FB354"/>
<path d="M19.2844 12.1008C19.6206 13.5094 18.9789 13.8241 17.61 13.8914C15.8653 13.9739 16.0119 13.048 15.9203 11.8564C15.8042 10.3469 16.4703 10.188 17.7536 10.1208C19.4036 10.0353 19.4647 10.8908 19.2844 12.1008Z" fill="#364950"/>
</svg>
