<svg width="24" height="24" viewBox="0 0 24 24" fill="none" xmlns="http://www.w3.org/2000/svg">
<path d="M18.3911 20.2198C18.2676 20.5247 18.0489 20.7816 17.7676 20.9523C17.4864 21.1229 17.1575 21.1982 16.83 21.1669C13.6894 21.1465 10.5519 21.1465 7.41746 21.1669C6.10074 21.1669 5.62721 20.4856 5.63332 19.2697C5.63332 17.7422 5.63332 16.2147 5.61194 14.7055C4.84207 12.9641 4.9551 11.2166 5.58444 9.46916C5.60277 8.00274 5.61499 6.53633 5.63943 5.06992C5.66387 3.4141 6.18323 2.87641 7.77795 2.8703C10.6588 2.8703 13.5367 2.8703 16.4176 2.8703C17.3341 2.8703 18.1528 2.98639 18.385 4.09231C18.66 5.76036 18.5164 5.96199 16.8911 6.05058C15.8279 6.10863 14.7526 6.05058 13.6986 6.08419C12.8921 6.09946 12.4766 6.46912 12.4766 7.29092C12.4542 10.4376 12.4542 13.5853 12.4766 16.734C12.4766 17.565 12.9226 17.9071 13.6986 17.9255C14.6609 17.953 15.6263 17.9102 16.5886 17.9591C18.3911 18.0385 18.6813 18.4173 18.3911 20.2198Z" fill="#90A4AE"/>
<path d="M18.3911 20.2198C18.5958 18.8389 18.0611 18.3073 16.6222 18.3868C15.1833 18.4662 13.2892 19.0314 12.3452 18.1515C11.334 17.1953 12.0397 15.2737 12.003 13.7767C11.9389 11.5985 12.0763 9.41109 11.9541 7.23896C11.8778 5.83671 12.3879 5.45788 13.6863 5.58008C14.7403 5.6809 15.8248 5.52509 16.8727 5.6198C18.0947 5.73283 18.5774 5.29291 18.3727 4.09229C19.0418 5.86726 18.5377 7.71249 18.6782 9.52107C18.5377 9.6616 18.4125 9.65243 18.3025 9.49052C17.609 7.84997 17.0255 7.54752 15.1833 7.86219C14.835 7.92023 14.4226 7.93245 14.4287 8.41515C14.4287 8.84285 14.7953 8.98949 15.1497 9.06892C15.6998 9.1489 16.2561 9.17855 16.8116 9.15752C17.4226 9.18196 18.0336 9.13919 18.4827 9.67993C18.8463 10.4009 18.7882 10.9905 17.997 11.3755C17.108 11.6107 16.1945 11.4305 15.2963 11.5313C14.7495 11.5832 14.1385 11.6962 14.5723 12.5303C15.4063 13.0466 16.3198 12.7105 17.1874 12.7991C18.5438 12.9366 18.7516 13.1871 18.5194 14.5863C18.0672 15.1973 17.386 15.1209 16.7444 15.1484C16.1453 15.1233 15.5451 15.152 14.9511 15.234C14.6945 15.289 14.4623 15.4173 14.4867 15.7228C14.4867 15.9519 14.7189 16.0283 14.9083 16.0863C15.5256 16.3243 16.208 16.3317 16.8303 16.1073C17.4526 15.8828 17.9731 15.4415 18.2964 14.8643C18.3339 14.7973 18.3953 14.7469 18.4683 14.7231C18.5414 14.6993 18.6207 14.7039 18.6905 14.736C18.5499 16.5568 19.0571 18.4173 18.3911 20.2198Z" fill="#AFBDC4"/>
<path d="M18.6905 14.7299H18.385L18.4155 14.7513C18.6538 13.459 18.0795 13.0985 16.8361 13.1505C15.8768 13.1871 14.8411 13.4896 13.9246 12.8847C14.7159 12.2737 15.6477 12.5089 16.5153 12.5272C17.5754 12.5517 17.9725 12.1392 17.8045 11.1189C18.7882 10.8958 18.2994 10.1015 18.4155 9.54247H18.4002L18.7057 9.49664C19.5 10.3795 21.0612 11.0486 20.9298 12.1515C20.8198 13.0955 19.4817 13.8806 18.6905 14.7299Z" fill="#3EA2D9"/>
<path d="M5.58443 9.47528L5.61193 14.7116C2.20557 11.3908 2.31861 12.7655 5.58443 9.47528Z" fill="#3DA2DB"/>
<path d="M18.4155 9.55773C17.2546 9.53635 16.0937 9.53329 14.9359 9.49358C14.2454 9.46914 13.8391 9.18807 13.833 8.38155C13.833 7.48337 14.3188 7.41005 14.9939 7.4406C15.4461 7.46198 15.9104 7.4406 16.3565 7.4406C18.495 7.4406 18.495 7.4406 18.4003 9.57912L18.4155 9.55773Z" fill="#2B8BC9"/>
<path d="M18.3881 14.7513C18.7119 16.2788 18.1039 16.8898 16.555 16.6485C15.9039 16.5893 15.2491 16.5822 14.5968 16.6271C13.8574 16.6271 13.8483 16.1413 13.8422 15.6067C13.8361 15.0721 14.0438 14.7513 14.6334 14.7513C15.889 14.7513 17.1477 14.7513 18.4033 14.7513H18.3881Z" fill="#2289C9"/>
<path d="M17.8045 11.1189C18.2964 11.4763 18.6019 11.9284 18.333 12.5425C18.0886 13.1016 17.5418 12.8847 17.111 12.8938C16.0448 12.9183 14.9725 12.8938 13.9124 12.8938C13.5275 11.4213 14.1385 10.902 15.5682 11.0853C16.3125 11.1367 17.059 11.1479 17.8045 11.1189Z" fill="#2089C9"/>
</svg>
