<svg width="24" height="24" viewBox="0 0 24 24" fill="none" xmlns="http://www.w3.org/2000/svg">
<path d="M14.7836 20.91C12.9688 21.3875 11.0601 21.378 9.25002 20.8825C8.4953 19.1744 7.54808 17.5611 7.29447 15.6361C6.86669 12.3667 7.42586 9.3936 9.49752 6.77499L10.1667 6.55194C10.752 6.18707 11.4279 5.99365 12.1177 5.99365C12.8074 5.99365 13.4833 6.18707 14.0686 6.55194L14.7867 6.77805C17.9981 11.4958 17.6742 16.2044 14.7836 20.91Z" fill="#F89733"/>
<path d="M9.50974 6.76886C9.79697 6.99803 9.61669 7.18136 9.47613 7.3983C6.80252 11.5202 6.95835 15.6911 9.21335 19.9261C9.32335 20.1339 10.2492 20.5372 9.26224 20.8825C5.07919 19.868 2.75391 16.9775 2.92502 13.0114C3.09613 9.11553 5.32058 7.00414 9.50974 6.76886Z" fill="#F47D21"/>
<path d="M14.7836 20.91C14.3711 20.6045 14.6186 20.3478 14.805 20.0209C17.2219 15.795 17.5 11.5875 14.6369 7.41668C14.4506 7.14779 14.5667 6.95224 14.7867 6.78113C17.5611 6.93696 19.8314 7.87502 20.8489 10.732C21.9092 13.7081 21.1972 16.8186 18.9453 18.8261C17.791 19.9117 16.3444 20.6361 14.7836 20.91Z" fill="#F47D21"/>
<path d="M14.0686 6.56416L10.1667 6.55194C10.1667 6.40222 10.1942 6.24639 10.1972 6.09972C10.2247 4.0525 11.4409 3.25805 13.3842 3.98528C13.5768 4.04634 13.7438 4.16931 13.8593 4.33508C13.9748 4.50085 14.0322 4.70013 14.0228 4.90194C14.0534 5.455 14.0534 6.00805 14.0686 6.56416Z" fill="#6F5045"/>
</svg>
