<svg width="24" height="24" viewBox="0 0 24 24" fill="none" xmlns="http://www.w3.org/2000/svg">
<path d="M12.1589 2.8975C12.9825 2.90428 13.7941 3.09596 14.5337 3.45838C15.2733 3.8208 15.9221 4.34471 16.4321 4.99142C16.9422 5.63814 17.3004 6.39115 17.4805 7.19486C17.6606 7.99857 17.6578 8.83247 17.4725 9.63498C16.7055 12.8922 14.6705 15.4405 12.6294 17.9552C12.2597 18.4136 11.9144 18.4533 11.5356 17.9736C9.58 15.5108 7.60612 13.0541 6.75973 9.94054C6.51701 9.11091 6.47325 8.23575 6.63201 7.38605C6.79076 6.53634 7.14756 5.73602 7.67346 5.05C8.19936 4.36398 8.87956 3.81157 9.65887 3.43759C10.4382 3.0636 11.2947 2.87857 12.1589 2.8975Z" fill="#7960A9"/>
<path d="M12.0336 21.2033C10.2584 21.2033 8.48003 21.1819 6.70476 21.2033C5.9806 21.2033 5.58643 21.0902 5.61088 20.2194C5.63532 19.4036 6.03865 19.3394 6.67115 19.3394C10.2736 19.3394 13.8792 19.3608 17.4817 19.3394C18.1753 19.3394 18.4747 19.5136 18.4808 20.2561C18.487 20.9986 18.2272 21.2125 17.5153 21.1972C15.6881 21.1666 13.8609 21.2064 12.0336 21.2033Z" fill="#61479C"/>
<path d="M10.3745 8.51357C10.3928 7.37996 10.9856 6.7719 12.0183 6.65885C12.9564 6.55496 13.9128 7.50829 13.8517 8.46468C13.7783 9.5219 13.1611 10.1666 12.1008 10.1666C11.0406 10.1666 10.4295 9.55551 10.3745 8.51357Z" fill="#FAF9FA"/>
</svg>
