<svg width="24" height="24" viewBox="0 0 24 24" fill="none" xmlns="http://www.w3.org/2000/svg">
<path d="M12.3268 5.88885C13.8546 6.87885 15.361 7.88413 16.9101 8.84968C17.3868 9.15524 17.671 9.49135 17.6038 10.0719C17.6038 10.1727 17.6038 10.2736 17.6038 10.3775C17.5304 11.89 18.2332 13.8272 17.3654 14.8141C15.9721 16.3633 14.0196 17.4999 12.0213 18.3585C11.6836 17.913 11.5089 17.3651 11.5263 16.8063C11.5018 13.6836 11.4835 10.5608 11.5263 7.44107C11.5507 6.83913 11.4285 6.07524 12.3268 5.88885Z" fill="#D4302F"/>
<path d="M12.3269 5.88883C11.841 6.338 12.0213 6.93078 12.0213 7.46244C12.0213 11.1016 12.0213 14.7377 12.0213 18.3738C10.188 17.4969 8.66022 16.1952 6.93995 15.1349C6.82604 15.0816 6.72884 14.9983 6.65884 14.8938C6.58884 14.7894 6.54869 14.6678 6.54272 14.5421C6.54272 12.9288 6.54272 11.3145 6.54272 9.6991C6.5478 9.57284 6.5857 9.45007 6.65268 9.34291C6.71965 9.23575 6.8134 9.14789 6.92467 9.08799C8.60216 7.96661 10.2858 6.84828 11.9663 5.74828C12.0244 5.69022 12.2016 5.82467 12.3269 5.88883Z" fill="#DD5B5A"/>
<path d="M2.88829 5.63525C2.88829 2.88525 2.88829 2.88525 5.66578 2.88525C6.27689 2.88525 6.888 2.93109 7.48384 2.88525C8.29661 2.80886 8.52883 3.15414 8.52272 3.92719C8.51661 4.70025 8.21717 4.93247 7.5205 4.84386C7.41875 4.83761 7.3167 4.83761 7.21495 4.84386C4.89579 4.88969 4.88356 4.88969 4.85301 7.25163C4.85301 7.94218 4.90801 8.52885 3.88134 8.53191C2.85468 8.53496 2.83329 8.02774 2.88218 7.30052C2.91579 6.74747 2.88829 6.19441 2.88829 5.63525Z" fill="#D53B33"/>
<path d="M5.65357 21.2033C2.90357 21.2033 2.90357 21.2033 2.90357 18.4533C2.90357 17.8972 2.92496 17.3411 2.90357 16.788C2.84857 16.1158 2.91274 15.6666 3.82024 15.6666C4.80107 15.6666 4.83773 16.1219 4.84079 16.8888C4.84079 19.318 4.87135 19.3333 7.24856 19.3669C7.95745 19.3669 8.5105 19.3486 8.50745 20.3569C8.50439 21.3652 7.92995 21.2277 7.3219 21.2216C6.76579 21.2002 6.20968 21.2033 5.65357 21.2033Z" fill="#D43430"/>
<path d="M18.4502 2.89444C21.2002 2.89444 21.2002 2.89444 21.2002 5.67804C21.2002 6.28915 21.1666 6.90026 21.2002 7.51137C21.246 8.19887 21.0566 8.52276 20.2835 8.50748C19.5105 8.4922 19.266 8.2172 19.3455 7.50831C19.3547 7.35669 19.3547 7.20466 19.3455 7.05304C19.3272 4.85304 19.3272 4.86221 17.0844 4.82554C16.4213 4.82554 15.6574 5.07915 15.6483 3.86916C15.6391 2.65916 16.3938 2.91888 17.063 2.90055C17.5366 2.88527 17.9919 2.89444 18.4502 2.89444Z" fill="#D43430"/>
<path d="M21.2002 18.4838C21.2002 21.2033 21.2002 21.2033 18.4258 21.2033C17.8147 21.2033 17.2035 21.1819 16.5924 21.2033C15.9813 21.2247 15.6391 21.1116 15.6758 20.3844C15.7033 19.7733 15.7308 19.3302 16.5527 19.3394C17.4449 19.3394 18.6519 19.7611 19.1469 19.1286C19.596 18.548 19.3577 17.3991 19.3424 16.5008C19.3424 15.7797 19.6969 15.6911 20.2866 15.6819C20.8763 15.6727 21.2491 15.8011 21.2033 16.5069C21.1666 17.1638 21.2002 17.8238 21.2002 18.4838Z" fill="#D3332F"/>
</svg>
