<svg width="24" height="24" viewBox="0 0 24 24" fill="none" xmlns="http://www.w3.org/2000/svg">
<path d="M12.0978 21.2033C7.05309 21.573 2.78143 16.7544 2.86699 12.1344C2.88158 9.7039 3.84422 7.37505 5.55 5.64359C7.25578 3.91212 9.56999 2.91479 12 2.86388C16.8461 2.74777 21.292 7.14165 21.2981 12.1069C21.292 16.8614 16.8889 21.6097 12.0978 21.2033Z" fill="#485C66"/>
<path d="M8.37 12.0672C8.39444 9.8825 10.0383 8.33334 12.275 8.37306C14.2642 8.41278 15.9722 10.2522 15.905 12.275C15.8439 14.0167 13.9433 15.8928 12.22 15.908C11.7146 15.9101 11.2138 15.8122 10.7464 15.62C10.279 15.4278 9.85418 15.1451 9.49639 14.7881C9.1386 14.4312 8.8549 14.0071 8.66159 13.5401C8.46829 13.0732 8.36919 12.5726 8.37 12.0672Z" fill="#909DA3"/>
</svg>
