<svg width="24" height="24" viewBox="0 0 24 24" fill="none" xmlns="http://www.w3.org/2000/svg">
<path d="M14.75 15.1105L13.2223 15.0372C12.4248 15.3061 11.6609 15.1136 10.8725 14.9272C10.3322 14.7917 9.76237 14.8367 9.25005 15.0555C8.89328 15.1576 8.51935 15.1853 8.15143 15.1369C7.78351 15.0886 7.42944 14.9652 7.11116 14.7744C4.94172 14.0655 3.95784 12.8891 3.87839 10.9061C3.79895 8.92301 4.64228 7.59996 6.75366 6.73829C7.2976 6.47849 7.77595 6.09936 8.15311 5.62913C10.9031 2.71719 15.0648 3.34358 16.8309 6.93996C17.0998 7.49607 17.3534 7.90857 18.0256 8.16218C19.7581 8.80996 20.2684 9.77856 20.25 11.6944C20.2286 13.378 19.2722 14.2672 17.7842 14.7499C17.4786 15.0036 17.0448 14.8172 16.7148 15.0127C16.1422 15.1227 15.5584 15.1627 14.9761 15.1319L14.75 15.1105Z" fill="#3E83C4"/>
<path d="M9.25005 14.8324C10.5762 14.7988 11.9175 14.4841 13.2223 15.0371C13.1367 15.8683 13.5003 16.9988 12 16.8705C11.5845 16.8369 11.1812 16.846 11.1292 16.2869C11.0773 15.7277 11.2912 15.031 10.3012 15.0433C9.31116 15.0555 9.72977 15.9019 9.48532 16.348C9.4456 16.4274 9.34171 16.4702 9.26532 16.5313C9.04297 16.3054 8.91708 16.0019 8.91423 15.685C8.91138 15.368 9.03179 15.0623 9.25005 14.8324Z" fill="#88B4DA"/>
<path d="M9.25009 14.8325V16.5313C8.20204 17.0783 7.34648 17.283 7.41676 15.5963C7.36567 15.309 7.26209 15.0334 7.11121 14.7836L9.25009 14.8325Z" fill="#7EB4E0"/>
<path d="M12.1894 20.2499C11.5783 20.2927 11.0925 20.2499 11.0772 19.4158C11.0619 18.5816 11.4439 18.3952 12.1833 18.4044C12.8617 18.4044 13.2039 18.5877 13.2069 19.3455C13.21 20.1033 12.8494 20.3141 12.1894 20.2499Z" fill="#85B5DE"/>
<path d="M8.38531 20.2499C7.74975 20.3324 7.3892 20.1124 7.41364 19.3333C7.43503 18.7221 7.59698 18.386 8.27836 18.4166C8.95975 18.4471 9.53419 18.4777 9.5403 19.3333C9.55558 20.0666 9.06669 20.2499 8.38531 20.2499Z" fill="#7FB4E0"/>
<path d="M15.7187 20.2285C15.1503 20.2774 14.7103 20.2102 14.7256 19.4708C14.7256 18.8596 14.7714 18.3921 15.5903 18.3983C16.2839 18.3983 16.5987 18.606 16.5803 19.3455C16.565 19.9719 16.3848 20.3141 15.7187 20.2285Z" fill="#7FB2DB"/>
<path d="M16.5834 14.808L17.7751 14.7499C17.5856 15.1502 16.8095 14.9577 16.8859 15.6024C17.0234 16.7299 16.4367 16.9958 15.4651 16.8705C14.1817 16.7024 14.9334 15.7185 14.7501 15.1105V15.0219C15.4773 14.9027 15.2512 15.8285 15.8226 15.9385C16.3848 15.8285 16.1312 15.0555 16.5834 14.808Z" fill="#9FA8BB"/>
<path d="M16.5833 14.808C16.5833 15.1135 16.5833 15.4191 16.5833 15.7246C16.5833 16.1616 16.5192 16.5344 15.9539 16.5649C15.3886 16.5955 15.0372 16.4732 15.0525 15.8438C15.0738 15.6927 15.057 15.5386 15.0036 15.3956C14.9502 15.2526 14.862 15.1252 14.7469 15.0249C15.3092 14.5696 15.9722 14.7988 16.5833 14.808Z" fill="#7CB5E2"/>
</svg>
