<svg width="24" height="24" viewBox="0 0 24 24" fill="none" xmlns="http://www.w3.org/2000/svg">
<path d="M11.0833 10.4722C12.4919 8.82524 14.2183 8.00024 16.4275 8.33329C17.0386 8.43413 17.5214 8.29357 17.4817 7.47468C17.4419 6.6558 17.888 6.68941 18.4289 7.04996C18.4716 7.07746 18.5022 7.1233 18.545 7.1508C21.68 9.24996 21.5516 9.95884 17.5886 11.9236C17.6436 9.5769 15.908 10.5241 14.8142 10.4691C13.5369 10.4019 12.6753 11.4438 12.55 12.9319C12.1008 13.5033 11.8686 14.1969 11.3889 14.7499C11.2881 14.7499 11.1414 14.7499 11.0833 14.8019C9.11862 17.4724 6.24946 16.8338 3.56668 16.8705C3.41683 16.8934 3.26379 16.8599 3.13731 16.7763C3.01082 16.6927 2.91991 16.5651 2.88224 16.4183C2.54002 15.4374 2.96169 14.7652 4.00668 14.7438C4.86835 14.7255 5.73001 14.7438 6.59168 14.7438C8.58084 14.7438 9.21028 14.2794 9.86417 12.2994C10.1256 11.6052 10.5427 10.9801 11.0833 10.4722Z" fill="#92A3AA"/>
<path d="M11.3889 14.7499C11.4317 13.9341 11.5081 13.1336 12.5439 12.9594C13.2559 14.1816 14.1725 14.9608 15.74 14.7927C16.8003 14.6766 18.0928 15.0402 17.2983 12.7791C18.707 13.8119 19.7031 14.5636 20.7267 15.2816C21.1911 15.6086 21.2125 15.8622 20.7542 16.1983C19.7458 16.9377 18.7528 17.6924 17.4817 18.6427C17.7872 16.9408 17.06 16.6597 15.8439 16.8094C13.98 17.0019 12.4828 16.2777 11.3889 14.7499Z" fill="#58707C"/>
<path d="M11.0833 10.4722C10.9397 11.2483 10.6372 11.9144 9.88555 12.2872C9.15222 10.7961 7.97583 10.1758 6.31362 10.3744C5.56806 10.46 4.78584 10.3561 4.0464 10.3958C3.30696 10.4355 2.85474 10.2369 2.85474 9.32024C2.85474 8.40358 3.2764 8.3333 3.97918 8.35775C4.83466 8.41887 5.69341 8.41887 6.54889 8.35775C8.51056 8.14691 9.97722 8.90469 11.0833 10.4722Z" fill="#5B727E"/>
</svg>
