<svg width="24" height="24" viewBox="0 0 24 24" fill="none" xmlns="http://www.w3.org/2000/svg">
<path d="M21.2034 12.0855C21.2034 17.3166 17.2861 21.2125 12.0367 21.2033C10.8417 21.2126 9.65657 20.9855 8.54956 20.5353C7.44254 20.085 6.43544 19.4204 5.58614 18.5796C4.73685 17.7388 4.0621 16.7385 3.6007 15.6361C3.1393 14.5336 2.90034 13.3509 2.89755 12.1558C2.88545 10.9459 3.11301 9.74553 3.56711 8.62398C4.02121 7.50243 4.69286 6.48188 5.54333 5.62119C6.39379 4.7605 7.40624 4.0767 8.52228 3.60923C9.63833 3.14176 10.8359 2.89987 12.0459 2.89751C13.2545 2.88517 14.4533 3.11464 15.5719 3.57239C16.6905 4.03015 17.7063 4.70697 18.5595 5.56304C19.4128 6.4191 20.0862 7.43714 20.5402 8.55727C20.9942 9.6774 21.2197 10.877 21.2034 12.0855Z" fill="#E63C36"/>
<path d="M12 19.3333C8.43422 19.7153 4.70339 15.9875 4.69117 12.1253C4.66672 8.08892 8.13783 4.61782 12.1589 4.69726C16.2686 4.77976 19.4342 8.48309 19.4006 12.1681C19.3639 16.235 15.4161 19.8956 12 19.3333Z" fill="#E84E4B"/>
<path d="M15.6667 12.0214C15.6667 14.1603 14.1878 15.6483 12.0458 15.6606C10.1544 15.6606 8.31806 13.8272 8.37917 11.9542C8.42195 10.2797 10.4844 8.28752 12.1069 8.36085C13.9586 8.4403 15.6667 10.1911 15.6667 12.0214Z" fill="#E63B35"/>
</svg>
