<svg width="24" height="24" viewBox="0 0 24 24" fill="none" xmlns="http://www.w3.org/2000/svg">
<path d="M17.7323 18.4869C17.8759 19.8802 17.3717 20.4119 15.8684 20.2836C13.9503 20.1369 12.0238 20.1369 10.1056 20.2836C8.75508 20.3691 8.15313 19.9566 8.28758 18.5908C8.06294 18.302 7.94482 17.9446 7.95317 17.5789C7.96152 17.2131 8.09583 16.8615 8.33341 16.5833C8.38535 14.1847 8.52897 11.783 8.25397 9.38746C8.05909 9.09829 7.96066 8.75491 7.97273 8.40641C7.9848 8.05792 8.10677 7.72217 8.32119 7.44719C8.15924 5.95608 8.77646 5.46108 10.292 5.58636C12.1552 5.72997 14.0266 5.72997 15.8898 5.58636C17.3656 5.48247 17.9645 5.94385 17.6773 7.41969C17.8888 8.18612 17.9764 8.98142 17.937 9.77551C17.9798 11.9663 17.992 14.1572 17.937 16.3449C17.9933 17.0654 17.924 17.7901 17.7323 18.4869Z" fill="#67BC6B"/>
<path d="M17.7322 18.4869C17.3625 17.8391 17.5611 17.1547 17.5917 16.4794C17.8759 16.1128 18.2945 15.908 18.6397 15.6116C19.0423 15.2844 19.3637 14.8685 19.5787 14.3964C19.7938 13.9242 19.8966 13.4087 19.8791 12.8902C19.8616 12.3717 19.7244 11.8643 19.4781 11.4077C19.2318 10.9511 18.8832 10.5577 18.4595 10.2583C18.1484 10.0891 17.8709 9.86434 17.6406 9.59527C17.4688 8.8845 17.4762 8.14222 17.662 7.435C21.0659 8.61138 22.2117 10.185 22.0864 13.5614C21.9917 16.073 20.5128 17.7444 17.7322 18.4869Z" fill="#EF5525"/>
<path d="M8.30585 7.45638C8.38529 8.10415 8.48613 8.75804 8.24168 9.39665H5.58335C6.30752 10.295 6.25252 10.9244 5.46419 11.4714C4.54752 12.0825 4.32141 11.1291 3.93641 10.7594C1.49197 8.39749 1.56531 8.4311 4.29697 5.68721C5.31141 4.66972 5.63835 5.52833 6.10891 6.07833C6.57946 6.62832 5.56197 6.85443 5.76974 7.45638H8.30585Z" fill="#F2764F"/>
<path d="M8.33339 16.5833C8.45009 17.2423 8.43971 17.9174 8.30283 18.5725C7.49922 18.5725 6.69867 18.5725 5.89812 18.6122C5.14645 18.6458 4.69423 18.5114 4.6759 17.5672C4.66673 16.5833 5.21062 16.5833 5.91339 16.5833C6.71395 16.6139 7.51756 16.5833 8.33339 16.5833Z" fill="#EF7D58"/>
<path d="M16.5833 13.0633C16.5833 15.2633 15.1869 16.6169 12.9472 16.5833C10.8083 16.5619 9.30804 15.0952 9.28054 12.9777C9.24998 11.0833 11.0466 9.24998 12.9533 9.27136C15.1258 9.28053 16.6047 10.8205 16.5833 13.0633Z" fill="#398F43"/>
<path d="M17.6406 9.59528C19.3242 9.98028 20.2561 11.1719 20.2775 12.9564C20.2989 14.7408 19.3792 15.96 17.5917 16.4855C17.608 14.1857 17.6243 11.889 17.6406 9.59528Z" fill="#F5F3F1"/>
</svg>
