<svg width="24" height="24" viewBox="0 0 24 24" fill="none" xmlns="http://www.w3.org/2000/svg">
<path d="M11.8564 11.1719C10.4895 9.76432 9.12266 8.35877 7.75581 6.95525C7.43193 6.6222 7.50831 6.34414 7.81081 6.03859C8.96887 4.90803 10.1116 3.74998 11.2666 2.61026C11.4805 2.39943 11.725 2.15498 12.058 2.30471C12.3911 2.45443 12.3239 2.84248 12.2841 3.10832C12.0305 4.78276 12.498 5.58942 14.3802 6.00803C17.2555 6.64664 19.2936 9.46691 19.3333 12.0336C19.3852 16.3572 17.9186 18.7924 14.5086 20.0513C10.4539 21.5394 5.52221 18.7222 4.80415 14.4872C4.71249 13.9525 4.29999 13.0938 5.38776 12.9288C6.26165 12.7975 6.67415 13.0327 6.8697 14.0686C7.37387 16.7544 9.9497 18.6366 12.4858 18.4166C13.8362 18.2808 15.0911 17.6584 16.0165 16.6655C16.9419 15.6727 17.4746 14.3771 17.5152 13.0205C17.5763 10.735 15.8133 8.48302 13.5644 7.85053C12.6264 7.58775 12.22 7.78636 12.2872 8.80386C12.333 9.50052 12.2872 10.2064 12.2872 10.9061L11.8564 11.1719Z" fill="#91A5AF"/>
</svg>
