<svg width="24" height="24" viewBox="0 0 24 24" fill="none" xmlns="http://www.w3.org/2000/svg">
<path d="M13.8334 1.02136C15.4895 1.57136 17.2495 1.91664 18.5634 3.20302C18.9606 3.59108 19.6389 3.90274 18.9423 4.66663C18.3831 5.25941 18.0042 5.27774 17.3075 4.7858C14.0045 2.45136 10.622 2.42997 7.3159 4.7858C6.52451 5.34802 6.07229 5.17691 5.58034 4.52608C4.96923 3.72552 5.77284 3.4658 6.16701 3.10525C7.30978 2.04192 8.85284 1.74858 10.1667 1.02136H13.8334Z" fill="#86CDF1"/>
<path d="M12.0001 9.30495C15.8653 9.12467 15.8653 9.12467 15.8653 12.9227C15.8653 15.3672 15.7981 17.7963 15.8867 20.2285C15.9417 21.683 15.4467 22.3032 13.9709 22.1077C13.3201 22.0221 12.657 22.0588 11.997 22.0374C11.4226 21.4049 11.5142 20.6135 11.5295 19.8619C11.557 18.2913 11.3798 16.7116 11.6609 15.1502C11.789 14.8213 12.0308 14.5492 12.3423 14.3833C13.7387 13.3963 13.757 12.6294 12.4217 11.5813C12.1621 11.4296 11.9405 11.2206 11.774 10.9702C11.5723 10.3683 11.554 9.803 12.0001 9.30495Z" fill="#57707C"/>
<path d="M12.0001 9.30494V11.0833C11.8848 11.3053 11.7257 11.5018 11.5326 11.6608C10.3103 12.883 10.3317 13.323 11.6395 14.4108C11.7923 14.5391 11.9634 14.646 11.9878 14.866L12.0001 22.0374C7.52062 22.1657 8.44645 22.4041 8.37006 18.6763C8.31812 16.1952 8.37006 13.711 8.37006 11.2269C8.37006 9.31411 8.44034 9.24994 10.3439 9.24689C10.9001 9.24994 11.4562 9.28661 12.0001 9.30494Z" fill="#778C96"/>
<path d="M16.7728 6.42664C16.6689 7.03775 16.2809 7.25164 16.0242 7.54803C15.9786 7.62422 15.9164 7.68919 15.8423 7.73812C15.7681 7.78706 15.684 7.81871 15.596 7.83073C15.508 7.84276 15.4184 7.83486 15.3338 7.80761C15.2493 7.78036 15.172 7.73446 15.1075 7.67331C13.2396 6.35942 11.3645 6.34822 9.48228 7.63969C8.64506 8.21414 8.46784 7.2822 8.07062 6.96442C7.54812 6.54275 8.0859 6.28914 8.37618 6.04775C10.4539 4.24804 14.142 4.25415 16.2503 6.04775C16.4174 6.18355 16.5918 6.31003 16.7728 6.42664Z" fill="#389BD5"/>
<path d="M12 14.8599C10.9214 14.701 10.2645 14.0716 10.2553 12.9899C10.2462 11.9083 11.0253 11.3521 12 11.0833C13.1184 11.3277 13.9678 11.8349 13.8762 13.1549C13.7998 14.2977 13.0359 14.7499 12 14.8599Z" fill="#E43C36"/>
</svg>
