<svg width="24" height="24" viewBox="0 0 24 24" fill="none" xmlns="http://www.w3.org/2000/svg">
<path d="M7.11107 21.3408C6.1944 20.3172 5.32051 19.2752 4.38551 18.2852C3.87523 17.7413 3.97301 17.3197 4.45885 16.8613C4.94468 16.403 5.30829 15.9813 5.76051 15.5749C6.28607 15.1105 6.71385 14.1419 7.33412 14.2794C8.04301 14.4383 7.57857 15.413 7.67329 16.0211C7.76801 16.6291 8.12246 16.6138 8.54412 16.6138C10.9336 16.6138 13.323 16.6138 15.7094 16.6138C16.3725 16.6138 16.6261 16.3511 16.5925 15.6972C16.565 15.138 16.6138 14.5758 16.5925 14.0166C16.5527 13.3047 16.6963 12.8952 17.5702 12.8891C18.4441 12.883 18.7222 13.2527 18.6733 14.0808C18.6122 15.1473 18.6122 16.2165 18.6733 17.283C18.7405 18.3372 18.3677 18.7222 17.2891 18.6977C14.698 18.6336 12.0947 18.7588 9.51579 18.6427C8.08885 18.5816 7.39218 18.9208 7.68246 20.4547C7.6881 20.6424 7.66544 20.8298 7.61523 21.0108L7.11107 21.3408Z" fill="#7C939E"/>
<path d="M17.008 2.88831C17.9614 3.92719 18.9025 4.97831 19.8741 5.99581C20.2653 6.40525 20.3355 6.77803 19.923 7.17525C18.9178 8.14081 17.8972 9.09719 16.8889 10.0414C16.7605 9.92219 16.6353 9.86414 16.6291 9.79386C16.4703 7.72219 16.4733 7.72219 14.2978 7.72219C12.5194 7.72219 10.7411 7.77414 8.96581 7.70386C7.9422 7.66108 7.59081 8.03997 7.69776 9.02081C7.72856 9.5296 7.72856 10.0398 7.69776 10.5486C7.68248 11.3125 7.16303 11.3889 6.54887 11.3889C5.9347 11.3889 5.56498 11.2147 5.61081 10.5333C5.61081 10.3805 5.61081 10.2278 5.61081 10.075C5.68414 8.66331 5.03026 6.87581 5.85831 5.93775C6.68637 4.99969 8.54414 5.67497 9.94053 5.63219C11.615 5.56192 13.3016 5.54358 14.9669 5.63219C16.1891 5.70247 16.8003 5.39692 16.5955 4.06775C16.5707 3.7627 16.5707 3.45614 16.5955 3.15108L17.008 2.88831Z" fill="#97A9B2"/>
</svg>
