<svg width="24" height="24" viewBox="0 0 24 24" fill="none" xmlns="http://www.w3.org/2000/svg">
<path d="M21.185 13.1336C21.3714 15.9722 20.0972 18.1875 18.0225 20.0147C17.5978 20.3875 17.1058 21.3163 16.2931 20.4119C15.4803 19.5075 16.0608 19.0675 16.7422 18.493C18.8505 16.7086 19.7275 14.3741 19.1867 11.6852C18.6458 8.99636 17.0936 6.88803 14.3253 6.15164C10.8572 5.23498 7.60307 6.21581 5.79113 9.39664C4.95898 10.87 4.66197 12.5858 4.95044 14.2532C5.23892 15.9205 6.09512 17.4368 7.3739 18.545C7.71918 18.8505 8.35473 18.9544 8.26918 19.6388C8.15001 20.6258 7.39223 20.9649 6.56724 20.3905C3.31308 18.1111 2.01141 13.5736 3.4903 9.63803C4.90196 5.88887 8.98112 3.47498 12.9167 3.83554C17.9675 4.29998 21.6708 8.97192 21.185 13.1336Z" fill="#3DC2D7"/>
<path d="M12.0001 7.41667C13.1469 7.37608 14.2771 7.6999 15.2285 8.34164C16.1799 8.98338 16.9034 9.91004 17.2953 10.9886C17.7266 12.0195 17.8238 13.1597 17.5733 14.2488C17.3229 15.3379 16.7373 16.321 15.899 17.06C15.5262 17.4083 15.1626 18.0866 14.5454 17.4114C14.0106 16.8247 13.6042 16.1892 14.4781 15.4955C14.9187 15.1451 15.2576 14.6833 15.4596 14.1579C15.6616 13.6324 15.7194 13.0625 15.627 12.5072C15.5353 11.7689 15.2048 11.0809 14.6856 10.548C14.1665 10.0151 13.4874 9.66654 12.7517 9.55555C11.224 9.29889 9.7298 9.92833 9.08508 11.1078C8.71166 11.7709 8.54608 12.531 8.60983 13.2894C8.67357 14.0478 8.9637 14.7696 9.44258 15.3611C9.66383 15.5676 9.86254 15.7971 10.0354 16.0455C10.3715 16.6933 9.81841 17.0966 9.50064 17.5091C9.18286 17.9216 8.88953 17.5091 8.62064 17.3014C6.89425 15.9722 6.02953 13.3933 6.66203 11.4653C7.45036 9.06972 9.59842 7.43806 12.0001 7.41667Z" fill="#8AD3E1"/>
<path d="M12.1833 11.0833C13.2344 11.2697 14.0167 11.8258 14.0472 12.9166C14.093 14.0808 13.3505 14.7989 12.2139 14.9516C11.2361 15.0861 10.13 13.9128 10.2522 12.8891C10.3928 11.8105 11.1108 11.2514 12.1833 11.0833Z" fill="#46C2D6"/>
</svg>
