<svg width="24" height="24" viewBox="0 0 24 24" fill="none" xmlns="http://www.w3.org/2000/svg">
<path d="M19.422 18.6641C17.5153 15.8224 15.0372 14.2305 11.6945 14.0624C10.5975 14.0074 10.2431 14.368 10.3653 15.4191C10.4108 16.2016 10.4159 16.9858 10.3806 17.7688C7.95142 15.5047 5.82476 13.5277 3.6981 11.5355C3.34365 11.2024 3.46587 10.9458 3.77754 10.6555C5.68115 8.90162 7.56642 7.1294 9.47003 5.37246C9.6442 5.21051 9.91614 4.99968 10.1025 5.03329C10.4967 5.11274 10.4081 5.53135 10.3592 5.79107C9.95892 7.77412 10.9 8.45551 12.7517 9.02384C16.562 10.1911 18.7497 12.9961 19.3211 16.9683C19.3945 17.4999 19.8895 17.946 19.422 18.6641Z" fill="#556F7B"/>
</svg>
