<svg width="24" height="24" viewBox="0 0 24 24" fill="none" xmlns="http://www.w3.org/2000/svg">
<path d="M2.0022 22.0619V9.55556C4.29997 9.23167 6.60691 9.4425 8.9108 9.42722C10.8633 9.42722 12.825 9.26223 14.7744 9.525C14.9638 13.7111 14.9913 17.8942 14.7744 22.0803C11.1077 22.3858 7.44108 22.1444 3.79275 22.2116C3.19081 22.2116 2.57359 22.3583 2.0022 22.0619Z" fill="#8992C9"/>
<path d="M11.2727 5.79416H5.84601C5.50379 6.21888 5.95601 6.32888 6.07823 6.54583C6.46934 7.23333 5.7574 7.39222 5.49767 7.76805C5.1524 8.24471 4.81629 8.02166 4.50768 7.68555C4.33657 7.49916 4.15018 7.32499 3.9699 7.14472C1.57129 4.75222 1.55296 4.73389 3.9699 2.41778C4.33962 2.06028 4.55962 1.06723 5.49767 1.75167C6.29517 2.34445 6.34712 2.97389 5.49767 3.74083H11.4988C10.8174 3.09 10.3102 2.57361 11.2207 1.87695C11.7524 1.4675 12.0549 1.44306 12.4429 1.935C12.5769 2.08788 12.7198 2.23276 12.8707 2.36889C15.3152 4.79194 15.3152 4.81333 12.8157 7.23027C12.4399 7.59388 12.1618 8.55333 11.2879 7.72833C10.5607 7.02249 10.5118 6.95222 11.2727 5.79416Z" fill="#434FA1"/>
<path d="M20.3721 12.6936V18.4441C20.9832 18.7986 21.1574 17.5275 21.7807 18.0836C22.3582 18.6122 23.0885 19.0003 22.1077 19.9689C19.4402 22.6455 19.483 22.7189 16.8643 20.0055C16.516 19.645 15.7338 19.3944 16.458 18.5847C17.1332 17.8208 17.6435 17.8911 18.438 18.9147V12.6569C17.5488 13.7661 16.9346 13.5125 16.3541 12.773C16.1432 12.5042 15.9874 12.3055 16.2777 12C17.3013 11.0192 18.1813 9.65944 19.4005 9.19805C20.1155 8.92917 20.9954 10.5119 21.7654 11.2881C22.1657 11.6914 23.1496 11.9358 22.3307 12.9442C21.5791 13.8792 21.0902 13.2528 20.3721 12.6936Z" fill="#424FA2"/>
<path d="M14.7163 9.55556H1.99915C2.1122 9.25 2.37192 9.25 2.61026 9.25L14.7225 9.305C14.8172 9.36611 14.8447 9.42111 14.8111 9.47306C14.7775 9.525 14.75 9.55556 14.7163 9.55556Z" fill="#8788AB"/>
<path d="M14.7163 9.55554C14.7239 9.47424 14.7239 9.3924 14.7163 9.3111C15.0708 9.46998 15.0219 9.79082 15.0219 10.0872C15.0219 13.817 15.0219 17.5478 15.0219 21.2797C15.0219 21.5852 15.0524 21.8908 14.7346 22.0802C14.7448 17.9064 14.7387 13.7315 14.7163 9.55554Z" fill="#ABA8AF"/>
<path d="M2.0022 22.0619L14.75 22.0833C14.5697 22.4102 14.2519 22.3888 13.9555 22.3888H2.77831C2.48803 22.3674 2.16109 22.4194 2.0022 22.0619Z" fill="#A09CAA"/>
</svg>
