<svg width="24" height="24" viewBox="0 0 24 24" fill="none" xmlns="http://www.w3.org/2000/svg">
<path d="M11.3553 12.1528C11.3553 13.6286 11.337 15.1014 11.3553 16.5742C11.3553 17.3228 11.2056 17.723 10.4386 17.1516C8.45558 15.6667 6.48169 14.1389 4.48336 12.6722C3.87225 12.2261 3.99753 11.8594 4.48336 11.4806C6.44808 10.02 8.40363 8.57473 10.35 7.11112C11.227 6.45418 11.3645 6.94001 11.3583 7.72223C11.3461 9.20417 11.3553 10.68 11.3553 12.1528Z" fill="#79919D"/>
<path d="M20.195 6.60083V17.5672C17.8698 15.8164 15.7095 14.2061 13.5553 12.5653C13.0237 12.165 13.2284 11.7983 13.6592 11.4744L20.195 6.60083Z" fill="#79909C"/>
</svg>
