<svg width="24" height="24" viewBox="0 0 24 24" fill="none" xmlns="http://www.w3.org/2000/svg">
<path d="M5.66577 19.9261C5.66577 14.7989 5.61688 9.67168 5.63522 4.54447C5.6287 4.21257 5.6886 3.88273 5.8114 3.57432C5.9342 3.26592 6.11742 2.98518 6.35029 2.74861C6.58316 2.51203 6.86098 2.32441 7.16741 2.19676C7.47384 2.06911 7.8027 2.00402 8.13466 2.0053C10.7828 1.94623 13.4238 1.94623 16.0577 2.0053C17.561 2.03586 18.4074 2.92197 18.4135 4.40086C18.4319 8.76724 18.4135 13.1336 18.3891 17.5C16.9683 17.9553 16.5191 17.7017 16.4794 16.2319C16.403 13.1764 16.4794 10.1422 16.4488 7.09891C16.4488 6.50307 16.5802 5.87669 16.0149 5.40919C13.6163 4.88058 11.1933 5.19835 8.78549 5.2228C7.86882 5.2228 7.9116 6.06307 7.90855 6.7078C7.89327 9.18279 7.89327 11.6547 7.88716 14.1297C7.88716 15.1839 8.03382 16.2533 7.67632 17.2831C6.46327 17.7475 6.49994 19.1744 5.66577 19.9261Z" fill="#93A6B0"/>
<path d="M16.5497 4.72778C17.1149 5.14639 16.8552 5.75445 16.8552 6.27389C16.8797 9.51277 16.9224 12.7547 16.8399 15.9905C16.8063 17.2128 17.2036 17.6711 18.3677 17.4969C18.3861 18.108 18.4227 18.7191 18.4166 19.315C18.3891 21.3041 17.6405 22.065 15.688 22.065C13.3108 22.0803 10.9275 22.0008 8.55329 22.0925C6.9033 22.1597 5.98052 21.4814 5.64441 19.9108C5.76332 19.7811 5.84796 19.6237 5.89065 19.4529C5.93333 19.2822 5.93272 19.1035 5.88885 18.933C5.67191 17.6253 6.37163 17.3564 7.45635 17.4847C8.03996 16.95 8.77329 17.0294 9.47607 17.0203C11.1475 16.9989 12.8372 16.9775 14.4902 17.0203C15.6605 17.0539 16.1188 16.5772 16.1036 15.413C16.0699 12.5255 16.0852 9.635 16.1036 6.7475C16.128 6.04778 16.0211 5.32056 16.5497 4.72778Z" fill="#78909C"/>
<path d="M16.5496 4.7278C16.568 8.61752 16.571 12.5103 16.623 16.4031C16.623 17.2494 16.3602 17.5581 15.4955 17.5397C12.8188 17.5 10.1391 17.5 7.45938 17.5C7.45938 13.6958 7.48994 9.89168 7.43494 6.09058C7.43494 5.04253 7.70077 4.66975 8.7916 4.70336C11.3888 4.76753 13.9646 4.72169 16.5496 4.7278Z" fill="#404DA1"/>
<path d="M12.1557 20.4058C11.4804 20.0361 10.3224 20.7725 10.3224 19.7947C10.3224 18.8994 11.4743 19.3853 12.0946 19.3608C12.7149 19.3364 13.7507 18.9575 13.7599 19.7458C13.7752 20.8764 12.611 19.9169 12.1557 20.4058Z" fill="#F0F1F2"/>
<path d="M11.1016 15.7155C10.412 15.7046 9.75128 15.4367 9.24884 14.9642C8.7464 14.4918 8.43843 13.8487 8.38523 13.1611C8.30578 11.725 9.418 10.2492 10.9213 10.2797C12.1619 10.3072 12.0824 9.7236 12.0397 8.93527C12.0336 8.88453 12.0336 8.83323 12.0397 8.78249C12.1711 8.06444 11.6272 6.99194 12.3849 6.68944C13.2191 6.35944 14.2824 6.55194 15.2419 6.59777C15.8163 6.62527 15.7094 7.15999 15.7247 7.54805C15.7399 7.9361 15.6758 8.42499 15.1135 8.3761C13.8761 8.2661 13.8577 9.03916 13.8913 9.92832C13.9249 10.9917 13.9372 12.0672 13.8913 13.1275C13.7997 14.75 12.7088 15.74 11.1016 15.7155Z" fill="#A0A8D5"/>
</svg>
