<svg width="24" height="24" viewBox="0 0 24 24" fill="none" xmlns="http://www.w3.org/2000/svg">
<path d="M12 20.195H2.22229C2.42701 19.2783 2.98312 18.6 3.40173 17.8758C6.07534 13.2222 8.78255 8.59916 11.4348 3.93945C12.0275 2.89445 12.3331 2.99528 12.6356 4.05556C12.2323 5.41833 12.5073 6.80555 12.4309 8.19583C12.3973 8.83749 12.4767 9.48832 12.1987 10.0994C11.4989 10.8114 11.4103 11.6944 11.5295 12.6111C11.5662 12.9166 11.6212 13.2528 12.0428 13.2008C12.3484 13.1641 12.3973 12.8953 12.4584 12.6416C12.6631 11.7983 12.1864 10.8083 13.0145 10.0994C13.8884 11.2178 13.9312 13.2864 13.0603 14.3772C12.7636 14.7155 12.5034 15.0842 12.2842 15.4772C12.165 15.6391 12.3209 15.4314 12.2109 15.6025C11.9848 15.96 11.4867 16.183 11.6364 16.7269C11.6553 16.8009 11.7012 16.8652 11.7651 16.9071C11.829 16.9489 11.9063 16.9653 11.9817 16.953C12.5928 16.8797 12.4859 16.2991 12.6845 15.9386C12.7853 15.7522 12.8984 15.6116 13.1275 15.633C13.2687 15.7372 13.3878 15.8681 13.4782 16.0184C13.5686 16.1687 13.6284 16.3353 13.6542 16.5088C13.6801 16.6822 13.6714 16.8591 13.6287 17.0292C13.5861 17.1993 13.5102 17.3592 13.4056 17.5C12.7212 18.3097 12.4981 19.3089 12 20.195Z" fill="#E74E4B"/>
<path d="M12 15.6299C12 14.9547 11.8136 14.2427 12.8494 14.0441C13.4055 13.9372 13.2589 13.2925 13.2161 12.88C13.1153 11.9847 13.5919 11.0038 12.8555 10.1972C12.7972 10.2527 12.728 10.2955 12.6523 10.323C12.5766 10.3505 12.4961 10.362 12.4157 10.3569C12.3354 10.3517 12.2569 10.33 12.1854 10.293C12.1138 10.2561 12.0507 10.2047 12 10.1422C12 8.36691 12 6.59469 12 4.81942C12 4.43442 11.7739 3.77747 12.6111 4.05553C15.7522 9.37524 18.8933 14.6949 22.1444 20.1949H12C12.0978 19.2141 11.5539 18.0561 13.0511 17.4938C13.4147 17.3594 13.5094 16.2472 12.8616 15.6849C12.8039 15.7428 12.7345 15.7877 12.6581 15.8166C12.5816 15.8455 12.4999 15.8577 12.4184 15.8525C12.3368 15.8473 12.2573 15.8248 12.1851 15.7864C12.113 15.748 12.0499 15.6947 12 15.6299Z" fill="#E63B35"/>
<path d="M12.0001 10.1422L12.8587 10.1972C12.9168 11.0833 12.9168 12 12.9931 12.8953C13.0665 13.7172 12.6876 13.9128 11.9359 13.925C11.0834 13.925 11.0987 13.4208 11.1079 12.8341C11.1384 12.2316 11.1384 11.6278 11.1079 11.0253C11.0437 10.3225 11.4501 10.1667 12.0001 10.1422Z" fill="#F9D5D4"/>
<path d="M12 15.63L12.8556 15.685C12.8556 16.3144 13.4392 17.1241 12.5072 17.4725C12.0978 17.6283 11.3248 17.8758 11.1475 17.0936C11.007 16.4428 10.8817 15.6239 12 15.63Z" fill="#F9D2D1"/>
</svg>
