<svg width="24" height="24" viewBox="0 0 24 24" fill="none" xmlns="http://www.w3.org/2000/svg">
<path d="M12.8281 13.9678C11.0833 15.138 11.3889 16.623 12 18.2272C12.1253 18.5541 12.8036 19.2172 11.8656 19.4219C11.2117 19.5625 10.5058 19.7275 10.1392 18.7191C9.4364 16.7942 8.91696 14.973 10.7228 13.3292C11.3981 12.718 11.1628 12.3178 10.3653 11.9267C8.39751 10.9733 8.4189 10.9305 7.14474 12.6111C5.77585 14.423 5.46113 14.42 4.23586 12.5836C4.00071 12.1916 3.74364 11.8131 3.46586 11.45C3.01058 10.9122 3.18169 10.5792 3.72252 10.2461C4.21752 9.94055 4.68197 9.54639 5.06391 10.3469C5.58946 11.4439 5.98057 10.9978 6.49391 10.2981C7.6214 8.73361 8.84974 7.2425 9.94973 5.65056C10.5608 4.77667 11.1903 4.55667 12.1283 5.03945C12.8525 5.40611 13.5981 5.73611 14.3497 6.04472C14.9333 6.28611 15.3122 6.50917 14.9333 7.26694C14.6094 7.91472 14.3497 8.29055 13.5828 7.82917C13.0664 7.52361 12.4645 7.34639 11.9175 7.08056C11.3706 6.81472 11.2086 7.25167 10.9764 7.56028C10.5792 8.08889 11.1231 8.19889 11.3828 8.26611C14.5147 9.06055 15.3611 11.1994 14.8631 14.1389C14.7838 14.4615 14.8259 14.802 14.9814 15.0955C15.1369 15.3891 15.395 15.6152 15.7064 15.7308C16.3878 16.0608 16.9775 16.5772 17.6467 16.9317C18.3158 17.2861 18.4106 17.6039 17.9767 18.2272C17.6161 18.7436 17.3656 19.0919 16.6872 18.6244C15.6893 17.9253 14.6561 17.2777 13.5919 16.6842C12.3942 16.0211 13.2742 14.8172 12.8281 13.9678Z" fill="#5E4FA1"/>
<path d="M7.52363 7.41662C7.47474 8.62356 6.56113 9.47301 5.51002 9.33551C4.45891 9.19801 3.78363 8.54412 3.78669 7.41662C3.79388 7.16538 3.85266 6.9183 3.95937 6.69073C4.06608 6.46316 4.21844 6.25996 4.40699 6.09376C4.59554 5.92756 4.81626 5.80191 5.05542 5.7246C5.29458 5.6473 5.54708 5.62 5.79724 5.6444C6.91863 5.76968 7.45946 6.46329 7.52363 7.41662Z" fill="#6051A2"/>
<path d="M19.8925 17.1944C20.4089 17.2983 20.7236 17.6038 20.6961 18.1111C20.7005 18.226 20.6783 18.3404 20.6312 18.4454C20.5842 18.5504 20.5137 18.6432 20.425 18.7164C20.3363 18.7897 20.232 18.8416 20.12 18.868C20.008 18.8945 19.8915 18.8947 19.7794 18.8688C19.678 18.8671 19.5779 18.8445 19.4856 18.8025C19.3932 18.7605 19.3105 18.6999 19.2426 18.6245C19.1747 18.5491 19.123 18.4606 19.0907 18.3644C19.0585 18.2681 19.0464 18.1663 19.0553 18.0652C19.0512 17.8388 19.137 17.62 19.2939 17.4568C19.4509 17.2936 19.6661 17.1992 19.8925 17.1944Z" fill="#8167AD"/>
<path d="M19.8833 19.8222C19.7916 20.3691 19.4891 20.6869 19.0003 20.7174C18.8883 20.7363 18.7734 20.7294 18.6645 20.6974C18.5555 20.6653 18.4553 20.6088 18.3714 20.5323C18.2875 20.4557 18.2221 20.3611 18.1802 20.2555C18.1382 20.15 18.1209 20.0363 18.1294 19.923C18.1158 19.811 18.1269 19.6974 18.1621 19.5902C18.1972 19.4831 18.2554 19.3849 18.3327 19.3027C18.4099 19.2205 18.5043 19.1563 18.6091 19.1146C18.7139 19.0729 18.8265 19.0547 18.9391 19.0613C19.4678 19.0491 19.7153 19.4097 19.8833 19.8222Z" fill="#876FB0"/>
<path d="M11.4195 20.4272C11.6364 20.3172 11.8625 20.2194 12.0703 20.0941C12.2322 19.9712 12.4362 19.9174 12.6377 19.9443C12.8391 19.9712 13.0218 20.0767 13.1458 20.2377C13.2791 20.3545 13.3664 20.5148 13.3921 20.6901C13.4179 20.8653 13.3804 21.044 13.2864 21.1941C13.0267 21.5974 12.6142 21.5791 12.2139 21.4783C11.9328 21.4049 11.6639 21.2827 11.3889 21.1727C11.2958 21.069 11.2469 20.933 11.2526 20.7937C11.2583 20.6545 11.3182 20.5229 11.4195 20.4272Z" fill="#8268AE"/>
<path d="M11.4194 20.4272C11.4194 20.6778 11.3981 20.9314 11.3889 21.1819C10.9428 21.7197 10.4233 21.6739 10.0139 21.2186C9.70833 20.8886 9.86111 20.4517 10.2064 20.1675C10.6983 19.7642 11.1108 19.8925 11.4194 20.4272Z" fill="#8267AD"/>
</svg>
