<svg width="24" height="24" viewBox="0 0 24 24" fill="none" xmlns="http://www.w3.org/2000/svg">
<path d="M11.8625 11.1444C10.5211 9.77859 9.18889 8.39443 7.83834 7.04388C7.48084 6.68638 7.45028 6.3961 7.83834 6.02638C8.99945 4.89277 10.1361 3.73777 11.2911 2.595C11.505 2.38417 11.7556 2.14583 12.0825 2.31083C12.4094 2.47583 12.2597 2.83333 12.3056 3.13889C12.3269 3.28989 12.3269 3.44316 12.3056 3.59416C12.0825 4.92944 12.4919 5.59555 13.9739 5.87666C16.4917 6.35638 18.0989 8.10415 19.0797 10.4203C19.3425 11.0314 19.7764 11.8747 18.8841 12.2353C18.0897 12.5561 17.4114 12.3178 17.0997 11.2239C16.6169 9.53109 15.468 8.39443 13.6744 7.89943C12.6753 7.62443 12.2292 7.73137 12.3025 8.85887C12.3453 9.54943 12.3025 10.243 12.3025 10.9366L11.8625 11.1444Z" fill="#92A5AF"/>
<path d="M11.3889 19.373C11.5111 20.0972 11.0833 20.2591 10.405 20.2377C7.90862 20.1644 4.52002 16.2655 4.7339 13.7202C4.78279 13.1458 4.9814 12.8616 5.55585 12.9227C6.01418 12.9716 6.65584 12.6936 6.75973 13.4758C7.08668 15.9447 8.44028 17.5 10.8419 18.1875C11.3247 18.328 11.3889 18.603 11.3889 19.373Z" fill="#93A6B0"/>
<path d="M12.9167 19.373C12.9167 18.7619 12.9472 18.2975 13.6836 18.0867C15.4467 17.5794 16.6811 16.4336 17.1639 14.6369C17.445 13.595 18.215 13.7753 18.8475 13.9036C19.6816 14.0717 19.3455 14.7958 19.1897 15.2633C18.3586 17.7078 16.6169 19.3089 14.2092 20.1522C13.595 20.3691 12.828 20.4364 12.9167 19.373Z" fill="#93A6B0"/>
</svg>
