<svg width="24" height="24" viewBox="0 0 24 24" fill="none" xmlns="http://www.w3.org/2000/svg">
<path d="M12 21.133C8.05835 21.353 5.45196 19.3333 3.78669 16.018C2.04502 12.5683 2.54613 9.16444 4.95696 6.24028C7.23029 3.49028 10.2645 2.32306 13.8822 3.10223C12.9319 3.60028 12.0489 4.09528 12.437 5.46417C12.6264 6.12722 13.4911 6.09972 13.5706 6.78722C13.1 7.31889 12.4553 7.18139 11.8595 7.22111C9.22557 7.39222 7.39835 9.10027 7.21807 11.5753C7.0164 14.3589 8.58696 16.4642 11.2575 17.0111C11.8381 17.1303 12.5011 17.0111 12.9656 17.5153C12.2445 18.6122 12.6783 20.0208 12 21.133Z" fill="#967AB7"/>
<path d="M12 21.1331C12.0362 20.4743 12.0281 19.8138 11.9756 19.1561C11.8564 18.3219 12.2139 17.8361 12.9167 17.5C13.1825 17.005 13.7172 16.9072 14.1389 16.6658C17.9583 14.5575 18.1417 10.0628 14.5056 7.67336C14.1389 7.43197 13.6561 7.3128 13.5278 6.80558C12.8678 6.39308 11.8747 6.5428 11.9297 5.14642C11.9878 3.65531 12.2903 2.89142 13.8914 3.10531C18.878 4.09225 21.9397 8.51669 21.0994 13.867C20.36 18.5694 15.5353 21.7564 12 21.1331Z" fill="#785DA8"/>
</svg>
