<svg width="24" height="24" viewBox="0 0 24 24" fill="none" xmlns="http://www.w3.org/2000/svg">
<path d="M15.7277 20.8304C15.7889 19.8649 15.4741 19.3943 14.3711 19.4951C13.1163 19.596 11.8554 19.596 10.6006 19.4951C9.36306 19.4096 8.39445 19.5379 8.33945 21.0718C7.90251 20.4607 7.72834 19.6724 6.63446 19.6693C5.54058 19.6663 5.44586 20.5554 4.99058 21.136C4.62086 20.256 4.56586 19.211 3.37726 18.826C2.92198 18.6763 2.88837 17.9979 2.89143 17.4754C2.89143 16.4182 2.91281 15.361 2.89143 14.3038C2.86393 12.9349 3.39253 12.0244 4.8653 12.0305C5.65058 12.0305 5.62002 11.6119 5.61697 11.0802C5.61697 9.85798 5.61697 8.66326 5.6353 7.45327C6.27085 6.93688 6.89113 6.90632 7.46862 7.52354C6.14252 8.54104 6.02335 9.83047 6.61307 11.5141C7.38918 10.2552 6.66196 8.94437 7.29446 7.89326C7.38791 7.77488 7.49925 7.6718 7.62446 7.58771C7.66418 9.00242 7.16613 10.8969 7.88418 11.7005C8.72445 12.6385 10.6586 11.9571 12.1161 12.006C14.4016 12.058 16.6994 12.006 18.9758 12.0244C20.6655 12.0244 21.1697 12.5377 21.1941 14.1632C21.1941 15.2296 21.1758 16.3021 21.1941 17.3624C21.2155 18.2454 21.0383 19.0429 20.1124 19.321C19.1072 19.6265 19.8558 20.6288 19.3027 21.0718C18.658 19.4432 17.5855 19.0093 15.7277 20.8304Z" fill="#475B65"/>
<path d="M7.63362 7.59689C7.5936 7.65601 7.53414 7.69925 7.46557 7.71911L7.45029 7.69466C6.89418 7.23022 6.22807 7.56022 5.63224 7.45328C4.33669 6.85745 3.65531 5.8369 3.79892 4.42829C3.84536 3.89188 4.05774 3.38325 4.40656 2.97311C4.75538 2.56296 5.2233 2.27166 5.7453 2.13969C6.96751 1.76081 7.94529 2.09997 8.74889 3.03802C9.5525 3.97607 9.48528 5.7544 8.62667 6.68023C8.33334 7.01022 7.96973 7.29439 7.63362 7.59689Z" fill="#47C3D7"/>
<path d="M15.7278 20.8304C15.8137 20.5147 15.9671 20.2213 16.1774 19.9706C16.3877 19.7199 16.65 19.5179 16.946 19.3784C17.2421 19.239 17.5648 19.1654 17.8921 19.1629C18.2193 19.1604 18.5432 19.2289 18.8413 19.3638C19.6663 19.7243 19.1469 20.5096 19.3211 21.0779C18.1111 21.1665 16.8889 21.5576 15.7278 20.8304Z" fill="#3A4A51"/>
<path d="M4.99058 21.136C4.91419 20.0635 4.89891 19.2385 6.48168 19.2568C7.90251 19.2752 8.56251 19.6021 8.33945 21.0902C7.22724 21.3102 6.10891 21.2093 4.99058 21.136Z" fill="#35464F"/>
<path d="M12.0825 16.6168C10.0078 16.6168 7.93306 16.6168 5.85835 16.6168C5.1953 16.6168 4.68808 16.6168 4.69419 15.7002C4.7003 14.7835 5.21363 14.7835 5.87363 14.7835C10.0231 14.7835 14.1725 14.8018 18.3219 14.7835C19.0736 14.7835 19.428 14.973 19.4127 15.801C19.3974 16.6291 18.8994 16.6382 18.3097 16.6352C16.235 16.6107 14.1603 16.6168 12.0825 16.6168Z" fill="#3BBFD4"/>
<path d="M4.89586 17.014H19.1163V17.3196H4.89891L4.89586 17.014Z" fill="#365159"/>
<path d="M7.46557 7.72217C7.44724 8.83133 7.41668 9.94049 7.41668 11.0527C7.41668 11.5355 7.37696 11.9694 6.72308 11.9938C6.00502 12.0213 5.89197 11.5905 5.90419 11.0222C5.95005 10.467 5.95005 9.90899 5.90419 9.35383C5.72391 8.11022 6.20974 7.56328 7.46252 7.69467L7.46557 7.72217Z" fill="#414E56"/>
<path d="M6.5764 6.49997C5.42141 6.58553 4.93252 5.83081 4.74308 4.88665C4.58724 4.06776 5.81863 2.78444 6.65585 2.90971C7.59695 3.05332 8.36084 3.52082 8.33639 4.67581C8.34502 4.91228 8.30587 5.14806 8.2213 5.36906C8.13672 5.59005 8.00845 5.79172 7.84415 5.96201C7.67985 6.13229 7.4829 6.2677 7.26508 6.36014C7.04725 6.45257 6.81303 6.50013 6.5764 6.49997Z" fill="#86D3E1"/>
</svg>
