<svg width="24" height="24" viewBox="0 0 24 24" fill="none" xmlns="http://www.w3.org/2000/svg">
<path d="M12.5133 15.1319C11.0131 16.1769 10.0047 16.9958 10.7258 18.6611C10.9245 19.1164 10.9 19.6633 11.0314 20.1491C11.2361 20.858 10.9581 21.1422 10.2797 21.3072C9.6014 21.4722 9.21335 21.3591 9.12779 20.5953C9.08932 20.0883 8.98665 19.5883 8.82224 19.1072C8.08891 17.1669 8.42502 15.5964 10.2461 14.4261C11.3889 13.6928 11.2606 12.6722 10.7503 11.615C10.1392 10.3622 9.65946 10.3133 8.84057 11.4042C8.59918 11.725 8.37002 11.8747 8.99946 12.0825C9.69918 12.3178 9.37529 13.0511 9.32946 13.5522C9.27446 14.1083 8.71835 14.0289 8.35168 13.9892C7.48391 13.9005 6.36252 14.4261 5.83086 13.4331C5.26558 12.3881 6.20669 11.5997 6.78724 10.9092C8.79024 8.4624 11.3159 6.49536 14.1786 5.15251C15.4833 4.5414 18.2944 5.6414 18.8719 6.90945C19.1164 7.44112 18.6031 7.60917 18.4106 7.92084C18.2181 8.2325 17.9919 8.55334 17.5611 8.25084C17.2556 8.04612 16.9958 7.81695 16.7147 7.59695C15.4711 6.6314 14.3895 6.72001 13.2558 7.77723C12.8433 8.16528 13.0847 8.35778 13.3017 8.63584C14.9211 10.735 15.3275 13.048 14.3436 15.5139C13.815 16.843 14.9914 17.1608 15.5383 17.8392C15.9814 18.3922 16.5986 18.7192 15.7553 19.5197C14.912 20.3203 14.64 19.648 14.1908 19.2142C13.8608 18.9086 13.5797 18.5389 13.2161 18.2486C12.3056 17.5 11.6303 16.6964 12.5133 15.1319Z" fill="#5E4FA1"/>
<path d="M10.2889 5.65055C10.2125 6.76277 9.64114 7.43499 8.50447 7.5236C8.25079 7.54103 7.99627 7.50549 7.75706 7.41925C7.51786 7.333 7.29921 7.19795 7.11501 7.02266C6.93082 6.84737 6.7851 6.63568 6.68711 6.40104C6.58913 6.1664 6.54103 5.91395 6.54586 5.65972C6.60086 4.50778 7.29753 3.88444 8.40975 3.86917C9.52197 3.85389 10.185 4.48944 10.2889 5.65055Z" fill="#6152A2"/>
<path d="M15.6056 8.27836C16.8461 8.27836 17.7872 9.19502 17.7872 10.292C17.7872 10.9459 17.5703 11.3553 16.8156 11.3339C16.5357 11.3396 16.2575 11.2892 15.9974 11.1857C15.7373 11.0821 15.5006 10.9275 15.3013 10.731C15.1019 10.5345 14.9439 10.3001 14.8367 10.0415C14.7294 9.78294 14.675 9.50551 14.6767 9.22558C14.6797 8.50447 15.0158 8.20197 15.6056 8.27836Z" fill="#7D61A9"/>
</svg>
