<svg width="24" height="24" viewBox="0 0 24 24" fill="none" xmlns="http://www.w3.org/2000/svg">
<path d="M17.8055 17.8055L21.35 21.1849H12.9167C9.97418 21.1849 7.03169 21.1849 4.08919 21.1849C3.32836 21.1849 2.86697 21.0871 2.86697 20.1308C2.9067 14.6552 2.88836 9.17662 2.89753 3.69802C2.93362 3.50657 2.9889 3.31923 3.06253 3.13885C4.22616 4.03284 5.27773 5.06389 6.19447 6.20968C5.95002 7.48384 6.02641 8.76717 6.1028 10.0505C5.91641 12.2658 6.06308 14.4872 6.0203 16.7024C6.0203 17.118 6.06002 17.5122 6.45724 17.7597C8.94751 18.1691 11.447 17.9002 13.9403 17.8972C15.2236 17.9338 16.5161 18.111 17.8055 17.8055Z" fill="#61C8DA"/>
<path d="M5.91031 9.83354C5.56197 8.58993 5.09448 7.33715 6.19447 6.20966C10.1606 9.97409 14.0309 13.8394 17.8056 17.8055C16.6903 19.0063 15.4283 18.3707 14.197 18.0927C13.7967 18.328 13.4972 18.0621 13.2803 17.8299C10.8542 15.3855 8.28141 13.0999 6.05392 10.466C5.9575 10.2692 5.90833 10.0527 5.91031 9.83354Z" fill="#3DC2D6"/>
<path d="M6.19447 10.1666C5.5528 10.9763 5.9378 11.9144 5.90725 12.7852C5.84614 14.6521 5.90725 16.5221 5.90725 18.3891C5.34808 17.9705 5.57114 17.3593 5.60169 16.8613C5.7453 14.5269 5.20141 12.1619 5.90725 9.85187L6.19447 10.1666Z" fill="#A8B5BA"/>
</svg>
