<svg width="24" height="24" viewBox="0 0 24 24" fill="none" xmlns="http://www.w3.org/2000/svg">
<path d="M1.93505 10.1666C1.93505 8.91994 2.04811 7.658 1.91061 6.42662C1.7395 4.89885 2.35672 4.44968 3.74393 4.67274C4.99365 4.69718 5.44587 5.64134 5.92559 6.55801C6.12979 9.5426 6.13694 12.5374 5.94698 15.523C5.75924 16.0351 5.46696 16.5025 5.08873 16.8954C4.71049 17.2884 4.25459 17.5983 3.75004 17.8054C2.36588 17.9857 1.67533 17.4999 1.94422 15.9996C2.06644 15.3152 1.77616 14.9424 1.02756 15.0432V14.7499C1.69672 14.2213 1.44006 13.4635 1.50422 12.7883C1.57755 11.9021 1.30561 10.961 1.93505 10.1666Z" fill="#90A4AE"/>
<path d="M1.93506 10.1666C1.93506 11.3613 1.91368 12.5591 1.93506 13.7507C1.96867 14.4443 1.74868 14.811 1.0184 14.7499V10.1666H1.93506Z" fill="#627E8C"/>
<path d="M3.75006 17.8054C4.2601 17.0917 4.88963 16.4715 5.61088 15.9721C6.04783 16.846 6.73227 17.2493 7.72532 17.0538C9.16753 17.0232 10.6036 17.0141 12.0428 17.0538C13.54 17.011 15.0372 17.0141 16.5314 17.0538C17.5611 17.0813 17.9583 16.5466 17.9553 15.5535C17.9553 12.5204 17.9553 9.48725 17.9553 6.45412C17.9553 5.56801 17.5703 5.16773 16.6811 5.16468C13.595 5.16468 10.5089 5.16468 7.42588 5.16468C6.50921 5.16468 6.09672 5.76051 5.56505 6.2769L3.75006 4.66663C4.00673 3.35274 4.80728 2.85469 6.13644 2.86997C10.1086 2.9158 14.0595 2.86997 18.0225 2.8883C19.7916 2.90664 20.25 3.36497 20.25 5.15857C20.25 9.2204 20.25 13.2812 20.25 17.341C20.25 17.8879 20.4119 18.6029 19.8161 18.8688C18.768 19.3118 18.7466 20.2835 18.4136 21.1115C17.4755 19.3485 17.2342 19.3057 16.1128 20.7052C16.0716 20.7677 16.0111 20.815 15.9404 20.8399C15.8698 20.8647 15.7929 20.8657 15.7217 20.8427C15.7767 19.9443 15.5139 19.4646 14.4567 19.5471C13.1946 19.6449 11.9268 19.6449 10.6647 19.5471C9.41809 19.4554 8.46781 19.6174 8.34559 21.1085C8.20439 20.9665 8.09957 20.7925 8.04004 20.6013C7.90254 20.1368 7.69171 19.764 7.12338 19.7702C6.55505 19.7763 6.36866 20.1827 6.24033 20.6379C6.1808 20.8291 6.07598 21.0031 5.93477 21.1451C5.88894 19.5593 4.10145 19.1499 3.75006 17.8054Z" fill="#607D8B"/>
<path d="M15.7125 20.8273C16.2319 20.4454 15.5903 19.4004 16.7483 19.2996C18.2761 19.1437 18.5541 19.871 18.4044 21.1115C17.5 21.1115 16.5436 21.5851 15.7125 20.8273Z" fill="#556A76"/>
<path d="M5.88894 21.1329C5.88894 20.2163 5.61699 19.2018 7.23948 19.2782C8.76725 19.3485 8.18059 20.3691 8.32726 21.0963C7.52148 21.2368 6.69857 21.2491 5.88894 21.1329Z" fill="#4F6773"/>
<path d="M7.45336 17.4785C6.34726 17.5732 5.28087 17.619 5.59865 15.969L5.55282 6.25243C5.4306 5.03021 5.9317 4.61772 7.1967 4.65438C10.4396 4.74605 13.6826 4.74605 16.9255 4.65438C18.1844 4.62077 18.4533 5.07299 18.435 6.22798C18.3677 9.36602 18.3372 12.5071 18.435 15.6421C18.4839 17.0813 18.1111 17.7413 16.62 17.4938C16.1066 17.0354 16.1158 16.4152 16.1189 15.8132C16.1433 13.1488 15.9936 13.3688 13.5736 13.3688C13.0206 13.3688 12.4583 13.3688 11.9694 13.0418C11.6974 12.7369 11.5549 12.3379 11.5722 11.9296C11.5508 10.9732 11.0558 10.6493 10.1361 10.6188C8.09503 10.5516 7.93919 10.7227 7.84447 12.7577C7.7803 14.3252 8.26919 15.9721 7.45336 17.4785Z" fill="#506773"/>
<path d="M7.45336 17.4785C7.45336 15.4496 7.49614 13.4208 7.43808 11.3919C7.41058 10.4508 7.74364 10.078 8.6603 10.1972C8.91368 10.2125 9.16775 10.2125 9.42113 10.1972C12.0581 10.1972 12.0581 10.1972 12.0336 12.8616C12.3757 13.5847 12.5504 14.3756 12.5445 15.1754C12.5387 15.9753 12.3526 16.7636 12 17.4816L7.45336 17.4785Z" fill="#82C785"/>
<path d="M12 17.4815C12 15.9416 12.0102 14.4026 12.0306 12.8646C13.1336 12.8921 14.2367 12.9777 15.3366 12.9257C16.293 12.883 16.7147 13.161 16.6444 14.1846C16.568 15.2816 16.6261 16.3907 16.6291 17.4938L12 17.4815Z" fill="#67BC6B"/>
</svg>
