<svg width="24" height="24" viewBox="0 0 24 24" fill="none" xmlns="http://www.w3.org/2000/svg">
<path d="M15.7033 20.8336C15.7614 19.9322 15.4925 19.4524 14.4353 19.538C13.1732 19.6358 11.9054 19.6358 10.6433 19.538C9.3936 19.4433 8.44333 19.6052 8.32722 21.0994C8.17605 20.9627 8.06511 20.7873 8.00638 20.5922C7.86888 20.1216 7.65194 19.7458 7.08972 19.7519C6.5275 19.758 6.32889 20.1674 6.19444 20.6319C6.13736 20.8251 6.03223 21.0006 5.88889 21.1422C5.58333 20.1827 5.27778 19.2661 4.26333 18.7313C3.83861 18.5113 3.95778 17.8147 3.95778 17.3075C3.95778 13.2008 3.95778 9.09413 3.95778 4.98747C3.95778 3.31609 4.38556 2.90359 6.02639 2.89748C10.0353 2.88118 14.0452 2.88118 18.0561 2.89748C19.755 2.89748 20.2439 3.3772 20.2469 5.03636C20.2469 9.14302 20.2469 13.2497 20.2652 17.3563C20.2652 18.1844 20.1644 18.9666 19.3303 19.2355C18.2853 19.5747 18.9972 20.6319 18.4136 21.1086C17.4755 19.3455 17.2341 19.3027 16.1097 20.6991C16.0673 20.7644 16.004 20.8133 15.9301 20.8377C15.8562 20.8622 15.7762 20.8607 15.7033 20.8336Z" fill="#607D8B"/>
<path d="M15.7033 20.8336C16.2228 20.4486 15.5811 19.4067 16.7391 19.2875C18.2669 19.1317 18.545 19.8589 18.3983 21.1025C17.5 21.1147 16.5344 21.5914 15.7033 20.8336Z" fill="#556A76"/>
<path d="M5.88889 21.1422C5.88889 20.2072 5.6139 19.2019 7.2425 19.2783C8.77028 19.3516 8.18972 20.3722 8.33333 21.1116C7.52532 21.2516 6.70016 21.2619 5.88889 21.1422Z" fill="#536975"/>
<path d="M12 17.4999C10.2186 17.4999 8.44028 17.4755 6.66195 17.4999C5.8889 17.4999 5.57418 17.2463 5.58029 16.4427C5.60779 12.8861 5.6139 9.33245 5.58029 5.77579C5.58029 4.88663 5.93168 4.65441 6.75973 4.66052C10.2675 4.69107 13.7753 4.69107 17.283 4.66052C18.1264 4.66052 18.4564 4.92635 18.4472 5.79718C18.4136 9.3019 18.4075 12.8066 18.4472 16.3113C18.4472 17.2769 18.0775 17.5335 17.1853 17.506C15.4497 17.4694 13.7203 17.4999 12 17.4999Z" fill="#90A4AE"/>
<path d="M16.6261 11.2972C16.2105 12.2413 15.5017 13.2222 15.5139 14.4841C15.5139 14.8447 14.8264 14.7499 14.4322 14.7316C14.3423 14.7346 14.2529 14.7165 14.1712 14.6788C14.0895 14.6411 14.0178 14.5848 13.9617 14.5145C13.9056 14.4441 13.8667 14.3617 13.8481 14.2736C13.8296 14.1856 13.8318 14.0945 13.8547 14.0074C13.9525 13.1977 13.6256 12.55 13.1947 11.9083C12.7058 11.178 13.0511 10.5363 13.5583 10.0016C14.0136 9.5219 14.5606 9.14912 15.3031 9.4119C16.1189 9.69912 16.4642 10.3225 16.6261 11.2972Z" fill="#617E8C"/>
</svg>
