<svg width="24" height="24" viewBox="0 0 24 24" fill="none" xmlns="http://www.w3.org/2000/svg">
<path d="M21.1452 14.7499C21.738 17.4999 19.5533 20.2499 16.7483 20.2499C13.4116 20.2499 10.075 20.2163 6.74138 20.2744C6.26774 20.31 5.7936 20.2121 5.37283 19.9917C4.95207 19.7713 4.60155 19.4373 4.36111 19.0277C3.47194 17.7108 2.83333 16.348 2.87611 14.7255C3.46583 14.2091 4.19305 14.2672 4.89278 14.2672C9.6411 14.2549 14.3894 14.2549 19.1377 14.2672C19.8314 14.2611 20.5555 14.2152 21.1452 14.7499Z" fill="#EDEFF0"/>
<path d="M2.89752 12.8739C2.9403 10.9 3.05641 8.95665 4.91419 7.67943C5.78502 6.74444 6.66196 7.30055 7.51751 7.67943C8.00713 7.94064 8.44841 8.28374 8.82223 8.69388C9.7389 9.98026 11.3492 9.61054 12.5561 10.2217C14.1481 11.4439 14.3467 12.0366 13.5553 13.1672C10.3195 13.5766 7.07751 13.3414 3.83558 13.3016C3.65839 13.2976 3.48387 13.2576 3.32262 13.1841C3.16136 13.1106 3.01673 13.005 2.89752 12.8739Z" fill="#44A147"/>
<path d="M13.8333 12.9167C13.8486 11.7769 13.1917 11.0497 12.3208 10.4539C12.2567 10.2278 12.3392 10.0261 12.5531 9.98638C14.9975 9.52499 16.4397 7.26999 18.713 6.50305C19.041 7.09819 19.4345 7.65472 19.8864 8.16222C21.1392 9.48527 21.2614 11.2178 21.1575 12.938C18.7699 13.6705 16.2166 13.663 13.8333 12.9167Z" fill="#6AB36C"/>
<path d="M13.8333 12.9167L21.1666 12.9381C21.1666 13.5339 21.1666 14.1297 21.1666 14.7255L2.86694 14.7194C2.86694 14.1083 2.88833 13.4972 2.8975 12.8861C6.54277 13.1122 10.188 13.0083 13.8333 12.9167Z" fill="#C2C7C8"/>
<path d="M18.7222 6.5C18.6611 6.82695 18.7863 7.28528 18.3066 7.36167C16.8613 7.58472 15.8622 8.48306 14.9455 9.50055C14.2275 10.3133 13.1122 9.88555 12.33 10.4386C11.0833 10.0078 9.45163 10.4722 8.63885 8.96583C9.02997 7.59695 10.3561 7.48389 11.3583 6.93084C12.6936 6.9125 13.3902 5.70862 14.475 5.23501C15.0219 5.34806 15.3916 4.88667 15.8713 4.79501C17.3411 4.51695 18.2761 5.09445 18.7222 6.5Z" fill="#56AA5A"/>
<path d="M11.3889 7.11107C10.5822 7.89329 9.34167 8.02774 8.6389 8.9444C7.5389 8.10107 6.50001 7.11107 4.91724 7.66718C5.12196 7.15996 5.29307 6.63441 5.52835 6.13941C6.23112 4.78274 7.19362 4.39163 8.62973 4.87441C9.03612 5.01191 9.40889 5.37858 9.83362 4.93247C10.3775 5.67191 11.0406 6.28302 11.3889 7.11107Z" fill="#6BB36D"/>
<path d="M11.3889 7.11109C10.6708 6.54887 9.79696 6.08442 9.86113 4.9722C11.2697 3.39859 13.3322 3.51776 14.4872 5.24415C13.705 6.28914 12.9595 7.37998 11.3889 7.11109Z" fill="#45A148"/>
</svg>
