<svg width="24" height="24" viewBox="0 0 24 24" fill="none" xmlns="http://www.w3.org/2000/svg">
<path d="M5.86139 16.5436C6.72611 14.6644 8.44333 13.7936 10.1605 12.9166C11.6425 12.1864 13.0725 12.2108 14.4383 13.2222C16.2778 14.1389 18.2516 14.9791 18.4166 17.5C17.6344 17.8055 16.8186 17.6008 16.018 17.6436C12.9625 17.8055 9.90694 17.6436 6.85139 17.6436C6.04472 17.6497 5.47639 17.5366 5.86139 16.5436Z" fill="#79919D"/>
<path d="M14.4444 13.2222C13.0481 12.7364 11.6028 12.9747 10.1667 12.9166C10.1667 10.4722 10.1667 10.4722 7.67945 10.4722C6.41751 10.4722 5.15557 10.4416 3.89668 10.4722C3.11752 10.4966 2.73557 10.2155 2.84557 9.42721C2.97696 8.46776 2.51252 7.44721 3.15113 6.54277C3.60946 7.03777 3.60029 7.66415 3.58196 8.2661C3.5514 9.27748 3.96085 9.76332 5.01501 9.72665C6.13029 9.68998 7.24556 9.69609 8.37612 9.72665C9.35084 9.75109 9.75723 9.31415 9.73584 8.36082C9.72056 7.70693 9.69917 7.03165 10.1728 6.48166C10.2201 5.77458 10.2201 5.06513 10.1728 4.35805C10.0108 3.10527 10.5547 2.83027 11.7006 2.85777C14.1236 2.91888 14.1236 2.85777 14.145 5.27471C14.145 5.67805 14.1694 6.08138 14.1817 6.49693C14.2 6.59471 14.2306 6.69249 14.2397 6.80249C14.5453 9.74193 14.5453 9.70832 17.6008 9.76026C18.7864 9.78165 20.0453 9.41804 21.1483 10.1819C19.5533 10.8358 17.8942 10.3989 16.2594 10.46C13.8944 10.5241 13.6011 10.9091 14.4444 13.2222Z" fill="#93A6B0"/>
<path d="M21.1178 10.1666C19.1408 10.1666 17.1639 10.1177 15.19 10.188C14.1297 10.2277 13.6622 9.88247 13.8242 8.81608C13.9433 8.03997 13.5186 7.19053 14.1542 6.49081C16.0761 6.49081 17.9981 6.54886 19.92 6.49081C20.8947 6.46025 21.3103 6.73831 21.2003 7.75275C21.1147 8.54108 21.1392 9.35386 21.1178 10.1666Z" fill="#7A919D"/>
<path d="M10.1667 6.47858C10.1667 10.1666 10.1667 10.1666 6.60393 10.1666C3.1206 10.1666 3.1206 10.1666 3.13893 6.69552C3.13893 6.64358 3.13893 6.59469 3.13893 6.54274L10.1667 6.47858Z" fill="#7A919D"/>
<path d="M5.8614 16.5436C5.81251 17.5397 6.50001 17.5 7.1814 17.5C10.9214 17.5 14.6644 17.5 18.4167 17.5C17.1944 18.16 15.8531 17.7566 14.5728 17.7719C13.54 17.7719 13.045 18.0347 13.1947 19.1316C13.2283 19.4863 13.2283 19.8433 13.1947 20.198C13.1397 20.8611 12.7761 21.1819 12.0917 21.1666C11.4072 21.1513 11.1414 20.8213 11.0833 20.1369C10.8572 17.8055 10.8328 17.8055 8.44334 17.8055H6.46335C5.37863 17.8055 5.39696 17.28 5.8614 16.5436Z" fill="#9AA8B0"/>
</svg>
