<svg width="24" height="24" viewBox="0 0 24 24" fill="none" xmlns="http://www.w3.org/2000/svg">
<path d="M19.095 6.3564C17.7292 7.76807 16.4703 9.0239 15.2755 10.3286C14.6858 10.9794 14.3222 10.7533 13.8058 10.2492C13.2894 9.74501 13.2497 9.41501 13.8058 8.91084C15.1014 7.72529 16.348 6.48779 17.6314 5.24418C17.0692 4.73696 16.6475 4.91113 16.2686 4.87752C15.5567 4.81335 15.6942 4.29085 15.6911 3.86002C15.688 3.42918 15.5719 2.87002 16.3022 2.88224C17.8697 2.90974 19.6633 2.51252 20.9253 3.13891C21.7778 3.57585 21.1666 5.50085 21.1666 6.7414C21.1666 7.37084 21.8205 8.48612 20.3569 8.57473C18.8933 8.66334 19.4983 7.55723 19.3333 6.89112C19.2666 6.70748 19.187 6.52879 19.095 6.3564Z" fill="#57707C"/>
<path d="M5.14641 17.7475C6.50002 16.345 7.72224 15.0984 8.91696 13.8028C9.42112 13.2497 9.74807 13.2834 10.2553 13.8028C10.7625 14.3222 10.9856 14.6797 10.3378 15.2725C9.0239 16.4642 7.76807 17.717 6.49085 18.9392C6.90641 19.5717 7.40752 19.3181 7.80474 19.3211C8.56557 19.3211 8.55946 19.7917 8.57474 20.3386C8.59001 20.8856 8.42196 21.1942 7.81085 21.185C6.43891 21.185 5.06085 21.1575 3.69502 21.185C2.9678 21.2278 2.86697 20.8611 2.88225 20.25C2.90669 19.1836 2.86086 18.1111 2.90058 17.0508C2.92197 16.4703 2.57058 15.7125 3.71947 15.6453C4.86835 15.5781 4.96919 16.1647 4.91113 17.0233C4.96016 17.2733 5.03916 17.5165 5.14641 17.7475Z" fill="#57707C"/>
</svg>
