<svg width="24" height="24" viewBox="0 0 24 24" fill="none" xmlns="http://www.w3.org/2000/svg">
<path d="M10.1147 12.2719C9.25614 11.0039 8.46475 9.94666 6.51531 10.2614C4.56587 10.5761 2.89143 8.58389 2.89754 6.57639C2.90236 5.60542 3.29021 4.67558 3.9768 3.98899C4.66339 3.3024 5.59323 2.91455 6.5642 2.90973C8.56864 2.90973 10.5884 4.6025 10.2522 6.50917C9.94669 8.32416 10.9184 9.08805 11.9695 10.0169C12.2445 11.2758 10.9917 11.5936 10.5089 12.385C10.439 12.4018 10.366 12.4003 10.2969 12.3805C10.2278 12.3607 10.1651 12.3233 10.1147 12.2719Z" fill="#7A61AA"/>
<path d="M10.1147 12.2719L10.4569 12.3208C11.5631 12.3911 12.1833 12.8891 12.0061 14.0869C10.8664 15.0922 9.98028 16.0272 10.1728 17.8758C10.3928 19.8558 8.57778 21.2369 6.48473 21.1972C5.56802 21.2102 4.68198 20.8673 4.01296 20.2404C3.34394 19.6136 2.94409 18.7517 2.89752 17.8361C2.79057 15.8683 4.26029 13.8027 6.12418 13.9983C7.98806 14.1939 9.02695 13.3841 10.1147 12.2719Z" fill="#60469C"/>
<path d="M12 14.0869C11.7311 13.2833 11.0314 12.8647 10.4509 12.3208C10.4661 11.233 11.8411 11.0283 11.9634 10.0047L12.33 9.91302C13.0236 10.5241 13.7417 11.0986 14.1084 11.9816C15.9417 14.2213 18.1386 16.0913 20.1247 18.1752C20.7114 18.7863 21.5425 19.3211 21.0414 20.3386C20.8153 20.7877 18.597 20.5402 18.0836 20.033C16.2503 18.218 14.417 16.3847 12.5989 14.5605C12.4077 14.3923 12.2078 14.2342 12 14.0869Z" fill="#9F9F9F"/>
<path d="M14.1145 11.9817C13.3567 11.4347 12.4981 10.9733 12.3361 9.91307C14.1389 8.12557 15.9722 6.39919 17.6772 4.53224C18.6092 3.50558 19.7581 3.58808 20.7328 3.85697C21.7075 4.12586 21.1942 4.91113 20.6594 5.4428C18.8668 7.22724 17.0783 9.01372 15.2939 10.8022L14.1145 11.9817Z" fill="#626362"/>
<path d="M6.49998 4.88361C7.65498 4.88361 8.29665 5.49472 8.33331 6.5336C8.37609 7.66721 7.68554 8.36693 6.5611 8.33943C5.52526 8.32416 4.88971 7.70082 4.88971 6.60388C4.88971 5.50694 5.48554 4.94777 6.49998 4.88361Z" fill="#FAF9FB"/>
<path d="M4.83777 17.5641C4.93249 16.5008 5.47943 15.8591 6.57638 15.85C7.67332 15.8408 8.26915 16.4611 8.36082 17.5244C8.37622 17.7673 8.34008 18.0108 8.25476 18.2387C8.16944 18.4667 8.03688 18.6741 7.86577 18.8472C7.69466 19.0203 7.48888 19.1553 7.26192 19.2433C7.03497 19.3313 6.79197 19.3703 6.54888 19.3577C5.4886 19.2569 4.91721 18.6336 4.83777 17.5641Z" fill="#FAF9FB"/>
</svg>
