<svg width="24" height="24" viewBox="0 0 24 24" fill="none" xmlns="http://www.w3.org/2000/svg">
<path d="M21.1147 10.4478C21.1331 13.5033 21.1524 16.5497 21.1728 19.5869C21.1667 20.6472 20.6289 21.1666 19.5747 21.1666C14.5942 21.1666 9.61467 21.1666 4.63616 21.1666C3.51783 21.1666 2.922 20.4638 2.90977 19.4463C2.86394 15.74 2.90977 12.0336 2.90977 8.32721C3.26422 8.09804 3.46283 8.25388 3.58505 8.59915C3.42311 9.65026 3.85699 10.295 4.83171 10.738C6.85449 11.6822 8.85282 12.6875 10.8267 13.7325C11.7892 14.2428 12.6264 14.1786 13.5767 13.6866C15.5078 12.6722 17.4695 11.7066 19.4342 10.7533C19.9445 10.5241 20.4547 10.0597 21.1147 10.4478Z" fill="#8EC691"/>
<path d="M3.45979 8.6389L2.90979 8.33335C2.89146 7.53585 3.21535 6.99196 4.03118 6.78724C5.79728 6.50918 7.57561 6.73224 9.34172 6.6589C10.0781 6.45418 10.6067 6.84224 11.0406 7.33724C11.7525 8.1439 12.3392 7.99418 13.0237 7.27918C13.4698 6.81779 13.9037 6.08752 14.7714 6.58863C16.5681 6.84529 18.3861 6.42974 20.1736 6.81168C20.9986 7.14779 21.2828 7.78029 21.1606 8.62973C19.6389 9.95279 17.7659 10.6036 16.0059 11.4531C11.6059 13.5919 13.045 13.8975 8.15006 11.4531C6.97978 10.8633 5.80951 10.2706 4.62395 9.71445C4.12284 9.4639 3.58201 9.2714 3.45979 8.6389Z" fill="#8FC691"/>
<path d="M3.45978 8.63892C6.16089 10.0078 8.8681 11.3614 11.557 12.7517C12.1681 13.0572 12.6234 12.7517 13.1153 12.5286L21.1667 8.63892L21.1209 10.4509C18.4228 11.4897 15.9264 12.9472 13.3384 14.2245C12.4859 14.6431 11.8289 14.7317 10.952 14.2581C8.66949 13.0297 6.33505 11.9114 4.01589 10.7778C2.97089 10.2584 2.72951 9.57697 3.45978 8.63892Z" fill="#44A048"/>
<path d="M14.4231 6.5C14.3365 6.54857 14.2537 6.60374 14.1756 6.665C12.0795 8.59916 12.0795 8.59916 9.91918 6.75055C9.77863 6.69555 9.61363 6.68944 9.58002 6.48778C9.49752 5.9225 8.20502 5.70556 9.1828 4.80111C9.79391 4.23584 10.2247 4.04639 10.7106 4.80111C11.6945 6.31361 12.5439 5.95917 13.5308 4.74611C14.3558 3.72862 15.4008 2.8914 16.2808 1.91973C16.8064 1.34529 17.1333 1.47362 17.6131 1.96862C18.0928 2.46362 18.2639 2.76612 17.6681 3.30695C16.6536 4.22361 15.7125 5.21972 14.7408 6.18222C14.6736 6.33194 14.6125 6.5 14.4231 6.5Z" fill="#47A248"/>
<path d="M14.4231 6.50001L14.75 6.19446C15.5842 6.86362 16.5528 6.33807 17.445 6.50001C18.3373 6.66196 19.3334 6.19446 20.1767 6.80557C18.2609 6.64057 16.3114 7.16918 14.4231 6.50001Z" fill="#8FA88B"/>
<path d="M9.58 6.49998L9.91917 6.76276L4.03113 6.80553C5.85223 6.14554 7.72223 6.68637 9.58 6.49998Z" fill="#8DA88A"/>
</svg>
