<svg width="24" height="24" viewBox="0 0 24 24" fill="none" xmlns="http://www.w3.org/2000/svg">
<path d="M11.0833 6.46638C11.1243 6.19768 11.1028 5.92318 11.0207 5.66409C10.9386 5.405 10.798 5.16828 10.6097 4.97222C9.88556 4.12888 10.0506 3.24277 10.7747 2.52778C11.4989 1.81278 12.4522 1.80361 13.2589 2.45444C14.1144 3.13889 14.3681 4.01888 13.6042 4.97222C13.3272 5.33218 13.172 5.77095 13.1611 6.22499C13.0847 7.14166 13.3811 7.47166 14.3467 7.47166C15.9569 7.47166 16.6994 8.20193 16.84 9.68693C16.9897 11.2789 17.613 11.5722 19.0522 10.6678C19.7458 10.2339 20.418 9.98332 21.1911 10.4233C21.9642 10.8633 22.1658 11.5203 22.0894 12.3575C22.0795 12.6591 21.9901 12.9528 21.8302 13.2088C21.6704 13.4648 21.4458 13.6741 21.1792 13.8154C20.9126 13.9568 20.6133 14.0253 20.3117 14.0139C20.0102 14.0026 19.7169 13.9118 19.4617 13.7508C19.0705 13.5339 18.7558 13.2039 18.2394 13.1794C17.39 13.1428 16.7605 13.1794 16.8217 14.3436C16.9011 15.7675 16.125 16.6353 14.7103 16.843C12.99 17.0966 12.6661 17.7077 13.6408 19.26C14.3375 20.3661 14.0992 21.3041 13.1214 21.8633C12.2047 22.3889 11.1353 22.2972 10.4508 21.2522C9.96806 20.5158 10.185 19.8222 10.6189 19.1133C11.5692 17.5855 11.3094 17.0477 9.6014 16.8308C8.30279 16.6628 7.46251 16.0303 7.42584 14.5758C7.38918 13.1214 6.46946 12.663 5.15863 13.488C4.41307 13.9555 3.74391 14.3008 2.94641 13.7203C1.99613 13.0266 1.63558 12.0978 2.29252 11.0833C2.94946 10.0689 3.85085 9.87637 4.91724 10.5578C6.61918 11.6425 7.26696 11.343 7.43501 9.41804C7.56029 7.9636 8.42195 7.40138 9.79695 7.43804C10.5425 7.45332 11.3522 7.53582 11.0833 6.46638Z" fill="#60C8DA"/>
<path d="M12.0703 14.7897C11.7342 14.7652 11.1995 14.7897 11.2361 14.5422C11.4195 13.2375 10.3867 12.3116 10.2706 11.1475C10.1881 10.3378 10.7289 9.72664 11.5233 9.43025C12.3178 9.13387 12.9197 9.41192 13.4453 9.96192C13.7065 10.2123 13.875 10.5438 13.9233 10.9024C13.9716 11.2609 13.8968 11.6253 13.7111 11.9358C13.2772 12.6447 12.877 13.2864 12.9686 14.1602C13.045 14.8814 12.4645 14.75 12.0703 14.7897Z" fill="#384951"/>
</svg>
