<svg width="24" height="24" viewBox="0 0 24 24" fill="none" xmlns="http://www.w3.org/2000/svg">
<path d="M20.25 9.6594C20.693 13.8638 19.3639 17.3685 16.1341 20.1216C13.1764 22.6394 11.013 22.6455 8.04611 20.1216C5.52223 17.9919 4.03417 15.2999 3.90584 11.9572C3.83251 10.1238 3.90584 8.29051 3.86612 6.45718C3.85084 5.78496 4.13806 5.47024 4.72473 5.21357C6.9125 4.26635 9.08499 3.2733 11.2575 2.29247C11.9786 1.96553 12.6233 2.16108 13.2955 2.47275C15.1289 3.32525 16.9622 4.21747 18.8689 4.93858C19.9505 5.34802 20.3966 5.90718 20.2622 7.07746C20.2079 7.93713 20.2038 8.79925 20.25 9.6594Z" fill="#0D78BD"/>
<path d="M11.9572 4.11053C14.0197 4.64831 15.8347 5.79109 17.8116 6.53664C18.3922 6.75358 18.4227 7.27608 18.4227 7.80469C18.4044 9.22247 18.3952 10.6402 18.383 12.0611C16.2962 12.7363 14.0486 12.7288 11.9663 12.0397C11.1261 10.4294 11.6241 8.69691 11.5416 7.02247C11.4927 6.04775 11.2972 5.00275 11.9572 4.11053Z" fill="#4299CE"/>
<path d="M11.9572 4.11054C12.1314 6.74136 12.0703 9.37525 11.9908 12.0091L11.7739 12.1986C9.71443 12.5041 7.64888 12.8463 5.63527 11.948C5.66583 10.2919 5.125 8.26303 5.88888 7.08664C6.65277 5.91025 8.70915 5.54359 10.2369 4.91109C10.8236 4.66665 11.2453 4.07081 11.9572 4.11054Z" fill="#FEDF82"/>
<path d="M12 11.9999L18.3861 12.0519C18.2822 15.7185 15.5475 19.2416 12.0703 20.1919C11.8279 20.0028 11.6689 19.7265 11.6272 19.4219C11.4413 17.162 11.4526 14.8903 11.6608 12.6324C11.7174 12.3959 11.8342 12.178 12 11.9999Z" fill="#FCDF82"/>
<path d="M12 11.9999C12.0183 14.7397 12.0356 17.4785 12.0519 20.2163C8.51358 19.2202 6.75053 16.6505 5.91025 13.268C5.80331 12.8341 5.72692 12.388 5.63525 11.948C7.7505 12.1648 9.88145 12.1822 12 11.9999Z" fill="#4299CE"/>
</svg>
