<svg width="24" height="24" viewBox="0 0 24 24" fill="none" xmlns="http://www.w3.org/2000/svg">
<path d="M11.0935 18.3861C8.97294 18.4014 6.85238 18.4136 4.73183 18.435C3.54933 18.435 2.93822 17.8239 2.91377 16.6872C2.87405 14.6186 2.91377 12.5469 2.91377 10.4753C2.99967 10.4374 3.09631 10.4317 3.18607 10.4592C3.27583 10.4866 3.3527 10.5455 3.40266 10.625C3.83044 11.395 4.53933 11.5416 5.34294 11.5416C6.81266 11.5416 8.27933 11.5416 9.74905 11.56C10.9193 11.5844 11.5824 12.1344 11.5243 13.3261C11.4418 15.0128 11.9735 16.7605 11.0935 18.3861Z" fill="#A48B82"/>
<path d="M11.0935 18.3861C11.0935 16.7728 11.0355 15.1533 11.118 13.5431C11.173 12.4003 10.8796 11.8961 9.62075 11.9756C7.96159 12.0856 6.28714 11.9206 4.63103 12.0306C3.38131 12.1131 3.00853 11.6058 3.14909 10.4722C3.35686 9.55555 4.13298 9.76027 4.72881 9.72972C6.18631 9.65944 7.64992 9.68083 9.11048 9.71138C10.2074 9.73277 10.6383 9.26833 10.6383 8.18361C10.6383 7.34027 10.3083 6.31361 11.3777 5.76666C13.211 5.76666 13.3119 5.85527 13.373 7.70694C13.373 7.96055 13.373 8.21111 13.373 8.46472C13.3913 11.7922 13.1163 11.4622 16.5294 11.5539C18.0571 11.5936 19.6644 11.1139 21.1127 12.0092V13.8272C20.578 14.31 19.9119 14.2825 19.261 14.2917C17.8555 14.2917 16.4469 14.3375 15.0413 14.2917C13.8191 14.2458 13.2783 14.6889 13.3424 15.9478C13.3821 16.7819 13.5074 17.6742 12.8902 18.3922L11.0935 18.3861Z" fill="#8E6F65"/>
<path d="M21.1371 12C18.8668 12 16.5965 11.9389 14.3293 12.0214C13.1621 12.0672 12.8229 11.6394 12.9085 10.5394C12.991 9.48527 12.8413 8.40054 12.9482 7.36471C13.0765 6.11193 12.5296 5.73915 11.399 5.88888C11.2951 5.83693 11.2615 5.78193 11.2951 5.72999C11.3288 5.67804 11.3654 5.65054 11.399 5.65054C14.0757 5.65054 16.7524 5.61999 19.426 5.65054C20.5565 5.65054 21.1951 6.26165 21.1829 7.45943C21.1768 8.97499 21.1524 10.4905 21.1371 12Z" fill="#A48A82"/>
<path d="M12.9268 18.3953C12.9268 17.2769 12.9787 16.1586 12.9268 15.0342C12.8779 14.1022 13.2323 13.7844 14.149 13.8119C16.4834 13.8608 18.8209 13.8119 21.1554 13.8119C21.3326 18.9605 21.3968 18.4258 16.8776 18.4289C15.5454 18.4411 14.2315 18.4167 12.9268 18.3953Z" fill="#A48A82"/>
<path d="M11.3991 5.64447V5.88891C10.788 6.8728 11.1424 7.95447 11.1302 8.98419C11.1302 9.90086 10.8063 10.2278 9.88965 10.2064C8.12354 10.1545 6.35437 10.182 4.58521 10.2064C4.09937 10.2064 3.5616 10.0475 3.15826 10.4936H2.91382C2.91382 9.53114 2.91382 8.56864 2.91382 7.60919C2.91382 6.30141 3.57687 5.65364 4.8816 5.65364L11.3991 5.64447Z" fill="#A48B82"/>
<path d="M17.0151 10.1666C14.7418 10.1666 14.4943 9.96803 14.7601 8.35164C14.8334 7.90858 14.9771 7.51136 15.4507 7.48997C16.5598 7.44414 17.6935 7.3433 18.7782 7.5083C19.7193 7.65192 19.2243 8.5808 19.3098 9.16442C19.3954 9.74803 19.2518 10.1819 18.5337 10.1666C18.0265 10.1666 17.5101 10.1666 17.0151 10.1666Z" fill="#8E6F64"/>
</svg>
