<svg width="24" height="24" viewBox="0 0 24 24" fill="none" xmlns="http://www.w3.org/2000/svg">
<path d="M4.73392 8.02776L4.70642 7.72221C5.44892 6.70165 6.37781 6.90332 7.3342 7.32804C7.77114 7.6886 7.83225 8.19582 7.83225 8.70915C7.83225 10.683 7.91781 12.6569 7.77114 14.6033C9.99864 12.3392 12.2598 10.0811 14.585 7.79249C12.66 7.87804 10.7839 7.83221 8.90475 7.82915C8.34559 7.82915 7.77725 7.82915 7.35559 7.34332C6.90337 6.37776 6.70475 5.44888 7.73142 4.69415L15.6759 4.72471C15.765 4.77304 15.8624 4.80414 15.9631 4.81637C17.4909 4.72471 16.5986 7.00721 18.2059 7.01332C20.1125 7.01332 19.4495 8.61137 19.4678 9.62582C19.5014 11.9389 19.5748 14.255 19.422 16.5711C18.6 17.1822 17.7231 17.1119 16.8309 16.7636C16.18 16.3389 16.1984 15.6636 16.1923 15.0036C16.1678 13.3353 16.1923 11.6669 16.177 9.80915C14.0381 11.948 12.0245 13.9525 9.83059 16.1678C11.6792 16.1983 13.3139 16.1678 14.9486 16.1861C15.6575 16.1861 16.3909 16.1678 16.8339 16.9042C17.0444 17.4244 17.0965 17.9952 16.9836 18.545C16.8798 19.1744 16.5711 19.5075 15.8623 19.4983C13.2834 19.4708 10.7014 19.4983 8.12253 19.4983C6.78114 19.4983 7.14475 18.3403 6.85448 17.6253C6.78725 17.3686 6.64059 17.1058 6.38087 17.1028C4.88364 17.0844 4.81948 16.1403 4.82559 14.9639C4.82864 12.6508 4.97225 10.3408 4.73392 8.02776Z" fill="#8E6F64"/>
<path d="M16.5834 16.5833L19.3059 16.5466C19.5778 16.7147 19.917 16.6719 20.1859 16.8889C20.2073 17.2433 20.247 17.5947 20.25 17.9491C20.2714 20.0452 18.6856 21.1605 16.8889 20.088C16.0792 19.6389 15.3917 19.6389 14.6309 19.6389C13.0084 19.6022 11.3798 19.6755 9.76032 19.6114C8.83719 19.548 7.91607 19.7607 7.11421 20.2225C6.84208 20.0555 6.52904 19.9671 6.20977 19.9671C5.89049 19.9671 5.57745 20.0555 5.30532 20.2225C4.61782 20.3233 4.27254 19.9597 4.10754 19.3455C4.2138 19.1721 4.29313 18.9836 4.34282 18.7864C4.73393 16.733 5.27782 16.455 7.43199 17.1944C7.50532 19.4219 7.03782 19.3333 9.52504 19.3333C11.2881 19.3333 13.0573 19.2355 14.8112 19.3639C16.3053 19.4769 16.8278 18.93 16.5987 17.5061C16.5752 17.201 16.5752 16.8945 16.5987 16.5894L16.5834 16.5833Z" fill="#A48A82"/>
<path d="M20.1888 16.8889C19.8527 16.8889 19.5044 16.9133 19.3088 16.5467C19.3088 14.0044 19.2752 11.4622 19.3424 8.9261C19.373 7.85665 19.153 7.23943 17.9399 7.43193C16.8552 7.6061 16.4122 7.09582 16.5986 6.05998C16.733 5.27471 16.2411 4.98749 15.6819 4.72776C16.513 4.8011 16.9255 3.90276 17.8361 3.93332C20.0605 4.0036 21.1972 5.4611 20.1216 7.40443C19.7738 8.05314 19.6071 8.7835 19.6388 9.51887C19.6174 11.5019 19.6602 13.4911 19.6144 15.465C19.5924 15.7307 19.6328 15.9979 19.7326 16.2451C19.8323 16.4924 19.9886 16.7128 20.1888 16.8889Z" fill="#A48B82"/>
<path d="M7.7222 4.70333C7.23025 5.57111 7.51442 6.53666 7.41664 7.42889C6.49997 7.52055 5.55886 7.23639 4.69414 7.73444C3.26414 7.12333 4.1747 5.92555 4.04942 5.00277C4.03001 4.8731 4.04145 4.74068 4.08279 4.61625C4.12414 4.49182 4.19424 4.37889 4.2874 4.28662C4.38056 4.19436 4.49416 4.12535 4.61898 4.0852C4.7438 4.04505 4.87633 4.0349 5.00581 4.05555C5.92553 4.19 7.11109 3.27639 7.7222 4.70333Z" fill="#A38A81"/>
<path d="M7.43197 17.1944C7.12642 17.1944 6.8392 17.1944 6.54281 17.1944C5.56808 17.1517 4.51086 16.95 4.70947 18.5542C4.75531 18.8597 4.42836 19.1653 4.09836 19.3242C4.00975 18.3067 3.60947 17.2708 4.54142 16.3603C4.75836 16.1525 4.64836 15.5872 4.65142 15.1839C4.68197 12.8005 4.70642 10.4172 4.72475 8.03387C5.2717 10.0811 4.89586 12.165 4.93864 14.2275C4.9692 15.6117 4.76142 16.9775 6.86364 16.6169C7.23336 16.5589 7.39225 16.8614 7.43197 17.1944Z" fill="#A38A81"/>
<path d="M5.3053 20.2042C5.91641 19.4097 6.51937 19.4097 7.11419 20.2042H5.3053Z" fill="#A38A81"/>
<path d="M7.4319 7.41669H14.7102L7.41663 14.7134V7.43196L7.4319 7.41669Z" fill="#A48A82"/>
<path d="M16.5833 16.5833H9.31714L16.5833 9.29584V16.5833Z" fill="#A48B82"/>
</svg>
