<svg width="24" height="24" viewBox="0 0 24 24" fill="none" xmlns="http://www.w3.org/2000/svg">
<path d="M20.195 7.41667C20.195 11.1719 20.2164 14.9272 20.2439 18.6825C20.2439 19.7519 19.7642 20.2653 18.6855 20.253C16.7575 20.2316 14.8294 20.2286 12.9014 20.2194C12.2017 19.0797 12.6111 17.8361 12.5408 16.6444C12.4843 15.7348 12.4843 14.8224 12.5408 13.9128C12.5836 13.1519 12.5408 12.2444 13.7967 12.718C13.9135 12.7735 14.0463 12.7855 14.1711 12.7519C14.296 12.7183 14.4048 12.6413 14.4781 12.5347C14.6736 12.2292 14.5178 11.9572 14.3222 11.7097C14.1706 11.5063 13.9951 11.3216 13.7997 11.1597C13.2131 10.7075 12.8433 9.63194 12.0825 9.83972C11.1231 10.0964 10.5211 11.0619 9.89167 11.8625C9.55556 12.2719 9.70223 12.6783 10.3133 12.6111C10.8022 12.5683 11.3308 12.498 11.3492 13.1275C11.4317 15.4803 11.8289 17.8483 11.1078 20.1766C9.23779 20.195 7.36473 20.1766 5.49474 20.2408C4.45891 20.2714 3.96696 19.8008 3.9853 18.8078C4.00159 15.0148 4.02298 11.2218 4.04946 7.42889C4.63002 6.91556 5.34807 6.93083 6.0539 6.93083C10.0913 6.93083 14.1277 6.93083 18.163 6.93083C18.878 6.93695 19.5778 6.98583 20.195 7.41667Z" fill="#99837A"/>
<path d="M20.195 7.41665L4.0556 7.43804C4.48032 6.21582 5.4856 5.39082 6.16393 4.34277C6.50004 3.82332 7.04088 3.91193 7.53587 3.90888C10.5731 3.90888 13.6103 3.90888 16.6475 3.90888C17.3564 3.90888 17.8942 4.04943 18.3036 4.70943C18.875 5.63221 19.5564 6.49998 20.195 7.41665Z" fill="#6E4E43"/>
<path d="M11.1078 20.1858V12.7302C10.4111 13.1397 9.79697 13.7386 9.19808 12.77C8.67252 11.9175 9.45475 11.6852 9.80919 11.3155C12.2353 8.80386 12.2047 8.85275 14.7775 11.5814C15.6575 12.5164 14.9914 12.9075 14.3986 13.3352C13.8058 13.763 13.6317 12.8036 12.9014 12.88V20.2133L11.1078 20.1858Z" fill="#6E4D42"/>
</svg>
