<svg width="24" height="24" viewBox="0 0 24 24" fill="none" xmlns="http://www.w3.org/2000/svg">
<path d="M18.3831 18.4166C18.5145 21.0811 18.4289 21.1666 15.7461 21.1666C12.9961 21.1666 10.2736 21.1361 7.53587 21.1666C6.17615 21.185 5.61393 20.5555 5.62004 19.2447C5.63838 14.4811 5.62004 9.71749 5.62004 4.95389C5.62004 3.42611 6.2006 2.87306 7.72837 2.86389C10.4142 2.86389 13.1 2.86389 15.7859 2.86389C18.2731 2.86389 18.4595 3.0625 18.38 5.57416C17.1792 6.39305 15.8195 5.98055 14.53 6.0325C12.547 6.11194 12.4645 6.13639 12.4584 8.09805C12.4584 10.848 12.4828 13.5797 12.4584 16.3205C12.44 17.5 12.9167 17.9155 14.0778 17.9614C15.517 18.0164 17.0295 17.5366 18.3831 18.4166Z" fill="#90A4AE"/>
<path d="M18.3831 18.4166C16.6536 18.4166 14.9273 18.3891 13.1887 18.4166C12.3973 18.4166 11.9664 18.2516 11.9664 17.3289C12.0174 13.7763 12.0286 10.2206 12 6.66193C12 5.72388 12.44 5.5711 13.2223 5.58638C14.9486 5.61693 16.6781 5.58638 18.4167 5.58638C18.4167 6.19749 18.4167 6.81471 18.4167 7.43804C17.5245 8.10415 16.4825 7.7436 15.5109 7.87193C15.1473 7.92082 14.5606 7.79554 14.5942 8.35471C14.6278 8.91387 15.2053 8.75498 15.5659 8.80387C16.5314 8.93526 17.5825 8.54415 18.4503 9.27443L18.4289 11.1078C17.7873 11.6486 17.005 11.4561 16.2686 11.5386C15.682 11.6028 14.6431 11.2514 14.6614 12.0366C14.6767 12.7303 15.7309 12.4155 16.3359 12.4858C17.0631 12.5683 17.8636 12.3391 18.4595 12.9686L18.4228 14.7744C17.7292 15.3397 16.895 15.1075 16.1159 15.1961C15.575 15.2602 14.6248 14.9425 14.6461 15.6941C14.6675 16.3786 15.6239 16.0791 16.1739 16.1433C16.95 16.235 17.7934 15.9752 18.4503 16.62L18.3831 18.4166Z" fill="#AFBDC4"/>
<path d="M18.4167 9.27751C17.1945 9.27751 15.9967 9.27751 14.7898 9.2989C14.0564 9.32029 13.8303 8.99334 13.8395 8.29973C13.8487 7.60612 14.1451 7.42279 14.7562 7.43501C15.9631 7.45946 17.1731 7.43501 18.3831 7.43501C18.3953 8.05529 18.4167 8.6664 18.4167 9.27751Z" fill="#2188C9"/>
<path d="M18.4167 12.9594C17.1945 12.9594 15.9937 12.9594 14.7806 12.9778C14.0442 12.9961 13.8242 12.6722 13.8303 11.9694C13.8364 11.2666 14.1206 11.0833 14.75 11.0833C15.9723 11.1078 17.1731 11.0833 18.3861 11.0833C18.3984 11.7189 18.4167 12.3391 18.4167 12.9594Z" fill="#2089C9"/>
<path d="M18.4167 16.6108C17.1945 16.6108 15.9967 16.5956 14.7867 16.6292C14.0564 16.6506 13.8242 16.3236 13.8334 15.63C13.8426 14.9364 14.1389 14.75 14.7501 14.75C15.9723 14.7744 17.17 14.75 18.38 14.75C18.3953 15.3794 18.4167 15.9967 18.4167 16.6108Z" fill="#2289C9"/>
</svg>
