<svg width="24" height="24" viewBox="0 0 24 24" fill="none" xmlns="http://www.w3.org/2000/svg">
<path d="M1.03418 13.8328L4.72111 13.7778C5.48782 13.2066 6.37977 13.4112 7.2259 13.4021C8.69823 13.3837 10.1736 13.3287 11.6429 13.4418C12.4676 13.5029 13.1702 13.8083 13.1702 14.7919C13.1702 15.6839 12.4921 15.9496 11.7284 16.0657C11.2916 16.1298 10.812 16.0138 10.3569 16.4261C10.6135 17.0646 11.2152 16.9943 11.7223 17.0371C12.5837 17.0951 13.4512 17.0218 14.3096 17.0798C14.8472 17.1165 15.4612 17.0432 15.7361 17.6907C16.0965 18.653 15.5009 19.1967 14.8472 19.7099C12.431 21.6037 7.74824 21.7106 5.16708 19.9817C3.88414 19.1264 2.41792 19.7129 1.04334 19.6213V19.3311C1.53208 18.8821 2.14912 18.8637 2.74171 18.9004C3.96356 18.9767 4.36677 18.3841 4.26902 17.2631C4.23847 16.9645 4.23847 16.6636 4.26902 16.365C4.40954 15.1065 3.96356 14.4528 2.59815 14.572C2.3216 14.6184 2.03824 14.6036 1.76803 14.5286C1.49782 14.4537 1.24732 14.3204 1.03418 14.1382V13.8328Z" fill="#9176B5"/>
<path d="M1.03418 14.1382C4.74554 14.1382 4.69972 14.1382 4.71805 17.8557C4.71805 18.9493 4.46146 19.4472 3.2946 19.3189C2.54173 19.2761 1.78705 19.2761 1.03418 19.3189V14.1382Z" fill="#785EA8"/>
<path d="M15.7269 17.6938C14.4317 17.3425 13.106 17.6113 11.7986 17.5289C11.2946 17.4953 10.7753 17.5839 10.308 17.3212C9.8406 17.0585 9.40684 16.6858 9.4771 16.1482C9.56263 15.4945 10.1919 15.7969 10.5981 15.7419C10.9034 15.7264 11.2093 15.7264 11.5145 15.7419C12.1743 15.7419 12.9502 15.8091 12.9624 14.8439C12.9746 13.8786 12.2599 13.8664 11.5665 13.8664C9.8406 13.8664 8.11779 13.8664 6.39498 13.8664C5.83904 13.8664 5.2831 13.8175 4.72716 13.79C4.72716 11.6823 4.69356 9.57464 4.69967 7.46695C4.69967 6.93239 4.54388 6.35506 4.94098 5.87549C5.48471 7.82739 6.91427 7.97096 8.65235 7.91292C12.0919 7.7999 15.5375 7.87321 18.98 7.88543C19.7315 7.88543 20.5073 7.7999 21.1519 8.35279C21.1519 10.824 21.1763 13.2921 21.1977 15.7633C21.1977 17.1073 20.434 17.6724 19.2122 17.7152C18.0484 17.7396 16.8907 17.6999 15.7269 17.6938Z" fill="#FDBB5A"/>
<path d="M21.1458 8.33444H7.63522C5.07239 8.33444 5.07239 8.33444 4.93494 5.84492C4.97259 5.67243 5.04654 5.50994 5.15188 5.36826C5.25722 5.22658 5.39152 5.10896 5.54586 5.02323C6.81964 4.25041 11.2152 4.69944 12.2141 5.77467C12.4654 6.05083 12.7776 6.26451 13.126 6.39868C13.4745 6.53285 13.8494 6.5838 14.221 6.54749C15.8888 6.50472 17.5566 6.49556 19.2214 6.54749C20.3272 6.59941 21.2405 6.9568 21.1458 8.33444Z" fill="#F7981F"/>
</svg>
