<svg width="24" height="24" viewBox="0 0 24 24" fill="none" xmlns="http://www.w3.org/2000/svg">
<path d="M5.91028 4.68499C10.1605 4.68499 14.4108 4.70332 18.6611 4.72471C20.3172 4.72471 20.6808 5.31749 19.9047 6.76582C19.0278 8.41581 18.0866 10.0353 17.1944 11.6944C16.8125 12.4094 16.3053 12.9166 15.4925 13.0694C13.2772 13.0694 11.0589 13.0419 8.84361 13.0877C7.91167 13.1091 7.25778 12.8769 7.09583 11.8655L3.93945 5.01804C4.44056 3.9761 5.17084 4.29999 5.91028 4.68499Z" fill="#D4302F"/>
<path d="M7.1112 11.8563C7.72231 12.8005 8.57787 13.0388 9.67175 13.0052C11.6181 12.9441 13.5645 13.0297 15.5109 13.0572L9.74814 13.1549C8.38537 13.1763 8.38537 13.1733 7.89648 14.7408C11.062 14.7408 14.1879 14.7408 17.3167 14.7408C18.0653 14.7408 18.6978 14.6705 18.6703 15.7888C18.6428 16.9071 18.0012 16.8369 17.2556 16.8338C14.3162 16.8338 11.3737 16.8338 8.43426 16.8338C5.7576 16.8338 4.95399 15.4435 6.27704 13.1274C6.52148 12.6783 6.83009 12.2749 7.1112 11.8563Z" fill="#66818E"/>
<path d="M7.51139 21.1941C6.35028 21.1941 5.57417 20.4333 5.65056 19.3058C5.72695 18.1783 6.42056 17.5702 7.52361 17.5122C8.52583 17.4602 9.46694 18.4747 9.42722 19.4769C9.3875 20.4791 8.58694 21.1941 7.51139 21.1941Z" fill="#4A5D67"/>
<path d="M16.7575 21.1972C15.4619 21.2369 14.8844 20.5463 14.7714 19.4616C14.6644 18.4502 15.6361 17.4999 16.6658 17.4999C17.6955 17.4999 18.6764 18.4716 18.5572 19.4677C18.4167 20.5555 17.8667 21.2552 16.7575 21.1972Z" fill="#495D67"/>
<path d="M5.91029 4.68497C5.2778 4.92942 4.53224 4.52608 3.93947 5.01803C3.53613 4.97219 3.13891 4.93553 2.73558 4.92331C1.99919 4.90497 1.99614 4.40081 1.98392 3.86914C1.97169 3.33748 2.02669 2.9372 2.75391 2.8547C4.77363 2.62859 5.07307 2.76303 5.91029 4.68497Z" fill="#6D8693"/>
</svg>
