<svg width="24" height="24" viewBox="0 0 24 24" fill="none" xmlns="http://www.w3.org/2000/svg">
<path d="M22.9786 12C22.9786 15.4069 22.9572 18.8138 22.9999 22.2177C22.9999 22.8747 22.8716 23.003 22.2177 22.9999C15.4059 22.9694 8.59406 22.9694 1.78222 22.9999C1.12833 22.9999 1 22.8747 1 22.2177C1.03056 15.4059 1.03056 8.59406 1 1.78222C1 1.12833 1.12528 1 1.78222 1C8.59406 1.03056 15.4059 1.03056 22.2177 1C22.8716 1 22.9999 1.12528 22.9999 1.78222C22.9572 5.1861 22.9786 8.59304 22.9786 12Z" fill="#FFFEFF"/>
<path d="M15.6666 4.05557C17.2646 3.67973 18.8871 3.97612 20.4943 3.88446C21.136 3.84779 21.2185 4.24501 21.2155 4.7614C21.2155 9.61666 21.1971 14.4719 21.2155 19.3272C21.2155 20.088 20.9374 20.2683 20.2438 20.2439C18.716 20.1858 17.2127 20.1919 15.6941 20.1705C15.1594 19.6633 15.1777 18.988 15.1746 18.3372C15.1563 14.1979 15.1563 10.0587 15.1746 5.91945C15.1777 5.27779 15.1777 4.60251 15.6666 4.05557Z" fill="#5F459C"/>
<path d="M13.8119 20.2102C10.4722 20.2194 7.14772 20.2499 3.81718 20.2499C3.49634 20.2499 3.09301 20.4027 2.90051 19.9627C3.16329 18.0438 3.04718 16.1127 2.97996 14.1938C2.93107 12.8555 3.50857 12.498 4.66968 12.498C6.64967 12.498 8.64189 12.4675 10.6127 12.498C12.5835 12.5286 12.7516 12.9013 11.783 14.5758C11.6577 14.7897 11.4927 15.0005 11.6638 15.2938C12.3116 15.4436 12.611 14.8294 13.0877 14.6063C13.5644 14.3833 14.0685 14.4016 14.1144 15.0066C14.2427 16.7452 14.6674 18.5174 13.8119 20.2102Z" fill="#5F459C"/>
<path d="M13.8119 20.2102C13.8119 18.5908 13.8455 16.9683 13.8547 15.3489C13.8547 15.1502 13.8272 14.9516 13.8149 14.7622C12.6874 14.5483 12.443 17.2066 11.0833 15.6789C9.90384 14.3589 12.3055 14.2886 12.0427 12.9533H6.68329C3.10219 12.9533 3.12663 12.9533 3.08691 16.5008C3.08691 17.6497 3.34052 18.823 2.89136 19.9505C2.89136 14.754 2.89136 9.55961 2.89136 4.36722C3.69191 4.6025 3.52997 5.30222 3.56052 5.86138C3.62163 6.9736 3.6033 8.08888 3.56052 9.2011C3.53608 10.2216 3.95469 10.6861 4.99663 10.6708C7.01635 10.6433 9.03912 10.6708 11.3216 10.6708C10.5913 9.79693 9.9344 9.01165 10.9488 8.1011C11.8655 7.26693 12.5041 7.93304 13.1611 8.46165C13.3719 8.41277 13.3811 8.25999 13.3811 8.11638C13.3688 3.99444 13.7844 4.54139 9.86106 4.50166C8.18968 4.48639 6.51829 4.50166 4.84996 4.50166C4.18691 4.50166 3.52691 4.50166 2.9433 4.12278C3.05941 3.75 3.38941 3.76833 3.68274 3.7775C7.67329 3.89055 11.6761 3.47194 15.6574 4.06472C15.6635 9.43637 15.6768 14.808 15.6972 20.1797L13.8119 20.2102Z" fill="#9F86BE"/>
<path d="M2.93113 4.11969C6.22501 4.10442 9.51889 4.09525 12.8128 4.06775C13.4575 4.06775 13.8853 4.16553 13.8669 4.96302C13.8303 6.41441 13.8669 7.86885 13.8669 9.26829C12.6936 9.57385 12.4767 6.79635 11.0742 8.54413C10.0017 9.86107 12.0886 9.92829 12.0642 11.0833C9.31417 11.0833 6.52751 11.1016 3.73474 11.0833C2.9678 11.0833 3.12363 10.4141 3.10224 9.9344C2.97391 8.07968 3.35891 6.19441 2.89446 4.36108C2.88039 4.27877 2.89325 4.19412 2.93113 4.11969Z" fill="#60459C"/>
</svg>
