<svg width="24" height="24" viewBox="0 0 24 24" fill="none" xmlns="http://www.w3.org/2000/svg">
<path d="M21.1288 4.07985C21.1563 9.15022 21.1685 14.2206 21.2204 19.2909C21.2204 20.0087 21.0189 20.2592 20.2766 20.25C16.9167 20.1981 13.5752 20.1951 10.2245 20.1737C9.7663 19.8133 9.77241 19.2909 9.76325 18.787C9.74187 17.3667 9.71438 15.9463 9.76325 14.5291C9.82434 13.0416 10.2428 12.6017 11.6723 12.5254C12.9949 12.4547 14.3204 12.4547 15.643 12.5254C17.1458 12.6078 17.3505 13.0507 16.5349 14.2908C16.3486 14.5749 16.0187 14.7979 16.1592 15.3263C17.1061 15.421 17.4849 14.5871 17.9919 14.0801C20.2003 11.9175 20.2858 12.1924 17.9919 9.8955C17.7849 9.66572 17.5624 9.45039 17.326 9.25101C16.987 8.99139 16.6357 8.46297 16.1745 8.90892C15.7805 9.28767 16.2661 9.62671 16.4586 9.95353C17.1092 11.0837 16.9962 11.3891 15.7316 11.4685C14.2105 11.5464 12.6864 11.5464 11.1652 11.4685C10.2275 11.4349 9.79685 10.9218 9.77547 10.0146C9.74187 8.39272 9.71438 6.77081 9.79074 5.1489C9.81823 4.52274 9.94346 3.91186 10.8079 3.92713C14.2472 4.02487 17.6926 3.75303 21.1288 4.07985Z" fill="#D81D61"/>
<path d="M8.33066 20.1951C6.86453 20.1951 5.3984 20.1951 3.93533 20.247C3.18393 20.2745 2.86627 20.0882 2.87544 19.2513C2.93042 14.2053 2.93042 9.17161 2.94874 4.11346C4.54011 3.73166 6.15285 4.03099 7.75337 3.94242C8.40702 3.90576 8.63 4.3456 8.73385 4.87707C8.82701 5.52732 8.85769 6.18499 8.82548 6.84108C8.82548 10.5736 8.82548 14.3061 8.82548 18.0417C8.82243 18.787 8.91711 19.572 8.33066 20.1951Z" fill="#D81D61"/>
<path d="M8.33065 20.1951C8.33065 15.2377 8.33065 10.2834 8.37341 5.32913C8.37341 4.28757 8.00382 4.02489 7.04779 4.07376C5.68551 4.14401 4.31712 4.10736 2.94873 4.11347C3.95975 3.42317 5.08684 3.83551 6.15894 3.8233C10.6276 3.76526 15.0962 3.78664 19.5618 3.8233C20.0811 3.8233 20.6828 3.55451 21.1226 4.09209C17.9277 4.09209 14.7328 4.14096 11.5378 4.09209C10.4443 4.07071 10.1328 4.4464 10.1877 5.48491C10.2641 6.95104 10.2427 8.42328 10.1877 9.89246C10.1572 10.7783 10.4046 11.1814 11.3759 11.1478C13.1261 11.0867 14.8794 11.1295 16.6815 11.1295C16.5624 10.4178 16.095 10.1429 15.7346 9.83443C15.1237 9.31212 15.1787 8.94559 15.7346 8.39273C16.2905 7.83988 16.5807 7.89181 17.0694 8.42022C17.9857 9.42208 18.9723 10.3873 19.9711 11.3189C20.5453 11.8534 20.582 12.2352 19.9894 12.8003C18.9479 13.7655 17.946 14.7735 16.9778 15.8059C16.4463 16.3709 16.095 16.2213 15.6002 15.757C15.1054 15.2927 15.2459 14.9414 15.6766 14.5352C16.1072 14.129 16.5562 13.8419 16.8403 13.008C14.8122 13.008 12.8695 12.9774 10.9391 13.008C10.148 13.0263 10.2061 13.7044 10.2061 14.2603C10.2061 16.2365 10.2061 18.2128 10.2061 20.1859L8.33065 20.1951Z" fill="#E876A0"/>
</svg>
