<svg width="24" height="24" viewBox="0 0 24 24" fill="none" xmlns="http://www.w3.org/2000/svg">
<path d="M21.1269 8.63885C21.1269 11.6302 21.1482 14.6246 21.1727 17.6191C21.1727 18.823 20.638 19.3485 19.4096 19.3393C14.4841 19.3108 9.55959 19.3108 4.6361 19.3393C3.74999 19.3332 3.0075 19.0277 2.96166 18.1691C2.87305 16.4702 2.60111 14.7499 3.13889 13.0602C3.42611 12.3666 4.05555 12.5408 4.57499 12.5347C8.17442 12.498 11.7738 12.5041 15.3702 12.5347C15.9538 12.5347 16.7055 12.4033 16.9683 13.106C17.231 13.8088 16.5344 14.1572 16.2013 14.6338C15.8316 15.1685 14.6583 15.633 15.2663 16.2471C15.9752 16.9652 16.516 15.8224 17.0324 15.3733C17.7933 14.7102 18.4533 13.931 19.1988 13.2344C19.9994 12.498 20.0635 11.8197 19.2324 11.0711C18.8668 10.7862 18.625 10.3715 18.5571 9.91301C19.0888 8.85579 19.9444 8.38218 21.1269 8.63885Z" fill="#FED494"/>
<path d="M2.93113 11.1016C2.90058 9.73275 2.87308 8.35165 2.83641 6.99499C2.79974 5.56194 3.52391 4.76139 4.92334 4.74916C9.64415 4.70944 14.368 4.70333 19.0888 4.74916C20.311 4.76444 21.4599 5.125 21.1696 6.79943C20.1369 7.75582 18.8383 8.22637 17.5794 8.76414C16.9683 8.81303 16.6077 8.3547 16.2075 7.9972C15.9019 7.73748 15.6391 7.3861 15.193 7.69165C14.6827 8.06442 14.9272 8.44942 15.2144 8.83137C15.3183 8.93853 15.3915 9.07161 15.4264 9.21672C15.4614 9.36183 15.4567 9.51366 15.413 9.65636C14.643 10.5211 13.543 10.8175 12.5561 11.3125C12.1921 11.4195 11.8041 11.4131 11.4439 11.2941C8.95971 9.91914 6.39917 8.69998 3.75002 7.3861C3.66141 8.44331 4.27251 8.60831 4.73084 8.85275C5.64751 9.36303 6.65889 9.74803 7.54805 10.3255C7.93916 10.5791 8.55638 10.9366 7.66111 11.3858C6.06 11.5202 4.4589 11.8869 2.93113 11.1016Z" fill="#FFD495"/>
<path d="M11.4195 11.0619H12.6417C13.9372 10.5822 15.2847 10.6952 16.6139 10.7411C15.8775 10.6738 15.5292 10.2186 15.3917 9.54328C15.1847 9.26204 14.9514 9.00114 14.695 8.76412C13.9983 8.22024 14.4628 7.88718 14.8417 7.45635C15.3122 6.91552 15.6728 6.87885 16.1525 7.45635C16.5628 7.89608 16.9995 8.31037 17.4603 8.6969C18.1478 8.80996 18.4778 9.30801 18.7069 9.88856C20.6564 12.278 20.6564 12.278 18.4014 14.533C17.72 15.2174 17.0172 15.8774 16.3603 16.5863C15.8469 17.1394 15.4619 17.393 14.7561 16.7269C13.9372 15.9538 14.5636 15.5963 15.0281 15.1991C15.6667 14.6277 16.3603 14.1144 17.0294 13.5766L16.7483 13.0999H3.13895C2.71423 12.4888 2.92811 11.8044 2.93117 11.1413L8.02781 11.0497C9.16447 10.3255 10.292 10.6311 11.4195 11.0619Z" fill="#47B3E5"/>
<path d="M18.6886 9.86108C18.1828 9.57046 17.755 9.16156 17.4419 8.66942C18.5834 7.86562 19.8389 7.23735 21.1666 6.80554C21.1513 7.41665 21.1391 8.02776 21.1238 8.63887C20.2325 8.86339 19.4012 9.28059 18.6886 9.86108Z" fill="#FCB74F"/>
<path d="M11.4194 11.0619L8.02775 11.0497C6.69553 10.3469 5.37554 9.62274 4.02499 8.95663C3.44444 8.65718 3.04416 8.3333 3.13888 7.58163C3.19388 7.10497 3.27944 6.73525 3.85388 7.04692C6.35942 8.40358 9.09107 9.35385 11.4194 11.0619Z" fill="#FCB74F"/>
<path d="M15.361 9.52802L16.9988 11.0558H12.6294C13.5461 10.5465 14.4566 10.0373 15.361 9.52802Z" fill="#F9B853"/>
</svg>
