<svg width="24" height="24" viewBox="0 0 24 24" fill="none" xmlns="http://www.w3.org/2000/svg">
<path d="M9.52197 7.96663C10.1881 5.7758 11.887 5.46413 13.8303 5.60774C14.6706 6.75052 15.0525 8.14385 15.9111 9.27441C17.0936 10.8816 17.5275 10.9275 18.9667 9.52191C19.2356 9.25913 19.4128 8.80385 19.9292 8.94441C20.5403 12.0244 21.0995 15.1105 21.1972 18.2669C21.24 19.6908 20.6595 20.3019 19.2111 20.2469C17.4359 20.1766 15.6545 20.1889 13.8761 20.2469C12.5439 20.2866 12.0428 19.5808 12.0122 18.3922C11.9847 17.5825 12.0122 16.7666 12.0122 15.9477C11.7898 15.6718 11.6594 15.333 11.6395 14.9791C11.6639 12.8402 10.9275 10.9489 9.7328 9.21024C9.46086 8.84052 9.2653 8.43719 9.52197 7.96663Z" fill="#8E6F64"/>
<path d="M9.52196 7.96661C10.1331 9.10328 10.7992 10.2216 11.3736 11.3827C12.0886 12.828 12.0397 14.4016 12.0031 15.9661C10.0567 15.5352 8.03085 15.4527 6.26779 14.313C5.02112 13.4972 3.90585 12.6111 3.44446 11.1077C4.47418 10.4599 5.10668 9.49745 5.58335 8.40967C6.87585 8.14995 8.2814 8.80995 9.52196 7.96661Z" fill="#9A7E73"/>
<path d="M19.9262 8.9597C17.6498 11.8594 16.8339 11.7983 14.9884 8.50442C14.4781 7.58775 13.867 6.71081 13.8303 5.60775C13.9709 4.37025 14.7042 3.87525 15.902 3.90275C16.9134 3.9272 17.9278 3.90275 18.9392 3.90275C21.0598 3.93637 21.7687 4.9447 21.017 6.95831C20.7045 7.65204 20.3398 8.32109 19.9262 8.9597Z" fill="#5B423A"/>
<path d="M5.58334 8.40969C5.64445 9.92219 5.04251 10.9091 3.44445 11.1077C2.32001 8.39135 2.42084 8.26607 5.58334 8.40969Z" fill="#654D47"/>
<path d="M12.0519 9.25C11.5539 9.25 11.1353 9.04222 11.1353 8.48C11.1332 8.35159 11.1565 8.22404 11.2038 8.10464C11.2511 7.98523 11.3214 7.87631 11.4108 7.7841C11.5002 7.69188 11.6068 7.61817 11.7247 7.56719C11.8426 7.5162 11.9693 7.48893 12.0978 7.48694C12.6722 7.45333 12.9166 7.85667 12.9166 8.37917C12.9257 8.49531 12.9096 8.61205 12.8695 8.72142C12.8293 8.83078 12.766 8.93019 12.684 9.01286C12.6019 9.09553 12.5029 9.15951 12.3938 9.20044C12.2848 9.24136 12.1681 9.25827 12.0519 9.25Z" fill="#5D433C"/>
</svg>
