<svg width="24" height="24" viewBox="0 0 24 24" fill="none" xmlns="http://www.w3.org/2000/svg">
<path d="M17.8453 1.96253C19.0889 1.77614 19.4433 2.28642 19.373 3.53614C19.263 6.0478 19.3333 8.56863 19.3333 11.0833C17.4022 11.9358 16.0272 11.6486 14.8233 10.1453C13.4056 8.37613 11.7006 8.36696 10.2645 10.1178C8.98418 11.6761 7.45335 11.9786 5.63835 11.0345C5.63835 8.59002 5.74224 6.11197 5.60474 3.66142C5.52224 2.20697 6.05085 1.79142 7.35557 1.98697C8.07057 2.56447 7.76196 3.38336 7.85668 4.10447C7.91473 4.54753 7.85668 5.08225 8.46779 5.14336C9.4914 5.24725 10.1911 5.87364 10.9489 6.48169C11.4573 6.86756 12.0841 7.06456 12.7219 7.03892C13.3597 7.01327 13.9686 6.76658 14.4444 6.34113C14.5575 6.24336 14.6369 6.08447 14.7653 6.03558C16.3175 5.3328 17.4908 4.38864 17.3075 2.44531C17.2769 2.20392 17.6131 2.06947 17.8453 1.96253Z" fill="#366A34"/>
<path d="M5.62305 21.0842L5.65055 12.1131C7.29138 11.0834 8.98721 11.3889 10.0964 12.9167C11.5569 14.9028 13.763 14.8508 15.0586 12.7975C15.9233 11.4256 17.503 11.1506 19.2997 12.055C19.2997 14.5453 19.2355 17.0386 19.3852 19.5197C19.48 21.0689 18.9605 21.5211 17.5336 21.1422C17.4495 21.0851 17.3803 21.0086 17.3319 20.9192C16.8797 19.697 15.1411 17.442 14.0655 16.7025C13.1489 16.0761 12.2322 15.9264 11.2391 16.5497C10.8939 16.7667 10.6005 17.1456 10.2705 17.2495C8.52888 17.7933 7.65193 18.7589 7.6061 20.7358C7.58471 21.6433 6.38082 21.3531 5.62305 21.0842Z" fill="#356A34"/>
<path d="M19.2997 12.0428C18.6427 12.0428 17.9797 12.0856 17.3289 12.0428C16.3511 11.9664 15.7675 12.1558 15.2602 13.2161C14.2611 15.297 11.0772 15.5047 10.023 13.4789C9.24998 12 8.27832 11.9633 7.01332 12.0458C6.55804 12.0733 6.09665 12.0886 5.65054 12.1131C5.65054 11.7495 5.63221 11.3889 5.6261 11.0253C6.27693 11.062 6.93387 11.0742 7.58165 11.1353C8.65109 11.2361 9.34165 11.0131 9.93137 9.88252C10.9458 7.93919 13.9036 7.77419 14.9639 9.6778C15.7858 11.1689 16.7972 11.2056 18.1111 11.1322C18.5144 11.1108 18.9177 11.0986 19.3333 11.0833C19.3119 11.4042 19.3058 11.725 19.2997 12.0428Z" fill="#D9E3D4"/>
<path d="M8.69698 1.96252L16.4947 1.9778C17.5978 3.88141 17.0264 5.11585 14.967 5.14335C13.2436 5.16474 11.5173 5.18307 9.79392 5.14335C9.08503 5.12807 8.2967 5.07919 8.06143 4.22669C7.82615 3.37419 7.72226 2.48808 8.69698 1.96252Z" fill="#396C35"/>
<path d="M16.5833 21.1667L8.38528 21.1269C7.38611 19.2478 8.02778 18.0133 10.0842 17.9431C11.6119 17.8942 13.1397 17.9431 14.6492 17.9278C16.9714 17.9156 17.5825 18.9606 16.5833 21.1667Z" fill="#386C35"/>
<path d="M8.697 1.96253C8.18367 2.58892 8.48311 3.33142 8.41283 4.01892C8.35478 4.55058 8.63895 4.73392 9.13394 4.73086C11.3676 4.73086 13.6012 4.71558 15.8317 4.73086C16.4153 4.73086 16.672 4.52919 16.6231 3.93642C16.565 3.28253 16.5345 2.62864 16.4948 1.9717L17.8453 1.95642C17.2342 2.83642 17.6467 3.82642 17.5398 4.76142C17.4939 5.2228 17.5734 5.75753 16.8675 5.64753C15.8959 5.49475 15.3214 5.97753 14.6767 6.64364C13.4545 7.91169 11.4837 7.78336 10.1881 6.47864C9.80616 6.09058 9.55561 5.52225 8.85894 5.65975C7.49617 5.93169 7.38617 5.1403 7.45034 4.0892C7.45518 3.38173 7.41742 2.67462 7.33728 1.9717L8.697 1.96253Z" fill="#D5E0D0"/>
<path d="M16.5833 21.1666C16.6567 18.4869 16.6567 18.49 14.0503 18.49C12.6844 18.49 11.3003 18.5786 9.95583 18.4655C8.66639 18.3586 8.19584 18.8169 8.38528 20.0666C8.41278 20.4195 8.41278 20.774 8.38528 21.1269C7.46861 21.2339 6.52445 21.9947 5.61084 21.0903C6.97667 21.4355 7.71306 21.0903 7.47778 19.5044C7.30361 18.328 7.32806 17.2036 9.085 17.5428C9.65028 17.6528 9.83972 17.1333 10.1483 16.8217C11.615 15.3336 13.488 15.3519 14.9547 16.8614C15.193 17.1058 15.3183 17.5886 15.7217 17.5183C17.9369 17.1303 17.5244 18.6733 17.5244 19.92C17.5244 20.3233 17.5244 20.7297 17.5244 21.1422L16.5833 21.1666Z" fill="#D6E1D2"/>
<path d="M12.6692 12.0734C12.8724 12.0533 13.0771 12.0533 13.2803 12.0734C13.7355 12.1681 14.4658 11.7464 14.5942 12.3789C14.7042 12.9137 14.1083 13.32 13.6164 13.6195C13.3765 13.7653 13.109 13.8597 12.8307 13.8965C12.5524 13.9333 12.2695 13.9118 12 13.8334C11.2911 13.6439 10.4722 13.2223 10.5547 12.4889C10.6403 11.6639 11.5478 12.2537 12.0825 12.0948C12.2762 12.0617 12.4735 12.0545 12.6692 12.0734Z" fill="#43723C"/>
<path d="M14.75 11.1353C13.4208 11.1353 12.2383 11.1353 11.0589 11.1353C10.2247 11.1353 10.4478 10.6953 10.7533 10.2797C10.9661 9.96456 11.2603 9.71291 11.6046 9.55151C11.9489 9.39012 12.3305 9.32499 12.7089 9.36305C13.6683 9.47305 14.3528 9.98333 14.75 11.1353Z" fill="#3A6D36"/>
<path d="M14.2275 5.78503C13.0328 6.82392 12.0886 6.68337 11.1353 5.78503H14.2275Z" fill="#3A6B35"/>
<path d="M10.7778 17.4725C12.0673 16.4856 13.0359 16.3939 14.2123 17.4725H10.7778Z" fill="#47733F"/>
</svg>
