<svg width="24" height="24" viewBox="0 0 24 24" fill="none" xmlns="http://www.w3.org/2000/svg">
<path d="M12 22.9782C8.59316 22.9782 5.18628 22.9568 1.78245 22.9996C1.12552 22.9996 1.00024 22.8713 1.00024 22.2174C1.0308 15.4057 1.0308 8.59393 1.00024 1.78221C1.00024 1.12528 1.12552 1 1.78245 1C8.59417 1.03055 15.4059 1.03055 22.2176 1C22.8746 1 22.9998 1.12528 22.9998 1.78221C22.9693 8.59393 22.9693 15.4057 22.9998 22.2174C22.9998 22.8713 22.8746 23.0087 22.2176 22.9996C18.8138 22.9568 15.4069 22.9782 12 22.9782Z" fill="#FEFEFF"/>
<path d="M21.1666 12.1923C21.1666 14.1722 21.188 16.1491 21.1666 18.1291C21.1421 20.0021 20.0024 21.1388 18.1111 21.151C14.1532 21.1714 10.1953 21.1714 6.23742 21.151C4.28802 21.151 2.90693 19.7913 2.87638 17.8052C2.83971 13.9492 2.83971 10.0931 2.87638 6.23711C2.89692 5.34531 3.26303 4.49634 3.89749 3.86929C4.53196 3.24224 5.38516 2.88612 6.27714 2.87606C10.0843 2.84958 13.8904 2.84958 17.6955 2.87606C19.8497 2.87606 21.1513 4.24798 21.1666 6.41433C21.1666 8.34235 21.1666 10.2704 21.1666 12.1984V12.1923Z" fill="#B1BEC5"/>
<path d="M19.3333 12.1556C19.3333 13.882 19.2691 15.6114 19.3547 17.3499C19.431 18.8533 18.6824 19.3391 17.3441 19.3391C13.8334 19.333 10.3226 19.2871 6.82101 19.333C5.36965 19.3513 4.72799 18.5813 4.70355 17.3163C4.64244 13.8147 4.64244 10.3111 4.70355 6.80543C4.72188 5.51601 5.52853 4.71241 6.82101 4.69408C10.2737 4.63908 13.7264 4.64825 17.1791 4.69408C18.7313 4.70936 19.318 5.38768 19.318 6.97654C19.3333 8.70289 19.3333 10.4292 19.3333 12.1556Z" fill="#D0D8DC"/>
<path d="M6.56732 9.78761V7.20571C6.56732 5.75435 7.48397 5.15853 8.88339 5.64741C9.36616 5.81546 9.29894 6.16073 9.29894 6.49378C9.29894 8.66929 9.26533 10.8479 9.32338 13.0203C9.35394 14.1509 8.6084 13.9034 8.00341 13.8911C7.39842 13.8789 6.47566 14.1967 6.5551 12.9745C6.61316 11.9142 6.56732 10.8509 6.56732 9.78761Z" fill="#394951"/>
<path d="M17.5427 9.73258C17.5427 10.6951 17.4663 11.6637 17.561 12.6139C17.6741 13.7353 17.2004 13.9461 16.186 13.9339C15.1716 13.9217 14.7224 13.7658 14.7774 12.62C14.8722 10.6523 14.866 8.67232 14.7774 6.70152C14.7224 5.43349 15.5108 5.66571 16.2532 5.62904C16.9957 5.59238 17.6527 5.6046 17.561 6.69847C17.4754 7.70067 17.5427 8.72121 17.5427 9.73258Z" fill="#394951"/>
<path d="M12.0611 18.4927C11.2942 18.3613 10.072 19.0091 10.1942 17.2705C10.3072 15.6817 10.8328 14.8444 12.0458 14.8261C13.2588 14.8078 13.7844 15.5992 13.9341 17.2033C14.093 18.8747 12.99 18.4438 12.0611 18.4927Z" fill="#394951"/>
</svg>
