<svg width="24" height="24" viewBox="0 0 24 24" fill="none" xmlns="http://www.w3.org/2000/svg">
<path d="M3.15417 19.3608C2.76 19.1286 2.31695 18.9453 2.22222 18.4166C1.91667 15.3886 2.16417 12.3514 2.09084 9.31722C2.06334 8.205 2.09084 7.08973 2.09084 5.97445C2.09084 4.44668 2.24056 4.26334 3.82944 4.21445C5.66277 4.1564 7.4961 4.19612 9.30498 4.19612C11.3308 4.19612 13.3597 4.17473 15.3855 4.19612C16.1341 4.19612 16.9347 4.13196 17.4786 4.83779C17.8147 6.06001 17.5427 7.33417 17.6344 8.58083C17.6864 9.31111 17.2311 9.54028 16.6322 9.64416C16.0333 9.74805 15.3183 9.58916 14.6919 9.83666C10.683 11.065 9.10637 13.8333 10.1666 17.8055C10.5639 19.3089 10.4722 19.48 8.8986 19.4525C6.97666 19.428 5.06388 19.6053 3.15417 19.3608Z" fill="#0C897B"/>
<path d="M14.42 9.5372C14.5428 9.4517 14.6764 9.38286 14.8173 9.33247C15.6789 9.13692 16.9042 9.73275 17.3534 8.95664C17.772 8.22942 17.5031 7.10498 17.5245 6.1547C17.5245 5.75443 17.497 5.35415 17.4817 4.95387C17.112 4.34276 16.9256 3.73165 17.5214 3.12054C18.157 4.72471 17.7475 6.39609 17.7903 8.03387C17.8148 8.99331 18.0042 9.57692 18.9453 10.0322C23.0153 12.003 23.4095 18.5205 19.2906 21.2736C18.1661 22.0252 16.9592 22.1536 15.6759 22.0313C14.8448 20.6777 15.3703 19.1744 15.1931 17.7536C15.2787 17.2769 15.7217 17.2188 16.0487 17.0172C17.3605 16.2207 17.4023 15.3366 16.1739 14.365C15.902 14.1541 15.5812 13.9983 15.4253 13.6591C15.2267 13.0286 15.1662 12.3626 15.2481 11.7066C15.2933 11.3052 15.2417 10.8987 15.0977 10.5213C14.9536 10.1439 14.7212 9.80643 14.42 9.5372Z" fill="#B0BEC5"/>
<path d="M14.42 9.53719C15.3978 9.43636 15.7461 9.8733 15.6758 10.8419C15.6055 11.8105 15.6758 12.8372 15.6758 13.8364C15.6577 13.9346 15.6157 14.027 15.5536 14.1052C14.0258 15.7675 14.0258 15.7644 15.358 17.5366C16.0211 19.0002 15.4955 20.5494 15.685 22.0436C14.8303 22.1817 13.9545 22.0977 13.1417 21.7997C12.3289 21.5016 11.6064 20.9995 11.0436 20.3416C10.8266 20.0972 10.5557 19.9065 10.2524 19.7845C9.94914 19.6625 9.62167 19.6127 9.29583 19.6388C7.72527 19.6786 6.15472 19.6633 4.58417 19.6388C4.09528 19.6388 3.55445 19.8008 3.15417 19.3333C5.13417 19.3547 7.12639 19.3333 9.09722 19.4097C10.2461 19.4555 10.1697 19.0522 9.84583 18.1722C8.37611 14.2 10.4264 10.3714 14.42 9.53719Z" fill="#CFD9DC"/>
<path d="M17.5213 3.13888C17.5213 3.74999 17.4938 4.3611 17.4816 4.97221C16.9703 4.74965 16.412 4.65626 15.8561 4.70027C11.8044 4.70027 7.7497 4.73999 3.7011 4.67888C2.57972 4.64527 2.22222 4.94777 2.22222 6.10582C2.28333 10.2064 2.22222 14.31 2.22222 18.4166C1.71194 13.3719 1.91666 8.33331 2.13666 3.26722C2.17333 2.41777 2.90666 2.045 3.66444 2.045C7.72424 2.00833 11.7851 2.00324 15.8469 2.02972C16.2076 2.01309 16.5642 2.11159 16.8652 2.31097C17.1662 2.51036 17.396 2.8003 17.5213 3.13888Z" fill="#37A296"/>
<path d="M15.3611 17.5366C14.4688 17.2311 13.8883 16.62 13.9402 15.6605C13.9861 14.6308 14.75 14.1389 15.6666 13.8333C16.8094 14.0808 17.6588 14.6308 17.4999 15.9508C17.3472 17.1944 16.4763 17.5702 15.3611 17.5366Z" fill="#138A7D"/>
</svg>
