<svg width="24" height="24" viewBox="0 0 24 24" fill="none" xmlns="http://www.w3.org/2000/svg">
<path d="M12.2811 18.7222C10.4722 18.4167 9.01471 18.7222 8.51971 20.7878C8.49832 20.8794 8.45554 21.0292 8.4036 21.0383C6.91564 21.3685 5.37273 21.3623 3.8875 21.02C2.8975 20.7572 2.80583 19.6664 2.87 18.6978C2.90819 18.2423 2.90819 17.7844 2.87 17.3289C2.77528 16.3328 2.94639 15.6881 4.11361 15.3367C5.28083 14.9853 5.64138 13.8089 5.64138 12.6111C6.63444 12.2658 7.65805 12.4981 8.66638 12.4675C10.518 12.4095 10.6128 12.3453 10.625 10.4417C10.6403 8.6603 10.625 6.88197 10.625 5.10364C10.625 4.49253 10.5853 3.88142 10.8725 3.31003C11.8625 2.56142 12.3483 3.5117 12.6416 4.04336C13.4239 5.4703 14.4444 6.19447 16.1341 6.19447C17.4694 6.19447 17.8208 7.33113 17.8728 8.47391C17.9186 9.46696 17.998 10.3959 18.9911 10.9703C19.373 11.1933 19.8069 11.5081 19.5839 12.0642C19.3914 12.55 18.9116 12.6753 18.4472 12.6753C16.8705 12.7547 15.2939 12.7058 13.7203 12.7058C13.1703 12.7058 12.5866 12.5622 12.165 13.0817C10.9519 14.9883 11.2941 16.8614 12.2811 18.7222Z" fill="#D95656"/>
<path d="M12.2811 18.7222C11.3217 18.3953 10.955 17.7659 11.0589 16.7331C11.1231 15.8381 11.1292 14.9399 11.0772 14.0442C11.0772 13.4086 11.2728 12.9717 11.9786 12.9228C12.5409 12.4309 13.2222 12.6417 13.8578 12.6173C15.8103 12.5378 17.772 12.7395 19.7214 12.495C19.9728 12.4514 20.2309 12.4668 20.4754 12.5399C20.7198 12.6131 20.9439 12.7421 21.13 12.9167C21.3561 14.3253 20.6014 15.1839 19.3975 15.5781C18.6275 15.8317 18.4808 16.2259 18.5358 16.9011C18.5603 17.1517 18.5358 17.4084 18.5358 17.662C18.5358 21.0628 18.2792 21.3042 14.8936 21.2003C14.2825 21.182 13.8486 21.1758 13.7081 20.412C13.5675 19.6481 12.9167 19.147 12.2811 18.7222Z" fill="#D4302F"/>
<path d="M11.0344 3.17555C11.0344 6.04777 11.0344 8.92304 11.0925 11.7953C11.0925 12.6447 10.8083 13.0175 9.95274 12.9228C8.51664 12.77 7.03164 13.2558 5.62914 12.6172C5.32359 11.5355 4.76137 10.6769 3.58498 10.4325C3.02276 10.3164 2.84554 10.0261 2.86998 9.48526C2.90359 8.83443 2.84859 8.17443 2.89137 7.5236C2.97081 6.33194 3.63998 5.70555 4.8347 5.65055C5.18609 5.65055 5.54053 5.65055 5.89192 5.65055C7.13553 5.65055 8.51969 6.00805 8.90164 4.14111C8.99636 3.65833 9.55552 3.24889 10.1452 3.13889C10.276 3.04413 10.4349 2.99622 10.5962 3.00287C10.7575 3.00952 10.9119 3.07036 11.0344 3.17555Z" fill="#D4302F"/>
<path d="M11.0344 3.17559L10.1453 3.13892C11.7525 2.66837 13.0816 3.09309 13.6408 4.49864C14.0044 5.41531 14.4566 5.67809 15.4008 5.66281C18.1997 5.62003 18.5786 6.02031 18.5755 8.92002C18.5755 9.71752 18.7344 10.1606 19.5655 10.4753C20.6014 10.8695 21.3347 11.6517 21.13 12.9197H12C12.0305 12.2231 12.388 12.2139 13.0144 12.2475C14.8478 12.3422 16.6536 12.2934 18.4747 12.2995C18.8291 12.2995 19.2752 12.3361 19.3914 11.945C19.5289 11.4867 19.04 11.3797 18.7436 11.2636C17.6558 10.842 17.4511 10.0261 17.4725 8.95975C17.5152 6.79947 17.2708 6.57336 15.2266 6.51531C14.1236 6.48169 13.3933 6.00197 12.8403 5.01809C12.4155 4.29392 12.1314 3.29476 11.0344 3.17559Z" fill="#D95656"/>
</svg>
