<svg width="24" height="24" viewBox="0 0 24 24" fill="none" xmlns="http://www.w3.org/2000/svg">
<path d="M11.6944 23L6.6925 19.4556H17.3625C15.8561 20.9222 13.9311 21.57 12.6111 23H11.6944Z" fill="#6C3192"/>
<path d="M12 17.7016C10.2277 17.7016 8.45551 17.7413 6.68634 17.6833C6.04467 17.6588 5.06384 18.1263 4.83467 17.2066C4.60551 16.2869 4.56273 15.1624 5.34801 14.3313C5.65819 13.9977 6.02166 13.7178 6.42356 13.5033C10.3072 11.4836 14.1847 11.5019 18.0072 13.6591C18.5915 14.0201 19.039 14.5653 19.2791 15.2087C19.5192 15.8522 19.5383 16.5572 19.3333 17.2127C19.1347 17.8697 18.6366 17.6894 18.2241 17.6955C16.1463 17.7138 14.0716 17.7016 12 17.7016Z" fill="#785DA7"/>
<path d="M8.38831 6.56109C8.39089 6.06811 8.49229 5.58066 8.6865 5.12754C8.88071 4.67442 9.1638 4.26484 9.51902 3.923C9.87425 3.58117 10.2944 3.31402 10.7546 3.13735C11.2149 2.96068 11.7059 2.87808 12.1986 2.89442C13.1672 2.93209 14.0841 3.34134 14.7589 4.0372C15.4337 4.73306 15.8146 5.66208 15.8225 6.63137C15.786 7.62814 15.3639 8.57179 14.645 9.26328C13.9262 9.95476 12.9669 10.34 11.9694 10.3378C11.0026 10.2861 10.0923 9.86576 9.42613 9.16318C8.75993 8.46059 8.38849 7.52931 8.38831 6.56109Z" fill="#785DA8"/>
</svg>
