<svg width="24" height="24" viewBox="0 0 24 24" fill="none" xmlns="http://www.w3.org/2000/svg">
<path d="M21.1078 9.95821L21.1261 14.0876C20.894 15.9415 20.3748 17.6336 18.6033 18.6293C14.9779 21.989 9.63898 22.2456 5.61344 18.6873C3.88167 17.6977 3.22805 16.079 3.01731 14.2098C2.96844 13.7669 3.10588 13.2935 2.9043 12.875V11.1341C3.06312 9.85436 3.09977 8.56545 3.79615 7.39567C4.19265 6.644 4.7942 6.02021 5.53098 5.5967C9.92303 1.93156 14.083 1.93156 18.6644 5.62113C20.3534 6.58934 20.8573 8.19894 21.1078 9.95821Z" fill="#D42F2E"/>
<path d="M2.90433 12.8751C3.21791 15.0335 4.16015 17.0518 5.61347 18.6782C3.31971 18.6782 2.86462 18.2139 2.86462 16.0088C2.86768 14.9703 2.88906 13.9227 2.90433 12.8751Z" fill="#C2C9CD"/>
<path d="M5.54325 5.59668C4.14176 7.14372 3.22803 9.06999 2.91657 11.1341C2.89214 10.1873 2.83716 9.24654 2.83716 8.29055C2.83716 5.98763 3.21283 5.62722 5.54325 5.59668Z" fill="#C1C7CC"/>
<path d="M18.6034 18.6293C19.731 17.2934 20.5878 15.7508 21.1262 14.0876C21.1262 14.8359 21.1537 15.5842 21.1507 16.3325C21.1446 18.2719 20.6101 18.7484 18.6034 18.6293Z" fill="#BEC7CC"/>
<path d="M21.1078 9.95817C20.5759 8.37565 19.7558 6.9052 18.6888 5.62109C20.8818 5.62109 21.1323 5.84711 21.1934 7.99427C21.2056 8.63567 21.1384 9.30455 21.1078 9.95817Z" fill="#BEC6CB"/>
<path d="M19.2355 10.731C19.7609 14.6007 18.0444 17.5512 14.4525 18.947C12.9254 19.0355 11.383 19.0019 9.84667 18.9714C7.36048 18.1162 7.35132 18.0948 9.11975 16.3447C9.98105 15.4926 10.8637 14.6649 11.7373 13.8249C13.6706 12.6063 15.7506 11.69 17.8031 10.7035C18.2307 10.4897 18.7743 10.004 19.2355 10.731Z" fill="#BCC8CE"/>
<path d="M5.61047 8.94116C5.95672 8.08113 6.49071 7.3093 7.17343 6.68206C7.85616 6.05482 8.67037 5.58801 9.5566 5.31573C11.2945 5.15385 13.0324 5.2913 14.7703 5.34322C15.3318 5.45841 15.8464 5.73802 16.2485 6.14649L11.0837 11.69C8.97934 11.3113 7.21397 10.282 5.61047 8.94116Z" fill="#BCC8CE"/>
<path d="M9.86197 12.8934L6.19683 16.3294C4.99344 14.619 4.36426 12.6826 5.0362 10.4683C5.96697 10.5051 6.8791 10.7405 7.71141 11.1588C8.54373 11.5771 9.27697 12.1685 9.86197 12.8934Z" fill="#BCC6CC"/>
<path d="M19.2356 10.7309C18.5575 10.398 18.1085 10.96 17.5862 11.1799C15.6162 12.0137 13.8631 13.3179 11.7373 13.8249L15.6376 9.89099C16.6333 9.60694 17.4122 8.84032 18.4445 8.63873C18.8849 9.25584 19.1575 9.97678 19.2356 10.7309Z" fill="#92A4AD"/>
<path d="M9.86202 12.8933C8.34273 11.9183 6.72527 11.1055 5.03625 10.4682C5.0546 9.90992 5.2564 9.3732 5.61046 8.9411L11.0837 11.69C10.7686 12.175 10.3517 12.5856 9.86202 12.8933Z" fill="#91A3AD"/>
<path d="M14.7488 5.34317C13.0451 5.78549 11.2555 5.77602 9.55652 5.31568C10.3808 4.97677 11.2642 4.8047 12.1554 4.80942C13.0467 4.81414 13.9281 4.99555 14.7488 5.34317Z" fill="#F8F3F0"/>
<path d="M18.4446 8.63572C17.6474 9.35958 16.8564 10.1018 15.6407 9.88797C16.1478 9.35042 16.6761 8.82814 17.1679 8.26615C17.8826 7.44149 18.2002 7.88436 18.4446 8.63572Z" fill="#BEBFC4"/>
<path d="M9.86206 18.9714C11.357 18.5359 12.944 18.5275 14.4435 18.9469C12.9682 19.5016 11.3432 19.5102 9.86206 18.9714Z" fill="#F3EFEE"/>
</svg>
