<svg width="24" height="24" viewBox="0 0 24 24" fill="none" xmlns="http://www.w3.org/2000/svg">
<path d="M12.1344 21.1972C7.06833 21.6402 2.67445 16.5833 2.85472 11.8655C3.04417 6.90944 7.1111 2.95862 12.2597 2.87001C16.6689 2.79667 21.2705 7.08972 21.2919 12.0703C21.3133 16.8522 16.7575 21.6494 12.1344 21.1972Z" fill="#556E7A"/>
<path d="M19.3883 12.1528C19.3669 16.2778 16.1708 19.4128 12 19.3883C11.0343 19.3905 10.0778 19.2001 9.18658 18.8282C8.29535 18.4563 7.48723 17.9104 6.8095 17.2224C6.13178 16.5344 5.59806 15.7182 5.23956 14.8215C4.88107 13.9248 4.705 12.9656 4.72166 12C4.75616 10.0537 5.55486 8.19909 6.94526 6.83671C8.33565 5.47432 10.2062 4.71353 12.1528 4.71865C13.1185 4.72328 14.0735 4.9202 14.9623 5.29792C15.8511 5.67564 16.6557 6.2266 17.3293 6.91864C18.0028 7.61067 18.5318 8.42993 18.8853 9.3286C19.2388 10.2273 19.4098 11.1873 19.3883 12.1528Z" fill="#CCD4D7"/>
<path d="M12.0182 14.7653C11.3029 14.7484 10.6229 14.4503 10.1259 13.9355C9.62885 13.4207 9.35474 12.7308 9.36297 12.0153C9.40886 11.3013 9.72151 10.6307 10.2389 10.1366C10.7562 9.64244 11.4404 9.36087 12.1557 9.34778C12.8679 9.38412 13.5381 9.69569 14.025 10.2167C14.5118 10.7378 14.7772 11.4276 14.7652 12.1406C14.7639 12.4953 14.691 12.8461 14.5509 13.1719C14.4108 13.4978 14.2064 13.7921 13.95 14.0372C13.6935 14.2822 13.3902 14.473 13.0583 14.5981C12.7264 14.7232 12.3727 14.7801 12.0182 14.7653Z" fill="#556F7B"/>
</svg>
