<svg width="24" height="24" viewBox="0 0 24 24" fill="none" xmlns="http://www.w3.org/2000/svg">
<path d="M21.1972 12.1894C21.6403 16.6475 16.9622 21.3286 12.0306 21.295C7.27612 21.2613 2.64391 16.7605 2.86391 11.7464C3.08391 6.90331 7.14168 2.97388 12.2353 2.86693C16.5008 2.77832 21.6341 6.92776 21.1972 12.1894Z" fill="#556E7A"/>
<path d="M12 19.3883C11.0345 19.3896 10.0784 19.1986 9.18759 18.8264C8.29673 18.4542 7.48894 17.9083 6.81138 17.2205C6.13382 16.5327 5.60007 15.7168 5.24128 14.8205C4.88249 13.9242 4.70585 12.9653 4.72168 12C4.75543 10.05 5.55694 8.19197 6.95221 6.8293C8.34749 5.46664 10.2239 4.70928 12.1742 4.72165C13.1398 4.72864 14.0943 4.92795 14.982 5.30793C15.8697 5.68791 16.6728 6.24094 17.3444 6.93473C18.016 7.62853 18.5426 8.44918 18.8936 9.34876C19.2445 10.2483 19.4127 11.2088 19.3883 12.1741C19.3608 16.2961 16.1555 19.4188 12 19.3883Z" fill="#CCD4D7"/>
<path d="M14.7653 12.0519C14.7768 12.4059 14.7167 12.7586 14.5884 13.0888C14.4602 13.419 14.2666 13.7199 14.0191 13.9733C13.7717 14.2268 13.4755 14.4276 13.1485 14.5637C12.8215 14.6997 12.4703 14.7683 12.1161 14.7652C11.4031 14.772 10.7159 14.499 10.2018 14.0049C9.68766 13.5108 9.38767 12.8349 9.36612 12.1222C9.3875 11.409 9.67667 10.73 10.1761 10.2204C10.6755 9.71081 11.3485 9.40797 12.0611 9.37219C12.7731 9.37533 13.4554 9.6579 13.9612 10.1591C14.4669 10.6603 14.7557 11.34 14.7653 12.0519Z" fill="#556F7B"/>
<path d="M15.8744 9.67468C16.0467 9.78152 16.213 9.89781 16.3725 10.023C18.7222 12.2444 18.7222 12.2658 16.018 14.3436C15.6667 13.3291 15.6025 11.9052 15.8744 9.67468Z" fill="#5C747F"/>
<path d="M8.29667 14.4719C5.34196 11.7464 5.11279 12.4614 8.29667 9.76025V14.4719Z" fill="#56707B"/>
</svg>
