<svg width="24" height="24" viewBox="0 0 24 24" fill="none" xmlns="http://www.w3.org/2000/svg">
<path d="M12.1283 21.1941C7.08362 21.6402 2.65613 16.6108 2.85474 11.8564C3.04724 6.90332 7.11112 2.95555 12.2689 2.87C16.6567 2.79972 21.2736 7.07443 21.2919 12.0794C21.3103 16.84 16.7667 21.6525 12.1283 21.1941Z" fill="#556E7A"/>
<path d="M19.3883 12.1986C19.3547 16.3113 16.1372 19.428 11.9664 19.3883C11.0009 19.3852 10.0456 19.1899 9.1564 18.8136C8.2672 18.4373 7.46187 17.8877 6.78743 17.1967C6.113 16.5058 5.58296 15.6874 5.22828 14.7894C4.8736 13.8914 4.70139 12.9317 4.72168 11.9663C4.7642 10.0185 5.5725 8.16583 6.97145 6.80977C8.3704 5.45372 10.2473 4.70349 12.1956 4.72164C16.2961 4.79802 19.425 8.04913 19.3883 12.1986Z" fill="#CCD4D7"/>
<path d="M12.1467 9.35693C12.8604 9.38636 13.5343 9.69423 14.0238 10.2146C14.5133 10.7349 14.7795 11.4263 14.7653 12.1405C14.764 12.4955 14.691 12.8466 14.5507 13.1727C14.4104 13.4988 14.2058 13.7932 13.949 14.0383C13.6922 14.2834 13.3886 14.4741 13.0563 14.599C12.724 14.7239 12.3699 14.7805 12.0153 14.7653C11.3012 14.7516 10.6213 14.4573 10.1226 13.9461C9.62396 13.4348 9.34669 12.7478 9.35084 12.0336C9.39456 11.3175 9.70667 10.6442 10.2249 10.1481C10.7431 9.65195 11.4293 9.36944 12.1467 9.35693Z" fill="#556F7B"/>
<path d="M15.8592 9.25C16.7544 10.2492 17.3686 10.9642 17.998 11.6486C18.3036 11.9725 18.3036 12.1955 17.998 12.5378C17.3869 13.2192 16.8553 13.9525 16.2869 14.6767L15.8439 14.3711L15.8592 9.25Z" fill="#5C747F"/>
</svg>
