<svg width="24" height="24" viewBox="0 0 24 24" fill="none" xmlns="http://www.w3.org/2000/svg">
<path d="M12.1283 21.1941C7.08362 21.6402 2.65613 16.6108 2.85474 11.8564C3.04724 6.90332 7.11112 2.95555 12.2689 2.87C16.6567 2.79972 21.2736 7.07443 21.2919 12.0794C21.3103 16.84 16.7667 21.6525 12.1283 21.1941Z" fill="#556E7A"/>
<path d="M19.3883 12.1375C19.3883 16.2656 16.1831 19.4067 12.0245 19.3883C11.0588 19.3937 10.1017 19.2064 9.20928 18.8375C8.31684 18.4686 7.50693 17.9254 6.82693 17.2397C6.14693 16.554 5.6105 15.7396 5.24902 14.8441C4.88754 13.9486 4.70827 12.9901 4.72169 12.0245C4.74901 10.0763 5.54255 8.21725 6.93051 6.84988C8.31847 5.48251 10.1891 4.71683 12.1375 4.71863C13.1031 4.72169 14.0583 4.91691 14.9477 5.29292C15.837 5.66894 16.6426 6.21821 17.3175 6.90874C17.9923 7.59926 18.523 8.41722 18.8786 9.31493C19.2341 10.2126 19.4074 11.1721 19.3883 12.1375Z" fill="#CCD4D7"/>
<path d="M12.0795 9.35999C12.7936 9.3696 13.4753 9.65942 13.9777 10.167C14.4801 10.6745 14.763 11.3592 14.7653 12.0733C14.774 12.4274 14.711 12.7796 14.5802 13.1087C14.4493 13.4378 14.2533 13.7371 14.0038 13.9885C13.7544 14.24 13.4567 14.4384 13.1286 14.5719C12.8005 14.7053 12.4489 14.7711 12.0947 14.7653C11.3777 14.7735 10.6864 14.4981 10.1713 13.9991C9.65628 13.5001 9.3592 12.8178 9.34474 12.1008C9.36974 11.3829 9.66571 10.7011 10.1731 10.1926C10.6805 9.68407 11.3616 9.38658 12.0795 9.35999Z" fill="#556F7B"/>
<path d="M8.27224 14.3802C5.21669 11.7372 5.24419 12.4277 8.27224 9.71747V14.3802Z" fill="#56707B"/>
</svg>
