<svg width="24" height="24" viewBox="0 0 24 24" fill="none" xmlns="http://www.w3.org/2000/svg">
<path d="M2.8639 11.1016C2.89751 8.88023 2.75696 6.6619 2.95863 4.43746C3.04724 3.4444 3.44446 3.01052 4.42529 2.97385C9.52806 2.78135 14.6247 2.79663 19.7275 2.95246C20.855 2.98913 21.1453 3.48413 21.1483 4.41607C21.1483 6.64051 21.1483 8.868 21.1483 11.0955C20.5617 11.6149 19.8375 11.5691 19.1347 11.5691C14.3864 11.5813 9.63704 11.5813 4.88668 11.5691C4.18085 11.5691 3.44446 11.6241 2.8639 11.1016Z" fill="#EDEFF0"/>
<path d="M2.8639 11.1016H21.1422V21.1666C19.9019 20.1558 18.775 19.0135 17.7811 17.7597C14.0319 17.4541 10.2767 17.723 6.5275 17.6191C5.72389 17.5947 4.90501 17.7811 4.11667 17.4816C3.10529 17.3655 2.83334 16.7177 2.83334 15.7888C2.87612 14.2275 2.86084 12.6661 2.8639 11.1016Z" fill="#D0D9DD"/>
<path d="M4.11974 17.4999C8.14695 17.4999 12.1772 17.4999 16.2044 17.4999C16.7361 17.4999 17.3228 17.3135 17.7842 17.7688C13.594 17.7688 9.40584 17.7749 5.21973 17.7872C4.83779 17.8055 4.39474 17.9277 4.11974 17.4999Z" fill="#B4B2B2"/>
</svg>
