<svg width="24" height="24" viewBox="0 0 24 24" fill="none" xmlns="http://www.w3.org/2000/svg">
<path d="M13.8486 18.383C10.8511 18.383 7.85056 18.4075 4.85307 18.4289C3.54224 18.4289 2.87613 17.8178 2.87613 16.4886C2.87613 13.54 2.87613 10.5914 2.87613 7.64279C2.87613 6.34418 3.48724 5.61696 4.79196 5.61085C9.68084 5.59862 14.5595 5.60677 19.428 5.63529C20.583 5.63529 21.1728 6.32279 21.1728 7.48695C21.1728 10.5425 21.1728 13.5981 21.1728 16.6353C21.1728 17.9217 20.6105 18.5267 19.3119 18.3953C17.3197 15.4283 16.4336 15.3825 14.2122 18.1203C14.1046 18.2253 13.9821 18.3138 13.8486 18.383Z" fill="#F9AC95"/>
<path d="M13.8486 18.383C14.1114 17.6191 14.4169 16.895 15.0892 16.3633C16.84 14.9761 18.9147 15.963 19.315 18.3952L13.8486 18.383Z" fill="#F58967"/>
<path d="M19.3333 10.3011C19.3108 10.9835 19.0313 11.6321 18.5508 12.1172C18.0703 12.6022 17.4243 12.8878 16.7422 12.9167C15.2328 12.9167 13.9128 11.7495 13.8822 10.3561C13.8517 9.03612 15.41 7.47168 16.7239 7.47474C18.1111 7.47779 19.3333 8.79779 19.3333 10.3011Z" fill="#F58A68"/>
<path d="M10.1667 13.9922C10.1378 14.6733 9.85313 15.3185 9.36939 15.7988C8.88565 16.2792 8.23851 16.5593 7.55722 16.5833C6.05694 16.5833 4.73389 15.3611 4.73083 13.9892C4.73083 12.657 6.28611 11.1139 7.60916 11.1414C9.00249 11.1659 10.185 12.4859 10.1667 13.9922Z" fill="#F58A68"/>
<path d="M7.59085 5.88892C7.79386 5.86521 7.99894 5.86521 8.20196 5.88892C8.83751 6.03864 9.94362 5.46114 10.0353 6.29531C10.1422 7.26392 9.14612 7.93614 8.24474 8.26614C7.71068 8.42006 7.14098 8.39538 6.62224 8.19586C5.82474 7.8903 4.89891 7.41058 5.07002 6.41753C5.24113 5.42448 6.23113 6.03559 6.84835 5.88892C7.09512 5.86202 7.34408 5.86202 7.59085 5.88892Z" fill="#F58A68"/>
</svg>
