<svg width="24" height="24" viewBox="0 0 24 24" fill="none" xmlns="http://www.w3.org/2000/svg">
<path d="M12.052 19.3486C9.4089 19.3486 6.76585 19.3211 4.12586 19.3639C3.27947 19.3639 2.85475 19.2692 2.87003 18.2364C2.93114 14.1206 2.91586 10.0047 2.87003 5.89195C2.87003 5.04251 3.09614 4.74001 3.97919 4.74612C9.36307 4.77872 14.747 4.77872 20.1308 4.74612C21.0475 4.74612 21.2125 5.10668 21.2064 5.91029C21.1758 10.0251 21.1758 14.1399 21.2064 18.2547C21.2064 19.1011 20.9956 19.3914 20.1156 19.373C17.4358 19.315 14.75 19.3486 12.052 19.3486Z" fill="#43A047"/>
<path d="M6.55503 7.46249C6.95836 7.46249 7.36169 7.44416 7.76197 7.46249C8.42197 7.50221 8.37308 8.00332 8.37308 8.4586C8.37308 8.91387 8.26919 9.26526 7.72836 9.27443C7.11725 9.27443 6.52142 9.27443 5.91642 9.27443C5.31142 9.27443 4.70947 9.36304 4.6942 8.41276C4.6667 7.41666 5.25336 7.41666 5.95308 7.44721C6.15169 7.44721 6.35336 7.44721 6.56419 7.44721L6.55503 7.46249Z" fill="#8CC58F"/>
<path d="M12.052 9.28666C11.7006 9.28666 11.3492 9.28666 10.9978 9.28666C10.292 9.31416 10.185 8.88639 10.1911 8.31194C10.1972 7.7375 10.347 7.43805 10.955 7.45028C11.5081 7.46555 12.0611 7.45028 12.6142 7.45028C13.3108 7.42889 13.9158 7.41972 13.8883 8.43111C13.8639 9.37527 13.2772 9.29583 12.6661 9.29277H12.055L12.052 9.28666Z" fill="#8CC58F"/>
<path d="M17.5183 9.28972C16.9989 8.98417 15.7706 9.96806 15.685 8.40973C15.6545 7.82306 15.8011 7.42278 16.4978 7.44723C17.1089 7.46862 17.72 7.46556 18.3097 7.44723C18.8995 7.42889 19.3578 7.54501 19.3761 8.33334C19.3975 9.20111 18.9361 9.34472 18.2425 9.29584C18.0408 9.2775 17.8392 9.28972 17.5183 9.28972Z" fill="#8CC58F"/>
<path d="M6.54279 12.9503C6.13946 12.9503 5.73613 12.9503 5.32057 12.9503C4.66057 12.9167 4.70946 12.4186 4.70946 11.9603C4.70946 11.502 4.77974 11.1353 5.32057 11.1261C5.93168 11.1261 6.54279 11.1261 7.1539 11.1261C7.76501 11.1261 8.37612 11.0161 8.40362 11.9756C8.43112 12.935 7.87807 13.0297 7.1539 12.987C6.95224 12.987 6.75057 12.987 6.54279 12.987V12.9503Z" fill="#8CC58F"/>
<path d="M11.502 12.9167C11.1494 12.9354 10.7966 12.8856 10.4631 12.77C10.0323 12.6111 10.1667 12.0795 10.1973 11.6945C10.2186 11.2453 10.5242 11.1078 10.9245 11.1078C11.5356 11.1078 12.1467 11.1078 12.7578 11.1078C13.3689 11.1078 13.8395 11.1658 13.8609 11.9756C13.8853 12.8464 13.4239 13.0022 12.7211 12.9564C12.4584 12.9167 12.2047 12.9167 11.502 12.9167Z" fill="#69B36B"/>
<path d="M17.0753 12.9319C16.7455 12.9426 16.4156 12.917 16.0914 12.8555C15.5567 12.7333 15.685 12.2444 15.6759 11.8472C15.6667 11.45 15.795 11.1292 16.2503 11.1108C16.8614 11.0833 17.4725 11.0864 18.0836 11.0894C18.6947 11.0925 19.3058 10.9794 19.3486 11.9389C19.3822 12.9503 18.7711 12.9594 18.0653 12.9319C17.8575 12.9167 17.6558 12.9319 17.0753 12.9319Z" fill="#69B36B"/>
<path d="M6.47865 16.6139C6.12421 16.6139 5.77282 16.6139 5.41837 16.6139C4.77976 16.6139 4.70337 16.2014 4.70032 15.6972C4.69726 15.193 4.74615 14.7805 5.39087 14.7805C6.03559 14.7805 6.61309 14.7805 7.20587 14.7805C7.8567 14.7622 8.39753 14.7805 8.40059 15.6972C8.40365 16.6139 7.90865 16.675 7.23337 16.6414C6.98281 16.6414 6.7292 16.6414 6.47865 16.6414V16.6139Z" fill="#89C38D"/>
<path d="M11.505 16.5833C11.1551 16.5997 10.8051 16.5521 10.4722 16.4427C10.0322 16.2777 10.1667 15.74 10.2003 15.3611C10.2217 14.9119 10.5242 14.7744 10.9245 14.7744C11.5356 14.7744 12.1467 14.7744 12.7578 14.7744C13.3689 14.7744 13.8394 14.8294 13.8608 15.6391C13.8853 16.51 13.4239 16.6627 12.7211 16.6169C12.4583 16.5833 12.2047 16.5833 11.505 16.5833Z" fill="#69B36B"/>
<path d="M18.0011 14.75C18.3534 14.7313 18.706 14.7801 19.04 14.8936C19.4708 15.0708 19.3272 15.5964 19.3058 15.9906C19.2814 16.4367 18.9758 16.5833 18.5756 16.5833C17.9644 16.5833 17.3533 16.5833 16.7422 16.5833C16.1311 16.5833 15.6667 16.5406 15.6667 15.7247C15.6453 14.8539 16.1036 14.7011 16.8064 14.747C17.0447 14.75 17.2983 14.75 18.0011 14.75Z" fill="#69B36B"/>
</svg>
