<svg width="24" height="24" viewBox="0 0 24 24" fill="none" xmlns="http://www.w3.org/2000/svg">
<path d="M15.8408 7.23943C15.7217 7.74665 15.2939 7.97888 14.9944 8.31193C14.643 8.7061 14.3833 8.44638 14.1236 8.17749C13.7325 7.77721 13.32 7.40138 12.938 6.99499C12.6325 6.66193 12.3728 6.65277 12.0703 6.99499C11.8197 7.30054 11.5875 7.5236 12.0397 7.84443C14.1175 9.33554 15.1289 11.5936 16.2778 13.7416C17.2454 15.6437 18.5557 17.3508 20.143 18.7772C20.6441 19.2141 21.1636 19.5961 20.4028 20.36C19.6878 21.078 19.3669 20.693 18.8322 20.1827C17.2525 18.655 15.74 17.0905 14.8264 15.0555C14.4811 14.2855 14.1939 14.0472 13.4697 14.7805C12.1008 16.1678 12.0458 16.1341 13.4025 17.5305C13.8578 17.9919 14.2428 18.3036 13.5675 18.9697C12.8922 19.6358 12.5133 19.5808 12.0183 18.9086C11.9187 18.7878 11.8105 18.6745 11.6944 18.5694C10.9856 17.8422 9.87944 17.2127 9.67166 16.3633C9.43028 15.3886 10.7961 14.8722 11.4225 14.1266C11.78 13.705 11.8717 13.3628 11.5539 12.9044C11.247 12.4436 10.9166 11.999 10.5639 11.5722C9.25 10.0964 8.98111 10.0964 7.60611 11.4714C7.28223 11.7953 6.93695 12.1008 6.64056 12.4461C6.24334 12.9105 5.93167 12.8555 5.53445 12.4247C4.8439 11.6791 4.1289 10.9489 3.37112 10.2858C2.77834 9.75721 2.77834 9.39971 3.34973 8.8161C3.98223 8.16832 4.4039 8.36999 4.79806 8.95054C5.77278 10.3805 6.55806 10.0047 7.54806 8.88026C8.85278 7.39221 10.3561 6.08138 11.7128 4.6361C12.3239 3.99444 12.7211 3.97916 13.2955 4.6361C13.928 5.36027 14.6522 6.00805 15.3336 6.69554C15.5078 6.86666 15.6667 7.05916 15.8408 7.23943Z" fill="#5E4FA1"/>
<path d="M6.4725 7.54191C5.39695 7.39219 4.71862 6.76886 4.72778 5.65052C4.73695 4.53219 5.46112 3.91192 6.57945 3.85997C7.63056 3.81414 8.59305 4.77664 8.45861 5.78802C8.30889 6.88497 7.63056 7.47469 6.4725 7.54191Z" fill="#6051A2"/>
</svg>
