<svg width="24" height="24" viewBox="0 0 24 24" fill="none" xmlns="http://www.w3.org/2000/svg">
<path d="M12.9167 19.2814C10.4722 19.3058 8.05528 19.3181 5.62612 19.3578C5.01501 19.3578 4.74613 19.2325 4.70946 18.5267C4.6514 16.9408 5.01501 15.5933 6.50001 14.7989C7.41667 14.3008 7.8689 13.7111 7.51751 12.5989C7.23945 11.6945 7.64278 11.1231 8.63889 11.0834C9.63806 10.9734 10.4386 11.6028 11.3522 11.8136C12.22 12.1192 12.3972 12.825 12.4094 13.6317C12.4308 14.8539 12.4094 16.0578 12.4278 17.2678C12.4278 17.8147 12.3361 18.3983 12.8617 18.7956C12.9242 18.8585 12.9636 18.9407 12.9736 19.0289C12.9836 19.1171 12.9635 19.206 12.9167 19.2814Z" fill="#273339"/>
<path d="M8.38219 8.61751C7.73747 8.06445 6.98886 7.60918 6.57025 6.53362C8.1133 6.59168 8.80997 5.46724 9.75108 4.56585C11.3583 3.01974 14.808 3.8753 15.4375 5.99585C15.8255 7.30973 16.3541 8.38528 17.503 9.09417C17.1974 9.75111 16.6444 9.43945 16.2808 9.61362C13.4513 10.7778 10.8114 10.5181 8.38219 8.61751Z" fill="#283339"/>
<path d="M12.9167 19.2814C12.9167 19.1958 12.9167 19.1072 12.9167 19.0186C12.1497 16.7392 12.3056 14.4506 12.8311 12.1558C13.5278 11.4256 14.3986 11.1506 15.3611 11.0589C16.4733 11.1078 16.9225 11.6395 16.6017 12.7456C16.2961 13.7539 16.7972 14.3161 17.6375 14.8172C19.2508 15.7858 19.6847 16.9897 19.37 18.8139C19.26 19.4433 18.8964 19.3517 18.5144 19.3486C16.6475 19.3333 14.7806 19.3058 12.9167 19.2814Z" fill="#263238"/>
<path d="M15.3611 11.0589C14.7897 11.6975 13.9708 11.8014 13.2222 12.0428C12.5133 12.4797 11.8014 12.1681 11.0833 12.0428C10.2091 11.9022 9.37538 11.575 8.6389 11.0833C8.33335 10.2828 8.33335 9.44556 8.37002 8.60834C10.8939 9.86111 13.5431 10.0475 16.2778 9.61361C15.6667 9.91306 15.6667 10.5822 15.3611 11.0589Z" fill="#79919D"/>
<path d="M11.0833 12.0397H13.2222C12.5866 13.7845 13.0633 15.5933 12.9166 17.3686C12.8739 17.9156 12.9166 18.4656 12.9166 19.0155C12.1741 19.0767 11.9786 18.6794 12 18.0072C12.0275 16.5589 11.9511 15.1044 12.0305 13.6561C12.0672 12.8464 11.8075 12.3453 11.0833 12.0397Z" fill="#3B464C"/>
</svg>
