<svg width="24" height="24" viewBox="0 0 24 24" fill="none" xmlns="http://www.w3.org/2000/svg">
<path d="M6.51536 8.94434C9.44255 6.9827 12.492 6.87881 15.6453 8.33324C15.7241 8.52148 15.857 8.68207 16.0272 8.79462C19.3272 10.6646 19.9169 16.739 16.6689 19.489C16.5074 19.6105 16.3896 19.7809 16.3328 19.9748C13.3995 21.7012 10.4142 21.6065 7.39229 20.2406C7.23616 19.9767 7.0283 19.747 6.78119 19.5654C4.03732 16.9743 3.61566 13.5276 5.63231 10.3468C5.92564 9.88239 6.41758 9.53712 6.51536 8.94434Z" fill="#87D3E1"/>
<path d="M16.3327 20.0054C15.9477 19.6999 16.2808 19.4982 16.4611 19.2812C19.3699 15.7491 19.2324 12.5255 16.0516 9.16439C15.8561 8.95662 15.3244 8.85884 15.6453 8.35162C18.0133 9.40273 19.5899 11.2605 20.8763 13.4299C21.0558 13.7053 21.1513 14.027 21.1513 14.3557C21.1513 14.6845 21.0558 15.0061 20.8763 15.2816C19.7641 17.2432 18.4166 18.9757 16.3327 20.0054Z" fill="#3FC2D7"/>
<path d="M6.51531 8.9444C7.45642 9.18884 6.66198 9.49439 6.51531 9.70217C5.10672 11.6577 4.30006 13.7355 5.01199 16.186C5.34205 17.2977 5.94012 18.3112 6.75365 19.1376C7.03475 19.4432 7.77725 19.5624 7.39531 20.2651C6.13446 19.7164 5.02908 18.864 4.17783 17.784C1.42786 14.5055 1.3973 14.368 4.19922 10.8847C4.80353 10.0606 5.59814 9.39496 6.51531 8.9444Z" fill="#3EC2D7"/>
<path d="M11.6242 2.8761C12.0068 2.88327 12.3714 3.0397 12.6403 3.312C12.9092 3.5843 13.061 3.95091 13.0633 4.33359C13.0818 4.52425 13.0582 4.71665 12.9943 4.89723C12.9304 5.07782 12.8277 5.2422 12.6934 5.37881C12.5591 5.51543 12.3965 5.62095 12.2171 5.68795C12.0376 5.75495 11.8457 5.78181 11.6547 5.76663C10.8694 5.74218 10.2003 5.24719 10.2094 4.33664C10.2186 3.42609 10.7411 2.97388 11.6242 2.8761Z" fill="#50C2D6"/>
<path d="M7.70392 14.3924C7.70392 12.0916 9.28668 10.4599 11.5631 10.4507C13.9036 10.4507 15.6452 12.1099 15.6605 14.3893C15.6666 16.4579 13.8089 18.3615 11.725 18.4165C9.46085 18.4501 7.72225 16.7085 7.70392 14.3924Z" fill="#FEFEFE"/>
<path d="M9.25 14.3068C9.28001 13.6936 9.54137 13.1146 9.98137 12.6865C10.4214 12.2584 11.0073 12.0131 11.6211 11.9999C12.7914 12.0243 14.0227 13.2863 14.0655 14.4962C14.093 15.5932 12.8433 16.7757 11.6455 16.794C10.4478 16.8123 9.25 15.5657 9.25 14.3068Z" fill="#41C1D6"/>
</svg>
