<svg width="24" height="24" viewBox="0 0 24 24" fill="none" xmlns="http://www.w3.org/2000/svg">
<path d="M12.3331 4.05554C12.99 5.53748 13.6836 7.00415 14.2856 8.50748C14.3758 8.82056 14.5699 9.09364 14.8358 9.28188C15.1018 9.47011 15.4239 9.5623 15.7492 9.54331C17.4664 9.62275 19.1836 9.80608 21.3439 9.98636C19.9444 11.2086 18.8475 12.2597 17.6314 13.1702C16.5528 13.9769 16.2167 14.8202 16.6719 16.1494C17.1272 17.4786 17.3625 18.9758 17.8055 20.8611L12.3056 17.4786C11.6792 17.1425 11.5569 16.5619 11.5478 15.9294C11.4958 12.6019 11.4592 9.27442 11.5814 5.94693C11.5997 5.31443 11.3889 4.39165 12.3331 4.05554Z" fill="#FFCB2C"/>
<path d="M12.3331 4.05552C12.0031 4.29691 12.0031 4.66663 12.0031 5.00885C12.0031 8.78551 12.0031 12.5622 12.0031 16.3388C12.0572 16.7296 12.1588 17.1123 12.3056 17.4785L6.58557 20.641C6.65929 19.1131 6.96317 17.605 7.48695 16.1677C7.9514 14.7652 7.54807 13.9097 6.44501 13.0816C5.27779 12.2169 4.24807 11.2055 2.84863 9.99245C4.71863 9.8305 6.20974 9.61967 7.68251 9.59523C8.9414 9.57689 9.73278 9.20412 10.1269 7.90856C10.6025 6.5725 11.1492 5.26285 11.7647 3.98524C11.9725 3.50857 12.2078 3.40469 12.3331 4.05552Z" fill="#FFD654"/>
</svg>
