<svg width="24" height="24" viewBox="0 0 24 24" fill="none" xmlns="http://www.w3.org/2000/svg">
<path d="M11.6333 12.0366C14.145 9.71746 17.2555 9.61051 19.5227 11.7097C21.2522 13.3108 21.5822 15.3274 20.9986 17.4144C20.7571 18.3841 20.2287 19.2583 19.4824 19.9229C18.7361 20.5874 17.8066 21.0113 16.8155 21.1391C14.475 21.518 12.5164 20.8335 11.1322 18.8047C10.8755 18.4319 10.6616 18.0316 10.4264 17.6435C9.87823 16.7304 9.69795 15.6429 9.92208 14.6016C10.1462 13.5604 10.758 12.6434 11.6333 12.0366Z" fill="#2E3079"/>
<path d="M14.0351 6.60385C14.0351 8.47691 12.2598 10.2705 10.3226 10.3347C8.33037 10.3988 6.52454 8.61746 6.51843 6.58247C6.53854 5.6146 6.93075 4.69169 7.61357 4.00545C8.29639 3.31921 9.21734 2.92241 10.1851 2.89747C11.1841 2.88905 12.1466 3.27234 12.8663 3.96519C13.586 4.65804 14.0055 5.60529 14.0351 6.60385Z" fill="#3F83C4"/>
<path d="M11.6334 12.0366C10.2614 13.6988 9.96197 15.5902 10.4264 17.6435C8.54725 17.6649 6.67114 17.7138 4.79198 17.6924C4.18087 17.6924 3.24282 18.053 3.01365 17.3197C2.72643 16.403 2.63171 15.3091 3.40476 14.4352C3.98454 13.7893 4.71213 13.2934 5.52531 12.9899C7.46065 12.2057 9.55108 11.8794 11.6334 12.0366Z" fill="#4183C4"/>
<path d="M14.75 12C14.9914 11.5417 15.2694 11.0833 15.8714 11.1658C16.1476 11.2273 16.394 11.3828 16.5684 11.6057C16.7429 11.8286 16.8345 12.1051 16.8277 12.388C16.895 14.5941 16.895 16.8064 16.8277 19.0125C16.8094 19.5075 16.5802 20.1277 15.8866 20.2347C15.193 20.3416 14.8722 19.9444 14.7225 19.3333C14.0162 16.9385 14.0258 14.3894 14.75 12Z" fill="#7479B1"/>
<path d="M14.75 11.9999C14.75 14.4444 14.7398 16.8888 14.7194 19.3333C14.0014 19.2569 13.8272 18.7833 13.8303 18.1538C13.8303 16.5802 13.8486 15.0066 13.8303 13.433C13.8158 13.1282 13.8966 12.8265 14.0614 12.5697C14.2262 12.3129 14.4669 12.1138 14.75 11.9999Z" fill="#454D97"/>
</svg>
