<svg width="24" height="24" viewBox="0 0 24 24" fill="none" xmlns="http://www.w3.org/2000/svg">
<path d="M11.6273 12.0395C14.1389 9.72035 17.2463 9.61341 19.5135 11.7095C21.2399 13.3106 21.5729 15.3272 20.9893 17.4141C20.7472 18.3828 20.2184 19.256 19.4721 19.9194C18.7258 20.5828 17.7968 21.0056 16.8063 21.1326C14.4658 21.5115 12.5103 20.8271 11.1262 18.8013C10.8695 18.4285 10.6556 18.0282 10.4204 17.6402C9.87185 16.7281 9.69134 15.6414 9.91554 14.601C10.1397 13.5606 10.7518 12.6447 11.6273 12.0395Z" fill="#2E3079"/>
<path d="M10.2951 2.90357C11.2672 2.92389 12.1948 3.31479 12.8882 3.99633C13.5817 4.67786 13.9886 5.59856 14.0258 6.57016C14.0778 8.48902 12.1925 10.359 10.2156 10.3498C9.22023 10.3133 8.27802 9.8913 7.5881 9.17287C6.89819 8.45445 6.51462 7.49593 6.51846 6.49989C6.56035 5.52829 6.97723 4.61076 7.68149 3.94011C8.38576 3.26946 9.32257 2.89792 10.2951 2.90357Z" fill="#3F83C4"/>
<path d="M11.6272 12.0395C10.2584 13.6986 9.95894 15.59 10.4234 17.6433C8.54424 17.6616 6.66817 17.7136 4.79209 17.6922C4.18099 17.6922 3.24296 18.0527 3.0138 17.3194C2.70825 16.4027 2.63186 15.3089 3.40184 14.435C3.98305 13.7907 4.71019 13.2951 5.52236 12.9898C7.45726 12.2081 9.54629 11.8829 11.6272 12.0395Z" fill="#4183C4"/>
<path d="M12.2628 13.9492H19.214C18.3463 15.538 17.0752 16.6991 16.0943 18.0771C15.8407 18.4285 15.5871 18.288 15.3671 18.013C14.3344 16.7327 13.2038 15.5227 12.2628 13.9492Z" fill="#767BB2"/>
</svg>
