<svg width="24" height="24" viewBox="0 0 24 24" fill="none" xmlns="http://www.w3.org/2000/svg">
<path d="M12.0825 19.3486C10.0047 19.3486 7.92392 19.3149 5.84615 19.3638C4.97837 19.3852 4.72782 19.0888 4.71865 18.2333C4.70032 16.9255 5.17393 15.9508 6.31365 15.358C10.1881 13.3444 14.0747 13.2986 17.9247 15.4191C18.5358 15.7583 19.1133 16.2227 19.3058 16.9622C19.7886 18.8291 19.37 19.3486 17.4083 19.3486H12.0825Z" fill="#4184C4"/>
<path d="M12.2291 4.75526C14.2825 4.86832 15.8958 6.55192 15.8255 8.50442C15.7491 10.5364 13.9005 12.3055 11.9389 12.2108C10.9454 12.1424 10.0179 11.689 9.35364 10.9472C8.68938 10.2053 8.34085 9.23352 8.38221 8.23859C8.4057 7.75715 8.52388 7.28506 8.73 6.84934C8.93612 6.41362 9.22612 6.02281 9.58343 5.69928C9.94073 5.37575 10.3583 5.12585 10.8123 4.96386C11.2663 4.80187 11.7477 4.73099 12.2291 4.75526Z" fill="#4284C5"/>
<path d="M6.96448 17.3869C9.73892 15.361 14.3406 15.361 17.1761 17.3869H6.96448Z" fill="#FBFBFD"/>
<path d="M10.3898 8.63889C10.3898 7.41667 10.9581 6.72917 11.997 6.68029C13.1184 6.6314 13.8089 7.34334 13.8303 8.44945C13.8334 9.49445 13.1734 10.1667 12.1223 10.1667C11.0712 10.1667 10.4356 9.59833 10.3898 8.63889Z" fill="#FAFAFB"/>
</svg>
