<svg width="24" height="24" viewBox="0 0 24 24" fill="none" xmlns="http://www.w3.org/2000/svg">
<path d="M11.6303 12.0395C14.1388 9.72035 17.2463 9.61341 19.5135 11.7095C21.2398 13.3106 21.5729 15.3272 20.9893 17.4141C20.7471 18.3828 20.2184 19.256 19.4721 19.9194C18.7258 20.5828 17.7967 21.0056 16.8063 21.1326C14.4658 21.5115 12.5103 20.8271 11.1261 18.8013C10.8695 18.4285 10.6556 18.0282 10.4203 17.6402C9.87211 16.7278 9.69208 15.6408 9.91686 14.6004C10.1416 13.5599 10.7543 12.6442 11.6303 12.0395Z" fill="#2E3079"/>
<path d="M10.2156 2.90356C11.2124 2.90565 12.169 3.29672 12.8818 3.99353C13.5946 4.69033 14.0073 5.63784 14.0319 6.63433C14.0319 8.5104 12.22 10.3009 10.2951 10.3406C8.30288 10.3895 6.50014 8.59595 6.51542 6.56405C6.54204 5.59479 6.94164 4.67319 7.63096 3.99128C8.32028 3.30936 9.24614 2.91973 10.2156 2.90356Z" fill="#3F83C4"/>
<path d="M11.6303 12.0395C10.2584 13.6986 9.95894 15.5869 10.4234 17.6433C8.54424 17.6616 6.66817 17.7135 4.79209 17.6922C4.18099 17.6922 3.24296 18.0527 3.0138 17.3194C2.70825 16.4027 2.63186 15.3089 3.40184 14.435C3.98305 13.7907 4.71019 13.2951 5.52236 12.9898C7.45829 12.2079 9.54835 11.8828 11.6303 12.0395Z" fill="#4183C4"/>
<path d="M17.4999 15.7183C17.4999 16.2255 17.4999 16.7327 17.4999 17.2461C17.4999 19.3666 17.4999 19.3849 15.4374 19.3421C14.8416 19.3238 13.8455 19.7791 13.8761 18.5538C13.9005 17.7136 13.3505 16.4608 15.0555 16.583C15.7369 16.6319 15.6666 16.0575 15.6666 15.6083C15.6971 15.0522 15.4924 14.7314 14.8874 14.7711C13.3414 14.878 13.9402 13.7109 13.8455 12.9806C13.7111 11.9387 14.4566 12.0487 15.1319 12.0395C17.4999 11.9998 17.4999 11.9998 17.4999 14.3525V15.7183Z" fill="#777CB3"/>
</svg>
