<svg width="24" height="24" viewBox="0 0 24 24" fill="none" xmlns="http://www.w3.org/2000/svg">
<path d="M12.4064 21.2064C8.33335 21.2583 5.71168 19.5014 3.99446 16.3878C2.27724 13.2742 2.5278 10.0781 4.3978 7.01029C4.81946 6.31668 5.07002 6.32279 5.62002 6.86362C9.48019 10.7503 13.3506 14.6206 17.2311 18.4747C17.8422 19.0858 17.775 19.4189 17.0692 19.8283C15.5017 20.748 13.8761 21.3897 12.4064 21.2064Z" fill="#F06492"/>
<path d="M12.9472 7.4869C12.9472 6.26468 12.9472 5.04245 12.9472 3.82023C12.9472 3.0594 13.2039 2.90357 13.9708 3.03801C20.1216 4.15023 23.4002 12.1222 19.7764 17.1699C19.3089 17.8208 19.0186 17.781 18.5114 17.2494C16.8797 15.5831 15.2266 13.9351 13.5522 12.3055C13.3332 12.0977 13.1644 11.8428 13.0585 11.5601C12.9526 11.2774 12.9125 10.9743 12.9411 10.6738C12.9716 9.61967 12.9472 8.55328 12.9472 7.4869Z" fill="#9B52A0"/>
<path d="M11.065 9.77549L6.61918 5.49772C6.24946 5.14328 6.20669 4.86217 6.71391 4.58106C7.79557 3.92106 8.81307 3.15411 10.1453 3.13884C10.6708 2.96161 11.23 2.87606 11.2117 3.65217C11.1658 5.68716 11.4378 7.74049 11.065 9.77549Z" fill="#C695C3"/>
<path d="M11.065 9.77552C11.065 7.94219 11.065 6.12719 11.0925 4.30303C11.0925 3.60942 11.0192 3.08081 10.1453 3.1297C10.6067 2.78442 11.3094 2.6347 11.3094 3.29775C11.3064 5.45497 11.8014 7.6458 11.065 9.77552Z" fill="#B8AAB8"/>
</svg>
