<svg width="24" height="24" viewBox="0 0 24 24" fill="none" xmlns="http://www.w3.org/2000/svg">
<path d="M11.56 12.0733C14.1602 9.72358 17.2097 9.59525 19.4799 11.67C21.2797 13.3108 21.6188 15.3733 20.9711 17.5213C20.7169 18.4639 20.1896 19.3103 19.4557 19.954C18.7217 20.5978 17.8138 21.0101 16.8461 21.1391C14.4261 21.5394 12.44 20.7908 11.0405 18.6947C10.8205 18.3586 10.6097 18.0163 10.3927 17.6772C9.41497 15.6666 9.86108 13.4544 11.56 12.0733Z" fill="#C2205D"/>
<path d="M14.035 6.60385C14.035 8.47691 12.2597 10.2705 10.3225 10.3347C8.33025 10.3988 6.52442 8.61746 6.51831 6.58247C6.53842 5.6146 6.93062 4.69169 7.61345 4.00545C8.29627 3.31921 9.21722 2.92241 10.185 2.89747C11.1839 2.88905 12.1464 3.27234 12.8661 3.96519C13.5858 4.65804 14.0054 5.60529 14.035 6.60385Z" fill="#3F83C4"/>
<path d="M11.56 12.0733C10.2644 13.7538 10.1391 15.6758 10.4019 17.6741C8.53192 17.6741 6.66193 17.723 4.79499 17.6955C4.18388 17.6955 3.26721 18.0499 3.01971 17.3319C2.71416 16.4152 2.63471 15.3305 3.38638 14.4566C3.95538 13.8054 4.67796 13.3065 5.4886 13.0052C7.44109 12.2536 9.44859 11.8258 11.56 12.0733Z" fill="#4283C4"/>
<path d="M15.6819 16.6108C14.7652 16.6108 13.8638 16.5863 12.9563 16.6108C12.2108 16.6474 12 16.2777 12.0152 15.6055C12.0305 14.9333 12.3666 14.7499 12.9655 14.7652C14.7805 14.7815 16.5965 14.7815 18.4135 14.7652C19.0247 14.7652 19.3516 14.9424 19.3638 15.6177C19.376 16.293 19.1377 16.6444 18.4166 16.6199C17.4999 16.5833 16.5833 16.6108 15.6819 16.6108Z" fill="#DA739C"/>
</svg>
