<svg width="24" height="24" viewBox="0 0 24 24" fill="none" xmlns="http://www.w3.org/2000/svg">
<path d="M11.6303 12.0395C14.1388 9.72035 17.2463 9.61341 19.5135 11.7095C21.2398 13.3106 21.5729 15.3272 20.9893 17.4141C20.7471 18.3828 20.2184 19.256 19.4721 19.9194C18.7258 20.5828 17.7967 21.0056 16.8063 21.1326C14.4658 21.5115 12.5103 20.8271 11.1261 18.8013C10.8695 18.4285 10.6556 18.0282 10.4203 17.6402C9.87211 16.7278 9.69208 15.6408 9.91686 14.6004C10.1416 13.5599 10.7543 12.6442 11.6303 12.0395Z" fill="#2E3079"/>
<path d="M10.2951 2.90357C11.2672 2.92389 12.1948 3.31479 12.8882 3.99633C13.5817 4.67786 13.9886 5.59856 14.0258 6.57016C14.0778 8.48902 12.1925 10.359 10.2156 10.3498C9.22023 10.3133 8.27802 9.8913 7.5881 9.17287C6.89819 8.45445 6.51462 7.49593 6.51846 6.49989C6.56035 5.52829 6.97723 4.61076 7.68149 3.94011C8.38576 3.26946 9.32257 2.89792 10.2951 2.90357Z" fill="#3F83C4"/>
<path d="M11.6303 12.0395C10.2584 13.6986 9.95894 15.59 10.4234 17.6433C8.54424 17.6616 6.66817 17.7135 4.79209 17.6922C4.18099 17.6922 3.24296 18.0527 3.0138 17.3194C2.70825 16.4027 2.63186 15.3089 3.40184 14.435C3.98305 13.7907 4.71019 13.2951 5.52236 12.9898C7.45829 12.2079 9.54835 11.8828 11.6303 12.0395Z" fill="#4183C4"/>
<path d="M14.7775 14.3097C14.7634 14.2084 14.7634 14.1056 14.7775 14.0042C14.9639 13.2953 14.2153 12.1037 15.6941 12.0548C17.173 12.0059 16.5222 13.1639 16.5833 13.8331C16.6413 14.542 16.8583 14.8628 17.5763 14.7986C18.3708 14.7253 18.4624 15.2172 18.4563 15.8528C18.4563 16.583 17.998 16.6472 17.448 16.6258C17.3472 16.6258 17.2463 16.6258 17.1424 16.6258C14.3467 16.583 14.8264 16.8886 14.7775 14.3097Z" fill="#767BB2"/>
</svg>
