<svg width="24" height="24" viewBox="0 0 24 24" fill="none" xmlns="http://www.w3.org/2000/svg">
<path d="M11.6334 12.0367C14.145 9.71752 17.2556 9.61057 19.5228 11.7097C21.2522 13.3108 21.5822 15.3275 20.9986 17.4144C20.757 18.3838 20.2285 19.2576 19.4821 19.9216C18.7358 20.5856 17.8064 21.0089 16.8156 21.1361C14.475 21.515 12.5164 20.8153 11.1323 18.8047C10.8756 18.4319 10.6617 18.0317 10.4264 17.6436C9.87756 16.7306 9.69686 15.6429 9.92104 14.6015C10.1452 13.56 10.7575 12.643 11.6334 12.0367Z" fill="#2E3079"/>
<path d="M10.234 2.89752C11.2309 2.90209 12.1867 3.29601 12.8974 3.99527C13.6081 4.69453 14.0174 5.64378 14.0381 6.64057C14.0167 8.51973 12.2048 10.3072 10.2859 10.3378C8.28757 10.3775 6.50313 8.58084 6.51841 6.54585C6.54826 5.57612 6.95135 4.65535 7.64361 3.97562C8.33587 3.29588 9.26384 2.90966 10.234 2.89752Z" fill="#3F83C4"/>
<path d="M11.6334 12.0366C10.2614 13.6989 9.96197 15.5902 10.4264 17.6436C8.54725 17.665 6.67114 17.7138 4.79198 17.6925C4.18087 17.6925 3.24282 18.053 3.01365 17.3227C2.72643 16.4061 2.63171 15.3091 3.40476 14.4352C3.98454 13.7893 4.71213 13.2934 5.52531 12.99C7.46071 12.2059 9.55109 11.8797 11.6334 12.0366Z" fill="#4183C4"/>
<path d="M12.9717 14.7867C13.7233 14.692 13.8883 15.1167 13.8883 15.7797C13.8883 16.4428 13.5522 16.6108 12.9533 16.6292C12.1986 16.6536 12.0214 16.2869 12.0367 15.6178C12.0519 14.9486 12.3453 14.7225 12.9717 14.7867Z" fill="#7277B0"/>
<path d="M15.7584 14.7867C16.5468 14.695 16.6201 15.1961 16.6232 15.8195C16.6232 16.5283 16.2229 16.6078 15.6545 16.6292C14.8601 16.6567 14.7684 16.2106 14.7684 15.5781C14.7715 14.8753 15.1595 14.7317 15.7584 14.7867Z" fill="#7277B0"/>
<path d="M19.3486 15.5811C19.4036 16.2228 19.2752 16.623 18.5694 16.6261C17.94 16.6261 17.4877 16.5405 17.5122 15.7461C17.5305 15.1778 17.6069 14.7592 18.3158 14.7714C18.9269 14.7836 19.4708 14.8111 19.3486 15.5811Z" fill="#7277B0"/>
</svg>
