<svg width="24" height="24" viewBox="0 0 24 24" fill="none" xmlns="http://www.w3.org/2000/svg">
<path d="M17.7749 8.72443C17.0783 8.11332 15.636 9.24387 15.6819 7.53582C15.6972 6.88193 15.8958 6.61916 16.5527 6.64055C17.8238 6.66804 19.0919 6.6711 20.3599 6.64055C21.0474 6.62221 21.2308 6.92471 21.2124 7.55721C21.1788 8.67554 21.2124 9.79082 21.2124 10.9183C21.2124 11.4897 21.4171 12.1405 20.3935 12.1558C19.4249 12.1558 19.2905 11.7066 19.3699 10.9336C19.3718 10.6122 19.3576 10.291 19.3271 9.97109C18.1691 11.0833 17.1944 12.0397 16.2166 12.9991C15.6055 13.6103 14.9027 14.1511 14.4077 14.8325C13.433 16.1891 12.5927 15.9202 11.5477 14.9027C10.6524 14.0319 9.62578 12.7272 8.61745 12.6905C7.55412 12.6508 6.78412 14.2611 5.86746 15.1105C5.33779 15.5897 4.8349 16.0977 4.36108 16.6322C3.8783 17.1944 3.50552 17.338 2.89136 16.7269C2.27719 16.1158 2.38108 15.8286 2.93719 15.2969C4.59126 13.7203 6.20866 12.112 7.7894 10.4722C8.33023 9.91304 8.68773 9.86109 9.26829 10.4203C10.2308 11.3216 11.2758 12.1314 12.2872 12.9778C12.6294 13.2619 12.8983 13.6408 13.4116 13.1183C14.8416 11.6211 16.3174 10.1819 17.7749 8.72443Z" fill="#45A148"/>
</svg>
