<svg width="24" height="24" viewBox="0 0 24 24" fill="none" xmlns="http://www.w3.org/2000/svg">
<path d="M5.00587 19.2477C4.62699 19.0736 4.7706 18.7314 4.7706 18.4564C4.7706 14.2886 4.7706 10.1208 4.7706 5.95304C4.7706 5.3236 4.69421 4.73082 5.65671 4.75221C10.0781 4.78277 14.4995 4.76749 18.9209 4.77971C19.0339 4.77971 19.147 4.92943 19.257 5.00888C19.0584 9.2072 19.1745 13.4055 19.205 17.6039C19.205 18.8658 18.8659 19.2019 17.61 19.1958C13.4025 19.1652 9.20115 19.0491 5.00587 19.2477Z" fill="#E63B35"/>
<path d="M5.00586 19.2478C5.49475 18.8414 6.07836 19.0247 6.61613 19.0247C10.2828 19.0064 13.922 18.9728 17.5733 19.0247C18.7222 19.0583 19.0583 18.7222 19.0278 17.5764C18.9606 13.9097 18.9942 10.2706 19.0278 6.61919C19.0278 6.08141 18.8444 5.4978 19.2508 5.00891C19.2814 9.50363 19.3028 14.0014 19.3578 18.4961C19.3578 19.1622 19.1561 19.3608 18.4961 19.3547C13.9953 19.2997 9.50057 19.2814 5.00586 19.2478Z" fill="#E32F29"/>
</svg>
