<svg width="24" height="24" viewBox="0 0 24 24" fill="none" xmlns="http://www.w3.org/2000/svg">
<path d="M22.9573 11.0827V14.7458C22.5622 16.3825 21.5761 17.8154 20.1886 18.7691C19.7704 18.4639 19.691 18.0212 19.6269 17.5694C19.57 17.088 19.391 16.6291 19.1067 16.2364C18.8225 15.8437 18.4425 15.5302 18.0029 15.3258C17.1958 14.8955 16.5309 14.2401 16.0889 13.4393C14.2574 10.4417 11.0461 10.0998 8.5582 12.5968C8.30484 12.8501 8.09726 13.1829 7.77979 13.3172C6.97406 13.6208 6.24142 14.0909 5.62969 14.6969C5.01795 15.3028 4.54089 16.031 4.22963 16.8338C4.18079 16.962 3.99458 17.0169 3.85111 17.0688C1.91577 16.846 1.46093 15.3563 1.02136 13.83V10.4722C1.30525 8.28347 2.6606 6.99223 4.62036 6.19855C5.22192 5.93687 5.75783 5.54484 6.18939 5.05078C10.2677 0.703894 16.1469 1.47009 18.937 6.69307C19.285 7.34327 19.6666 7.88053 20.3809 8.15221C21.0285 8.37367 21.607 8.76063 22.059 9.27468C22.5109 9.78873 22.8206 10.412 22.9573 11.0827Z" fill="#A3ABD7"/>
<path d="M20.2313 18.7142C19.4987 20.564 18.6592 21.1562 16.6964 21.1776C13.8473 21.1939 11.0043 21.1939 8.16746 21.1776C5.41097 21.1562 3.93352 19.7124 3.74731 16.8826C4.25404 15.0511 5.11793 13.5248 7.20284 13.1096C7.61189 13.0241 7.79505 12.5907 8.05146 12.2732C8.59619 11.5878 9.30762 11.0535 10.1177 10.7215C10.9279 10.3894 11.8096 10.2707 12.6787 10.3767C13.5478 10.4826 14.3752 10.8097 15.0818 11.3267C15.7884 11.8436 16.3506 12.5332 16.7147 13.3294C16.9559 13.8453 17.1176 14.3612 17.7312 14.5504C19.7734 15.2159 20.4022 16.7208 20.2313 18.7142Z" fill="#7B86C2"/>
</svg>
