<svg width="24" height="24" viewBox="0 0 24 24" fill="none" xmlns="http://www.w3.org/2000/svg">
<path d="M17.5703 12.0672C17.5897 12.7891 17.463 13.5075 17.1977 14.1791C16.9324 14.8508 16.5341 15.4618 16.0266 15.9756C15.5191 16.4893 14.913 16.8952 14.2446 17.1687C13.5763 17.4422 12.8596 17.5778 12.1375 17.5672C10.6798 17.5942 9.27099 17.0413 8.22076 16.03C7.17052 15.0188 6.56479 13.6319 6.53669 12.1742C6.53065 11.4383 6.66991 10.7085 6.94649 10.0266C7.22307 9.34469 7.63154 8.72408 8.14846 8.20034C8.66538 7.67661 9.2806 7.26006 9.95883 6.97457C10.6371 6.68908 11.365 6.54028 12.1008 6.53668C12.8231 6.54068 13.5375 6.68691 14.2033 6.96701C14.869 7.24712 15.4731 7.65561 15.981 8.16917C16.4889 8.68273 16.8906 9.2913 17.1633 9.96013C17.436 10.629 17.5743 11.345 17.5703 12.0672Z" fill="#FDD838"/>
<path d="M3.34972 11.1017C4.10138 11.1017 4.92944 10.8878 4.92333 12.1314C4.92333 13.2589 4.19611 13.1458 3.48416 13.1397C2.77222 13.1336 1.95639 13.3169 1.95639 12.0764C1.93805 10.903 2.68055 11.1078 3.34972 11.1017Z" fill="#F7D95B"/>
<path d="M13.103 3.3314C13.0755 3.98223 13.3505 4.75529 12.1619 4.77362C11.0588 4.79501 11.0588 4.18084 11.1138 3.42612C11.1597 2.7814 10.8297 1.97168 12.0305 1.95946C13.1152 1.95029 13.1885 2.52779 13.103 3.3314Z" fill="#FDDC46"/>
<path d="M21.1452 13.1091C19.9872 13.1397 19.3333 13.2069 19.3119 12.1069C19.2905 10.8205 20.143 11.1597 20.8397 11.1016C21.625 11.0375 22.1566 11.12 22.1414 12.1741C22.12 13.3414 21.3744 13.103 21.1452 13.1091Z" fill="#F9D950"/>
<path d="M11.1109 20.8336C11.1109 20.0422 10.9123 19.3058 12.0917 19.3058C13.2131 19.3058 13.1306 19.9902 13.1306 20.7174C13.1306 21.4447 13.2681 22.1169 12.1131 22.1169C10.9581 22.1169 11.0834 21.4722 11.1109 20.8336Z" fill="#F9D950"/>
<path d="M18.4717 19.7581C17.9217 19.2356 17.1089 18.8414 17.0295 18.1081C16.9745 17.5856 17.662 16.8706 18.1967 17.0111C18.872 17.1883 19.5931 17.8331 19.6817 18.5389C19.7367 18.985 19.0461 19.48 18.4717 19.7581Z" fill="#FAE26A"/>
<path d="M19.9047 5.51001C19.266 6.15167 18.9055 7.00723 18.1324 7.03778C17.6222 7.03778 16.8522 6.37778 17.0477 5.81556C17.2708 5.20445 17.833 4.38862 18.661 4.46195C19.0858 4.50167 19.4616 5.11584 19.9047 5.51001Z" fill="#F7E06B"/>
<path d="M7.22418 5.8614C6.84529 6.42668 6.50307 7.13557 5.90724 7.02251C5.56138 6.9484 5.24515 6.77369 4.99832 6.52033C4.75149 6.26698 4.58508 5.9463 4.52002 5.59862C4.47113 5.05779 5.13113 4.3764 5.69641 4.46807C6.36557 4.56585 6.74751 5.31446 7.22418 5.8614Z" fill="#FBE266"/>
<path d="M7.19053 18.1325C6.72915 18.6916 6.35331 19.4739 5.58637 19.5533C5.09137 19.6052 4.44359 18.9422 4.51082 18.4808C4.58026 18.1085 4.76073 17.766 5.0285 17.4982C5.29628 17.2304 5.63882 17.05 6.01109 16.9805C6.49998 16.9041 6.88803 17.5519 7.19053 18.1325Z" fill="#FAE266"/>
</svg>
