<svg width="24" height="24" viewBox="0 0 24 24" fill="none" xmlns="http://www.w3.org/2000/svg">
<path d="M17.0692 16.9132C15.2941 16.9551 13.5283 16.6435 11.8748 15.9966C9.3356 15.0555 6.73839 14.9974 4.10145 15.4649C3.67978 15.5382 3.08701 16.021 2.89756 15.1594C2.72645 14.371 3.20312 14.0624 3.87839 13.9371C6.62839 13.4666 9.33255 13.4819 11.9634 14.4444C14.5289 15.423 17.3182 15.6592 20.0117 15.1257C20.3631 15.0555 21.02 14.4627 21.1881 15.3977C21.3256 16.1463 20.9772 16.4702 20.2347 16.6199C19.1911 16.8165 18.1312 16.9147 17.0692 16.9132Z" fill="#7C60A9"/>
<path d="M16.6872 19.6388C15.2877 19.7519 13.5705 19.376 11.893 18.7435C9.35693 17.7902 6.76276 17.7383 4.12277 18.1935C3.69805 18.2669 3.11138 18.7466 2.90055 17.9185C2.70805 17.1516 3.15416 16.8094 3.84777 16.6963C6.53054 16.2319 9.21331 16.2135 11.7922 17.1516C14.45 18.1758 17.3448 18.4207 20.1369 17.8574C20.4638 17.7872 21.0536 17.286 21.185 18.1355C21.2705 18.7466 21.1422 19.1621 20.4027 19.3577C19.3058 19.6388 18.2027 19.6174 16.6872 19.6388Z" fill="#7B60A9"/>
<path d="M12.6997 10.4202L16.3419 14.2916C13.9188 14.2152 11.7983 13.0235 9.5005 12.5683C9.13384 12.4949 8.59912 12.1527 9.033 11.566C10.903 9.03606 13.1977 7.28828 16.5527 7.47161C17.1791 7.50523 17.613 7.53273 17.6374 8.34245C17.6619 9.15217 17.3319 9.35689 16.5772 9.39661C15.2724 9.46383 13.9463 9.5555 12.6997 10.4202Z" fill="#5F51A2"/>
<path d="M5.65059 9.08803C5.66776 8.85956 5.73055 8.63685 5.83527 8.43306C5.93998 8.22927 6.08449 8.04854 6.26025 7.90155C6.436 7.75456 6.63944 7.6443 6.85854 7.57729C7.07764 7.51027 7.30795 7.48786 7.53586 7.51137C8.62058 7.54804 9.33558 8.15915 9.35086 9.3447C9.34728 9.59802 9.29373 9.84815 9.19327 10.0807C9.09282 10.3133 8.94745 10.5238 8.76549 10.7001C8.58353 10.8764 8.36856 11.015 8.13291 11.108C7.89726 11.201 7.64556 11.2466 7.39225 11.2422C6.44197 11.1811 5.61392 10.2491 5.65059 9.08803Z" fill="#6051A2"/>
<path d="M3.91499 9.39053C3.32527 9.41803 2.85166 9.33247 2.86388 8.43414C2.8761 7.53581 3.2611 7.36165 3.9761 7.51748C4.39471 7.60609 5.19832 7.34637 5.09137 8.03998C5.01193 8.52275 5.20137 9.65331 3.91499 9.39053Z" fill="#5E4FA1"/>
</svg>
