<svg width="24" height="24" viewBox="0 0 24 24" fill="none" xmlns="http://www.w3.org/2000/svg">
<path d="M12.0428 20.2011C9.59833 20.2011 7.15389 20.2011 4.72778 20.247C3.50556 20.2653 2.91278 19.6175 2.89445 18.4961C2.85778 14.2184 2.87306 9.95891 2.89445 5.69031C2.89445 4.5017 3.585 3.91809 4.72778 3.91809C7.17222 3.91809 9.59833 3.96087 12.0367 3.98837C12.8342 6.19448 12.4155 8.42503 12.3055 10.6525C11.6028 11.395 8.98722 11.7709 8.26305 11.2392C7.76194 10.8664 8.08277 10.5181 8.30583 10.2064C8.72138 9.62891 9.31111 9.20419 9.73888 8.63586C9.89777 8.42503 9.98638 8.15919 9.76944 7.95142C9.72083 7.90948 9.66425 7.87779 9.6031 7.85825C9.54194 7.83871 9.47747 7.83173 9.41355 7.83772C9.34963 7.84372 9.28758 7.86256 9.23112 7.89312C9.17466 7.92369 9.12496 7.96534 9.08499 8.01558C7.77416 9.2103 6.56111 10.5028 5.29917 11.7495C4.96611 12.0795 5.06084 12.3606 5.36945 12.6661C6.53972 13.7845 7.655 14.9639 8.82833 16.0853C9.11555 16.3603 9.46999 16.7147 9.86722 16.3022C10.2644 15.8897 9.91916 15.5536 9.65027 15.2481C9.28361 14.8264 8.85277 14.4658 8.49222 14.0411C8.23861 13.7356 7.85972 13.43 8.0675 12.99C8.27527 12.55 8.75805 12.5439 9.14611 12.5928C10.2247 12.7242 11.5264 12.0184 12.3055 13.3781C12.4155 15.6667 12.8617 17.9522 12.0428 20.2011Z" fill="#38474F"/>
<path d="M12 11.0833L12.0306 3.98835C14.5086 3.69807 16.9958 3.87224 19.4739 3.89057C20.5953 3.89057 21.2064 4.55057 21.2003 5.75446C21.1819 9.96806 21.2003 14.1817 21.2003 18.3953C21.2003 19.6419 20.6472 20.2683 19.3669 20.2469C16.9225 20.2072 14.4781 20.2133 12.0581 20.2011C12.0458 17.7567 12.0346 15.3224 12.0244 12.8983L12.1803 12.7486C13.1672 12.3972 14.1878 12.5194 15.1869 12.605C16.1861 12.6906 16.3786 13.1978 15.7675 14.035C15.3794 14.5697 14.8508 14.9761 14.4139 15.4742C14.1847 15.7369 13.8792 16.0486 14.2611 16.3908C14.5422 16.6353 14.8356 16.4214 15.0586 16.2044C16.2594 15.0464 17.4389 13.8608 18.603 12.6631C19.0369 12.2169 19.0094 11.7708 18.5817 11.3308C17.4878 10.2033 16.3725 9.10028 15.2542 7.99723C14.9486 7.70695 14.6217 7.38612 14.2275 7.82917C13.8333 8.27223 14.1389 8.56556 14.4444 8.87112C14.9228 9.32398 15.3709 9.8078 15.7858 10.3194C16.1861 10.8969 16.0272 11.3156 15.3367 11.3767C14.2856 11.4683 13.2192 11.6028 12.1803 11.2483C12.1131 11.1994 12.0611 11.1475 12 11.0833Z" fill="#FFD550"/>
<path d="M12 12.8983H7.80782C8.82227 13.9372 9.51893 14.6981 10.2523 15.4008C10.7167 15.8347 10.7809 16.1403 10.2889 16.6231C9.79699 17.1058 9.47921 17.2342 8.9506 16.6597C7.66116 15.301 6.33708 13.977 4.97838 12.6875C4.46811 12.2017 4.56894 11.9022 5.01505 11.4653C6.35949 10.1575 7.68356 8.83345 8.98727 7.49308C9.44865 7.01642 9.75115 7.05003 10.2278 7.49308C10.787 8.01253 10.732 8.36086 10.1912 8.81919C9.46088 9.4303 8.77032 10.1056 7.84449 10.9581C9.44865 11.2636 10.7259 11.1536 11.997 11.1017L12 11.0834C12.2313 11.3326 12.3599 11.66 12.3599 12C12.3599 12.34 12.2313 12.6675 12 12.9167V12.8983Z" fill="#FDD550"/>
<path d="M12 12.9167C12 12.3056 12 11.6883 12 11.065H16.1555C15.3 10.2033 14.6278 9.48529 13.9219 8.83445C13.4086 8.37001 13.2894 8.02168 13.8761 7.5114C14.3344 7.11418 14.6156 6.77807 15.2022 7.41057C16.4794 8.78556 17.8239 10.1025 19.1744 11.4011C19.703 11.9053 19.703 12.2383 19.1744 12.7456C17.8055 14.0503 16.4672 15.3611 15.1808 16.7422C14.6033 17.3533 14.3008 17.0478 13.8425 16.6353C13.3842 16.2228 13.3383 15.8561 13.8425 15.4131C14.585 14.7469 15.2878 14.035 16.0058 13.3414L15.853 12.9167H12Z" fill="#384850"/>
</svg>
