<svg width="24" height="24" viewBox="0 0 24 24" fill="none" xmlns="http://www.w3.org/2000/svg">
<path d="M19.3333 12.1772C19.3333 14.5667 19.3333 16.953 19.3333 19.3333C19.3486 20.6136 18.765 21.188 17.5 21.1666C13.8914 21.1666 10.2858 21.1391 6.67723 21.1666C5.37251 21.1666 4.76445 20.4883 4.75529 19.3333C4.71455 14.5055 4.71455 9.6788 4.75529 4.85307C4.75529 3.52696 5.4764 2.84252 6.89417 2.85779C10.3469 2.89446 13.8028 2.85779 17.2555 2.87613C18.7833 2.87613 19.3211 3.42918 19.3333 4.99668C19.3516 7.41667 19.3333 9.79083 19.3333 12.1772Z" fill="#78909C"/>
<path d="M12.1131 11.0833C13.2742 11.0833 14.4353 11.1016 15.5965 11.0833C16.2778 11.0833 16.6109 11.2941 16.6078 12.0366C16.6048 12.7791 16.1953 12.9533 15.5476 12.9533C13.1826 12.9289 10.8104 12.9268 8.43119 12.9472C7.74064 12.9533 7.41675 12.7211 7.41675 12C7.41675 11.2147 7.82619 11.0833 8.46786 11.1016C9.69008 11.1108 10.9001 11.0833 12.1131 11.0833Z" fill="#B4C1C7"/>
</svg>
