<svg width="24" height="24" viewBox="0 0 24 24" fill="none" xmlns="http://www.w3.org/2000/svg">
<path d="M19.3333 12.1558C19.3333 14.5422 19.3149 16.9286 19.3333 19.3119C19.3486 20.58 18.7894 21.1911 17.5152 21.188C13.9127 21.188 10.3072 21.1666 6.70469 21.188C5.32358 21.188 4.74608 20.4425 4.73691 19.2111C4.70636 14.4902 4.69719 9.76942 4.73691 5.05166C4.73691 3.44138 5.38469 2.89138 7.01024 2.88527C10.4121 2.86694 13.8129 2.86694 17.2127 2.88527C18.7802 2.90055 19.3333 3.44444 19.3333 4.99971C19.3516 7.3861 19.3333 9.76942 19.3333 12.1558Z" fill="#57A0D7"/>
<path d="M14.8782 7.48999C15.9154 8.06823 16.7298 8.97635 17.192 10.0702C17.6542 11.1641 17.7379 12.381 17.4296 13.5278C16.8888 15.6666 14.8629 17.3961 12.7607 17.5C9.76933 17.6711 7.72211 16.3908 6.84212 13.7966C6.02628 11.4042 6.78406 9.2836 9.17961 7.52971C9.32017 8.63888 9.366 9.58304 8.82211 10.5853C7.98184 12.1375 8.51656 13.87 9.97711 15.0066C10.6203 15.4636 11.3938 15.7009 12.1826 15.6833C12.9714 15.6657 13.7335 15.3941 14.3557 14.9089C15.5993 13.9464 16.1371 11.9022 15.3213 10.5211C14.7499 9.55554 14.6949 8.63888 14.8782 7.48999Z" fill="#C8E3F7"/>
<path d="M12.9503 9.24998C12.9503 9.90692 12.9503 10.5669 12.9503 11.2239C12.9503 11.9328 12.5439 12.0458 11.9633 12.0366C11.3828 12.0275 11.0925 11.8747 11.0986 11.2636C11.0986 9.99859 11.0986 8.73054 11.0986 7.46554C11.0986 6.72304 11.5355 6.53359 12.1894 6.54887C12.9289 6.54887 12.9564 7.04693 12.9503 7.5847C12.9442 8.12248 12.9503 8.69998 12.9503 9.25609V9.24998Z" fill="#C5E2F6"/>
</svg>
