<svg width="24" height="24" viewBox="0 0 24 24" fill="none" xmlns="http://www.w3.org/2000/svg">
<path d="M21.1087 12.9595C21.1362 14.53 21.1667 16.0975 21.185 17.6681C21.185 18.7772 20.6656 19.3578 19.5289 19.3578H4.63921C3.41699 19.3578 2.91588 18.6489 2.90366 17.5245C2.88532 16.1067 2.90366 14.6859 2.90366 13.2681C3.62782 12.5561 5.99282 12.272 6.65588 12.8036C7.06838 13.1367 6.89727 13.5247 6.81477 13.9189C6.76903 14.0377 6.76153 14.1678 6.7933 14.291C6.82507 14.4143 6.89453 14.5245 6.99199 14.6064C7.12143 14.6892 7.27607 14.7233 7.42831 14.7026C7.58055 14.6818 7.72048 14.6077 7.8231 14.4934C8.45049 13.9758 9.03031 13.4032 9.5556 12.7822C9.96504 12.3056 9.8306 11.8472 9.45171 11.4195C9.08271 11.0011 8.69209 10.6023 8.28143 10.2247C7.9606 9.91919 7.67032 9.4303 7.15393 9.58613C6.52754 9.77863 6.80254 10.3195 6.84838 10.7503C6.8881 11.2422 6.54282 11.3614 6.17616 11.4042C5.3713 11.5213 4.55336 11.5162 3.75004 11.3889C3.30699 11.3186 2.99532 11.0834 3.01671 10.5822C3.09004 8.92613 2.83338 7.25474 3.13893 5.59863C3.5056 4.93252 4.15032 4.77669 4.81949 4.77669C9.62079 4.76243 14.4221 4.76243 19.2234 4.77669C20.5709 4.77669 21.2675 5.4153 21.1942 6.85141C21.1209 8.28752 21.1667 9.6778 21.1484 11.0834C20.1737 11.7434 19.1042 11.4195 18.0684 11.3645C17.5948 11.337 17.3839 11.0192 17.4573 10.515C17.5214 10.1178 17.5948 9.63502 17.1028 9.47613C16.6109 9.31724 16.4337 9.82752 16.1312 10.0659C16.0544 10.1324 15.9819 10.2039 15.9142 10.2797C13.9434 12.2292 13.9923 12.8006 16.2625 14.3559C16.8737 14.7806 17.4359 14.7409 17.3442 13.9006C17.2098 12.6784 17.9125 12.5286 18.7956 12.5622C19.5809 12.6111 20.4303 12.3056 21.1087 12.9595Z" fill="#5F6BB2"/>
<path d="M3.13893 5.59863C3.13893 6.96752 3.1817 8.34863 3.07781 9.7053C2.9892 10.8909 3.47198 11.2331 4.56893 11.12C5.21059 11.0528 5.86754 11.12 6.70781 11.12C6.36254 10.46 5.6842 9.94058 6.56726 9.28669C7.12642 8.87724 7.45031 8.70308 7.89948 9.30502C8.03342 9.45617 8.17846 9.59712 8.33337 9.72669C10.7778 12.1711 10.7778 12.1711 8.31504 14.5636C7.84142 15.0189 7.48393 15.737 6.58254 14.9975C5.68115 14.2581 6.38087 13.8089 6.88809 13.0389C5.43059 12.9961 4.17781 12.7334 2.91587 13.2681C2.88226 11.1292 2.84254 8.9903 2.82115 6.86974C2.83337 6.42669 2.72031 5.9378 3.13893 5.59863Z" fill="#9EA6D4"/>
<path d="M21.1087 12.9595C20.1431 12.9595 19.1806 12.9595 18.2151 12.9595C17.7262 12.9595 17.3351 13.1 17.7904 13.6622C18.429 14.4506 17.6529 14.7408 17.2709 15.1136C16.7606 15.6086 16.4673 15.0525 16.1526 14.7683C13.369 12.2445 13.3537 12.2261 15.957 9.70223C16.3084 9.36307 16.5162 8.45251 17.3656 9.02085C18.0379 9.47001 18.1265 9.91307 17.6712 11.0803H21.1484L21.1087 12.9595Z" fill="#9EA6D4"/>
</svg>
