<svg width="24" height="24" viewBox="0 0 24 24" fill="none" xmlns="http://www.w3.org/2000/svg">
<path d="M12.1802 9.47C10.7166 8.18667 9.52496 7.12945 8.33329 6.08445C7.94829 5.75139 8.0919 5.47334 8.3944 5.21056C9.55551 4.18695 10.7136 3.16946 12.3666 1.72418C11.4988 4.47418 13.048 4.66056 14.6277 5.20751C17.283 6.12417 18.9666 8.09806 19.3149 11.013C19.373 11.5019 19.596 12.1864 18.6427 12.1986C17.9644 12.1986 17.5702 12.1192 17.4205 11.2819C17.0508 9.11555 15.7613 7.65195 13.6622 6.92167C12.6447 6.56723 11.9755 6.61611 12.1619 7.96972C12.1954 8.4691 12.2015 8.96994 12.1802 9.47Z" fill="#495D67"/>
<path d="M12 14.692C13.4391 15.9722 14.6216 17.0478 15.8347 18.0897C16.3541 18.5389 15.9661 18.7772 15.6758 19.0369C14.5544 20.0453 13.4208 21.0383 12.2994 22.0344C12.1772 21.9428 12.0336 21.8755 12.0397 21.8358C12.2963 20.1675 11.7158 19.4464 9.92218 19.0858C7.13552 18.5267 5.09442 15.847 4.84386 13.1245C4.80108 12.6661 4.4772 12.0459 5.35719 12.0153C5.99886 11.9939 6.6283 11.8472 6.7658 12.8708C7.07136 15.1472 8.46774 16.562 10.6158 17.3044C11.5783 17.6344 12.1925 17.61 12.0183 16.3297C11.9814 15.7846 11.9753 15.2378 12 14.692Z" fill="#495D67"/>
</svg>
