<svg width="24" height="24" viewBox="0 0 24 24" fill="none" xmlns="http://www.w3.org/2000/svg">
<path d="M17.7719 17.1944C16.6352 18.3463 15.5261 19.5288 14.3558 20.6472C13.4972 21.4661 12.4889 21.4936 11.6486 20.6686C8.89248 17.9491 6.19443 15.193 3.46888 12.4552C3.2721 12.2546 3.11937 12.015 3.02045 11.752C2.92154 11.4889 2.87862 11.2081 2.89444 10.9275C2.89444 8.89552 2.89444 6.86358 2.89444 4.81636C2.89444 4.1197 3.09305 3.51775 3.77138 3.17859C4.41916 3.71025 5.05166 4.25109 5.41832 5.03025C5.41832 6.94303 5.49471 7.01942 7.41665 6.7108C10.8358 10.2552 14.3925 13.6316 17.7719 17.1944Z" fill="#F3744D"/>
<path d="M17.7719 17.1944C17.3197 17.1944 17.0324 16.9194 16.7422 16.6291C13.8414 13.7182 10.9366 10.8124 8.02774 7.91163C7.66706 7.62524 7.43156 7.2101 7.37079 6.75357C7.0194 5.78191 6.39913 5.12191 5.31746 5.00885C4.66663 4.54136 3.92719 4.11969 3.77747 3.20303C6.42968 2.59192 9.1094 2.94025 11.7769 3.01358C12.11 3.01358 12.4766 3.40469 12.7547 3.6858C15.3417 6.26672 17.9186 8.85987 20.4852 11.4652C21.4783 12.4766 21.4752 13.4911 20.4852 14.5208C19.6113 15.4344 18.6794 16.2961 17.7719 17.1944Z" fill="#F05324"/>
<path d="M5.32365 5.00884C7.01031 4.67884 7.46253 5.05773 7.37698 6.75356C6.80559 7.33411 6.18531 7.78939 5.39698 7.15689C4.60865 6.52439 4.81948 5.74217 5.32365 5.00884Z" fill="#FCF9F7"/>
</svg>
