<svg width="24" height="24" viewBox="0 0 24 24" fill="none" xmlns="http://www.w3.org/2000/svg">
<path d="M13.0206 8.41584C15.1131 8.54718 17.1097 9.34005 18.7223 10.68C20.7053 12.3575 21.5456 14.4811 21.127 17.0569C21.0367 17.7717 20.7486 18.4471 20.2951 19.0069C19.8416 19.5667 19.2408 19.9888 18.5603 20.2256C14.3131 21.7258 9.96505 21.8053 5.74227 20.2683C2.88533 19.2264 2.03283 15.8469 3.63394 12.9167C5.23505 9.98639 7.86894 8.82528 10.9887 8.41278C11.2117 8.47084 11.2942 8.65111 11.3767 8.8375C11.5142 9.14306 11.5478 9.58917 11.9878 9.58306C12.4278 9.57695 12.4737 9.14 12.5989 8.82834C12.7089 8.63889 12.7914 8.46167 13.0206 8.41584Z" fill="#F68C1F"/>
<path d="M11.1781 4.8439C12.2476 4.00973 13.0114 2.70501 14.6951 2.87612C15.5506 2.95557 15.8959 3.18168 15.6606 4.06779C15.2512 5.63529 14.4078 6.69862 12.6937 6.8514C12.1406 7.27001 11.5051 7.32501 11.0834 6.80557C10.5731 6.19446 10.8512 5.48862 11.1781 4.8439Z" fill="#48A148"/>
<path d="M11.1781 4.84389C11.2423 5.02723 11.4073 5.25639 11.3523 5.39084C10.7168 6.89417 11.6854 6.88195 12.6937 6.85139C12.8037 7.37084 12.9106 7.89334 13.0206 8.41584C12.9015 9.04834 13.2712 9.8825 12.3484 10.1911C12.2448 10.2361 12.1329 10.2592 12.0199 10.259C11.907 10.2589 11.7952 10.2354 11.6917 10.1901C11.5882 10.1448 11.4951 10.0786 11.4183 9.99572C11.3415 9.91283 11.2827 9.815 11.2454 9.70834C11.1235 9.28447 11.0377 8.85108 10.9887 8.41278C10.9445 7.88152 10.7699 7.36937 10.4805 6.92167C10.1911 6.47397 9.79579 6.10455 9.32953 5.84612C8.71842 5.50084 8.08286 5.13723 8.51675 4.33973C8.98731 3.475 9.70536 3.79584 10.3501 4.19306C10.6375 4.39514 10.9139 4.61239 11.1781 4.84389Z" fill="#38803F"/>
</svg>
