<svg width="24" height="24" viewBox="0 0 24 24" fill="none" xmlns="http://www.w3.org/2000/svg">
<path d="M17.4756 12.8647C16.287 13.2497 15.0648 12.9991 13.8578 13.0205C13.0237 13.0389 12.8953 12.2169 12.5684 11.6822C12.0826 10.8816 11.6517 11.1261 11.4592 11.7922C11.1262 12.9289 10.9398 14.0503 12.2414 14.8661C12.9014 15.2816 13.9526 15.7186 13.9373 16.4794C13.9098 17.7169 13.4728 18.9605 13.097 20.1675C12.8953 20.8214 12.3239 20.4028 11.9206 20.3172C11.5173 20.2316 11.0437 20.198 11.2728 19.5655C11.2973 19.467 11.3279 19.37 11.3645 19.2753C12.3942 17.2097 11.2759 16.1005 9.55561 15.2664C9.50672 15.3153 9.39061 15.3825 9.38755 15.4497C9.29589 18.2822 8.6145 19.0828 5.73922 20.033C4.9295 20.2989 4.92644 19.7275 4.67283 19.3394C4.36728 18.8964 4.27561 18.4228 4.91728 18.2791C7.83228 17.668 7.542 15.4803 7.47172 13.3444C7.40144 11.2636 7.98811 9.42109 9.70228 8.09193C10.9642 7.11109 12.0001 7.28831 12.9167 8.63887C13.2276 9.04074 13.494 9.47513 13.7112 9.93443C14.1451 11.0283 14.9334 11.3247 16.012 11.1169C17.5978 10.5578 17.8209 10.8236 17.4756 12.8647Z" fill="#5E4FA1"/>
<path d="M17.4755 12.8647C17.503 11.8441 17.5855 10.7716 15.9997 11.1047C16.5283 10.188 16.953 9.41497 16.1433 8.27219C15.2266 6.97358 16.0211 4.91108 17.4541 4.11358C17.9561 3.80351 18.5582 3.69846 19.1356 3.82019C19.713 3.94192 20.2214 4.28111 20.5555 4.76747C21.5333 6.07525 21.4111 8.37608 19.9016 9.04525C18.0377 9.86108 17.6374 11.1872 17.4755 12.8647Z" fill="#7B5FA8"/>
<path d="M14.8569 5.88885C14.7347 6.83302 14.1419 7.4808 13.0236 7.5358C12.7714 7.5456 12.52 7.50254 12.2855 7.40939C12.051 7.31624 11.8386 7.17506 11.6619 6.99491C11.4852 6.81477 11.3482 6.59965 11.2596 6.36338C11.171 6.12711 11.1328 5.87492 11.1475 5.62302C11.2086 4.48941 11.893 3.89052 12.9808 3.80496C13.9739 3.71635 14.8844 4.69413 14.8569 5.88885Z" fill="#6051A2"/>
<path d="M7.03781 6.49998C6.96143 7.44109 6.45115 7.90859 5.65365 7.9147C5.48664 7.9293 5.31845 7.90746 5.1607 7.85069C5.00296 7.79392 4.85942 7.70358 4.74001 7.58591C4.62059 7.46824 4.52815 7.32605 4.46907 7.16915C4.40999 7.01226 4.38568 6.84441 4.39781 6.6772C4.39781 5.83692 4.89281 5.36331 5.73309 5.35109C6.57337 5.33887 6.86365 5.88887 7.03781 6.49998Z" fill="#8166AC"/>
<path d="M19.6603 6.66496C19.5961 7.49302 19.2417 8.24774 18.2792 8.29663C17.5734 8.33024 17.222 7.70385 17.2403 7.04385C17.2648 6.17913 17.607 5.3908 18.5725 5.28996C19.4403 5.19524 19.6389 5.87052 19.6603 6.66496Z" fill="#F8F5FA"/>
</svg>
