<svg width="24" height="24" viewBox="0 0 24 24" fill="none" xmlns="http://www.w3.org/2000/svg">
<path d="M2.16111 4.02804C2.50639 3.13888 3.20306 2.8761 4.08917 2.8761C9.40379 2.8761 14.7174 2.8761 20.03 2.8761C21.35 2.8761 22.1139 3.43526 22.1016 4.87137C22.0833 8.47081 22.0833 12.0611 22.0589 15.6666C21.5241 16.1555 20.858 16.1555 20.198 16.1586C14.8355 16.1586 9.47304 16.183 4.11055 16.1586C2.20389 16.1586 2.07861 15.9936 2.09695 14.0564C2.12445 10.7014 2.00528 7.3647 2.16111 4.02804Z" fill="#273238"/>
<path d="M2.16113 4.02808C2.16113 7.52363 2.1764 11.0192 2.16113 14.5147C2.16113 15.2847 2.26807 15.7369 3.21835 15.7369C9.49445 15.6667 15.7767 15.6667 22.0589 15.6667C22.1903 17.2189 21.2094 17.7017 19.92 17.7597C18.5144 17.8269 17.1058 17.7597 15.6972 17.7872C15.2267 17.7872 14.6675 17.5764 14.3344 18.1447C12.8594 17.8519 11.3429 17.8332 9.86111 18.0897C8.38528 17.3625 6.82084 17.8422 5.30223 17.7842C2.55224 17.6925 1.90446 17.1119 1.9014 14.3986C1.9014 11.4164 1.9014 8.43723 1.9014 5.45502C1.91668 4.97224 1.72418 4.44058 2.16113 4.02808Z" fill="#8A8F93"/>
<path d="M9.86112 18.0897C11.0192 17.2494 13.2222 17.2708 14.3497 18.1324C14.8356 19.0491 16.1831 19.9169 15.7217 20.8335C15.2603 21.7502 13.7967 21.1177 12.7761 21.1849C11.6119 21.2613 10.4386 21.1849 9.2714 21.2094C8.19584 21.243 8.18362 20.6991 8.59306 19.9872C8.96278 19.3333 9.42723 18.7222 9.86112 18.0897Z" fill="#475257"/>
<path d="M11.8778 13.9005C9.59527 13.9005 7.31277 13.8699 5.03028 13.9158C4.1625 13.9158 3.74389 13.7508 3.77139 12.7547C3.83861 10.4233 3.81722 8.08579 3.77139 5.75441C3.77139 4.96913 4.01278 4.68496 4.81639 4.69108C9.63397 4.71756 14.4536 4.71756 19.2753 4.69108C19.9566 4.69108 20.2928 4.85302 20.2836 5.60774C20.253 8.05218 20.2439 10.4783 20.2836 12.9136C20.2989 13.7752 19.8925 13.9066 19.1714 13.9005C16.7483 13.8822 14.313 13.8974 11.8778 13.9005Z" fill="#5F6BB2"/>
<path d="M4.70335 9.88554C4.64529 8.78249 4.9264 7.97583 5.94084 7.58472C6.7689 7.26388 7.42279 7.58472 8.0064 8.14388C8.27834 8.39749 8.49528 8.75499 8.21723 9.07582C7.93917 9.39666 7.58167 9.23166 7.31584 8.94749C6.89418 8.49527 6.43584 8.16833 5.93779 8.80999C5.70408 9.08641 5.57867 9.43827 5.58485 9.80019C5.59104 10.1621 5.72839 10.5095 5.9714 10.7778C6.42362 11.3339 6.96751 11.1475 7.36167 10.6158C7.60001 10.2919 7.86278 10.0322 8.20501 10.3897C8.48917 10.6953 8.34862 11.0619 8.14084 11.3644C7.58167 12.1772 6.71695 12.1772 5.9439 11.945C4.94779 11.6425 4.55974 10.8205 4.70335 9.88554Z" fill="#9DA5D3"/>
<path d="M13.6225 11.4714C13.6592 11.6791 13.6989 11.8961 13.4514 11.9694C13.1458 12.0611 12.7975 12.0305 12.6783 11.6975C12.2444 10.4753 11.8411 9.22554 11.4561 7.98193C11.4386 7.93551 11.4309 7.88595 11.4336 7.83641C11.4363 7.78687 11.4492 7.73843 11.4717 7.69417C11.4941 7.64991 11.5255 7.6108 11.5638 7.57933C11.6022 7.54786 11.6467 7.52472 11.6944 7.51137C11.7666 7.48686 11.8432 7.47806 11.9191 7.48557C11.995 7.49309 12.0683 7.51673 12.1343 7.55493C12.2003 7.59313 12.2573 7.64499 12.3016 7.70704C12.3459 7.76909 12.3764 7.8399 12.3911 7.91471C12.8128 9.0972 13.2222 10.2858 13.6225 11.4714Z" fill="#9BA3D2"/>
<path d="M17.0264 12.0855C16.3053 11.7799 14.9608 12.4858 14.9486 11.5935C14.9303 10.6005 16.2472 11.1352 16.9378 11.1413C17.7108 11.1413 19.15 10.6402 19.15 11.5263C19.15 12.611 17.7383 11.7188 17.0264 12.0855Z" fill="#9CA4D2"/>
</svg>
