<svg width="24" height="24" viewBox="0 0 24 24" fill="none" xmlns="http://www.w3.org/2000/svg">
<path d="M7.14167 19.3333C7.16601 19.0803 7.16601 18.8255 7.14167 18.5725C7.05 18.0164 7.48084 17.2036 6.7475 16.9622C6.01417 16.7208 5.17389 16.7086 4.50167 17.4297C4.16861 17.7841 3.89056 18.5572 3.22139 18.2119C2.62861 17.9064 2.87917 17.2005 2.88528 16.6689C2.8863 16.1631 3.00144 15.6641 3.22212 15.209C3.4428 14.754 3.76334 14.3546 4.15983 14.0406C4.55633 13.7266 5.01857 13.5062 5.51211 13.3957C6.00565 13.2852 6.51776 13.2875 7.01028 13.4025C7.74667 13.5797 8.2325 13.5186 8.77334 12.9716C10.1483 11.5457 11.5468 10.1453 12.9686 8.77026C13.1968 8.57594 13.3628 8.31879 13.4459 8.03084C13.529 7.74289 13.5256 7.43685 13.4361 7.15081C12.8556 4.51387 14.9639 2.3597 17.5703 2.87304C18.2853 3.0197 18.6061 3.32831 17.9736 3.97609C17.8409 4.1302 17.6969 4.2742 17.5428 4.40692C16.7056 5.01804 16.6628 5.9347 16.9561 6.74137C17.2494 7.54804 18.1111 7.04692 18.7161 7.14165C18.9193 7.16189 19.124 7.16189 19.3272 7.14165C19.2508 7.91165 18.6122 7.78331 18.1692 7.77415C17.1608 7.7497 16.455 8.21415 15.7858 8.89859C13.6469 11.0711 11.5081 13.2314 9.32945 15.355C8.43111 16.2319 7.64889 17.0966 7.75889 18.4778C7.78028 18.8414 7.74362 19.3333 7.14167 19.3333Z" fill="#94A7B1"/>
<path d="M7.14167 19.3333C7.20889 19.26 7.34334 19.1713 7.33417 19.1133C6.88195 16.6108 8.76723 15.413 10.1942 13.9677C11.8717 12.2688 13.6042 10.628 15.2358 8.88635C16.1525 7.90857 17.0692 7.17829 18.5083 7.43496C18.6588 7.47127 18.8168 7.46155 18.9617 7.40707C19.1066 7.3526 19.2318 7.25586 19.3211 7.1294L20.8244 5.60162C21.9703 9.04523 20.2133 11.2116 16.8094 10.6402C16.5723 10.5828 16.3238 10.5939 16.0928 10.6723C15.8617 10.7508 15.6578 10.8933 15.5047 11.0833C14.0381 12.5652 12.5592 14.0319 11.0894 15.5108C10.7839 15.8163 10.5242 16.0669 10.6067 16.6627C11.1078 20.2683 9.55861 21.6433 5.71778 20.9863C5.95611 20.2225 6.61 19.8283 7.14167 19.3333Z" fill="#79919D"/>
</svg>
