<svg width="24" height="24" viewBox="0 0 24 24" fill="none" xmlns="http://www.w3.org/2000/svg">
<path d="M15.0277 13.8027C15.5457 14.312 15.9556 14.9206 16.2328 15.5921C16.51 16.2636 16.6489 16.9841 16.641 17.7106C16.6838 20.1732 15.5227 21.0929 13.9889 21.9026C12.4062 22.7429 9.74183 21.924 8.36689 20.4085C7.29748 19.2291 7.04083 16.9406 7.89635 15.4282C8.2355 14.8293 8.54716 14.1388 9.24991 13.8332C9.49129 13.6102 9.36907 13.2221 9.65017 13.0021C10.1604 12.663 10.6799 12.4766 11.2207 12.9441C11.3675 13.2363 11.455 13.5547 11.4781 13.8809C11.5012 14.2071 11.4594 14.5346 11.3551 14.8446C11.1412 15.4373 10.5485 15.7245 10.2124 16.2256C9.54934 17.2156 9.61656 18.2972 10.414 19.1161C10.8098 19.5103 11.328 19.7581 11.8833 19.8186C12.4387 19.8791 12.9981 19.7488 13.4695 19.4491C14.3128 18.8625 14.5908 17.6464 14.1264 16.5984C13.8392 15.9476 13.2098 15.5351 12.95 14.8537C12.7331 12.8249 13.0142 12.4949 14.5908 12.941C14.8994 13.1396 14.8352 13.5277 15.0277 13.8027Z" fill="#B7E2F7"/>
<path d="M11.0587 12.9166L9.57685 13.2222C9.20103 11.1384 9.5188 9.03315 9.4088 6.94018C9.35991 5.99605 9.55852 5.0397 9.28047 4.10473C9.95267 2.43035 10.851 1.7826 12.4398 1.96592C13.6986 2.10647 14.655 2.65645 14.7528 4.10473C15.0583 5.76383 14.8078 7.43822 14.8964 9.09732C14.8964 9.19509 14.9178 9.36314 14.8658 9.38147C13.2525 9.99256 14.0531 10.5364 14.8933 11.0925C14.8016 11.8044 15.0919 12.5469 14.713 13.2313C12.6109 12.4064 13.3717 14.0807 13.222 14.9546C12.0579 14.6246 12.669 13.6469 12.4917 12.9533C12.4765 12.3422 12.4703 11.7067 12.4917 11.0834C12.4673 10.4723 12.4703 9.86118 12.4917 9.25009C12.397 7.72237 12.6659 6.19465 12.2656 4.51416C11.459 5.02136 11.5507 5.65689 11.5446 6.22215C11.5262 7.88736 11.5201 9.54952 11.5048 11.2147C11.4896 11.8105 11.5965 12.4491 11.0587 12.9166Z" fill="#C5E6F6"/>
<path d="M9.28046 4.09558C9.86711 5.13137 9.4974 6.25272 9.54018 7.32823C9.61351 9.28677 9.57073 11.2514 9.57684 13.213C9.54934 13.4636 9.50962 13.7049 9.24991 13.8241C9.24991 10.5833 9.26009 7.34046 9.28046 4.09558Z" fill="#A8BDC8"/>
<path d="M14.713 13.2221V10.7778C14.6316 10.6963 14.5669 10.5996 14.5228 10.4932C14.4787 10.3868 14.456 10.2727 14.456 10.1575C14.456 10.0423 14.4787 9.92825 14.5228 9.82182C14.5669 9.7154 14.6316 9.6187 14.713 9.53727C14.7375 7.71623 14.7497 5.89926 14.7497 4.08636C15.2875 4.57829 15.0277 5.22604 15.0339 5.79741C15.0552 8.46481 15.0339 11.1353 15.0339 13.8057C14.7711 13.6896 14.7497 13.4452 14.713 13.2221Z" fill="#B3B3B6"/>
<path d="M12.8981 12.9319C13.1578 13.5827 12.7209 14.3435 13.2036 14.9546C13.8667 15.4954 14.5603 16.0057 14.7314 16.9254C14.8774 17.5674 14.7941 18.2402 14.4961 18.8272C14.1981 19.4143 13.7041 19.8786 13.0998 20.1397C12.5036 20.3608 11.8503 20.374 11.2457 20.1771C10.6412 19.9802 10.1209 19.5848 9.76933 19.055C9.40647 18.5011 9.25896 17.8335 9.35466 17.1783C9.45036 16.523 9.78263 15.9255 10.2888 15.4985C10.53 15.3194 10.7867 15.1619 11.0557 15.028C11.5262 14.3405 10.9732 13.5002 11.4101 12.8005C11.6335 12.6427 11.9057 12.5692 12.1782 12.5933C12.4507 12.6173 12.7058 12.7373 12.8981 12.9319Z" fill="#D4302F"/>
<path d="M11.4346 12.996C11.2268 13.656 11.7095 14.4504 11.0557 15.0279C11.0557 14.3231 11.0557 13.6173 11.0557 12.9105C11.0822 10.4274 11.1076 7.94438 11.1321 5.46133C11.1321 4.73719 11.0832 3.87861 12.0823 3.87556C13.0814 3.8725 12.9806 4.79219 12.9745 5.4705C12.9745 6.7385 12.9287 8.00345 12.9042 9.27146C12.4973 9.40714 12.1573 9.69279 11.9536 10.0703C11.7498 10.4477 11.6975 10.8887 11.8073 11.3033C11.8806 11.8936 11.749 12.4911 11.4346 12.996Z" fill="#DC5D5C"/>
<path d="M11.4132 11.0375C11.2726 9.90698 11.3459 8.9598 12.9073 9.27145L12.9164 11.0833C12.4062 11.4714 11.902 11.508 11.4132 11.0375Z" fill="#D42F2E"/>
<path d="M11.4132 11.0375L12.9164 11.0834L12.8981 12.9411L11.4346 13.0022C11.4284 12.3422 11.4193 11.6945 11.4132 11.0375Z" fill="#DD5858"/>
<path d="M14.713 9.55562V10.7778C14.2608 10.9733 13.7536 11.3339 13.3595 10.7992C13.2266 10.611 13.1553 10.3863 13.1553 10.156C13.1553 9.92569 13.2266 9.70101 13.3595 9.51285C13.7567 8.99037 14.2608 9.35091 14.713 9.55562Z" fill="#B7E2F7"/>
</svg>
