<svg width="24" height="24" viewBox="0 0 24 24" fill="none" xmlns="http://www.w3.org/2000/svg">
<path d="M5.82165 10.9366C5.49471 10.4478 5.62609 9.98025 5.65359 9.55553C5.72693 8.42497 5.71165 7.56942 4.20832 7.27609C3.11748 7.0622 2.73554 5.93775 2.93109 4.83164C3.12665 3.72553 3.82026 2.93109 4.97526 2.91886C9.69915 2.87609 14.422 2.87609 19.1439 2.91886C20.4516 2.93414 21.133 3.73164 21.2003 5.07609C21.2705 6.48775 20.6289 7.37997 19.2753 7.52053C17.8178 7.67636 16.3358 7.59692 14.8661 7.61525C14.5609 7.6368 14.2546 7.6368 13.9494 7.61525C10.845 7.20581 8.14387 7.78942 6.29526 10.6128C6.19748 10.7503 5.99582 10.8175 5.82165 10.9366Z" fill="#3575BB"/>
<path d="M20.253 16.6108C18.4197 17.115 16.5375 16.7269 14.6828 16.8064C13.155 16.8736 11.6272 16.8644 10.1178 16.8064C9.20109 16.7666 8.38831 16.3725 8.39748 15.2786C8.40664 14.1847 9.12164 13.8547 10.1391 13.8608C13.2253 13.8669 16.3328 13.8333 19.428 13.8333C19.8191 13.8333 20.25 13.7355 20.5586 14.1052C20.0605 14.6797 19.3578 14.475 18.7253 14.588C18.2853 14.6705 17.9705 14.8661 17.9705 15.3611C17.9705 15.8561 18.2761 16.0486 18.7283 16.128C19.2661 16.2227 19.8619 16.1036 20.253 16.6108Z" fill="#5591CC"/>
<path d="M17.503 21.1391C14.97 21.1391 12.4369 21.1666 9.90692 21.1911C9.08804 21.1911 8.49526 20.9099 8.41276 20.0391C8.33026 19.1683 8.83137 18.4808 9.69304 18.4686C13.2253 18.4166 16.7728 18.4777 20.3141 18.5083C20.3875 18.5083 20.4608 18.6336 20.5372 18.7008C20.4364 18.8108 20.3264 18.9636 20.1889 18.9574C18.6458 18.8933 17.778 19.6388 17.503 21.1391Z" fill="#5090CD"/>
<path d="M20.253 12.0306C18.05 12.492 15.8225 12.1283 13.6072 12.2231C12.385 12.272 11.1628 12.2414 9.95581 12.2231C9.62032 12.236 9.29028 12.1353 9.01911 11.9374C8.74794 11.7394 8.55152 11.4557 8.46165 11.1322C8.2722 10.4753 8.37304 9.80001 9.19804 9.53723C11.893 9.26834 14.5972 9.48223 17.2922 9.41806C17.335 9.4364 17.3991 9.44251 17.4236 9.47612C17.9278 10.2247 19.5014 11.6517 20.253 12.0306Z" fill="#5492CE"/>
<path d="M20.253 12.0305C20.1064 12.0153 19.9475 11.9908 19.81 11.9878C17.503 11.9205 17.503 11.9205 17.4847 9.55555C18.495 9.31327 19.5483 9.31327 20.5586 9.55555C21.5364 10.6311 21.4753 11.2453 20.253 12.0305Z" fill="#3776BB"/>
<path d="M20.253 16.6108C19.7542 16.567 19.2529 16.5578 18.7528 16.5833C17.7475 16.6872 17.4603 16.2594 17.4603 15.2847C17.4603 14.31 17.9003 14.0686 18.7497 14.1389C19.3608 14.1755 19.9719 14.1389 20.5586 14.1205C21.5303 15.2205 21.4753 15.7797 20.253 16.6108Z" fill="#3776BB"/>
<path d="M17.503 21.1391C17.503 18.7161 17.503 18.7161 20.5586 18.6947C21.3897 19.098 21.3041 19.8253 21.1025 20.5005C20.9008 21.1758 20.2164 21.2003 19.6083 21.188C18.8903 21.185 18.1936 21.1666 17.503 21.1391Z" fill="#3675BA"/>
<path d="M20.5586 9.55553L17.503 9.5708L9.20721 9.54025C9.61971 9.1033 10.1575 9.27442 10.6433 9.27136C13.428 9.24692 16.2116 9.2408 18.9942 9.25303C19.5044 9.24997 20.1033 9.03608 20.5586 9.55553Z" fill="#6A84B3"/>
</svg>
