<svg width="24" height="24" viewBox="0 0 24 24" fill="none" xmlns="http://www.w3.org/2000/svg">
<path d="M16.8339 6.5C17.9369 6.5 19.0461 6.55195 20.1492 6.5C20.9039 6.46639 21.2369 6.67723 21.2094 7.49917C21.1453 9.6075 21.1544 11.7158 21.133 13.8242C20.8787 14.0267 20.5791 14.1646 20.2599 14.2264C19.9406 14.2881 19.6112 14.2717 19.2997 14.1786C19.182 14.0778 19.089 13.9513 19.0278 13.8089C18.8811 13.1153 18.8139 12.3911 17.8055 12.4003C16.9622 12.4003 16.1556 12.3636 15.9233 13.4453C15.8906 13.5685 15.8334 13.684 15.7552 13.7848C15.677 13.8855 15.5793 13.9696 15.4681 14.0319C13.1733 14.533 10.8511 14.1969 8.54418 14.2855C8.46347 14.2694 8.387 14.2366 8.31967 14.1892C8.25233 14.1419 8.19559 14.081 8.15307 14.0105C7.84751 13.3383 7.93612 12.498 6.76585 12.3636C5.37863 12.2047 5.10668 13.158 4.60252 13.9769C3.82335 14.3589 3.55141 14.9944 3.57891 15.8408C3.6268 16.751 3.61965 17.6632 3.55752 18.5725C3.51169 19.0766 3.67974 19.7428 2.90974 19.923C2.90974 15.7583 2.90974 11.5967 2.87308 7.43195C2.87308 6.64667 3.21835 6.51528 3.89058 6.51528C5.0578 6.54584 6.22807 6.51528 7.39529 6.51528C8.04612 5.9775 8.82223 6.07223 9.58001 6.07528C11.2728 6.03862 12.9625 6.02945 14.6522 6.07528C15.41 6.09362 16.1953 5.93167 16.8339 6.5Z" fill="#E9635E"/>
<path d="M19.4678 14.1205C19.9689 13.6988 20.5708 13.8822 21.133 13.8394C21.1575 15.7186 21.1758 17.5977 21.2094 19.4769C21.2155 19.9444 21.1667 20.2499 20.5739 20.2499C14.7317 20.2163 8.88946 20.201 3.04725 20.1674C3.00447 20.1674 2.96169 20.0055 2.91891 19.9199C3.42308 18.4105 3.14197 16.8644 3.11447 15.3366C3.09308 14.1144 3.4903 13.6774 4.64224 13.8486L4.81336 13.9799C5.64752 15.7552 6.95224 15.8133 8.48002 14.1297C10.2339 13.5186 12.0428 14.0013 13.8211 13.8608C14.4322 13.8149 15.0219 13.8608 15.6239 13.8608L15.7919 13.9922C16.6322 15.7461 17.9339 15.8011 19.4678 14.1205Z" fill="#E63B35"/>
<path d="M16.8339 6.49999H14.7134C13.4911 4.89277 10.8756 4.89583 9.49142 6.49999H7.4167C7.59086 5.35416 6.94309 3.84777 7.68559 3.13888C8.4892 2.36583 10.0017 2.93111 11.2025 2.89138C12.66 2.83333 14.1389 2.93416 15.5995 2.86388C16.5467 2.82111 16.8675 3.16944 16.8003 4.0861C16.7453 4.8836 16.8186 5.69943 16.8339 6.49999Z" fill="#4B5F68"/>
<path d="M4.64835 13.8333C4.8989 13.2711 4.30307 12.3055 5.12807 12.1222C6.10741 11.911 7.12267 11.933 8.09195 12.1864C8.68473 12.3514 8.35167 13.2405 8.34251 13.818C7.80545 14.1432 7.1909 14.3182 6.56308 14.3247C5.93527 14.3311 5.31724 14.1688 4.77362 13.8547L4.64835 13.8333Z" fill="#707B83"/>
<path d="M15.63 13.8333C15.8806 13.2711 15.2847 12.3055 16.1067 12.1222C17.086 11.9109 18.1013 11.9329 19.0706 12.1864C19.6817 12.3514 19.3303 13.2405 19.3242 13.818C18.7865 14.1432 18.1715 14.3182 17.5432 14.3246C16.9149 14.3311 16.2964 14.1688 15.7522 13.8547L15.63 13.8333Z" fill="#707B83"/>
<path d="M4.77362 13.8608L8.33333 13.8333C8.38222 13.9311 8.43111 14.0319 8.47695 14.1389C8.31195 15.908 8.315 15.853 5.75445 15.7828C4.13195 15.7216 4.85917 14.6186 4.77362 13.8608Z" fill="#485C65"/>
<path d="M15.7522 13.8608L19.3333 13.8333C19.3792 13.9311 19.4281 14.0319 19.4769 14.1389C19.3119 15.908 19.3119 15.853 16.7544 15.7828C15.1106 15.7216 15.8378 14.6186 15.7522 13.8608Z" fill="#485C65"/>
</svg>
