<svg width="24" height="24" viewBox="0 0 24 24" fill="none" xmlns="http://www.w3.org/2000/svg">
<path d="M18.3922 6.49998C17.7414 6.91554 17.7811 7.5572 17.7811 8.22026C17.7974 11.3675 17.8056 14.5157 17.8056 17.665C17.8056 19.6969 17.2403 20.2377 15.1839 20.2377C13.0511 20.2377 10.9184 20.2377 8.78559 20.2377C6.87587 20.25 6.50004 19.8558 6.50004 17.8941C6.50004 14.643 6.45115 11.3919 6.5306 8.14387C6.54991 7.81328 6.48152 7.48345 6.33235 7.1878C6.18318 6.89214 5.95853 6.64116 5.68115 6.46026C6.08448 6.07832 6.59782 6.04776 7.10504 6.04165C10.347 6.00804 13.5889 6.01415 16.8339 6.04165C17.387 6.04165 17.9461 6.08748 18.3922 6.49998Z" fill="#A0A0A0"/>
<path d="M18.3922 6.5L5.67503 6.46028C5.36948 5.11278 5.7942 4.62695 7.27919 4.65445C9.2928 4.69723 11.1781 3.59112 13.2925 3.90279C14.8997 4.13806 16.3481 4.96612 18.0928 4.81945C18.765 4.74917 18.3495 5.88889 18.3922 6.5Z" fill="#616262"/>
<path d="M8.37919 13.375C8.37919 12.0611 8.37919 10.7472 8.37919 9.43333C8.37919 8.77028 8.60224 8.3975 9.33558 8.37305C10.1514 8.34555 10.2064 8.83444 10.2064 9.44861C10.1942 12.0764 10.1942 14.7031 10.2064 17.3289C10.2064 17.9216 10.2064 18.4228 9.36919 18.4411C8.53197 18.4594 8.36391 18.0286 8.37919 17.3136C8.39752 15.9997 8.37613 14.6858 8.37919 13.375Z" fill="#636363"/>
<path d="M13.8517 13.5278C13.8517 14.8447 13.8272 16.1586 13.8517 17.4725C13.87 18.1936 13.5797 18.4564 12.8678 18.4411C12.1559 18.4258 12.0214 18.0867 12.0245 17.5C12.0408 14.8213 12.0408 12.1416 12.0245 9.46083C12.0245 8.80695 12.2231 8.41584 12.9656 8.38834C13.7661 8.36084 13.8639 8.81306 13.8547 9.44556C13.8333 10.7961 13.8517 12.1619 13.8517 13.5278Z" fill="#636363"/>
<path d="M17.5 13.4972C17.5 14.8172 17.5 16.1372 17.5 17.4694C17.5 18.05 17.39 18.435 16.6781 18.4503C15.9661 18.4655 15.6911 18.1722 15.6972 17.4633C15.7186 14.7714 15.6972 12.0825 15.6972 9.39055C15.6972 8.69083 16.0028 8.38527 16.7147 8.38833C17.4267 8.39138 17.5 8.83138 17.5 9.38749C17.5 10.7564 17.5 12.1283 17.5 13.4972Z" fill="#646565"/>
</svg>
