<svg width="24" height="24" viewBox="0 0 24 24" fill="none" xmlns="http://www.w3.org/2000/svg">
<path d="M3.14502 18.4382C2.66869 17.9802 2.87022 17.3878 2.86716 16.8565C2.86716 14.2733 2.88141 11.6901 2.90991 9.10688C2.93739 6.79848 4.31449 5.09466 6.63205 4.90535C10.3112 4.59236 14.0105 4.59849 17.6885 4.92367C19.8076 5.11909 21.1328 6.72214 21.1695 8.81985C21.1908 10.1847 21.1389 11.5679 21.1206 12.9176C19.7313 13.6992 18.2717 13.3634 16.8214 13.1893C15.9786 12.7618 15.7618 11.8794 15.3954 11.1282C14.8977 10.1084 14.174 9.56794 13.0229 9.65344C12.5223 9.70231 12.0181 9.70231 11.5175 9.65344C10.1771 9.48856 9.32823 10.0137 8.82441 11.2809C8.51907 12.0657 8.10991 12.8504 7.23052 13.2015C6.54083 13.3772 5.82574 13.4309 5.11754 13.3603C3.98472 13.3053 3.63357 13.8428 3.59083 14.9145C3.55724 16.0901 3.97556 17.3542 3.14502 18.4382Z" fill="#8B7168"/>
<path d="M3.14502 18.4382C3.14502 16.9756 3.19082 15.513 3.14502 14.0504C3.12365 13.2137 3.45037 12.8779 4.29006 12.9084C5.34655 12.9511 6.40609 12.9084 7.46563 12.9084C8.79693 13.2473 9.64579 14.3008 10.629 15.1252C11.6122 15.9496 12.403 16.1237 13.4778 15.1557C14.4244 14.3038 15.3099 13.2779 16.6473 12.9328H21.1206C21.1389 14.5511 21.1786 16.1695 21.1694 17.7878C21.1694 18.8198 20.6351 19.3572 19.5664 19.3572C14.5588 19.3572 9.55113 19.3572 4.5435 19.3572C3.85953 19.342 3.36487 19.1191 3.14502 18.4382Z" fill="#6D4D41"/>
<path d="M16.6473 12.9298C15.3374 14.0229 14.0214 15.1069 12.7206 16.2153C12.2504 16.6153 11.8687 16.5725 11.4076 16.1756C10.1099 15.0672 8.78167 13.9924 7.46564 12.9054C7.54197 12.7771 7.62747 12.6489 7.70075 12.5176C8.28396 11.4672 8.63816 9.83666 9.49922 9.50078C10.8611 8.97254 12.5527 9.32063 14.116 9.27177C14.7267 9.25345 15.032 9.60765 15.2641 10.0809C15.7313 11.0275 16.1862 11.9924 16.6473 12.9298Z" fill="#F7A62A"/>
<path d="M13.9053 12.0901C13.9053 13.0733 12.7511 14.8199 12.1007 14.8382C11.5511 14.8382 10.2015 12.9512 10.2687 12.1359C10.342 11.0214 10.9893 10.3527 12.1007 10.2702C13.0778 10.1786 13.9023 11.0764 13.9053 12.0901Z" fill="#3A4950"/>
</svg>
