<svg width="24" height="24" viewBox="0 0 24 24" fill="none" xmlns="http://www.w3.org/2000/svg">
<path d="M17.1547 13.5278C17.5642 16.018 17.9583 18.5114 18.3922 20.9955C18.5389 21.8419 18.3158 22.1352 17.3992 22.123C13.8089 22.0711 10.2156 22.123 6.62223 22.0894C6.24945 22.0894 5.5589 22.34 5.68418 21.5394C6.14251 18.6641 6.64362 15.795 7.1264 12.9228C7.96362 12.8158 8.23251 13.4697 8.52584 14.0228C8.93791 14.8227 9.28235 15.6557 9.55556 16.513C9.5948 16.7149 9.62133 16.919 9.635 17.1241C9.82445 18.7436 10.5517 19.6602 11.8197 19.8252C13.1519 19.9994 13.8822 19.4311 14.5025 17.7169C14.8264 16.29 15.1136 14.8386 15.8836 13.5736C16.2105 13.0114 16.6903 12.3055 17.1547 13.5278Z" fill="#5F4138"/>
<path d="M17.1547 13.5277C16.6628 12.8739 16.4458 13.1947 16.1525 13.7416C15.465 15.028 15.2572 16.4641 14.7775 17.8116C13.5553 14.9577 12.5317 12.055 12.4308 8.90775C13.2558 7.16915 13.042 5.15859 13.8608 3.40776C14.1083 3.57887 14.0014 4.57193 14.6767 3.76221C14.7333 3.67886 14.7978 3.6011 14.8692 3.52999C15.4803 3.06249 15.9203 1.87388 16.7025 2.28943C17.4847 2.70499 17.5519 3.84776 17.4847 4.77054C17.2953 7.68553 17.6681 10.6219 17.1547 13.5277Z" fill="#6E4D42"/>
<path d="M9.26531 16.5833C8.49226 15.3947 8.51976 13.7386 7.12643 12.9167C7.12643 12.3056 7.15698 11.7159 6.86059 11.1475C6.71011 10.8812 6.62624 10.5824 6.61615 10.2767C6.68337 7.95447 6.65587 5.61698 6.9217 3.31309C7.08059 1.90143 7.60004 1.84032 8.66948 2.85781C9.09726 3.2642 9.49142 3.71031 9.96503 4.20531L10.4203 3.05031C10.8114 3.31615 10.8175 3.72865 10.787 4.12281C10.6648 5.70864 11.3431 7.14781 11.5845 8.66642C11.5448 10.9947 11.4531 13.32 10.295 15.4314C10.0445 15.8867 9.99253 16.5467 9.26531 16.5833Z" fill="#6E4D42"/>
<path d="M11.3675 8.69389C10.5299 6.93836 10.2007 4.98332 10.4172 3.05029C10.7442 2.10612 11.5264 1.95946 12.3514 2.04196C13.1764 2.12446 13.7967 2.46668 13.8608 3.40473C13.7967 5.33278 13.7753 7.26695 12.6111 8.94444C12.0703 9.70222 11.835 9.65639 11.3675 8.69389Z" fill="#563B34"/>
<path d="M11.3675 8.69391C11.6944 9.1553 12.0519 9.55557 12.6111 8.94446C13.1978 9.4028 12.9381 10.0934 12.9961 10.6556C13.2076 12.4633 13.7307 14.2208 14.5422 15.85C14.8478 16.4856 14.6828 17.1486 14.7806 17.7964C14.4261 19.6053 13.6072 20.3081 11.9389 20.2408C10.4325 20.1706 9.38751 19.0981 9.28056 17.4908C9.25917 17.1853 9.28056 16.8797 9.28056 16.5742C10.4508 14.4139 11.3033 12.1742 11.1139 9.6503C11.0833 9.32641 11.0161 8.94446 11.3675 8.69391Z" fill="#8B7068"/>
<path d="M14.9211 9.28668C15.0366 9.29891 15.1481 9.33544 15.2484 9.39388C15.3487 9.45232 15.4354 9.53134 15.503 9.62573C15.5705 9.72012 15.6173 9.82775 15.6403 9.94152C15.6632 10.0553 15.6618 10.1727 15.6361 10.2858C15.6348 10.3999 15.609 10.5123 15.5606 10.6155C15.5121 10.7187 15.4421 10.8103 15.3552 10.8841C15.2683 10.958 15.1666 11.0123 15.0569 11.0435C14.9473 11.0747 14.8322 11.0821 14.7195 11.065C14.1939 11.0436 13.8028 10.7808 13.9067 10.2186C13.946 9.97168 14.0676 9.74525 14.2517 9.57608C14.4358 9.40691 14.6717 9.30493 14.9211 9.28668Z" fill="#573C34"/>
<path d="M9.43029 9.28668C9.54571 9.29891 9.65724 9.33544 9.75753 9.39388C9.85781 9.45232 9.94458 9.53134 10.0121 9.62573C10.0797 9.72012 10.1265 9.82775 10.1494 9.94152C10.1724 10.0553 10.171 10.1727 10.1453 10.2858C10.1439 10.3999 10.1182 10.5123 10.0697 10.6155C10.0212 10.7187 9.95122 10.8103 9.86434 10.8841C9.77747 10.958 9.67577 11.0123 9.56611 11.0435C9.45644 11.0747 9.34136 11.0821 9.22862 11.065C8.70001 11.0436 8.31196 10.7808 8.41279 10.2186C8.45221 9.9712 8.57423 9.7444 8.75899 9.57518C8.94375 9.40595 9.18036 9.30427 9.43029 9.28668Z" fill="#573C34"/>
</svg>
