<svg width="24" height="24" viewBox="0 0 24 24" fill="none" xmlns="http://www.w3.org/2000/svg">
<path d="M12.3758 16.3266C11.4928 16.6475 11.2819 16.0211 11.1536 15.41C11.1025 15.0107 11.0943 14.6071 11.1292 14.2061C11.1292 12.2811 10.185 11.5905 8.3975 12.2139C7.67333 12.4644 7.70084 13.1122 7.655 13.7141C7.55417 15.025 8.23861 15.8988 9.25305 16.5863C9.52964 18.0861 9.52031 19.6245 9.22555 21.1208C8.33028 20.4761 7.45639 19.7977 6.5275 19.2019C6.22027 19.0324 5.9696 18.7764 5.80664 18.4657C5.64367 18.155 5.57558 17.8032 5.61084 17.4541C5.66584 15.6391 5.62612 13.8241 5.62917 12.0061C5.62917 9.10025 6.95528 7.4747 9.84277 6.81165C10.6525 6.84526 10.6494 7.59081 10.9 8.07359C11.2972 8.82525 11.783 9.52497 12.1528 10.295C12.6844 12.278 12.3942 14.3069 12.3758 16.3266Z" fill="#FFD655"/>
<path d="M12.3758 16.3267C11.6669 15.6056 12.1069 14.7072 12.0092 13.8822C11.8625 12.66 12.275 11.3767 11.7036 10.1759C12.5622 9.51585 12.99 8.56558 13.4789 7.6428C13.6683 7.28225 13.5828 6.60086 14.3161 6.69558C17.7658 7.95447 18.4594 8.94447 18.4594 12.6417C18.4594 13.5583 18.3097 14.4933 18.4869 15.3703C19.098 18.4106 17.3228 19.8681 14.7806 21.1086C14.7806 19.7397 14.7806 18.4533 14.7806 17.17C14.7806 16.675 15.0861 16.4672 15.41 16.2167C15.9457 15.8206 16.3322 15.2554 16.5069 14.6125C16.7117 13.8058 16.8125 12.9106 16.0914 12.3575C15.4222 11.8381 14.5147 12.0061 13.7447 12.2078C12.8281 12.4492 13.1061 13.3292 13.0267 14.0014C12.9167 14.8081 13.3719 15.7675 12.3758 16.3267Z" fill="#FFCB2A"/>
<path d="M14.3191 6.70471C13.9097 7.56027 13.5247 8.42804 13.0969 9.26526C12.8158 9.79998 12.4858 10.3439 11.7189 10.1819C10.8511 9.18582 10.5028 7.90554 9.8611 6.80555C9.69305 6.06916 9.49138 5.34194 9.35999 4.59944C9.07277 2.97389 9.79694 2.09695 11.4408 2.02972C11.6944 2.02972 11.945 2.02972 12.1986 2.02972C14.5666 2.02972 15.193 2.79972 14.7194 5.08527C14.5941 5.62916 14.4444 6.16694 14.3191 6.70471Z" fill="#D4312F"/>
<path d="M9.21335 21.1086L9.25002 16.5833C9.72363 18.0897 9.80612 19.5991 9.21335 21.1086Z" fill="#BBB2A3"/>
</svg>
