<svg width="24" height="24" viewBox="0 0 24 24" fill="none" xmlns="http://www.w3.org/2000/svg">
<path d="M20.5984 4.74613C20.5647 5.40613 20.0361 5.78807 19.7734 6.31974C20.2164 6.65279 20.5831 5.97751 21.24 6.31974C19.422 7.57863 19.5534 9.53113 19.1011 11.3492C18.0745 15.572 15.5842 18.7222 11.172 19.7275C8.48002 20.3386 5.75446 20.1828 3.04724 18.1997C5.01196 18.1997 6.5428 17.8514 8.03085 16.7911C6.76891 16.1158 5.43974 15.5689 5.11891 14.1267C5.01502 13.6622 5.71169 13.9647 5.97752 13.6958C5.07919 12.9564 4.14419 12.2322 3.77141 11.062C3.66141 10.732 3.37724 10.2125 3.75002 10.1056C5.18919 9.69001 4.1778 8.95974 3.93335 8.51363C3.26419 7.2914 3.3528 6.21279 4.22057 5.01807C5.95919 6.83613 7.84752 8.30585 10.3592 8.79779C11.2911 8.97807 11.7586 9.17057 11.7892 7.83529C11.8472 5.26557 14.6614 3.58807 17.112 4.49251C18.9086 5.15557 18.9086 5.15557 20.5984 4.74613Z" fill="#59C2EF"/>
</svg>
