<svg width="24" height="24" viewBox="0 0 24 24" fill="none" xmlns="http://www.w3.org/2000/svg">
<path d="M23 11.0833V14.75C22.2391 17.1944 21.3133 17.943 18.7069 18.2058C17.5612 17.9893 16.3951 17.8992 15.2297 17.9369C13.7936 17.9369 13.3964 17.5489 13.2619 16.2075C13.1 14.5575 13.6072 13.6225 14.8294 13.323C15.3275 13.243 15.8314 13.2052 16.3358 13.21C15.1564 11.6394 14.0258 10.133 12.8891 8.62664C12.4216 8.01553 11.9725 7.85053 11.4286 8.49831C10.2522 9.8947 9.24998 11.3889 8.1347 12.9961C9.02998 13.3658 10.0566 13.1825 10.4966 14.093C10.8664 14.8539 10.8175 15.6728 10.7166 16.4825C10.6005 17.3991 10.1208 17.9858 9.11248 17.9308C8.24837 17.9221 7.38673 18.0248 6.54887 18.2364C3.50859 18.0866 1.71804 16.5619 1.01526 13.5278V10.4722C1.30554 8.19581 2.74776 6.92776 4.74915 6.13026C5.30617 5.87888 5.79997 5.50619 6.19443 5.03942C10.2583 0.694422 16.1708 1.46442 18.9636 6.68331C19.3119 7.33414 19.6908 7.87192 20.4119 8.14387C21.0628 8.36446 21.6444 8.75204 22.0986 9.26787C22.5528 9.7837 22.8636 10.4097 23 11.0833Z" fill="#8DAEDC"/>
<path d="M18.7222 17.7353L14.1389 17.8055C13.7172 18.8811 14.2336 20.0392 13.8333 21.1208C13.4269 21.1208 13.0206 21.1544 12.6111 21.1575C10.3347 21.1789 10.3072 21.1789 10.1667 18.8811C10.1178 18.1172 9.86111 17.778 9.07889 17.7964C8.21723 17.8147 7.35861 17.7689 6.49695 17.7505C7.30361 17.2708 8.18973 17.5092 9.03306 17.5092C10.5028 17.5 10.1667 16.458 10.1667 15.6667C10.1667 14.8753 10.5333 13.8333 9.07584 13.8333C8.38834 13.8119 7.41667 14.2122 7.11111 13.5278C6.80556 12.8433 7.78639 12.4003 8.17139 11.838C9.20111 10.3347 10.3806 8.93832 11.4531 7.46248C11.9175 6.82693 12.3178 6.82998 12.7578 7.41054C14.2856 9.42415 15.7889 11.45 17.2953 13.4636C16.8858 14.0258 16.3786 13.8028 15.9753 13.815C14.0014 13.8608 13.265 14.9455 13.8853 16.8705C14.1053 17.5489 14.6278 17.4358 15.1075 17.4817C16.3022 17.5947 17.5336 17.2311 18.7222 17.7353Z" fill="#B8CEEB"/>
<path d="M13.8486 21.1117C13.9617 20.0086 13.5431 18.8567 14.1542 17.7964C13.9769 18.8964 14.4689 20.0514 13.8486 21.1117Z" fill="#B5B6C1"/>
</svg>
