<svg width="24" height="24" viewBox="0 0 24 24" fill="none" xmlns="http://www.w3.org/2000/svg">
<path d="M20.25 10.1667C20.7083 14.6186 18.8841 18.3677 14.8355 21.0811C13.0297 22.3033 11.3125 22.343 9.46081 21.1361C5.90721 18.8291 3.96999 15.6666 3.88138 11.3889C3.85999 10.4233 4.01277 9.43333 3.84777 8.49527C3.44444 6.19445 4.62388 5.3175 6.57637 4.28778C10.2186 2.36279 13.4177 1.96251 17.1944 4.08306C19.4188 5.32973 20.8183 6.34722 20.25 8.99944C20.2184 9.38787 20.2184 9.77822 20.25 10.1667Z" fill="#0C77BE"/>
<path d="M18.4166 10.4325C18.7222 14.6369 16.8889 17.7963 13.0786 19.8741C12.7558 20.0687 12.386 20.1715 12.0091 20.1715C11.6322 20.1715 11.2625 20.0687 10.9397 19.8741C7.52054 18.0622 5.85527 15.1013 5.63832 11.3888C5.37555 6.87275 5.56499 7.02552 9.5922 5.01803C11.5416 4.05553 13.1 4.18998 14.8111 5.17997C14.9852 5.28386 15.1747 5.35719 15.358 5.44581C18.4166 6.92469 18.4166 6.92469 18.4166 10.4325Z" fill="#4FA0D1"/>
<path d="M12.9167 6.89722C12.9167 7.50833 12.9594 8.11944 12.9167 8.73055C12.7883 10.2247 12.7975 11.5325 14.9394 11.1353C15.4619 11.0405 15.7308 11.3247 15.3305 11.8503C15.2694 11.9328 15.1869 12 15.1319 12.0825C13.8962 13.9916 12.5516 15.828 11.1047 17.5825V15.4008C11.1047 13.0572 11.1047 13.0572 8.66028 12.7883C10.0414 10.7105 11.3553 8.7275 12.6692 6.74445L12.9167 6.89722Z" fill="#0978BE"/>
</svg>
