<svg width="24" height="24" viewBox="0 0 24 24" fill="none" xmlns="http://www.w3.org/2000/svg">
<path d="M14.9089 14.7194C16.2197 16.4396 16.1006 17.9063 14.3222 18.8444C13.3322 19.3699 13.0206 19.9566 13.1581 20.9557C13.2711 21.793 12.935 22.1107 12.0611 22.1077C11.1873 22.1046 11.0345 21.6677 11.1139 20.971C11.2209 19.9932 11.0161 19.3699 9.94364 18.8871C8.04004 18.0255 7.89337 16.4977 9.3142 14.7163C10.68 13.6866 10.7381 12.2352 10.6739 10.7074C10.6434 9.99243 10.4723 9.17966 11.1475 8.61438C11.6181 10.026 11.2423 11.4805 11.3675 12.9105C11.4011 13.2802 11.2423 13.766 11.8442 13.8271C12.3575 13.8852 12.8709 13.9249 12.9717 13.216C13.6745 13.3933 14.087 14.0044 14.6736 14.3619C14.75 14.4841 14.8356 14.6002 14.9089 14.7194Z" fill="#F48986"/>
<path d="M14.9089 14.7194C14.8206 14.7102 14.7336 14.6918 14.6492 14.6644C14.0625 12.7883 14.3222 10.8755 14.4628 8.98106C14.5178 8.24773 15.0067 7.7069 15.6606 7.33107C16.0394 7.11718 16.5497 7.07746 16.7483 6.55496C16.4947 5.91329 15.685 6.3869 15.3642 5.8919C15.8164 5.33885 15.2114 5.10357 15.0189 4.74913C14.4445 3.68274 14.86 2.59191 16.015 2.22219C18.0042 1.56524 20.0422 2.95857 20.2256 5.13107C20.2775 5.78496 20.2256 6.44801 20.2256 7.10801C20.2256 10.5272 18.2822 11.8961 14.8936 10.6005L14.9089 14.7194Z" fill="#F48986"/>
<path d="M9.22251 10.1666C8.42501 11.0497 7.52973 11.5722 6.28918 11.0833C5.04862 10.5944 4.15029 9.72356 4.05252 8.30578C3.96695 7.14523 3.96695 5.97995 4.05252 4.8194C4.13422 4.02866 4.51383 3.29867 5.11427 2.77769C5.7147 2.25671 6.49093 1.9838 7.28529 2.01441C8.20195 2.08163 8.93834 2.42385 9.34167 3.32524C9.70528 4.13496 9.30501 4.69412 8.77028 5.19218C8.7201 5.22681 8.67772 5.27156 8.64587 5.32355C8.61402 5.37554 8.5934 5.43362 8.58534 5.49406C8.57729 5.55449 8.58197 5.61595 8.59908 5.67447C8.6162 5.73299 8.64537 5.78728 8.68473 5.83384C8.36084 6.40829 7.27307 5.75134 7.25779 6.58857C7.25779 7.23329 8.10112 7.16912 8.54112 7.46245C9.63806 8.18967 9.93139 9.29273 9.22251 10.1666Z" fill="#F48886"/>
<path d="M9.2225 10.1666C9.52805 8.80077 9.13694 7.81688 7.69472 7.46855C7.08361 7.32188 6.36556 7.24855 6.64973 6.38994C6.89417 5.64133 7.50528 5.47327 8.24472 5.82161C8.36389 5.87966 8.55028 5.82161 8.69083 5.82161C10.0444 6.27383 10.9336 7.1416 11.1536 8.60216C11.1292 9.69604 10.9917 10.8022 11.1078 11.8808C11.2667 13.3658 10.8664 14.3619 9.32028 14.7041L9.2225 10.1666Z" fill="#EC5954"/>
<path d="M15.3611 5.88884C15.6132 5.89868 15.8653 5.87192 16.1097 5.8094C16.7208 5.56495 17.2403 5.54968 17.4328 6.28606C17.6039 6.95217 17.2831 7.33717 16.5864 7.43495C15.132 7.64273 14.7225 8.62662 14.7225 9.94356C14.7225 11.5172 14.6767 13.0877 14.6461 14.6613C14.035 14.2244 13.1764 14.1113 12.9686 13.2252C12.9686 12.0213 12.9686 10.8144 12.9411 9.61356C12.8892 7.80162 13.6164 6.52134 15.3611 5.88884Z" fill="#EE5753"/>
</svg>
