<svg width="24" height="24" viewBox="0 0 24 24" fill="none" xmlns="http://www.w3.org/2000/svg">
<path d="M11.0834 18.7222V16.8889C11.0834 14.3772 11.0834 14.4047 8.60226 14.0778C7.38004 13.9159 6.51532 13.2895 6.51226 11.9084C6.51226 10.9489 6.51226 10.075 5.84004 9.20113C5.27782 8.46475 5.58337 7.51752 6.37782 6.93086C7.17226 6.34419 7.97282 6.30141 8.72143 7.02252C9.39365 7.67336 9.77254 8.38836 9.20115 9.31419C8.99032 9.6503 8.59004 9.8978 8.62059 10.35C8.65115 10.8817 8.31504 11.6181 8.89254 11.8778C9.39671 12.107 10.1148 12.055 10.677 11.9389C11.3889 11.8014 11.0834 11.1139 11.0834 10.6647C11.1323 9.70224 11.0284 8.73058 11.1139 7.77419C11.2331 6.49697 11.0834 5.54058 9.14615 5.85836C10.0628 4.6178 10.7992 3.62475 11.5295 2.62558C11.9756 2.01447 12.327 2.17641 12.6937 2.72336C13.0603 3.2703 13.5523 3.75002 13.8578 4.32447C14.1634 4.89891 15.7431 5.76975 13.5523 5.91947C13.0787 5.95308 13.155 6.44197 13.155 6.78113C13.155 8.81308 13.155 10.842 13.1398 12.8739C13.1398 13.5889 13.3903 13.9006 14.1145 13.8456C14.6186 13.8089 15.1289 13.8272 15.6423 13.8211C15.2573 15.0159 14.2612 14.5239 13.5217 14.5086C11.8717 14.472 11.9267 14.4322 11.8045 16.0945C11.7403 16.9897 12.3056 18.1111 11.0834 18.7222Z" fill="#5B9FD6"/>
<path d="M11.0834 18.7223C11.6945 17.5306 11.3217 16.2534 11.3492 15.025C11.3736 13.9403 11.7984 13.6959 12.7486 13.9342C13.6989 14.1725 14.695 14.4231 15.6361 13.8212C15.6361 13.152 15.9417 12.4339 14.9853 12.0398C14.6034 11.8809 14.6309 8.8131 14.9181 8.5381C15.1228 8.3456 17.9736 8.30588 18.2028 8.49533C18.5634 8.77338 18.6398 11.6884 18.16 12.1192C17.7475 12.492 17.7231 12.8587 17.6956 13.3109C17.5734 15.2114 16.9439 15.8225 15.0678 15.8867C13.1398 15.9509 12.3423 17.3381 13.4239 18.9881C14.1389 20.0728 14.2459 21.0109 13.2223 21.7778C12.3942 22.3889 11.3675 22.3889 10.6464 21.4998C9.8092 20.4578 10.1361 19.5167 11.0834 18.7223Z" fill="#4184C5"/>
</svg>
