<svg width="24" height="24" viewBox="0 0 24 24" fill="none" xmlns="http://www.w3.org/2000/svg">
<path d="M5.33276 11.01C5.94387 11.0344 6.55498 11.0742 7.16609 11.0772C8.08276 11.0772 9.16442 11.3614 9.85803 10.9642C10.6891 10.4905 10.0811 9.29888 10.2064 8.43111C10.3866 7.18444 11.0589 6.53056 12.3452 6.52444C13.2436 6.52444 14.0808 6.56722 14.9027 5.895C15.633 5.28389 16.5772 5.565 17.2036 6.32889C17.83 7.09278 17.9063 7.89027 17.2188 8.6725C16.5833 9.39666 15.8347 9.68694 14.9241 9.17666C14.7072 9.05444 14.533 8.84361 14.313 8.73972C13.7019 8.45555 12.9258 8.32416 12.443 8.73972C11.9602 9.15527 12.1711 10.0017 12.275 10.625C12.4125 11.453 13.1702 11.0711 13.6561 11.0986C14.6675 11.1567 15.688 11.0528 16.6963 11.1322C17.9186 11.2269 18.7925 11.065 18.4319 9.23777C19.6908 10.1544 20.693 10.9122 21.7044 11.6425C22.2086 12.0061 22.0527 12.2536 21.6341 12.5592C20.6563 13.265 19.7 13.9953 18.4288 14.9455C18.8566 12.9808 17.7688 13.0755 16.6566 13.1122C15.0861 13.1519 13.5094 13.1611 11.9389 13.1122C10.9519 13.0786 10.3866 13.158 10.3683 14.4475C10.3439 15.8714 11.1291 15.7003 11.9969 15.6697C11.1902 16.5864 10.2736 16.51 9.8947 15.4772C9.68386 14.8966 9.74497 14.2764 9.72664 13.6683C9.6747 11.9908 9.5922 11.9114 7.86276 11.8747C7.25453 11.9149 6.64366 11.8779 6.04471 11.7647C5.67498 11.6486 5.14026 11.6455 5.33276 11.01Z" fill="#6CB46E"/>
<path d="M5.33278 11.01C6.42666 11.7953 7.66722 11.3339 8.82832 11.3522C9.89471 11.3522 10.3072 11.6914 10.1789 12.7547C10.1244 13.3642 10.1101 13.9767 10.1361 14.588C10.1544 16.0853 10.4233 16.238 11.9694 15.6636C12.0489 15.2358 11.9878 14.7011 12.6966 14.7866C12.9472 14.8172 13.2069 14.7683 13.4575 14.7866C14.2 14.863 15.3366 14.4139 15.5964 15.0128C15.9722 15.8714 15.7705 16.9928 15.7889 18.0011C15.7889 18.4166 15.4497 18.5144 15.1533 18.4472C14.0319 18.1875 12.6753 19.1316 11.7464 17.72C11.5966 17.4939 10.8878 17.6222 10.4355 17.61C9.06971 17.5703 8.39749 16.8614 8.3761 15.5108C8.39144 15.3594 8.39144 15.2069 8.3761 15.0555C8.22027 14.4078 8.81916 13.3689 8.00638 13.1611C7.10805 12.9319 6.005 12.7119 5.10361 13.4667C4.15639 14.2397 3.19389 14.2061 2.43306 13.2619C1.79445 12.4644 1.80056 11.508 2.57362 10.7869C3.52084 9.88861 4.4925 10.0078 5.33278 11.01Z" fill="#46A148"/>
</svg>
