<svg width="24" height="24" viewBox="0 0 24 24" fill="none" xmlns="http://www.w3.org/2000/svg">
<path d="M20.1919 12.0182V16.5832L17.057 14.3221C16.9378 14.4596 16.8278 14.5299 16.8247 14.6002C16.7789 17.9123 17.002 17.4662 13.815 17.4846C10.9245 17.4999 8.03399 17.451 5.14651 17.506C4.08319 17.5274 3.68597 17.1668 3.74402 16.1065C3.82347 14.7499 3.79291 13.381 3.81125 11.9999C3.95612 11.8686 4.12391 11.765 4.30624 11.6943C6.56122 11.346 8.82842 11.5752 11.0926 11.5355C13.4606 11.4957 15.8286 11.5171 18.1967 11.5355C18.8964 11.5293 19.6389 11.4621 20.1919 12.0182Z" fill="#556F7A"/>
<path d="M20.1919 12.0182L4.08015 11.9999C3.6646 10.4018 4.1382 8.75491 3.82654 7.15076C4.18098 6.49076 4.81347 6.74743 5.32375 6.74437C8.42511 6.71687 11.5265 6.72909 14.6278 6.72909C16.8217 6.72909 16.8186 6.7291 16.8492 8.90463C16.8492 9.15518 16.8736 9.40879 16.8889 9.76018C18.1386 9.29268 18.9483 8.26603 20.1919 7.62131V12.0182Z" fill="#7F929B"/>
<path d="M3.82656 7.14465C4.37655 8.73658 3.90906 10.3835 4.08017 11.9938L3.81128 11.9999C3.81535 10.3866 3.82045 8.76816 3.82656 7.14465Z" fill="#747B80"/>
</svg>
