<svg width="24" height="24" viewBox="0 0 24 24" fill="none" xmlns="http://www.w3.org/2000/svg">
<path d="M11.2698 7.22415C11.2698 11.2789 11.2698 11.2789 7.27005 11.2789C6.15172 11.2789 5.03339 11.2453 3.90894 11.2789C3.09922 11.3125 2.85783 10.9733 2.87311 10.2003C2.91385 8.11637 2.91385 6.03146 2.87311 3.94554C2.87311 3.18165 3.0595 2.85165 3.89367 2.86998C5.9745 2.91887 8.05839 2.92498 10.1423 2.86998C11.0192 2.84859 11.3126 3.16026 11.2728 4.01276C11.2301 5.08526 11.2698 6.15776 11.2698 7.22415Z" fill="#863D97"/>
<path d="M21.2064 7.37082C21.0353 8.47693 21.8328 10.2675 20.8611 11.0375C20.0392 11.6914 18.3372 11.288 17.0234 11.2605C15.7095 11.233 14.032 11.835 13.21 10.9855C12.3881 10.1361 12.9686 8.47388 12.9656 7.16915C12.9656 5.80638 12.3881 4.0586 13.1947 3.19693C14.0014 2.33526 15.7859 2.9311 17.1364 2.92193C18.4411 2.92193 20.1339 2.34138 20.9467 3.16943C21.7595 3.99749 21.127 5.6811 21.2064 6.98888C21.2095 7.03471 21.2064 7.08665 21.2064 7.37082Z" fill="#863C97"/>
<path d="M7.16309 21.2644C5.73003 21.0811 3.99448 21.8175 3.13892 20.9252C2.34142 20.1094 2.91281 18.4166 2.91281 17.0966C2.91281 15.7766 2.34753 14.0808 3.13892 13.268C3.99448 12.3727 5.73309 12.9839 7.08059 12.9839C8.42809 12.9839 10.1361 12.3727 11.0223 13.265C11.832 14.0869 11.2606 15.7858 11.2636 17.0966C11.2667 18.4075 11.832 20.1033 11.0375 20.9283C10.1667 21.8358 8.42198 21.0383 7.16309 21.2644Z" fill="#863C97"/>
<path d="M12.9503 16.8156C13.0787 15.7461 12.3759 14.0656 13.207 13.2314C14.0381 12.3972 15.7156 13.0297 17.0173 12.9686C17.8789 12.9258 18.7528 13.0389 19.6023 12.9411C20.8245 12.8006 21.3134 13.1611 21.2339 14.4842C21.1209 16.4061 21.182 18.3433 21.2339 20.2714C21.2339 20.9894 21.0201 21.2522 20.2837 21.2369C18.1448 21.1972 16.0059 21.2003 13.8884 21.2369C13.1428 21.2369 12.9228 20.9558 12.9534 20.25C12.9809 19.1836 12.9503 18.1111 12.9503 16.8156Z" fill="#863C97"/>
</svg>
