<svg width="24" height="24" viewBox="0 0 24 24" fill="none" xmlns="http://www.w3.org/2000/svg">
<path d="M14.8997 8.54421C13.0664 8.54421 11.233 8.51976 9.42413 8.54421C8.65413 8.55948 8.3608 8.30893 8.34858 7.4992C8.3333 6.63448 8.72136 6.50921 9.44858 6.51226C13.048 6.53874 16.6475 6.53874 20.2469 6.51226C20.9558 6.51226 21.2369 6.70782 21.2308 7.45337C21.2247 8.19893 21.0719 8.57476 20.2225 8.55032C18.4502 8.50754 16.675 8.54421 14.8997 8.54421Z" fill="#884496"/>
<path d="M14.75 14.0381C12.9778 14.0381 11.2025 14.0136 9.42721 14.0381C8.65415 14.0381 8.36999 13.7936 8.35471 12.99C8.33332 12.1314 8.72749 12 9.45165 12.0184C13.0511 12.0428 16.6505 12.0428 20.25 12.0184C20.9619 12.0184 21.2339 12.2231 21.2308 12.9656C21.2278 13.7081 21.0658 14.0809 20.2194 14.0564C18.3953 14.0045 16.5833 14.0381 14.75 14.0381Z" fill="#884496"/>
<path d="M14.7714 17.5306C16.6048 17.5306 18.4381 17.5581 20.2531 17.5306C20.9773 17.5122 21.2125 17.7567 21.2278 18.4839C21.2278 19.2722 20.8948 19.4006 20.2256 19.4006C16.6231 19.3761 13.0206 19.3822 9.41809 19.4006C8.80698 19.4006 8.35476 19.4006 8.3517 18.5481C8.34865 17.6956 8.70309 17.5336 9.44559 17.5489C11.2209 17.555 12.9961 17.5306 14.7714 17.5306Z" fill="#863E95"/>
<path d="M4.54442 4.74307C6.72914 4.74307 6.72914 4.74307 6.72914 6.72613C6.72914 8.57779 6.71081 8.42196 4.64525 8.61752C2.67748 8.80391 2.95248 7.67335 2.84248 6.42057C2.70192 4.77974 3.46581 4.51696 4.54442 4.74307Z" fill="#9B5DA3"/>
<path d="M4.57498 10.2034C6.72914 10.2034 6.60081 10.2034 6.76581 12.2475C6.90636 13.9556 6.1547 14.1695 4.73998 14.0809C2.88525 13.98 3.01359 14.0442 2.84248 11.8289C2.70803 10.0873 3.61859 10.0659 4.57498 10.2034Z" fill="#9B5CA3"/>
<path d="M4.57502 15.7003C6.71391 15.7003 6.58252 15.7003 6.7628 17.7414C6.94002 19.7122 5.70252 19.2294 4.60252 19.3975C2.72947 19.6878 2.97086 18.5511 2.84558 17.3442C2.6653 15.6056 3.6003 15.5506 4.57502 15.7003Z" fill="#9A5AA3"/>
</svg>
