<svg width="24" height="24" viewBox="0 0 24 24" fill="none" xmlns="http://www.w3.org/2000/svg">
<path d="M5.22279 8.53192C2.89141 8.53192 2.87307 8.53192 2.89446 5.76054C2.9128 3.5636 2.49113 3.87832 5.64446 3.87526C8.02168 3.87526 7.58779 3.61249 7.60307 6.55804C7.60918 8.88637 7.81084 8.49831 5.22279 8.53192Z" fill="#884198"/>
<path d="M14.0198 6.14552C13.977 8.92913 14.3956 8.49829 11.4226 8.52579C9.28369 8.54718 9.25619 8.52579 9.28369 5.71774C9.30508 3.59413 8.83758 3.88441 12.0795 3.88441C14.3987 3.86302 13.9831 3.74997 14.0198 6.14552Z" fill="#874097"/>
<path d="M7.59996 12.5408C7.55413 15.2908 7.98496 14.8294 4.95996 14.863C2.89136 14.8844 2.89136 14.863 2.89136 11.9786C2.89136 10.1972 2.89136 10.1881 5.74219 10.2033C7.83218 10.2186 7.57857 9.87944 7.59996 12.5408Z" fill="#873F98"/>
<path d="M9.27747 12.3758C9.27747 10.2002 9.27747 10.1789 11.8991 10.2064C14.368 10.2308 14.0044 9.78164 14.0075 12.9044C14.0075 15.248 14.313 14.8355 11.2941 14.863C9.27747 14.8813 9.27747 14.8661 9.27747 12.3758Z" fill="#873F97"/>
<path d="M5.30533 21.2094C2.8945 21.2094 2.86089 21.2094 2.89755 18.5266C2.91894 16.2594 2.51256 16.6413 5.47338 16.6169C7.61227 16.5986 7.61227 16.6169 7.61227 19.4586C7.58171 21.5027 7.86893 21.1666 5.30533 21.2094Z" fill="#873F98"/>
<path d="M11.5784 21.2063C9.27755 21.2063 9.27755 21.2063 9.28061 18.4563C9.28061 16.623 9.28061 16.6047 12.0673 16.623C14.3834 16.6444 13.9984 16.2441 14.0075 19.4708C14.0137 21.5058 14.3223 21.1666 11.5784 21.2063Z" fill="#863E96"/>
<path d="M20.25 6.19445C20.25 8.52889 20.25 8.52889 17.6498 8.52584C15.6942 8.52584 15.6789 8.52584 15.7034 5.6689C15.7217 3.57279 15.3061 3.89668 18.5572 3.87223C20.25 3.86001 20.25 3.87223 20.25 6.19445Z" fill="#873F97"/>
<path d="M15.6911 12.33C15.7309 9.88552 15.3672 10.2369 17.7597 10.1911C18.267 10.1911 18.7772 10.2247 19.2875 10.1911C19.9995 10.13 20.3356 10.3805 20.2531 11.1261C20.2393 11.3795 20.2393 11.6335 20.2531 11.8869C20.2531 14.8844 20.2531 14.8355 17.222 14.8875C16.0731 14.9058 15.4895 14.643 15.6942 13.3902C15.7205 13.0373 15.7195 12.6828 15.6911 12.33Z" fill="#873E97"/>
<path d="M17.9828 16.6139C20.2439 16.6139 20.2439 16.6139 20.2439 19.2661C20.2439 21.2064 20.2439 21.2064 17.7444 21.2064C15.6911 21.2064 15.6789 21.2064 15.6972 18.3402C15.7094 16.3052 15.4375 16.6475 17.9828 16.6139Z" fill="#863D97"/>
</svg>
