<svg width="24" height="24" viewBox="0 0 24 24" fill="none" xmlns="http://www.w3.org/2000/svg">
<path d="M5.17084 10.2033C7.61528 10.2033 7.63667 10.2033 7.61528 12.883C7.61528 15.3275 7.81389 14.9425 5.00278 14.9669C2.86389 14.9669 2.86389 14.9669 2.86389 11.9603C2.90056 9.9161 2.65 10.2339 5.17084 10.2033Z" fill="#9A5AA3"/>
<path d="M5.29302 3.87225C8.04302 3.8967 7.61829 3.62781 7.6244 6.3717C7.6244 8.99336 7.89329 8.55336 4.83468 8.55948C2.47274 8.55948 2.92496 8.82225 2.88829 5.6842C2.86996 3.87225 2.88829 3.87225 5.29302 3.87225Z" fill="#9B5BA3"/>
<path d="M5.21053 21.2156C2.88831 21.2156 2.88831 21.2156 2.88831 18.5848C2.88831 16.6231 2.88831 16.6048 5.43358 16.6261C7.97886 16.6475 7.60914 16.2473 7.62136 19.4281C7.63053 21.5364 7.85358 21.182 5.21053 21.2156Z" fill="#9A59A3"/>
<path d="M11.6608 8.54421C11.1047 8.54421 10.5517 8.54421 9.99557 8.54421C9.25001 8.55338 9.26835 8.02782 9.25001 7.50838C9.23168 6.98893 9.25001 6.49393 10.0108 6.52143C10.9672 6.5581 11.9297 6.55199 12.8861 6.52143C13.5767 6.49699 14.032 6.58866 14.0442 7.4656C14.0564 8.34254 13.6806 8.63893 12.8708 8.55949C12.4706 8.52588 12.0642 8.55949 11.6486 8.55949L11.6608 8.54421Z" fill="#894996"/>
<path d="M11.7128 12.9472C12.1161 12.9472 12.5195 12.9717 12.9197 12.9472C13.6256 12.8953 14.0595 13.0481 14.0533 13.9067C14.0533 14.6919 13.7692 14.9975 12.99 14.9608C12.0733 14.9211 11.1811 14.9211 10.2797 14.9608C9.49751 14.9944 9.25612 14.6797 9.24084 13.9006C9.24084 13.0114 9.66557 12.9044 10.3592 12.9503C10.8083 12.9686 11.2636 12.9472 11.7128 12.9472Z" fill="#8A4A98"/>
<path d="M17.9339 6.53058C18.3892 6.53058 18.8506 6.56419 19.2967 6.53058C19.9995 6.46641 20.2867 6.71697 20.2684 7.44725C20.25 8.14086 20.2011 8.6328 19.3059 8.55947C18.5572 8.49836 17.7964 8.54419 17.0386 8.55947C16.2809 8.57475 15.6606 8.66947 15.6484 7.53891C15.6361 6.40836 16.3267 6.53058 17.0264 6.53975L17.9339 6.53058Z" fill="#884896"/>
<path d="M17.8881 14.9303C17.3778 14.9303 16.8706 14.9303 16.3603 14.9303C15.575 14.9303 15.6942 14.3436 15.6759 13.8425C15.6575 13.3414 15.737 12.9258 16.3909 12.9503C17.2556 12.9686 18.1203 12.9503 18.982 12.9503C19.6389 12.9503 20.2623 12.7975 20.2836 13.867C20.305 14.9364 19.7153 14.9761 18.9514 14.9364C18.597 14.9181 18.2395 14.9364 17.885 14.9364L17.8881 14.9303Z" fill="#894898"/>
<path d="M11.6639 21.2278C11.1597 21.2278 10.6525 21.2033 10.1361 21.2278C9.50665 21.2644 9.21942 21.0475 9.24387 20.3661C9.26831 19.6847 9.3722 19.3119 10.1605 19.3547C11.0772 19.4036 11.9786 19.3914 12.8861 19.3547C13.5889 19.3272 14.0197 19.4433 14.038 20.3142C14.0564 21.2522 13.5155 21.2461 12.8678 21.2308C12.4736 21.2186 12.0672 21.2308 11.6639 21.2278Z" fill="#884397"/>
<path d="M18.0225 21.2278C17.5183 21.2278 17.0141 21.1973 16.4947 21.2278C15.8041 21.2767 15.6514 20.9223 15.6605 20.3112C15.6697 19.7 15.7644 19.3334 16.4794 19.3639C17.283 19.3975 18.0928 19.3639 18.8994 19.3639C19.6114 19.3639 20.2836 19.2203 20.2622 20.3723C20.2408 21.5242 19.4983 21.1698 18.9147 21.2187C18.6305 21.2492 18.325 21.2278 18.0225 21.2278Z" fill="#884199"/>
</svg>
