<svg width="24" height="24" viewBox="0 0 24 24" fill="none" xmlns="http://www.w3.org/2000/svg">
<path d="M12.3422 3.11749C14.75 4.42527 17.1486 5.74527 19.5656 7.0286C19.7938 7.13008 19.9834 7.30208 20.1066 7.51933C20.2298 7.73657 20.28 7.98761 20.25 8.23554C20.2225 10.8236 20.25 13.43 20.25 16.0058C20.25 16.348 20.3264 16.7269 19.9139 16.9225C17.2495 18.2944 14.805 20.0452 12 21.1116C11.4958 20.58 11.5111 19.9077 11.5081 19.2508C11.5081 14.4933 11.4806 9.73276 11.5081 4.97221C11.5264 4.2786 11.3217 3.40166 12.3422 3.11749Z" fill="#C52A29"/>
<path d="M12.3422 3.11747C11.8106 3.54525 12 4.14414 12 4.66664C12 10.1666 12 15.633 12 21.1116C9.39058 19.9902 7.03781 18.383 4.50782 17.1119C3.94559 16.8308 3.91504 16.3602 3.91504 15.8347C3.91504 13.3454 3.91504 10.8562 3.91504 8.36691C3.91504 7.77719 3.99754 7.32496 4.6117 6.99802C6.98281 5.73302 9.32947 4.41303 11.6945 3.10831C11.9145 2.97997 12.1284 2.85164 12.3422 3.11747Z" fill="#CD3F3E"/>
</svg>
