<svg width="24" height="24" viewBox="0 0 24 24" fill="none" xmlns="http://www.w3.org/2000/svg">
<path d="M2.89746 21.4203C2.89746 15.6147 2.89746 10.3256 2.89746 5.04251C2.89746 3.51474 3.50857 2.90363 5.03635 2.90363C9.76023 2.87918 14.4872 2.90363 19.211 2.90363C20.5158 2.90363 21.1971 3.49029 21.1941 4.83168C21.1941 8.43723 21.1941 12.0458 21.1941 15.6544C21.1941 17.1028 20.4394 17.6314 19.0949 17.6253C15.6391 17.6253 12.1802 17.6864 8.72745 17.5917C7.24551 17.5519 6.08134 17.8789 5.14635 19.0736C4.57496 19.8039 3.85385 20.4333 2.89746 21.4203Z" fill="#F37147"/>
<path d="M17.4266 13.7814L14.1785 11.4714C14.0471 11.6028 13.928 11.6669 13.9218 11.7372C13.7385 13.8761 13.7385 13.8761 11.6118 13.8761C10.2949 13.8761 8.97491 13.8578 7.65797 13.8761C6.94297 13.8761 6.50603 13.7417 6.52436 12.8861C6.56408 11.0528 6.5488 9.23472 6.52436 7.41056C6.52436 6.74445 6.82991 6.5275 7.44102 6.53362C9.27435 6.53362 11.0894 6.56112 12.9135 6.53362C13.6682 6.51834 13.8943 6.87278 13.8546 7.55111C13.8302 8.00334 13.8546 8.46778 13.8546 9.04528C15.2541 8.66028 16.0577 7.42584 17.4174 6.90639L17.4266 13.7814Z" fill="#F8A88F"/>
</svg>
