<svg width="24" height="24" viewBox="0 0 24 24" fill="none" xmlns="http://www.w3.org/2000/svg">
<path d="M7.39837 11.3644C8.84059 13.7416 10.6648 15.7155 13.2222 16.9072C15.5139 17.5397 17.9064 17.723 20.1858 18.4349C20.5556 19.9627 19.8803 20.2958 18.432 20.2683C11.3431 20.1888 4.53532 13.928 4.03726 6.85442C3.97004 5.91025 3.34365 4.85609 4.34282 4.00664C6.52143 3.8172 6.64976 3.88137 6.63754 5.99275C6.6192 7.83219 7.29754 9.55552 7.39837 11.3644Z" fill="#3099D5"/>
<path d="M20.25 11.0222C20.1522 11.4499 20.5372 12.1527 19.6053 12.2444C18.7895 12.3147 18.5083 11.9999 18.3433 11.1749C17.7353 8.11939 15.9722 6.19439 12.7578 5.87051C11.8931 5.78495 12.0306 5.22273 12 4.66662C11.9695 4.11051 12.162 3.8569 12.7731 3.83856C16.235 3.74995 20.2072 7.52967 20.25 11.0222Z" fill="#369AD4"/>
<path d="M20.195 18.4166C17.7781 18.3494 15.3673 18.2547 13.2314 16.8889C13.7417 16.3297 14.2551 15.7766 14.7592 15.2144C14.9576 14.9486 15.2411 14.7587 15.5624 14.6764C15.8838 14.5941 16.2236 14.6244 16.5253 14.7622C16.8083 14.8742 17.1022 14.9561 17.4023 15.0066C20.3325 15.4986 20.3325 15.4955 20.195 18.4166Z" fill="#6DC3ED"/>
<path d="M7.39833 11.3644C6.5035 9.72023 6.09944 7.85372 6.23417 5.98665C6.35028 4.45888 5.83083 3.84777 4.33667 4.00666C5.55889 3.53305 6.82389 3.87221 8.06444 3.89055C8.32111 3.89055 8.74888 4.13499 8.79166 4.3336C9.02083 5.36332 9.00249 6.47249 9.34777 7.4411C9.83055 8.80387 8.87722 9.36915 8.18972 10.133C7.85972 10.4997 7.38916 10.7778 7.39833 11.3644Z" fill="#6CC3ED"/>
<path d="M15.7859 12.2322C15.2481 12.2811 14.8326 12.2322 14.6951 11.5294C14.6241 11.0476 14.4061 10.5994 14.0709 10.2461C13.7356 9.89279 13.2995 9.65162 12.822 9.5555C11.7709 9.32634 11.8748 8.53801 12.0581 7.91162C12.3148 7.03468 13.042 7.49301 13.5523 7.67329C15.1962 8.26301 16.1709 9.45467 16.6415 11.1352C16.889 11.9999 16.6017 12.278 15.7859 12.2322Z" fill="#3E9BD3"/>
</svg>
