<svg width="24" height="24" viewBox="0 0 24 24" fill="none" xmlns="http://www.w3.org/2000/svg">
<path d="M4.7156 12.0183C4.61783 11.3491 4.92032 11.1322 5.5681 11.1016C7.63976 11.0039 9.50365 10.5578 10.9856 8.83137C11.8289 7.85054 12.9686 8.34249 13.7081 9.33554C14.7195 10.6922 15.5781 12.2078 15.8011 13.8547C16.1311 16.2991 17.3289 18.0714 19.1103 19.5991C19.59 20.0025 20.36 20.3752 19.4984 21.2705C18.6367 22.1658 18.2761 21.4966 17.83 20.9833C16.5834 19.5197 14.6064 18.5694 14.4445 16.3175C14.4403 16.216 14.3992 16.1196 14.3288 16.0464C14.2584 15.9733 14.1637 15.9284 14.0625 15.9203C13.097 15.7553 11.4256 17.4297 11.6181 18.3861C11.7311 18.9972 11.8167 19.59 11.9756 20.1736C12.165 20.8794 11.8931 21.1391 11.2148 21.3072C10.4906 21.4844 10.1698 21.3072 10.0567 20.5861C9.97844 19.8808 9.83524 19.1842 9.62893 18.5052C9.01782 16.8033 9.32337 15.6514 11.2178 15.0891C12.7456 14.6369 11.7648 13.6714 11.505 12.9228C11.2178 12.0886 10.8481 11.5478 9.76032 12.165C8.56254 12.8464 7.15393 12.9197 5.7881 13.0083C4.9356 13.0603 4.59033 12.828 4.7156 12.0183Z" fill="#5E4FA1"/>
<path d="M10.2614 7.545C9.15837 7.44112 8.46476 6.885 8.38531 5.74223C8.36453 5.48767 8.39979 5.23165 8.48861 4.99218C8.57744 4.75272 8.71767 4.53563 8.89943 4.3562C9.08119 4.17677 9.30007 4.03935 9.54066 3.95363C9.78125 3.8679 10.0377 3.83594 10.292 3.86001C11.4103 3.93029 12.1009 4.53223 12.0856 5.69334C12.0703 6.85445 11.3706 7.41667 10.2614 7.545Z" fill="#6051A2"/>
<path d="M4.80418 9.95585C3.76835 9.8153 3.18779 9.28669 3.25501 8.33336C3.25246 8.12739 3.29415 7.92326 3.37727 7.73479C3.46039 7.54632 3.583 7.37788 3.73681 7.24087C3.89062 7.10386 4.07206 7.00146 4.26885 6.9406C4.46564 6.87973 4.6732 6.86183 4.87751 6.88808C5.07028 6.89106 5.26036 6.93383 5.43582 7.01372C5.61128 7.09361 5.76834 7.20889 5.89716 7.35233C6.02597 7.49578 6.12375 7.66429 6.18438 7.8473C6.245 8.03031 6.26716 8.22388 6.24945 8.41586C6.24334 9.4028 5.62918 9.83669 4.80418 9.95585Z" fill="#7D61AA"/>
</svg>
