<svg width="24" height="24" viewBox="0 0 24 24" fill="none" xmlns="http://www.w3.org/2000/svg">
<path d="M16.6597 7.72223C16.9867 8.11945 16.8828 8.59612 16.8644 9.04223C16.84 9.7389 16.95 10.1392 17.8178 10.2217C18.8567 10.3195 19.3455 11.0497 19.3455 12.1406C19.318 14.53 19.3089 16.9225 19.3455 19.312C19.3669 20.5861 18.8505 21.1911 17.5519 21.182C13.9433 21.1606 10.3347 21.1514 6.7261 21.182C5.43054 21.182 4.79193 20.5097 4.75221 19.3486C4.67277 16.9042 4.67277 14.4597 4.75221 12.0153C4.79499 10.5883 5.50693 10.1636 7.45332 10.1361C8.2661 9.74195 8.9811 9.29279 8.99943 8.22029C8.99943 7.91473 9.17054 7.50223 9.67471 7.73445C10.3958 9.69612 10.3958 9.69306 12.6722 9.69917C13.3292 9.69917 13.9892 9.67779 14.643 9.69917C15.5872 9.79084 16.2167 9.50667 16.2442 8.42195C16.2426 8.27842 16.2805 8.13721 16.3538 8.01379C16.4271 7.89038 16.5329 7.78951 16.6597 7.72223Z" fill="#82CCF1"/>
<path d="M9.51588 7.7222C9.43032 7.95137 9.24393 8.19887 9.2806 8.40665C9.54643 9.93443 8.84671 10.4203 7.44727 10.1666C7.44727 9.66248 7.44727 9.15831 7.44727 8.65415C7.48393 5.84915 9.03615 4.07081 11.6181 3.84165C14.3253 3.6247 16.0853 4.9722 16.6598 7.7222C16.6149 7.92264 16.5964 8.12808 16.6048 8.33331C16.8553 9.83054 16.2778 10.4722 14.75 10.1819C14.3223 9.73276 14.4048 9.14609 14.3284 8.6022C14.2 7.67026 13.9984 6.71387 12.9595 6.4297C11.9206 6.14554 10.8206 6.21276 10.0964 7.24859C9.95727 7.46335 9.7542 7.629 9.51588 7.7222Z" fill="#359AD5"/>
<path d="M13.8883 15.1136C13.103 16.1678 12.9319 17.6161 12.8861 19.1317C12.8861 19.5992 12.1069 19.3731 11.6791 19.3822C11.2513 19.3914 11.123 19.0522 11.1322 18.6581C11.1658 17.5061 11.1566 16.4092 10.3866 15.3825C9.91912 14.7714 10.3102 14.0014 10.8663 13.4942C11.117 13.2412 11.442 13.075 11.7939 13.0201C12.1458 12.9651 12.506 13.0241 12.8219 13.1886C13.543 13.5094 13.8974 14.0533 13.8883 15.1136Z" fill="#384951"/>
</svg>
