<svg width="24" height="24" viewBox="0 0 24 24" fill="none" xmlns="http://www.w3.org/2000/svg">
<path d="M21.1941 12.1742C21.5852 16.7116 17.0202 21.3133 12 21.2827C7.20275 21.2522 2.79054 16.785 2.88831 12.1405C2.90118 9.68289 3.88403 7.32973 5.62302 5.59303C7.36201 3.85633 9.71646 2.87658 12.1741 2.86695C16.62 2.79973 21.6127 6.97972 21.1941 12.1742Z" fill="#FBAF4F"/>
<path d="M11.0558 9.55557C11.2361 10.6158 10.9824 11.1292 9.83356 11.117C8.76717 11.117 8.27828 10.9031 8.30578 9.69612C8.33634 8.65723 8.61134 8.25085 9.68689 8.30585C10.6219 8.3639 11.3705 8.40973 11.0558 9.55557Z" fill="#F78E1F"/>
<path d="M14.2886 8.37001C15.3672 8.14695 15.6788 8.60834 15.7063 9.67167C15.7338 10.8267 15.3427 11.1292 14.2244 11.1322C13.1061 11.1353 12.9166 10.6769 12.8922 9.68695C12.883 8.63889 13.1947 8.14084 14.2886 8.37001Z" fill="#F78E1F"/>
<path d="M11.0558 14.1786C11.2544 15.2694 10.9183 15.7064 9.79687 15.7064C8.67548 15.7064 8.28437 15.4283 8.30576 14.2611C8.32409 13.1825 8.67242 12.8647 9.71437 12.8953C10.6921 12.9167 11.3552 13.0633 11.0558 14.1786Z" fill="#F78D1F"/>
<path d="M15.6453 14.3528C15.8928 15.4986 15.2725 15.6758 14.2856 15.6972C13.2375 15.7217 12.9044 15.3917 12.8831 14.3222C12.8586 13.1458 13.2894 12.8861 14.3803 12.8861C15.4711 12.8861 15.8256 13.3414 15.6453 14.3528Z" fill="#F78D20"/>
<path d="M17.4816 9.66861C17.6405 9.25917 17.176 8.33945 18.056 8.44639C19.0185 8.57167 18.9727 9.66861 19.2202 10.4019C19.4677 11.1353 18.8291 11.065 18.3707 11.0833C17.283 11.1383 17.5335 10.3347 17.4816 9.66861Z" fill="#F78F1F"/>
<path d="M17.5 14.4689C17.5214 13.6683 17.3044 12.8281 18.4778 12.9197C18.9025 12.9533 19.4341 12.9778 19.2416 13.5461C18.988 14.31 19.0644 15.4681 17.9766 15.5597C17.2158 15.6269 17.6589 14.7683 17.5 14.4689Z" fill="#F78F1F"/>
<path d="M9.65934 17.5C10.3102 17.558 11.1291 17.2769 11.0863 18.3708C11.0679 18.823 11.1168 19.4494 10.4232 19.2355C9.72962 19.0216 8.5899 19.0339 8.4524 18.0866C8.3149 17.1394 9.24989 17.6497 9.65934 17.5Z" fill="#F78F1F"/>
<path d="M14.4169 17.5C14.7897 17.6253 15.6391 17.225 15.5597 17.9767C15.4619 19.0614 14.3069 18.9881 13.543 19.2417C12.9716 19.4311 12.9502 18.8933 12.9319 18.4717C12.8341 17.2922 13.6713 17.5 14.4169 17.5Z" fill="#F78F1F"/>
<path d="M14.3038 6.5367C13.7355 6.43892 12.9777 6.77503 12.9288 5.79115C12.9044 5.22281 13.1611 4.91726 13.7263 4.99976C14.4566 5.10976 15.4283 5.22587 15.5352 6.00809C15.6483 6.8392 14.7163 6.35642 14.3038 6.5367Z" fill="#F78D20"/>
<path d="M6.53963 14.4139C6.39602 14.8325 6.7688 15.6881 6.01102 15.5414C5.25325 15.3947 5.10964 14.4445 4.99964 13.7264C4.91714 13.1581 5.22269 12.8923 5.79102 12.932C6.8788 13.0114 6.3838 13.87 6.53963 14.4139Z" fill="#F78D20"/>
<path d="M6.52132 9.70831C6.52132 10.4478 6.64049 11.1353 5.65966 11.0833C5.11882 11.0558 4.87438 10.738 5.03327 10.2919C5.27466 9.6197 5.1616 8.51359 6.07521 8.47387C6.87882 8.4372 6.29521 9.39053 6.52132 9.70831Z" fill="#F78D20"/>
<path d="M9.62887 6.53974C9.2622 6.3503 8.38831 6.8453 8.53498 6.04169C8.68165 5.23808 9.67165 5.17697 10.3836 5.01808C10.8786 4.91113 11.0955 5.24419 11.0833 5.73613C11.0589 6.84224 10.2064 6.41141 9.62887 6.53974Z" fill="#F78D1F"/>
</svg>
