<svg width="24" height="24" viewBox="0 0 24 24" fill="none" xmlns="http://www.w3.org/2000/svg">
<path d="M21.1452 9.24994C21.1595 12.0325 21.1748 14.8161 21.1911 17.6008C21.1911 18.7802 20.6105 19.3546 19.4127 19.3455C15.1105 19.3333 10.8083 19.3333 6.49999 19.3058C6.41138 19.1194 6.44499 19.3791 6.41138 19.1835C5.80027 15.8621 5.70249 12.5377 6.46332 9.21938C7.07443 8.73049 7.78943 8.77633 8.49526 8.77327C12.0377 8.75494 15.5801 8.75494 19.1225 8.77327C19.8344 8.77327 20.5555 8.73049 21.1452 9.24994Z" fill="#8B7068"/>
<path d="M6.5 9.24994V19.3058C5.88889 19.3058 5.27778 19.3455 4.66667 19.3455C3.46889 19.3455 2.89445 18.658 2.88528 17.5396C2.85473 14.1785 2.88528 10.848 2.88528 7.49911C2.86397 7.14195 2.95826 6.78743 3.15418 6.48804C3.3501 6.18866 3.63724 5.96033 3.97306 5.83689C4.55361 5.68106 5.14639 5.80022 5.73 5.74828C6.60083 5.67495 6.86667 6.13633 6.82389 6.90633C6.8046 7.06139 6.75695 7.21157 6.68333 7.34939C6.55775 7.50733 6.39208 7.62868 6.20361 7.70078C5.84 7.85661 5.28695 7.91772 5.30834 8.4005C5.30834 9.01161 6.02028 8.83133 6.35639 9.09716L6.5 9.24994Z" fill="#6E4E42"/>
<path d="M6.49996 7.4319C6.83912 5.02718 4.92329 6.20968 3.97607 5.8369C4.29996 5.49468 4.72774 5.59246 5.11885 5.59246C9.77754 5.59246 14.4362 5.60672 19.0949 5.63524C20.2805 5.63524 21.2124 5.97135 21.1269 7.4319C20.5922 7.9269 19.9199 7.90245 19.266 7.90551C15.6299 7.92384 11.9928 7.92384 8.35468 7.90551C7.72218 7.90245 7.02857 7.95134 6.49996 7.4319Z" fill="#8C7269"/>
<path d="M6.49996 7.43188H21.1299L21.1452 9.26521H6.49996C6.26998 9.01534 6.14233 8.68815 6.14233 8.34855C6.14233 8.00895 6.26998 7.68176 6.49996 7.43188Z" fill="#6E4D42"/>
<path d="M15.7522 17.4999C14.8936 17.4999 14.035 17.4999 13.1764 17.4999C12.6386 17.4999 12.0948 17.4021 12.0734 16.7452C12.0672 16.6161 12.0869 16.487 12.1313 16.3656C12.1756 16.2442 12.2437 16.1328 12.3317 16.0381C12.4196 15.9433 12.5255 15.8671 12.6433 15.8138C12.7611 15.7605 12.8883 15.7312 13.0175 15.7277C14.7806 15.6697 16.5528 15.6727 18.3159 15.7277C18.4449 15.73 18.5722 15.7581 18.6903 15.8104C18.8083 15.8626 18.9147 15.9379 19.0032 16.0318C19.0918 16.1258 19.1606 16.2365 19.2058 16.3574C19.2509 16.4783 19.2714 16.6071 19.2661 16.736C19.2508 17.396 18.7222 17.4999 18.1784 17.4999C17.3686 17.4999 16.562 17.4999 15.7522 17.4999Z" fill="#6E4E43"/>
<path d="M6.51529 7.41663V9.24996C5.83696 9.14912 4.75529 9.59523 4.77668 8.41274C4.79501 7.4594 5.7239 7.41663 6.51529 7.41663Z" fill="#8A7067"/>
</svg>
