<svg width="24" height="24" viewBox="0 0 24 24" fill="none" xmlns="http://www.w3.org/2000/svg">
<path d="M7.47474 13.8517C5.89808 13.4911 4.83474 12.3484 4.72474 10.8909C4.56891 8.95058 5.21058 7.80474 6.91558 7.22419C7.43544 7.0663 7.89689 6.75796 8.24169 6.33808C8.69247 5.79168 9.26909 5.36281 9.92206 5.08825C10.575 4.8137 11.2849 4.70166 11.9907 4.76176C12.6965 4.82185 13.3771 5.05228 13.9743 5.43327C14.5715 5.81427 15.0673 6.33445 15.4192 6.94919C15.8072 7.6153 16.177 8.14085 16.9653 8.47696C17.4872 8.6932 17.9264 9.07023 18.2193 9.55324C18.5122 10.0363 18.6434 10.6001 18.5939 11.1628C18.5236 12.4522 17.9125 13.4728 16.5467 13.8425C13.5272 14.0721 10.4947 14.0752 7.47474 13.8517Z" fill="#7DCAC3"/>
<path d="M3.66444 15.6881C6.09055 15.7125 5.67805 15.4834 5.88277 17.6772C6.05999 19.5778 4.94777 19.2509 3.77138 19.4036C1.97166 19.6359 2.04499 18.6703 1.95944 17.3747C1.85249 15.7339 2.58583 15.4559 3.66444 15.6881Z" fill="#35A89C"/>
<path d="M9.32636 19.2814C7.62442 19.755 7.49303 18.8964 7.39525 17.4756C7.25469 15.5628 8.25692 15.7645 9.55247 15.6423C11.3125 15.4712 11.2941 16.342 11.3858 17.6589C11.4897 19.422 10.6433 19.5992 9.32636 19.2814Z" fill="#35A79B"/>
<path d="M14.75 19.3028C13.1489 19.7367 12.9594 18.9453 12.8678 17.4909C12.7517 15.6117 13.6867 15.7492 15.0067 15.6361C16.7392 15.4895 16.7636 16.2961 16.84 17.6406C16.9805 19.4128 16.1372 19.5778 14.75 19.3028Z" fill="#35A79B"/>
<path d="M22.0375 17.5214C22.4255 18.9667 21.8969 19.4708 20.3905 19.3975C19.1041 19.3364 18.2333 19.3975 18.3739 17.6069C18.4839 16.2442 18.548 15.5444 20.2316 15.63C21.6678 15.7033 22.4866 15.8806 22.0375 17.5214Z" fill="#2FA79B"/>
<path d="M7.47473 13.8517H16.5375C15.8225 14.4414 14.9731 14.1572 14.2092 14.1267C11.9633 14.0136 9.69612 14.5178 7.47473 13.8517Z" fill="#ACB4B3"/>
</svg>
