<svg width="24" height="24" viewBox="0 0 24 24" fill="none" xmlns="http://www.w3.org/2000/svg">
<path d="M11.7311 22.0436C9.35391 22.0578 6.97567 22.0731 4.59642 22.0894C3.31309 22.0894 2.50336 21.4478 2.15198 20.2347C1.80059 19.0216 2.06031 17.8605 3.17253 17.1608C3.9749 16.6585 4.74071 16.0999 5.46419 15.4894C6.51836 14.6033 7.76502 14.5392 9.02696 15.1319C9.37692 15.1147 9.72152 15.2231 9.99863 15.4375C10.2064 15.5658 10.3042 15.8286 10.6097 15.9172C10.6097 12.7822 10.5884 9.66861 10.6097 6.555C10.6311 4.55362 10.9153 4.26945 12.9014 4.23584C14.7714 4.20529 16.6445 4.22056 18.5144 4.23584C19.1256 4.23584 19.7367 4.2114 20.2653 4.59945C20.6533 5.07306 20.6197 5.64139 20.6228 6.19751C20.6228 9.3875 20.6442 12.5805 20.6228 15.7705C20.6228 17.5703 20.2867 17.885 18.4839 17.9339C17.058 17.9726 15.6392 17.9726 14.2275 17.9339C13.3108 17.9094 12.8403 17.9889 13.1703 19.1744C13.6195 20.6778 13.1336 21.3989 11.7311 22.0436Z" fill="#404DA1"/>
<path d="M20.2042 4.71862C17.6253 4.71862 15.0434 4.75834 12.4675 4.69112C11.4134 4.66667 11.0834 4.97223 11.0834 6.04778C11.1445 9.76333 11.1078 13.4819 10.9825 17.2433C10.5676 16.5721 10.0898 15.9418 9.5556 15.3611C9.25005 12.6631 9.51282 9.95583 9.4181 7.25473C9.38449 6.30751 9.54949 5.35112 9.31116 4.41001C9.80616 2.52779 10.35 2.02974 12.2384 1.99307C14.6828 1.94724 17.1273 1.9564 19.5564 1.99307C21.2217 2.01751 22.065 2.8914 22.065 4.54445C22.065 8.86195 22.0436 13.1825 22.0284 17.503C20.6259 17.943 20.4028 17.8086 20.3967 16.4458C20.3967 13.0236 20.3967 9.59833 20.3967 6.17612C20.3814 5.69028 20.5556 5.16779 20.2042 4.71862Z" fill="#94A7B0"/>
<path d="M20.2041 4.71863C20.7786 5.13113 20.5097 5.74224 20.528 6.2464C20.5525 9.48223 20.5922 12.7211 20.528 15.9569C20.5005 17.1425 20.8336 17.6711 22.0558 17.4847C22.0711 18.2455 22.1199 19.0125 22.0955 19.7642C22.0222 21.1667 21.1666 22.0558 19.8008 22.0833C17.1119 22.1047 14.42 22.0833 11.7311 22.0589C13.3627 20.5922 13.4177 19.5747 11.7739 17.5672C14.1969 17.5672 16.4366 17.5 18.6702 17.5917C19.9138 17.6467 20.3447 17.3044 20.308 16.0028C20.2011 12.2322 20.2286 8.4739 20.2041 4.71863Z" fill="#788F9C"/>
<path d="M9.30197 4.40082C9.81836 5.13415 9.53419 5.9622 9.54336 6.74137C9.58003 9.61359 9.54336 12.4827 9.54336 15.3519L9.03003 15.1319C9.51586 13.3444 9.16753 11.5202 9.24086 9.71442C9.3142 7.90859 9.2867 6.17304 9.30197 4.40082Z" fill="#8C949C"/>
<path d="M15.7462 19.2631C16.3725 19.5686 17.5978 18.82 17.5795 19.9231C17.555 20.91 16.3573 20.4181 15.7003 20.4364C15.0892 20.4547 13.9556 20.855 13.9648 19.9078C13.9617 18.7681 15.1564 19.6114 15.7462 19.2631Z" fill="#E2E6E8"/>
</svg>
