<svg width="24" height="24" viewBox="0 0 24 24" fill="none" xmlns="http://www.w3.org/2000/svg">
<path d="M16.3175 4.13802C18.2699 2.17639 18.3097 2.15194 19.7274 4.6269C21.8052 8.25379 21.8968 12.0334 19.8558 15.6267C17.8147 19.22 14.6828 21.1816 10.4112 21.2305C7.96833 21.2671 5.57846 20.5172 3.59435 19.0917C2.55853 18.3736 2.37215 17.7472 3.49046 16.9711C3.72448 16.7764 3.94215 16.5628 4.14129 16.3325C4.95711 15.8589 5.44904 16.5648 6.00209 16.8978C10.344 19.4981 15.795 17.7289 17.558 13.0051C18.0164 11.8692 18.1949 10.6397 18.0784 9.4203C17.962 8.20093 17.554 7.02745 16.8889 5.99883C16.5405 5.45495 15.8439 4.95384 16.3175 4.13802Z" fill="#67BC6B"/>
<path d="M5.04567 15.5382C8.43728 11.9327 11.9328 8.43206 15.5322 5.03638C16.0699 5.03638 16.3144 5.44276 16.5802 5.80942C18.7038 8.72132 18.3188 13.1151 15.7186 15.7184C13.1183 18.3217 8.7245 18.722 5.81566 16.5831C5.449 16.3204 5.04262 16.0759 5.04567 15.5382Z" fill="#EC437B"/>
<path d="M5.04578 15.5381C9.20432 19.1589 14.6828 17.6769 16.7056 13.7537C18.322 10.6248 17.7231 7.70072 15.5323 5.03632C15.7798 4.73077 15.905 4.30605 16.3175 4.138C16.2564 4.7766 16.7759 5.12798 17.0692 5.57409C19.3303 9.02375 18.9025 13.2129 16.0028 16.1125C13.1918 18.9114 8.94461 19.2903 5.58355 17.072C5.13439 16.7664 4.78606 16.2592 4.14746 16.3203C4.3094 15.9078 4.72801 15.7825 5.04578 15.5381Z" fill="#A5D2A5"/>
<path d="M12.7608 9.32625C13.5338 9.6318 14.6552 9.61042 14.7927 10.8723C14.8721 11.5843 14.5085 12.0212 13.7661 12.0701C12.935 12.122 12.0611 10.9976 12.055 9.93124C12.0519 9.47903 12.2169 9.27431 12.7608 9.32625Z" fill="#35343C"/>
<path d="M11.0468 14.8323C9.74206 14.7498 9.61373 13.714 9.35096 12.8157C9.21346 12.3512 9.36624 11.9418 9.92845 12.0793C10.8268 12.3024 11.9084 12.3849 12.0673 13.6223C12.1345 14.3495 11.7251 14.7498 11.0468 14.8323Z" fill="#35343C"/>
</svg>
