<svg width="24" height="24" viewBox="0 0 24 24" fill="none" xmlns="http://www.w3.org/2000/svg">
<path d="M10.2002 16.5833C4.71856 14.8477 3.6094 9.28664 5.61689 5.78193C7.09578 3.17554 9.39661 1.80971 12.5194 1.9961C15.8194 2.19166 17.9827 3.97915 19.1499 6.93082C20.3966 10.0841 18.7221 14.1602 15.6666 15.8255C15.361 15.9936 15.028 16.1311 14.7072 16.2869C13.9708 16.6383 14.1541 17.3075 14.1938 17.888C14.2458 18.5969 14.8447 18.3616 15.2572 18.4014C15.5627 18.4319 15.8683 18.4014 16.1738 18.4014C18.4105 18.4227 19.3027 19.8772 18.4074 22.0344C17.9002 20.91 17.011 20.6319 15.8255 20.6625C12.938 20.7327 10.0505 20.6777 7.163 20.6869C6.65884 20.6869 6.1455 20.7847 5.66273 20.5555C5.73301 18.9208 6.21884 18.4166 7.80161 18.4014C8.60217 18.4014 9.39967 18.4014 10.1972 18.4014C10.8816 17.7902 11.7249 18.0714 12.5163 17.9491C12.8035 17.9033 13.1824 17.8972 13.1916 17.4969C13.2008 17.0966 12.8249 17.0752 12.5377 17.0264C11.7402 16.8889 10.8816 17.1944 10.2002 16.5833Z" fill="#99A9AF"/>
<path d="M5.64444 20.5555C6.1761 20.1553 6.79638 20.25 7.39221 20.25C10.5119 20.25 13.6347 20.3294 16.7514 20.2103C18.2394 20.1522 18.6366 20.7022 18.3891 22.0253C14.6003 22.0253 10.8114 21.9978 7.02554 22.1078C5.71777 22.1658 5.47027 21.6464 5.64444 20.5555Z" fill="#546E7A"/>
<path d="M10.2002 16.5833C11.1169 16.5833 12.0152 16.623 12.9197 16.5833C13.5461 16.5619 13.8363 16.7605 13.8516 17.4328C13.8669 18.105 13.6286 18.4594 12.8983 18.4289C12 18.3953 11.0833 18.4166 10.1666 18.4166C10.185 17.8055 10.1911 17.1944 10.2002 16.5833Z" fill="#56707C"/>
<path d="M11.9663 14.75C9.01464 14.7286 6.46631 12.1741 6.56103 9.3019C6.64353 6.34719 9.31103 3.75914 12.1924 3.80191C13.6276 3.85209 14.9862 4.46158 15.978 5.50016C16.9697 6.53873 17.5159 7.92401 17.4999 9.35996C17.4999 12.5011 15.1502 14.7775 11.9663 14.75Z" fill="#556E7A"/>
<path d="M15.7308 9.36607C15.7308 11.505 14.2031 12.9961 12.0642 12.9838C9.9253 12.9716 8.39752 11.4561 8.34863 9.37219C8.36037 8.39766 8.74569 7.4648 9.42511 6.76606C10.1045 6.06732 11.0262 5.65598 12 5.61691C14.1389 5.5833 15.7308 7.18136 15.7308 9.36607Z" fill="#45B3E6"/>
</svg>
