<svg width="24" height="24" viewBox="0 0 24 24" fill="none" xmlns="http://www.w3.org/2000/svg">
<path d="M13.4269 8.33333C16.7606 8.50138 16.7606 8.50138 17.7811 11.5997C18.4961 13.7549 19.2172 15.9142 19.9444 18.0775C20.0436 18.31 20.1303 18.5477 20.2042 18.7894C20.6319 20.91 20.3753 21.2339 18.2364 21.2339C13.8731 21.2339 9.50972 21.2033 5.14639 21.2583C4.12583 21.2583 3.86 20.9772 3.90889 19.9781C3.97917 18.5175 4.55056 17.2281 4.99056 15.8806C5.62 13.9556 6.335 12.055 6.84833 10.0994C7.20583 8.73361 7.85056 8.11027 9.27444 8.37916C9.73709 8.41708 10.2021 8.41708 10.6647 8.37916C10.0964 7.50527 9.29583 6.90638 9.25 5.88888C9.21907 5.30229 9.3701 4.72047 9.68242 4.22297C9.99475 3.72548 10.4531 3.33661 10.9949 3.10955C11.5366 2.88248 12.1353 2.82831 12.709 2.95443C13.2827 3.08055 13.8034 3.38082 14.2 3.81416C15.3367 5.08833 15.1167 6.55194 13.4269 8.33333Z" fill="#465B65"/>
<path d="M12.9931 15.0158C13.7203 14.7622 14.2153 13.8517 14.8936 14.8142C15.1992 15.2664 15.4711 15.5078 15.0128 16.0792C12.5133 19.2019 12.3056 19.2386 9.55556 16.4061C9.21944 16.0547 8.39139 15.8164 9.11861 14.9853C9.76333 14.2458 10.2858 14.2122 11.1108 15.2511C11.1108 13.6317 11.1261 12.385 11.1108 11.1383C11.1108 10.5272 11.2728 10.2003 11.9633 10.2033C12.6539 10.2064 13.0236 10.3469 12.9992 11.12C12.9686 12.3758 12.9931 13.6286 12.9931 15.0158Z" fill="#B5BDC0"/>
<path d="M12 6.93081C11.8359 6.93809 11.6721 6.91009 11.5197 6.8487C11.3674 6.78731 11.2299 6.69395 11.1167 6.57493C11.0035 6.45591 10.9171 6.31398 10.8633 6.15874C10.8096 6.00349 10.7898 5.83852 10.8053 5.67497C10.7942 5.50905 10.8178 5.34263 10.8746 5.18633C10.9313 5.03002 11.02 4.88725 11.135 4.7671C11.25 4.64696 11.3887 4.55207 11.5424 4.48848C11.696 4.42489 11.8612 4.39399 12.0275 4.39775C12.2039 4.37797 12.3826 4.39685 12.5509 4.4531C12.7193 4.50935 12.8734 4.60161 13.0026 4.72345C13.1317 4.8453 13.2327 4.99382 13.2986 5.15867C13.3645 5.32352 13.3937 5.50075 13.3842 5.67803C13.3719 6.42358 12.9564 6.89414 12 6.93081Z" fill="#F7F7F7"/>
</svg>
