<svg width="24" height="24" viewBox="0 0 24 24" fill="none" xmlns="http://www.w3.org/2000/svg">
<path d="M17.5244 7.15697C17.0478 8.21113 17.6467 9.66863 16.7697 10.4356C14.0197 12.825 15.0525 15.9356 14.8386 18.8475C14.7775 19.6603 15.3703 20.9161 14.0656 21.1361C12.7608 21.3561 12.9167 20.0086 12.5928 19.2295C12.3488 18.5622 12.1387 17.883 11.9633 17.1945C11.7128 16.3022 11.1353 15.6881 10.2186 15.8409C9.24084 16.0059 9.21945 15.5353 9.28056 14.86C9.41195 13.4575 9.21334 12.2872 7.9575 11.2881C7.05611 10.5731 6.75973 9.3203 6.77195 8.10113C6.49695 7.15086 6.85139 6.11808 6.25861 5.17391C6.18308 5.05388 6.14092 4.91589 6.13647 4.77414C6.13202 4.63239 6.16546 4.49202 6.23332 4.3675C6.30119 4.24298 6.40103 4.1388 6.52256 4.06571C6.64409 3.99262 6.78292 3.95326 6.92473 3.95169C7.63973 3.89669 8.49834 3.66447 8.70306 4.78891C8.87723 5.73613 8.6175 6.70474 8.89861 7.63669C9.69611 10.2217 10.1575 10.6922 11.9969 10.6922C13.8364 10.6922 14.5269 10.1545 15.0158 8.36086C15.1819 7.67186 15.3024 6.97266 15.3764 6.2678C15.4772 5.86141 15.3214 5.46724 15.3183 5.06391C15.3183 4.12586 15.8194 3.90891 16.675 3.90891C17.6619 3.90891 17.9553 4.44974 17.8422 5.24419C17.7741 5.88748 17.668 6.52619 17.5244 7.15697Z" fill="#5E4FA1"/>
<path d="M17.5244 7.15696C17.5244 6.45724 17.4664 5.75446 17.5 5.05474C17.5397 4.22057 17.115 4.02502 16.3878 4.07391C15.5231 4.13196 15.63 4.72779 15.7094 5.27168C15.7736 5.69335 16.1556 6.09668 15.7094 6.51835C14.4231 6.32279 13.1214 6.38085 11.8289 6.30446C10.3592 6.21891 9.07889 6.35641 8.58083 8.04307C8.05222 7.09585 8.34861 6.07224 8.34861 5.08835C8.34861 4.27252 8.00333 4.02196 7.24556 4.07085C6.38083 4.12891 6.40222 4.73391 6.56722 5.26252C6.81309 6.18963 6.87947 7.1552 6.76278 8.10724C6.45722 7.65807 6.50611 7.13557 6.50611 6.63752C6.50611 6.13946 6.37167 5.77585 5.74833 5.79418C5.22583 5.80946 4.83167 5.90418 4.86833 6.53363C4.92333 7.2853 4.66056 7.63363 3.83861 7.63363C2.98 7.63363 2.83333 7.19668 2.87611 6.50002C2.88027 6.35377 2.84502 6.2091 2.77406 6.08116C2.7031 5.95322 2.59904 5.84671 2.47278 5.77279C1.73333 5.16168 1.65695 4.41613 2.47278 3.82641C2.60286 3.76009 2.7105 3.65689 2.78224 3.52972C2.85398 3.40254 2.88663 3.25704 2.87611 3.11141C2.83333 2.41474 2.94028 1.95641 3.83556 1.97168C4.64222 1.97168 4.96611 2.27724 4.86222 3.05946C4.77056 3.72863 5.1525 3.78974 5.67806 3.78974C9.9375 3.77752 14.1969 3.77752 18.4564 3.78974C19.0675 3.78974 19.4342 3.63696 19.3517 2.94641C19.2692 2.25585 19.5992 1.96863 20.3203 1.98085C20.9956 1.98085 21.5242 2.1978 21.3072 2.89752C21.0475 3.74696 22.0283 3.69807 22.1078 4.31224C22.2606 5.53446 21.2706 6.33502 21.0658 7.43502C20.9772 7.89641 19.4861 7.56335 19.3792 7.00724C19.2722 6.45113 19.5319 5.78502 18.5236 5.76668C17.3931 5.75446 17.885 6.72613 17.5244 7.15696Z" fill="#7B5FA9"/>
<path d="M9.27139 19.0736C9.2668 19.0238 9.2668 18.9737 9.27139 18.9239C9.415 18.0684 8.82834 16.6506 10.2981 16.6995C11.6914 16.7484 11.1689 18.1356 11.2667 19.0156C11.3094 19.4128 11.2392 19.8253 11.2667 20.2378C11.3492 21.0659 10.9611 21.2645 10.1942 21.2614C9.42722 21.2584 9.17056 21.0323 9.24695 20.2989C9.27692 19.8912 9.28508 19.4822 9.27139 19.0736Z" fill="#6456A3"/>
<path d="M8.59 8.04307C8.59 5.79724 8.59 5.79724 10.9214 5.79724C12.1711 5.79724 13.4239 5.79724 14.6736 5.79724C15.2114 5.79724 15.6911 5.81863 15.7186 6.52446C15.685 6.87585 15.6636 7.2303 15.6117 7.57863C15.2572 10.1025 14.4444 11.0009 12.4706 11.12C10.1331 11.2636 9.29889 10.6006 8.59 8.04307Z" fill="#FBFBFC"/>
<path d="M13.9647 8.42809C13.8119 9.54031 13.2192 10.2431 12.0886 10.2614C10.9581 10.2798 10.3194 9.55559 10.2278 8.4617C10.2196 8.20793 10.2638 7.9552 10.3575 7.71922C10.4511 7.48323 10.5923 7.26903 10.7723 7.08993C10.9523 6.91083 11.1671 6.77065 11.4036 6.6781C11.64 6.58556 11.8929 6.54263 12.1467 6.55198C13.2619 6.65281 13.8333 7.34948 13.9647 8.42809Z" fill="#6051A2"/>
</svg>
