<svg width="24" height="24" viewBox="0 0 24 24" fill="none" xmlns="http://www.w3.org/2000/svg">
<path d="M11.9817 6.80555C15.2572 6.3075 19.4219 6.46639 20.635 9.24999C21.4691 11.1567 21.5516 13.1091 20.5433 14.9241C19.6114 16.5986 18.1783 17.5641 16.0883 17.5214C12.1467 17.4389 10.24 15.688 10.1972 11.7342C10.1972 10.7136 9.85805 10.4142 8.88028 10.4539C7.30973 10.518 5.73306 10.4233 4.16251 10.4875C3.18779 10.5272 2.7264 10.2339 2.85168 9.21027C2.89797 8.80418 2.89797 8.39414 2.85168 7.98805C2.74779 7.05611 3.1389 6.74444 4.0739 6.76583C6.71084 6.81472 9.35083 6.79333 11.9878 6.79944C12.4889 7.55111 12.9778 8.32722 14.1939 7.62444C13.5278 6.93083 12.5164 7.46555 11.9817 6.80555Z" fill="#BDBEBD"/>
<path d="M11.9817 6.80554L14.1206 6.84526C14.5636 6.84526 14.7317 7.10804 14.7317 7.52971C14.7317 7.95137 14.6736 8.19276 14.2306 8.33943C12.8525 8.79165 12.0611 8.26915 11.9756 6.81165L11.9817 6.80554Z" fill="#969696"/>
</svg>
