<svg width="24" height="24" viewBox="0 0 24 24" fill="none" xmlns="http://www.w3.org/2000/svg">
<path d="M19.3333 12.1558C19.3333 14.5422 19.3028 16.9286 19.3333 19.3119C19.3578 20.586 18.8719 21.1758 17.5519 21.1635C13.8456 21.1299 10.1392 21.1177 6.43585 21.1635C5.23196 21.1819 4.71557 20.5769 4.70946 19.538C4.68095 14.5126 4.68196 9.48931 4.71252 4.46802C4.71252 3.49024 5.38474 2.86997 6.38696 2.86386C10.1453 2.83737 13.9016 2.83737 17.6558 2.86386C18.7986 2.86386 19.373 3.44135 19.3394 4.69719C19.2753 7.17829 19.3333 9.66856 19.3333 12.1558Z" fill="#D0D9DC"/>
<path d="M11.0833 16.2044C12.4889 14.8355 13.9097 13.4758 15.2969 12.0886C15.7369 11.6486 16.0456 11.3644 16.62 11.9755C17.1333 12.5194 17.2922 12.8586 16.6536 13.4178C14.75 15.0952 13.2222 17.2127 11.1017 18.6702C10.5822 17.8483 10.4295 17.0294 11.0833 16.2044Z" fill="#388F44"/>
<path d="M13.6989 6.56109C12.8433 6.56109 11.9847 6.54276 11.1292 6.56109C10.5181 6.57943 10.1942 6.42359 10.2125 5.72387C10.2308 5.02415 10.3653 4.69721 11.1292 4.71249C12.9931 4.75221 14.86 4.7461 16.7269 4.71249C17.4358 4.71249 17.5489 5.05165 17.555 5.64748C17.5611 6.24332 17.4297 6.59165 16.7269 6.56415C15.7186 6.53054 14.7072 6.56109 13.6989 6.56109Z" fill="#4B565C"/>
<path d="M13.9708 10.2522C13.0542 10.2522 12.1375 10.2339 11.2422 10.2522C10.5975 10.2705 10.1881 10.1605 10.2003 9.35692C10.2003 8.6572 10.405 8.35165 11.1506 8.36693C12.9839 8.40359 14.7897 8.40665 16.6108 8.36693C17.3625 8.34859 17.5458 8.65415 17.558 9.34776C17.5764 10.1269 17.2219 10.2858 16.5497 10.2644C15.6942 10.2247 14.8325 10.2522 13.9708 10.2522Z" fill="#4B565C"/>
<path d="M11.0833 16.2044C11.0833 17.0192 11.0833 17.8412 11.0833 18.6702C10.0383 18.0164 9.3539 16.9775 8.42501 16.2014C7.83834 15.7094 7.8139 15.3519 8.37306 14.7622C9.00862 14.1022 9.36001 14.3894 9.80612 14.8966C10.2278 15.3611 10.6708 15.7705 11.0833 16.2044Z" fill="#62A665"/>
<path d="M7.53279 6.55494C6.8239 6.66494 6.53668 6.39299 6.53668 5.63827C6.53668 4.88355 6.84224 4.688 7.53279 4.69411C8.17446 4.69411 8.42807 4.91411 8.43112 5.56799C8.43418 6.22188 8.33334 6.69244 7.53279 6.55494Z" fill="#515B61"/>
<path d="M8.39751 9.33855C8.54113 10.2552 7.99113 10.2552 7.38002 10.2552C6.67113 10.2766 6.56724 9.89771 6.5428 9.30494C6.51224 8.55633 6.82696 8.35772 7.52974 8.34549C8.33335 8.33327 8.50446 8.72438 8.39751 9.33855Z" fill="#515B61"/>
</svg>
