<svg width="24" height="24" viewBox="0 0 24 24" fill="none" xmlns="http://www.w3.org/2000/svg">
<path d="M1.18781 4.78772C3.22017 4.91284 3.22017 4.91283 3.22017 6.98182V17.3023C3.22017 19.2859 3.22017 19.2859 1.18781 19.2157V4.78772Z" fill="#33A89C"/>
<path d="M22.8175 19.2156C21.365 19.5483 20.9621 18.9746 21.0049 17.5159C21.1107 13.9272 21.1107 10.3365 21.0049 6.74377C20.9591 5.30036 21.2917 4.58629 22.8358 4.7877L22.8175 19.2156Z" fill="#30A79B"/>
<path d="M16.8455 10.6376C16.4 10.3172 15.9514 9.99983 15.512 9.67331C14.9017 9.23388 15.1824 8.8799 15.5883 8.47098C15.9942 8.06207 16.3451 7.73555 16.9096 8.35502C17.8556 9.38646 18.8566 10.3721 19.8819 11.3303C20.4434 11.8552 20.4922 12.2458 19.9032 12.7859C18.9084 13.7014 17.9594 14.6657 17.0347 15.6514C16.5251 16.1946 16.165 16.2922 15.573 15.7155C14.981 15.1387 15.1061 14.7481 15.6646 14.266C15.9514 14.0157 16.3085 13.793 16.4061 13.2467H7.66635C7.79146 13.8021 8.20648 14.0401 8.51774 14.33C9.01821 14.7908 9.09755 15.1418 8.57267 15.685C8.0478 16.2281 7.64194 16.2373 7.12011 15.6636C6.20463 14.6749 5.25254 13.7045 4.25161 12.7981C3.64129 12.2458 3.72063 11.8827 4.28213 11.3669C5.2739 10.4515 6.20463 9.46886 7.15978 8.51065C7.54428 8.12005 7.84029 7.65926 8.46281 8.31535C9.02126 8.90126 9.1952 9.32848 8.50554 9.90218C8.13588 10.2516 7.7893 10.6247 7.46799 11.0191H16.5312L16.8455 10.6376Z" fill="#54B9B0"/>
</svg>
