<svg width="24" height="24" viewBox="0 0 24 24" fill="none" xmlns="http://www.w3.org/2000/svg">
<path d="M12.0825 3.8539C15.4123 3.83261 18.6621 4.87412 21.3592 6.82695C22.0986 7.34639 22.1169 7.6825 21.57 8.35472C18.653 12.0173 15.7685 15.6972 12.9167 19.3944C12.3331 20.1491 11.9756 20.3722 11.2636 19.4372C8.4953 15.8011 5.67299 12.2068 2.7967 8.65417C1.99309 7.66111 2.22225 7.19361 3.19086 6.55195C5.81683 4.78068 8.91503 3.84057 12.0825 3.8539Z" fill="#2F99D5"/>
<path d="M12.0458 5.58337C14.2936 5.6959 16.4929 6.27773 18.5022 7.29143C19.3058 7.71309 19.3944 8.07365 18.8292 8.78253C16.7758 11.3584 14.7714 13.9709 12.7456 16.5834C12.3422 17.0997 12.0153 17.3106 11.4744 16.6139C9.36001 13.8914 7.19668 11.2117 5.02113 8.53809C4.50474 7.90254 4.88668 7.66726 5.39085 7.40754C7.45237 6.32844 9.72222 5.70626 12.0458 5.58337Z" fill="#82CCF2"/>
</svg>
