<svg width="24" height="24" viewBox="0 0 24 24" fill="none" xmlns="http://www.w3.org/2000/svg">
<path d="M21.1483 9.25002C21.1483 12.1956 21.1239 15.1381 21.1483 18.0806C21.1483 18.9972 20.9039 19.3334 19.9475 19.3272C14.6288 19.2967 9.30603 19.2987 3.97918 19.3334C3.11445 19.3334 2.83334 19.0278 2.83334 18.1722C2.88223 15.1809 2.88223 12.1864 2.90057 9.19197C3.44751 8.72141 4.12279 8.77641 4.77057 8.77336C9.61057 8.7591 14.4485 8.76826 19.2845 8.80086C19.9445 8.80391 20.6136 8.7703 21.1483 9.25002Z" fill="#D5C8E3"/>
<path d="M21.1483 9.25L2.90666 9.18277C2.88528 5.19527 2.43916 5.65361 6.31055 5.63833C10.6281 5.62 14.9486 5.7025 19.2631 5.59861C20.8336 5.56194 21.4019 6.06 21.1972 7.58777C21.1491 8.14045 21.1328 8.69544 21.1483 9.25Z" fill="#9176B5"/>
<path d="M13.7997 8.36391C13.317 8.28752 12.935 8.05835 12.9808 7.50529C12.9852 7.38048 13.0141 7.25774 13.0659 7.1441C13.1177 7.03046 13.1914 6.92815 13.2828 6.84301C13.3742 6.75788 13.4814 6.69159 13.5984 6.64794C13.7155 6.60429 13.8399 6.58414 13.9647 6.58863C14.5086 6.58863 14.747 6.96752 14.7531 7.47474C14.75 8.08279 14.4047 8.35168 13.7997 8.36391Z" fill="#D3C5E1"/>
<path d="M16.6628 6.55802C16.777 6.5547 16.8907 6.57543 16.9965 6.61886C17.1022 6.6623 17.1976 6.72747 17.2766 6.81015C17.3555 6.89283 17.4162 6.99118 17.4547 7.09882C17.4932 7.20645 17.5086 7.32098 17.5 7.43497C17.5199 7.55987 17.51 7.68772 17.4709 7.80804C17.4319 7.92835 17.365 8.03771 17.2755 8.12715C17.1861 8.21659 17.0767 8.28356 16.9564 8.32258C16.8361 8.3616 16.7082 8.37156 16.5833 8.35163C16.0792 8.35163 15.7003 8.07663 15.7247 7.53274C15.7492 6.98886 16.1342 6.66191 16.6628 6.55802Z" fill="#D2C4E1"/>
<path d="M20.2286 7.48387C20.2351 7.60109 20.2159 7.71831 20.1726 7.8274C20.1292 7.93649 20.0626 8.03485 19.9774 8.11565C19.8923 8.19646 19.7906 8.25777 19.6793 8.29536C19.5681 8.33294 19.4501 8.34589 19.3333 8.33331C18.8139 8.33331 18.4167 8.09192 18.4595 7.52359C18.4626 7.39558 18.491 7.26944 18.5429 7.15239C18.5949 7.03534 18.6694 6.92967 18.7621 6.84143C18.8549 6.75318 18.9642 6.68407 19.0837 6.63807C19.2032 6.59207 19.3306 6.57006 19.4586 6.57331C20.03 6.56415 20.2225 6.98887 20.2286 7.48387Z" fill="#BEAAD2"/>
</svg>
