<svg width="24" height="24" viewBox="0 0 24 24" fill="none" xmlns="http://www.w3.org/2000/svg">
<path d="M1.02142 22.9786C1.02142 15.9722 1.03364 8.94443 1.00003 1.935C1.00003 1.17722 1.16809 1 1.93503 1C8.64502 1.03463 15.354 1.03463 22.0619 1C22.8228 1 23 1.16806 23 1.935C22.9674 8.64499 22.9674 15.355 23 22.065C23 22.8227 22.8319 23.003 22.065 23C15.0556 22.9664 8.0278 22.9786 1.02142 22.9786Z" fill="#FFFEFF"/>
<path d="M21.1667 12C21.1667 14.64 21.1392 17.28 21.1667 19.92C21.1667 20.8214 20.9253 21.1728 19.9689 21.1666C14.638 21.13 9.30707 21.13 3.97615 21.1666C3.11143 21.1666 2.83337 20.8611 2.83337 20.0055C2.88532 17.3167 2.88226 14.6278 2.9006 11.9358C3.4506 11.4653 4.12282 11.5203 4.77365 11.5172C9.61364 11.5009 14.4526 11.5101 19.2906 11.5447C19.9445 11.5478 20.6167 11.5142 21.1667 12Z" fill="#D5C8E3"/>
<path d="M2.90364 6.44499C2.89448 2.42083 2.40864 2.91277 6.46641 2.89444C10.7442 2.87305 15.0006 2.9586 19.2661 2.85472C20.8336 2.81499 21.405 3.31305 21.2003 4.84082C21.1569 5.39786 21.1457 5.95693 21.1667 6.51526C20.6289 6.99499 19.9628 6.99193 19.3028 6.99499C14.4506 7.00721 9.59733 7.00721 4.74308 6.99499C4.07392 6.98887 3.39559 7.00721 2.90364 6.44499Z" fill="#9175B5"/>
<path d="M21.1666 12L2.90668 11.9358C2.90668 11.0589 2.90668 10.1789 2.90668 9.30192C3.06251 8.24775 3.76834 7.89331 4.74001 7.8872C9.62889 7.84748 14.5178 7.83831 19.4219 7.8872C20.1064 7.8872 20.7205 8.08275 21.1116 8.70914C21.1178 9.81118 21.1361 10.9081 21.1666 12Z" fill="#9175B5"/>
<path d="M21.0903 8.71527C20.5348 8.48024 19.9364 8.36368 19.3333 8.37305C14.4811 8.38833 9.62587 8.3975 4.77365 8.37305C3.94254 8.37305 3.2856 8.51361 2.90366 9.30805V6.45111L21.1667 6.51528C21.1382 7.24861 21.1127 7.98194 21.0903 8.71527Z" fill="#D6C8E3"/>
<path d="M14.75 4.77363C14.7541 4.90083 14.7288 5.02726 14.6759 5.14303C14.623 5.25879 14.5441 5.36076 14.4452 5.44095C14.3464 5.52113 14.2304 5.57737 14.1062 5.60525C13.982 5.63314 13.8531 5.63192 13.7295 5.60168C13.2314 5.54057 12.877 5.23196 12.9747 4.68502C12.9866 4.5597 13.0232 4.43799 13.0824 4.32693C13.1417 4.21588 13.2224 4.11771 13.3199 4.03811C13.4174 3.95851 13.5297 3.89908 13.6504 3.86326C13.7711 3.82744 13.8976 3.81595 14.0228 3.82946C14.5758 3.8753 14.75 4.28779 14.75 4.77363Z" fill="#D3C5E1"/>
<path d="M17.5 4.69113C17.4786 5.32363 17.1486 5.63835 16.5528 5.6078C16.0486 5.5803 15.6758 5.30224 15.7186 4.76446C15.7214 4.63873 15.749 4.51479 15.7999 4.39978C15.8508 4.28477 15.9239 4.18096 16.0151 4.09434C16.1062 4.00771 16.2136 3.93998 16.3311 3.89505C16.4485 3.85011 16.5737 3.82886 16.6994 3.83252C17.2556 3.81724 17.4664 4.21141 17.5 4.69113Z" fill="#D3C5E1"/>
<path d="M19.2844 5.59859C18.7925 5.54053 18.3953 5.31136 18.4717 4.74303C18.4882 4.48438 18.6064 4.24278 18.8005 4.07102C18.9946 3.89926 19.2488 3.81131 19.5075 3.82637C20.0697 3.84775 20.2622 4.28164 20.2256 4.79803C20.1889 5.31442 19.8406 5.58331 19.2844 5.59859Z" fill="#BEAAD2"/>
<path d="M14.7653 10.2064C14.7286 10.848 14.3772 11.1414 13.7875 11.0955C13.2864 11.0558 12.9167 10.7777 12.9839 10.2247C12.9882 10.098 13.0178 9.97341 13.0709 9.85831C13.124 9.74321 13.1997 9.63991 13.2934 9.55449C13.387 9.46907 13.4969 9.40326 13.6164 9.36093C13.7359 9.3186 13.8626 9.30061 13.9892 9.30802C14.53 9.32941 14.75 9.72663 14.7653 10.2064Z" fill="#D3C5E1"/>
<path d="M16.7575 9.30194C16.87 9.31431 16.9789 9.3492 17.0777 9.40455C17.1764 9.4599 17.2631 9.53456 17.3323 9.6241C17.4016 9.71363 17.4522 9.8162 17.481 9.92569C17.5098 10.0352 17.5163 10.1493 17.5 10.2614C17.4725 10.8878 17.0783 11.1506 16.5039 11.0925C16.0058 11.0406 15.6483 10.7411 15.7308 10.1942C15.763 9.94552 15.8853 9.71733 16.0745 9.55287C16.2638 9.38841 16.5068 9.29912 16.7575 9.30194Z" fill="#D3C5E1"/>
<path d="M20.2317 10.1667C20.2072 10.7319 19.9444 11.0558 19.3975 11.0833C18.8506 11.1108 18.4594 10.8817 18.4656 10.3255C18.4623 10.1973 18.4844 10.0696 18.5306 9.94994C18.5768 9.83024 18.6462 9.72083 18.7347 9.62801C18.8233 9.53518 18.9293 9.46075 19.0467 9.40899C19.1641 9.35723 19.2906 9.32915 19.4189 9.32638C19.9933 9.27138 20.198 9.68082 20.2317 10.1667Z" fill="#BEAAD2"/>
</svg>
