<svg width="24" height="24" viewBox="0 0 24 24" fill="none" xmlns="http://www.w3.org/2000/svg">
<path d="M12.0611 21.1819C11.1994 21.1819 10.3347 21.1819 9.47305 21.1819C8.82527 21.1819 8.36083 20.9802 8.39444 20.2347C8.42194 19.6052 8.83444 19.4311 9.40583 19.3363C10.0353 19.2294 11.1842 19.8344 11.0742 18.5052C10.9794 17.3594 11.8319 15.9538 9.88555 15.2297C7.86583 14.475 6.68333 12.8036 6.74445 10.4722C6.78722 8.89858 6.74445 7.32192 6.82389 5.75137C6.94306 3.58804 7.74055 2.87915 9.83055 2.8761C11.6058 2.8761 13.3842 2.8761 15.1625 2.8761C15.7553 2.8761 16.2228 2.97999 16.6016 3.51471C18.0744 5.5772 17.778 12.0336 16.1066 13.9402C15.6666 14.4475 15.19 14.9547 14.5605 15.1288C13.3383 15.4558 13.0817 16.2013 13.1214 17.3777C13.1611 18.5541 13.0878 19.6297 14.808 19.3761C14.9362 19.3583 15.0667 19.3691 15.1902 19.4077C15.3137 19.4463 15.4271 19.5118 15.5223 19.5994C15.6176 19.687 15.6922 19.7946 15.7409 19.9145C15.7896 20.0344 15.8112 20.1635 15.8041 20.2927C15.8041 20.9986 15.2969 21.2094 14.6522 21.1788C13.7905 21.1666 12.9167 21.1819 12.0611 21.1819Z" fill="#AC7AB5"/>
<path d="M15.6666 9.72663C15.5841 12.443 14.0533 14.0044 11.725 13.8425C9.68082 13.7111 8.1286 11.5477 8.36388 9.20108C8.41582 8.64497 8.58082 8.36386 9.16749 8.36691C11.0405 8.36691 12.9136 8.3883 14.7836 8.36691C15.9966 8.34858 15.5903 9.24997 15.6666 9.72663Z" fill="#793393"/>
</svg>
