<svg width="24" height="24" viewBox="0 0 24 24" fill="none" xmlns="http://www.w3.org/2000/svg">
<path d="M6.78111 5.68415C9.4761 5.6597 12.1711 5.65359 14.8661 5.6047C15.6422 5.58942 15.9814 5.84609 15.9416 6.65276C15.8989 7.51442 15.9416 8.37914 15.96 9.24386C15.9966 10.4172 16.7086 10.683 17.7505 10.7411C18.7925 10.7991 18.8169 10.9825 18.4166 11.6577C16.2778 10.9366 15.9325 11.1719 15.9325 13.3077C15.9325 15.1808 15.8866 17.0538 15.9478 18.9208C15.9814 19.8833 15.7155 20.2744 14.6828 20.2438C12.055 20.1705 9.4211 20.198 6.79027 20.1858C6.37166 19.1072 6.97361 17.9277 6.45416 16.8644H3.44445C1.75778 16.8644 1.56834 16.5313 2.22223 14.7805C2.64389 15.8255 3.35889 16.1952 4.53528 16.2044C5.71166 16.2136 6.08139 15.5291 6.48166 14.7164V14.7377C6.87889 12.7852 6.55194 10.8083 6.665 8.84664C6.71389 7.79859 6.5 6.7322 6.78111 5.68415Z" fill="#84BDE7"/>
<path d="M18.4166 11.67C18.4655 10.4477 17.5275 11.1597 17.1394 11.1291C15.5169 11.0008 15.3825 10.8602 15.96 9.24385H18.5114C18.3677 8.63274 17.5458 8.14385 18.4044 7.4808C18.988 7.03163 19.2691 6.90636 19.868 7.4808C22.8288 10.2491 22.8258 10.5364 19.6877 13.1336C19.1683 13.5644 18.8658 13.5125 18.4258 13.0816C17.9125 12.5713 17.6039 12.1436 18.4166 11.67Z" fill="#5AA1D7"/>
<path d="M6.49998 14.7255C6.64664 15.908 6.55192 16.7147 4.92942 16.6169C2.08165 16.4427 2.25276 16.9225 2.24054 14.7836L6.49998 14.7255Z" fill="#63A3D4"/>
<path d="M6.78112 5.68414C6.78112 8.29053 6.79945 10.8969 6.78112 13.5033C6.78112 13.9372 6.91862 14.42 6.46028 14.7469C6.46028 12.1894 6.46028 9.63191 6.49389 7.07442C6.5 6.60692 6.26778 6.05998 6.78112 5.68414Z" fill="#84A4C4"/>
<path d="M6.45417 16.8889C7.15695 17.9339 6.64056 19.1072 6.79028 20.2102C6.12111 19.1469 6.70167 17.9675 6.45417 16.8889Z" fill="#83A3C4"/>
<path d="M14.75 13.045C14.7072 15.1655 13.1917 16.6016 11.0192 16.5741C9.25003 16.5527 7.4717 14.7958 7.45642 13.0633C7.45642 11.1994 9.33253 9.24691 11.1231 9.28052C13.0359 9.31718 14.7714 11.123 14.75 13.045Z" fill="#57A0D7"/>
</svg>
