<svg width="24" height="24" viewBox="0 0 24 24" fill="none" xmlns="http://www.w3.org/2000/svg">
<path d="M7.41666 17.5C7.41666 15.1747 7.47472 12.8494 7.44111 10.5242C7.42583 9.65638 7.58778 9.24694 8.58694 9.27444C10.9122 9.34472 13.2406 9.33555 15.5658 9.27444C16.4825 9.24999 16.8094 9.54944 16.7881 10.4783C16.7392 12.8036 16.7881 15.1289 16.7881 17.4572C17.0294 18.215 17.1364 18.9514 16.4244 19.5472C13.4239 19.9108 10.4264 20.0911 7.435 19.4464C7.19509 19.18 7.06081 18.8351 7.05744 18.4767C7.05406 18.1182 7.18182 17.7708 7.41666 17.5Z" fill="#68BC6B"/>
<path d="M7.46557 19.3333H16.6536C16.7311 19.2325 16.8299 19.1501 16.9429 19.092C17.056 19.0339 17.1805 19.0015 17.3075 18.9972C18.3861 19.0767 18.9606 18.4869 19.2967 17.555C20.0483 18.5603 19.5014 19.6939 19.5533 20.745C19.5747 21.2278 19.0645 21.1667 18.7222 21.1667C14.3589 21.1667 9.99556 21.1667 5.63223 21.1667C4.04334 21.1667 4.89584 19.975 4.74001 19.2783C5.66279 18.6764 6.56723 18.7619 7.46557 19.3333Z" fill="#8E9BA1"/>
<path d="M6.74442 6.38083C6.74442 8.0125 6.71998 9.17666 6.74442 10.3531C6.77192 11.2086 6.30442 11.3339 5.59553 11.3522C4.79192 11.3736 4.67886 10.9489 4.70331 10.3011C4.72775 9.05139 4.70331 7.79861 4.70331 6.45722C4.04331 6.60389 3.68275 7.59083 2.94331 6.7475C2.42998 6.16083 2.2222 5.86139 2.87914 5.18611C5.59859 2.39639 5.58025 2.36277 8.18359 5.06694C8.50442 5.40305 9.30498 5.65666 8.71831 6.38083C8.22942 6.99194 7.68859 7.545 6.74442 6.38083Z" fill="#30A79C"/>
<path d="M17.1944 6.50003C16.7636 7.30058 16.3419 7.26086 15.6819 6.65586C14.973 6.01114 15.3336 5.65364 15.8255 5.21975C15.9019 5.15253 15.9722 5.07919 16.0425 5.00586C18.5755 2.44836 18.5786 2.4453 21.1086 5.09447C21.4508 5.45503 22.1261 5.73919 21.5089 6.44197C20.9803 7.05308 20.4791 7.42892 19.7519 6.49697C19.2691 8.12864 19.9169 9.66864 19.3425 11.0803C17.6711 11.3859 17.6711 11.3859 17.6619 9.75114C17.6619 8.90475 17.6619 8.05836 17.6619 7.21197C17.6405 6.89419 17.7628 6.45419 17.1944 6.50003Z" fill="#2FA89C"/>
<path d="M7.46552 19.3333L4.74608 19.2967C4.68802 17.5306 4.68802 17.5306 7.41663 17.5L7.46552 19.3333Z" fill="#4C5E67"/>
<path d="M19.2966 17.5519C19.373 19.5411 19.6419 19.3853 16.6536 19.3303C16.6688 18.7008 16.5069 18.0592 16.7911 17.4511L19.2966 17.5519Z" fill="#4A5F67"/>
<path d="M17.1945 6.50002C17.7353 6.09974 17.8056 6.50002 17.8056 6.89113C17.8674 7.80675 17.8674 8.7255 17.8056 9.64113C17.6375 10.8817 18.1814 11.2636 19.3333 11.0833C17.6222 11.615 17.5703 11.5325 17.4725 9.86113C17.4053 8.73363 17.8758 7.55724 17.1945 6.50002Z" fill="#66948E"/>
<path d="M12.1069 18.4167C10.6647 18.4319 9.30497 17.1944 9.28052 15.8439C9.24997 14.4444 10.6372 12.9992 12.0611 12.938C13.4086 12.88 14.75 14.2153 14.75 15.6361C14.7775 17.4205 13.8486 18.3953 12.1069 18.4167Z" fill="#44A147"/>
</svg>
