<svg width="24" height="24" viewBox="0 0 24 24" fill="none" xmlns="http://www.w3.org/2000/svg">
<path d="M12.3789 10.3958C11.6792 9.95278 10.7564 10.2797 10.0811 9.71444C10.0811 9.34472 10.4386 9.29889 10.6922 9.16444C13.3231 7.765 13.32 7.765 12.6936 4.74612C12.6478 4.52001 12.6936 4.27556 12.9992 3.79279C13.5186 4.4039 14.0869 4.96306 14.5514 5.60778C15.2847 6.62834 16.0944 6.49084 17.0172 5.93473C17.6528 5.54973 18.273 5.10973 19.043 5.01806C19.0828 5.18306 19.153 5.30223 19.1194 5.34806C17.4664 7.60306 17.3992 9.62583 20.14 11.0711C20.0444 11.2339 19.8907 11.3544 19.7098 11.4082C19.5289 11.4621 19.3343 11.4454 19.1653 11.3614C16.8369 10.5089 15.5689 11.5264 14.8875 13.6928C14.8203 13.9097 14.5819 14.0747 14.2947 14.4414C13.9892 13.5033 14.3803 12.5225 13.6042 11.9358C13.4514 11.2178 13.1642 10.6036 12.3789 10.3958Z" fill="#73B3E2"/>
<path d="M12.3789 10.3958C13.7386 10.1392 14.1205 10.6739 13.6225 11.9236L6.3136 19.2294L5.66888 19.8741C5.16777 20.363 4.59333 20.5158 4.05861 20.0086C3.42611 19.3975 3.89361 18.933 4.34583 18.4808C7.02453 15.7899 9.70221 13.0949 12.3789 10.3958Z" fill="#57707C"/>
</svg>
