<svg width="24" height="24" viewBox="0 0 24 24" fill="none" xmlns="http://www.w3.org/2000/svg">
<path d="M12.2312 19.5903C10.2024 19.5903 8.16736 19.5567 6.13848 19.6087C5.26459 19.6301 5.04459 19.3031 5.00487 18.4659C4.92542 16.712 5.82375 15.664 7.30264 15.0712C10.5315 13.7484 14.1491 13.7374 17.3859 15.0406C17.9972 15.2972 18.5517 15.6721 19.0176 16.1437C19.9343 17.0206 19.7479 18.1726 19.5432 19.1503C19.3476 20.067 18.3209 19.5506 17.7098 19.5781C15.8918 19.6514 14.0615 19.5903 12.2312 19.5903Z" fill="#F06492"/>
<path d="M8.67762 8.70648C8.67676 7.73009 9.06154 6.79286 9.74822 6.09874C10.4349 5.40462 11.3679 5.00977 12.3443 5.0001C13.3193 4.99303 14.2587 5.36576 14.9636 6.03932C15.6686 6.71289 16.0836 7.63441 16.1209 8.6087C16.1484 10.6193 14.3487 12.4587 12.3504 12.4648C10.4254 12.4679 8.67456 10.6804 8.67762 8.70648Z" fill="#F06492"/>
</svg>
