<svg width="24" height="24" viewBox="0 0 24 24" fill="none" xmlns="http://www.w3.org/2000/svg">
<path d="M17.7689 19.2692C16.8694 20.0521 15.8068 20.6248 14.6583 20.9456C13.5097 21.2664 12.3042 21.3273 11.1292 21.1239C10.6126 19.4091 9.96184 17.7376 9.18277 16.125C8.30582 14.3405 7.12943 13.0694 5.78193 11.8075C4.9386 11.0161 3.89971 10.4203 3.46277 9.24999C4.13194 5.67194 9.04832 1.72416 14.1389 3.18777C15.3244 3.91194 15.248 5.0486 14.9975 6.15471C14.7561 7.21194 13.9464 7.75277 12.8892 7.81694C11.9725 7.87194 11.5233 8.28444 11.4255 9.19805C11.3369 10.0108 10.79 10.4203 10.0108 10.5669C9.64721 10.6403 9.02388 10.5822 9.07582 11.1047C9.13388 11.6944 9.77555 11.5447 10.1972 11.5661C11.0558 11.6119 11.9175 11.5661 12.7761 11.5967C14.423 11.6822 14.9975 12.1405 15.1136 13.7539C15.1839 14.7072 15.6117 15.1564 16.4275 15.5536C17.8361 16.2319 18.3005 17.7139 17.7689 19.2692Z" fill="#0977BE"/>
<path d="M17.7689 19.2691C17.5672 17.6191 17.6589 15.8011 15.242 15.6483C14.5239 15.6025 14.7867 14.8477 14.7714 14.3894C14.692 12.0702 14.6706 12.0366 12.327 12.0336C11.3645 12.0336 10.402 12.0336 9.43946 12.0336C8.81001 12.0336 8.36084 11.9572 8.35779 11.1505C8.35779 10.4141 8.66334 10.1025 9.35084 10.1972C10.8083 10.3958 11.2789 9.68997 11.117 8.34247C11.0406 7.7008 11.3583 7.48997 12 7.4258C14.9486 7.15386 15.5139 6.01413 14.1389 3.18774C18.16 3.79886 21.1942 8.30274 21.2095 11.2697C21.2431 14.53 20.4058 17.2433 17.7689 19.2691Z" fill="#45B3E6"/>
<path d="M3.46277 9.25C5.32429 10.7995 7.1069 12.4413 8.80388 14.1694C8.9735 14.3217 9.1052 14.5115 9.18849 14.7237C9.27177 14.9359 9.30434 15.1647 9.2836 15.3917C9.24388 15.8683 9.31721 16.4825 9.65333 16.6567C11.6394 17.6894 11.0467 19.5075 11.1292 21.1269C7.20583 21.2064 3.05944 17.0875 2.90666 12.9167C2.86388 11.6761 2.72944 10.3958 3.46277 9.25Z" fill="#45B4E6"/>
</svg>
