<svg width="24" height="24" viewBox="0 0 24 24" fill="none" xmlns="http://www.w3.org/2000/svg">
<path d="M17.8483 4.97223C21.0383 7.31278 22.0833 11.6608 20.5708 15.5994C19.7244 15.4864 18.8903 15.2939 18.0439 15.1747C17.2831 15.0739 16.5161 15.1075 15.905 15.63C15.0158 16.3572 15.0769 17.1792 16.0242 17.83C16.6781 18.2792 17.5978 18.27 18.0592 19.0522C15.2908 21.8266 9.76946 21.8022 6.92168 19.7428C3.4628 17.228 2.05725 13.1978 3.42613 9.01472C4.56891 10.0292 5.29002 11.3981 6.34113 12.4919C6.96752 13.1428 7.50224 13.8486 8.05835 12.4583C8.3639 11.7189 8.8864 11.8961 9.24085 12.3055C10.3653 13.6042 11.8075 13.5522 13.4667 13.3903C12.8861 12.5989 12.6325 11.8625 13.7019 11.3125C13.9246 11.18 14.1036 10.9853 14.217 10.7525C14.3305 10.5196 14.3734 10.2586 14.3406 10.0017C14.2306 8.57167 14.9731 7.59695 15.9692 6.74139C16.6231 6.19445 17.0722 5.40917 17.8483 4.97223Z" fill="#45B3E6"/>
<path d="M17.8483 4.97222C17.6956 5.67194 17.1242 6.06305 16.6567 6.49999C15.5475 7.55721 14.4811 8.55332 14.7164 10.35C14.8417 11.3247 13.9678 11.8075 13.0206 12.1405L14.3406 13.6928C12.1161 13.9341 10.0384 14.2855 8.61447 12.0397C8.15614 12.6844 8.59614 13.6072 7.69781 13.7691C6.79947 13.9311 6.4817 13.2222 6.04475 12.6844C5.1067 11.505 3.90587 10.5211 3.42615 9.01777C5.95003 2.85472 12.8097 0.938894 17.8483 4.97222Z" fill="#0977BE"/>
<path d="M18.05 19.0277C17.3839 18.7863 16.7056 18.5725 16.0547 18.2944C15.4039 18.0163 14.7134 17.6619 14.7867 16.7666C14.8539 15.9569 15.2511 15.2388 16.0395 15.0036C17.607 14.53 19.1592 14.5972 20.5708 15.575C20.0441 16.925 19.1754 18.1148 18.05 19.0277Z" fill="#0D78BE"/>
</svg>
