<svg width="24" height="24" viewBox="0 0 24 24" fill="none" xmlns="http://www.w3.org/2000/svg">
<path d="M21.1666 12.0184C21.3225 17.7353 17.115 21.4692 10.8419 21.185C6.22497 20.9742 2.28636 15.8745 2.91581 10.8939C3.56053 5.72087 8.72136 2.00837 13.815 3.06253C12.1772 3.91198 10.9397 5.23809 9.68692 6.54587C9.44859 6.79337 9.11247 7.05003 9.23775 7.44726C9.39053 7.92698 9.8672 7.90559 10.2614 7.92698C11.3766 7.98503 12.495 7.9117 13.6225 7.97281C14.1847 8.00337 14.7683 8.05531 15.0036 8.70309C15.1132 8.93568 15.1556 9.19431 15.1259 9.44972C15.0962 9.70512 14.9956 9.94713 14.8355 10.1484C14.3711 10.6709 13.7416 10.5823 13.1336 10.4203C12.7394 10.3134 12.4155 10.0414 12.0366 9.89781C11.3489 9.6119 10.5789 9.59454 9.87898 9.84916C9.17906 10.1038 8.60019 10.6118 8.25692 11.2728C7.43192 12.8617 8.02164 14.142 9.80608 14.3284C11.0986 14.4445 11.5722 15.0556 11.4989 16.2778C11.4845 16.5837 11.4947 16.8902 11.5294 17.1945C11.618 18.0286 11.9541 18.6948 12.8739 18.7803C13.7936 18.8659 14.1603 18.2731 14.313 17.5123C14.4527 16.7576 14.8294 16.0672 15.3886 15.5414C16.235 14.75 16.8889 13.8823 16.5497 12.6111C16.5122 12.513 16.4993 12.4072 16.5122 12.303C16.5251 12.1987 16.5634 12.0993 16.6238 12.0133C16.6841 11.9273 16.7646 11.8574 16.8583 11.8099C16.9519 11.7623 17.0558 11.7384 17.1608 11.7403C18.4991 11.6395 19.8711 11.2759 21.1666 12.0184Z" fill="#45B3E6"/>
<path d="M21.1666 12.0183H16.5833C17.9644 13.8517 16.7025 14.8264 15.63 15.8408C15.3571 16.0631 15.1361 16.3424 14.9825 16.6591C14.8289 16.9758 14.7464 17.3222 14.7408 17.6742C14.7408 18.6611 14.1114 19.2692 13.1122 19.3303C12.113 19.3914 11.5019 18.8322 11.2116 17.9094C11.1369 17.6664 11.112 17.4107 11.1383 17.1578C11.288 15.6544 11.2391 14.5758 9.11552 14.6797C7.52052 14.7561 6.90941 12.4767 7.92385 10.8022C8.85579 9.25 11.2269 8.72444 12.7027 9.80305C13.0573 10.0801 13.4964 10.2268 13.9464 10.2186C14.5147 10.2186 14.7836 9.98028 14.7744 9.40278C14.7652 8.82528 14.7744 8.36694 14.0136 8.37C12.6966 8.37 11.3766 8.37 10.0597 8.37C9.42718 8.37 8.78857 8.37 8.53191 7.67333C8.29052 7.06222 8.89246 6.78722 9.21941 6.45111C9.94663 5.675 10.7472 4.97222 11.4561 4.17166C11.7337 3.81225 12.0931 3.52436 12.5045 3.33196C12.9159 3.13956 13.3673 3.04822 13.8211 3.06555C18.3738 4.10139 21.2919 7.65805 21.1666 12.0183Z" fill="#0977BE"/>
</svg>
