<svg width="24" height="24" viewBox="0 0 24 24" fill="none" xmlns="http://www.w3.org/2000/svg">
<path d="M12.1405 19.3333C10.515 19.3333 8.88941 19.3486 7.25164 19.3333C4.54442 19.2997 2.36276 17.4236 2.10609 14.7164C1.94978 12.9998 1.94569 11.2728 2.09387 9.55554C2.17076 8.29469 2.71787 7.10857 3.62706 6.23163C4.53624 5.3547 5.74134 4.85076 7.00414 4.81944C10.4019 4.68805 13.815 4.67277 17.2097 4.81944C20.143 4.95388 22.0649 7.22415 22.0985 10.1911C22.0985 11.5111 22.1169 12.8341 22.0985 14.1633C22.0527 17.1272 19.8619 19.3027 16.8766 19.3577C15.2908 19.3638 13.7141 19.3333 12.1405 19.3333Z" fill="#D42F2F"/>
<path d="M15.8255 12.0886L8.49219 16.6719V7.50525L15.8255 12.0886Z" fill="#FAD9DA"/>
</svg>
