<svg width="24" height="24" viewBox="0 0 24 24" fill="none" xmlns="http://www.w3.org/2000/svg">
<path d="M16.5344 17.8483C15.9631 17.7658 15.5994 18.1905 15.1686 18.4288C13.6384 19.3012 11.8664 19.6537 10.1188 19.4333C8.37116 19.2129 6.74218 18.4316 5.47641 17.2066C4.21666 16.0168 3.35968 14.4634 3.025 12.7632C2.69033 11.063 2.89465 9.30072 3.60947 7.72219C4.3774 6.07804 5.65273 4.72375 7.24784 3.85854C8.84295 2.99334 10.6736 2.66289 12.4706 2.91581C15.7736 3.37109 18.6183 6.23414 19.3333 9.60747C19.7642 11.6241 19.3089 13.4086 18.4167 15.1716C18.1997 15.6086 17.7231 15.9508 17.8392 16.5313C17.5011 17.0567 17.0566 17.5053 16.5344 17.8483Z" fill="#6A767C"/>
<path d="M16.5344 17.8483C16.5692 17.5109 16.7191 17.1957 16.9589 16.9559C17.1988 16.716 17.5139 16.5661 17.8514 16.5314C19.0033 17.6589 20.1247 18.8169 21.3194 19.8925C21.9641 20.4791 21.7502 20.8336 21.2491 21.35C20.748 21.8664 20.3814 21.8236 19.9016 21.3103C18.8047 20.1369 17.6589 19.0033 16.5344 17.8483Z" fill="#3B4A52"/>
<path d="M11.0833 17.5396C10.2468 17.5409 9.4182 17.377 8.64508 17.0574C7.87197 16.7378 7.16951 16.2688 6.57797 15.6773C5.98642 15.0857 5.51742 14.3833 5.19784 13.6101C4.87826 12.837 4.71438 12.0084 4.71558 11.1719C4.7269 9.45057 5.42029 7.80398 6.64376 6.59312C7.86722 5.38226 9.5209 4.70594 11.2422 4.71245C14.7989 4.73689 17.5703 7.63967 17.5397 11.3155C17.5 14.9363 14.7989 17.5549 11.0833 17.5396Z" fill="#C5CAE6"/>
<path d="M11.1047 10.2125C12.0214 10.2125 12.9381 10.24 13.8272 10.2125C14.5575 10.1819 14.7989 10.4875 14.7928 11.1933C14.7867 11.8991 14.4872 12.058 13.8761 12.0519C12.0611 12.0305 10.2461 12.0244 8.43112 12.0519C7.71307 12.0519 7.45335 11.7861 7.46251 11.0711C7.46251 10.4019 7.76807 10.1941 8.37918 10.2125C9.28973 10.2308 10.1972 10.2125 11.1047 10.2125Z" fill="#606CB3"/>
</svg>
