<svg width="24" height="24" viewBox="0 0 24 24" fill="none" xmlns="http://www.w3.org/2000/svg">
<path d="M16.5283 17.8514C15.9569 17.7689 15.5933 18.1936 15.1655 18.432C13.6356 19.3036 11.8643 19.6557 10.1173 19.4353C8.37032 19.2149 6.74191 18.434 5.47636 17.2097C4.21608 16.0195 3.359 14.4655 3.02484 12.7645C2.69068 11.0636 2.89612 9.30075 3.61247 7.72224C4.37895 6.07709 5.65412 4.72201 7.24972 3.85709C8.84531 2.99217 10.6767 2.66325 12.4736 2.9189C15.7675 3.38029 18.6122 6.24029 19.3333 9.61668C19.7611 11.6303 19.3058 13.4117 18.4166 15.1778C18.1997 15.6147 17.7261 15.9539 17.8391 16.5345C17.5009 17.0617 17.054 17.5107 16.5283 17.8514Z" fill="#6A767C"/>
<path d="M16.5283 17.8514C16.5631 17.514 16.713 17.1988 16.9528 16.959C17.1927 16.7191 17.5078 16.5692 17.8453 16.5345C18.9972 17.662 20.1186 18.82 21.3103 19.8956C21.958 20.4823 21.7411 20.8367 21.24 21.3531C20.7389 21.8695 20.3753 21.8267 19.8955 21.3134C18.7986 20.137 17.6528 19.0034 16.5283 17.8514Z" fill="#3B4A52"/>
<path d="M17.5336 11.2789C17.5122 14.9761 14.7836 17.5795 10.9795 17.5428C9.31483 17.5196 7.72583 16.8438 6.55437 15.661C5.38291 14.4781 4.72262 12.8826 4.71558 11.2178C4.71719 9.49834 5.40011 7.84959 6.61481 6.63261C7.8295 5.41562 9.47696 4.72959 11.1964 4.72474C14.75 4.71863 17.555 7.61835 17.5336 11.2789Z" fill="#C5CAE6"/>
</svg>
