<svg width="24" height="24" viewBox="0 0 24 24" fill="none" xmlns="http://www.w3.org/2000/svg">
<path d="M16.5405 17.8545C15.9691 17.7719 15.6055 18.1967 15.1747 18.435C13.6455 19.3074 11.8745 19.6599 10.1278 19.4395C8.3811 19.2191 6.75314 18.4377 5.48859 17.2128C4.22793 16.0222 3.37042 14.4678 3.03573 12.7664C2.70104 11.065 2.90588 9.30159 3.62164 7.72223C4.38929 6.07802 5.66468 4.7238 7.25996 3.85905C8.85524 2.9943 10.6861 2.66473 12.4828 2.91889C15.7797 3.38334 18.6244 6.24639 19.3333 9.61973C19.7611 11.6333 19.3089 13.4147 18.4166 15.1808C18.1997 15.6178 17.723 15.9569 17.8391 16.5375C17.5045 17.0635 17.0618 17.5124 16.5405 17.8545Z" fill="#6A767C"/>
<path d="M16.5405 17.8544C16.5753 17.517 16.7252 17.2018 16.965 16.962C17.2049 16.7221 17.52 16.5722 17.8575 16.5375C19.0094 17.665 20.1308 18.823 21.3225 19.8986C21.9703 20.4853 21.7533 20.8397 21.2522 21.3561C20.7511 21.8725 20.3844 21.8297 19.9077 21.3164C18.8108 20.14 17.665 19.0064 16.5405 17.8544Z" fill="#3B4A52"/>
<path d="M17.5459 11.2147C17.5459 14.9333 14.8356 17.5703 11.0589 17.5458C10.2212 17.5427 9.39238 17.3739 8.6201 17.0492C7.84783 16.7246 7.14736 16.2505 6.55898 15.6541C5.9706 15.0578 5.50592 14.351 5.19166 13.5745C4.8774 12.7979 4.71977 11.9669 4.72783 11.1292C4.74959 9.40813 5.45316 7.76598 6.68418 6.56303C7.91519 5.36008 9.57312 4.69457 11.2942 4.71251C12.1324 4.72639 12.9596 4.90589 13.7282 5.24067C14.4968 5.57545 15.1916 6.0589 15.7726 6.66321C16.3536 7.26753 16.8094 7.98077 17.1137 8.7619C17.4181 9.54303 17.5649 10.3766 17.5459 11.2147Z" fill="#C6CAE6"/>
<path d="M14.7744 11.1658C14.8905 11.9969 14.3619 12.1222 13.7416 12.0366C12.4766 11.8594 11.7921 12.2169 12.0335 13.65C12.1466 14.313 12.0335 14.8172 11.1169 14.805C10.2002 14.7927 10.1574 14.1939 10.246 13.5827C10.4385 12.2505 9.83352 11.8716 8.61436 12.0275C8.05824 12.1008 7.48686 12.11 7.47769 11.2391C7.46852 10.3683 7.88102 10.1147 8.60519 10.2308C10.0107 10.46 10.4232 9.82747 10.243 8.53497C10.1513 7.88414 10.3957 7.48997 11.1596 7.46553C11.9235 7.44108 12.1496 7.87192 12.0427 8.51053C11.8074 9.95275 12.443 10.4264 13.8027 10.2278C14.4749 10.133 14.8844 10.3989 14.7744 11.1658Z" fill="#5F6BB2"/>
</svg>
