<svg width="24" height="24" viewBox="0 0 24 24" fill="none" xmlns="http://www.w3.org/2000/svg">
<g id="adobe">
<path id="primary" d="M2.00049 22.041C1.86906 22.0413 1.73887 22.0156 1.61739 21.9655C1.4959 21.9153 1.38551 21.8417 1.29255 21.7488C1.1996 21.6559 1.1259 21.5455 1.0757 21.4241C1.0255 21.3026 0.999771 21.1724 1 21.041V2.959C0.999967 2.82767 1.02581 2.69762 1.07605 2.57628C1.1263 2.45494 1.19995 2.34469 1.29282 2.25182C1.38568 2.15896 1.49594 2.0853 1.61728 2.03506C1.73862 1.98481 1.86867 1.95897 2 1.959H9.4248C9.58898 1.95908 9.75062 1.99955 9.89545 2.07685C10.0403 2.15416 10.1639 2.26592 10.2553 2.40228C10.3468 2.53863 10.4032 2.6954 10.4198 2.85874C10.4363 3.02208 10.4124 3.18698 10.3501 3.33889L2.92529 21.4209C2.84992 21.6043 2.72178 21.7611 2.55713 21.8715C2.39247 21.9819 2.19873 22.0409 2.00049 22.041ZM16.2437 22.041H13.6309C13.4464 22.041 13.2656 21.9901 13.1083 21.8937C12.9511 21.7974 12.8235 21.6594 12.7398 21.4951L11.2178 18.5049H8.96289C8.79941 18.5049 8.63842 18.4648 8.49402 18.3881C8.34962 18.3115 8.22621 18.2006 8.13461 18.0652C8.043 17.9298 7.98599 17.774 7.96857 17.6114C7.95115 17.4489 7.97384 17.2845 8.03467 17.1328L11.0938 9.501C11.168 9.31558 11.2962 9.15666 11.4616 9.04473C11.6271 8.9328 11.8222 8.87298 12.022 8.873H12.0318C12.2333 8.87494 12.4294 8.9377 12.5946 9.05306C12.7598 9.16842 12.8863 9.331 12.9576 9.51948L17.1792 20.6875C17.2364 20.8388 17.256 21.0018 17.2363 21.1624C17.2167 21.323 17.1583 21.4764 17.0663 21.6095C16.9743 21.7426 16.8514 21.8514 16.7081 21.9266C16.5649 22.0017 16.4055 22.041 16.2437 22.041H16.2437ZM21.9995 21.8086C21.8028 21.8085 21.6104 21.7504 21.4466 21.6415C21.2828 21.5326 21.1548 21.3777 21.0786 21.1963L13.561 3.34668C13.4971 3.1947 13.4717 3.02927 13.4872 2.86512C13.5026 2.70096 13.5585 2.54318 13.6497 2.40582C13.7409 2.26846 13.8646 2.15578 14.0099 2.07782C14.1552 1.99986 14.3175 1.95904 14.4824 1.95898H22C22.1313 1.95895 22.2614 1.98479 22.3827 2.03504C22.5041 2.08528 22.6143 2.15894 22.7072 2.2518C22.8001 2.34467 22.8737 2.45492 22.924 2.57626C22.9742 2.6976 23 2.82765 23 2.95898V20.8086C22.9999 21.0395 22.9199 21.2632 22.7737 21.4419C22.6275 21.6206 22.424 21.7432 22.1978 21.7891C22.1324 21.8018 22.0661 21.8084 21.9995 21.8086V21.8086Z" fill="#F9CA24"/>
</g>
</svg>
