<svg width="24" height="24" viewBox="0 0 24 24" fill="none" xmlns="http://www.w3.org/2000/svg">
<g id="airplay">
<path id="accent" d="M19 3H5C3.34315 3 2 4.34315 2 6V15C2 16.6569 3.34315 18 5 18H19C20.6569 18 22 16.6569 22 15V6C22 4.34315 20.6569 3 19 3Z" fill="#979797" fill-opacity="0.4"/>
<path id="primary" d="M16 21H8.00001C7.81901 21 7.64139 20.9509 7.48611 20.8579C7.33083 20.7649 7.20371 20.6315 7.11831 20.4719C7.0329 20.3123 6.99242 20.1325 7.00117 19.9517C7.00992 19.7709 7.06759 19.5959 7.16801 19.4453L11.168 13.4453C11.2646 13.3157 11.3901 13.2105 11.5346 13.1381C11.679 13.0656 11.8384 13.0278 12 13.0278C12.1617 13.0278 12.321 13.0656 12.4655 13.1381C12.6099 13.2105 12.7355 13.3157 12.8321 13.4453L16.8321 19.4453C16.9325 19.5959 16.9902 19.7709 16.9989 19.9517C17.0077 20.1325 16.9672 20.3123 16.8818 20.4719C16.7964 20.6315 16.6692 20.7649 16.5139 20.8579C16.3586 20.9509 16.181 21 16 21Z" fill="#F9CA24"/>
</g>
</svg>
