<svg width="24" height="24" viewBox="0 0 24 24" fill="none" xmlns="http://www.w3.org/2000/svg">
<g id="amazon">
<path id="primary" d="M1.04 17.52C1.10667 17.4133 1.21333 17.4067 1.36 17.5C4.66103 19.4247 8.41891 20.4264 12.24 20.4C14.8878 20.3935 17.5118 19.8986 19.98 18.94C20.0467 18.9133 20.1433 18.8733 20.27 18.82C20.3967 18.7667 20.4867 18.7267 20.54 18.7C20.619 18.6569 20.7114 18.6453 20.7986 18.6676C20.8858 18.6899 20.9613 18.7443 21.01 18.82C21.1233 18.98 21.0867 19.1267 20.9 19.26C20.66 19.4333 20.3533 19.6333 19.98 19.86C18.7795 20.5622 17.4871 21.094 16.14 21.44C14.79 21.8048 13.3984 21.9931 12 22C9.98223 22.0115 7.98045 21.6417 6.1 20.91C4.26791 20.1964 2.58056 19.1562 1.12 17.84C1.08647 17.8176 1.05831 17.788 1.03757 17.7534C1.01682 17.7189 1.00399 17.6801 1 17.64C1.001 17.5969 1.01494 17.5551 1.04 17.52ZM7.06 11.82C7.03602 10.9818 7.27369 10.1569 7.74 9.45999C8.20442 8.79772 8.85033 8.28376 9.6 7.97999C10.4524 7.63971 11.3474 7.41765 12.26 7.31999C12.62 7.27999 13.2067 7.22665 14.02 7.15999V6.81999C14.0705 6.23231 13.9743 5.64129 13.74 5.09999C13.5887 4.8965 13.3882 4.73472 13.1574 4.62979C12.9265 4.52486 12.6728 4.4802 12.42 4.49999H12.26C11.848 4.52959 11.4527 4.6752 11.12 4.91999C10.7967 5.16512 10.5758 5.52142 10.5 5.91999C10.4921 6.02963 10.4488 6.13374 10.3767 6.21669C10.3046 6.29963 10.2075 6.35694 10.1 6.37999L7.8 6.09999C7.57333 6.04665 7.46 5.92665 7.46 5.73999C7.461 5.69269 7.46772 5.64568 7.48 5.59999C7.55744 5.06737 7.74616 4.55702 8.03389 4.10217C8.32162 3.64731 8.70191 3.25814 9.15 2.95999C10.0841 2.37172 11.1569 2.04056 12.26 1.99999H12.76C14.0541 1.92221 15.3286 2.34465 16.32 3.17999C16.4538 3.31393 16.5775 3.45766 16.69 3.60999C16.7886 3.74081 16.8788 3.87775 16.96 4.01999C17.0426 4.18467 17.1031 4.3595 17.14 4.53999C17.1933 4.76665 17.2333 4.92332 17.26 5.00999C17.2984 5.19422 17.3185 5.3818 17.32 5.56999C17.3333 5.85665 17.34 6.02665 17.34 6.07999V10.92C17.3362 11.2428 17.3869 11.564 17.49 11.87C17.5575 12.0891 17.6551 12.2978 17.78 12.49C17.8733 12.6167 18.0267 12.82 18.24 13.1C18.3102 13.1927 18.3519 13.3039 18.36 13.42C18.3581 13.4761 18.3425 13.531 18.3146 13.5798C18.2867 13.6286 18.2474 13.6698 18.2 13.7C17.0933 14.66 16.4933 15.18 16.4 15.26C16.3164 15.3194 16.218 15.3546 16.1156 15.3617C16.0133 15.3687 15.911 15.3474 15.82 15.3C15.6333 15.14 15.47 14.9867 15.33 14.84C15.19 14.6933 15.09 14.5867 15.03 14.52C14.9263 14.3953 14.8295 14.2652 14.74 14.13C14.6067 13.9367 14.5133 13.8067 14.46 13.74C13.8814 14.4404 13.1198 14.9666 12.26 15.26C11.7122 15.4052 11.1466 15.4725 10.58 15.46C10.1164 15.477 9.65405 15.4017 9.21974 15.2387C8.78544 15.0756 8.38784 14.8279 8.05 14.51C7.70721 14.155 7.44214 13.7324 7.27169 13.2693C7.10124 12.8061 7.02915 12.3125 7.06 11.82ZM10.5 11.42C10.4773 11.8698 10.6156 12.3129 10.89 12.67C11.0169 12.824 11.1777 12.9466 11.3599 13.0281C11.542 13.1096 11.7406 13.1479 11.94 13.14C11.9971 13.1381 12.054 13.1314 12.11 13.12C12.1594 13.1096 12.2096 13.1029 12.26 13.1C12.5415 13.0238 12.8033 12.8879 13.0276 12.7015C13.2519 12.5152 13.4335 12.2827 13.56 12.02C13.7091 11.7605 13.8202 11.481 13.89 11.19C13.9536 10.9511 13.9938 10.7066 14.01 10.46C14.0167 10.2733 14.02 9.96665 14.02 9.53999V9.03999C13.429 9.02172 12.838 9.07545 12.26 9.19999C11.7468 9.29272 11.2851 9.56928 10.9611 9.9779C10.6372 10.3865 10.4732 10.8992 10.5 11.42ZM18.9 17.86C18.9312 17.8006 18.9717 17.7466 19.02 17.7C19.3115 17.4931 19.6361 17.3375 19.98 17.24C20.4633 17.1101 20.9599 17.0363 21.46 17.02C21.5869 17.0063 21.7152 17.0131 21.84 17.04C22.44 17.0933 22.8 17.1933 22.92 17.34C22.9806 17.4498 23.0084 17.5748 23 17.7V17.84C22.9775 18.4089 22.8486 18.9685 22.62 19.49C22.3975 20.0792 22.0334 20.6046 21.56 21.02C21.5106 21.066 21.4473 21.0942 21.38 21.1C21.3521 21.0997 21.3247 21.0928 21.3 21.08C21.22 21.04 21.2 20.9667 21.24 20.86C21.6196 20.1001 21.8697 19.2822 21.98 18.44C21.9893 18.3274 21.9612 18.2149 21.9 18.12C21.7667 17.96 21.3933 17.88 20.78 17.88C20.5533 17.88 20.2867 17.8933 19.98 17.92C19.6467 17.96 19.34 18 19.06 18.04C19.0036 18.0467 18.9466 18.0325 18.9 18C18.888 17.991 18.8794 17.9781 18.8758 17.9635C18.8721 17.949 18.8736 17.9336 18.88 17.92C18.8824 17.8988 18.8892 17.8784 18.9 17.86Z" fill="#F9CA24"/>
</g>
</svg>
