<svg width="24" height="24" viewBox="0 0 24 24" fill="none" xmlns="http://www.w3.org/2000/svg">
<g id="analysis">
<path id="primary" d="M14 16C13.8023 15.9999 13.609 15.9413 13.4445 15.8314C13.2801 15.7215 13.152 15.5653 13.0763 15.3826C13.0007 15.1999 12.9809 14.9989 13.0194 14.805C13.058 14.611 13.1532 14.4328 13.293 14.293L20.293 7.29299C20.4811 7.10828 20.7345 7.00532 20.9981 7.00651C21.2617 7.0077 21.5142 7.11295 21.7006 7.29936C21.887 7.48577 21.9923 7.73825 21.9935 8.00186C21.9947 8.26548 21.8917 8.5189 21.707 8.70699L14.707 15.707C14.6143 15.8 14.5041 15.8738 14.3827 15.924C14.2614 15.9743 14.1313 16.0001 14 16ZM3 17C2.80225 16.9999 2.60895 16.9413 2.44454 16.8314C2.28013 16.7215 2.15199 16.5653 2.07632 16.3826C2.00065 16.1999 1.98085 15.9989 2.01942 15.805C2.05798 15.611 2.15319 15.4328 2.293 15.293L8.293 9.29299C8.48109 9.10828 8.73451 9.00532 8.99812 9.00651C9.26174 9.0077 9.51422 9.11295 9.70063 9.29936C9.88703 9.48577 9.99228 9.73825 9.99348 10.0019C9.99467 10.2655 9.89171 10.5189 9.707 10.707L3.707 16.707C3.61427 16.8 3.50407 16.8738 3.38274 16.924C3.26141 16.9743 3.13134 17.0001 3 17Z" fill="#F9CA24"/>
<path id="primary_2" d="M14 16C13.8686 16.0001 13.7386 15.9743 13.6172 15.924C13.4959 15.8738 13.3857 15.8 13.293 15.707L8.29299 10.707C8.10828 10.5189 8.00532 10.2655 8.00651 10.0019C8.0077 9.73825 8.11295 9.48577 8.29936 9.29936C8.48577 9.11295 8.73825 9.0077 9.00186 9.00651C9.26548 9.00532 9.5189 9.10828 9.70699 9.29299L14.707 14.293C14.8468 14.4328 14.942 14.611 14.9806 14.805C15.0191 14.9989 14.9993 15.1999 14.9237 15.3826C14.848 15.5653 14.7199 15.7215 14.5554 15.8314C14.391 15.9413 14.1977 15.9999 14 16Z" fill="#F9CA24"/>
</g>
</svg>
