<svg width="24" height="24" viewBox="0 0 24 24" fill="none" xmlns="http://www.w3.org/2000/svg">
<g id="analytics">
<path id="primary" d="M5 22C4.86867 22 4.73862 21.9742 4.61728 21.9239C4.49594 21.8737 4.38568 21.8 4.29282 21.7072C4.19995 21.6143 4.12629 21.5041 4.07605 21.3827C4.02581 21.2614 3.99997 21.1313 4 21V13C4 12.7348 4.10536 12.4804 4.29289 12.2929C4.48043 12.1054 4.73478 12 5 12C5.26522 12 5.51957 12.1054 5.70711 12.2929C5.89464 12.4804 6 12.7348 6 13V21C6.00003 21.1313 5.97419 21.2614 5.92395 21.3827C5.87371 21.5041 5.80005 21.6143 5.70718 21.7072C5.61432 21.8 5.50406 21.8737 5.38272 21.9239C5.26138 21.9742 5.13133 22 5 22ZM10 22C9.86867 22 9.73862 21.9742 9.61728 21.9239C9.49593 21.8737 9.38568 21.8 9.29282 21.7072C9.19995 21.6143 9.12629 21.5041 9.07605 21.3827C9.02581 21.2614 8.99997 21.1313 9 21V3C9 2.73478 9.10536 2.48043 9.29289 2.29289C9.48043 2.10536 9.73478 2 10 2C10.2652 2 10.5196 2.10536 10.7071 2.29289C10.8946 2.48043 11 2.73478 11 3V21C11 21.1313 10.9742 21.2614 10.9239 21.3827C10.8737 21.5041 10.8 21.6143 10.7072 21.7072C10.6143 21.8 10.5041 21.8737 10.3827 21.9239C10.2614 21.9742 10.1313 22 10 22ZM15 22C14.8687 22 14.7386 21.9742 14.6173 21.9239C14.4959 21.8737 14.3857 21.8 14.2928 21.7072C14.2 21.6143 14.1263 21.5041 14.0761 21.3827C14.0258 21.2614 14 21.1313 14 21V9C14 8.73478 14.1054 8.48043 14.2929 8.29289C14.4804 8.10536 14.7348 8 15 8C15.2652 8 15.5196 8.10536 15.7071 8.29289C15.8946 8.48043 16 8.73478 16 9V21C16 21.1313 15.9742 21.2614 15.9239 21.3827C15.8737 21.5041 15.8 21.6143 15.7072 21.7072C15.6143 21.8 15.5041 21.8737 15.3827 21.9239C15.2614 21.9742 15.1313 22 15 22ZM20 22C19.8687 22 19.7386 21.9742 19.6173 21.9239C19.4959 21.8737 19.3857 21.8 19.2928 21.7072C19.2 21.6143 19.1263 21.5041 19.0761 21.3827C19.0258 21.2614 19 21.1313 19 21V17C19 16.7348 19.1054 16.4804 19.2929 16.2929C19.4804 16.1054 19.7348 16 20 16C20.2652 16 20.5196 16.1054 20.7071 16.2929C20.8946 16.4804 21 16.7348 21 17V21C21 21.1313 20.9742 21.2614 20.9239 21.3827C20.8737 21.5041 20.8 21.6143 20.7072 21.7072C20.6143 21.8 20.5041 21.8737 20.3827 21.9239C20.2614 21.9742 20.1313 22 20 22Z" fill="#F9CA24"/>
</g>
</svg>
