<svg width="24" height="24" viewBox="0 0 24 24" fill="none" xmlns="http://www.w3.org/2000/svg">
<g id="anchor">
<g id="primary">
<path d="M12 22C9.87901 21.9976 7.84559 21.1539 6.34583 19.6542C4.84606 18.1544 4.00243 16.121 4 14C4 13.7348 4.10536 13.4804 4.29289 13.2929C4.48043 13.1054 4.73478 13 5 13C5.26522 13 5.51957 13.1054 5.70711 13.2929C5.89464 13.4804 6 13.7348 6 14C6 15.5913 6.63214 17.1174 7.75736 18.2426C8.88258 19.3679 10.4087 20 12 20C13.5913 20 15.1174 19.3679 16.2426 18.2426C17.3679 17.1174 18 15.5913 18 14C18 13.7348 18.1054 13.4804 18.2929 13.2929C18.4804 13.1054 18.7348 13 19 13C19.2652 13 19.5196 13.1054 19.7071 13.2929C19.8946 13.4804 20 13.7348 20 14C19.9976 16.121 19.1539 18.1544 17.6542 19.6542C16.1544 21.1539 14.121 21.9976 12 22Z" fill="#F9CA24"/>
<path d="M12 22C11.8687 22 11.7386 21.9742 11.6173 21.924C11.4959 21.8737 11.3857 21.8001 11.2928 21.7072C11.2 21.6143 11.1263 21.5041 11.0761 21.3827C11.0258 21.2614 11 21.1313 11 21V7C11 6.73478 11.1054 6.48043 11.2929 6.29289C11.4804 6.10536 11.7348 6 12 6C12.2652 6 12.5196 6.10536 12.7071 6.29289C12.8946 6.48043 13 6.73478 13 7V21C13 21.1313 12.9742 21.2614 12.9239 21.3827C12.8737 21.5041 12.8 21.6143 12.7072 21.7072C12.6143 21.8001 12.5041 21.8737 12.3827 21.924C12.2614 21.9742 12.1313 22 12 22ZM7 15H5C4.73478 15 4.48043 14.8946 4.29289 14.7071C4.10536 14.5196 4 14.2652 4 14C4 13.7348 4.10536 13.4804 4.29289 13.2929C4.48043 13.1054 4.73478 13 5 13H7C7.26522 13 7.51957 13.1054 7.70711 13.2929C7.89464 13.4804 8 13.7348 8 14C8 14.2652 7.89464 14.5196 7.70711 14.7071C7.51957 14.8946 7.26522 15 7 15ZM19 15H17C16.7348 15 16.4804 14.8946 16.2929 14.7071C16.1054 14.5196 16 14.2652 16 14C16 13.7348 16.1054 13.4804 16.2929 13.2929C16.4804 13.1054 16.7348 13 17 13H19C19.2652 13 19.5196 13.1054 19.7071 13.2929C19.8946 13.4804 20 13.7348 20 14C20 14.2652 19.8946 14.5196 19.7071 14.7071C19.5196 14.8946 19.2652 15 19 15Z" fill="#F9CA24"/>
<path d="M14 11H10C9.73478 11 9.48043 10.8946 9.29289 10.7071C9.10536 10.5196 9 10.2652 9 10C9 9.73478 9.10536 9.48043 9.29289 9.29289C9.48043 9.10536 9.73478 9 10 9H14C14.2652 9 14.5196 9.10536 14.7071 9.29289C14.8946 9.48043 15 9.73478 15 10C15 10.2652 14.8946 10.5196 14.7071 10.7071C14.5196 10.8946 14.2652 11 14 11ZM12 8C11.4067 8 10.8266 7.82405 10.3333 7.49441C9.83994 7.16477 9.45542 6.69623 9.22836 6.14805C9.0013 5.59987 8.94189 4.99667 9.05764 4.41473C9.1734 3.83279 9.45912 3.29824 9.87868 2.87868C10.2982 2.45912 10.8328 2.1734 11.4147 2.05765C11.9967 1.94189 12.5999 2.0013 13.1481 2.22836C13.6962 2.45543 14.1648 2.83994 14.4944 3.33329C14.8241 3.82664 15 4.40666 15 5C14.9991 5.79538 14.6828 6.55794 14.1204 7.12036C13.5579 7.68278 12.7954 7.99913 12 8ZM12 4C11.8022 4 11.6089 4.05865 11.4444 4.16853C11.28 4.27841 11.1518 4.43459 11.0761 4.61732C11.0004 4.80004 10.9806 5.00111 11.0192 5.19509C11.0578 5.38907 11.153 5.56726 11.2929 5.70711C11.4327 5.84696 11.6109 5.9422 11.8049 5.98079C11.9989 6.01937 12.2 5.99957 12.3827 5.92388C12.5654 5.84819 12.7216 5.72002 12.8315 5.55557C12.9414 5.39112 13 5.19778 13 5C12.9997 4.73487 12.8943 4.48067 12.7068 4.29319C12.5193 4.10571 12.2651 4.00027 12 4Z" fill="#F9CA24"/>
</g>
</g>
</svg>
