<svg width="24" height="24" viewBox="0 0 24 24" fill="none" xmlns="http://www.w3.org/2000/svg">
<g id="android_alt">
<path id="primary" d="M16.2 4.69999L16.9 3.49999C17.1 2.99999 17 2.39999 16.5 2.09999C16 1.89999 15.4 1.99999 15.1 2.49999L14.5 3.59999C15.1 3.79999 15.7 4.19999 16.2 4.69999ZM7.79999 4.69999C8.29999 4.19999 8.79999 3.89999 9.49999 3.59999L8.89999 2.49999C8.59999 1.99999 7.99999 1.89999 7.49999 2.09999C6.99999 2.29999 6.89999 2.99999 7.09999 3.49999L7.79999 4.69999Z" fill="#F9CA24"/>
<path id="primary_2" d="M18 9H6V11H18V9Z" fill="#F9CA24"/>
<g id="Group">
<path id="accent" d="M12 3C8.7 3 6 5.7 6 9H18C18 5.7 15.3 3 12 3ZM21 9C20.4 9 20 9.4 20 10V14C20 14.6 20.4 15 21 15C21.6 15 22 14.6 22 14V10C22 9.4 21.6 9 21 9ZM3 9C2.4 9 2 9.4 2 10V14C2 14.6 2.4 15 3 15C3.6 15 4 14.6 4 14V10C4 9.4 3.6 9 3 9ZM6 17C6 17.6 6.4 18 7 18H9V21C9 21.6 9.4 22 10 22C10.6 22 11 21.6 11 21V18H13V21C13 21.6 13.4 22 14 22C14.6 22 15 21.6 15 21V18H17C17.6 18 18 17.6 18 17V11H6V17Z" fill="#979797" fill-opacity="0.4"/>
</g>
</g>
</svg>
