<svg width="24" height="24" viewBox="0 0 24 24" fill="none" xmlns="http://www.w3.org/2000/svg">
<g id="android">
<path id="primary" d="M14.9753 3.01885L15.9351 1.28726C15.9475 1.26505 15.9553 1.24062 15.9582 1.21539C15.961 1.19015 15.9589 1.16459 15.9519 1.14018C15.9449 1.11576 15.9332 1.09296 15.9174 1.07308C15.9016 1.0532 15.882 1.03663 15.8598 1.02432C15.8149 0.999445 15.762 0.993414 15.7127 1.00755C15.6634 1.02169 15.6217 1.05484 15.5968 1.0997L14.6264 2.85048C13.7984 2.48749 12.9041 2.30008 12 2.30008C11.0959 2.30008 10.2016 2.48749 9.37362 2.85048L8.40314 1.0997C8.37827 1.05484 8.33659 1.02169 8.28728 1.00755C8.23797 0.993414 8.18506 0.999445 8.14019 1.02432C8.09533 1.04919 8.06218 1.09086 8.04804 1.14018C8.03391 1.18949 8.03994 1.2424 8.06481 1.28726L9.02466 3.01886C8.11099 3.46923 7.339 4.16253 6.79337 5.02271C6.24774 5.8829 5.94955 6.87673 5.9315 7.89521H18.0685C18.0504 6.87673 17.7523 5.88289 17.2066 5.02271C16.661 4.16252 15.889 3.46922 14.9753 3.01885ZM5.93141 17.1715C5.93141 17.5606 6.08598 17.9337 6.36112 18.2089C6.63626 18.484 7.00943 18.6386 7.39854 18.6386H8.37214V21.6395C8.37165 21.8185 8.40649 21.9958 8.47464 22.1613C8.54279 22.3268 8.64292 22.4772 8.7693 22.6039C8.89568 22.7306 9.04582 22.8312 9.21112 22.8998C9.37642 22.9684 9.55363 23.0037 9.73259 23.0037C9.91156 23.0037 10.0888 22.9684 10.2541 22.8998C10.4194 22.8312 10.5695 22.7306 10.6959 22.6039C10.8223 22.4772 10.9224 22.3268 10.9906 22.1613C11.0587 21.9958 11.0935 21.8185 11.093 21.6395V18.6386H12.9069V21.6395C12.9064 21.8185 12.9413 21.9958 13.0094 22.1613C13.0776 22.3268 13.1777 22.4772 13.3041 22.6039C13.4304 22.7306 13.5806 22.8312 13.7459 22.8998C13.9112 22.9684 14.0884 23.0037 14.2674 23.0037C14.4463 23.0037 14.6235 22.9684 14.7888 22.8998C14.9541 22.8312 15.1043 22.7306 15.2307 22.6039C15.357 22.4772 15.4572 22.3268 15.5253 22.1613C15.5935 21.9958 15.6283 21.8185 15.6278 21.6395V18.6386H16.6015C16.9906 18.6386 17.3637 18.484 17.6389 18.2089C17.914 17.9337 18.0686 17.5606 18.0686 17.1715V8.37531H5.93141V17.1715ZM4.06413 8.1419C3.70344 8.14231 3.35764 8.28578 3.1026 8.54083C2.84755 8.79587 2.70409 9.14167 2.70368 9.50236V15.1708C2.70319 15.3498 2.73803 15.5271 2.80618 15.6926C2.87433 15.8581 2.97446 16.0085 3.10084 16.1352C3.22722 16.2619 3.37736 16.3625 3.54266 16.4311C3.70796 16.4997 3.88517 16.535 4.06413 16.535C4.2431 16.535 4.42031 16.4997 4.58561 16.4311C4.75091 16.3625 4.90105 16.2619 5.02743 16.1352C5.15381 16.0085 5.25394 15.8581 5.32209 15.6926C5.39024 15.5271 5.42507 15.3498 5.42459 15.1708V9.50236C5.42418 9.14167 5.28072 8.79587 5.02567 8.54082C4.77062 8.28577 4.42482 8.14231 4.06413 8.1419ZM19.9358 8.1419C19.5751 8.14231 19.2293 8.28577 18.9743 8.54082C18.7192 8.79587 18.5758 9.14167 18.5754 9.50236V15.1708C18.5749 15.3498 18.6097 15.5271 18.6779 15.6926C18.746 15.8581 18.8462 16.0085 18.9725 16.1352C19.0989 16.2619 19.249 16.3625 19.4143 16.4311C19.5796 16.4997 19.7569 16.535 19.9358 16.535C20.1148 16.535 20.292 16.4997 20.4573 16.4311C20.6226 16.3625 20.7727 16.2619 20.8991 16.1352C21.0255 16.0085 21.1256 15.8581 21.1938 15.6926C21.2619 15.5271 21.2968 15.3498 21.2963 15.1708V9.50236C21.2959 9.14167 21.1524 8.79587 20.8974 8.54083C20.6423 8.28578 20.2965 8.14231 19.9358 8.1419Z" fill="#F9CA24"/>
<g id="accent">
<path d="M9.19902 5.67501C9.47902 5.67501 9.70602 5.44802 9.70602 5.16801C9.70602 4.888 9.47902 4.66101 9.19902 4.66101C8.91901 4.66101 8.69202 4.888 8.69202 5.16801C8.69202 5.44802 8.91901 5.67501 9.19902 5.67501Z" fill="#979797" fill-opacity="0.4"/>
<path d="M14.801 5.67501C15.081 5.67501 15.308 5.44802 15.308 5.16801C15.308 4.888 15.081 4.66101 14.801 4.66101C14.521 4.66101 14.294 4.888 14.294 5.16801C14.294 5.44802 14.521 5.67501 14.801 5.67501Z" fill="#979797" fill-opacity="0.4"/>
</g>
</g>
</svg>
