<svg width="24" height="24" viewBox="0 0 24 24" fill="none" xmlns="http://www.w3.org/2000/svg">
<g id="angle_double_down">
<path id="primary" d="M12 11.75C11.8687 11.7501 11.7386 11.7243 11.6173 11.674C11.4959 11.6238 11.3857 11.55 11.293 11.457L8.29302 8.45699C8.10831 8.2689 8.00535 8.01548 8.00654 7.75186C8.00773 7.48825 8.11299 7.23577 8.29939 7.04936C8.4858 6.86296 8.73828 6.75771 9.00189 6.75651C9.26551 6.75532 9.51893 6.85828 9.70702 7.04299L12 9.33593L14.293 7.04293C14.4809 6.85737 14.7346 6.75369 14.9987 6.75452C15.2628 6.75536 15.5159 6.86064 15.7026 7.04739C15.8894 7.23414 15.9946 7.48719 15.9955 7.75128C15.9963 8.01538 15.8926 8.26907 15.707 8.45699L12.707 11.457C12.6143 11.55 12.5041 11.6238 12.3828 11.674C12.2614 11.7243 12.1314 11.7501 12 11.75ZM12 17.25C11.8687 17.2501 11.7386 17.2243 11.6173 17.174C11.4959 17.1238 11.3857 17.05 11.293 16.957L8.29302 13.957C8.10831 13.7689 8.00535 13.5155 8.00654 13.2519C8.00773 12.9882 8.11299 12.7358 8.29939 12.5494C8.4858 12.363 8.73828 12.2577 9.00189 12.2565C9.26551 12.2553 9.51893 12.3583 9.70702 12.543L12 14.8359L14.293 12.5429C14.4809 12.3574 14.7346 12.2537 14.9987 12.2545C15.2628 12.2554 15.5159 12.3606 15.7026 12.5474C15.8894 12.7341 15.9946 12.9872 15.9955 13.2513C15.9963 13.5154 15.8926 13.7691 15.707 13.957L12.707 16.957C12.6143 17.05 12.5041 17.1238 12.3828 17.174C12.2614 17.2243 12.1314 17.2501 12 17.25Z" fill="#F9CA24"/>
</g>
</svg>
