<svg width="24" height="24" viewBox="0 0 24 24" fill="none" xmlns="http://www.w3.org/2000/svg">
<g id="angle_left">
<path id="primary" d="M14.1211 17.2427C13.9898 17.2428 13.8597 17.217 13.7383 17.1667C13.617 17.1164 13.5068 17.0427 13.4141 16.9497L9.17188 12.707C9.079 12.6142 9.00532 12.5039 8.95505 12.3826C8.90478 12.2613 8.87891 12.1313 8.87891 12C8.87891 11.8686 8.90478 11.7386 8.95505 11.6173C9.00532 11.496 9.079 11.3858 9.17188 11.2929L13.4141 7.05025C13.6016 6.86273 13.8559 6.75738 14.1211 6.75739C14.3863 6.75739 14.6406 6.86273 14.8281 7.05025C15.0156 7.23777 15.121 7.4921 15.121 7.75728C15.121 8.02247 15.0156 8.2768 14.8281 8.46431L11.293 12L14.8281 15.5356C14.968 15.6755 15.0632 15.8536 15.1017 16.0476C15.1403 16.2415 15.1205 16.4426 15.0448 16.6253C14.9692 16.808 14.841 16.9641 14.6766 17.074C14.5122 17.1839 14.3189 17.2426 14.1212 17.2426L14.1211 17.2427Z" fill="#F9CA24"/>
</g>
</svg>
