<svg width="24" height="24" viewBox="0 0 24 24" fill="none" xmlns="http://www.w3.org/2000/svg">
<g id="angle_up">
<path id="primary" d="M16.2427 15.1211C16.1113 15.1212 15.9813 15.0954 15.8599 15.0451C15.7386 14.9949 15.6284 14.9211 15.5357 14.8281L12 11.293L8.46435 14.8281C8.27683 15.0156 8.0225 15.121 7.75731 15.121C7.49213 15.121 7.2378 15.0156 7.05028 14.8281C6.86276 14.6406 6.75742 14.3863 6.75742 14.1211C6.75741 13.8559 6.86276 13.6016 7.05028 13.4141L11.293 9.17188C11.3858 9.079 11.496 9.00532 11.6174 8.95505C11.7387 8.90478 11.8687 8.87891 12 8.87891C12.1313 8.87891 12.2614 8.90478 12.3827 8.95505C12.504 9.00532 12.6142 9.079 12.707 9.17188L16.9497 13.4141C17.0895 13.5539 17.1847 13.7321 17.2233 13.926C17.2619 14.12 17.2421 14.321 17.1664 14.5037C17.0907 14.6864 16.9626 14.8426 16.7982 14.9525C16.6338 15.0623 16.4405 15.121 16.2427 15.1211L16.2427 15.1211Z" fill="#F9CA24"/>
</g>
</svg>
