<svg width="24" height="24" viewBox="0 0 24 24" fill="none" xmlns="http://www.w3.org/2000/svg">
<g id="angle_double_right">
<path id="primary" d="M7.74997 16C7.55222 15.9999 7.35892 15.9413 7.19451 15.8314C7.0301 15.7215 6.90196 15.5653 6.82629 15.3826C6.75062 15.1999 6.73082 14.9989 6.76939 14.805C6.80795 14.611 6.90316 14.4328 7.04297 14.293L9.33591 12L7.04297 9.70699C6.85826 9.5189 6.7553 9.26548 6.75649 9.00186C6.75769 8.73825 6.86294 8.48577 7.04934 8.29936C7.23575 8.11295 7.48823 8.0077 7.75185 8.00651C8.01546 8.00532 8.26888 8.10828 8.45697 8.29299L11.457 11.293C11.5499 11.3858 11.6235 11.496 11.6738 11.6174C11.7241 11.7387 11.7499 11.8687 11.7499 12C11.7499 12.1313 11.7241 12.2614 11.6738 12.3827C11.6235 12.504 11.5499 12.6142 11.457 12.707L8.45697 15.707C8.36423 15.8 8.25404 15.8738 8.1327 15.9241C8.01137 15.9743 7.8813 16.0001 7.74997 16ZM13.25 16C13.0522 15.9999 12.8589 15.9413 12.6945 15.8314C12.5301 15.7215 12.402 15.5653 12.3263 15.3826C12.2506 15.1999 12.2308 14.9989 12.2694 14.805C12.308 14.611 12.4032 14.4328 12.543 14.293L14.8359 12L12.543 9.70699C12.3583 9.5189 12.2553 9.26548 12.2565 9.00186C12.2577 8.73825 12.3629 8.48577 12.5493 8.29936C12.7358 8.11295 12.9882 8.0077 13.2518 8.00651C13.5155 8.00532 13.7689 8.10828 13.957 8.29299L16.957 11.293C17.0499 11.3858 17.1235 11.496 17.1738 11.6174C17.2241 11.7387 17.2499 11.8687 17.2499 12C17.2499 12.1313 17.2241 12.2614 17.1738 12.3827C17.1235 12.504 17.0499 12.6142 16.957 12.707L13.957 15.707C13.8642 15.8 13.754 15.8738 13.6327 15.9241C13.5114 15.9743 13.3813 16.0001 13.25 16Z" fill="#F9CA24"/>
</g>
</svg>
