<svg width="24" height="24" viewBox="0 0 24 24" fill="none" xmlns="http://www.w3.org/2000/svg">
<g id="angle_down">
<path id="primary" d="M12 15.1211C11.8687 15.1213 11.7386 15.0954 11.6173 15.0452C11.4959 14.9949 11.3857 14.9211 11.293 14.8281L7.05031 10.586C6.86279 10.3984 6.75745 10.1441 6.75745 9.87892C6.75745 9.61373 6.86279 9.3594 7.05031 9.17189C7.23783 8.98437 7.49216 8.87903 7.75734 8.87903C8.02253 8.87903 8.27686 8.98437 8.46438 9.17189L12 12.707L15.5357 9.17186C15.7232 8.98435 15.9775 8.879 16.2427 8.879C16.5079 8.879 16.7622 8.98434 16.9497 9.17186C17.1372 9.35937 17.2426 9.6137 17.2426 9.87889C17.2426 10.1441 17.1372 10.3984 16.9497 10.5859L12.707 14.8281C12.6143 14.9211 12.5041 14.9949 12.3828 15.0452C12.2614 15.0955 12.1314 15.1213 12 15.1211Z" fill="#F9CA24"/>
</g>
</svg>
