<svg width="24" height="24" viewBox="0 0 24 24" fill="none" xmlns="http://www.w3.org/2000/svg">
<g id="angle_right_b">
<path id="primary" d="M9.1719 18.6567C8.97415 18.6567 8.78085 18.598 8.61644 18.4881C8.45203 18.3782 8.32389 18.2221 8.24822 18.0394C8.17255 17.8567 8.15275 17.6556 8.19131 17.4617C8.22988 17.2677 8.32509 17.0896 8.4649 16.9497L13.4141 12L8.46486 7.05028C8.27734 6.86276 8.172 6.60843 8.172 6.34324C8.172 6.07806 8.27734 5.82373 8.46486 5.63621C8.65238 5.4487 8.90671 5.34335 9.1719 5.34335C9.43708 5.34335 9.69141 5.4487 9.87893 5.63622L15.5352 11.293C15.6281 11.3858 15.7017 11.496 15.752 11.6174C15.8023 11.7387 15.8281 11.8687 15.8281 12C15.8281 12.1313 15.8023 12.2614 15.752 12.3827C15.7017 12.504 15.6281 12.6142 15.5352 12.707L9.87893 18.3638C9.78619 18.4568 9.67599 18.5305 9.55465 18.5808C9.43331 18.6311 9.30324 18.6569 9.1719 18.6567Z" fill="#F9CA24"/>
</g>
</svg>
