<svg width="24" height="24" viewBox="0 0 24 24" fill="none" xmlns="http://www.w3.org/2000/svg">
<g id="angle_right">
<path id="primary" d="M9.87892 17.2427C9.68117 17.2426 9.48788 17.184 9.32347 17.0741C9.15906 16.9642 9.03092 16.808 8.95525 16.6253C8.87957 16.4426 8.85977 16.2416 8.89834 16.0476C8.93691 15.8537 9.03211 15.6755 9.17192 15.5357L12.707 12L9.17189 8.46435C8.98438 8.27683 8.87903 8.0225 8.87903 7.75731C8.87903 7.49213 8.98437 7.2378 9.17189 7.05028C9.3594 6.86276 9.61373 6.75742 9.87892 6.75742C10.1441 6.75741 10.3984 6.86276 10.586 7.05028L14.8281 11.293C14.921 11.3858 14.9947 11.496 15.045 11.6174C15.0952 11.7387 15.1211 11.8687 15.1211 12C15.1211 12.1313 15.0952 12.2614 15.045 12.3827C14.9947 12.504 14.921 12.6142 14.8281 12.707L10.586 16.9497C10.4932 17.0427 10.383 17.1165 10.2617 17.1668C10.1403 17.217 10.0103 17.2428 9.87892 17.2427Z" fill="#F9CA24"/>
</g>
</svg>
