<svg width="24" height="24" viewBox="0 0 24 24" fill="none" xmlns="http://www.w3.org/2000/svg">
<g id="angle_double_left">
<path id="primary" d="M16.25 16C16.1186 16.0001 15.9886 15.9743 15.8672 15.924C15.7459 15.8738 15.6357 15.8 15.543 15.707L12.543 12.707C12.4501 12.6142 12.3764 12.5039 12.3261 12.3826C12.2759 12.2613 12.25 12.1313 12.25 12C12.25 11.8686 12.2759 11.7386 12.3261 11.6173C12.3764 11.496 12.4501 11.3858 12.543 11.2929L15.543 8.29293C15.7309 8.10737 15.9846 8.00369 16.2487 8.00452C16.5128 8.00536 16.7658 8.11064 16.9526 8.29739C17.1393 8.48414 17.2446 8.73719 17.2454 9.00128C17.2462 9.26538 17.1425 9.51908 16.957 9.70699L14.664 12L16.957 14.293C17.0968 14.4328 17.1921 14.611 17.2306 14.805C17.2692 14.9989 17.2494 15.2 17.1737 15.3827C17.098 15.5654 16.9699 15.7215 16.8055 15.8314C16.641 15.9413 16.4477 16 16.25 16ZM10.75 16C10.6186 16.0001 10.4886 15.9743 10.3672 15.924C10.2459 15.8738 10.1357 15.8 10.043 15.707L7.04297 12.707C6.95009 12.6142 6.87641 12.5039 6.82614 12.3826C6.77587 12.2613 6.75 12.1313 6.75 12C6.75 11.8686 6.77587 11.7386 6.82614 11.6173C6.87641 11.496 6.95009 11.3858 7.04297 11.2929L10.043 8.29293C10.2309 8.10737 10.4846 8.00369 10.7487 8.00452C11.0128 8.00536 11.2658 8.11064 11.4526 8.29739C11.6393 8.48414 11.7446 8.73719 11.7454 9.00128C11.7462 9.26538 11.6425 9.51908 11.457 9.70699L9.16403 12L11.457 14.293C11.5968 14.4328 11.6921 14.611 11.7306 14.805C11.7692 14.9989 11.7494 15.2 11.6737 15.3827C11.598 15.5654 11.4699 15.7215 11.3055 15.8314C11.141 15.9413 10.9477 16 10.75 16Z" fill="#F9CA24"/>
</g>
</svg>
