<svg width="24" height="24" viewBox="0 0 24 24" fill="none" xmlns="http://www.w3.org/2000/svg">
<g id="angle_double_up">
<path id="primary" d="M15 17.25C14.8687 17.2502 14.7386 17.2243 14.6173 17.1741C14.4959 17.1238 14.3857 17.05 14.293 16.957L12 14.6641L9.70702 16.957C9.51893 17.1417 9.26551 17.2447 9.00189 17.2435C8.73828 17.2423 8.4858 17.137 8.29939 16.9506C8.11299 16.7642 8.00773 16.5117 8.00654 16.2481C8.00535 15.9845 8.10831 15.7311 8.29302 15.543L11.293 12.543C11.3858 12.4501 11.4961 12.3764 11.6174 12.3262C11.7387 12.2759 11.8687 12.25 12 12.25C12.1314 12.25 12.2614 12.2759 12.3827 12.3262C12.504 12.3764 12.6142 12.4501 12.7071 12.543L15.7071 15.543C15.8469 15.6829 15.9421 15.861 15.9807 16.055C16.0192 16.2489 15.9994 16.45 15.9237 16.6327C15.8481 16.8154 15.7199 16.9716 15.5555 17.0814C15.3911 17.1913 15.1978 17.25 15 17.25ZM15 11.75C14.8687 11.7502 14.7386 11.7243 14.6173 11.6741C14.4959 11.6238 14.3857 11.55 14.293 11.457L12 9.16406L9.70702 11.457C9.51893 11.6417 9.26551 11.7447 9.00189 11.7435C8.73828 11.7423 8.4858 11.637 8.29939 11.4506C8.11299 11.2642 8.00773 11.0117 8.00654 10.7481C8.00535 10.4845 8.10831 10.2311 8.29302 10.043L11.293 7.043C11.3858 6.95012 11.4961 6.87644 11.6174 6.82617C11.7387 6.7759 11.8687 6.75003 12 6.75003C12.1314 6.75003 12.2614 6.7759 12.3827 6.82617C12.504 6.87644 12.6142 6.95012 12.7071 7.043L15.7071 10.043C15.8469 10.1829 15.9421 10.361 15.9807 10.555C16.0192 10.7489 15.9994 10.95 15.9237 11.1327C15.8481 11.3154 15.7199 11.4716 15.5555 11.5814C15.3911 11.6913 15.1978 11.75 15 11.75Z" fill="#F9CA24"/>
</g>
</svg>
