<svg width="24" height="24" viewBox="0 0 24 24" fill="none" xmlns="http://www.w3.org/2000/svg">
<g id="apple_alt">
<g id="Brand Logos">
<g id="primary">
<path d="M17.5941 12.6254C17.603 11.86 17.8059 11.1094 18.1839 10.4438C18.5619 9.77824 19.1027 9.2195 19.7555 8.81989C19.3405 8.22904 18.7943 7.74242 18.1596 7.39821C17.5249 7.054 16.8191 6.86158 16.0975 6.83606C14.5398 6.67816 13.0581 7.75299 12.2689 7.75299C11.4791 7.75299 10.2599 6.85925 8.96805 6.88391C8.12022 6.90748 7.29306 7.1509 6.56761 7.59032C5.84215 8.02973 5.2433 8.65008 4.82972 9.39056C3.06733 12.4507 4.37983 16.9843 6.09736 19.4673C6.93781 20.6812 7.93964 22.0485 9.25513 21.9987C10.5228 21.9488 11.0013 21.1799 12.5319 21.1799C14.0629 21.1799 14.4935 21.9987 15.8326 21.9739C17.1956 21.9488 18.0606 20.735 18.8943 19.5165C19.491 18.6404 19.9572 17.6822 20.2784 16.6721C19.4848 16.3331 18.8078 15.7694 18.3308 15.0503C17.8538 14.3312 17.5977 13.4883 17.5941 12.6254Z" fill="#F9CA24"/>
<path d="M15.2159 5.04C16.1735 3.92124 16.6482 2.46833 16.5359 1C15.0928 1.13974 13.7581 1.82679 12.8059 2.92L12.7855 2.96688C11.828 4.08564 11.3532 5.53855 11.4655 7.00688C12.9086 6.86714 14.2433 6.18009 15.1955 5.08688L15.2159 5.04Z" fill="#F9CA24"/>
</g>
</g>
</g>
</svg>
