<svg width="24" height="24" viewBox="0 0 24 24" fill="none" xmlns="http://www.w3.org/2000/svg">
<g id="arrow_circle_up">
<path id="primary" d="M16.707 11.293L12.7073 7.29332C12.5193 7.1065 12.265 7.00165 12 7.00165C11.7349 7.00165 11.4807 7.1065 11.2926 7.29332L7.29302 11.293C7.10831 11.4811 7.00535 11.7345 7.00654 11.9981C7.00773 12.2618 7.11299 12.5142 7.29939 12.7006C7.4858 12.887 7.73828 12.9923 8.00189 12.9935C8.26551 12.9947 8.51893 12.8917 8.70702 12.707L11 10.4141V16C11 16.2652 11.1054 16.5196 11.2929 16.7071C11.4804 16.8947 11.7348 17 12 17C12.2652 17 12.5196 16.8947 12.7071 16.7071C12.8947 16.5196 13 16.2652 13 16V10.4141L15.293 12.7071C15.4809 12.8926 15.7346 12.9963 15.9987 12.9955C16.2628 12.9946 16.5159 12.8894 16.7026 12.7026C16.8894 12.5159 16.9946 12.2628 16.9955 11.9987C16.9963 11.7346 16.8926 11.4809 16.707 11.293Z" fill="#F9CA24"/>
<path id="accent" d="M12 2C10.0222 2 8.08879 2.58649 6.4443 3.6853C4.79981 4.78412 3.51809 6.3459 2.76121 8.17317C2.00433 10.0004 1.8063 12.0111 2.19215 13.9509C2.578 15.8907 3.53041 17.6725 4.92894 19.0711C6.32746 20.4696 8.10929 21.422 10.0491 21.8079C11.9889 22.1937 13.9996 21.9957 15.8268 21.2388C17.6541 20.4819 19.2159 19.2002 20.3147 17.5557C21.4135 15.9112 22 13.9778 22 12C21.9971 9.34874 20.9425 6.80691 19.0678 4.93219C17.1931 3.05746 14.6513 2.00295 12 2V2ZM16.707 12.707C16.6142 12.7999 16.504 12.8736 16.3826 12.9238C16.2613 12.9741 16.1313 13 16 13C15.8687 13 15.7386 12.9741 15.6173 12.9238C15.496 12.8736 15.3858 12.7999 15.2929 12.707L13 10.4141V16C13 16.2652 12.8946 16.5196 12.7071 16.7071C12.5196 16.8946 12.2652 17 12 17C11.7348 17 11.4804 16.8946 11.2929 16.7071C11.1054 16.5196 11 16.2652 11 16V10.4141L8.707 12.707C8.51892 12.8917 8.2655 12.9947 8.00188 12.9935C7.73826 12.9923 7.48579 12.887 7.29938 12.7006C7.11297 12.5142 7.00772 12.2617 7.00653 11.9981C7.00533 11.7345 7.10829 11.4811 7.293 11.293L11.2927 7.2933C11.4807 7.10648 11.735 7.00163 12 7.00163C12.2651 7.00163 12.5194 7.10648 12.7074 7.2933L16.707 11.293C16.7999 11.3858 16.8735 11.496 16.9238 11.6174C16.9741 11.7387 16.9999 11.8687 16.9999 12C16.9999 12.1313 16.9741 12.2613 16.9238 12.3826C16.8735 12.504 16.7999 12.6142 16.707 12.707V12.707Z" fill="#979797" fill-opacity="0.4"/>
</g>
</svg>
