<svg width="24" height="24" viewBox="0 0 24 24" fill="none" xmlns="http://www.w3.org/2000/svg">
<g id="arrow_up_left">
<path id="primary" d="M7 18C6.73478 18 6.48043 17.8946 6.29289 17.7071C6.10536 17.5196 6 17.2652 6 17V7C6 6.73478 6.10536 6.48043 6.29289 6.29289C6.48043 6.10536 6.73478 6 7 6H17C17.2652 6 17.5196 6.10536 17.7071 6.29289C17.8946 6.48043 18 6.73478 18 7C18 7.26522 17.8946 7.51957 17.7071 7.70711C17.5196 7.89464 17.2652 8 17 8H8V17C8 17.2652 7.89464 17.5196 7.70711 17.7071C7.51957 17.8946 7.26522 18 7 18Z" fill="#F9CA24"/>
<path id="primary_2" d="M17 18C16.8687 18.0001 16.7386 17.9743 16.6173 17.924C16.4959 17.8738 16.3857 17.8 16.293 17.707L6.29302 7.70699C6.10831 7.5189 6.00535 7.26548 6.00654 7.00186C6.00773 6.73825 6.11299 6.48577 6.29939 6.29936C6.4858 6.11295 6.73828 6.0077 7.00189 6.00651C7.26551 6.00532 7.51893 6.10828 7.70702 6.29299L17.707 16.293C17.8468 16.4328 17.942 16.611 17.9806 16.805C18.0192 16.9989 17.9994 17.1999 17.9237 17.3826C17.848 17.5653 17.7199 17.7215 17.5555 17.8314C17.3911 17.9413 17.1978 17.9999 17 18Z" fill="#F9CA24"/>
</g>
</svg>
