<svg width="24" height="24" viewBox="0 0 24 24" fill="none" xmlns="http://www.w3.org/2000/svg">
<g id="arrow_circle_down">
<path id="primary" d="M7.29302 12.707L11.2927 16.7067C11.4807 16.8935 11.735 16.9984 12 16.9984C12.2651 16.9984 12.5194 16.8935 12.7074 16.7067L16.707 12.707C16.8917 12.5189 16.9947 12.2655 16.9935 12.0019C16.9923 11.7383 16.887 11.4858 16.7006 11.2994C16.5142 11.113 16.2618 11.0077 15.9981 11.0065C15.7345 11.0053 15.4811 11.1083 15.293 11.293L13 13.5859V8C13 7.73478 12.8947 7.48043 12.7071 7.29289C12.5196 7.10536 12.2652 7 12 7C11.7348 7 11.4804 7.10536 11.2929 7.29289C11.1054 7.48043 11 7.73478 11 8V13.5859L8.70702 11.293C8.51893 11.1083 8.26551 11.0053 8.00189 11.0065C7.73828 11.0077 7.4858 11.113 7.29939 11.2994C7.11299 11.4858 7.00773 11.7383 7.00654 12.0019C7.00535 12.2655 7.10831 12.5189 7.29302 12.707Z" fill="#F9CA24"/>
<path id="accent" d="M12 22C13.9778 22 15.9112 21.4135 17.5557 20.3147C19.2002 19.2159 20.4819 17.6541 21.2388 15.8268C21.9957 13.9996 22.1937 11.9889 21.8079 10.0491C21.422 8.10929 20.4696 6.32746 19.0711 4.92894C17.6725 3.53041 15.8907 2.578 13.9509 2.19215C12.0111 1.8063 10.0004 2.00433 8.17317 2.76121C6.3459 3.51809 4.78412 4.79981 3.6853 6.4443C2.58649 8.08879 2 10.0222 2 12C2.00295 14.6513 3.05746 17.1931 4.93219 19.0678C6.80691 20.9425 9.34874 21.9971 12 22V22ZM7.293 11.293C7.38583 11.2001 7.49605 11.1264 7.61737 11.0762C7.73868 11.0259 7.86871 11 8.00003 11C8.13135 11 8.26138 11.0259 8.38269 11.0762C8.50401 11.1264 8.61423 11.2001 8.70706 11.293L11 13.5859V8C11 7.73479 11.1054 7.48043 11.2929 7.2929C11.4804 7.10536 11.7348 7 12 7C12.2652 7 12.5196 7.10536 12.7071 7.2929C12.8946 7.48043 13 7.73479 13 8V13.5859L15.293 11.2929C15.4809 11.1074 15.7346 11.0037 15.9987 11.0045C16.2628 11.0054 16.5159 11.1107 16.7026 11.2974C16.8893 11.4842 16.9946 11.7372 16.9954 12.0013C16.9963 12.2654 16.8926 12.5191 16.707 12.707L12.7073 16.7067C12.5193 16.8935 12.265 16.9984 12 16.9984C11.7349 16.9984 11.4806 16.8935 11.2926 16.7067L7.293 12.707C7.20013 12.6142 7.12646 12.504 7.07619 12.3826C7.02593 12.2613 7.00006 12.1313 7.00006 12C7.00006 11.8687 7.02593 11.7387 7.07619 11.6174C7.12646 11.4961 7.20013 11.3858 7.293 11.293V11.293Z" fill="#979797" fill-opacity="0.4"/>
</g>
</svg>
