<svg width="24" height="24" viewBox="0 0 24 24" fill="none" xmlns="http://www.w3.org/2000/svg">
<g id="arrow_circle_right">
<path id="primary" d="M12.707 16.707L16.7067 12.7073C16.8935 12.5193 16.9984 12.265 16.9984 12C16.9984 11.7349 16.8935 11.4806 16.7067 11.2926L12.707 7.29299C12.5189 7.10828 12.2655 7.00532 12.0019 7.00651C11.7383 7.0077 11.4858 7.11295 11.2994 7.29936C11.113 7.48577 11.0077 7.73825 11.0065 8.00186C11.0053 8.26548 11.1083 8.5189 11.293 8.70699L13.5859 11H8C7.73478 11 7.48043 11.1053 7.29289 11.2929C7.10536 11.4804 7 11.7348 7 12C7 12.2652 7.10536 12.5196 7.29289 12.7071C7.48043 12.8946 7.73478 13 8 13H13.5859L11.2929 15.293C11.1074 15.4809 11.0037 15.7346 11.0045 15.9987C11.0054 16.2628 11.1107 16.5158 11.2974 16.7026C11.4842 16.8893 11.7372 16.9946 12.0013 16.9954C12.2654 16.9962 12.5191 16.8926 12.707 16.707Z" fill="#F9CA24"/>
<path id="accent" d="M22 12C22 10.0222 21.4135 8.08879 20.3147 6.4443C19.2159 4.79981 17.6541 3.51809 15.8268 2.76121C13.9996 2.00433 11.9889 1.8063 10.0491 2.19215C8.10929 2.578 6.32746 3.53041 4.92894 4.92894C3.53041 6.32746 2.578 8.10929 2.19215 10.0491C1.8063 11.9889 2.00433 13.9996 2.76121 15.8268C3.51809 17.6541 4.79981 19.2159 6.4443 20.3147C8.08879 21.4135 10.0222 22 12 22C14.6513 21.9971 17.1931 20.9425 19.0678 19.0678C20.9425 17.1931 21.9971 14.6513 22 12V12ZM11.293 16.707C11.2001 16.6142 11.1264 16.504 11.0762 16.3826C11.0259 16.2613 11 16.1313 11 16C11 15.8687 11.0259 15.7386 11.0762 15.6173C11.1264 15.496 11.2001 15.3858 11.293 15.2929L13.5859 13H8C7.73479 13 7.48043 12.8946 7.2929 12.7071C7.10536 12.5196 7 12.2652 7 12C7 11.7348 7.10536 11.4804 7.2929 11.2929C7.48043 11.1054 7.73479 11 8 11H13.5859L11.293 8.707C11.1083 8.51892 11.0053 8.2655 11.0065 8.00188C11.0077 7.73826 11.113 7.48579 11.2994 7.29938C11.4858 7.11297 11.7383 7.00772 12.0019 7.00653C12.2655 7.00533 12.5189 7.10829 12.707 7.293L16.7067 11.2927C16.8935 11.4807 16.9984 11.735 16.9984 12C16.9984 12.2651 16.8935 12.5194 16.7067 12.7074L12.707 16.707C12.6142 16.7999 12.504 16.8735 12.3826 16.9238C12.2613 16.9741 12.1313 16.9999 12 16.9999C11.8687 16.9999 11.7387 16.9741 11.6174 16.9238C11.4961 16.8735 11.3858 16.7999 11.293 16.707Z" fill="#979797" fill-opacity="0.4"/>
</g>
</svg>
