<svg width="24" height="24" viewBox="0 0 24 24" fill="none" xmlns="http://www.w3.org/2000/svg">
<g id="arrow_down_left">
<path id="primary" d="M17 18H7C6.73478 18 6.48043 17.8946 6.29289 17.7071C6.10536 17.5196 6 17.2652 6 17V7C6 6.73478 6.10536 6.48043 6.29289 6.29289C6.48043 6.10536 6.73478 6 7 6C7.26522 6 7.51957 6.10536 7.70711 6.29289C7.89464 6.48043 8 6.73478 8 7V16H17C17.2652 16 17.5196 16.1054 17.7071 16.2929C17.8946 16.4804 18 16.7348 18 17C18 17.2652 17.8946 17.5196 17.7071 17.7071C17.5196 17.8946 17.2652 18 17 18Z" fill="#F9CA24"/>
<path id="primary_2" d="M6.99997 18C6.80222 17.9999 6.60892 17.9413 6.44451 17.8314C6.2801 17.7215 6.15196 17.5653 6.07629 17.3826C6.00062 17.1999 5.98082 16.9989 6.01939 16.805C6.05795 16.611 6.15316 16.4328 6.29297 16.293L16.293 6.29299C16.4811 6.10828 16.7345 6.00532 16.9981 6.00651C17.2617 6.0077 17.5142 6.11295 17.7006 6.29936C17.887 6.48577 17.9923 6.73825 17.9934 7.00186C17.9946 7.26548 17.8917 7.5189 17.707 7.70699L7.70697 17.707C7.61424 17.8 7.50404 17.8738 7.38271 17.924C7.26138 17.9743 7.13131 18.0001 6.99997 18Z" fill="#F9CA24"/>
</g>
</svg>
