<svg width="24" height="24" viewBox="0 0 24 24" fill="none" xmlns="http://www.w3.org/2000/svg">
<g id="at">
<path id="primary" d="M12 16.5C11.11 16.5 10.24 16.2361 9.49994 15.7416C8.75991 15.2471 8.18314 14.5443 7.84254 13.7221C7.50195 12.8998 7.41283 11.995 7.58647 11.1221C7.7601 10.2492 8.18869 9.44736 8.81802 8.81802C9.44736 8.18869 10.2492 7.7601 11.1221 7.58647C11.995 7.41283 12.8998 7.50195 13.7221 7.84254C14.5443 8.18314 15.2471 8.75991 15.7416 9.49994C16.2361 10.24 16.5 11.11 16.5 12C16.4987 13.1931 16.0242 14.3369 15.1805 15.1805C14.3369 16.0242 13.1931 16.4987 12 16.5ZM12 9.5C11.5055 9.5 11.0222 9.64662 10.6111 9.92133C10.2 10.196 9.87952 10.5865 9.6903 11.0433C9.50108 11.5001 9.45158 12.0028 9.54804 12.4877C9.6445 12.9727 9.8826 13.4181 10.2322 13.7678C10.5819 14.1174 11.0273 14.3555 11.5123 14.452C11.9972 14.5484 12.4999 14.4989 12.9567 14.3097C13.4135 14.1205 13.804 13.8001 14.0787 13.3889C14.3534 12.9778 14.5 12.4945 14.5 12C14.4992 11.3372 14.2356 10.7018 13.7669 10.2331C13.2982 9.76442 12.6628 9.50078 12 9.5Z" fill="#F9CA24"/>
<path id="primary_2" d="M12 22C10.0222 22 8.08879 21.4135 6.4443 20.3147C4.79981 19.2159 3.51809 17.6541 2.76121 15.8268C2.00433 13.9996 1.8063 11.9889 2.19215 10.0491C2.578 8.10929 3.53041 6.32746 4.92894 4.92894C6.32746 3.53041 8.10929 2.578 10.0491 2.19215C11.9889 1.8063 13.9996 2.00433 15.8268 2.76121C17.6541 3.51809 19.2159 4.79981 20.3147 6.4443C21.4135 8.08879 22 10.0222 22 12V12.75C22 13.7446 21.6049 14.6984 20.9017 15.4017C20.1984 16.1049 19.2446 16.5 18.25 16.5C17.2554 16.5 16.3016 16.1049 15.5984 15.4017C14.8951 14.6984 14.5 13.7446 14.5 12.75V8.5C14.5 8.23479 14.6054 7.98043 14.7929 7.7929C14.9804 7.60536 15.2348 7.5 15.5 7.5C15.7652 7.5 16.0196 7.60536 16.2071 7.7929C16.3946 7.98043 16.5 8.23479 16.5 8.5V12.75C16.5 13.2141 16.6844 13.6593 17.0126 13.9874C17.3408 14.3156 17.7859 14.5 18.25 14.5C18.7141 14.5 19.1593 14.3156 19.4874 13.9874C19.8156 13.6593 20 13.2141 20 12.75V12C20 10.2389 19.4189 8.52707 18.3468 7.12992C17.2747 5.73277 15.7716 4.72841 14.0705 4.27261C12.3695 3.81681 10.5655 3.93505 8.93853 4.60899C7.31151 5.28292 5.95233 6.47489 5.0718 8.00003C4.19126 9.52516 3.83858 11.2982 4.06845 13.0442C4.29831 14.7902 5.09789 16.4116 6.34315 17.6569C7.58842 18.9021 9.20979 19.7017 10.9558 19.9316C12.7018 20.1614 14.4749 19.8088 16 18.9282C16.1138 18.8625 16.2394 18.8198 16.3696 18.8026C16.4999 18.7854 16.6322 18.7941 16.7592 18.8281C16.8861 18.862 17.005 18.9207 17.1093 19.0007C17.2135 19.0807 17.301 19.1804 17.3667 19.2942C17.4323 19.408 17.475 19.5336 17.4921 19.6638C17.5092 19.7941 17.5005 19.9265 17.4664 20.0534C17.4324 20.1803 17.3737 20.2992 17.2936 20.4034C17.2136 20.5076 17.1138 20.595 17 20.6606C15.4794 21.5373 13.7552 21.9991 12 22Z" fill="#F9CA24"/>
</g>
</svg>
