<svg width="24" height="25" viewBox="0 0 24 25" fill="none" xmlns="http://www.w3.org/2000/svg">
<g id="award">
<g id="Group 3">
<path id="accent" d="M11.9972 17.2211C15.1441 17.3916 17.4279 15.772 19.4631 13.6338C19.527 13.4136 19.5554 13.1685 19.6655 12.9732C22.3187 8.36649 20.4434 3.83438 16.6145 1.40495C12.7537 -1.0458 7.71724 0.435304 5.1777 4.48791C3.24907 7.56022 3.7925 10.6006 5.3624 13.6089C7.15606 15.5766 9.23741 17.0222 11.9972 17.2211Z" fill="#979797" fill-opacity="0.4"/>
<path id="accent_2" d="M22.5958 18.894C21.6084 17.111 20.5144 15.3848 19.4631 13.6338C17.4279 15.7755 15.1441 17.3916 11.9972 17.2211C12.1428 17.5621 12.2849 17.9031 12.4305 18.244C13.3931 19.8423 14.3591 21.4371 15.311 23.039C16.2132 24.5556 16.5968 24.6337 17.3498 23.1029C18.2484 21.2666 19.4276 20.3822 21.5729 20.645C23.0788 20.8297 23.3559 20.2686 22.5958 18.894Z" fill="#979797" fill-opacity="0.7"/>
<path id="primary" d="M11.9972 17.2211C9.23388 17.0222 7.15252 15.5766 5.35886 13.6054C4.2578 15.4594 3.14609 17.3099 2.06279 19.1746C1.48029 20.1762 1.75378 20.844 2.95784 20.6664C5.25586 20.3254 6.67303 21.2169 7.55032 23.3373C7.99785 24.4206 8.69401 24.5698 9.3795 23.3409C10.342 21.6112 11.4076 19.9383 12.4305 18.2405C12.2849 17.9031 12.1428 17.5621 11.9972 17.2211Z" fill="#FFD740"/>
</g>
</g>
</svg>
