<svg width="24" height="24" viewBox="0 0 24 24" fill="none" xmlns="http://www.w3.org/2000/svg">
<g id="bag">
<path id="accent" d="M19 6H5C3.34315 6 2 7.34315 2 9V11.7209L8.8374 14H15.1626L22 11.7209V9C22 7.34315 20.6568 6 19 6Z" fill="#979797" fill-opacity="0.4"/>
<path id="primary" d="M10 6V5H14V6H16V5C15.9987 3.89595 15.104 3.00126 14 3H10C8.89595 3.00126 8.00126 3.89595 8 5V6H10ZM8.8374 14L2 11.7208V18C2.00181 19.6561 3.34389 20.9982 5 21H19C20.6561 20.9982 21.9982 19.6561 22 18V11.7208L15.1626 14H8.8374Z" fill="#F9CA24"/>
</g>
</svg>
