<svg width="24" height="24" viewBox="0 0 24 24" fill="none" xmlns="http://www.w3.org/2000/svg">
<g id="battery_bolt">
<path id="primary" d="M13.9882 12.0587C13.9929 11.9243 13.9711 11.7902 13.924 11.6643C13.8769 11.5383 13.8054 11.4228 13.7136 11.3245C13.6218 11.2261 13.5116 11.1469 13.3891 11.0912C13.2667 11.0355 13.1345 11.0045 13 11H9.73232L11.1758 8.49999C11.2415 8.38624 11.2842 8.26064 11.3014 8.13039C11.3186 8.00013 11.31 7.86776 11.276 7.74085C11.242 7.61393 11.1833 7.49496 11.1034 7.39072C11.0234 7.28648 10.9236 7.19902 10.8099 7.13334C10.6961 7.06766 10.5704 7.02504 10.4402 7.00792C10.3099 6.9908 10.1776 6.99951 10.0507 7.03356C9.92376 7.06761 9.80481 7.12633 9.70061 7.20636C9.59642 7.28639 9.50901 7.38617 9.44339 7.49999L7.13381 11.5C7.05276 11.653 7.0119 11.8241 7.01506 11.9972C7.01822 12.1703 7.0653 12.3397 7.15188 12.4897C7.23846 12.6396 7.36171 12.7651 7.51006 12.8543C7.65841 12.9436 7.827 12.9937 8.00002 13H11.2677L9.82424 15.5C9.6918 15.7297 9.656 16.0026 9.72472 16.2587C9.79344 16.5149 9.96105 16.7332 10.1907 16.8658C10.4204 16.9983 10.6933 17.0343 10.9494 16.9657C11.2056 16.8971 11.424 16.7296 11.5567 16.5L13.8662 12.5C13.9333 12.3615 13.9747 12.212 13.9882 12.0587Z" fill="#F9CA24"/>
<path id="accent" d="M17 6.99999H4C3.46973 7.00052 2.96133 7.21141 2.58637 7.58636C2.21141 7.96132 2.00053 8.46972 2 8.99999V15C2.00053 15.5303 2.21141 16.0387 2.58637 16.4136C2.96133 16.7886 3.46973 16.9995 4 17H10.6895C10.514 16.9999 10.3416 16.9536 10.1897 16.8658C10.0378 16.778 9.91162 16.6517 9.82394 16.4997C9.73626 16.3477 9.69013 16.1753 9.69018 15.9998C9.69023 15.8243 9.73646 15.6519 9.82422 15.5L11.2677 13H8C7.82698 12.9937 7.65839 12.9436 7.51004 12.8543C7.36169 12.7651 7.23844 12.6396 7.15186 12.4897C7.06528 12.3397 7.0182 12.1703 7.01504 11.9972C7.01188 11.8241 7.05274 11.653 7.13379 11.5L9.44336 7.49999C9.50898 7.38617 9.59639 7.28639 9.70059 7.20636C9.80479 7.12633 9.92373 7.06761 10.0506 7.03356C10.1775 6.99951 10.3099 6.9908 10.4402 7.00792C10.5704 7.02504 10.696 7.06766 10.8098 7.13334C10.9236 7.19902 11.0233 7.28648 11.1033 7.39072C11.1833 7.49496 11.242 7.61393 11.2759 7.74085C11.3099 7.86776 11.3186 8.00013 11.3014 8.13039C11.2842 8.26064 11.2415 8.38624 11.1758 8.49999L9.7323 11H13C13.1344 11.0045 13.2667 11.0355 13.3891 11.0912C13.5115 11.1469 13.6218 11.2261 13.7136 11.3245C13.8054 11.4228 13.8769 11.5383 13.924 11.6643C13.9711 11.7902 13.9929 11.9243 13.9882 12.0587C13.9746 12.212 13.9333 12.3615 13.8662 12.5L11.5566 16.5C11.4688 16.6522 11.3423 16.7785 11.1901 16.8663C11.0379 16.9541 10.8652 17.0002 10.6895 17H17C17.5303 16.9995 18.0387 16.7886 18.4136 16.4136C18.7886 16.0387 18.9995 15.5303 19 15V8.99999C18.9995 8.46972 18.7886 7.96132 18.4136 7.58636C18.0387 7.21141 17.5303 7.00052 17 6.99999ZM21 14C20.7348 14 20.4804 13.8946 20.2929 13.7071C20.1054 13.5196 20 13.2652 20 13V11C20 10.7348 20.1054 10.4804 20.2929 10.2929C20.4804 10.1053 20.7348 9.99999 21 9.99999C21.2652 9.99999 21.5196 10.1053 21.7071 10.2929C21.8946 10.4804 22 10.7348 22 11V13C22 13.2652 21.8946 13.5196 21.7071 13.7071C21.5196 13.8946 21.2652 14 21 14Z" fill="#979797" fill-opacity="0.4"/>
</g>
</svg>
