<svg width="24" height="24" viewBox="0 0 24 24" fill="none" xmlns="http://www.w3.org/2000/svg">
<g id="battery_empty">
<path id="primary" d="M21 14C20.8687 14 20.7386 13.9742 20.6173 13.9239C20.4959 13.8737 20.3857 13.8 20.2928 13.7072C20.2 13.6143 20.1263 13.5041 20.0761 13.3827C20.0258 13.2614 20 13.1313 20 13V11C20 10.7348 20.1054 10.4804 20.2929 10.2929C20.4804 10.1054 20.7348 10 21 10C21.2652 10 21.5196 10.1054 21.7071 10.2929C21.8946 10.4804 22 10.7348 22 11V13C22 13.1313 21.9742 13.2614 21.9239 13.3827C21.8737 13.5041 21.8 13.6143 21.7072 13.7072C21.6143 13.8 21.5041 13.8737 21.3827 13.9239C21.2614 13.9742 21.1313 14 21 14ZM17 17H4C3.46975 16.9994 2.9614 16.7885 2.58646 16.4135C2.21151 16.0386 2.00061 15.5302 2 15V9C2.00061 8.46975 2.21151 7.9614 2.58646 7.58646C2.9614 7.21151 3.46975 7.00061 4 7H17C17.5302 7.00061 18.0386 7.21151 18.4135 7.58646C18.7885 7.9614 18.9994 8.46975 19 9V15C18.9994 15.5302 18.7885 16.0386 18.4135 16.4135C18.0386 16.7885 17.5302 16.9994 17 17Z" fill="#F9CA24"/>
</g>
</svg>
