<svg width="24" height="24" viewBox="0 0 24 24" fill="none" xmlns="http://www.w3.org/2000/svg">
<g id="behance">
<path id="primary" d="M10.3965 11.5189H10.2882L10.5288 11.3866C11.0262 11.1299 11.4147 10.7029 11.6235 10.1836C11.8119 9.63906 11.8615 9.05606 11.7678 8.48747C11.7125 7.9841 11.5223 7.50498 11.2175 7.10062C10.9126 6.69625 10.5043 6.38162 10.0357 6.18987C9.42806 5.92832 8.77236 5.79718 8.11091 5.80492H2V18.1591H7.5816C8.11368 18.1598 8.64486 18.1155 9.16949 18.0268C9.74206 17.9459 10.2853 17.723 10.7496 17.3784C11.214 17.0339 11.5847 16.5785 11.828 16.0539C12.1925 15.3076 12.2983 14.4612 12.1287 13.6481C12.0573 13.1705 11.8588 12.7209 11.554 12.3464C11.2493 11.9718 10.8495 11.686 10.3965 11.5189ZM4.89905 7.95818H7.30494C7.71101 7.95777 8.11541 8.01034 8.50788 8.11455C8.7213 8.16488 8.91321 8.28171 9.05591 8.4482C9.19862 8.61469 9.28473 8.82221 9.30182 9.04082C9.35108 9.287 9.35108 9.54049 9.30182 9.78667C9.26726 9.92572 9.20317 10.0557 9.11392 10.1678C9.02466 10.2799 8.91233 10.3714 8.78455 10.4363C8.41223 10.6243 7.99847 10.7153 7.58161 10.7009H4.875L4.89905 7.95818ZM9.55445 14.863C9.50033 15.1549 9.3545 15.422 9.13816 15.6254C8.92181 15.8288 8.64624 15.9578 8.35151 15.9938C8.08999 16.0461 7.82423 16.0742 7.55756 16.078H4.875V12.806H7.738C8.04542 12.8068 8.35048 12.8596 8.64022 12.9624C8.89807 13.0441 9.12434 13.2036 9.28802 13.4189C9.45169 13.6343 9.54476 13.895 9.55447 14.1653C9.58644 14.3968 9.58644 14.6315 9.55445 14.863ZM21.9928 14.057C22.0048 14.033 22.0048 14.0089 21.9688 14.033V12.6977C21.9575 12.0862 21.8181 11.4838 21.5598 10.9294C21.169 10.0955 20.4834 9.4356 19.6351 9.077C18.7023 8.69353 17.6773 8.59311 16.6879 8.78824C15.9361 8.89247 15.2313 9.21458 14.6605 9.71481C14.0897 10.215 13.6779 10.8715 13.476 11.6031C13.1247 12.7252 13.0749 13.9201 13.3316 15.0675C13.4517 15.7149 13.7519 16.3153 14.1977 16.7998C14.7669 17.3793 15.4816 17.7948 16.2668 18.0027C17.0231 18.2093 17.815 18.2504 18.5885 18.123C19.5601 18.0039 20.4544 17.5332 21.1026 16.7998C21.4258 16.4567 21.6683 16.0457 21.8124 15.5968C21.8807 15.4941 21.9105 15.3705 21.8965 15.248H19.5388C19.5137 15.2459 19.4886 15.2518 19.4671 15.2647C19.4455 15.2777 19.4285 15.2971 19.4185 15.3202C19.3001 15.5524 19.1302 15.7544 18.9217 15.9107C18.7132 16.0671 18.4716 16.1737 18.2156 16.2223C17.8585 16.2959 17.4901 16.2959 17.1329 16.2223C16.826 16.1762 16.5351 16.0556 16.2856 15.8711C16.0361 15.6865 15.8355 15.4437 15.7015 15.1638C15.596 14.9354 15.527 14.6918 15.497 14.442V14.057L21.9928 14.057ZM15.6413 12.3248C15.6929 12.1323 15.7572 11.9434 15.8337 11.7594C15.9612 11.4442 16.1786 11.1735 16.4588 10.981C16.739 10.7885 17.0697 10.6827 17.4096 10.6768C17.765 10.6425 18.1234 10.692 18.4562 10.8211C18.7579 10.9365 19.0225 11.1318 19.2217 11.3861C19.4209 11.6404 19.5471 11.9441 19.5869 12.2646V12.5173L15.6413 12.5533C15.6372 12.4772 15.6372 12.401 15.6413 12.3249V12.3248ZM20.0561 6.31012H15.0519V7.75371L20.0561 7.74171V6.31012Z" fill="#F9CA24"/>
</g>
</svg>
