<svg width="24" height="24" viewBox="0 0 24 24" fill="none" xmlns="http://www.w3.org/2000/svg">
<g id="behance_alt">
<g id="Brand Logos">
<g id="primary">
<path d="M7.5 20H2C1.86867 20 1.73862 19.9742 1.61728 19.9239C1.49594 19.8737 1.38568 19.8 1.29282 19.7072C1.19995 19.6143 1.12629 19.5041 1.07605 19.3827C1.02581 19.2614 0.999966 19.1313 1 19V12C0.999966 11.8687 1.02581 11.7386 1.07605 11.6173C1.12629 11.4959 1.19995 11.3857 1.29282 11.2928C1.38568 11.2 1.49594 11.1263 1.61728 11.0761C1.73862 11.0258 1.86867 11 2 11H7.5C8.69347 11 9.83807 11.4741 10.682 12.318C11.5259 13.1619 12 14.3065 12 15.5C12 16.6935 11.5259 17.8381 10.682 18.682C9.83807 19.5259 8.69347 20 7.5 20ZM3 18H7.5C8.16304 18 8.79893 17.7366 9.26777 17.2678C9.73661 16.7989 10 16.163 10 15.5C10 14.837 9.73661 14.2011 9.26777 13.7322C8.79893 13.2634 8.16304 13 7.5 13H3V18Z" fill="#F9CA24"/>
<path d="M7 13H2C1.86867 13 1.73862 12.9742 1.61728 12.9239C1.49594 12.8737 1.38568 12.8 1.29282 12.7072C1.19995 12.6143 1.12629 12.5041 1.07605 12.3827C1.02581 12.2614 0.999966 12.1313 1 12V6C0.999966 5.86867 1.02581 5.73862 1.07605 5.61728C1.12629 5.49594 1.19995 5.38568 1.29282 5.29282C1.38568 5.19995 1.49594 5.12629 1.61728 5.07605C1.73862 5.02581 1.86867 4.99997 2 5H7C8.06087 5 9.07828 5.42143 9.82843 6.17157C10.5786 6.92172 11 7.93913 11 9C11 10.0609 10.5786 11.0783 9.82843 11.8284C9.07828 12.5786 8.06087 13 7 13ZM3 11H7C7.53043 11 8.03914 10.7893 8.41421 10.4142C8.78929 10.0391 9 9.53043 9 9C9 8.46957 8.78929 7.96086 8.41421 7.58579C8.03914 7.21071 7.53043 7 7 7H3V11ZM20 7H16C15.7348 7 15.4804 6.89464 15.2929 6.70711C15.1054 6.51957 15 6.26522 15 6C15 5.73478 15.1054 5.48043 15.2929 5.29289C15.4804 5.10536 15.7348 5 16 5H20C20.2652 5 20.5196 5.10536 20.7071 5.29289C20.8946 5.48043 21 5.73478 21 6C21 6.26522 20.8946 6.51957 20.7071 6.70711C20.5196 6.89464 20.2652 7 20 7ZM22 14H14C13.7348 14 13.4804 13.8946 13.2929 13.7071C13.1054 13.5196 13 13.2652 13 13C13 12.7348 13.1054 12.4804 13.2929 12.2929C13.4804 12.1054 13.7348 12 14 12H22C22.2652 12 22.5196 12.1054 22.7071 12.2929C22.8946 12.4804 23 12.7348 23 13C23 13.2652 22.8946 13.5196 22.7071 13.7071C22.5196 13.8946 22.2652 14 22 14Z" fill="#F9CA24"/>
<path d="M18 20C16.6744 19.9984 15.4035 19.4712 14.4662 18.5338C13.5288 17.5965 13.0016 16.3256 13 15V13C13 11.6739 13.5268 10.4021 14.4645 9.46447C15.4021 8.52678 16.6739 8 18 8C19.3261 8 20.5979 8.52678 21.5355 9.46447C22.4732 10.4021 23 11.6739 23 13C23 13.2652 22.8946 13.5196 22.7071 13.7071C22.5196 13.8946 22.2652 14 22 14C21.7348 14 21.4804 13.8946 21.2929 13.7071C21.1054 13.5196 21 13.2652 21 13C21 12.2044 20.6839 11.4413 20.1213 10.8787C19.5587 10.3161 18.7956 10 18 10C17.2044 10 16.4413 10.3161 15.8787 10.8787C15.3161 11.4413 15 12.2044 15 13V15C14.9996 15.7297 15.2653 16.4345 15.7473 16.9823C16.2294 17.5301 16.8946 17.8833 17.6184 17.9758C18.3422 18.0683 19.0749 17.8936 19.6792 17.4846C20.2834 17.0756 20.7178 16.4602 20.9009 15.7539C20.9669 15.4977 21.1318 15.2781 21.3594 15.1433C21.5871 15.0084 21.8589 14.9692 22.1153 15.0343C22.3717 15.0994 22.5919 15.2635 22.7276 15.4906C22.8634 15.7178 22.9035 15.9894 22.8394 16.2461C22.5654 17.321 21.9407 18.2739 21.0641 18.9538C20.1876 19.6338 19.1093 20.0019 18 20Z" fill="#F9CA24"/>
</g>
</g>
</g>
</svg>
