<svg width="24" height="24" viewBox="0 0 24 24" fill="none" xmlns="http://www.w3.org/2000/svg">
<g id="bitcoin_alt">
<path id="primary" d="M16.3126 11.2392C16.7197 10.6379 16.9554 9.93696 16.9943 9.21178C17.0331 8.48659 16.8737 7.76452 16.5332 7.12309C16.1926 6.48167 15.6838 5.94512 15.0613 5.57107C14.4388 5.19702 13.7262 4.9996 13 5V4C13 3.73478 12.8946 3.48043 12.7071 3.29289C12.5196 3.10536 12.2652 3 12 3C11.7348 3 11.4804 3.10536 11.2929 3.29289C11.1054 3.48043 11 3.73478 11 4V5H9V4C9 3.73478 8.89464 3.48043 8.70711 3.29289C8.51957 3.10536 8.26522 3 8 3C7.73478 3 7.48043 3.10536 7.29289 3.29289C7.10536 3.48043 7 3.73478 7 4V5H6C5.73478 5 5.48043 5.10536 5.29289 5.29289C5.10536 5.48043 5 5.73478 5 6C5 6.26522 5.10536 6.51957 5.29289 6.70711C5.48043 6.89464 5.73478 7 6 7H7V17H6C5.73478 17 5.48043 17.1054 5.29289 17.2929C5.10536 17.4804 5 17.7348 5 18C5 18.2652 5.10536 18.5196 5.29289 18.7071C5.48043 18.8946 5.73478 19 6 19H7V20C7 20.2652 7.10536 20.5196 7.29289 20.7071C7.48043 20.8946 7.73478 21 8 21C8.26522 21 8.51957 20.8946 8.70711 20.7071C8.89464 20.5196 9 20.2652 9 20V19H11V20C11 20.2652 11.1054 20.5196 11.2929 20.7071C11.4804 20.8946 11.7348 21 12 21C12.2652 21 12.5196 20.8946 12.7071 20.7071C12.8946 20.5196 13 20.2652 13 20V19H15C15.9445 19.0024 16.8593 18.6697 17.5816 18.061C18.3038 17.4522 18.7866 16.607 18.9441 15.6757C19.1016 14.7443 18.9236 13.7873 18.4417 12.975C17.9599 12.1626 17.2054 11.5475 16.3126 11.2392ZM15 9C14.9994 9.53025 14.7885 10.0386 14.4135 10.4135C14.0386 10.7885 13.5302 10.9994 13 11H9V7H13C13.5302 7.00061 14.0386 7.21151 14.4135 7.58646C14.7885 7.9614 14.9994 8.46975 15 9ZM15 17H9V13H15C15.5304 13 16.0391 13.2107 16.4142 13.5858C16.7893 13.9609 17 14.4696 17 15C17 15.5304 16.7893 16.0391 16.4142 16.4142C16.0391 16.7893 15.5304 17 15 17Z" fill="#F9CA24"/>
</g>
</svg>
