<svg width="24" height="24" viewBox="0 0 24 24" fill="none" xmlns="http://www.w3.org/2000/svg">
<g id="bitcoin">
<path id="accent" d="M16.358 10.5754C16.5548 9.24481 15.5531 8.52948 14.1833 8.05231L14.6276 6.24982L13.5427 5.97638L13.1102 7.73138C12.825 7.65948 12.5321 7.59167 12.241 7.52448L12.6767 5.75793L11.5924 5.4845L11.1478 7.28638C10.9117 7.23199 10.6799 7.17822 10.455 7.1217L10.4562 7.11603L8.96013 6.73822L8.6715 7.9101C8.6715 7.9101 9.47643 8.09668 9.4595 8.10822C9.7732 8.14859 9.99749 8.43173 9.965 8.74634L8.74759 13.6841C8.68398 13.8925 8.46351 14.0098 8.25515 13.9462C8.25356 13.9458 8.25198 13.9453 8.2504 13.9448C8.2612 13.9607 7.46188 13.7457 7.46188 13.7457L6.92331 15.0016L8.33505 15.3576C8.59769 15.4241 8.85505 15.4938 9.10849 15.5594L8.65949 17.3826L9.74311 17.656L10.1877 15.8523C10.4837 15.9335 10.7711 16.0085 11.0523 16.0791L10.6092 17.8744L11.694 18.1479L12.143 16.3282C13.9929 16.6822 15.384 16.5394 15.9696 14.8473C16.4504 13.8942 16.0677 12.7318 15.1146 12.2509C15.0682 12.2275 15.0209 12.206 14.9727 12.1864C15.7463 12.0254 16.3148 11.3643 16.358 10.5754ZM13.8792 14.0907C13.544 15.4532 11.2757 14.7166 10.5403 14.5319L11.136 12.1166C11.8714 12.3022 14.2296 12.6697 13.8792 14.0907ZM14.2148 10.5557C13.9089 11.795 12.021 11.1654 11.4086 11.011L11.9487 8.8204C12.5611 8.97479 14.5334 9.26294 14.2148 10.5557V10.5557Z" fill="#979797" fill-opacity="0.4"/>
<g id="primary">
<path d="M11.9487 8.82037L11.4086 11.011C12.021 11.1654 13.9089 11.795 14.2148 10.5557C14.5334 9.26294 12.5611 8.97479 11.9487 8.82037ZM11.1361 12.1166L10.5403 14.5319C11.2757 14.7166 13.544 15.4532 13.8792 14.0907C14.2296 12.6697 11.8714 12.3023 11.1361 12.1166Z" fill="#F9CA24"/>
<path d="M12 2C6.47717 2 2 6.47717 2 12C2 17.5228 6.47717 22 12 22C17.5228 22 22 17.5228 22 12C22 6.47717 17.5228 2 12 2ZM16.358 10.5754C16.3148 11.3643 15.7463 12.0255 14.9728 12.1864C15.0209 12.206 15.0682 12.2275 15.1147 12.251C16.0677 12.7318 16.4504 13.8942 15.9696 14.8473C15.384 16.5394 13.993 16.6823 12.1431 16.3282L11.694 18.1479L10.6092 17.8745L11.0523 16.0792C10.7711 16.0085 10.4838 15.9335 10.1877 15.8523L9.7431 17.656L8.65948 17.3826L9.10852 15.5595C8.85504 15.4938 8.59772 15.4241 8.33508 15.3576L6.92334 15.0016L7.46191 13.7457C7.46191 13.7457 8.26123 13.9607 8.25042 13.9448L8.25512 13.9462C8.46349 14.0098 8.68401 13.8925 8.74761 13.6841L9.96502 8.74634C9.9975 8.4317 9.77319 8.14862 9.45953 8.10822C9.47644 8.09668 8.67151 7.9101 8.67151 7.9101L8.96015 6.73822L10.4562 7.11603L10.455 7.1217C10.6799 7.17822 10.9117 7.23199 11.1478 7.28637L11.5924 5.48449L12.6767 5.75793L12.241 7.52447C12.5321 7.59167 12.825 7.65948 13.1102 7.73138L13.5427 5.97638L14.6276 6.24982L14.1834 8.05231C15.5531 8.52948 16.5548 9.24481 16.358 10.5754Z" fill="#F9CA24"/>
</g>
</g>
</svg>
