<svg width="24" height="24" viewBox="0 0 24 24" fill="none" xmlns="http://www.w3.org/2000/svg">
<g id="blackberry">
<path id="accent" d="M7.18842 13.3519H5.2699L5.79309 10.9374H7.63135C8.82599 10.9374 9.11047 11.5226 9.11047 11.9871C9.11047 12.6444 8.68286 13.3519 7.18842 13.3519ZM7.84918 9.71484H5.93618L6.45565 7.29852H8.29578C9.48956 7.29852 9.77496 7.88552 9.77496 8.35004C9.7749 9.0072 9.34723 9.71484 7.84918 9.71484ZM11.6033 17.1403H9.68481L10.2069 14.7222H12.0471C13.24 14.7222 13.5228 15.311 13.5228 15.7755C13.5228 16.4345 13.0978 17.1403 11.6033 17.1403ZM12.3109 13.3519H10.397L10.9182 10.9374H12.7575C13.9513 10.9374 14.2339 11.5226 14.2339 11.9871C14.2339 12.6444 13.809 13.3519 12.3109 13.3519ZM12.9753 9.71484H11.0614L11.5836 7.29852H13.4201C14.6157 7.29852 14.9001 7.88552 14.9001 8.35004C14.9002 9.0072 14.4734 9.71484 12.9753 9.71484ZM16.7223 15.32H14.8065L15.3287 12.9019H17.167C18.3608 12.9019 18.6453 13.4924 18.6453 13.9552C18.6453 14.6123 18.2203 15.32 16.7223 15.32ZM17.4353 11.8773H15.5195L16.0417 9.46094H17.8818C19.0756 9.46094 19.3583 10.0479 19.3583 10.5125C19.3583 11.1697 18.9333 11.8773 17.4353 11.8773Z" fill="#979797" fill-opacity="0.4"/>
<path id="primary" d="M12 2C6.47717 2 2 6.47717 2 12C2 17.5228 6.47717 22 12 22C17.5228 22 22 17.5228 22 12C22 6.47717 17.5228 2 12 2ZM7.18842 13.3519H5.2699L5.79309 10.9374H7.63135C8.82599 10.9374 9.11048 11.5226 9.11048 11.9871C9.11047 12.6444 8.68286 13.3519 7.18842 13.3519ZM7.84918 9.71484H5.93616L6.45563 7.29852H8.29578C9.48957 7.29852 9.77497 7.8855 9.77497 8.35003C9.7749 9.0072 9.34723 9.71484 7.84918 9.71484ZM11.6033 17.1403H9.68481L10.2069 14.7222H12.0471C13.24 14.7222 13.5228 15.311 13.5228 15.7755C13.5228 16.4345 13.0978 17.1403 11.6033 17.1403ZM12.3109 13.3519H10.397L10.9182 10.9374H12.7575C13.9512 10.9374 14.2339 11.5226 14.2339 11.9871C14.2339 12.6444 13.809 13.3519 12.3109 13.3519ZM12.9753 9.71484H11.0614L11.5836 7.29852H13.4201C14.6157 7.29852 14.9002 7.8855 14.9002 8.35003C14.9002 9.0072 14.4734 9.71484 12.9753 9.71484ZM16.7223 15.32H14.8065L15.3287 12.9019H17.1671C18.3608 12.9019 18.6453 13.4924 18.6453 13.9552C18.6453 14.6123 18.2203 15.32 16.7223 15.32ZM17.4353 11.8773H15.5195L16.0417 9.46094H17.8818C19.0756 9.46094 19.3583 10.0479 19.3583 10.5125C19.3583 11.1697 18.9334 11.8773 17.4353 11.8773Z" fill="#F9CA24"/>
</g>
</svg>
