<svg width="24" height="24" viewBox="0 0 24 24" fill="none" xmlns="http://www.w3.org/2000/svg">
<g id="blogger">
<path id="accent" fill-rule="evenodd" clip-rule="evenodd" d="M18.3326 10.9217L18.2238 10.7L18.0449 10.5602C17.8101 10.3763 16.6221 10.5713 16.3027 10.2817C16.0755 10.0735 16.04 9.69787 15.9727 9.19237C15.9572 8.71497 15.8334 8.24732 15.6108 7.8247C14.953 6.66081 13.8078 5.85344 12.4905 5.625H9.66681C7.44133 5.63088 5.63697 7.4303 5.625 9.65576V14.3501C5.63838 16.574 7.44285 18.3709 9.66681 18.375H14.3058C16.5268 18.368 18.3281 16.5742 18.3444 14.3532L18.364 11.6777L18.3686 11.0993L18.3326 10.9217ZM9.71844 8.91663H11.9572C12.3829 8.91663 12.7281 9.26175 12.7281 9.68747C12.7281 10.1132 12.3829 10.4583 11.9572 10.4583H9.71844C9.29272 10.4583 8.9476 10.1132 8.9476 9.68747C8.9476 9.26175 9.29272 8.91663 9.71844 8.91663ZM14.2671 15.0416H9.71844C9.30423 15.0543 8.95818 14.7288 8.94552 14.3146C8.93286 13.9003 9.25839 13.5543 9.67261 13.5416C9.68788 13.5412 9.70317 13.5412 9.71844 13.5416H14.2671C14.6813 13.5311 15.0256 13.8584 15.0361 14.2726C15.0465 14.6869 14.7193 15.0311 14.305 15.0416C14.2924 15.0419 14.2797 15.0419 14.2671 15.0416Z" fill="#979797" fill-opacity="0.4"/>
<g id="primary">
<path d="M14.2671 13.5416H9.71844C9.70318 13.5411 9.68786 13.5411 9.6726 13.5416C9.25842 13.5543 8.93285 13.9003 8.94549 14.3146C8.95819 14.7288 9.30419 15.0543 9.71844 15.0416H14.2671C14.2797 15.0419 14.2924 15.0419 14.305 15.0416C14.7192 15.0311 15.0466 14.6869 15.0361 14.2726C15.0256 13.8585 14.6813 13.5311 14.2671 13.5416ZM9.71844 10.4583H11.9572C12.3829 10.4583 12.728 10.1132 12.728 9.68744C12.728 9.26172 12.3829 8.91663 11.9572 8.91663H9.71844C9.29272 8.91663 8.94757 9.26172 8.94757 9.68744C8.94757 10.1132 9.29272 10.4583 9.71844 10.4583Z" fill="#F9CA24"/>
<path d="M19.5 2H4.5C3.11926 2 2 3.11926 2 4.5V19.5C2 20.8807 3.11926 22 4.5 22H19.5C20.8807 22 22 20.8807 22 19.5V4.5C22 3.11926 20.8807 2 19.5 2ZM18.3444 14.3532C18.3281 16.5742 16.5268 18.368 14.3058 18.375H9.66681C7.44287 18.371 5.63837 16.574 5.625 14.3501V9.65576C5.63696 7.4303 7.44135 5.63086 9.66681 5.625H12.4905C13.8078 5.85345 14.9531 6.66083 15.6108 7.82471C15.8334 8.24732 15.9572 8.71497 15.9727 9.19239C16.04 9.69788 16.0755 10.0735 16.3027 10.2817C16.6221 10.5713 17.8101 10.3763 18.0449 10.5602L18.2238 10.7L18.3326 10.9217L18.3686 11.0993L18.3444 14.3532Z" fill="#F9CA24"/>
</g>
</g>
</svg>
