<svg width="24" height="24" viewBox="0 0 24 24" fill="none" xmlns="http://www.w3.org/2000/svg">
<g id="blogger_alt">
<path id="accent" d="M20 23H4C2.34389 22.9982 1.00181 21.6561 1 20V4C1.00181 2.34389 2.34389 1.00181 4 1H20C21.6561 1.00181 22.9982 2.34389 23 4V20C22.9982 21.6561 21.6561 22.9982 20 23Z" fill="#979797" fill-opacity="0.4"/>
<path id="primary" d="M16.0029 10.002H16V9C15.9978 6.79177 14.2082 5.0022 12 5H10C7.23992 5.00324 5.00324 7.23992 5 10V14C5.00324 16.7601 7.23992 18.9968 10 19H14C16.7601 18.9968 18.9968 16.7601 19 14V13C18.9987 11.3451 17.6578 10.0038 16.0029 10.002ZM10 9H11C11.5523 9 12 9.44771 12 10C12 10.5523 11.5523 11 11 11H10C9.44771 11 9 10.5523 9 10C9 9.44771 9.44771 9 10 9ZM14 15H10C9.44771 15 9 14.5523 9 14C9 13.4477 9.44771 13 10 13H14C14.5523 13 15 13.4477 15 14C15 14.5523 14.5523 15 14 15Z" fill="#F9CA24"/>
</g>
</svg>
