<svg width="24" height="24" viewBox="0 0 24 24" fill="none" xmlns="http://www.w3.org/2000/svg">
<g id="bookmark">
<path id="primary" d="M18 22C17.8245 22.0001 17.652 21.9539 17.5 21.8662L12 18.6943L6.5 21.8662C6.34795 21.9539 6.17551 22 6.00001 21.9999C5.82451 21.9998 5.65211 21.9536 5.50013 21.8658C5.34815 21.778 5.22193 21.6518 5.13414 21.4999C5.04636 21.3479 5.0001 21.1755 5 21V5C5.00087 4.20462 5.31722 3.44206 5.87964 2.87964C6.44206 2.31722 7.20462 2.00087 8 2H16C16.7954 2.00087 17.5579 2.31722 18.1204 2.87964C18.6828 3.44206 18.9991 4.20462 19 5V21C18.9998 21.2652 18.8944 21.5194 18.7069 21.7069C18.5194 21.8944 18.2652 21.9998 18 22Z" fill="#F9CA24"/>
</g>
</svg>
