<svg width="24" height="24" viewBox="0 0 24 24" fill="none" xmlns="http://www.w3.org/2000/svg">
<g id="border_top">
<path id="primary" d="M20 4.5H4C3.73478 4.5 3.48043 4.39464 3.29289 4.20711C3.10536 4.01957 3 3.76522 3 3.5C3 3.23478 3.10536 2.98043 3.29289 2.79289C3.48043 2.60536 3.73478 2.5 4 2.5H20C20.2652 2.5 20.5196 2.60536 20.7071 2.79289C20.8946 2.98043 21 3.23478 21 3.5C21 3.76522 20.8946 4.01957 20.7071 4.20711C20.5196 4.39464 20.2652 4.5 20 4.5Z" fill="#F9CA24"/>
<g id="accent">
<path d="M12 8.5C12.5523 8.5 13 8.05228 13 7.5C13 6.94772 12.5523 6.5 12 6.5C11.4477 6.5 11 6.94772 11 7.5C11 8.05228 11.4477 8.5 12 8.5Z" fill="#979797" fill-opacity="0.4"/>
<path d="M12 12.5C12.5523 12.5 13 12.0523 13 11.5C13 10.9477 12.5523 10.5 12 10.5C11.4477 10.5 11 10.9477 11 11.5C11 12.0523 11.4477 12.5 12 12.5Z" fill="#979797" fill-opacity="0.4"/>
<path d="M12 16.5C12.5523 16.5 13 16.0523 13 15.5C13 14.9477 12.5523 14.5 12 14.5C11.4477 14.5 11 14.9477 11 15.5C11 16.0523 11.4477 16.5 12 16.5Z" fill="#979797" fill-opacity="0.4"/>
<path d="M12 20.5C12.5523 20.5 13 20.0523 13 19.5C13 18.9477 12.5523 18.5 12 18.5C11.4477 18.5 11 18.9477 11 19.5C11 20.0523 11.4477 20.5 12 20.5Z" fill="#979797" fill-opacity="0.4"/>
<path d="M20 8.5C20.5523 8.5 21 8.05228 21 7.5C21 6.94772 20.5523 6.5 20 6.5C19.4477 6.5 19 6.94772 19 7.5C19 8.05228 19.4477 8.5 20 8.5Z" fill="#979797" fill-opacity="0.4"/>
<path d="M20 12.5C20.5523 12.5 21 12.0523 21 11.5C21 10.9477 20.5523 10.5 20 10.5C19.4477 10.5 19 10.9477 19 11.5C19 12.0523 19.4477 12.5 20 12.5Z" fill="#979797" fill-opacity="0.4"/>
<path d="M20 16.5C20.5523 16.5 21 16.0523 21 15.5C21 14.9477 20.5523 14.5 20 14.5C19.4477 14.5 19 14.9477 19 15.5C19 16.0523 19.4477 16.5 20 16.5Z" fill="#979797" fill-opacity="0.4"/>
<path d="M20 20.5C20.5523 20.5 21 20.0523 21 19.5C21 18.9477 20.5523 18.5 20 18.5C19.4477 18.5 19 18.9477 19 19.5C19 20.0523 19.4477 20.5 20 20.5Z" fill="#979797" fill-opacity="0.4"/>
<path d="M16 20.5C16.5523 20.5 17 20.0523 17 19.5C17 18.9477 16.5523 18.5 16 18.5C15.4477 18.5 15 18.9477 15 19.5C15 20.0523 15.4477 20.5 16 20.5Z" fill="#979797" fill-opacity="0.4"/>
<path d="M8 20.5C8.55228 20.5 9 20.0523 9 19.5C9 18.9477 8.55228 18.5 8 18.5C7.44772 18.5 7 18.9477 7 19.5C7 20.0523 7.44772 20.5 8 20.5Z" fill="#979797" fill-opacity="0.4"/>
<path d="M16 12.5C16.5523 12.5 17 12.0523 17 11.5C17 10.9477 16.5523 10.5 16 10.5C15.4477 10.5 15 10.9477 15 11.5C15 12.0523 15.4477 12.5 16 12.5Z" fill="#979797" fill-opacity="0.4"/>
<path d="M8 12.5C8.55228 12.5 9 12.0523 9 11.5C9 10.9477 8.55228 10.5 8 10.5C7.44772 10.5 7 10.9477 7 11.5C7 12.0523 7.44772 12.5 8 12.5Z" fill="#979797" fill-opacity="0.4"/>
<path d="M4 8.5C4.55228 8.5 5 8.05228 5 7.5C5 6.94772 4.55228 6.5 4 6.5C3.44772 6.5 3 6.94772 3 7.5C3 8.05228 3.44772 8.5 4 8.5Z" fill="#979797" fill-opacity="0.4"/>
<path d="M4 12.5C4.55228 12.5 5 12.0523 5 11.5C5 10.9477 4.55228 10.5 4 10.5C3.44772 10.5 3 10.9477 3 11.5C3 12.0523 3.44772 12.5 4 12.5Z" fill="#979797" fill-opacity="0.4"/>
<path d="M4 16.5C4.55228 16.5 5 16.0523 5 15.5C5 14.9477 4.55228 14.5 4 14.5C3.44772 14.5 3 14.9477 3 15.5C3 16.0523 3.44772 16.5 4 16.5Z" fill="#979797" fill-opacity="0.4"/>
<path d="M4 20.5C4.55228 20.5 5 20.0523 5 19.5C5 18.9477 4.55228 18.5 4 18.5C3.44772 18.5 3 18.9477 3 19.5C3 20.0523 3.44772 20.5 4 20.5Z" fill="#979797" fill-opacity="0.4"/>
</g>
</g>
</svg>
