<svg width="24" height="24" viewBox="0 0 24 24" fill="none" xmlns="http://www.w3.org/2000/svg">
<g id="border_bottom">
<path id="primary" d="M20 21.5H4C3.73478 21.5 3.48043 21.3946 3.29289 21.2071C3.10536 21.0196 3 20.7652 3 20.5C3 20.2348 3.10536 19.9804 3.29289 19.7929C3.48043 19.6054 3.73478 19.5 4 19.5H20C20.2652 19.5 20.5196 19.6054 20.7071 19.7929C20.8946 19.9804 21 20.2348 21 20.5C21 20.7652 20.8946 21.0196 20.7071 21.2071C20.5196 21.3946 20.2652 21.5 20 21.5Z" fill="#F9CA24"/>
<g id="accent">
<path d="M12 17.5C12.5523 17.5 13 17.0523 13 16.5C13 15.9477 12.5523 15.5 12 15.5C11.4477 15.5 11 15.9477 11 16.5C11 17.0523 11.4477 17.5 12 17.5Z" fill="#979797" fill-opacity="0.4"/>
<path d="M12 13.5C12.5523 13.5 13 13.0523 13 12.5C13 11.9477 12.5523 11.5 12 11.5C11.4477 11.5 11 11.9477 11 12.5C11 13.0523 11.4477 13.5 12 13.5Z" fill="#979797" fill-opacity="0.4"/>
<path d="M12 9.5C12.5523 9.5 13 9.05228 13 8.5C13 7.94772 12.5523 7.5 12 7.5C11.4477 7.5 11 7.94772 11 8.5C11 9.05228 11.4477 9.5 12 9.5Z" fill="#979797" fill-opacity="0.4"/>
<path d="M12 5.5C12.5523 5.5 13 5.05228 13 4.5C13 3.94772 12.5523 3.5 12 3.5C11.4477 3.5 11 3.94772 11 4.5C11 5.05228 11.4477 5.5 12 5.5Z" fill="#979797" fill-opacity="0.4"/>
<path d="M4 17.5C4.55228 17.5 5 17.0523 5 16.5C5 15.9477 4.55228 15.5 4 15.5C3.44772 15.5 3 15.9477 3 16.5C3 17.0523 3.44772 17.5 4 17.5Z" fill="#979797" fill-opacity="0.4"/>
<path d="M4 13.5C4.55228 13.5 5 13.0523 5 12.5C5 11.9477 4.55228 11.5 4 11.5C3.44772 11.5 3 11.9477 3 12.5C3 13.0523 3.44772 13.5 4 13.5Z" fill="#979797" fill-opacity="0.4"/>
<path d="M4 9.5C4.55228 9.5 5 9.05228 5 8.5C5 7.94772 4.55228 7.5 4 7.5C3.44772 7.5 3 7.94772 3 8.5C3 9.05228 3.44772 9.5 4 9.5Z" fill="#979797" fill-opacity="0.4"/>
<path d="M4 5.5C4.55228 5.5 5 5.05228 5 4.5C5 3.94772 4.55228 3.5 4 3.5C3.44772 3.5 3 3.94772 3 4.5C3 5.05228 3.44772 5.5 4 5.5Z" fill="#979797" fill-opacity="0.4"/>
<path d="M8 5.5C8.55228 5.5 9 5.05228 9 4.5C9 3.94772 8.55228 3.5 8 3.5C7.44772 3.5 7 3.94772 7 4.5C7 5.05228 7.44772 5.5 8 5.5Z" fill="#979797" fill-opacity="0.4"/>
<path d="M16 5.5C16.5523 5.5 17 5.05228 17 4.5C17 3.94772 16.5523 3.5 16 3.5C15.4477 3.5 15 3.94772 15 4.5C15 5.05228 15.4477 5.5 16 5.5Z" fill="#979797" fill-opacity="0.4"/>
<path d="M8 13.5C8.55228 13.5 9 13.0523 9 12.5C9 11.9477 8.55228 11.5 8 11.5C7.44772 11.5 7 11.9477 7 12.5C7 13.0523 7.44772 13.5 8 13.5Z" fill="#979797" fill-opacity="0.4"/>
<path d="M16 13.5C16.5523 13.5 17 13.0523 17 12.5C17 11.9477 16.5523 11.5 16 11.5C15.4477 11.5 15 11.9477 15 12.5C15 13.0523 15.4477 13.5 16 13.5Z" fill="#979797" fill-opacity="0.4"/>
<path d="M20 17.5C20.5523 17.5 21 17.0523 21 16.5C21 15.9477 20.5523 15.5 20 15.5C19.4477 15.5 19 15.9477 19 16.5C19 17.0523 19.4477 17.5 20 17.5Z" fill="#979797" fill-opacity="0.4"/>
<path d="M20 13.5C20.5523 13.5 21 13.0523 21 12.5C21 11.9477 20.5523 11.5 20 11.5C19.4477 11.5 19 11.9477 19 12.5C19 13.0523 19.4477 13.5 20 13.5Z" fill="#979797" fill-opacity="0.4"/>
<path d="M20 9.5C20.5523 9.5 21 9.05228 21 8.5C21 7.94772 20.5523 7.5 20 7.5C19.4477 7.5 19 7.94772 19 8.5C19 9.05228 19.4477 9.5 20 9.5Z" fill="#979797" fill-opacity="0.4"/>
<path d="M20 5.5C20.5523 5.5 21 5.05228 21 4.5C21 3.94772 20.5523 3.5 20 3.5C19.4477 3.5 19 3.94772 19 4.5C19 5.05228 19.4477 5.5 20 5.5Z" fill="#979797" fill-opacity="0.4"/>
</g>
</g>
</svg>
