<svg width="24" height="24" viewBox="0 0 24 24" fill="none" xmlns="http://www.w3.org/2000/svg">
<g id="border_alt">
<path id="primary" d="M3.5 20.5C3.36867 20.5 3.23862 20.4742 3.11728 20.4239C2.99594 20.3737 2.88568 20.3 2.79282 20.2072C2.69995 20.1143 2.62629 20.0041 2.57605 19.8827C2.52581 19.7614 2.49997 19.6313 2.5 19.5V3.5C2.49997 3.36867 2.52581 3.23862 2.57605 3.11728C2.62629 2.99594 2.69995 2.88568 2.79282 2.79282C2.88568 2.69995 2.99594 2.62629 3.11728 2.57605C3.23862 2.52581 3.36867 2.49997 3.5 2.5H19.5C19.7652 2.5 20.0196 2.60536 20.2071 2.79289C20.3946 2.98043 20.5 3.23478 20.5 3.5C20.5 3.76522 20.3946 4.01957 20.2071 4.20711C20.0196 4.39464 19.7652 4.5 19.5 4.5H4.5V19.5C4.50003 19.6313 4.47419 19.7614 4.42395 19.8827C4.37371 20.0041 4.30005 20.1143 4.20718 20.2072C4.11432 20.3 4.00406 20.3737 3.88272 20.4239C3.76138 20.4742 3.63133 20.5 3.5 20.5Z" fill="#F9CA24"/>
<g id="accent">
<path d="M19.5 12.5C20.0523 12.5 20.5 12.0523 20.5 11.5C20.5 10.9477 20.0523 10.5 19.5 10.5C18.9477 10.5 18.5 10.9477 18.5 11.5C18.5 12.0523 18.9477 12.5 19.5 12.5Z" fill="#979797" fill-opacity="0.4"/>
<path d="M19.5 8.5C20.0523 8.5 20.5 8.05228 20.5 7.5C20.5 6.94772 20.0523 6.5 19.5 6.5C18.9477 6.5 18.5 6.94772 18.5 7.5C18.5 8.05228 18.9477 8.5 19.5 8.5Z" fill="#979797" fill-opacity="0.4"/>
<path d="M19.5 16.5C20.0523 16.5 20.5 16.0523 20.5 15.5C20.5 14.9477 20.0523 14.5 19.5 14.5C18.9477 14.5 18.5 14.9477 18.5 15.5C18.5 16.0523 18.9477 16.5 19.5 16.5Z" fill="#979797" fill-opacity="0.4"/>
<path d="M7.5 20.5C8.05228 20.5 8.5 20.0523 8.5 19.5C8.5 18.9477 8.05228 18.5 7.5 18.5C6.94772 18.5 6.5 18.9477 6.5 19.5C6.5 20.0523 6.94772 20.5 7.5 20.5Z" fill="#979797" fill-opacity="0.4"/>
<path d="M11.5 20.5C12.0523 20.5 12.5 20.0523 12.5 19.5C12.5 18.9477 12.0523 18.5 11.5 18.5C10.9477 18.5 10.5 18.9477 10.5 19.5C10.5 20.0523 10.9477 20.5 11.5 20.5Z" fill="#979797" fill-opacity="0.4"/>
<path d="M15.5 20.5C16.0523 20.5 16.5 20.0523 16.5 19.5C16.5 18.9477 16.0523 18.5 15.5 18.5C14.9477 18.5 14.5 18.9477 14.5 19.5C14.5 20.0523 14.9477 20.5 15.5 20.5Z" fill="#979797" fill-opacity="0.4"/>
<path d="M19.5 20.5C20.0523 20.5 20.5 20.0523 20.5 19.5C20.5 18.9477 20.0523 18.5 19.5 18.5C18.9477 18.5 18.5 18.9477 18.5 19.5C18.5 20.0523 18.9477 20.5 19.5 20.5Z" fill="#979797" fill-opacity="0.4"/>
</g>
</g>
</svg>
