<svg width="24" height="24" viewBox="0 0 24 24" fill="none" xmlns="http://www.w3.org/2000/svg">
<g id="border_left">
<path id="primary" d="M3.5 21C3.36867 21 3.23862 20.9742 3.11728 20.9239C2.99594 20.8737 2.88568 20.8 2.79282 20.7072C2.69995 20.6143 2.62629 20.5041 2.57605 20.3827C2.52581 20.2614 2.49997 20.1313 2.5 20V4C2.5 3.73478 2.60536 3.48043 2.79289 3.29289C2.98043 3.10536 3.23478 3 3.5 3C3.76522 3 4.01957 3.10536 4.20711 3.29289C4.39464 3.48043 4.5 3.73478 4.5 4V20C4.50003 20.1313 4.47419 20.2614 4.42395 20.3827C4.37371 20.5041 4.30005 20.6143 4.20718 20.7072C4.11432 20.8 4.00406 20.8737 3.88272 20.9239C3.76138 20.9742 3.63133 21 3.5 21Z" fill="#F9CA24"/>
<g id="accent">
<path d="M7.5 13C8.05228 13 8.5 12.5523 8.5 12C8.5 11.4477 8.05228 11 7.5 11C6.94772 11 6.5 11.4477 6.5 12C6.5 12.5523 6.94772 13 7.5 13Z" fill="#979797" fill-opacity="0.4"/>
<path d="M11.5 13C12.0523 13 12.5 12.5523 12.5 12C12.5 11.4477 12.0523 11 11.5 11C10.9477 11 10.5 11.4477 10.5 12C10.5 12.5523 10.9477 13 11.5 13Z" fill="#979797" fill-opacity="0.4"/>
<path d="M15.5 13C16.0523 13 16.5 12.5523 16.5 12C16.5 11.4477 16.0523 11 15.5 11C14.9477 11 14.5 11.4477 14.5 12C14.5 12.5523 14.9477 13 15.5 13Z" fill="#979797" fill-opacity="0.4"/>
<path d="M19.5 13C20.0523 13 20.5 12.5523 20.5 12C20.5 11.4477 20.0523 11 19.5 11C18.9477 11 18.5 11.4477 18.5 12C18.5 12.5523 18.9477 13 19.5 13Z" fill="#979797" fill-opacity="0.4"/>
<path d="M7.5 5C8.05228 5 8.5 4.55228 8.5 4C8.5 3.44772 8.05228 3 7.5 3C6.94772 3 6.5 3.44772 6.5 4C6.5 4.55228 6.94772 5 7.5 5Z" fill="#979797" fill-opacity="0.4"/>
<path d="M11.5 5C12.0523 5 12.5 4.55228 12.5 4C12.5 3.44772 12.0523 3 11.5 3C10.9477 3 10.5 3.44772 10.5 4C10.5 4.55228 10.9477 5 11.5 5Z" fill="#979797" fill-opacity="0.4"/>
<path d="M15.5 5C16.0523 5 16.5 4.55228 16.5 4C16.5 3.44772 16.0523 3 15.5 3C14.9477 3 14.5 3.44772 14.5 4C14.5 4.55228 14.9477 5 15.5 5Z" fill="#979797" fill-opacity="0.4"/>
<path d="M19.5 5C20.0523 5 20.5 4.55228 20.5 4C20.5 3.44772 20.0523 3 19.5 3C18.9477 3 18.5 3.44772 18.5 4C18.5 4.55228 18.9477 5 19.5 5Z" fill="#979797" fill-opacity="0.4"/>
<path d="M19.5 9C20.0523 9 20.5 8.55228 20.5 8C20.5 7.44772 20.0523 7 19.5 7C18.9477 7 18.5 7.44772 18.5 8C18.5 8.55228 18.9477 9 19.5 9Z" fill="#979797" fill-opacity="0.4"/>
<path d="M19.5 17C20.0523 17 20.5 16.5523 20.5 16C20.5 15.4477 20.0523 15 19.5 15C18.9477 15 18.5 15.4477 18.5 16C18.5 16.5523 18.9477 17 19.5 17Z" fill="#979797" fill-opacity="0.4"/>
<path d="M11.5 9C12.0523 9 12.5 8.55228 12.5 8C12.5 7.44772 12.0523 7 11.5 7C10.9477 7 10.5 7.44772 10.5 8C10.5 8.55228 10.9477 9 11.5 9Z" fill="#979797" fill-opacity="0.4"/>
<path d="M11.5 17C12.0523 17 12.5 16.5523 12.5 16C12.5 15.4477 12.0523 15 11.5 15C10.9477 15 10.5 15.4477 10.5 16C10.5 16.5523 10.9477 17 11.5 17Z" fill="#979797" fill-opacity="0.4"/>
<path d="M7.5 21C8.05228 21 8.5 20.5523 8.5 20C8.5 19.4477 8.05228 19 7.5 19C6.94772 19 6.5 19.4477 6.5 20C6.5 20.5523 6.94772 21 7.5 21Z" fill="#979797" fill-opacity="0.4"/>
<path d="M11.5 21C12.0523 21 12.5 20.5523 12.5 20C12.5 19.4477 12.0523 19 11.5 19C10.9477 19 10.5 19.4477 10.5 20C10.5 20.5523 10.9477 21 11.5 21Z" fill="#979797" fill-opacity="0.4"/>
<path d="M15.5 21C16.0523 21 16.5 20.5523 16.5 20C16.5 19.4477 16.0523 19 15.5 19C14.9477 19 14.5 19.4477 14.5 20C14.5 20.5523 14.9477 21 15.5 21Z" fill="#979797" fill-opacity="0.4"/>
<path d="M19.5 21C20.0523 21 20.5 20.5523 20.5 20C20.5 19.4477 20.0523 19 19.5 19C18.9477 19 18.5 19.4477 18.5 20C18.5 20.5523 18.9477 21 19.5 21Z" fill="#979797" fill-opacity="0.4"/>
</g>
</g>
</svg>
