<svg width="24" height="24" viewBox="0 0 24 24" fill="none" xmlns="http://www.w3.org/2000/svg">
<g id="border_right">
<path id="primary" d="M20.5 21C20.3687 21 20.2386 20.9742 20.1173 20.9239C19.9959 20.8737 19.8857 20.8 19.7928 20.7072C19.7 20.6143 19.6263 20.5041 19.5761 20.3827C19.5258 20.2614 19.5 20.1313 19.5 20V4C19.5 3.73478 19.6054 3.48043 19.7929 3.29289C19.9804 3.10536 20.2348 3 20.5 3C20.7652 3 21.0196 3.10536 21.2071 3.29289C21.3946 3.48043 21.5 3.73478 21.5 4V20C21.5 20.1313 21.4742 20.2614 21.4239 20.3827C21.3737 20.5041 21.3 20.6143 21.2072 20.7072C21.1143 20.8 21.0041 20.8737 20.8827 20.9239C20.7614 20.9742 20.6313 21 20.5 21Z" fill="#F9CA24"/>
<g id="accent">
<path d="M16.5 13C17.0523 13 17.5 12.5523 17.5 12C17.5 11.4477 17.0523 11 16.5 11C15.9477 11 15.5 11.4477 15.5 12C15.5 12.5523 15.9477 13 16.5 13Z" fill="#979797" fill-opacity="0.4"/>
<path d="M12.5 13C13.0523 13 13.5 12.5523 13.5 12C13.5 11.4477 13.0523 11 12.5 11C11.9477 11 11.5 11.4477 11.5 12C11.5 12.5523 11.9477 13 12.5 13Z" fill="#979797" fill-opacity="0.4"/>
<path d="M8.5 13C9.05228 13 9.5 12.5523 9.5 12C9.5 11.4477 9.05228 11 8.5 11C7.94772 11 7.5 11.4477 7.5 12C7.5 12.5523 7.94772 13 8.5 13Z" fill="#979797" fill-opacity="0.4"/>
<path d="M4.5 13C5.05228 13 5.5 12.5523 5.5 12C5.5 11.4477 5.05228 11 4.5 11C3.94772 11 3.5 11.4477 3.5 12C3.5 12.5523 3.94772 13 4.5 13Z" fill="#979797" fill-opacity="0.4"/>
<path d="M16.5 21C17.0523 21 17.5 20.5523 17.5 20C17.5 19.4477 17.0523 19 16.5 19C15.9477 19 15.5 19.4477 15.5 20C15.5 20.5523 15.9477 21 16.5 21Z" fill="#979797" fill-opacity="0.4"/>
<path d="M12.5 21C13.0523 21 13.5 20.5523 13.5 20C13.5 19.4477 13.0523 19 12.5 19C11.9477 19 11.5 19.4477 11.5 20C11.5 20.5523 11.9477 21 12.5 21Z" fill="#979797" fill-opacity="0.4"/>
<path d="M8.5 21C9.05228 21 9.5 20.5523 9.5 20C9.5 19.4477 9.05228 19 8.5 19C7.94772 19 7.5 19.4477 7.5 20C7.5 20.5523 7.94772 21 8.5 21Z" fill="#979797" fill-opacity="0.4"/>
<path d="M4.5 21C5.05228 21 5.5 20.5523 5.5 20C5.5 19.4477 5.05228 19 4.5 19C3.94772 19 3.5 19.4477 3.5 20C3.5 20.5523 3.94772 21 4.5 21Z" fill="#979797" fill-opacity="0.4"/>
<path d="M4.5 17C5.05228 17 5.5 16.5523 5.5 16C5.5 15.4477 5.05228 15 4.5 15C3.94772 15 3.5 15.4477 3.5 16C3.5 16.5523 3.94772 17 4.5 17Z" fill="#979797" fill-opacity="0.4"/>
<path d="M4.5 9C5.05228 9 5.5 8.55228 5.5 8C5.5 7.44772 5.05228 7 4.5 7C3.94772 7 3.5 7.44772 3.5 8C3.5 8.55228 3.94772 9 4.5 9Z" fill="#979797" fill-opacity="0.4"/>
<path d="M12.5 17C13.0523 17 13.5 16.5523 13.5 16C13.5 15.4477 13.0523 15 12.5 15C11.9477 15 11.5 15.4477 11.5 16C11.5 16.5523 11.9477 17 12.5 17Z" fill="#979797" fill-opacity="0.4"/>
<path d="M12.5 9C13.0523 9 13.5 8.55228 13.5 8C13.5 7.44772 13.0523 7 12.5 7C11.9477 7 11.5 7.44772 11.5 8C11.5 8.55228 11.9477 9 12.5 9Z" fill="#979797" fill-opacity="0.4"/>
<path d="M16.5 5C17.0523 5 17.5 4.55228 17.5 4C17.5 3.44772 17.0523 3 16.5 3C15.9477 3 15.5 3.44772 15.5 4C15.5 4.55228 15.9477 5 16.5 5Z" fill="#979797" fill-opacity="0.4"/>
<path d="M12.5 5C13.0523 5 13.5 4.55228 13.5 4C13.5 3.44772 13.0523 3 12.5 3C11.9477 3 11.5 3.44772 11.5 4C11.5 4.55228 11.9477 5 12.5 5Z" fill="#979797" fill-opacity="0.4"/>
<path d="M8.5 5C9.05228 5 9.5 4.55228 9.5 4C9.5 3.44772 9.05228 3 8.5 3C7.94772 3 7.5 3.44772 7.5 4C7.5 4.55228 7.94772 5 8.5 5Z" fill="#979797" fill-opacity="0.4"/>
<path d="M4.5 5C5.05228 5 5.5 4.55228 5.5 4C5.5 3.44772 5.05228 3 4.5 3C3.94772 3 3.5 3.44772 3.5 4C3.5 4.55228 3.94772 5 4.5 5Z" fill="#979797" fill-opacity="0.4"/>
</g>
</g>
</svg>
