<svg width="24" height="24" viewBox="0 0 24 24" fill="none" xmlns="http://www.w3.org/2000/svg">
<g id="border_out">
<path id="primary" d="M20 21H4C3.86866 21.0001 3.73859 20.9743 3.61723 20.924C3.49587 20.8738 3.3856 20.8001 3.29273 20.7073C3.19985 20.6144 3.1262 20.5041 3.07597 20.3828C3.02574 20.2614 2.99993 20.1313 3 20V4C2.99993 3.86866 3.02574 3.73859 3.07597 3.61723C3.1262 3.49587 3.19985 3.3856 3.29273 3.29273C3.3856 3.19985 3.49587 3.1262 3.61723 3.07597C3.73859 3.02574 3.86866 2.99993 4 3H20C20.1313 2.99993 20.2614 3.02574 20.3828 3.07597C20.5041 3.1262 20.6144 3.19985 20.7073 3.29273C20.8001 3.3856 20.8738 3.49587 20.924 3.61723C20.9743 3.73859 21.0001 3.86866 21 4V20C21.0001 20.1313 20.9743 20.2614 20.924 20.3828C20.8738 20.5041 20.8001 20.6144 20.7073 20.7073C20.6144 20.8001 20.5041 20.8738 20.3828 20.924C20.2614 20.9743 20.1313 21.0001 20 21ZM5 19H19V5H5V19Z" fill="#F9CA24"/>
<g id="accent">
<path d="M12 13C12.5523 13 13 12.5523 13 12C13 11.4477 12.5523 11 12 11C11.4477 11 11 11.4477 11 12C11 12.5523 11.4477 13 12 13Z" fill="#979797" fill-opacity="0.4"/>
<path d="M12 17C12.5523 17 13 16.5523 13 16C13 15.4477 12.5523 15 12 15C11.4477 15 11 15.4477 11 16C11 16.5523 11.4477 17 12 17Z" fill="#979797" fill-opacity="0.4"/>
<path d="M12 9C12.5523 9 13 8.55228 13 8C13 7.44772 12.5523 7 12 7C11.4477 7 11 7.44772 11 8C11 8.55228 11.4477 9 12 9Z" fill="#979797" fill-opacity="0.4"/>
<path d="M8 13C8.55228 13 9 12.5523 9 12C9 11.4477 8.55228 11 8 11C7.44772 11 7 11.4477 7 12C7 12.5523 7.44772 13 8 13Z" fill="#979797" fill-opacity="0.4"/>
<path d="M16 13C16.5523 13 17 12.5523 17 12C17 11.4477 16.5523 11 16 11C15.4477 11 15 11.4477 15 12C15 12.5523 15.4477 13 16 13Z" fill="#979797" fill-opacity="0.4"/>
</g>
</g>
</svg>
