<svg width="24" height="24" viewBox="0 0 24 24" fill="none" xmlns="http://www.w3.org/2000/svg">
<g id="border_inner">
<g id="primary">
<path d="M19.9648 13H3.96484C3.69963 13 3.44527 12.8946 3.25774 12.7071C3.0702 12.5196 2.96484 12.2652 2.96484 12C2.96484 11.7348 3.0702 11.4804 3.25774 11.2929C3.44527 11.1054 3.69963 11 3.96484 11H19.9648C20.2301 11 20.4844 11.1054 20.672 11.2929C20.8595 11.4804 20.9648 11.7348 20.9648 12C20.9648 12.2652 20.8595 12.5196 20.672 12.7071C20.4844 12.8946 20.2301 13 19.9648 13Z" fill="#F9CA24"/>
<path d="M11.9648 21C11.8335 21 11.7035 20.9742 11.5821 20.9239C11.4608 20.8737 11.3505 20.8 11.2577 20.7072C11.1648 20.6143 11.0911 20.5041 11.0409 20.3827C10.9907 20.2614 10.9648 20.1313 10.9648 20V4C10.9648 3.73478 11.0702 3.48043 11.2577 3.29289C11.4453 3.10536 11.6996 3 11.9648 3C12.2301 3 12.4844 3.10536 12.672 3.29289C12.8595 3.48043 12.9648 3.73478 12.9648 4V20C12.9649 20.1313 12.939 20.2614 12.8888 20.3827C12.8386 20.5041 12.7649 20.6143 12.672 20.7072C12.5792 20.8001 12.4689 20.8737 12.3476 20.924C12.2262 20.9742 12.0962 21 11.9648 21Z" fill="#F9CA24"/>
</g>
<g id="accent">
<path d="M3.96399 17C4.51627 17 4.96399 16.5523 4.96399 16C4.96399 15.4477 4.51627 15 3.96399 15C3.4117 15 2.96399 15.4477 2.96399 16C2.96399 16.5523 3.4117 17 3.96399 17Z" fill="#979797" fill-opacity="0.4"/>
<path d="M3.96399 21C4.51627 21 4.96399 20.5523 4.96399 20C4.96399 19.4477 4.51627 19 3.96399 19C3.4117 19 2.96399 19.4477 2.96399 20C2.96399 20.5523 3.4117 21 3.96399 21Z" fill="#979797" fill-opacity="0.4"/>
<path d="M3.96399 9C4.51627 9 4.96399 8.55228 4.96399 8C4.96399 7.44772 4.51627 7 3.96399 7C3.4117 7 2.96399 7.44772 2.96399 8C2.96399 8.55228 3.4117 9 3.96399 9Z" fill="#979797" fill-opacity="0.4"/>
<path d="M3.96399 5C4.51627 5 4.96399 4.55228 4.96399 4C4.96399 3.44772 4.51627 3 3.96399 3C3.4117 3 2.96399 3.44772 2.96399 4C2.96399 4.55228 3.4117 5 3.96399 5Z" fill="#979797" fill-opacity="0.4"/>
<path d="M7.96399 5C8.51627 5 8.96399 4.55228 8.96399 4C8.96399 3.44772 8.51627 3 7.96399 3C7.4117 3 6.96399 3.44772 6.96399 4C6.96399 4.55228 7.4117 5 7.96399 5Z" fill="#979797" fill-opacity="0.4"/>
<path d="M15.964 5C16.5163 5 16.964 4.55228 16.964 4C16.964 3.44772 16.5163 3 15.964 3C15.4117 3 14.964 3.44772 14.964 4C14.964 4.55228 15.4117 5 15.964 5Z" fill="#979797" fill-opacity="0.4"/>
<path d="M7.96399 21C8.51627 21 8.96399 20.5523 8.96399 20C8.96399 19.4477 8.51627 19 7.96399 19C7.4117 19 6.96399 19.4477 6.96399 20C6.96399 20.5523 7.4117 21 7.96399 21Z" fill="#979797" fill-opacity="0.4"/>
<path d="M15.964 21C16.5163 21 16.964 20.5523 16.964 20C16.964 19.4477 16.5163 19 15.964 19C15.4117 19 14.964 19.4477 14.964 20C14.964 20.5523 15.4117 21 15.964 21Z" fill="#979797" fill-opacity="0.4"/>
<path d="M19.964 17C20.5163 17 20.964 16.5523 20.964 16C20.964 15.4477 20.5163 15 19.964 15C19.4117 15 18.964 15.4477 18.964 16C18.964 16.5523 19.4117 17 19.964 17Z" fill="#979797" fill-opacity="0.4"/>
<path d="M19.964 21C20.5163 21 20.964 20.5523 20.964 20C20.964 19.4477 20.5163 19 19.964 19C19.4117 19 18.964 19.4477 18.964 20C18.964 20.5523 19.4117 21 19.964 21Z" fill="#979797" fill-opacity="0.4"/>
<path d="M19.964 9C20.5163 9 20.964 8.55228 20.964 8C20.964 7.44772 20.5163 7 19.964 7C19.4117 7 18.964 7.44772 18.964 8C18.964 8.55228 19.4117 9 19.964 9Z" fill="#979797" fill-opacity="0.4"/>
<path d="M19.964 5C20.5163 5 20.964 4.55228 20.964 4C20.964 3.44772 20.5163 3 19.964 3C19.4117 3 18.964 3.44772 18.964 4C18.964 4.55228 19.4117 5 19.964 5Z" fill="#979797" fill-opacity="0.4"/>
</g>
</g>
</svg>
