<svg width="24" height="24" viewBox="0 0 24 24" fill="none" xmlns="http://www.w3.org/2000/svg">
<g id="border_vertical">
<path id="primary" d="M11 21C10.8687 21 10.7386 20.9742 10.6173 20.9239C10.4959 20.8737 10.3857 20.8 10.2928 20.7072C10.2 20.6143 10.1263 20.5041 10.0761 20.3827C10.0258 20.2614 9.99997 20.1313 10 20V4C10 3.73478 10.1054 3.48043 10.2929 3.29289C10.4804 3.10536 10.7348 3 11 3C11.2652 3 11.5196 3.10536 11.7071 3.29289C11.8946 3.48043 12 3.73478 12 4V20C12 20.1313 11.9742 20.2614 11.9239 20.3827C11.8737 20.5041 11.8 20.6143 11.7072 20.7072C11.6143 20.8 11.5041 20.8737 11.3827 20.9239C11.2614 20.9742 11.1313 21 11 21Z" fill="#F9CA24"/>
<g id="accent">
<path d="M7 13C7.55228 13 8 12.5523 8 12C8 11.4477 7.55228 11 7 11C6.44772 11 6 11.4477 6 12C6 12.5523 6.44772 13 7 13Z" fill="#979797" fill-opacity="0.4"/>
<path d="M3 13C3.55228 13 4 12.5523 4 12C4 11.4477 3.55228 11 3 11C2.44772 11 2 11.4477 2 12C2 12.5523 2.44772 13 3 13Z" fill="#979797" fill-opacity="0.4"/>
<path d="M15 13C15.5523 13 16 12.5523 16 12C16 11.4477 15.5523 11 15 11C14.4477 11 14 11.4477 14 12C14 12.5523 14.4477 13 15 13Z" fill="#979797" fill-opacity="0.4"/>
<path d="M19 13C19.5523 13 20 12.5523 20 12C20 11.4477 19.5523 11 19 11C18.4477 11 18 11.4477 18 12C18 12.5523 18.4477 13 19 13Z" fill="#979797" fill-opacity="0.4"/>
<path d="M7 5C7.55228 5 8 4.55228 8 4C8 3.44772 7.55228 3 7 3C6.44772 3 6 3.44772 6 4C6 4.55228 6.44772 5 7 5Z" fill="#979797" fill-opacity="0.4"/>
<path d="M3 5C3.55228 5 4 4.55228 4 4C4 3.44772 3.55228 3 3 3C2.44772 3 2 3.44772 2 4C2 4.55228 2.44772 5 3 5Z" fill="#979797" fill-opacity="0.4"/>
<path d="M15 5C15.5523 5 16 4.55228 16 4C16 3.44772 15.5523 3 15 3C14.4477 3 14 3.44772 14 4C14 4.55228 14.4477 5 15 5Z" fill="#979797" fill-opacity="0.4"/>
<path d="M19 5C19.5523 5 20 4.55228 20 4C20 3.44772 19.5523 3 19 3C18.4477 3 18 3.44772 18 4C18 4.55228 18.4477 5 19 5Z" fill="#979797" fill-opacity="0.4"/>
<path d="M19 9C19.5523 9 20 8.55228 20 8C20 7.44772 19.5523 7 19 7C18.4477 7 18 7.44772 18 8C18 8.55228 18.4477 9 19 9Z" fill="#979797" fill-opacity="0.4"/>
<path d="M19 17C19.5523 17 20 16.5523 20 16C20 15.4477 19.5523 15 19 15C18.4477 15 18 15.4477 18 16C18 16.5523 18.4477 17 19 17Z" fill="#979797" fill-opacity="0.4"/>
<path d="M3 9C3.55228 9 4 8.55228 4 8C4 7.44772 3.55228 7 3 7C2.44772 7 2 7.44772 2 8C2 8.55228 2.44772 9 3 9Z" fill="#979797" fill-opacity="0.4"/>
<path d="M3 17C3.55228 17 4 16.5523 4 16C4 15.4477 3.55228 15 3 15C2.44772 15 2 15.4477 2 16C2 16.5523 2.44772 17 3 17Z" fill="#979797" fill-opacity="0.4"/>
<path d="M7 21C7.55228 21 8 20.5523 8 20C8 19.4477 7.55228 19 7 19C6.44772 19 6 19.4477 6 20C6 20.5523 6.44772 21 7 21Z" fill="#979797" fill-opacity="0.4"/>
<path d="M3 21C3.55228 21 4 20.5523 4 20C4 19.4477 3.55228 19 3 19C2.44772 19 2 19.4477 2 20C2 20.5523 2.44772 21 3 21Z" fill="#979797" fill-opacity="0.4"/>
<path d="M15 21C15.5523 21 16 20.5523 16 20C16 19.4477 15.5523 19 15 19C14.4477 19 14 19.4477 14 20C14 20.5523 14.4477 21 15 21Z" fill="#979797" fill-opacity="0.4"/>
<path d="M19 21C19.5523 21 20 20.5523 20 20C20 19.4477 19.5523 19 19 19C18.4477 19 18 19.4477 18 20C18 20.5523 18.4477 21 19 21Z" fill="#979797" fill-opacity="0.4"/>
</g>
</g>
</svg>
