<svg width="24" height="24" viewBox="0 0 24 24" fill="none" xmlns="http://www.w3.org/2000/svg">
<g id="box">
<path id="accent" d="M12 12V21.5C11.6847 21.4996 11.3736 21.4278 11.09 21.29L4.5 17.48C3.88228 17.1226 3.50135 16.4636 3.5 15.75V8.24999C3.50166 7.89571 3.59466 7.54784 3.77 7.23999L12 12Z" fill="#979797" fill-opacity="0.4"/>
<g id="primary">
<path d="M20.23 7.24L12 12L3.76999 7.24C3.93897 6.94752 4.17994 6.70311 4.46999 6.53L11 2.76C11.6207 2.40996 12.3793 2.40996 13 2.76L19.53 6.53C19.82 6.70311 20.061 6.94752 20.23 7.24Z" fill="#F9CA24"/>
<path d="M20.5 8.25V15.75C20.4986 16.4636 20.1177 17.1226 19.5 17.48L12.88 21.3C12.6047 21.4298 12.3044 21.4981 12 21.5V12L20.23 7.24C20.4053 7.54785 20.4983 7.89572 20.5 8.25Z" fill="#F9CA24"/>
</g>
</g>
</svg>
