<svg width="24" height="24" viewBox="0 0 24 24" fill="none" xmlns="http://www.w3.org/2000/svg">
<g id="briefcase">
<g id="accent">
<path d="M9 15C8.44786 15.0001 8.00014 14.5527 8 14.0005C8 14.0007 8 14.0003 8 14.0005V12C8 11.4477 8.44771 11 9 11C9.55229 11 10 11.4477 10 12V14C10.0001 14.5521 9.55214 14.9999 9 15C9.00017 15 8.99983 15 9 15ZM15 15C14.4479 15.0001 14.0001 14.5527 14 14.0005C14 14.0007 14 14.0003 14 14.0005V12C14 11.4477 14.4477 11 15 11C15.5523 11 16 11.4477 16 12V14C16.0001 14.5521 15.5521 14.9999 15 15C15.0002 15 14.9998 15 15 15Z" fill="#979797" fill-opacity="0.4"/>
<path d="M20 6H4C2.89543 6 2 6.89543 2 8V11C2 12.1046 2.89543 13 4 13H8V12C8 11.4477 8.44771 11 9 11C9.55229 11 10 11.4477 10 12V13H14V12C14 11.4477 14.4477 11 15 11C15.5523 11 16 11.4477 16 12V13H20C21.1046 13 22 12.1046 22 11V8C22 6.89543 21.1046 6 20 6Z" fill="#979797" fill-opacity="0.4"/>
</g>
<g id="primary">
<path d="M10 6V5H14V6H16V5C15.9987 3.89595 15.1041 3.00126 14 3H10C8.89595 3.00126 8.00126 3.89595 8 5V6H10Z" fill="#F9CA24"/>
<path d="M20 13H16V14C16 14.5523 15.5523 15 15 15C14.4477 15 14 14.5523 14 14V13H10V14C10 14.5523 9.55229 15 9 15C8.44771 15 8 14.5523 8 14V13H4C2.89543 13 2 12.1046 2 11V19C2 20.1046 2.89543 21 4 21H20C21.1046 21 22 20.1046 22 19V11C22 12.1046 21.1046 13 20 13Z" fill="#F9CA24"/>
</g>
</g>
</svg>
