<svg width="25" height="25" viewBox="0 0 25 25" fill="none" xmlns="http://www.w3.org/2000/svg">
<g id="building">
<g id="Group 12">
<path id="accent" d="M7.34893 21.6582C8.42141 21.7021 8.95948 21.3617 8.81673 20.2306C8.79476 20.0549 8.81306 19.8719 8.81306 19.6889C8.84235 14.4217 9.39506 13.9824 14.7721 14.7657C15.8153 14.9195 16.0239 15.5783 16.0459 16.4056C16.0825 17.7269 16.0935 19.052 16.0496 20.3734C16.0203 21.2921 16.357 21.6765 17.3051 21.6508C18.9302 21.6106 20.5591 21.6581 22.188 21.6691C22.1989 15.2892 22.1806 8.90919 22.2355 2.53287C22.2502 0.900363 21.5877 0.27811 19.9661 0.296412C15.0173 0.347656 10.0686 0.311052 5.11978 0.318373C2.92724 0.322033 2.65636 0.60388 2.6527 2.85865C2.64538 9.11783 2.64539 15.377 2.64539 21.6362C4.21201 21.6399 5.7823 21.5923 7.34893 21.6582ZM15.5005 12.2437C14.6476 12.2767 13.9083 12.1559 13.8863 11.0615C13.8643 9.98898 14.6184 9.72177 15.4346 9.77302C16.2069 9.82426 17.0525 10.0878 17.1037 11.0725C17.1623 12.1779 16.3424 12.2694 15.5005 12.2437ZM15.6835 5.01824C16.5034 5.01092 17.1111 5.2342 17.1257 6.2774C16.9061 7.21078 16.1228 7.5146 15.2553 7.4963C14.5012 7.48165 13.846 7.17051 13.8863 6.20418C13.9375 4.95967 14.8197 5.02556 15.6835 5.01824ZM9.19374 12.2254C8.69227 12.1559 7.75888 12.1632 7.78084 11.1017C7.79915 10.0366 8.72155 9.79498 9.56709 9.77668C10.3028 9.76204 10.9836 10.0366 10.9873 10.9956C10.9873 12.0498 10.3467 12.2913 9.19374 12.2254ZM9.36943 5.01457C10.2186 5.01091 10.9653 5.10975 10.98 6.20785C11.0312 7.17418 10.3577 7.49264 9.60735 7.4963C8.74717 7.49996 7.84673 7.24739 7.7662 6.18955C7.68567 5.08047 8.53487 5.01823 9.36943 5.01457Z" fill="#979797" fill-opacity="0.4"/>
<path id="primary" d="M23.513 22.0169C23.0921 21.9912 22.6711 21.9766 22.2502 21.9583C15.226 21.9656 8.20178 21.9693 1.17759 21.9766C0.383293 22.2951 0.288131 22.9466 0.533374 23.6164C0.793258 24.3119 1.48872 24.235 2.08902 24.235C8.97046 24.2387 15.8482 24.235 22.7297 24.235C22.9713 24.235 23.2128 24.2277 23.4508 24.2057C24.1023 24.1399 24.4098 23.7592 24.4134 23.126C24.4281 22.5074 24.2121 22.0608 23.513 22.0169Z" fill="#FFD740"/>
<g id="accent_2">
<path d="M22.2502 21.9583C22.2319 21.8632 22.2099 21.768 22.1843 21.6728C20.5555 21.6618 18.9303 21.6143 17.3014 21.6545C16.3534 21.6765 16.013 21.2958 16.0459 20.3771C16.0898 19.0557 16.0752 17.7306 16.0423 16.4092C16.0203 15.582 15.8117 14.9232 14.7685 14.7694C9.39142 13.9861 8.83871 14.4254 8.80942 19.6926C8.80942 19.8719 8.79113 20.055 8.81309 20.2343C8.95584 21.3617 8.42143 21.7058 7.34529 21.6618C5.78232 21.596 4.21204 21.6435 2.64541 21.6399C2.15493 21.746 1.59123 21.5374 1.17761 21.9766C8.20181 21.9693 15.226 21.962 22.2502 21.9583Z" fill="#979797" fill-opacity="0.7"/>
<path d="M9.60733 7.49266C10.3577 7.489 11.0312 7.17421 10.98 6.20422C10.9617 5.10611 10.2186 5.00728 9.36941 5.01094C8.53486 5.0146 7.68566 5.07683 7.76985 6.18226C7.84671 7.24375 8.75081 7.49632 9.60733 7.49266Z" fill="#979797" fill-opacity="0.7"/>
<path d="M15.2553 7.49632C16.1264 7.51463 16.9061 7.20715 17.1257 6.27742C17.1074 5.23789 16.5034 5.01461 15.6835 5.01827C14.8197 5.02559 13.9375 4.95969 13.8863 6.20055C13.846 7.17054 14.5012 7.48168 15.2553 7.49632Z" fill="#979797" fill-opacity="0.7"/>
<path d="M15.4346 9.77671C14.6184 9.72547 13.8643 9.98902 13.8863 11.0652C13.9082 12.1596 14.6476 12.2804 15.5005 12.2474C16.3387 12.2694 17.1586 12.1816 17.1037 11.0761C17.0561 10.0915 16.2106 9.82796 15.4346 9.77671Z" fill="#979797" fill-opacity="0.7"/>
<path d="M9.56342 9.7767C8.72154 9.795 7.79548 10.0402 7.77717 11.1017C7.75887 12.1632 8.68861 12.1559 9.19007 12.2255C10.3431 12.2914 10.9836 12.0461 10.98 10.9956C10.98 10.0366 10.2992 9.76206 9.56342 9.7767Z" fill="#979797" fill-opacity="0.7"/>
</g>
</g>
</g>
</svg>
