<svg width="24" height="24" viewBox="0 0 24 24" fill="none" xmlns="http://www.w3.org/2000/svg">
<g id="calender">
<path id="accent" d="M22 10H1.99976V19C1.99976 20.6568 3.34291 22 4.99976 22H19.0002C20.6571 22 22.0002 20.6568 22.0002 19L22 10ZM7 8C6.44772 8 6 7.55228 6 7V3C6 2.44772 6.44772 2 7 2C7.55228 2 8 2.44772 8 3V7C8 7.55228 7.55228 8 7 8ZM17 8C16.4477 8 16 7.55228 16 7V3C16 2.44772 16.4477 2 17 2C17.5523 2 18 2.44772 18 3V7C18 7.55228 17.5523 8 17 8Z" fill="#979797" fill-opacity="0.4"/>
<path id="primary" d="M19 4H18V7C18 7.55228 17.5523 8 17 8C16.4477 8 16 7.55228 16 7V4H8V7C8 7.55228 7.55228 8 7 8C6.44772 8 6 7.55228 6 7V4H4.99951C3.34266 4 1.99951 5.34315 1.99951 7V10H22V7C22 5.34315 20.6569 4 19 4Z" fill="#F9CA24"/>
</g>
</svg>
