<svg width="25" height="25" viewBox="0 0 25 25" fill="none" xmlns="http://www.w3.org/2000/svg">
<g id="calendar">
<g id="Group 6">
<path id="accent" d="M0.398336 10.1666C0.386225 13.7059 0.349893 17.2452 0.374114 20.7815C0.389252 23.028 1.89398 24.5539 4.12837 24.566C9.62048 24.5963 15.1096 24.5963 20.6017 24.566C22.8391 24.5539 24.3408 23.028 24.3559 20.7815C24.3802 17.2422 24.3438 13.7029 24.3317 10.1666C16.3539 10.1666 8.37613 10.1666 0.398336 10.1666Z" fill="#979797" fill-opacity="0.4"/>
<path id="primary" d="M24.365 7.79597C24.368 4.2052 23.1539 2.99718 19.5662 3.01534C19.5662 4.15978 19.5783 5.30423 19.5571 6.44867C19.542 7.25704 19.1484 7.81715 18.2916 7.77174C17.5286 7.73238 17.1774 7.19346 17.1713 6.44867C17.1623 5.30423 17.1683 4.15978 17.1653 3.01534C13.9651 3.01534 10.7649 3.01534 7.56469 3.01534C7.56469 4.15978 7.5768 5.30423 7.55561 6.44867C7.54047 7.25704 7.14688 7.81715 6.29006 7.77174C5.5271 7.73238 5.17589 7.19346 5.16984 6.44867C5.16075 5.30423 5.16681 4.15978 5.16378 3.01534C1.5488 2.99718 0.361968 4.17795 0.364996 7.79294C0.364996 8.58315 0.38619 9.37638 0.3983 10.1666C8.37609 10.1666 16.3539 10.1666 24.3317 10.1666C24.3408 9.37638 24.362 8.58618 24.365 7.79597Z" fill="#FFD740"/>
<g id="accent_2">
<path d="M6.28703 7.77175C7.14385 7.81717 7.53744 7.25706 7.55258 6.44868C7.5768 5.30424 7.56166 4.1598 7.56166 3.01536C7.56166 2.81856 7.55258 2.61874 7.56166 2.42195C7.60708 1.5621 7.46175 0.711332 6.43236 0.665917C5.297 0.617475 5.12139 1.49549 5.15773 2.42195C5.16681 2.61874 5.15773 2.81856 5.15773 3.01536C5.15773 4.1598 5.1547 5.30424 5.16378 6.44868C5.17589 7.19348 5.5271 7.7324 6.28703 7.77175Z" fill="#979797" fill-opacity="0.7"/>
<path d="M18.2885 7.77175C19.1453 7.81717 19.5389 7.25706 19.5541 6.44868C19.5783 5.30424 19.5632 4.1598 19.5632 3.01536C19.5632 2.81856 19.5541 2.61874 19.5632 2.42195C19.6086 1.5621 19.4632 0.711332 18.4338 0.665917C17.2985 0.617475 17.1229 1.49549 17.1592 2.42195C17.1683 2.61874 17.1592 2.81856 17.1592 3.01536C17.1592 4.1598 17.1562 5.30424 17.1653 6.44868C17.1744 7.19348 17.5256 7.7324 18.2885 7.77175Z" fill="#979797" fill-opacity="0.7"/>
</g>
</g>
</g>
</svg>
