<svg width="24" height="24" viewBox="0 0 24 24" fill="none" xmlns="http://www.w3.org/2000/svg">
<g id="chart">
<path id="primary" d="M7 18C6.86867 18 6.73862 17.9742 6.61728 17.9239C6.49594 17.8737 6.38568 17.8 6.29282 17.7072C6.19995 17.6143 6.12629 17.5041 6.07605 17.3827C6.02581 17.2614 5.99997 17.1313 6 17V13C6 12.7348 6.10536 12.4804 6.29289 12.2929C6.48043 12.1054 6.73478 12 7 12C7.26522 12 7.51957 12.1054 7.70711 12.2929C7.89464 12.4804 8 12.7348 8 13V17C8.00003 17.1313 7.97419 17.2614 7.92395 17.3827C7.87371 17.5041 7.80005 17.6143 7.70718 17.7072C7.61432 17.8 7.50406 17.8737 7.38272 17.9239C7.26138 17.9742 7.13133 18 7 18ZM12 18C11.8687 18 11.7386 17.9742 11.6173 17.9239C11.4959 17.8737 11.3857 17.8 11.2928 17.7072C11.2 17.6143 11.1263 17.5041 11.0761 17.3827C11.0258 17.2614 11 17.1313 11 17V7C11 6.73478 11.1054 6.48043 11.2929 6.29289C11.4804 6.10536 11.7348 6 12 6C12.2652 6 12.5196 6.10536 12.7071 6.29289C12.8946 6.48043 13 6.73478 13 7V17C13 17.1313 12.9742 17.2614 12.9239 17.3827C12.8737 17.5041 12.8 17.6143 12.7072 17.7072C12.6143 17.8 12.5041 17.8737 12.3827 17.9239C12.2614 17.9742 12.1313 18 12 18ZM17 18C16.8687 18 16.7386 17.9742 16.6173 17.9239C16.4959 17.8737 16.3857 17.8 16.2928 17.7072C16.2 17.6143 16.1263 17.5041 16.0761 17.3827C16.0258 17.2614 16 17.1313 16 17V11C16 10.7348 16.1054 10.4804 16.2929 10.2929C16.4804 10.1054 16.7348 10 17 10C17.2652 10 17.5196 10.1054 17.7071 10.2929C17.8946 10.4804 18 10.7348 18 11V17C18 17.1313 17.9742 17.2614 17.9239 17.3827C17.8737 17.5041 17.8 17.6143 17.7072 17.7072C17.6143 17.8 17.5041 17.8737 17.3827 17.9239C17.2614 17.9742 17.1313 18 17 18Z" fill="#F9CA24"/>
<path id="accent" d="M19 2H5C4.20435 2 3.44129 2.31607 2.87868 2.87868C2.31607 3.44129 2 4.20435 2 5V19C2 19.7956 2.31607 20.5587 2.87868 21.1213C3.44129 21.6839 4.20435 22 5 22H19C19.7956 22 20.5587 21.6839 21.1213 21.1213C21.6839 20.5587 22 19.7956 22 19V5C22 4.20435 21.6839 3.44129 21.1213 2.87868C20.5587 2.31607 19.7956 2 19 2ZM8 17C8 17.2652 7.89464 17.5196 7.70711 17.7071C7.51957 17.8946 7.26522 18 7 18C6.73478 18 6.48043 17.8946 6.29289 17.7071C6.10536 17.5196 6 17.2652 6 17V13C6 12.7348 6.10536 12.4804 6.29289 12.2929C6.48043 12.1054 6.73478 12 7 12C7.26522 12 7.51957 12.1054 7.70711 12.2929C7.89464 12.4804 8 12.7348 8 13V17ZM13 17C13 17.2652 12.8946 17.5196 12.7071 17.7071C12.5196 17.8946 12.2652 18 12 18C11.7348 18 11.4804 17.8946 11.2929 17.7071C11.1054 17.5196 11 17.2652 11 17V7C11 6.73478 11.1054 6.48043 11.2929 6.29289C11.4804 6.10536 11.7348 6 12 6C12.2652 6 12.5196 6.10536 12.7071 6.29289C12.8946 6.48043 13 6.73478 13 7V17ZM18 17C18 17.2652 17.8946 17.5196 17.7071 17.7071C17.5196 17.8946 17.2652 18 17 18C16.7348 18 16.4804 17.8946 16.2929 17.7071C16.1054 17.5196 16 17.2652 16 17V11C16 10.7348 16.1054 10.4804 16.2929 10.2929C16.4804 10.1054 16.7348 10 17 10C17.2652 10 17.5196 10.1054 17.7071 10.2929C17.8946 10.4804 18 10.7348 18 11V17Z" fill="#979797" fill-opacity="0.4"/>
</g>
</svg>
