<svg width="24" height="24" viewBox="0 0 24 24" fill="none" xmlns="http://www.w3.org/2000/svg">
<g id="check_circle">
<path id="primary" opacity="0.99" d="M10.3125 16.0937C10.1812 16.0939 10.0511 16.0681 9.92978 16.0178C9.80845 15.9675 9.69825 15.8937 9.60552 15.8007L6.79302 12.9883C6.60745 12.8004 6.50376 12.5467 6.50458 12.2826C6.50541 12.0185 6.61068 11.7654 6.79742 11.5787C6.98416 11.3919 7.2372 11.2866 7.5013 11.2858C7.7654 11.285 8.0191 11.3886 8.20702 11.5742L10.3125 13.6797L15.793 8.19921C15.9809 8.01365 16.2346 7.90997 16.4987 7.9108C16.7628 7.91164 17.0159 8.01692 17.2026 8.20367C17.3894 8.39042 17.4946 8.64347 17.4955 8.90756C17.4963 9.17166 17.3926 9.42536 17.207 9.61327L11.0195 15.8008C10.9268 15.8938 10.8166 15.9675 10.6953 16.0178C10.5739 16.0681 10.4439 16.0939 10.3125 16.0937Z" fill="#F9CA24"/>
<path id="accent" d="M12 2C10.0222 2 8.08879 2.58649 6.4443 3.6853C4.79981 4.78412 3.51809 6.3459 2.76121 8.17317C2.00433 10.0004 1.8063 12.0111 2.19215 13.9509C2.578 15.8907 3.53041 17.6725 4.92894 19.0711C6.32746 20.4696 8.10929 21.422 10.0491 21.8079C11.9889 22.1937 13.9996 21.9957 15.8268 21.2388C17.6541 20.4819 19.2159 19.2002 20.3147 17.5557C21.4135 15.9112 22 13.9778 22 12C21.997 9.34877 20.9424 6.80699 19.0677 4.93228C17.193 3.05758 14.6512 2.00303 12 2V2ZM17.207 9.61328L11.0195 15.8008C10.9267 15.8937 10.8165 15.9673 10.6951 16.0176C10.5738 16.0679 10.4438 16.0938 10.3125 16.0938C10.1812 16.0938 10.0511 16.0679 9.92981 16.0176C9.8085 15.9673 9.69828 15.8937 9.60544 15.8008L6.793 12.9883C6.60743 12.8004 6.50374 12.5467 6.50457 12.2826C6.50539 12.0185 6.61067 11.7654 6.79741 11.5787C6.98415 11.3919 7.23719 11.2867 7.50129 11.2858C7.76538 11.285 8.01908 11.3887 8.207 11.5742L10.3125 13.6797L15.793 8.19922C15.9809 8.01366 16.2346 7.90998 16.4987 7.91081C16.7628 7.91165 17.0159 8.01694 17.2026 8.20368C17.3893 8.39043 17.4946 8.64348 17.4954 8.90757C17.4963 9.17167 17.3926 9.42537 17.207 9.61328Z" fill="#979797" fill-opacity="0.4"/>
</g>
</svg>
