<svg width="24" height="24" viewBox="0 0 24 24" fill="none" xmlns="http://www.w3.org/2000/svg">
<g id="check_square">
<path id="primary" d="M10.2002 16.3999C10.0689 16.4 9.9388 16.3742 9.81747 16.3239C9.69614 16.2737 9.58594 16.1999 9.49321 16.1069L6.29301 12.9072C6.10725 12.7193 6.00341 12.4656 6.00415 12.2014C6.0049 11.9372 6.11018 11.684 6.29699 11.4972C6.48381 11.3104 6.73697 11.2051 7.00116 11.2043C7.26536 11.2036 7.51912 11.3074 7.70701 11.4931L10.2002 13.9858L16.293 7.89306C16.4809 7.70749 16.7346 7.60381 16.9987 7.60465C17.2628 7.60549 17.5159 7.71077 17.7026 7.89752C17.8893 8.08427 17.9946 8.33731 17.9954 8.60141C17.9963 8.86551 17.8926 9.1192 17.707 9.30712L10.9072 16.1069C10.8145 16.1999 10.7043 16.2737 10.5829 16.324C10.4616 16.3742 10.3315 16.4 10.2002 16.3999Z" fill="#F9CA24"/>
<path id="accent" d="M21 2H3C2.73478 2 2.48043 2.10536 2.29289 2.29289C2.10536 2.48043 2 2.73478 2 3V21C2 21.2652 2.10536 21.5196 2.29289 21.7071C2.48043 21.8946 2.73478 22 3 22H21C21.2652 22 21.5196 21.8946 21.7071 21.7071C21.8946 21.5196 22 21.2652 22 21V3C22 2.73478 21.8946 2.48043 21.7071 2.29289C21.5196 2.10536 21.2652 2 21 2V2ZM17.707 9.30713L10.9072 16.1069C10.8144 16.1998 10.7041 16.2735 10.5828 16.3238C10.4615 16.374 10.3315 16.3999 10.2002 16.3999C10.0688 16.3999 9.93882 16.374 9.8175 16.3238C9.69618 16.2735 9.58596 16.1998 9.49313 16.1069L6.293 12.9072C6.10725 12.7194 6.0034 12.4656 6.00415 12.2014C6.00489 11.9372 6.11017 11.684 6.29699 11.4972C6.4838 11.3104 6.73696 11.2051 7.00116 11.2043C7.26535 11.2036 7.51912 11.3074 7.707 11.4932L10.2002 13.9858L16.293 7.89307C16.4809 7.70751 16.7346 7.60383 16.9987 7.60466C17.2628 7.6055 17.5159 7.71079 17.7026 7.89754C17.8893 8.08428 17.9946 8.33733 17.9954 8.60142C17.9963 8.86552 17.8926 9.11922 17.707 9.30713V9.30713Z" fill="#979797" fill-opacity="0.4"/>
</g>
</svg>
