<svg width="24" height="24" viewBox="0 0 24 24" fill="none" xmlns="http://www.w3.org/2000/svg">
<g id="check">
<path id="primary" d="M9.83986 17.0801C9.70852 17.0802 9.57845 17.0544 9.45712 17.0041C9.33578 16.9539 9.22559 16.8801 9.13286 16.7871L5.29302 12.9473C5.1993 12.8546 5.12482 12.7444 5.07386 12.6228C5.0229 12.5013 4.99648 12.3709 4.9961 12.2391C4.99572 12.1073 5.0214 11.9767 5.07165 11.8549C5.12191 11.7331 5.19575 11.6224 5.28894 11.5292C5.38212 11.436 5.49281 11.3621 5.61464 11.3119C5.73646 11.2616 5.86702 11.2359 5.99881 11.2363C6.1306 11.2367 6.26101 11.2631 6.38255 11.3141C6.50409 11.365 6.61436 11.4395 6.70702 11.5332L9.83986 14.666L17.293 7.21289C17.4807 7.02602 17.7348 6.92123 17.9996 6.92151C18.2645 6.92179 18.5184 7.02713 18.7056 7.2144C18.8929 7.40167 18.9982 7.65558 18.9985 7.92041C18.9987 8.18524 18.8939 8.43936 18.707 8.627L10.5469 16.7872C10.4541 16.8802 10.3439 16.9539 10.2226 17.0042C10.1013 17.0544 9.97119 17.0802 9.83986 17.0801Z" fill="#F9CA24"/>
</g>
</svg>
