<svg width="24" height="24" viewBox="0 0 24 24" fill="none" xmlns="http://www.w3.org/2000/svg">
<g id="circle_layer">
<path id="primary" d="M15 2C11.6228 2.00142 8.72845 4.41462 8.11975 7.73651C11.0267 6.14577 14.6728 7.21276 16.2635 10.1197C17.2456 11.9143 17.2456 14.0856 16.2635 15.8803C20.0648 15.1839 22.5819 11.5379 21.8855 7.73656C21.2766 4.41261 18.3793 1.99872 15 2Z" fill="#F9CA24" fill-opacity="0.4"/>
<path id="primary_2" d="M7 22C9.76142 22 12 19.7614 12 17C12 14.2386 9.76142 12 7 12C4.23858 12 2 14.2386 2 17C2 19.7614 4.23858 22 7 22Z" fill="#F9CA24"/>
<path id="accent" d="M11 7C7.91664 7.00031 5.33542 9.33759 5.03003 12.4058C7.56583 11.3163 10.5047 12.4888 11.5942 15.0246C12.1353 16.2841 12.1353 17.7105 11.5942 18.97C14.8915 18.6421 17.2987 15.7034 16.9708 12.4061C16.6657 9.33735 14.0839 6.99972 11 7Z" fill="#979797" fill-opacity="0.4"/>
</g>
</svg>
