<svg width="24" height="24" viewBox="0 0 24 24" fill="none" xmlns="http://www.w3.org/2000/svg">
<g id="clinic_medical">
<path id="accent" d="M21 12C20.7551 12.0004 20.5187 11.9105 20.3359 11.7476L12 4.33789L3.66403 11.7476C3.46577 11.9237 3.20566 12.0138 2.94093 11.9982C2.6762 11.9825 2.42853 11.8623 2.25241 11.6641C2.07629 11.4658 1.98615 11.2057 2.00181 10.941C2.01747 10.6762 2.13765 10.4286 2.33591 10.2524L11.3359 2.25244C11.5188 2.08968 11.7551 1.99976 12 1.99976C12.2448 1.99976 12.4811 2.08968 12.664 2.25244L21.664 10.2524C21.8156 10.3871 21.9227 10.5647 21.971 10.7617C22.0194 10.9586 22.0067 11.1656 21.9346 11.3552C21.8626 11.5448 21.7346 11.708 21.5677 11.8231C21.4008 11.9383 21.2028 12 21 12V12Z" fill="#979797" fill-opacity="0.4"/>
<path id="primary" d="M14 13H13V12C13 11.7348 12.8946 11.4804 12.7071 11.2929C12.5196 11.1054 12.2652 11 12 11C11.7348 11 11.4804 11.1054 11.2929 11.2929C11.1054 11.4804 11 11.7348 11 12V13H10C9.73478 13 9.48043 13.1054 9.29289 13.2929C9.10536 13.4804 9 13.7348 9 14C9 14.2652 9.10536 14.5196 9.29289 14.7071C9.48043 14.8946 9.73478 15 10 15H11V16C11 16.2652 11.1054 16.5196 11.2929 16.7071C11.4804 16.8946 11.7348 17 12 17C12.2652 17 12.5196 16.8946 12.7071 16.7071C12.8946 16.5196 13 16.2652 13 16V15H14C14.2652 15 14.5196 14.8946 14.7071 14.7071C14.8946 14.5196 15 14.2652 15 14C15 13.7348 14.8946 13.4804 14.7071 13.2929C14.5196 13.1054 14.2652 13 14 13Z" fill="#F9CA24"/>
<path id="primary_2" d="M12 4.33789L4 11.449V21C3.99997 21.1313 4.02581 21.2614 4.07605 21.3827C4.12629 21.5041 4.19995 21.6143 4.29282 21.7072C4.38568 21.8 4.49594 21.8737 4.61728 21.9239C4.73862 21.9742 4.86867 22 5 22H19C19.1313 22 19.2614 21.9742 19.3827 21.9239C19.5041 21.8737 19.6143 21.8 19.7072 21.7072C19.8 21.6143 19.8737 21.5041 19.9239 21.3827C19.9742 21.2614 20 21.1313 20 21V11.449L12 4.33789ZM14 15H13V16C13 16.2652 12.8946 16.5196 12.7071 16.7071C12.5196 16.8946 12.2652 17 12 17C11.7348 17 11.4804 16.8946 11.2929 16.7071C11.1054 16.5196 11 16.2652 11 16V15H10C9.73478 15 9.48043 14.8946 9.29289 14.7071C9.10536 14.5196 9 14.2652 9 14C9 13.7348 9.10536 13.4804 9.29289 13.2929C9.48043 13.1054 9.73478 13 10 13H11V12C11 11.7348 11.1054 11.4804 11.2929 11.2929C11.4804 11.1054 11.7348 11 12 11C12.2652 11 12.5196 11.1054 12.7071 11.2929C12.8946 11.4804 13 11.7348 13 12V13H14C14.2652 13 14.5196 13.1054 14.7071 13.2929C14.8946 13.4804 15 13.7348 15 14C15 14.2652 14.8946 14.5196 14.7071 14.7071C14.5196 14.8946 14.2652 15 14 15Z" fill="#F9CA24" fill-opacity="0.4"/>
</g>
</svg>
