<svg width="24" height="24" viewBox="0 0 24 24" fill="none" xmlns="http://www.w3.org/2000/svg">
<g id="clock_eight">
<path id="primary" d="M12 6C11.8687 5.99997 11.7386 6.02581 11.6173 6.07605C11.496 6.12629 11.3857 6.19995 11.2928 6.29282C11.2 6.38568 11.1263 6.49594 11.0761 6.61728C11.0258 6.73862 11 6.86867 11 7V11.4225L8.90237 12.6338C8.67278 12.7665 8.50528 12.9849 8.43669 13.241C8.3681 13.4972 8.40404 13.7701 8.5366 13.9997C8.66917 14.2294 8.8875 14.397 9.14362 14.4657C9.39973 14.5345 9.67264 14.4987 9.90237 14.3662L12.5 12.8662C12.6518 12.7781 12.7778 12.6517 12.8655 12.4998C12.9532 12.3478 12.9996 12.1755 13 12V7C13.0001 6.86867 12.9742 6.73862 12.924 6.61728C12.8737 6.49594 12.8001 6.38568 12.7072 6.29282C12.6143 6.19995 12.5041 6.12629 12.3828 6.07605C12.2614 6.02581 12.1314 5.99997 12 6Z" fill="#F9CA24"/>
<path id="accent" d="M12 2C10.0222 2 8.08879 2.58649 6.4443 3.6853C4.79981 4.78412 3.51809 6.3459 2.76121 8.17317C2.00433 10.0004 1.8063 12.0111 2.19215 13.9509C2.578 15.8907 3.53041 17.6725 4.92894 19.0711C6.32746 20.4696 8.10929 21.422 10.0491 21.8079C11.9889 22.1937 13.9996 21.9957 15.8268 21.2388C17.6541 20.4819 19.2159 19.2002 20.3147 17.5557C21.4135 15.9112 22 13.9778 22 12C22 10.6868 21.7413 9.38642 21.2388 8.17317C20.7363 6.95991 19.9997 5.85752 19.0711 4.92893C18.1425 4.00035 17.0401 3.26375 15.8268 2.7612C14.6136 2.25866 13.3132 2 12 2V2ZM13 12C12.9996 12.1755 12.9532 12.3478 12.8655 12.4998C12.7777 12.6517 12.6517 12.7781 12.5 12.8662L9.90234 14.3662C9.67262 14.4987 9.3997 14.5345 9.14359 14.4657C8.88748 14.397 8.66914 14.2294 8.53658 13.9997C8.40401 13.7701 8.36807 13.4972 8.43666 13.241C8.50525 12.9849 8.67276 12.7665 8.90234 12.6338L11 11.4225V7C11 6.73478 11.1054 6.48043 11.2929 6.29289C11.4804 6.10536 11.7348 6 12 6C12.2652 6 12.5196 6.10536 12.7071 6.29289C12.8946 6.48043 13 6.73478 13 7V12Z" fill="#979797" fill-opacity="0.4"/>
</g>
</svg>
