<svg width="24" height="24" viewBox="0 0 24 24" fill="none" xmlns="http://www.w3.org/2000/svg">
<g id="clock_two">
<path id="accent" d="M12 22C17.5228 22 22 17.5228 22 12C22 6.47715 17.5228 2 12 2C6.47715 2 2 6.47715 2 12C2 17.5228 6.47715 22 12 22Z" fill="#979797" fill-opacity="0.4"/>
<path id="primary" d="M11 7C11 6.73478 11.1054 6.48043 11.2929 6.29289C11.4804 6.10536 11.7348 6 12 6C12.2652 6 12.5196 6.10536 12.7071 6.29289C12.8946 6.48043 13 6.73478 13 7V10.2676L14.0977 9.63379C14.3274 9.50134 14.6003 9.46555 14.8564 9.53427C15.1125 9.60299 15.3309 9.7706 15.4634 10.0003C15.596 10.2299 15.6319 10.5028 15.5633 10.759C15.4948 11.0151 15.3272 11.2335 15.0977 11.3662L12.5 12.8662C12.3473 12.9497 12.1758 12.9925 12.0018 12.9905C11.8278 12.9884 11.6572 12.9417 11.5066 12.8547C11.3559 12.7676 11.2301 12.6433 11.1414 12.4936C11.0527 12.3439 11.004 12.174 11 12V7Z" fill="#F9CA24"/>
</g>
</svg>
