<svg width="24" height="24" viewBox="0 0 24 24" fill="none" xmlns="http://www.w3.org/2000/svg">
<g id="clock_ten">
<path id="accent" d="M12 22C17.5228 22 22 17.5228 22 12C22 6.47715 17.5228 2 12 2C6.47715 2 2 6.47715 2 12C2 17.5228 6.47715 22 12 22Z" fill="#979797" fill-opacity="0.4"/>
<path id="primary" d="M13 7C13 6.73478 12.8946 6.48043 12.7071 6.29289C12.5196 6.10536 12.2652 6 12 6C11.7348 6 11.4804 6.10536 11.2929 6.29289C11.1054 6.48043 11 6.73478 11 7V10.2676L9.90234 9.63379C9.67261 9.50134 9.3997 9.46555 9.14358 9.53427C8.88747 9.60299 8.66913 9.7706 8.53657 10.0003C8.40401 10.2299 8.36807 10.5028 8.43666 10.759C8.50525 11.0151 8.67275 11.2335 8.90234 11.3662L11.5 12.8662C11.6527 12.9497 11.8242 12.9925 11.9982 12.9905C12.1722 12.9884 12.3428 12.9417 12.4934 12.8547C12.6441 12.7676 12.7699 12.6433 12.8586 12.4936C12.9473 12.3439 12.996 12.174 13 12V7Z" fill="#F9CA24"/>
</g>
</svg>
