<svg width="24" height="24" viewBox="0 0 24 24" fill="none" xmlns="http://www.w3.org/2000/svg">
<g id="clock_nine">
<path id="primary" d="M12 6C11.8687 5.99997 11.7386 6.02581 11.6173 6.07605C11.4959 6.12629 11.3857 6.19995 11.2928 6.29282C11.2 6.38568 11.1263 6.49594 11.0761 6.61728C11.0258 6.73862 11 6.86867 11 7V11H9C8.73478 11 8.48043 11.1054 8.29289 11.2929C8.10536 11.4804 8 11.7348 8 12C8 12.2652 8.10536 12.5196 8.29289 12.7071C8.48043 12.8946 8.73478 13 9 13H12C12.1313 13 12.2614 12.9742 12.3827 12.9239C12.5041 12.8737 12.6143 12.8 12.7072 12.7072C12.8 12.6143 12.8737 12.5041 12.9239 12.3827C12.9742 12.2614 13 12.1313 13 12V7C13 6.86867 12.9742 6.73862 12.9239 6.61728C12.8737 6.49594 12.8 6.38568 12.7072 6.29282C12.6143 6.19995 12.5041 6.12629 12.3827 6.07605C12.2614 6.02581 12.1313 5.99997 12 6Z" fill="#F9CA24"/>
<path id="accent" d="M12 2C10.0222 2 8.08879 2.58649 6.4443 3.6853C4.79981 4.78412 3.51809 6.3459 2.76121 8.17317C2.00433 10.0004 1.8063 12.0111 2.19215 13.9509C2.578 15.8907 3.53041 17.6725 4.92894 19.0711C6.32746 20.4696 8.10929 21.422 10.0491 21.8079C11.9889 22.1937 13.9996 21.9957 15.8268 21.2388C17.6541 20.4819 19.2159 19.2002 20.3147 17.5557C21.4135 15.9112 22 13.9778 22 12C22 10.6868 21.7413 9.38642 21.2388 8.17317C20.7363 6.95991 19.9997 5.85752 19.0711 4.92893C18.1425 4.00035 17.0401 3.26375 15.8268 2.7612C14.6136 2.25866 13.3132 2 12 2V2ZM13 12C13 12.1313 12.9742 12.2614 12.924 12.3827C12.8737 12.5041 12.8001 12.6143 12.7072 12.7072C12.6143 12.8 12.5041 12.8737 12.3827 12.9239C12.2614 12.9742 12.1313 13 12 13H9C8.73479 13 8.48043 12.8946 8.2929 12.7071C8.10536 12.5196 8 12.2652 8 12C8 11.7348 8.10536 11.4804 8.2929 11.2929C8.48043 11.1054 8.73479 11 9 11H11V7C11 6.73478 11.1054 6.48043 11.2929 6.29289C11.4804 6.10536 11.7348 6 12 6C12.2652 6 12.5196 6.10536 12.7071 6.29289C12.8946 6.48043 13 6.73478 13 7V12Z" fill="#979797" fill-opacity="0.4"/>
</g>
</svg>
