<svg width="24" height="24" viewBox="0 0 24 24" fill="none" xmlns="http://www.w3.org/2000/svg">
<g id="clock_five">
<path id="primary" d="M12 6C12.265 6.00079 12.5189 6.1064 12.7062 6.29377C12.8936 6.48113 12.9992 6.73503 13 7V11.73L14.6 14.5C14.7326 14.7294 14.7687 15.0021 14.7002 15.2581C14.6318 15.5141 14.4644 15.7324 14.235 15.865C14.0056 15.9976 13.7329 16.0337 13.4769 15.9652C13.2209 15.8967 13.0026 15.7294 12.87 15.5L11.18 12.57C11.0632 12.4028 11.0004 12.2039 11 12V7C11.0008 6.73503 11.1064 6.48113 11.2938 6.29377C11.4811 6.1064 11.735 6.00079 12 6Z" fill="#F9CA24"/>
<path id="accent" d="M2 12C2 13.9778 2.58649 15.9112 3.6853 17.5557C4.78412 19.2002 6.3459 20.4819 8.17317 21.2388C10.0004 21.9957 12.0111 22.1937 13.9509 21.8079C15.8907 21.422 17.6725 20.4696 19.0711 19.0711C20.4696 17.6725 21.422 15.8907 21.8079 13.9509C22.1937 12.0111 21.9957 10.0004 21.2388 8.17317C20.4819 6.3459 19.2002 4.78412 17.5557 3.6853C15.9112 2.58649 13.9778 2 12 2C10.6868 2 9.38642 2.25866 8.17317 2.7612C6.95991 3.26375 5.85752 4.00035 4.92893 4.92893C3.05357 6.8043 2 9.34784 2 12V12ZM11 7C11 6.73478 11.1054 6.48043 11.2929 6.29289C11.4804 6.10536 11.7348 6 12 6C12.2652 6 12.5196 6.10536 12.7071 6.29289C12.8946 6.48043 13 6.73478 13 7V11.73L14.6 14.5C14.7326 14.7294 14.7687 15.0021 14.7002 15.2581C14.6318 15.5141 14.4644 15.7324 14.235 15.865C14.0056 15.9976 13.7329 16.0337 13.4769 15.9652C13.2209 15.8967 13.0026 15.7294 12.87 15.5L11.18 12.57C11.0632 12.4028 11.0004 12.2039 11 12V7Z" fill="#979797" fill-opacity="0.4"/>
</g>
</svg>
