<svg width="24" height="24" viewBox="0 0 24 24" fill="none" xmlns="http://www.w3.org/2000/svg">
<g id="clock_seven">
<path id="primary" d="M12 6C11.735 6.00079 11.4811 6.1064 11.2938 6.29377C11.1064 6.48113 11.0008 6.73503 11 7V11.73L9.40001 14.5C9.26741 14.7294 9.23136 15.0021 9.29981 15.2581C9.36826 15.5141 9.5356 15.7324 9.76501 15.865C9.99443 15.9976 10.2671 16.0337 10.5231 15.9652C10.7791 15.8967 10.9974 15.7294 11.13 15.5L12.82 12.57C12.9368 12.4028 12.9996 12.2039 13 12V7C12.9992 6.73503 12.8936 6.48113 12.7062 6.29377C12.5189 6.1064 12.265 6.00079 12 6Z" fill="#F9CA24"/>
<path id="accent" d="M12 2C10.0222 2 8.08879 2.58649 6.4443 3.6853C4.79981 4.78412 3.51809 6.3459 2.76121 8.17317C2.00433 10.0004 1.8063 12.0111 2.19215 13.9509C2.578 15.8907 3.53041 17.6725 4.92894 19.0711C6.32746 20.4696 8.10929 21.422 10.0491 21.8079C11.9889 22.1937 13.9996 21.9957 15.8268 21.2388C17.6541 20.4819 19.2159 19.2002 20.3147 17.5557C21.4135 15.9112 22 13.9778 22 12C22 10.6868 21.7413 9.38642 21.2388 8.17317C20.7363 6.95991 19.9997 5.85752 19.0711 4.92893C18.1425 4.00035 17.0401 3.26375 15.8268 2.7612C14.6136 2.25866 13.3132 2 12 2V2ZM13 12C12.9996 12.2039 12.9368 12.4028 12.82 12.57L11.13 15.5C11.0643 15.6136 10.977 15.7131 10.8728 15.793C10.7687 15.8728 10.6499 15.9313 10.5231 15.9652C10.2671 16.0337 9.99442 15.9976 9.765 15.865C9.53559 15.7324 9.36825 15.5141 9.2998 15.2581C9.23135 15.0021 9.2674 14.7294 9.4 14.5L11 11.73V7C11 6.73478 11.1054 6.48043 11.2929 6.29289C11.4804 6.10536 11.7348 6 12 6C12.2652 6 12.5196 6.10536 12.7071 6.29289C12.8946 6.48043 13 6.73478 13 7V12Z" fill="#979797" fill-opacity="0.4"/>
</g>
</svg>
