<svg width="24" height="24" viewBox="0 0 24 24" fill="none" xmlns="http://www.w3.org/2000/svg">
<g id="clock">
<path id="primary" d="M12 6C12.1313 5.99997 12.2614 6.02581 12.3827 6.07605C12.5041 6.12629 12.6143 6.19995 12.7072 6.29282C12.8 6.38568 12.8737 6.49594 12.9239 6.61728C12.9742 6.73862 13 6.86867 13 7V11.4225L15.0977 12.6338C15.3272 12.7665 15.4948 12.9849 15.5633 13.241C15.6319 13.4972 15.596 13.7701 15.4634 13.9997C15.3309 14.2294 15.1125 14.397 14.8564 14.4657C14.6003 14.5345 14.3274 14.4987 14.0977 14.3662L11.5 12.8662C11.3483 12.7781 11.2223 12.6517 11.1345 12.4998C11.0468 12.3478 11.0004 12.1755 11 12V7C11 6.86867 11.0258 6.73862 11.0761 6.61728C11.1263 6.49594 11.2 6.38568 11.2928 6.29282C11.3857 6.19995 11.4959 6.12629 11.6173 6.07605C11.7386 6.02581 11.8687 5.99997 12 6Z" fill="#F9CA24"/>
<path id="accent" d="M2 12C2 13.9778 2.58649 15.9112 3.6853 17.5557C4.78412 19.2002 6.3459 20.4819 8.17317 21.2388C10.0004 21.9957 12.0111 22.1937 13.9509 21.8079C15.8907 21.422 17.6725 20.4696 19.0711 19.0711C20.4696 17.6725 21.422 15.8907 21.8079 13.9509C22.1937 12.0111 21.9957 10.0004 21.2388 8.17317C20.4819 6.3459 19.2002 4.78412 17.5557 3.6853C15.9112 2.58649 13.9778 2 12 2C10.6868 2 9.38642 2.25866 8.17317 2.7612C6.95991 3.26375 5.85752 4.00035 4.92893 4.92893C3.05357 6.8043 2 9.34784 2 12V12ZM11 7C11 6.73478 11.1054 6.48043 11.2929 6.29289C11.4804 6.10536 11.7348 6 12 6C12.2652 6 12.5196 6.10536 12.7071 6.29289C12.8946 6.48043 13 6.73478 13 7V11.4225L15.0977 12.6338C15.3272 12.7665 15.4948 12.9849 15.5633 13.241C15.6319 13.4972 15.596 13.7701 15.4634 13.9997C15.3309 14.2294 15.1125 14.397 14.8564 14.4657C14.6003 14.5345 14.3274 14.4987 14.0977 14.3662L11.5 12.8662C11.3483 12.7781 11.2223 12.6517 11.1345 12.4998C11.0468 12.3478 11.0004 12.1755 11 12V7Z" fill="#979797" fill-opacity="0.4"/>
</g>
</svg>
