<svg width="24" height="24" viewBox="0 0 24 24" fill="none" xmlns="http://www.w3.org/2000/svg">
<g id="comment_alt_dots">
<path id="accent" d="M19 2H5C4.20462 2.00087 3.44206 2.31722 2.87964 2.87964C2.31722 3.44206 2.00087 4.20462 2 5V15C2.00087 15.7954 2.31722 16.5579 2.87964 17.1204C3.44206 17.6828 4.20462 17.9991 5 18H16.5859L20.2929 21.707C20.4328 21.8469 20.6109 21.9421 20.8049 21.9807C20.9989 22.0193 21.2 21.9996 21.3827 21.9239C21.5654 21.8482 21.7216 21.72 21.8315 21.5556C21.9414 21.3911 22 21.1978 22 21V5C21.9991 4.20462 21.6828 3.44206 21.1204 2.87964C20.5579 2.31722 19.7954 2.00087 19 2V2ZM8 11C7.80222 11 7.60888 10.9414 7.44443 10.8315C7.27998 10.7216 7.15181 10.5654 7.07612 10.3827C7.00043 10.2 6.98063 9.99889 7.01921 9.80491C7.0578 9.61093 7.15304 9.43275 7.29289 9.29289C7.43275 9.15304 7.61093 9.0578 7.80491 9.01921C7.99889 8.98063 8.19996 9.00043 8.38268 9.07612C8.56541 9.15181 8.72159 9.27998 8.83147 9.44443C8.94135 9.60888 9 9.80222 9 10C9 10.2652 8.89464 10.5196 8.70711 10.7071C8.51957 10.8946 8.26522 11 8 11V11ZM12 11C11.8022 11 11.6089 10.9414 11.4444 10.8315C11.28 10.7216 11.1518 10.5654 11.0761 10.3827C11.0004 10.2 10.9806 9.99889 11.0192 9.80491C11.0578 9.61093 11.153 9.43275 11.2929 9.29289C11.4327 9.15304 11.6109 9.0578 11.8049 9.01921C11.9989 8.98063 12.2 9.00043 12.3827 9.07612C12.5654 9.15181 12.7216 9.27998 12.8315 9.44443C12.9414 9.60888 13 9.80222 13 10C13 10.2652 12.8946 10.5196 12.7071 10.7071C12.5196 10.8946 12.2652 11 12 11ZM16 11C15.8022 11 15.6089 10.9414 15.4444 10.8315C15.28 10.7216 15.1518 10.5654 15.0761 10.3827C15.0004 10.2 14.9806 9.99889 15.0192 9.80491C15.0578 9.61093 15.153 9.43275 15.2929 9.29289C15.4327 9.15304 15.6109 9.0578 15.8049 9.01921C15.9989 8.98063 16.2 9.00043 16.3827 9.07612C16.5654 9.15181 16.7216 9.27998 16.8315 9.44443C16.9414 9.60888 17 9.80222 17 10C17 10.2652 16.8946 10.5196 16.7071 10.7071C16.5196 10.8946 16.2652 11 16 11Z" fill="#979797" fill-opacity="0.4"/>
<g id="primary">
<path d="M8 11C8.55228 11 9 10.5523 9 10C9 9.44772 8.55228 9 8 9C7.44772 9 7 9.44772 7 10C7 10.5523 7.44772 11 8 11Z" fill="#F9CA24"/>
<path d="M12 11C12.5523 11 13 10.5523 13 10C13 9.44772 12.5523 9 12 9C11.4477 9 11 9.44772 11 10C11 10.5523 11.4477 11 12 11Z" fill="#F9CA24"/>
<path d="M16 11C16.5523 11 17 10.5523 17 10C17 9.44772 16.5523 9 16 9C15.4477 9 15 9.44772 15 10C15 10.5523 15.4477 11 16 11Z" fill="#F9CA24"/>
</g>
</g>
</svg>
