<svg width="24" height="24" viewBox="0 0 24 24" fill="none" xmlns="http://www.w3.org/2000/svg">
<g id="comment_alt">
<path id="accent" d="M21 22C20.8687 22 20.7386 21.9742 20.6173 21.9239C20.496 21.8736 20.3858 21.7999 20.293 21.707L16.5859 18H5C4.20462 17.9991 3.44206 17.6828 2.87964 17.1204C2.31722 16.5579 2.00087 15.7954 2 15V5C2.00087 4.20462 2.31722 3.44206 2.87964 2.87964C3.44206 2.31722 4.20462 2.00087 5 2H19C19.7954 2.00087 20.5579 2.31722 21.1204 2.87964C21.6828 3.44206 21.9991 4.20462 22 5V21C22 21.2652 21.8946 21.5196 21.7071 21.7071C21.5196 21.8946 21.2652 22 21 22Z" fill="#979797" fill-opacity="0.4"/>
</g>
</svg>
