<svg width="24" height="24" viewBox="0 0 24 24" fill="none" xmlns="http://www.w3.org/2000/svg">
<g id="comment">
<path id="accent" d="M12 22H3.00001C2.80224 22 2.60891 21.9414 2.44447 21.8315C2.28003 21.7216 2.15187 21.5654 2.07619 21.3827C2.00052 21.2 1.98072 20.9989 2.01932 20.805C2.05791 20.611 2.15315 20.4328 2.29301 20.293L4.25685 18.3291C2.81962 16.5711 2.02348 14.3763 1.99934 12.1057C1.97521 9.83506 2.72453 7.62384 4.12407 5.83567C5.52361 4.0475 7.49003 2.78885 9.69993 2.26674C11.9098 1.74462 14.2316 1.99012 16.2835 2.96286C18.3353 3.9356 19.995 5.57767 20.9896 7.61899C21.9842 9.66031 22.2545 11.9793 21.7561 14.1947C21.2576 16.4101 20.0201 18.3898 18.2469 19.8084C16.4738 21.227 14.2707 21.9999 12 22V22Z" fill="#979797" fill-opacity="0.4"/>
</g>
</svg>
