<svg width="24" height="24" viewBox="0 0 24 24" fill="none" xmlns="http://www.w3.org/2000/svg">
<g id="comment_message">
<g id="primary">
<path d="M17 13H7C6.73479 13 6.48043 12.8946 6.2929 12.7071C6.10536 12.5196 6 12.2652 6 12C6 11.7348 6.10536 11.4804 6.2929 11.2929C6.48043 11.1054 6.73479 11 7 11H17C17.2652 11 17.5196 11.1054 17.7071 11.2929C17.8946 11.4804 18 11.7348 18 12C18 12.2652 17.8946 12.5196 17.7071 12.7071C17.5196 12.8946 17.2652 13 17 13Z" fill="#F9CA24"/>
<path d="M12 2C10.1074 2.00016 8.25373 2.53734 6.65431 3.54913C5.05488 4.56092 3.77539 6.00578 2.96449 7.71584C2.15359 9.42591 1.84457 11.331 2.07333 13.2097C2.3021 15.0884 3.05926 16.8636 4.25684 18.3291L2.293 20.293C2.15315 20.4328 2.0579 20.611 2.01931 20.805C1.98072 20.9989 2.00051 21.2 2.07619 21.3827C2.15187 21.5654 2.28003 21.7216 2.44447 21.8315C2.60891 21.9414 2.80223 22 3 22H12C14.6522 22 17.1957 20.9464 19.0711 19.0711C20.9464 17.1957 22 14.6522 22 12C22 9.34784 20.9464 6.8043 19.0711 4.92893C17.1957 3.05357 14.6522 2 12 2ZM9 7H15C15.2652 7 15.5196 7.10536 15.7071 7.29289C15.8946 7.48043 16 7.73478 16 8C16 8.26522 15.8946 8.51957 15.7071 8.70711C15.5196 8.89464 15.2652 9 15 9H9C8.73479 9 8.48043 8.89464 8.2929 8.70711C8.10536 8.51957 8 8.26522 8 8C8 7.73478 8.10536 7.48043 8.2929 7.29289C8.48043 7.10536 8.73479 7 9 7ZM15 17H9C8.73479 17 8.48043 16.8946 8.2929 16.7071C8.10536 16.5196 8 16.2652 8 16C8 15.7348 8.10536 15.4804 8.2929 15.2929C8.48043 15.1054 8.73479 15 9 15H15C15.2652 15 15.5196 15.1054 15.7071 15.2929C15.8946 15.4804 16 15.7348 16 16C16 16.2652 15.8946 16.5196 15.7071 16.7071C15.5196 16.8946 15.2652 17 15 17ZM17 13H7C6.73479 13 6.48043 12.8946 6.2929 12.7071C6.10536 12.5196 6 12.2652 6 12C6 11.7348 6.10536 11.4804 6.2929 11.2929C6.48043 11.1054 6.73479 11 7 11H17C17.2652 11 17.5196 11.1054 17.7071 11.2929C17.8946 11.4804 18 11.7348 18 12C18 12.2652 17.8946 12.5196 17.7071 12.7071C17.5196 12.8946 17.2652 13 17 13Z" fill="#F9CA24"/>
<path d="M15 17H9C8.73479 17 8.48043 16.8946 8.2929 16.7071C8.10536 16.5196 8 16.2652 8 16C8 15.7348 8.10536 15.4804 8.2929 15.2929C8.48043 15.1054 8.73479 15 9 15H15C15.2652 15 15.5196 15.1054 15.7071 15.2929C15.8946 15.4804 16 15.7348 16 16C16 16.2652 15.8946 16.5196 15.7071 16.7071C15.5196 16.8946 15.2652 17 15 17ZM15 9H9C8.73479 9 8.48043 8.89464 8.2929 8.70711C8.10536 8.51957 8 8.26522 8 8C8 7.73478 8.10536 7.48043 8.2929 7.29289C8.48043 7.10536 8.73479 7 9 7H15C15.2652 7 15.5196 7.10536 15.7071 7.29289C15.8946 7.48043 16 7.73478 16 8C16 8.26522 15.8946 8.51957 15.7071 8.70711C15.5196 8.89464 15.2652 9 15 9Z" fill="#F9CA24"/>
</g>
</g>
</svg>
