<svg width="24" height="24" viewBox="0 0 24 24" fill="none" xmlns="http://www.w3.org/2000/svg">
<g id="compress">
<path id="primary" d="M8 22C7.86867 22 7.73862 21.9742 7.61728 21.9239C7.49593 21.8737 7.38568 21.8 7.29282 21.7072C7.19995 21.6143 7.12629 21.5041 7.07605 21.3827C7.02581 21.2614 6.99997 21.1313 7 21V17H3C2.73478 17 2.48043 16.8946 2.29289 16.7071C2.10536 16.5196 2 16.2652 2 16C2 15.7348 2.10536 15.4804 2.29289 15.2929C2.48043 15.1054 2.73478 15 3 15H8C8.13133 15 8.26138 15.0258 8.38272 15.0761C8.50407 15.1263 8.61432 15.2 8.70718 15.2928C8.80005 15.3857 8.87371 15.4959 8.92395 15.6173C8.97419 15.7386 9.00003 15.8687 9 16V21C9.00003 21.1313 8.97419 21.2614 8.92395 21.3827C8.87371 21.5041 8.80005 21.6143 8.70718 21.7072C8.61432 21.8 8.50407 21.8737 8.38272 21.9239C8.26138 21.9742 8.13133 22 8 22ZM8 9H3C2.73478 9 2.48043 8.89464 2.29289 8.70711C2.10536 8.51957 2 8.26522 2 8C2 7.73478 2.10536 7.48043 2.29289 7.29289C2.48043 7.10536 2.73478 7 3 7H7V3C7 2.73478 7.10536 2.48043 7.29289 2.29289C7.48043 2.10536 7.73478 2 8 2C8.26522 2 8.51957 2.10536 8.70711 2.29289C8.89464 2.48043 9 2.73478 9 3V8C9.00003 8.13133 8.97419 8.26138 8.92395 8.38272C8.87371 8.50407 8.80005 8.61432 8.70718 8.70718C8.61432 8.80005 8.50407 8.87371 8.38272 8.92395C8.26138 8.97419 8.13133 9.00003 8 9ZM21 9H16C15.8687 9.00003 15.7386 8.97419 15.6173 8.92395C15.4959 8.87371 15.3857 8.80005 15.2928 8.70718C15.2 8.61432 15.1263 8.50407 15.0761 8.38272C15.0258 8.26138 15 8.13133 15 8V3C15 2.73478 15.1054 2.48043 15.2929 2.29289C15.4804 2.10536 15.7348 2 16 2C16.2652 2 16.5196 2.10536 16.7071 2.29289C16.8946 2.48043 17 2.73478 17 3V7H21C21.2652 7 21.5196 7.10536 21.7071 7.29289C21.8946 7.48043 22 7.73478 22 8C22 8.26522 21.8946 8.51957 21.7071 8.70711C21.5196 8.89464 21.2652 9 21 9ZM16 22C15.8687 22 15.7386 21.9742 15.6173 21.9239C15.4959 21.8737 15.3857 21.8 15.2928 21.7072C15.2 21.6143 15.1263 21.5041 15.0761 21.3827C15.0258 21.2614 15 21.1313 15 21V16C15 15.8687 15.0258 15.7386 15.0761 15.6173C15.1263 15.4959 15.2 15.3857 15.2928 15.2928C15.3857 15.2 15.4959 15.1263 15.6173 15.0761C15.7386 15.0258 15.8687 15 16 15H21C21.2652 15 21.5196 15.1054 21.7071 15.2929C21.8946 15.4804 22 15.7348 22 16C22 16.2652 21.8946 16.5196 21.7071 16.7071C21.5196 16.8946 21.2652 17 21 17H17V21C17 21.1313 16.9742 21.2614 16.9239 21.3827C16.8737 21.5041 16.8 21.6143 16.7072 21.7072C16.6143 21.8 16.5041 21.8737 16.3827 21.9239C16.2614 21.9742 16.1313 22 16 22Z" fill="#F9CA24"/>
</g>
</svg>
