<svg width="24" height="24" viewBox="0 0 24 24" fill="none" xmlns="http://www.w3.org/2000/svg">
<g id="corner_left_down">
<path id="primary" d="M21 4.31445H11.6284C10.3028 4.31601 9.03194 4.8433 8.09459 5.78064C7.15725 6.71799 6.62997 7.98885 6.62841 9.31445V16.2715L3.70699 13.3501C3.51907 13.1645 3.26537 13.0609 3.00127 13.0617C2.73717 13.0625 2.48413 13.1678 2.29739 13.3546C2.11065 13.5413 2.00538 13.7944 2.00455 14.0585C2.00373 14.3226 2.10742 14.5763 2.29299 14.7642L6.9211 19.3923C7.1091 19.5791 7.36339 19.684 7.62843 19.684C7.89348 19.684 8.14776 19.5791 8.33577 19.3923L12.9644 14.7642C13.1519 14.5766 13.2572 14.3223 13.2572 14.0571C13.2572 13.7919 13.1519 13.5376 12.9644 13.3501C12.7769 13.1626 12.5225 13.0572 12.2573 13.0572C11.9922 13.0572 11.7378 13.1626 11.5503 13.3501L8.62841 16.2716V9.31445C8.62928 8.51907 8.94563 7.75651 9.50805 7.19409C10.0705 6.63167 10.833 6.31532 11.6284 6.31445H21C21.2652 6.31445 21.5196 6.2091 21.7071 6.02156C21.8946 5.83402 22 5.57967 22 5.31445C22 5.04924 21.8946 4.79488 21.7071 4.60735C21.5196 4.41981 21.2652 4.31445 21 4.31445Z" fill="#F9CA24"/>
</g>
</svg>
