<svg width="24" height="24" viewBox="0 0 24 24" fill="none" xmlns="http://www.w3.org/2000/svg">
<g id="corner_up_right">
<path id="primary" d="M19.6083 8.01055C19.6836 7.82785 19.7032 7.627 19.6648 7.43319C19.6263 7.23938 19.5315 7.06122 19.3922 6.92107L14.7641 2.29299C14.5762 2.10742 14.3225 2.00373 14.0584 2.00455C13.7943 2.00538 13.5413 2.11065 13.3545 2.29739C13.1678 2.48413 13.0625 2.73717 13.0617 3.00127C13.0608 3.26537 13.1645 3.51907 13.3501 3.70699L16.2715 6.62838H8.31445C7.25396 6.62959 6.23725 7.05141 5.48736 7.80129C4.73748 8.55117 4.31567 9.56788 4.31445 10.6284V21C4.31445 21.2652 4.41981 21.5196 4.60735 21.7071C4.79488 21.8946 5.04924 22 5.31445 22C5.57967 22 5.83402 21.8946 6.02156 21.7071C6.2091 21.5196 6.31445 21.2652 6.31445 21V10.6284C6.31498 10.0981 6.52587 9.58974 6.90082 9.21478C7.27578 8.83982 7.78418 8.62894 8.31445 8.62841H16.2716L13.3501 11.5503C13.2572 11.6431 13.1836 11.7534 13.1333 11.8747C13.0831 11.996 13.0572 12.126 13.0572 12.2573C13.0572 12.3886 13.0831 12.5186 13.1333 12.64C13.1836 12.7613 13.2572 12.8715 13.3501 12.9643C13.4429 13.0572 13.5531 13.1308 13.6745 13.1811C13.7958 13.2313 13.9258 13.2572 14.0571 13.2572C14.1884 13.2572 14.3184 13.2313 14.4397 13.1811C14.5611 13.1308 14.6713 13.0572 14.7641 12.9643L19.3922 8.33574C19.4849 8.2426 19.5584 8.1321 19.6083 8.01055Z" fill="#F9CA24"/>
</g>
</svg>
