<svg width="24" height="24" viewBox="0 0 24 24" fill="none" xmlns="http://www.w3.org/2000/svg">
<g id="corner_down_left">
<g id="primary">
<path d="M9.94238 22C9.81104 22.0001 9.68097 21.9743 9.55964 21.9241C9.43831 21.8738 9.32811 21.8 9.23538 21.707L4.60742 17.0786C4.51454 16.9858 4.44086 16.8756 4.39059 16.7542C4.34033 16.6329 4.31445 16.5029 4.31445 16.3716C4.31445 16.2403 4.34033 16.1102 4.39059 15.9889C4.44086 15.8676 4.51454 15.7574 4.60742 15.6645L9.23535 11.0356C9.42287 10.8481 9.67719 10.7428 9.94238 10.7428C10.2076 10.7428 10.4619 10.8481 10.6494 11.0356C10.8369 11.2232 10.9423 11.4775 10.9423 11.7427C10.9423 12.0079 10.8369 12.2622 10.6494 12.4497L6.72852 16.3716L10.6494 20.293C10.7892 20.4329 10.8844 20.611 10.923 20.805C10.9616 20.9989 10.9418 21.2 10.8661 21.3827C10.7904 21.5654 10.6623 21.7215 10.4978 21.8314C10.3334 21.9413 10.1401 22 9.94238 22Z" fill="#F9CA24"/>
<path d="M15.6855 17.3716H5.31445C5.04923 17.3716 4.79495 17.2661 4.60742 17.0786C4.41988 16.8911 4.31445 16.6368 4.31445 16.3716C4.31445 16.1064 4.41988 15.8521 4.60742 15.6645C4.79495 15.477 5.04923 15.3716 5.31445 15.3716H15.6855C16.2158 15.371 16.7242 15.1601 17.0991 14.7851C17.474 14.4102 17.6849 13.9018 17.6855 13.3716V3C17.6855 2.73478 17.7909 2.48043 17.9784 2.29289C18.166 2.10536 18.4203 2 18.6855 2C18.9508 2 19.2051 2.10536 19.3927 2.29289C19.5802 2.48043 19.6855 2.73478 19.6855 3V13.3716C19.6844 14.4321 19.2626 15.4489 18.5127 16.1988C17.7628 16.9487 16.7461 17.3705 15.6855 17.3716Z" fill="#F9CA24"/>
</g>
</g>
</svg>
