<svg width="24" height="24" viewBox="0 0 24 24" fill="none" xmlns="http://www.w3.org/2000/svg">
<g id="corner_down_right">
<g id="primary">
<path d="M14.0576 22C13.8599 22 13.6666 21.9413 13.5022 21.8314C13.3378 21.7215 13.2096 21.5654 13.1339 21.3827C13.0583 21.2 13.0385 20.9989 13.077 20.805C13.1156 20.611 13.2108 20.4329 13.3506 20.293L17.2715 16.3716L13.3506 12.4497C13.2578 12.3569 13.1841 12.2467 13.1339 12.1254C13.0836 12.004 13.0578 11.874 13.0578 11.7427C13.0578 11.6114 13.0836 11.4814 13.1339 11.3601C13.1841 11.2388 13.2578 11.1285 13.3506 11.0357C13.4435 10.9428 13.5537 10.8692 13.675 10.8189C13.7963 10.7687 13.9263 10.7428 14.0576 10.7428C14.189 10.7428 14.319 10.7687 14.4403 10.8189C14.5616 10.8692 14.6718 10.9428 14.7647 11.0357L19.3926 15.6646C19.4855 15.7574 19.5592 15.8676 19.6094 15.9889C19.6597 16.1103 19.6856 16.2403 19.6856 16.3716C19.6856 16.5029 19.6597 16.633 19.6094 16.7543C19.5592 16.8756 19.4855 16.9858 19.3926 17.0786L14.7647 21.707C14.6719 21.8 14.5617 21.8738 14.4404 21.9241C14.319 21.9743 14.189 22.0002 14.0576 22Z" fill="#F9CA24"/>
<path d="M18.6856 17.3716H9.31445C7.98885 17.37 6.71799 16.8427 5.78064 15.9054C4.8433 14.968 4.31601 13.6972 4.31445 12.3716V3C4.31445 2.73478 4.41981 2.48043 4.60735 2.29289C4.79488 2.10536 5.04924 2 5.31445 2C5.57967 2 5.83402 2.10536 6.02156 2.29289C6.2091 2.48043 6.31445 2.73478 6.31445 3V12.3716C6.31532 13.167 6.63167 13.9295 7.19409 14.4919C7.75651 15.0544 8.51907 15.3707 9.31445 15.3716H18.6856C18.9508 15.3716 19.2051 15.477 19.3926 15.6646C19.5802 15.8521 19.6856 16.1064 19.6856 16.3716C19.6856 16.6368 19.5802 16.8911 19.3926 17.0786C19.2051 17.2662 18.9508 17.3716 18.6856 17.3716Z" fill="#F9CA24"/>
</g>
</g>
</svg>
