<svg width="24" height="24" viewBox="0 0 24 24" fill="none" xmlns="http://www.w3.org/2000/svg">
<g id="corner_up_left">
<path id="primary" d="M14.6855 6.62841H7.72854L10.6499 3.70699C10.8355 3.51907 10.9391 3.26537 10.9383 3.00127C10.9375 2.73717 10.8322 2.48413 10.6454 2.29739C10.4587 2.11065 10.2056 2.00538 9.94154 2.00455C9.67744 2.00373 9.42375 2.10742 9.23583 2.29299L4.60772 6.92107C4.4209 7.10907 4.31604 7.36336 4.31604 7.6284C4.31604 7.89345 4.4209 8.14773 4.60772 8.33574L9.23583 12.9643C9.42335 13.1519 9.67768 13.2572 9.94287 13.2572C10.2081 13.2572 10.4624 13.1519 10.6499 12.9643C10.8374 12.7768 10.9428 12.5225 10.9428 12.2573C10.9428 11.9921 10.8374 11.7378 10.6499 11.5503L7.72838 8.62841H14.6855C15.4809 8.62928 16.2435 8.94563 16.8059 9.50805C17.3683 10.0705 17.6847 10.833 17.6855 11.6284V21C17.6855 21.2652 17.7909 21.5196 17.9784 21.7071C18.166 21.8946 18.4203 22 18.6855 22C18.9508 22 19.2051 21.8946 19.3926 21.7071C19.5802 21.5196 19.6855 21.2652 19.6855 21V11.6284C19.684 10.3028 19.1567 9.03194 18.2194 8.09459C17.282 7.15725 16.0111 6.62997 14.6855 6.62841Z" fill="#F9CA24"/>
</g>
</svg>
