<svg width="24" height="24" viewBox="0 0 24 24" fill="none" xmlns="http://www.w3.org/2000/svg">
<g id="coronavirus">
<path id="primary" d="M12 8C11.7348 8 11.4804 7.89464 11.2929 7.70711C11.1054 7.51957 11 7.26522 11 7V2C11 1.73478 11.1054 1.48043 11.2929 1.29289C11.4804 1.10536 11.7348 1 12 1C12.2652 1 12.5196 1.10536 12.7071 1.29289C12.8946 1.48043 13 1.73478 13 2V7C13 7.26522 12.8946 7.51957 12.7071 7.70711C12.5196 7.89464 12.2652 8 12 8ZM12 23C11.7348 23 11.4804 22.8946 11.2929 22.7071C11.1054 22.5196 11 22.2652 11 22V17C11 16.7348 11.1054 16.4804 11.2929 16.2929C11.4804 16.1054 11.7348 16 12 16C12.2652 16 12.5196 16.1054 12.7071 16.2929C12.8946 16.4804 13 16.7348 13 17V22C13 22.2652 12.8946 22.5196 12.7071 22.7071C12.5196 22.8946 12.2652 23 12 23ZM22 13H18C17.7348 13 17.4804 12.8946 17.2929 12.7071C17.1054 12.5196 17 12.2652 17 12C17 11.7348 17.1054 11.4804 17.2929 11.2929C17.4804 11.1054 17.7348 11 18 11H22C22.2652 11 22.5196 11.1054 22.7071 11.2929C22.8946 11.4804 23 11.7348 23 12C23 12.2652 22.8946 12.5196 22.7071 12.7071C22.5196 12.8946 22.2652 13 22 13ZM6 13H2C1.73478 13 1.48043 12.8946 1.29289 12.7071C1.10536 12.5196 1 12.2652 1 12C1 11.7348 1.10536 11.4804 1.29289 11.2929C1.48043 11.1054 1.73478 11 2 11H6C6.26522 11 6.51957 11.1054 6.70711 11.2929C6.89464 11.4804 7 11.7348 7 12C7 12.2652 6.89464 12.5196 6.70711 12.7071C6.51957 12.8946 6.26522 13 6 13Z" fill="#F9CA24" fill-opacity="0.4"/>
<path id="accent" d="M18 13C17.7348 13 17.4804 12.8946 17.2929 12.7071C17.1054 12.5196 17 12.2652 17 12C17 11.7348 17.1054 11.4804 17.2929 11.2929C17.4804 11.1053 17.7348 11 18 11H20.941C20.7114 8.97305 19.8009 7.08396 18.3585 5.64152C16.9161 4.19909 15.027 3.28863 13 3.05899V6.99999C13 7.26521 12.8947 7.51956 12.7071 7.7071C12.5196 7.89463 12.2652 7.99999 12 7.99999C11.7348 7.99999 11.4805 7.89463 11.2929 7.7071C11.1054 7.51956 11 7.26521 11 6.99999V3.05899C8.97308 3.28863 7.08399 4.19909 5.64155 5.64152C4.19912 7.08396 3.28866 8.97305 3.05902 11H6.00002C6.26524 11 6.51959 11.1053 6.70713 11.2929C6.89466 11.4804 7.00002 11.7348 7.00002 12C7.00002 12.2652 6.89466 12.5196 6.70713 12.7071C6.51959 12.8946 6.26524 13 6.00002 13H3.05902C3.28866 15.0269 4.19912 16.916 5.64155 18.3585C7.08399 19.8009 8.97308 20.7113 11 20.941V17C11 16.7348 11.1054 16.4804 11.2929 16.2929C11.4805 16.1053 11.7348 16 12 16C12.2652 16 12.5196 16.1053 12.7071 16.2929C12.8947 16.4804 13 16.7348 13 17V20.941C15.027 20.7113 16.9161 19.8009 18.3585 18.3585C19.8009 16.916 20.7114 15.0269 20.941 13H18ZM9.00002 16C8.80224 16 8.6089 15.9413 8.44445 15.8315C8.28 15.7216 8.15183 15.5654 8.07614 15.3827C8.00045 15.1999 7.98065 14.9989 8.01924 14.8049C8.05782 14.6109 8.15306 14.4327 8.29291 14.2929C8.43277 14.153 8.61095 14.0578 8.80493 14.0192C8.99891 13.9806 9.19998 14.0004 9.3827 14.0761C9.56543 14.1518 9.72161 14.28 9.83149 14.4444C9.94137 14.6089 10 14.8022 10 15C10 15.2652 9.89466 15.5196 9.70713 15.7071C9.51959 15.8946 9.26524 16 9.00002 16ZM9.50002 12C9.20335 12 8.91334 11.912 8.66667 11.7472C8.41999 11.5824 8.22773 11.3481 8.1142 11.074C8.00067 10.7999 7.97097 10.4983 8.02884 10.2074C8.08672 9.91638 8.22958 9.64911 8.43936 9.43933C8.64914 9.22955 8.91641 9.08669 9.20739 9.02881C9.49836 8.97093 9.79996 9.00064 10.074 9.11417C10.3481 9.2277 10.5824 9.41996 10.7472 9.66664C10.912 9.91331 11 10.2033 11 10.5C11 10.8978 10.842 11.2793 10.5607 11.5607C10.2794 11.842 9.89785 12 9.50002 12ZM14.5 15C14.2033 15 13.9133 14.912 13.6667 14.7472C13.42 14.5824 13.2277 14.3481 13.1142 14.074C13.0007 13.7999 12.971 13.4983 13.0288 13.2074C13.0867 12.9164 13.2296 12.6491 13.4394 12.4393C13.6491 12.2296 13.9164 12.0867 14.2074 12.0288C14.4984 11.9709 14.8 12.0006 15.074 12.1142C15.3481 12.2277 15.5824 12.42 15.7472 12.6666C15.912 12.9133 16 13.2033 16 13.5C16 13.8978 15.842 14.2793 15.5607 14.5607C15.2794 14.842 14.8978 15 14.5 15ZM15 9.99999C14.8022 9.99999 14.6089 9.94134 14.4445 9.83146C14.28 9.72158 14.1518 9.5654 14.0761 9.38267C14.0005 9.19995 13.9807 8.99888 14.0192 8.8049C14.0578 8.61092 14.1531 8.43274 14.2929 8.29288C14.4328 8.15303 14.6109 8.05779 14.8049 8.01921C14.9989 7.98062 15.2 8.00042 15.3827 8.07611C15.5654 8.1518 15.7216 8.27997 15.8315 8.44442C15.9414 8.60887 16 8.80221 16 8.99999C16 9.26521 15.8947 9.51956 15.7071 9.7071C15.5196 9.89463 15.2652 9.99999 15 9.99999Z" fill="#979797" fill-opacity="0.4"/>
<g id="primary_2">
<path d="M9.50001 12C10.3284 12 11 11.3284 11 10.5C11 9.67159 10.3284 9.00001 9.50001 9.00001C8.67159 9.00001 8.00001 9.67159 8.00001 10.5C8.00001 11.3284 8.67159 12 9.50001 12Z" fill="#F9CA24"/>
<path d="M9.00001 16C9.5523 16 10 15.5523 10 15C10 14.4477 9.5523 14 9.00001 14C8.44773 14 8.00001 14.4477 8.00001 15C8.00001 15.5523 8.44773 16 9.00001 16Z" fill="#F9CA24"/>
<path d="M14.5 15C15.3284 15 16 14.3284 16 13.5C16 12.6716 15.3284 12 14.5 12C13.6716 12 13 12.6716 13 13.5C13 14.3284 13.6716 15 14.5 15Z" fill="#F9CA24"/>
<path d="M15 10C15.5523 10 16 9.5523 16 9.00001C16 8.44773 15.5523 8.00001 15 8.00001C14.4477 8.00001 14 8.44773 14 9.00001C14 9.5523 14.4477 10 15 10Z" fill="#F9CA24"/>
<path d="M4.97853 6.39259C5.39628 5.87052 5.87052 5.39628 6.39259 4.97853L5.63575 4.22169C5.44824 4.03418 5.19391 3.92883 4.92872 3.92883C4.66354 3.92883 4.40921 4.03418 4.22169 4.22169C4.03418 4.40921 3.92883 4.66354 3.92883 4.92872C3.92883 5.06003 3.9547 5.19005 4.00495 5.31137C4.05519 5.43268 4.12885 5.54291 4.22169 5.63575L4.97853 6.39259ZM4.97853 17.6074L4.22169 18.3643C4.12885 18.4571 4.05519 18.5674 4.00495 18.6887C3.9547 18.81 3.92883 18.94 3.92883 19.0713C3.92883 19.2026 3.9547 19.3326 4.00495 19.4539C4.05519 19.5753 4.12885 19.6855 4.22169 19.7783C4.40921 19.9659 4.66354 20.0712 4.92872 20.0712C5.06003 20.0712 5.19005 20.0453 5.31137 19.9951C5.43268 19.9448 5.54291 19.8712 5.63575 19.7783L6.39259 19.0215C5.87052 18.6037 5.39628 18.1295 4.97853 17.6074ZM19.0215 17.6074C18.6037 18.1295 18.1295 18.6037 17.6074 19.0215L18.3643 19.7783C18.5518 19.9659 18.8061 20.0712 19.0713 20.0712C19.3365 20.0712 19.5908 19.9659 19.7783 19.7783C19.9659 19.5908 20.0712 19.3365 20.0712 19.0713C20.0712 18.8061 19.9659 18.5518 19.7783 18.3643L19.0215 17.6074ZM19.0215 6.39259L19.7783 5.63575C19.8712 5.54291 19.9448 5.43268 19.9951 5.31137C20.0453 5.19005 20.0712 5.06003 20.0712 4.92872C20.0712 4.79742 20.0453 4.66739 19.9951 4.54608C19.9448 4.42477 19.8712 4.31454 19.7783 4.22169C19.6855 4.12885 19.5753 4.05519 19.4539 4.00495C19.3326 3.9547 19.2026 3.92883 19.0713 3.92883C18.94 3.92883 18.81 3.9547 18.6887 4.00495C18.5674 4.05519 18.4571 4.12885 18.3643 4.22169L17.6074 4.97853C18.1295 5.39628 18.6037 5.87052 19.0215 6.39259Z" fill="#F9CA24"/>
</g>
</g>
</svg>
