<svg width="24" height="24" viewBox="0 0 24 24" fill="none" xmlns="http://www.w3.org/2000/svg">
<g id="dialpad_alt">
<g id="primary">
<path d="M13.455 6.95499H10.545C10.244 6.95499 10 7.19899 10 7.49999V10.41C10 10.711 10.244 10.955 10.545 10.955H13.455C13.756 10.955 14 10.711 14 10.41V7.49999C14 7.19899 13.756 6.95499 13.455 6.95499Z" fill="#F9CA24"/>
<path d="M13.455 0.954987H10.545C10.244 0.954987 10 1.19899 10 1.49999V4.40999C10 4.71098 10.244 4.95499 10.545 4.95499H13.455C13.756 4.95499 14 4.71098 14 4.40999V1.49999C14 1.19899 13.756 0.954987 13.455 0.954987Z" fill="#F9CA24"/>
<path d="M13.455 13.045H10.545C10.244 13.045 10 13.289 10 13.59V16.5C10 16.801 10.244 17.045 10.545 17.045H13.455C13.756 17.045 14 16.801 14 16.5V13.59C14 13.289 13.756 13.045 13.455 13.045Z" fill="#F9CA24"/>
<path d="M7.455 6.95499H4.545C4.244 6.95499 4 7.19899 4 7.49999V10.41C4 10.711 4.244 10.955 4.545 10.955H7.455C7.756 10.955 8 10.711 8 10.41V7.49999C8 7.19899 7.756 6.95499 7.455 6.95499Z" fill="#F9CA24"/>
<path d="M7.455 0.954987H4.545C4.244 0.954987 4 1.19899 4 1.49999V4.40999C4 4.71098 4.244 4.95499 4.545 4.95499H7.455C7.756 4.95499 8 4.71098 8 4.40999V1.49999C8 1.19899 7.756 0.954987 7.455 0.954987Z" fill="#F9CA24"/>
<path d="M7.455 13.045H4.545C4.244 13.045 4 13.289 4 13.59V16.5C4 16.801 4.244 17.045 4.545 17.045H7.455C7.756 17.045 8 16.801 8 16.5V13.59C8 13.289 7.756 13.045 7.455 13.045Z" fill="#F9CA24"/>
<path d="M19.455 6.95499H16.545C16.244 6.95499 16 7.19899 16 7.49999V10.41C16 10.711 16.244 10.955 16.545 10.955H19.455C19.756 10.955 20 10.711 20 10.41V7.49999C20 7.19899 19.756 6.95499 19.455 6.95499Z" fill="#F9CA24"/>
<path d="M19.455 0.954987H16.545C16.244 0.954987 16 1.19899 16 1.49999V4.40999C16 4.71098 16.244 4.95499 16.545 4.95499H19.455C19.756 4.95499 20 4.71098 20 4.40999V1.49999C20 1.19899 19.756 0.954987 19.455 0.954987Z" fill="#F9CA24"/>
<path d="M19.455 13.045H16.545C16.244 13.045 16 13.289 16 13.59V16.5C16 16.801 16.244 17.045 16.545 17.045H19.455C19.756 17.045 20 16.801 20 16.5V13.59C20 13.289 19.756 13.045 19.455 13.045Z" fill="#F9CA24"/>
<path d="M13.455 19H10.545C10.244 19 10 19.244 10 19.545V22.455C10 22.756 10.244 23 10.545 23H13.455C13.756 23 14 22.756 14 22.455V19.545C14 19.244 13.756 19 13.455 19Z" fill="#F9CA24"/>
</g>
</g>
</svg>
