<svg width="24" height="24" viewBox="0 0 24 24" fill="none" xmlns="http://www.w3.org/2000/svg">
<g id="dialpad">
<g id="accent">
<path d="M12 11C13.1046 11 14 10.1046 14 9C14 7.89543 13.1046 7 12 7C10.8954 7 10 7.89543 10 9C10 10.1046 10.8954 11 12 11Z" fill="#979797" fill-opacity="0.4"/>
<path d="M12 5C13.1046 5 14 4.10457 14 3C14 1.89543 13.1046 1 12 1C10.8954 1 10 1.89543 10 3C10 4.10457 10.8954 5 12 5Z" fill="#979797" fill-opacity="0.4"/>
<path d="M12 17C13.1046 17 14 16.1046 14 15C14 13.8954 13.1046 13 12 13C10.8954 13 10 13.8954 10 15C10 16.1046 10.8954 17 12 17Z" fill="#979797" fill-opacity="0.4"/>
<path d="M6 11C7.10457 11 8 10.1046 8 9C8 7.89543 7.10457 7 6 7C4.89543 7 4 7.89543 4 9C4 10.1046 4.89543 11 6 11Z" fill="#979797" fill-opacity="0.4"/>
<path d="M6 5C7.10457 5 8 4.10457 8 3C8 1.89543 7.10457 1 6 1C4.89543 1 4 1.89543 4 3C4 4.10457 4.89543 5 6 5Z" fill="#979797" fill-opacity="0.4"/>
<path d="M6 17C7.10457 17 8 16.1046 8 15C8 13.8954 7.10457 13 6 13C4.89543 13 4 13.8954 4 15C4 16.1046 4.89543 17 6 17Z" fill="#979797" fill-opacity="0.4"/>
<path d="M18 11C19.1046 11 20 10.1046 20 9C20 7.89543 19.1046 7 18 7C16.8954 7 16 7.89543 16 9C16 10.1046 16.8954 11 18 11Z" fill="#979797" fill-opacity="0.4"/>
<path d="M18 5C19.1046 5 20 4.10457 20 3C20 1.89543 19.1046 1 18 1C16.8954 1 16 1.89543 16 3C16 4.10457 16.8954 5 18 5Z" fill="#979797" fill-opacity="0.4"/>
<path d="M18 17C19.1046 17 20 16.1046 20 15C20 13.8954 19.1046 13 18 13C16.8954 13 16 13.8954 16 15C16 16.1046 16.8954 17 18 17Z" fill="#979797" fill-opacity="0.4"/>
<path d="M12 23C13.1046 23 14 22.1046 14 21C14 19.8954 13.1046 19 12 19C10.8954 19 10 19.8954 10 21C10 22.1046 10.8954 23 12 23Z" fill="#979797" fill-opacity="0.4"/>
</g>
</g>
</svg>
