<svg width="24" height="24" viewBox="0 0 24 24" fill="none" xmlns="http://www.w3.org/2000/svg">
<g id="direction">
<path id="primary" d="M12 19.5C11.8687 19.5002 11.7386 19.4743 11.6173 19.4241C11.4959 19.3738 11.3857 19.3 11.293 19.207L8.29302 16.207C8.10831 16.0189 8.00535 15.7655 8.00654 15.5019C8.00773 15.2383 8.11299 14.9858 8.29939 14.7994C8.4858 14.613 8.73828 14.5077 9.00189 14.5065C9.26551 14.5053 9.51893 14.6083 9.70702 14.793L12 17.0859L14.293 14.7929C14.4809 14.6074 14.7346 14.5037 14.9987 14.5045C15.2628 14.5054 15.5159 14.6107 15.7026 14.7974C15.8894 14.9842 15.9946 15.2372 15.9955 15.5013C15.9963 15.7654 15.8926 16.0191 15.707 16.207L12.707 19.207C12.6143 19.3 12.5041 19.3738 12.3828 19.4241C12.2614 19.4743 12.1314 19.5002 12 19.5ZM15 10.5C14.8687 10.5002 14.7386 10.4743 14.6173 10.4241C14.4959 10.3738 14.3857 10.3 14.293 10.207L12 7.91406L9.70702 10.207C9.51893 10.3917 9.26551 10.4947 9.00189 10.4935C8.73828 10.4923 8.4858 10.387 8.29939 10.2006C8.11299 10.0142 8.00773 9.76174 8.00654 9.49813C8.00535 9.23451 8.10831 8.98109 8.29302 8.793L11.293 5.793C11.3858 5.70012 11.4961 5.62644 11.6174 5.57617C11.7387 5.5259 11.8687 5.50003 12 5.50003C12.1314 5.50003 12.2614 5.5259 12.3827 5.57617C12.504 5.62644 12.6142 5.70012 12.7071 5.793L15.7071 8.793C15.8469 8.93286 15.9421 9.11103 15.9807 9.30499C16.0192 9.49895 15.9994 9.69998 15.9237 9.88269C15.8481 10.0654 15.7199 10.2216 15.5555 10.3314C15.3911 10.4413 15.1978 10.5 15 10.5Z" fill="#F9CA24"/>
</g>
</svg>
