<svg width="24" height="24" viewBox="0 0 24 24" fill="none" xmlns="http://www.w3.org/2000/svg">
<g id="dribbble">
<path id="accent" d="M11.97 20.97C16.9405 20.97 20.97 16.9406 20.97 11.97C20.97 6.99944 16.9405 2.97 11.97 2.97C6.99941 2.97 2.96997 6.99944 2.96997 11.97C2.96997 16.9406 6.99941 20.97 11.97 20.97Z" fill="#979797" fill-opacity="0.4"/>
<path id="primary" d="M1.99997 12C1.98664 10.2366 2.44959 8.50223 3.33997 6.98001C4.21221 5.46778 5.46774 4.21225 6.97997 3.34001C8.50218 2.44963 10.2365 1.98668 12 2.00001C13.7634 1.98667 15.4978 2.44962 17.02 3.34001C18.5322 4.21224 19.7877 5.46777 20.66 6.98001C21.5504 8.50222 22.0133 10.2366 22 12C22.0133 13.7634 21.5504 15.4978 20.66 17.02C19.7877 18.5322 18.5322 19.7878 17.02 20.66C15.4978 21.5504 13.7634 22.0133 12 22C10.2365 22.0133 8.50218 21.5504 6.97997 20.66C5.46774 19.7878 4.21221 18.5322 3.33997 17.02C2.44959 15.4978 1.98664 13.7634 1.99997 12ZM3.65997 12C3.6418 14.0325 4.39183 15.9968 5.75997 17.5C6.51494 16.1094 7.55006 14.8904 8.79997 13.92C9.9679 12.8998 11.3583 12.167 12.86 11.78C12.66 11.3133 12.4666 10.8933 12.28 10.52C9.87208 11.2705 7.36203 11.6417 4.83997 11.62C4.31997 11.62 3.9333 11.6133 3.67997 11.6C3.67997 11.6533 3.67664 11.72 3.66997 11.8C3.6633 11.88 3.65997 11.9467 3.65997 12ZM3.91997 9.94001C4.2133 9.96668 4.64664 9.98001 5.21997 9.98001C7.36594 9.99155 9.50201 9.68833 11.56 9.08001C10.6606 7.43247 9.53648 5.91797 8.21997 4.58001C7.16585 5.11399 6.24099 5.87162 5.50997 6.80001C4.76767 7.7249 4.22617 8.79428 3.91997 9.94001ZM6.89997 18.58C9.17688 20.379 12.237 20.8357 14.94 19.78C14.6781 17.5204 14.1546 15.2988 13.38 13.16C11.9935 13.5116 10.7177 14.2063 9.66997 15.18C8.5343 16.1224 7.59338 17.2773 6.89997 18.58ZM9.95997 3.94001C11.2418 5.30324 12.3379 6.82977 13.22 8.48001C14.8119 7.8794 16.2234 6.881 17.32 5.58001C15.8346 4.32213 13.9463 3.64063 12 3.66001C11.3105 3.66131 10.6243 3.75549 9.95997 3.94001ZM13.94 9.90001C14.14 10.3267 14.3666 10.8667 14.62 11.52C15.6066 11.4267 16.68 11.38 17.84 11.38C18.6666 11.38 19.4866 11.4 20.3 11.44C20.2041 9.65336 19.5143 7.94991 18.34 6.60001C17.2146 8.09367 15.689 9.23787 13.94 9.90001ZM15.12 12.92C15.7993 14.8906 16.2621 16.9292 16.5 19C17.5441 18.3294 18.4255 17.4343 19.08 16.38C19.7396 15.3337 20.1501 14.15 20.28 12.92C19.3066 12.8533 18.42 12.82 17.62 12.82C16.8866 12.82 16.0533 12.8533 15.12 12.92Z" fill="#F9CA24"/>
</g>
</svg>
