<svg width="24" height="24" viewBox="0 0 24 24" fill="none" xmlns="http://www.w3.org/2000/svg">
<g id="exclamation_octagon">
<path id="accent" d="M15.728 22H8.272C8.00681 21.9999 7.7525 21.8945 7.565 21.707L2.293 16.435C2.10546 16.2475 2.00007 15.9932 2 15.728V8.272C2.00007 8.00681 2.10546 7.7525 2.293 7.565L7.565 2.293C7.7525 2.10546 8.00681 2.00007 8.272 2H15.728C15.9932 2.00007 16.2475 2.10546 16.435 2.293L21.707 7.565C21.8945 7.7525 21.9999 8.00681 22 8.272V15.728C21.9999 15.9932 21.8945 16.2475 21.707 16.435L16.435 21.707C16.2475 21.8945 15.9932 21.9999 15.728 22V22Z" fill="#979797" fill-opacity="0.4"/>
<path id="primary" d="M12 17C12.5523 17 13 16.5523 13 16C13 15.4477 12.5523 15 12 15C11.4477 15 11 15.4477 11 16C11 16.5523 11.4477 17 12 17Z" fill="#F9CA24"/>
<path id="primary_2" d="M12 13C11.7348 13 11.4804 12.8946 11.2929 12.7071C11.1054 12.5196 11 12.2652 11 12V8C11 7.73478 11.1054 7.48043 11.2929 7.29289C11.4804 7.10536 11.7348 7 12 7C12.2652 7 12.5196 7.10536 12.7071 7.29289C12.8946 7.48043 13 7.73478 13 8V12C13 12.2652 12.8946 12.5196 12.7071 12.7071C12.5196 12.8946 12.2652 13 12 13Z" fill="#F9CA24"/>
</g>
</svg>
