<svg width="24" height="24" viewBox="0 0 24 24" fill="none" xmlns="http://www.w3.org/2000/svg">
<g id="facebook_messenger">
<path id="accent" d="M18.0041 9.46482L15.0684 14.1228C14.6257 14.8239 13.6985 15.0334 12.9974 14.5907C12.9639 14.5695 12.9312 14.547 12.8994 14.5232L10.5634 12.7707C10.349 12.6103 10.0544 12.6112 9.841 12.7727L6.68399 15.1692C6.47522 15.3277 6.17747 15.287 6.01894 15.0782C5.8991 14.9204 5.88991 14.7048 5.99588 14.5373L8.9335 9.87733C9.3763 9.17621 10.3036 8.9668 11.0048 9.4096C11.0382 9.43075 11.0709 9.45321 11.1026 9.47694L13.4386 11.2295C13.653 11.3899 13.9476 11.389 14.161 11.2275L17.316 8.83309C17.5248 8.67458 17.8225 8.71532 17.981 8.92408C18.1008 9.08185 18.11 9.29742 18.0041 9.46482Z" fill="#979797" fill-opacity="0.4"/>
<path id="primary" d="M12.5906 1.99998C12.3938 1.994 12.1968 1.994 12 1.99998C6.67338 1.80705 2.19895 5.96879 2.00602 11.2954C2.00114 11.4303 1.99906 11.5653 1.99986 11.7003C1.96495 14.4327 3.1096 17.0475 5.14073 18.8754C5.30418 19.0208 5.40147 19.2263 5.41038 19.4449L5.4647 21.2236C5.47886 21.6659 5.84898 22.013 6.29136 21.9988C6.39341 21.9956 6.49394 21.9728 6.58744 21.9318L8.57145 21.0566C8.73924 20.9822 8.92759 20.968 9.10465 21.0163C10.0481 21.274 11.022 21.4032 12 21.4006C17.3573 21.5637 21.8325 17.353 21.9956 11.9957C22.1587 6.63829 17.948 2.16307 12.5906 1.99998ZM18.0041 9.46482L15.0684 14.1228C14.6257 14.8239 13.6985 15.0334 12.9974 14.5907C12.9639 14.5695 12.9312 14.547 12.8994 14.5232L10.5633 12.7707C10.349 12.6103 10.0544 12.6112 9.84099 12.7727L6.68401 15.1692C6.47521 15.3277 6.17748 15.287 6.01891 15.0782C5.8991 14.9204 5.88988 14.7047 5.9959 14.5373L8.93352 9.87736C9.37627 9.17619 10.3036 8.96678 11.0048 9.40959C11.0383 9.43077 11.0708 9.45323 11.1026 9.47697L13.4387 11.2295C13.6529 11.3899 13.9476 11.389 14.161 11.2275L17.316 8.83311C17.5248 8.6746 17.8225 8.71531 17.981 8.92405C18.1007 9.08183 18.11 9.2974 18.0041 9.46482Z" fill="#F9CA24"/>
</g>
</svg>
