<svg width="24" height="24" viewBox="0 0 24 24" fill="none" xmlns="http://www.w3.org/2000/svg">
<g id="facebook_messenger_alt">
<g id="Brand Logos">
<path id="accent" d="M12 1.99998C10.6994 1.95287 9.40265 2.16932 8.18783 2.6363C6.97302 3.10328 5.86521 3.81115 4.93104 4.71732C3.99686 5.62349 3.25562 6.70925 2.75189 7.90929C2.24816 9.10933 1.99235 10.3989 1.99986 11.7003C1.9826 13.0509 2.25387 14.3897 2.79552 15.627C3.33717 16.8644 4.13672 17.9719 5.14073 18.8754C5.22162 18.9474 5.28718 19.0349 5.33351 19.1327C5.37984 19.2305 5.40598 19.3367 5.41038 19.4449L5.4647 21.2236C5.4689 21.3545 5.50513 21.4824 5.57023 21.5961C5.63532 21.7098 5.7273 21.8058 5.8381 21.8757C5.9489 21.9456 6.07514 21.9872 6.20578 21.997C6.33642 22.0068 6.46746 21.9844 6.58744 21.9318L8.57144 21.0566C8.73925 20.9822 8.92756 20.968 9.10464 21.0163C10.0481 21.274 11.022 21.4033 12 21.4006C13.2987 21.4401 14.5921 21.2184 15.8035 20.7487C17.0149 20.279 18.1196 19.5708 19.0522 18.6662C19.9848 17.7615 20.7263 16.6788 21.2326 15.4822C21.7389 14.2856 21.9998 12.9996 21.9998 11.7003C21.9998 10.401 21.7389 9.11496 21.2326 7.91839C20.7263 6.72182 19.9848 5.6391 19.0522 4.73444C18.1196 3.82978 17.0149 3.12159 15.8035 2.65188C14.5921 2.18216 13.2987 1.96048 12 1.99998V1.99998Z" fill="#979797" fill-opacity="0.4"/>
<path id="primary" d="M6.49897 14.7724C6.30878 14.7721 6.12263 14.7176 5.96234 14.6152C5.80206 14.5128 5.6743 14.3669 5.59403 14.1944C5.51377 14.022 5.48433 13.8303 5.50918 13.6417C5.53403 13.4532 5.61213 13.2756 5.73433 13.1299L8.7861 9.49413C8.93962 9.30971 9.15457 9.18693 9.3914 9.14834C9.62824 9.10976 9.87104 9.15798 10.0752 9.28413L13.4218 11.3398L15.7343 8.58499C15.8187 8.48445 15.9221 8.40151 16.0385 8.34091C16.155 8.28032 16.2822 8.24325 16.413 8.23182C16.5437 8.2204 16.6755 8.23484 16.8006 8.27432C16.9258 8.31381 17.042 8.37756 17.1425 8.46195C17.2431 8.54633 17.326 8.64969 17.3866 8.76613C17.4472 8.88257 17.4843 9.0098 17.4957 9.14057C17.5071 9.27133 17.4927 9.40306 17.4532 9.52824C17.4137 9.65343 17.35 9.76961 17.2656 9.87015L14.3994 13.2861C14.2453 13.4697 14.0304 13.5919 13.7938 13.6304C13.5573 13.669 13.3147 13.6213 13.1103 13.4961L9.76364 11.4404L7.26559 14.415C7.17195 14.5273 7.0547 14.6175 6.92219 14.6793C6.78968 14.7411 6.64517 14.7729 6.49897 14.7724Z" fill="#F9CA24"/>
</g>
</g>
</svg>
