<svg width="24" height="24" viewBox="0 0 24 24" fill="none" xmlns="http://www.w3.org/2000/svg">
<g id="favorite">
<path id="primary" d="M17.5625 21.5595C17.4002 21.5595 17.2403 21.52 17.0967 21.4443L12 18.7646L6.90332 21.4443C6.73819 21.5312 6.55205 21.5702 6.36594 21.5568C6.17983 21.5434 6.00118 21.4782 5.85019 21.3685C5.6992 21.2589 5.58191 21.1092 5.51156 20.9364C5.44122 20.7636 5.42064 20.5745 5.45215 20.3906L6.42578 14.7148L2.30178 10.6953C2.1682 10.565 2.07374 10.4 2.02907 10.2189C1.98441 10.0377 1.99132 9.84771 2.04904 9.6703C2.10675 9.49288 2.21296 9.33516 2.35566 9.21497C2.49835 9.09478 2.67183 9.01692 2.85647 8.9902L8.55471 8.16208L11.1035 2.99802C11.1954 2.84189 11.3264 2.71246 11.4837 2.62253C11.6409 2.5326 11.8189 2.48529 12 2.48529C12.1812 2.48529 12.3592 2.5326 12.5164 2.62253C12.6737 2.71246 12.8047 2.84189 12.8965 2.99802L15.4454 8.16208L21.1436 8.9902C21.3283 9.01692 21.5017 9.09478 21.6444 9.21497C21.7871 9.33516 21.8933 9.49288 21.951 9.6703C22.0088 9.84771 22.0157 10.0377 21.971 10.2189C21.9263 10.4 21.8319 10.565 21.6983 10.6953L17.5743 14.7148L18.5479 20.3906C18.5725 20.5341 18.5654 20.6812 18.5272 20.8217C18.4891 20.9622 18.4207 21.0927 18.3268 21.204C18.233 21.3153 18.116 21.4048 17.984 21.4662C17.852 21.5277 17.7082 21.5595 17.5626 21.5596L17.5625 21.5595Z" fill="#F9CA24"/>
</g>
</svg>
