<svg width="25" height="25" viewBox="0 0 25 25" fill="none" xmlns="http://www.w3.org/2000/svg">
<g id="filter">
<g id="Group 4">
<g id="accent">
<path d="M5.59689 5.57337C4.82915 5.14551 4.06445 5.14551 3.29672 5.57337C1.69753 6.24097 0.847865 7.39105 0.850899 8.8901C0.850899 10.3891 1.7036 11.5423 3.29976 12.2068C4.06445 12.6347 4.82915 12.6347 5.59385 12.2068C7.19304 11.5423 8.04271 10.3922 8.04271 8.8901C8.04574 7.39105 7.19304 6.23793 5.59689 5.57337Z" fill="#979797" fill-opacity="0.7"/>
<path d="M24.8509 11.2934C24.8509 9.7944 24.0012 8.64126 22.402 7.9767C21.6343 7.54884 20.8696 7.54884 20.1019 7.9767C18.5027 8.64126 17.653 9.7944 17.653 11.2934C17.653 12.7925 18.5057 13.9456 20.1019 14.6102C20.8666 15.038 21.6313 15.038 22.399 14.6102C24.0012 13.9456 24.8509 12.7925 24.8509 11.2934Z" fill="#979797" fill-opacity="0.7"/>
<path d="M13.9995 15.1867C13.2348 14.7589 12.467 14.7589 11.6993 15.1867C10.1001 15.8513 9.25043 17.0014 9.25043 18.5034C9.25043 20.0025 10.1001 21.1556 11.6962 21.8202C12.464 22.245 13.2317 22.245 13.9995 21.8202C15.5956 21.1556 16.4453 20.0025 16.4453 18.5034C16.4483 17.0044 15.5956 15.8513 13.9995 15.1867Z" fill="#979797" fill-opacity="0.7"/>
</g>
<g id="primary">
<path d="M13.9995 15.1867C14.0177 10.7897 14.0298 6.39268 14.0541 1.99567C14.0571 1.19152 13.7598 0.554271 12.9253 0.514822C11.9937 0.469305 11.6477 1.12173 11.6508 1.99567C11.672 6.39268 11.6872 10.7897 11.7023 15.1867C12.467 14.7588 13.2348 14.7588 13.9995 15.1867Z" fill="#FFD740"/>
<path d="M3.29977 12.2068C3.28156 15.8027 3.26942 19.3986 3.24515 22.9945C3.23908 23.7987 3.5395 24.4359 4.374 24.4753C5.30559 24.5209 5.65455 23.8685 5.64848 22.9945C5.62724 19.3986 5.61207 15.8027 5.5969 12.2068C4.82916 12.6347 4.06446 12.6347 3.29977 12.2068Z" fill="#FFD740"/>
<path d="M20.1049 14.6102C20.0867 17.4049 20.0746 20.1997 20.0503 22.9945C20.0442 23.7987 20.3477 24.4329 21.1791 24.4723C22.1077 24.5178 22.4597 23.8685 22.4536 22.9945C22.4324 20.1997 22.4172 17.4049 22.402 14.6102C21.6374 15.038 20.8727 15.038 20.1049 14.6102Z" fill="#FFD740"/>
<path d="M22.4051 7.97668C22.4233 5.983 22.4324 3.98933 22.4597 1.99262C22.4688 1.18847 22.1623 0.554262 21.3309 0.514814C20.4023 0.469296 20.0473 1.11868 20.0564 1.99262C20.0746 3.9863 20.0898 5.97997 20.108 7.97668C20.8696 7.54881 21.6374 7.54881 22.4051 7.97668Z" fill="#FFD740"/>
<path d="M5.59691 5.57335C5.61208 4.3292 5.63636 3.08505 5.64243 1.8409C5.64547 1.08834 5.26615 0.551233 4.51966 0.514819C3.68213 0.472335 3.2573 1.02462 3.25427 1.8409C3.2482 3.08505 3.28156 4.3292 3.29674 5.57335C4.06447 5.14549 4.82917 5.14549 5.59691 5.57335Z" fill="#FFD740"/>
<path d="M11.6993 21.8202C11.7175 22.8519 11.1986 24.3752 12.7796 24.4268C14.5305 24.4845 13.9722 22.8883 14.0025 21.8202C13.2348 22.245 12.467 22.245 11.6993 21.8202Z" fill="#FFD740"/>
</g>
</g>
</g>
</svg>
