<svg width="24" height="24" viewBox="0 0 24 24" fill="none" xmlns="http://www.w3.org/2000/svg">
<g id="finance">
<g clip-path="url(#clip0)">
<g id="Group">
<path id="accent" d="M0 12.0027C0 5.403 5.43879 -0.008278 12.066 -2.49043e-05C18.5805 0.00822819 24 5.45802 24 11.9972C24 18.5969 18.5612 24.011 11.934 24C5.42228 23.9917 0 18.5419 0 12.0027Z" fill="#979797" fill-opacity="0.4"/>
<path id="primary" d="M16.3631 14.1761C16.3466 15.6094 15.4333 16.8968 13.9532 17.348C13.3205 17.5406 13.0427 17.7469 13.0784 18.4182C13.1169 19.1719 12.7208 19.6451 11.934 19.6149C11.216 19.5874 10.8721 19.1087 10.9244 18.4264C10.9849 17.6204 10.6245 17.3755 9.88447 17.4498C9.52408 17.4856 9.1582 17.4608 8.79506 17.4498C8.1018 17.4278 7.66439 17.0922 7.65889 16.3741C7.65338 15.6589 8.07979 15.293 8.77305 15.282C10.044 15.2627 11.3178 15.26 12.5887 15.2765C13.392 15.2875 14.1403 15.1279 14.1376 14.1788C14.1376 13.2297 13.3893 13.0784 12.586 13.0812C11.7277 13.0839 10.8418 13.1472 10.0138 12.9656C8.73179 12.685 7.68089 11.2407 7.63688 9.96699C7.58736 8.49794 8.46494 7.16919 9.98626 6.674C10.6438 6.46217 10.9876 6.2586 10.9299 5.50757C10.8776 4.81706 11.2792 4.37964 11.9945 4.37964C12.707 4.37964 13.1279 4.81706 13.0674 5.50206C12.9739 6.5392 13.5654 6.59973 14.3219 6.54195C14.5942 6.5227 14.8666 6.53645 15.1389 6.54195C15.8927 6.55571 16.3714 6.90784 16.3384 7.69464C16.3081 8.40715 15.8322 8.71527 15.1472 8.71802C13.9202 8.72077 12.6933 8.73453 11.4663 8.71802C10.6823 8.70702 9.89547 8.79505 9.85971 9.75241C9.81844 10.8088 10.6383 10.9243 11.4801 10.9078C12.9739 10.8776 14.5035 10.7043 15.5929 12.1183C16.0825 12.7565 16.4374 13.4085 16.3631 14.1761Z" fill="#FFD740"/>
</g>
</g>
</g>
<defs>
<clipPath id="clip0">
<path d="M0 0H24V24H0V0Z" fill="white"/>
</clipPath>
</defs>
</svg>
