<svg width="24" height="24" viewBox="0 0 24 24" fill="none" xmlns="http://www.w3.org/2000/svg">
<g id="five_px">
<path id="primary" d="M19.7049 19.2656L19.6379 19.3326C18.8139 20.1695 17.8312 20.8335 16.7473 21.2857C15.6272 21.7567 14.4244 21.9996 13.2094 22C12.0148 22.002 10.8316 21.7673 9.72821 21.3095C8.62482 20.8517 7.62306 20.1798 6.78081 19.3326C5.41791 17.9853 4.52224 16.237 4.22499 14.3438C4.19523 14.1354 4.3738 14.0015 4.76071 13.942C5.14017 13.8824 5.3485 13.9569 5.38571 14.1652C5.39478 14.1782 5.39875 14.1941 5.39687 14.2098C5.51229 14.8161 5.68417 15.4102 5.91026 15.9844C6.29871 16.9316 6.87591 17.7898 7.6067 18.5067C8.72064 19.6218 10.1421 20.379 11.6891 20.6812C13.236 20.9835 14.838 20.817 16.2897 20.2031C17.2277 19.8037 18.0802 19.2278 18.8009 18.5067L18.8679 18.4397C18.9034 18.4034 18.9484 18.3779 18.9978 18.3661C19.0471 18.3542 19.0988 18.3565 19.1469 18.3727C19.2861 18.4267 19.4118 18.5105 19.5152 18.6182C19.7831 18.8936 19.8463 19.1094 19.7049 19.2656ZM14.4371 12.4018L13.7005 13.1384L14.4036 13.8415C14.5598 13.9978 14.5338 14.1801 14.3255 14.3884C14.2361 14.4962 14.1077 14.5644 13.9683 14.5781C13.927 14.5759 13.8867 14.5648 13.8501 14.5455C13.8135 14.5262 13.7815 14.4993 13.7563 14.4665L13.0642 13.7857L12.3276 14.5223C12.3049 14.5423 12.2783 14.5575 12.2496 14.5671C12.2208 14.5767 12.1904 14.5804 12.1602 14.5781C12.0936 14.5727 12.0288 14.5541 11.9694 14.5234C11.91 14.4928 11.8573 14.4507 11.8142 14.3996L11.7919 14.3772C11.7369 14.3412 11.6904 14.2935 11.6557 14.2376C11.621 14.1817 11.5989 14.1189 11.591 14.0536C11.5994 13.9823 11.6307 13.9157 11.6803 13.8638L12.4169 13.1384L11.6803 12.4018C11.5613 12.2827 11.6133 12.1153 11.8366 11.8996C11.9226 11.7915 12.0461 11.7198 12.1825 11.6987C12.2355 11.7017 12.2863 11.7212 12.3276 11.7545L13.0531 12.4911L13.7785 11.7656C13.9125 11.6391 14.091 11.6875 14.3142 11.9107C14.5152 12.1116 14.5561 12.2753 14.4371 12.4018ZM19.6938 13.038C19.696 13.8969 19.5274 14.7477 19.1978 15.541C18.8683 16.3342 18.3843 17.054 17.7741 17.6585C17.1748 18.2565 16.4664 18.7338 15.6871 19.0647C14.8815 19.4036 14.0164 19.5781 13.1425 19.5781C12.2685 19.5781 11.4034 19.4036 10.5978 19.0647C9.81858 18.7338 9.11009 18.2565 8.51082 17.6585C7.91256 17.066 7.4383 16.3603 7.11573 15.5826C7.03836 15.4428 6.98196 15.2924 6.94832 15.1362H6.93706C6.87009 14.9353 7.03006 14.7716 7.41697 14.6451C7.78897 14.526 8.01218 14.5707 8.08661 14.779C8.33018 15.4614 8.69715 16.0932 9.1692 16.6429H9.18036V12.8371C9.185 12.3509 9.28828 11.8707 9.48396 11.4256C9.67964 10.9806 9.96364 10.5799 10.3187 10.2478C10.6876 9.87573 11.1279 9.58211 11.6132 9.38456C12.0984 9.18702 12.6186 9.08961 13.1424 9.09821C13.6629 9.08972 14.1797 9.18725 14.6613 9.38489C15.1429 9.58252 15.5792 9.87611 15.9438 10.2478C16.3179 10.6063 16.6141 11.0381 16.8139 11.5163C17.0136 11.9944 17.1125 12.5086 17.1045 13.0268C17.1017 14.0767 16.6834 15.0829 15.9409 15.8253C15.1985 16.5677 14.1924 16.986 13.1424 16.9888C12.7193 16.99 12.2983 16.9298 11.8924 16.8102C11.6841 16.7284 11.6357 16.5014 11.7473 16.1294C11.8664 15.7499 12.0301 15.59 12.2384 15.6495L12.3946 15.683C12.4988 15.7053 12.6197 15.7276 12.7574 15.75C12.8698 15.7699 12.9836 15.7811 13.0978 15.7835C13.4622 15.7909 13.8244 15.724 14.1621 15.5868C14.4999 15.4496 14.8061 15.245 15.0621 14.9855C15.3225 14.7334 15.5283 14.4304 15.6665 14.0953C15.8048 13.7602 15.8725 13.4003 15.8656 13.0379C15.872 12.6814 15.8038 12.3274 15.6654 11.9988C15.527 11.6701 15.3215 11.374 15.0621 11.1294C14.8079 10.871 14.5034 10.6673 14.1675 10.531C13.8316 10.3947 13.4713 10.3287 13.1089 10.337C12.7324 10.3296 12.3588 10.4058 12.0153 10.5602C11.6717 10.7146 11.3668 10.9433 11.1223 11.2299C10.6669 11.7133 10.4116 12.3514 10.408 13.0156V17.625C11.2207 18.1219 12.1564 18.381 13.1089 18.3728C13.8173 18.374 14.5189 18.2355 15.1737 17.9654C16.1507 17.5641 16.9865 16.8814 17.5747 16.004C18.1629 15.1267 18.4771 14.0943 18.4772 13.038C18.4752 11.6189 17.9097 10.2586 16.9052 9.25614C15.9007 8.2537 14.5392 7.69111 13.1201 7.692C12.4144 7.67943 11.7136 7.81158 11.061 8.08032C10.4083 8.34905 9.81768 8.74867 9.32545 9.2545C9.01349 9.55468 8.72611 9.87938 8.46607 10.2255L8.44375 10.2478C8.40101 10.31 8.35243 10.3679 8.29866 10.4208C8.22601 10.4709 8.14459 10.5068 8.05866 10.5268C7.91561 10.5628 7.76474 10.551 7.62899 10.4933C7.48206 10.4603 7.34343 10.3977 7.22162 10.3092C7.17087 10.2777 7.12858 10.2343 7.09843 10.1827C7.06828 10.1312 7.05118 10.0731 7.04862 10.0134V2.42411C7.04799 2.31409 7.08999 2.20809 7.16581 2.12835C7.2046 2.08597 7.25215 2.05254 7.30516 2.03038C7.35816 2.00821 7.41536 1.99785 7.47277 2H17.2607C17.4839 2 17.5955 2.20462 17.5955 2.61384C17.5955 3.02307 17.4839 3.22768 17.2607 3.22768H8.20938V8.6183H8.22054C8.56572 8.26636 8.94733 7.95209 9.35893 7.6808C9.73726 7.41463 10.141 7.18659 10.5643 7C11.3802 6.65675 12.2572 6.48211 13.1424 6.48661C14.0169 6.48138 14.883 6.65614 15.6871 7C16.8769 7.49771 17.8926 8.33692 18.6057 9.4116C19.3189 10.4863 19.6975 11.7482 19.6938 13.038V13.038ZM19.3477 6.55357C19.3782 6.57764 19.403 6.60811 19.4204 6.64283C19.4377 6.67754 19.4472 6.71566 19.4482 6.75446C19.449 6.82617 19.4276 6.89637 19.3868 6.95536C19.3459 7.01488 19.2845 7.09301 19.2027 7.18973C19.0092 7.38319 18.8641 7.47991 18.7674 7.47991C18.7339 7.47976 18.7007 7.47274 18.67 7.45931C18.6393 7.44587 18.6117 7.4263 18.5888 7.40179C17.9013 6.78902 17.1217 6.28811 16.2786 5.91741C15.3065 5.49671 14.2573 5.28383 13.1982 5.29241C12.1983 5.29433 11.2071 5.47969 10.2741 5.83929C10.0732 5.91369 9.90579 5.77603 9.77186 5.42629C9.71489 5.29205 9.68457 5.148 9.68257 5.00218C9.68725 4.9516 9.70667 4.90349 9.73841 4.86382C9.77015 4.82416 9.81283 4.79467 9.86116 4.779C10.9173 4.33747 12.0538 4.12081 13.1982 4.14284C14.4099 4.14111 15.6095 4.38406 16.725 4.85712C17.6958 5.25716 18.5848 5.83219 19.3478 6.55357H19.3477Z" fill="#F9CA24"/>
</g>
</svg>
