<svg width="24" height="24" viewBox="0 0 24 24" fill="none" xmlns="http://www.w3.org/2000/svg">
<g id="flip_v">
<path id="primary" d="M12 22C11.8687 22 11.7386 21.9742 11.6173 21.9239C11.4959 21.8737 11.3857 21.8 11.2928 21.7072C11.2 21.6143 11.1263 21.5041 11.0761 21.3827C11.0258 21.2614 11 21.1313 11 21V3C11 2.73478 11.1054 2.48043 11.2929 2.29289C11.4804 2.10536 11.7348 2 12 2C12.2652 2 12.5196 2.10536 12.7071 2.29289C12.8946 2.48043 13 2.73478 13 3V21C13 21.1313 12.9742 21.2614 12.9239 21.3827C12.8737 21.5041 12.8 21.6143 12.7072 21.7072C12.6143 21.8 12.5041 21.8737 12.3827 21.9239C12.2614 21.9742 12.1313 22 12 22Z" fill="#F9CA24" fill-opacity="0.4"/>
<g id="primary_2">
<path d="M21 12L16 6.99998V17L21 12Z" fill="#F9CA24"/>
<path d="M16 18C15.7348 18 15.4804 17.8946 15.2929 17.7071C15.1054 17.5195 15 17.2652 15 17V6.99998C15 6.80221 15.0586 6.60888 15.1685 6.44444C15.2784 6.28 15.4346 6.15184 15.6173 6.07616C15.8 6.00049 16.0011 5.98069 16.195 6.01928C16.389 6.05788 16.5672 6.15312 16.707 6.29298L21.707 11.293C21.7999 11.3858 21.8736 11.496 21.9238 11.6173C21.9741 11.7387 22 11.8687 22 12C22 12.1313 21.9741 12.2614 21.9238 12.3827C21.8736 12.504 21.7999 12.6142 21.707 12.707L16.707 17.707C16.6142 17.7999 16.504 17.8736 16.3827 17.9239C16.2614 17.9742 16.1313 18 16 18ZM17 9.41404V14.5859L19.5859 12L17 9.41404Z" fill="#F9CA24"/>
</g>
<path id="accent" d="M2.99998 13C2.83535 13.0016 2.67294 12.962 2.52741 12.8851C2.38188 12.8081 2.25783 12.696 2.16647 12.5591C2.07511 12.4221 2.01933 12.2645 2.00415 12.1006C1.98898 11.9367 2.0149 11.7715 2.07957 11.6201C2.13031 11.4989 2.20148 11.3872 2.28998 11.29C2.48333 11.1115 2.73681 11.0124 2.99994 11.0124C3.26308 11.0124 3.51656 11.1115 3.7099 11.29C3.80021 11.3857 3.87148 11.4977 3.9199 11.6201C3.97598 11.7387 4.0034 11.8688 3.99998 12C4.00126 12.1317 3.97627 12.2623 3.92647 12.3842C3.87667 12.5061 3.80306 12.6169 3.70994 12.71C3.61683 12.8031 3.50608 12.8767 3.38418 12.9265C3.26227 12.9763 3.13166 13.0013 2.99998 13V13ZM4.78998 15.21C4.60256 15.0213 4.49738 14.766 4.49738 14.5C4.49738 14.234 4.60256 13.9788 4.78998 13.7901C4.97862 13.6024 5.23387 13.4971 5.49994 13.4971C5.76602 13.4971 6.02127 13.6024 6.2099 13.7901C6.39711 13.979 6.50214 14.2341 6.50214 14.5C6.50214 14.766 6.39711 15.0211 6.2099 15.21V15.21C6.01954 15.3947 5.76513 15.4986 5.4999 15.5V15.5C5.23467 15.4988 4.98023 15.3948 4.78998 15.21V15.21ZM7.99998 18C7.86831 18.0012 7.73772 17.9762 7.61582 17.9264C7.49392 17.8766 7.38315 17.8031 7.28998 17.71C7.20167 17.6127 7.13052 17.5011 7.07953 17.3799C7.02843 17.2597 7.00141 17.1306 6.99998 17C7.00367 16.7352 7.10725 16.4816 7.28998 16.29C7.43319 16.1555 7.6116 16.0644 7.8045 16.0272C7.99741 15.9901 8.1969 16.0084 8.37982 16.08C8.501 16.1307 8.61263 16.2017 8.7099 16.29C8.89247 16.4818 8.99605 16.7353 8.99998 17C8.99838 17.1307 8.97117 17.2597 8.9199 17.3799C8.86891 17.5009 8.79792 17.6125 8.7099 17.71C8.61675 17.803 8.506 17.8766 8.38411 17.9264C8.26223 17.9762 8.13164 18.0012 7.99998 18V18ZM6.99998 13.6699C6.99946 13.5385 7.02496 13.4082 7.07503 13.2866C7.12509 13.1651 7.19873 13.0546 7.2917 12.9616C7.38466 12.8687 7.49511 12.795 7.61668 12.745C7.73824 12.6949 7.86851 12.6694 7.99998 12.6699V12.6699C8.13144 12.6694 8.2617 12.695 8.38324 12.7451C8.50479 12.7951 8.61522 12.8688 8.70818 12.9617C8.80113 13.0547 8.87477 13.1651 8.92486 13.2867C8.97494 13.4082 9.00047 13.5385 8.99998 13.6699V13.6699C8.99914 13.9349 8.89352 14.1888 8.70616 14.3761C8.51881 14.5635 8.26494 14.6691 7.99998 14.6699V14.6699C7.735 14.6692 7.48109 14.5636 7.29372 14.3762C7.10635 14.1888 7.00074 13.9349 6.99998 13.6699V13.6699ZM6.99998 10.3301C7.00074 10.0651 7.10635 9.81119 7.29372 9.62382C7.48109 9.43645 7.735 9.33085 7.99998 9.33009C8.26494 9.33093 8.51881 9.43656 8.70616 9.62391C8.89352 9.81126 8.99914 10.0651 8.99998 10.3301V10.3301C9.00039 10.4615 8.9748 10.5917 8.92469 10.7133C8.87458 10.8348 8.80093 10.9452 8.708 11.0381C8.61506 11.131 8.50466 11.2047 8.38315 11.2548C8.26164 11.3049 8.13142 11.3305 7.99998 11.3301V11.3301C7.86854 11.3305 7.7383 11.305 7.61678 11.2549C7.49525 11.2048 7.38483 11.1311 7.29189 11.0382C7.19894 10.9452 7.1253 10.8348 7.0752 10.7133C7.0251 10.5918 6.99954 10.4615 6.99998 10.3301V10.3301ZM7.99998 8.00001C7.83535 8.00155 7.67294 7.96205 7.52741 7.88506C7.38188 7.80808 7.25783 7.69604 7.16647 7.55907C7.07511 7.42211 7.01933 7.26454 7.00415 7.1006C6.98898 6.93666 7.0149 6.77153 7.07957 6.62013C7.12796 6.49765 7.19939 6.38559 7.28998 6.29001C7.40498 6.17055 7.54825 6.08204 7.70655 6.03267C7.86484 5.9833 8.03303 5.97467 8.19554 6.00758C8.35806 6.0405 8.50964 6.11388 8.63625 6.22095C8.76286 6.32802 8.86041 6.4653 8.91986 6.62009C8.98469 6.77144 9.01075 6.93658 8.99568 7.10054C8.98062 7.2645 8.92489 7.42212 8.83356 7.55912C8.74224 7.69613 8.61818 7.80819 8.47263 7.88517C8.32708 7.96216 8.16463 8.00162 7.99998 8.00001V8.00001ZM4.78998 10.21C4.60254 10.0213 4.49734 9.76603 4.49734 9.50001C4.49734 9.23399 4.60254 8.97877 4.78998 8.79001V8.79001C4.97863 8.60234 5.23389 8.497 5.49998 8.497C5.76607 8.497 6.02134 8.60234 6.20998 8.79001V8.79001C6.39719 8.97888 6.50222 9.23404 6.50222 9.49997C6.50222 9.76589 6.39719 10.0211 6.20998 10.2099V10.2099C6.01962 10.3946 5.76521 10.4985 5.49998 10.4999V10.4999C5.23473 10.4987 4.98026 10.3948 4.78998 10.21V10.21Z" fill="#979797" fill-opacity="0.4"/>
</g>
</svg>
