<svg width="24" height="24" viewBox="0 0 24 24" fill="none" xmlns="http://www.w3.org/2000/svg">
<g id="flip_h_alt">
<path id="accent" d="M20 11C19.8683 11.0013 19.7377 10.9763 19.6158 10.9265C19.4939 10.8767 19.3831 10.8031 19.29 10.71C19.2018 10.6126 19.1308 10.501 19.08 10.3799C19.0272 10.2602 18.9999 10.1308 18.9999 10C18.9999 9.8692 19.0272 9.73982 19.08 9.62014C19.1283 9.49767 19.1995 9.38559 19.29 9.28998C19.4834 9.11149 19.7368 9.01238 20 9.01238C20.2631 9.01238 20.5166 9.11149 20.7099 9.28998C20.7983 9.38717 20.8694 9.49882 20.9199 9.62006C20.9727 9.73974 21 9.86912 21 9.99994C21 10.1308 20.9727 10.2601 20.9199 10.3798C20.8691 10.5009 20.7981 10.6125 20.7099 10.7099C20.6167 10.8029 20.506 10.8764 20.3841 10.9262C20.2622 10.976 20.1317 11.0011 20 11ZM19 6.49998C19.0009 6.23502 19.1065 5.98116 19.2938 5.7938C19.4812 5.60645 19.7351 5.50082 20 5.49998V5.49998C20.265 5.50082 20.5188 5.60645 20.7062 5.7938C20.8935 5.98116 20.9992 6.23502 21 6.49998V6.49998C20.9992 6.76494 20.8935 7.0188 20.7062 7.20615C20.5188 7.39351 20.265 7.49914 20 7.49998V7.49998C19.7351 7.49914 19.4812 7.39351 19.2938 7.20615C19.1065 7.0188 19.0009 6.76494 19 6.49998V6.49998ZM20 3.99998C19.8353 4.00169 19.6728 3.96228 19.5272 3.88532C19.3816 3.80837 19.2575 3.6963 19.1662 3.55928C19.0748 3.42225 19.0191 3.2646 19.0041 3.1006C18.9891 2.93661 19.0152 2.77145 19.0801 2.6201C19.1283 2.49765 19.1996 2.38558 19.29 2.28998C19.4834 2.1115 19.7368 2.01239 20 2.01239C20.2631 2.01239 20.5166 2.1115 20.7099 2.28998C20.8004 2.38556 20.8717 2.49761 20.9199 2.62006C20.998 2.80189 21.0197 3.00294 20.9823 3.19724C20.9448 3.39153 20.85 3.57014 20.71 3.70998C20.6127 3.79815 20.5011 3.86916 20.3799 3.91998C20.2597 3.97122 20.1307 3.9984 20 3.99998V3.99998ZM7.03029 6.24021C6.99799 6.11284 6.99128 5.98032 7.01054 5.85034C7.0298 5.72036 7.07465 5.59549 7.14249 5.48295C7.21034 5.37042 7.29983 5.27246 7.40579 5.19475C7.51175 5.11703 7.63207 5.06111 7.75979 5.03021V5.03021C7.88717 4.9975 8.01979 4.99048 8.14991 5.00957C8.28004 5.02865 8.40506 5.07344 8.51769 5.14135C8.63032 5.20925 8.7283 5.2989 8.80592 5.40507C8.88354 5.51123 8.93925 5.63179 8.96979 5.75971C9.00136 5.88706 9.00753 6.01938 8.98796 6.14912C8.96838 6.27885 8.92344 6.40346 8.85569 6.51583C8.78795 6.62819 8.69873 6.72611 8.59314 6.80399C8.48755 6.88186 8.36765 6.93818 8.24029 6.96971C8.16179 6.98985 8.08106 7.00002 8.00002 6.99998C7.77637 7.00131 7.55884 6.92697 7.38279 6.78903C7.20674 6.6511 7.08251 6.45768 7.03029 6.24021V6.24021ZM11.0303 5.24021C10.998 5.11284 10.9913 4.98032 11.0105 4.85034C11.0298 4.72036 11.0746 4.59549 11.1425 4.48295C11.2103 4.37042 11.2998 4.27246 11.4058 4.19475C11.5117 4.11703 11.6321 4.06111 11.7598 4.03021V4.03021C11.8872 3.9975 12.0198 3.99048 12.1499 4.00957C12.28 4.02865 12.4051 4.07344 12.5177 4.14135C12.6303 4.20925 12.7283 4.2989 12.8059 4.40507C12.8835 4.51123 12.9392 4.63179 12.9698 4.75971V4.75971C13.0014 4.88706 13.0075 5.01938 12.988 5.14912C12.9684 5.27885 12.9234 5.40346 12.8557 5.51583C12.7879 5.62819 12.6987 5.72611 12.5931 5.80399C12.4875 5.88186 12.3676 5.93818 12.2403 5.96971V5.96971C12.1618 5.98985 12.0811 6.00002 12 5.99998V5.99998C11.7769 5.99925 11.5604 5.92414 11.3848 5.78653C11.2091 5.64892 11.0844 5.45667 11.0303 5.24021ZM15.0303 4.24021C14.9986 4.11286 14.9924 3.98051 15.0119 3.85073C15.0314 3.72096 15.0764 3.59632 15.1441 3.48393C15.2119 3.37154 15.3011 3.27362 15.4068 3.19576C15.5124 3.11791 15.6324 3.06165 15.7598 3.03021V3.03021C16.0169 2.9675 16.2884 3.00899 16.5151 3.14565C16.7418 3.2823 16.9052 3.50303 16.9698 3.75971V3.75971C17.0014 3.88706 17.0075 4.01938 16.988 4.14912C16.9684 4.27885 16.9234 4.40346 16.8557 4.51583C16.7879 4.62819 16.6987 4.72611 16.5931 4.80399C16.4875 4.88186 16.3676 4.93818 16.2403 4.96971C16.1618 4.98985 16.0811 5.00002 16 4.99998V4.99998C15.7764 5.00131 15.5588 4.92697 15.3828 4.78903C15.2067 4.6511 15.0825 4.45768 15.0303 4.24021V4.24021ZM4.00002 7.99998C3.86834 8.00126 3.73773 7.97627 3.61582 7.92647C3.49392 7.87666 3.38317 7.80305 3.29006 7.70994C3.19694 7.61682 3.12333 7.50608 3.07353 7.38417C3.02373 7.26227 2.99874 7.13166 3.00002 6.99998C2.99636 6.86881 3.0238 6.73863 3.0801 6.6201C3.12831 6.49765 3.19957 6.38558 3.29002 6.28998C3.48337 6.11148 3.73687 6.01235 4.00002 6.01235C4.26317 6.01235 4.51666 6.11148 4.71002 6.28998C4.80048 6.38556 4.87177 6.49761 4.92002 6.62006C4.98485 6.77142 5.01091 6.93657 4.99583 7.10054C4.98076 7.26451 4.92503 7.42214 4.83369 7.55914C4.74234 7.69615 4.61827 7.80821 4.47271 7.88519C4.32714 7.96216 4.16467 8.00162 4.00002 7.99998V7.99998ZM4.00002 11C3.86833 11.0013 3.73771 10.9763 3.6158 10.9265C3.49389 10.8767 3.38313 10.8031 3.29002 10.71C3.20184 10.6126 3.13083 10.501 3.08002 10.3799C3.02721 10.2602 2.99994 10.1308 2.99994 10C2.99994 9.8692 3.02721 9.73982 3.08002 9.62014C3.13059 9.49887 3.20163 9.38719 3.29002 9.28998C3.48337 9.11147 3.73686 9.01235 4.00002 9.01235C4.26317 9.01235 4.51667 9.11147 4.71002 9.28998C4.7984 9.38717 4.86943 9.49882 4.92002 9.62006C4.97282 9.73974 5.0001 9.86912 5.0001 9.99994C5.0001 10.1308 4.97282 10.2601 4.92002 10.3798C4.8692 10.5009 4.79819 10.6125 4.71002 10.7099C4.6168 10.8029 4.50603 10.8764 4.38414 10.9262C4.26225 10.976 4.13168 11.0011 4.00002 11ZM15 9.99998C15.0009 9.73502 15.1065 9.48116 15.2938 9.2938C15.4812 9.10645 15.7351 9.00082 16 8.99998V8.99998C16.265 9.00082 16.5188 9.10645 16.7062 9.2938C16.8935 9.48116 16.9992 9.73502 17 9.99998V9.99998C16.9992 10.2649 16.8935 10.5188 16.7062 10.7062C16.5188 10.8935 16.265 10.9991 16 11V11C15.7351 10.9991 15.4812 10.8935 15.2938 10.7062C15.1065 10.5188 15.0009 10.2649 15 9.99998V9.99998ZM11 9.99998C11.0009 9.73502 11.1065 9.48116 11.2938 9.2938C11.4812 9.10645 11.7351 9.00082 12 8.99998V8.99998C12.265 9.00082 12.5188 9.10645 12.7062 9.2938C12.8935 9.48116 12.9992 9.73502 13 9.99998V9.99998C12.9992 10.2649 12.8935 10.5188 12.7062 10.7062C12.5188 10.8935 12.265 10.9991 12 11V11C11.7351 10.9991 11.4812 10.8935 11.2938 10.7062C11.1065 10.5188 11.0009 10.2649 11 9.99998V9.99998ZM7.00002 9.99998C7.00086 9.73502 7.10649 9.48116 7.29384 9.2938C7.4812 9.10645 7.73506 9.00082 8.00002 8.99998V8.99998C8.26497 9.00082 8.51884 9.10645 8.70619 9.2938C8.89355 9.48116 8.99917 9.73502 9.00002 9.99998V9.99998C8.99917 10.2649 8.89355 10.5188 8.70619 10.7062C8.51884 10.8935 8.26497 10.9991 8.00002 11V11C7.73506 10.9991 7.4812 10.8935 7.29384 10.7062C7.10649 10.5188 7.00086 10.2649 7.00002 9.99998V9.99998Z" fill="#979797" fill-opacity="0.4"/>
<g id="primary">
<path d="M20 14V21L4 17V14H20Z" fill="#F9CA24"/>
<path d="M20 22C19.9183 22.0001 19.837 21.9899 19.7578 21.9697L3.75781 17.9697C3.54142 17.9158 3.34929 17.791 3.21198 17.6153C3.07466 17.4396 3.00004 17.223 3 17V14C2.99993 13.8687 3.02574 13.7386 3.07597 13.6172C3.1262 13.4959 3.19985 13.3856 3.29273 13.2927C3.3856 13.1999 3.49587 13.1262 3.61723 13.076C3.73859 13.0257 3.86866 12.9999 4 13H20C20.1313 12.9999 20.2614 13.0257 20.3828 13.076C20.5041 13.1262 20.6144 13.1999 20.7073 13.2927C20.8001 13.3856 20.8738 13.4959 20.924 13.6172C20.9743 13.7386 21.0001 13.8687 21 14V21C20.9999 21.2652 20.8945 21.5195 20.707 21.707C20.5195 21.8945 20.2652 21.9999 20 22ZM5 16.2188L19 19.7188V15H5V16.2188Z" fill="#F9CA24"/>
</g>
</g>
</svg>
