<svg width="24" height="24" viewBox="0 0 24 24" fill="none" xmlns="http://www.w3.org/2000/svg">
<g id="flip_v_alt">
<path id="accent" d="M10 21C9.86832 21.0013 9.7377 20.9763 9.61578 20.9265C9.49387 20.8767 9.38311 20.8031 9.29 20.71C9.20182 20.6126 9.13082 20.501 9.08 20.3799C9.02373 20.2614 8.99631 20.1312 9 20C9 19.7348 9.10536 19.4804 9.29289 19.2929C9.48043 19.1053 9.73478 19 10 19C10.2652 19 10.5196 19.1053 10.7071 19.2929C10.8946 19.4804 11 19.7348 11 20C11.0013 20.1317 10.9763 20.2623 10.9265 20.3842C10.8767 20.5061 10.8031 20.6168 10.71 20.7099C10.6168 20.8031 10.5061 20.8767 10.3842 20.9265C10.2623 20.9763 10.1317 21.0013 10 21V21ZM5.5 20C5.50084 19.735 5.60647 19.4812 5.79383 19.2938C5.98118 19.1065 6.23504 19.0008 6.5 19V19C6.76496 19.0008 7.01882 19.1065 7.20617 19.2938C7.39353 19.4812 7.49916 19.735 7.5 20V20C7.49916 20.2649 7.39353 20.5188 7.20617 20.7062C7.01882 20.8935 6.76496 20.9991 6.5 21V21C6.23504 20.9991 5.98118 20.8935 5.79383 20.7062C5.60647 20.5188 5.50084 20.2649 5.5 20V20ZM3 21C2.86832 21.0013 2.7377 20.9763 2.61578 20.9265C2.49387 20.8767 2.38311 20.8031 2.29 20.71C2.20182 20.6126 2.13082 20.501 2.08 20.3799C2.02875 20.2597 2.00157 20.1306 2 20C2.00346 19.7352 2.10708 19.4815 2.29 19.29C2.48335 19.1115 2.73683 19.0124 2.99996 19.0124C3.26309 19.0124 3.51657 19.1115 3.70992 19.29C3.89249 19.4817 3.99607 19.7353 4 20C3.99839 20.1306 3.97119 20.2597 3.91992 20.3799C3.8691 20.501 3.7981 20.6126 3.70992 20.7099C3.61671 20.8029 3.50595 20.8764 3.38407 20.9262C3.2622 20.976 3.13165 21.0011 3 21V21ZM3.75977 16.9697C3.63236 16.9383 3.5124 16.882 3.40676 16.8042C3.30111 16.7263 3.21186 16.6284 3.1441 16.516C3.07634 16.4036 3.03141 16.279 3.01188 16.1492C2.99235 16.0194 2.9986 15.8871 3.03027 15.7597V15.7597C3.06117 15.632 3.1171 15.5117 3.19481 15.4057C3.27252 15.2998 3.37048 15.2103 3.48301 15.1424C3.59555 15.0746 3.72042 15.0297 3.8504 15.0105C3.98039 14.9912 4.1129 14.9979 4.24027 15.0302V15.0302C4.36763 15.0617 4.48753 15.1181 4.59312 15.1959C4.69872 15.2738 4.78793 15.3717 4.85567 15.4841C4.92342 15.5965 4.96836 15.7211 4.98794 15.8508C5.00752 15.9805 5.00134 16.1129 4.96977 16.2402V16.2402C4.91742 16.4576 4.79315 16.651 4.61712 16.7889C4.44109 16.9268 4.22362 17.0012 4 17V17C3.91897 17 3.83826 16.9899 3.75977 16.9697V16.9697ZM4.75 12.9697C4.62306 12.9379 4.50366 12.8813 4.39868 12.8032C4.2937 12.7251 4.20522 12.627 4.13832 12.5145C4.07142 12.402 4.02743 12.2774 4.00889 12.1479C3.99035 12.0184 3.99761 11.8864 4.03027 11.7597V11.7597C4.06171 11.6323 4.11797 11.5123 4.19583 11.4067C4.27368 11.3011 4.3716 11.2118 4.48399 11.144C4.59638 11.0763 4.72102 11.0314 4.8508 11.0118C4.98057 10.9923 5.11292 10.9985 5.24027 11.0302V11.0302C5.36763 11.0617 5.48753 11.1181 5.59312 11.1959C5.69872 11.2738 5.78793 11.3717 5.85567 11.4841C5.92342 11.5965 5.96836 11.7211 5.98794 11.8508C6.00752 11.9805 6.00134 12.1129 5.96977 12.2402V12.2402C5.9161 12.4569 5.79147 12.6494 5.61573 12.7871C5.44 12.9248 5.22325 12.9997 5 13V13C4.91579 12.9995 4.83191 12.9893 4.75 12.9697V12.9697ZM5.75977 8.96972C5.63236 8.93827 5.5124 8.88202 5.40676 8.80416C5.30111 8.72631 5.21186 8.62838 5.1441 8.516C5.07634 8.40361 5.03141 8.27896 5.01188 8.14919C4.99235 8.01942 4.9986 7.88707 5.03027 7.75972V7.75972C5.06117 7.632 5.1171 7.51168 5.19481 7.40572C5.27252 7.29976 5.37048 7.21027 5.48301 7.14242C5.59555 7.07458 5.72042 7.02973 5.8504 7.01047C5.98039 6.99121 6.1129 6.99792 6.24027 7.03022V7.03022C6.36763 7.06175 6.48753 7.11806 6.59312 7.19594C6.69872 7.27382 6.78793 7.37173 6.85567 7.4841C6.92342 7.59646 6.96836 7.72107 6.98794 7.85081C7.00752 7.98054 7.00134 8.11287 6.96977 8.24022V8.24022C6.91742 8.45763 6.79315 8.65097 6.61712 8.78889C6.44109 8.9268 6.22362 9.00119 6 8.99999C5.91897 9.00003 5.83826 8.98986 5.75977 8.96972V8.96972ZM7 4.99999C6.86832 5.00127 6.73771 4.97628 6.61581 4.92647C6.4939 4.87667 6.38316 4.80306 6.29004 4.70995C6.19693 4.61683 6.12331 4.50608 6.07351 4.38418C6.02371 4.26228 5.99872 4.13166 6 3.99999C6.00346 3.73518 6.10708 3.4815 6.29 3.28999C6.48144 3.11159 6.7334 3.01239 6.99508 3.01239C7.25676 3.01239 7.50872 3.11159 7.70016 3.28999C7.88926 3.47824 7.99692 3.73318 8 3.99999C7.99818 4.26464 7.89224 4.51794 7.7051 4.70508C7.51795 4.89223 7.26466 4.99817 7 4.99999V4.99999ZM10 4.99999C9.86832 5.00127 9.73771 4.97628 9.61581 4.92647C9.4939 4.87667 9.38316 4.80306 9.29004 4.70995C9.19693 4.61683 9.12331 4.50608 9.07351 4.38418C9.02371 4.26228 8.99872 4.13166 9 3.99999C9.00346 3.73518 9.10708 3.4815 9.29 3.28999C9.48335 3.11151 9.73683 3.0124 9.99996 3.0124C10.2631 3.0124 10.5166 3.11151 10.7099 3.28999C10.8925 3.48173 10.9961 3.73526 11 3.99999C11.0013 4.13166 10.9763 4.26228 10.9265 4.38418C10.8767 4.50608 10.8031 4.61683 10.71 4.70995C10.6168 4.80306 10.5061 4.87667 10.3842 4.92647C10.2623 4.97628 10.1317 5.00127 10 4.99999ZM9 16C9.00084 15.735 9.10647 15.4812 9.29383 15.2938C9.48118 15.1065 9.73504 15.0008 10 15V15C10.265 15.0008 10.5188 15.1065 10.7062 15.2938C10.8935 15.4812 10.9992 15.735 11 16V16C10.9992 16.2649 10.8935 16.5188 10.7062 16.7062C10.5188 16.8935 10.265 16.9991 10 17V17C9.73504 16.9991 9.48118 16.8935 9.29383 16.7062C9.10647 16.5188 9.00084 16.2649 9 16V16ZM9 12C9.00084 11.735 9.10647 11.4812 9.29383 11.2938C9.48118 11.1065 9.73504 11.0008 10 11V11C10.265 11.0008 10.5188 11.1065 10.7062 11.2938C10.8935 11.4812 10.9992 11.735 11 12V12C10.9992 12.2649 10.8935 12.5188 10.7062 12.7062C10.5188 12.8935 10.265 12.9991 10 13V13C9.73504 12.9991 9.48118 12.8935 9.29383 12.7062C9.10647 12.5188 9.00084 12.2649 9 12V12ZM9 7.99999C9.00084 7.73503 9.10647 7.48117 9.29383 7.29381C9.48118 7.10646 9.73504 7.00083 10 6.99999V6.99999C10.265 7.00083 10.5188 7.10646 10.7062 7.29381C10.8935 7.48117 10.9992 7.73503 11 7.99999V7.99999C10.9992 8.26494 10.8935 8.51881 10.7062 8.70616C10.5188 8.89352 10.265 8.99914 10 8.99999V8.99999C9.73504 8.99914 9.48118 8.89352 9.29383 8.70616C9.10647 8.51881 9.00084 8.26494 9 7.99999V7.99999Z" fill="#979797" fill-opacity="0.4"/>
<g id="primary">
<path d="M14 20H21L17 4H14V20Z" fill="#F9CA24"/>
<path d="M21 21H14C13.8687 21.0001 13.7386 20.9743 13.6172 20.924C13.4959 20.8738 13.3856 20.8001 13.2927 20.7073C13.1999 20.6144 13.1262 20.5041 13.076 20.3828C13.0257 20.2614 12.9999 20.1313 13 20V4C12.9999 3.86866 13.0257 3.73859 13.076 3.61723C13.1262 3.49587 13.1999 3.3856 13.2927 3.29273C13.3856 3.19985 13.4959 3.1262 13.6172 3.07597C13.7386 3.02574 13.8687 2.99993 14 3H17C17.223 3.00005 17.4396 3.07466 17.6153 3.21198C17.791 3.34929 17.9158 3.54143 17.9697 3.75781L21.9697 19.7578C22.0066 19.9052 22.0094 20.059 21.9778 20.2076C21.9463 20.3562 21.8814 20.4957 21.7879 20.6155C21.6944 20.7352 21.5749 20.8321 21.4384 20.8987C21.3018 20.9653 21.1519 21 21 21ZM15 19H19.7188L16.2188 5H15V19Z" fill="#F9CA24"/>
</g>
</g>
</svg>
