<svg width="25" height="24" viewBox="0 0 25 24" fill="none" xmlns="http://www.w3.org/2000/svg">
<g id="flower">
<g id="Group 11">
<path id="primary" d="M18.1109 13.5139C18.3368 12.0568 17.8668 10.7016 17.8814 9.29175C16.9124 6.96026 15.7612 4.77451 13.6665 3.2044C12.8141 2.56324 12.1328 2.56689 11.2731 3.2044C9.17111 4.76723 8.02359 6.96026 7.05821 9.29175C6.41705 12.6214 6.81777 15.7762 8.83597 18.5776C9.59006 19.6268 10.5481 20.5266 11.4115 21.492C12.1183 22.2424 12.8213 21.6705 13.5244 21.4883C15.8523 19.288 17.6045 16.7889 18.1109 13.5139Z" fill="#FFD740"/>
<path id="accent" d="M19.2475 8.89103C18.7885 9.00032 18.3368 9.15698 17.8814 9.28812C17.8668 10.6979 18.3368 12.0531 18.1109 13.5103C17.6045 16.7853 15.8523 19.2844 13.5281 21.481C13.6884 21.5612 13.845 21.7033 14.0089 21.7106C18.8941 21.9328 23.4551 18.308 24.3112 13.5394C25.109 9.0914 23.7283 7.82001 19.2475 8.89103Z" fill="#979797" fill-opacity="0.4"/>
<path id="accent_2" d="M7.06184 9.28811C5.65931 8.70524 4.20213 8.50488 2.68666 8.58138C1.33149 8.64695 0.672115 9.26259 0.562827 10.6797C0.336965 13.6414 1.11291 16.2643 3.12382 18.4137C5.34237 20.7852 8.05636 22.0639 11.4115 21.492C10.5481 20.523 9.5864 19.6231 8.83596 18.5776C6.82141 15.7726 6.42068 12.6178 7.06184 9.28811Z" fill="#979797" fill-opacity="0.7"/>
</g>
</g>
</svg>
