<svg width="24" height="24" viewBox="0 0 24 24" fill="none" xmlns="http://www.w3.org/2000/svg">
<g id="github_alt">
<path id="primary" d="M20.1155 5.90134C20.0343 5.79355 19.9475 5.69008 19.8555 5.59134C19.9481 5.34478 20.0183 5.09043 20.0655 4.83134C20.2049 3.88353 20.0839 2.91568 19.7155 2.03134C19.7155 2.03134 18.5955 1.68134 16.0255 3.41134C14.9344 3.11007 13.8074 2.95868 12.6755 2.96134C11.5404 2.95935 10.4102 3.11072 9.31553 3.41134C6.74553 1.66134 5.62553 2.03134 5.62553 2.03134C5.26163 2.90633 5.14071 3.86333 5.27553 4.80134C5.32298 5.0712 5.39666 5.33579 5.49553 5.59134C5.40553 5.69134 5.31553 5.80134 5.23553 5.90134C4.48929 6.83734 4.09318 8.00447 4.11553 9.20134C4.11315 9.48519 4.12651 9.76896 4.15553 10.0513C4.47547 14.4813 7.42553 15.5113 10.2355 15.8313C9.83779 16.2012 9.5681 16.688 9.46553 17.2213C9.37258 17.577 9.32884 17.9438 9.33553 18.3113V19.6209C8.21731 19.7203 7.06905 19.5576 6.71334 18.5596C6.33094 17.6046 5.697 16.771 4.87887 16.1475C4.81941 16.1149 4.76287 16.0774 4.70987 16.0352C4.63802 15.8462 4.51067 15.6834 4.34456 15.5682C4.17845 15.453 3.98136 15.3907 3.77921 15.3896H3.7744C3.51 15.3896 3.25633 15.4942 3.06891 15.6807C2.88149 15.8672 2.7756 16.1204 2.7744 16.3848C2.7705 17.1973 3.58349 17.7217 3.91698 17.9004C4.30591 18.2923 4.61881 18.7528 4.83983 19.2588C5.20409 20.2822 6.26903 21.8369 9.30565 21.6348C9.30665 21.6699 9.30765 21.7031 9.3081 21.7334L9.31249 22.001C9.31245 22.1323 9.3383 22.2624 9.38854 22.3837C9.43878 22.5051 9.51244 22.6153 9.6053 22.7082C9.69817 22.801 9.80842 22.8747 9.92976 22.9249C10.0511 22.9752 10.1812 23.001 10.3125 23.001L10.3156 23.0004V23.001H15.0267C15.158 23.0011 15.2881 22.9752 15.4094 22.925C15.5308 22.8747 15.641 22.8011 15.7339 22.7082C15.8268 22.6153 15.9004 22.5051 15.9507 22.3838C16.0009 22.2624 16.0268 22.1324 16.0267 22.001C16.0267 22.001 16.034 18.8414 16.034 18.3114C16.0407 17.9438 15.997 17.5771 15.904 17.2214L15.9022 17.2153L15.9056 17.2214C15.897 17.1864 15.8838 17.1579 15.8744 17.1239C15.7628 16.6286 15.5048 16.1782 15.134 15.8313L15.1456 15.8522C15.1387 15.846 15.1323 15.8373 15.1255 15.8313C17.9355 15.5113 20.8655 14.4613 21.1855 10.0513C21.2145 9.76895 21.2279 9.48518 21.2255 9.20133C21.2432 8.00685 20.8515 6.84231 20.1155 5.90134Z" fill="#F9CA24"/>
</g>
</svg>
