<svg width="24" height="24" viewBox="0 0 24 24" fill="none" xmlns="http://www.w3.org/2000/svg">
<g id="google">
<path id="primary" d="M3.28547 7.50909C1.86728 10.3351 1.86728 13.6649 3.28547 16.4909L6.62634 13.9C6.20822 12.6679 6.20822 11.3322 6.62634 10.1L3.28547 7.50909Z" fill="#F9CA24"/>
<path id="accent" d="M15.6082 17.0682C12.8042 18.8681 9.07207 18.054 7.27226 15.25C7.00176 14.8285 6.78478 14.3751 6.62633 13.9L3.28546 16.4909C4.98264 19.8696 8.44088 22.0015 12.2218 22C14.6561 22.066 17.0236 21.1994 18.84 19.5773L15.6082 17.0682Z" fill="#979797" fill-opacity="0.4"/>
<g id="primary_2">
<path d="M12.2218 5.97726C13.6432 5.95335 15.0167 6.49067 16.0445 7.47271L18.9127 4.60453C17.1027 2.90453 14.7049 1.97114 12.2218 1.99998C8.44086 1.99853 4.98264 4.13045 3.28543 7.50908L6.62635 10.1C7.41415 7.66782 9.66544 6.00907 12.2218 5.97726Z" fill="#F9CA24" fill-opacity="0.4"/>
<path d="M21.64 10.1818H12.2219V14.05H17.6036C17.3786 15.2863 16.6577 16.3769 15.6082 17.0681L18.84 19.5773C20.8303 17.6604 21.914 14.989 21.8218 12.2273C21.8224 11.5414 21.7615 10.8568 21.64 10.1818Z" fill="#F9CA24" fill-opacity="0.4"/>
</g>
</g>
</svg>
