<svg width="24" height="24" viewBox="0 0 24 24" fill="none" xmlns="http://www.w3.org/2000/svg">
<g id="google_hangouts">
<path id="accent" d="M9.81815 14.3132C9.6708 14.3504 9.52136 14.3788 9.37061 14.3981C9.26506 14.4142 9.16414 14.3488 9.13561 14.2459L9.1368 13.2778C9.14246 13.1828 9.1042 13.081 9.18028 12.9972C9.21645 12.9554 9.26472 12.926 9.31841 12.9129C9.49053 12.8814 9.65705 12.8246 9.81256 12.7444C10.0862 12.5864 10.2813 12.321 10.3506 12.0127C10.3628 11.9626 10.3744 11.9122 10.3861 11.8619C9.70552 11.8605 9.02505 11.8594 8.34465 11.8585C8.286 11.8604 8.22736 11.8543 8.17033 11.8405C7.9944 11.7937 7.86989 11.6372 7.86386 11.4552C7.86256 10.4263 7.86307 9.39726 7.86538 8.36823C7.83232 8.20872 7.88474 8.0435 8.00373 7.93223C8.07371 7.8679 8.16494 7.83159 8.25999 7.83023C9.26059 7.83001 10.2612 7.82983 11.2618 7.82968C11.4916 7.83059 11.6772 8.01764 11.6763 8.24748C11.6761 8.28461 11.671 8.32155 11.6611 8.35731C11.6768 8.40669 11.6824 8.45871 11.6777 8.51031C11.6779 9.63154 11.6842 10.7532 11.6756 11.8744C11.6773 12.5916 11.3715 13.2751 10.8356 13.7517C10.8072 13.7782 10.7796 13.8057 10.7518 13.8326C10.4753 14.0528 10.158 14.2161 9.81808 14.3133L9.81815 14.3132ZM15.3538 14.2417L15.3156 14.2523L15.294 14.2646C15.1008 14.3206 14.9041 14.3638 14.7052 14.394C14.5897 14.4236 14.4721 14.3541 14.4424 14.2387C14.4372 14.2185 14.435 14.1978 14.4358 14.177C14.4342 14.0697 14.4335 13.962 14.4326 13.8546L14.4382 13.2773C14.4373 13.2348 14.4358 13.1926 14.4359 13.1504C14.4361 13.0025 14.4929 12.9402 14.6767 12.8982C14.9108 12.8581 15.1297 12.7555 15.3103 12.6013C15.5159 12.4043 15.6489 12.1437 15.6878 11.8616L13.8021 11.8581C13.7337 11.858 13.6652 11.8589 13.5968 11.8577C13.3655 11.8655 13.1718 11.6843 13.164 11.4531C13.1637 11.4413 13.1638 11.4296 13.1643 11.4179C13.1647 10.4017 13.1655 9.38542 13.1667 8.36917L13.165 8.33983C13.132 8.16148 13.2133 7.98141 13.3689 7.88816C13.4326 7.84868 13.5065 7.82845 13.5815 7.82991C14.5755 7.82937 15.5694 7.82908 16.5634 7.82904C16.7933 7.8301 16.9788 8.01735 16.9777 8.24726C16.9776 8.28428 16.9724 8.32111 16.9625 8.35678C16.9781 8.40616 16.9837 8.45813 16.9791 8.50969C16.9791 9.63288 16.9789 10.7561 16.9787 11.8794C16.9687 12.8957 16.3576 13.8096 15.4222 14.2072C15.3989 14.2172 15.3766 14.2302 15.3538 14.2417Z" fill="#979797" fill-opacity="0.4"/>
<path id="primary" d="M20.8656 9.05499V9.05505C20.5771 7.43011 19.8221 5.92425 18.6927 4.721C17.3096 3.23693 15.4447 2.29192 13.43 2.05425C13.2688 2.04553 13.1083 2.0274 12.9491 2H11.8147C11.8024 2.02856 11.7761 2.01813 11.7552 2.02008C11.463 2.04584 11.1723 2.0791 10.8841 2.13379C8.83531 2.49634 6.99223 3.60175 5.70762 5.2384C4.62321 6.58038 3.98075 8.22516 3.86833 9.94684C3.80449 10.7943 3.86674 11.6464 4.05308 12.4756C4.19078 13.0945 4.40031 13.6953 4.67735 14.2656C4.70183 14.3143 4.72593 14.3629 4.75084 14.4116C5.20085 15.3084 5.80437 16.1196 6.53398 16.8084C8.09318 18.2831 10.1511 19.116 12.297 19.1408C12.3973 19.1422 12.4245 19.1669 12.4239 19.2692C12.4193 20.1428 12.4213 21.0165 12.4215 21.8902C12.4216 21.924 12.4242 21.9578 12.4262 22C12.4545 21.9885 12.4721 21.982 12.4892 21.9739C14.1262 21.216 15.6399 20.2162 16.9795 19.008C17.2465 18.7649 17.5028 18.5107 17.7483 18.2455C17.8537 18.1322 17.9581 18.0169 18.0636 17.9036C18.2267 17.7293 18.3677 17.5346 18.5214 17.351C18.6988 17.1393 18.8582 16.9142 19.0154 16.6878C19.3644 16.1892 19.6717 15.6625 19.9339 15.1133C20.0658 14.8344 20.1915 14.5534 20.3027 14.2658C20.3069 14.2608 20.3106 14.2554 20.3137 14.2497C20.6129 13.4643 20.8146 12.6451 20.9143 11.8106C20.9504 11.5194 20.9737 11.2262 20.9885 10.9334C21.0203 10.3046 20.979 9.67426 20.8656 9.05499ZM11.6756 11.8744C11.6772 12.5916 11.3714 13.2751 10.8356 13.7518C10.8072 13.7781 10.7796 13.8057 10.7518 13.8326C10.4753 14.0528 10.1579 14.2161 9.81809 14.3133L9.81815 14.3132C9.67081 14.3505 9.52134 14.3788 9.37058 14.3981C9.26505 14.4142 9.1641 14.3488 9.13559 14.2459L9.13681 13.2778C9.14243 13.1829 9.10416 13.081 9.18027 12.9972C9.2164 12.9554 9.26468 12.926 9.31839 12.9129C9.49051 12.8814 9.65701 12.8246 9.81253 12.7444C10.0862 12.5864 10.2813 12.321 10.3506 12.0127C10.3628 11.9626 10.3744 11.9122 10.386 11.8619C9.70548 11.8605 9.02506 11.8594 8.34464 11.8585C8.28599 11.8604 8.22733 11.8544 8.17032 11.8405C7.99436 11.7937 7.86984 11.6372 7.86386 11.4552C7.86253 10.4263 7.86308 9.39728 7.8654 8.36823C7.83232 8.20874 7.88475 8.04352 8.0037 7.93225C8.07371 7.86792 8.16496 7.8316 8.25999 7.83026C9.2606 7.83002 10.2611 7.82983 11.2618 7.82971C11.4916 7.83063 11.6772 8.01764 11.6762 8.2475C11.6761 8.28461 11.671 8.32154 11.661 8.3573C11.6767 8.40668 11.6824 8.45874 11.6777 8.51032C11.6779 9.63153 11.6842 10.7532 11.6756 11.8744ZM16.9787 11.8794C16.9687 12.8958 16.3576 13.8096 15.4222 14.2073C15.3988 14.2172 15.3766 14.2302 15.3537 14.2417L15.3156 14.2523L15.294 14.2646C15.1007 14.3205 14.904 14.3638 14.7052 14.394C14.5897 14.4236 14.4721 14.3541 14.4424 14.2386C14.4372 14.2186 14.435 14.1978 14.4358 14.1771C14.4342 14.0696 14.4334 13.962 14.4326 13.8546L14.4381 13.2773C14.4373 13.2348 14.4358 13.1926 14.4358 13.1503C14.4361 13.0026 14.4929 12.9402 14.6767 12.8982C14.9107 12.8581 15.1297 12.7555 15.3103 12.6013C15.5158 12.4043 15.6489 12.1437 15.6878 11.8616L13.802 11.8581C13.7337 11.858 13.6652 11.8589 13.5968 11.8577C13.3655 11.8655 13.1718 11.6843 13.164 11.453C13.1636 11.4413 13.1637 11.4296 13.1643 11.4179C13.1646 10.4016 13.1654 9.38542 13.1667 8.36918L13.165 8.33982C13.132 8.16148 13.2133 7.98142 13.3689 7.88816C13.4326 7.84867 13.5064 7.82847 13.5815 7.82987C14.5754 7.82938 15.5694 7.82908 16.5633 7.82902C16.7933 7.83012 16.9788 8.01731 16.9777 8.24723C16.9775 8.28428 16.9725 8.32108 16.9625 8.35679C16.9781 8.40617 16.9837 8.45811 16.979 8.50968C16.979 9.63287 16.9789 10.7561 16.9787 11.8794Z" fill="#F9CA24"/>
</g>
</svg>
