<svg width="24" height="24" viewBox="0 0 24 24" fill="none" xmlns="http://www.w3.org/2000/svg">
<g id="google_hangouts_alt">
<path id="accent" d="M12 23C11.7349 22.9998 11.4807 22.8943 11.2932 22.7069C11.1057 22.5194 11.0002 22.2652 11 22V20.5235C9.04853 20.3352 7.19773 19.5685 5.68487 18.3215C4.17201 17.0745 3.06603 15.4041 2.50871 13.5245C1.95139 11.6448 1.96813 9.64154 2.55678 7.77146C3.14543 5.90138 4.27916 4.24971 5.81264 3.02818C7.34613 1.80665 9.20948 1.07093 11.1638 0.915331C13.1182 0.759731 15.0745 1.19134 16.7819 2.15484C18.4894 3.11833 19.8702 4.5698 20.7473 6.32318C21.6245 8.07656 21.958 10.0519 21.7051 11.9961C21.4585 14.5806 20.4153 17.0247 18.7196 18.9906C17.024 20.9566 14.7595 22.3473 12.2393 22.9707C12.161 22.9901 12.0807 23 12 23V23Z" fill="#979797" fill-opacity="0.4"/>
<g id="primary">
<path d="M9 11.6888C8.46957 11.6888 7.96086 11.4781 7.58579 11.103C7.21071 10.7279 7 10.2192 7 9.68878C7 9.15835 7.21071 8.64964 7.58579 8.27457C7.96086 7.8995 8.46957 7.68878 9 7.68878C9.53043 7.68878 10.0391 7.8995 10.4142 8.27457C10.7893 8.64964 11 9.15835 11 9.68878C11 10.2192 10.7893 10.7279 10.4142 11.103C10.0391 11.4781 9.53043 11.6888 9 11.6888Z" fill="#F9CA24"/>
<path d="M8.51465 14.6885C8.24943 14.6885 7.99508 14.5831 7.80754 14.3956C7.62001 14.2081 7.51465 13.9537 7.51465 13.6885C7.51465 13.4233 7.62001 13.1689 7.80754 12.9814C7.99508 12.7938 8.24943 12.6885 8.51465 12.6885C8.64718 12.6882 8.7742 12.6355 8.86791 12.5417C8.96162 12.448 9.01439 12.321 9.01465 12.1885V9.68848C9.01465 9.42327 9.12001 9.16891 9.30754 8.98137C9.49508 8.79384 9.74943 8.68848 10.0147 8.68848C10.2799 8.68848 10.5342 8.79384 10.7218 8.98137C10.9093 9.16891 11.0147 9.42327 11.0147 9.68848V12.1885C11.014 12.8513 10.7504 13.4869 10.2817 13.9556C9.81303 14.4243 9.1775 14.6879 8.51465 14.6885ZM15 11.6888C14.4696 11.6888 13.9609 11.4781 13.5858 11.103C13.2107 10.7279 13 10.2192 13 9.68878C13 9.15835 13.2107 8.64964 13.5858 8.27457C13.9609 7.8995 14.4696 7.68878 15 7.68878C15.5304 7.68878 16.0391 7.8995 16.4142 8.27457C16.7893 8.64964 17 9.15835 17 9.68878C17 10.2192 16.7893 10.7279 16.4142 11.103C16.0391 11.4781 15.5304 11.6888 15 11.6888Z" fill="#F9CA24"/>
<path d="M14.5147 14.6885C14.2494 14.6885 13.9951 14.5831 13.8075 14.3956C13.62 14.2081 13.5147 13.9537 13.5147 13.6885C13.5147 13.4233 13.62 13.1689 13.8075 12.9814C13.9951 12.7938 14.2494 12.6885 14.5147 12.6885C14.6472 12.6882 14.7742 12.6355 14.8679 12.5417C14.9616 12.448 15.0144 12.321 15.0147 12.1885V9.68848C15.0147 9.42327 15.12 9.16891 15.3075 8.98137C15.4951 8.79384 15.7494 8.68848 16.0147 8.68848C16.2799 8.68848 16.5342 8.79384 16.7218 8.98137C16.9093 9.16891 17.0147 9.42327 17.0147 9.68848V12.1885C17.014 12.8513 16.7504 13.4869 16.2817 13.9556C15.813 14.4243 15.1775 14.6879 14.5147 14.6885Z" fill="#F9CA24"/>
</g>
</g>
</svg>
