<svg width="24" height="24" viewBox="0 0 24 24" fill="none" xmlns="http://www.w3.org/2000/svg">
<g id="google_play">
<path id="accent" d="M14.556 12.8953L17.1285 15.4493L20.914 13.2628C21.4203 13.0096 21.7445 12.4967 21.7558 11.9308C21.7354 11.3834 21.413 10.8926 20.9189 10.6563C20.6045 10.4864 17.9082 8.92198 16.8965 8.33311L16.8935 8.33111L4.63867 1.25588C4.13772 0.938817 3.50485 0.916057 2.98242 1.19631C2.93255 1.2302 2.88489 1.26722 2.83972 1.30715L14.556 12.8953Z" fill="#979797" fill-opacity="0.4"/>
<g id="primary">
<path d="M20.919 10.6562C20.6248 10.4973 18.2616 9.12671 17.128 8.46753L2.78535 22.6985C2.83334 22.7422 2.88453 22.7823 2.93849 22.8184C3.14741 22.938 3.38425 23.0003 3.62501 22.999C3.91725 22.9953 4.20344 22.9152 4.45509 22.7666C4.84376 22.541 16.8936 15.585 16.8936 15.585L20.9141 13.2627C21.4203 13.0096 21.7445 12.4966 21.7559 11.9307C21.7354 11.3834 21.4131 10.8926 20.919 10.6562Z" fill="#F9CA24" fill-opacity="0.4"/>
<path d="M13.6099 11.9595L2.84144 1.30884C2.456 1.60718 2.22438 2.06616 2.24415 2.56055V21.5459C2.23121 21.9983 2.44068 22.4171 2.78706 22.6968L13.6099 11.9595Z" fill="#F9CA24" fill-opacity="0.4"/>
</g>
<path id="primary_2" d="M20.919 10.6562C20.1747 10.2555 17.5489 8.7124 17.128 8.46753L14.5314 11.0454L13.61 11.9595L14.5561 12.8953L17.1286 15.4493L20.9141 13.2627C21.4204 13.0096 21.7445 12.4966 21.7559 11.9307C21.7355 11.3834 21.4131 10.8925 20.919 10.6562Z" fill="#F9CA24"/>
</g>
</svg>
