<svg width="24" height="24" viewBox="0 0 24 24" fill="none" xmlns="http://www.w3.org/2000/svg">
<g id="graph_bar">
<path id="primary" d="M6 23H2C1.86867 23 1.73862 22.9742 1.61728 22.9239C1.49594 22.8737 1.38568 22.8 1.29282 22.7072C1.19995 22.6143 1.12629 22.5041 1.07605 22.3827C1.02581 22.2614 0.999966 22.1313 1 22V14C0.999966 13.8687 1.02581 13.7386 1.07605 13.6173C1.12629 13.4959 1.19995 13.3857 1.29282 13.2928C1.38568 13.2 1.49594 13.1263 1.61728 13.0761C1.73862 13.0258 1.86867 13 2 13H6C6.13133 13 6.26138 13.0258 6.38272 13.0761C6.50407 13.1263 6.61432 13.2 6.70718 13.2928C6.80005 13.3857 6.87371 13.4959 6.92395 13.6173C6.97419 13.7386 7.00003 13.8687 7 14V22C7.00003 22.1313 6.97419 22.2614 6.92395 22.3827C6.87371 22.5041 6.80005 22.6143 6.70718 22.7072C6.61432 22.8 6.50407 22.8737 6.38272 22.9239C6.26138 22.9742 6.13133 23 6 23Z" fill="#F9CA24" fill-opacity="0.4"/>
<path id="primary_2" d="M14 23H10C9.86867 23 9.73862 22.9742 9.61728 22.9239C9.49594 22.8737 9.38568 22.8 9.29282 22.7072C9.19995 22.6143 9.12629 22.5041 9.07605 22.3827C9.02581 22.2614 8.99997 22.1313 9 22V2C8.99997 1.86867 9.02581 1.73862 9.07605 1.61728C9.12629 1.49594 9.19995 1.38568 9.29282 1.29282C9.38568 1.19995 9.49594 1.12629 9.61728 1.07605C9.73862 1.02581 9.86867 0.999966 10 1H14C14.1313 0.999966 14.2614 1.02581 14.3827 1.07605C14.5041 1.12629 14.6143 1.19995 14.7072 1.29282C14.8 1.38568 14.8737 1.49594 14.9239 1.61728C14.9742 1.73862 15 1.86867 15 2V22C15 22.1313 14.9742 22.2614 14.9239 22.3827C14.8737 22.5041 14.8 22.6143 14.7072 22.7072C14.6143 22.8 14.5041 22.8737 14.3827 22.9239C14.2614 22.9742 14.1313 23 14 23Z" fill="#F9CA24"/>
<path id="accent" d="M22 23H18C17.8687 23 17.7386 22.9742 17.6173 22.9239C17.4959 22.8737 17.3857 22.8 17.2928 22.7072C17.2 22.6143 17.1263 22.5041 17.0761 22.3827C17.0258 22.2614 17 22.1313 17 22V10C17 9.86867 17.0258 9.73862 17.0761 9.61728C17.1263 9.49594 17.2 9.38568 17.2928 9.29282C17.3857 9.19995 17.4959 9.12629 17.6173 9.07605C17.7386 9.02581 17.8687 8.99997 18 9H22C22.1313 8.99997 22.2614 9.02581 22.3827 9.07605C22.5041 9.12629 22.6143 9.19995 22.7072 9.29282C22.8 9.38568 22.8737 9.49594 22.9239 9.61728C22.9742 9.73862 23 9.86867 23 10V22C23 22.1313 22.9742 22.2614 22.9239 22.3827C22.8737 22.5041 22.8 22.6143 22.7072 22.7072C22.6143 22.8 22.5041 22.8737 22.3827 22.9239C22.2614 22.9742 22.1313 23 22 23Z" fill="#979797" fill-opacity="0.4"/>
</g>
</svg>
