<svg width="24" height="24" viewBox="0 0 24 24" fill="none" xmlns="http://www.w3.org/2000/svg">
<g id="grids">
<path id="primary" d="M1 3V21C0.999966 21.1313 1.02581 21.2614 1.07605 21.3827C1.12629 21.5041 1.19995 21.6143 1.29282 21.7072C1.38568 21.8 1.49594 21.8737 1.61728 21.9239C1.73862 21.9742 1.86867 22 2 22H7V2H2C1.86867 1.99997 1.73862 2.02581 1.61728 2.07605C1.49594 2.12629 1.38568 2.19995 1.29282 2.29282C1.19995 2.38568 1.12629 2.49594 1.07605 2.61728C1.02581 2.73862 0.999966 2.86867 1 3Z" fill="#F9CA24"/>
<g id="accent">
<path d="M23 21V3C23 2.86867 22.9742 2.73862 22.9239 2.61728C22.8737 2.49594 22.8 2.38568 22.7072 2.29282C22.6143 2.19995 22.5041 2.12629 22.3827 2.07605C22.2614 2.02581 22.1313 1.99997 22 2H17V22H22C22.1313 22 22.2614 21.9742 22.3827 21.9239C22.5041 21.8737 22.6143 21.8 22.7072 21.7072C22.8 21.6143 22.8737 21.5041 22.9239 21.3827C22.9742 21.2614 23 21.1313 23 21Z" fill="#979797" fill-opacity="0.4"/>
<path d="M15 2H9V22H15V2Z" fill="#979797" fill-opacity="0.4"/>
</g>
<g id="primary_2">
<path d="M9 2H7V22H9V2Z" fill="#F9CA24" fill-opacity="0.4"/>
<path d="M17 2H15V22H17V2Z" fill="#F9CA24" fill-opacity="0.4"/>
</g>
</g>
</svg>
