<svg width="24" height="24" viewBox="0 0 24 24" fill="none" xmlns="http://www.w3.org/2000/svg">
<g id="grip_horizontal_line">
<path id="primary" d="M21 11H3C2.73478 11 2.48043 10.8946 2.29289 10.7071C2.10536 10.5196 2 10.2652 2 10C2 9.73478 2.10536 9.48043 2.29289 9.29289C2.48043 9.10536 2.73478 9 3 9H21C21.2652 9 21.5196 9.10536 21.7071 9.29289C21.8946 9.48043 22 9.73478 22 10C22 10.2652 21.8946 10.5196 21.7071 10.7071C21.5196 10.8946 21.2652 11 21 11ZM21 15H3C2.73478 15 2.48043 14.8946 2.29289 14.7071C2.10536 14.5196 2 14.2652 2 14C2 13.7348 2.10536 13.4804 2.29289 13.2929C2.48043 13.1054 2.73478 13 3 13H21C21.2652 13 21.5196 13.1054 21.7071 13.2929C21.8946 13.4804 22 13.7348 22 14C22 14.2652 21.8946 14.5196 21.7071 14.7071C21.5196 14.8946 21.2652 15 21 15Z" fill="#F9CA24"/>
</g>
</svg>
