<svg width="24" height="24" viewBox="0 0 24 24" fill="none" xmlns="http://www.w3.org/2000/svg">
<g id="head_side_cough">
<g id="primary">
<path d="M6 17.999C6.55228 17.999 7 17.5513 7 16.999C7 16.4467 6.55228 15.999 6 15.999C5.44772 15.999 5 16.4467 5 16.999C5 17.5513 5.44772 17.999 6 17.999Z" fill="#F9CA24"/>
<path d="M2 19C2.55228 19 3 18.5523 3 18C3 17.4477 2.55228 17 2 17C1.44772 17 1 17.4477 1 18C1 18.5523 1.44772 19 2 19Z" fill="#F9CA24"/>
<path d="M5 22C5.55228 22 6 21.5523 6 21C6 20.4477 5.55228 20 5 20C4.44772 20 4 20.4477 4 21C4 21.5523 4.44772 22 5 22Z" fill="#F9CA24"/>
</g>
<path id="accent" d="M21.1299 21H12.667C12.5356 21 12.4056 20.9742 12.2842 20.9239C12.1629 20.8737 12.0527 20.8 11.9598 20.7072C11.8669 20.6143 11.7933 20.504 11.743 20.3827C11.6928 20.2614 11.6669 20.1313 11.667 20V18H10.7998C10.2871 17.9995 9.79558 17.7956 9.43308 17.4331C9.07057 17.0706 8.86669 16.5791 8.86618 16.0664V14.2666H7.99997C7.83146 14.2667 7.66565 14.2242 7.51797 14.143C7.37029 14.0618 7.24553 13.9446 7.1553 13.8023C7.06506 13.66 7.01228 13.4972 7.00185 13.329C6.99143 13.1608 7.0237 12.9927 7.09567 12.8403L8.86618 9.08198V9.06639C8.86631 8.12013 9.05646 7.18352 9.42537 6.31213C9.79427 5.44073 10.3344 4.65229 11.0138 3.99358C11.6931 3.33486 12.4978 2.81928 13.3802 2.47741C14.2625 2.13554 15.2045 1.97435 16.1504 2.00339C18.0145 2.10696 19.767 2.92548 21.0428 4.28858C22.3187 5.65168 23.0197 7.45432 23 9.32127V9.53318C22.9997 9.61969 22.9885 9.70581 22.9668 9.78953L21.1709 16.5571L22.0898 19.7207C22.1333 19.8697 22.1415 20.0268 22.1137 20.1795C22.0859 20.3322 22.0229 20.4763 21.9298 20.6004C21.8366 20.7246 21.7158 20.8253 21.577 20.8947C21.4381 20.964 21.285 21.0001 21.1298 21H21.1299Z" fill="#979797" fill-opacity="0.4"/>
</g>
</svg>
