<svg width="24" height="24" viewBox="0 0 24 24" fill="none" xmlns="http://www.w3.org/2000/svg">
<g id="head_side_mask">
<path id="primary" d="M20.4764 9.28699L12.3374 12H4.50001C4.33868 11.9999 4.17973 12.0389 4.03674 12.1136C3.89375 12.1883 3.77096 12.2965 3.67885 12.429C3.58674 12.5614 3.52805 12.7142 3.50779 12.8743C3.48753 13.0343 3.50631 13.1969 3.56251 13.3481L5.00978 17.2427C5.02247 17.2768 5.03712 17.3096 5.05278 17.3418C5.30053 17.8413 5.68325 18.2614 6.15755 18.5544C6.63186 18.8475 7.17879 19.0019 7.73634 19H12.4969L12.5 19.0005C12.6086 19.0004 12.7165 18.9826 12.8193 18.9477L18.6839 16.9697L19.2997 14.6511L13.5 16.6072V13.7209L20.134 11.5095L20.4668 10.2563C20.4886 10.1726 20.4997 10.0865 20.5 9.99999V9.77245C20.5 9.60882 20.4863 9.44835 20.4764 9.28699Z" fill="#F9CA24"/>
<g id="accent">
<path d="M3.67873 12.4292C3.7709 12.2968 3.89372 12.1886 4.03672 12.1138C4.17972 12.0391 4.33867 12.0001 4.50002 12H12.3374L20.4764 9.28699C20.3823 7.3921 19.5898 5.59921 18.2517 4.2542C16.9136 2.90918 15.1249 2.10736 13.2305 2.00342C12.2253 1.96434 11.2228 2.13174 10.2849 2.4953C9.347 2.85886 8.49358 3.41085 7.77736 4.11718C7.05831 4.8102 6.48611 5.64086 6.09486 6.55968C5.70361 7.4785 5.50131 8.46667 5.50002 9.46532L3.64846 12.4761C3.64296 12.485 3.64388 12.4961 3.63869 12.5051C3.65302 12.4802 3.66219 12.4531 3.67873 12.4292Z" fill="#979797" fill-opacity="0.4"/>
<path d="M13.5 13.721V16.607L19.3 14.651L20.467 10.256L20.134 11.51L13.5 13.721Z" fill="#979797" fill-opacity="0.4"/>
<path d="M18.5371 17.5225L18.7374 16.7682L18.6839 16.9697L12.8194 18.9477C12.7165 18.9825 12.6086 19.0004 12.5 19.0005L12.4969 19H8.50002V21C8.49998 21.1313 8.52582 21.2614 8.57607 21.3827C8.62631 21.5041 8.69997 21.6143 8.79283 21.7072C8.8857 21.8 8.99595 21.8737 9.11729 21.9239C9.23863 21.9742 9.36868 22 9.50002 22H18.5C18.655 21.9999 18.8078 21.9638 18.9465 21.8945C19.0851 21.8253 19.2058 21.7248 19.299 21.6009C19.3921 21.4771 19.4553 21.3333 19.4834 21.1809C19.5115 21.0284 19.5038 20.8716 19.461 20.7227L18.5371 17.5225Z" fill="#979797" fill-opacity="0.4"/>
</g>
</g>
</svg>
