<svg width="24" height="24" viewBox="0 0 24 24" fill="none" xmlns="http://www.w3.org/2000/svg">
<g id="head_side">
<path id="accent" d="M18.5 22H9.50003C9.3687 22.0001 9.23864 21.9742 9.1173 21.924C8.99596 21.8737 8.88571 21.8001 8.79284 21.7072C8.69998 21.6143 8.62632 21.5041 8.57608 21.3828C8.52584 21.2614 8.49999 21.1314 8.50003 21V19H7.50003C6.96978 18.9994 6.46142 18.7885 6.08648 18.4136C5.71154 18.0386 5.50063 17.5303 5.50003 17V15H4.50003C4.33151 15.0001 4.16571 14.9576 4.01803 14.8764C3.87035 14.7953 3.7456 14.6781 3.65536 14.5358C3.56513 14.3934 3.51234 14.2306 3.50191 14.0624C3.49149 13.8942 3.52376 13.7261 3.59573 13.5738L5.50003 9.5303V9.50003C5.49661 8.49554 5.69663 7.50075 6.08802 6.57564C6.47941 5.65053 7.05408 4.81426 7.77737 4.11722C8.49379 3.41118 9.34725 2.85937 10.2851 2.49583C11.223 2.13229 12.2254 1.96472 13.2305 2.00345C15.2093 2.11364 17.0694 2.98278 18.4235 4.42993C19.7776 5.87708 20.5214 7.79073 20.5 9.77249V10C20.4998 10.0865 20.4886 10.1727 20.4668 10.2564L18.5371 17.5225L19.461 20.7227C19.5038 20.8716 19.5115 21.0285 19.4834 21.1809C19.4553 21.3333 19.3921 21.4771 19.299 21.6009C19.2058 21.7248 19.0851 21.8253 18.9465 21.8946C18.8078 21.9638 18.655 21.9999 18.5 22V22Z" fill="#979797" fill-opacity="0.4"/>
</g>
</svg>
