<svg width="24" height="24" viewBox="0 0 24 24" fill="none" xmlns="http://www.w3.org/2000/svg">
<g id="history_alt">
<g id="primary">
<path d="M12 2C9.3802 2.00676 6.86731 3.03961 5 4.87714V3C5 2.73478 4.89464 2.48043 4.70711 2.29289C4.51957 2.10536 4.26522 2 4 2C3.73478 2 3.48043 2.10536 3.29289 2.29289C3.10536 2.48043 3 2.73478 3 3V7.5C2.99997 7.63133 3.02581 7.76138 3.07605 7.88272C3.12629 8.00407 3.19995 8.11432 3.29282 8.20718C3.38568 8.30005 3.49594 8.37371 3.61728 8.42395C3.73862 8.47419 3.86867 8.50003 4 8.5H8.5C8.76522 8.5 9.01957 8.39464 9.20711 8.20711C9.39464 8.01957 9.5 7.76522 9.5 7.5C9.5 7.23478 9.39464 6.98043 9.20711 6.79289C9.01957 6.60536 8.76522 6.5 8.5 6.5H6.21844C7.13035 5.54148 8.26597 4.82435 9.52339 4.41296C10.7808 4.00157 12.1207 3.90879 13.4228 4.14295C14.7249 4.37711 15.9485 4.93087 16.9839 5.75456C18.0192 6.57825 18.8338 7.64609 19.3546 8.86226C19.8755 10.0784 20.0862 11.4049 19.968 12.7226C19.8498 14.0403 19.4062 15.308 18.6772 16.4121C17.9482 17.5161 16.9565 18.4219 15.7911 19.0481C14.6257 19.6743 13.323 20.0014 12 20C11.7348 20 11.4804 20.1054 11.2929 20.2929C11.1054 20.4804 11 20.7348 11 21C11 21.2652 11.1054 21.5196 11.2929 21.7071C11.4804 21.8946 11.7348 22 12 22C14.6522 22 17.1957 20.9464 19.0711 19.0711C20.9464 17.1957 22 14.6522 22 12C22 9.34784 20.9464 6.8043 19.0711 4.92893C17.1957 3.05357 14.6522 2 12 2Z" fill="#F9CA24"/>
<path d="M14 13H12C11.8687 13 11.7386 12.9742 11.6173 12.9239C11.4959 12.8737 11.3857 12.8 11.2928 12.7072C11.2 12.6143 11.1263 12.5041 11.0761 12.3827C11.0258 12.2614 11 12.1313 11 12V9C11 8.73478 11.1054 8.48043 11.2929 8.29289C11.4804 8.10536 11.7348 8 12 8C12.2652 8 12.5196 8.10536 12.7071 8.29289C12.8946 8.48043 13 8.73478 13 9V11H14C14.2652 11 14.5196 11.1054 14.7071 11.2929C14.8946 11.4804 15 11.7348 15 12C15 12.2652 14.8946 12.5196 14.7071 12.7071C14.5196 12.8946 14.2652 13 14 13Z" fill="#F9CA24"/>
</g>
<path id="accent" d="M12 4C10.9174 4.00425 9.84682 4.22799 8.85309 4.65768C7.85937 5.08738 6.96309 5.71411 6.21843 6.5H8.49999C8.76521 6.5 9.01956 6.60536 9.2071 6.79289C9.39464 6.98043 9.49999 7.23478 9.49999 7.5C9.49999 7.76522 9.39464 8.01957 9.2071 8.20711C9.01956 8.39464 8.76521 8.5 8.49999 8.5H3.99999C3.75777 8.49828 3.5246 8.40772 3.34473 8.24548C3.16485 8.08325 3.05078 7.86063 3.02416 7.61987C2.27521 9.14271 1.92707 10.8314 2.01267 12.5263C2.09828 14.2212 2.6148 15.8662 3.51339 17.3059C4.41197 18.7455 5.66292 19.9321 7.14794 20.7535C8.63296 21.5749 10.303 22.0039 12 22C11.7348 22 11.4804 21.8946 11.2929 21.7071C11.1054 21.5196 11 21.2652 11 21C11 20.7348 11.1054 20.4804 11.2929 20.2929C11.4804 20.1054 11.7348 20 12 20C14.1217 20 16.1566 19.1571 17.6568 17.6569C19.1571 16.1566 20 14.1217 20 12C20 9.87827 19.1571 7.84344 17.6568 6.34315C16.1566 4.84285 14.1217 4 12 4V4ZM14 13H12C11.8687 13 11.7386 12.9742 11.6173 12.9239C11.4959 12.8737 11.3857 12.8 11.2928 12.7072C11.1999 12.6143 11.1263 12.5041 11.076 12.3827C11.0258 12.2614 11 12.1313 11 12V9C11 8.73478 11.1054 8.48043 11.2929 8.29289C11.4804 8.10536 11.7348 8 12 8C12.2652 8 12.5196 8.10536 12.7071 8.29289C12.8946 8.48043 13 8.73478 13 9V11H14C14.2652 11 14.5196 11.1054 14.7071 11.2929C14.8946 11.4804 15 11.7348 15 12C15 12.2652 14.8946 12.5196 14.7071 12.7071C14.5196 12.8946 14.2652 13 14 13Z" fill="#979797" fill-opacity="0.4"/>
</g>
</svg>
