<svg width="24" height="24" viewBox="0 0 24 24" fill="none" xmlns="http://www.w3.org/2000/svg">
<g id="history">
<g id="primary">
<path d="M12 2C9.38306 2.00689 6.87274 3.03768 5.0061 4.87183V3C5.0061 2.73478 4.90074 2.48043 4.71321 2.29289C4.52567 2.10536 4.27132 2 4.0061 2C3.74088 2 3.48653 2.10536 3.29899 2.29289C3.11146 2.48043 3.0061 2.73478 3.0061 3V7.5C3.00607 7.63133 3.03191 7.76138 3.08215 7.88272C3.13239 8.00407 3.20605 8.11432 3.29892 8.20718C3.39178 8.30005 3.50204 8.37371 3.62338 8.42395C3.74472 8.47419 3.87477 8.50003 4.0061 8.5H8.5061C8.77132 8.5 9.02567 8.39464 9.21321 8.20711C9.40074 8.01957 9.5061 7.76522 9.5061 7.5C9.5061 7.23478 9.40074 6.98043 9.21321 6.79289C9.02567 6.60536 8.77132 6.5 8.5061 6.5H6.21844C7.5014 5.16135 9.21051 4.31131 11.0521 4.09591C12.8938 3.88052 14.7529 4.31322 16.3101 5.31968C17.8674 6.32614 19.0255 7.84352 19.5855 9.6111C20.1455 11.3787 20.0724 13.2861 19.3788 15.0057C18.6852 16.7253 17.4144 18.1496 15.7848 19.034C14.1551 19.9183 12.2683 20.2075 10.4485 19.8519C8.6288 19.4962 6.98973 18.5179 5.81294 17.085C4.63616 15.6521 3.99513 13.8542 4 12C4 11.7348 3.89464 11.4804 3.70711 11.2929C3.51957 11.1054 3.26522 11 3 11C2.73478 11 2.48043 11.1054 2.29289 11.2929C2.10536 11.4804 2 11.7348 2 12C2 13.9778 2.58649 15.9112 3.6853 17.5557C4.78412 19.2002 6.3459 20.4819 8.17317 21.2388C10.0004 21.9957 12.0111 22.1937 13.9509 21.8079C15.8907 21.422 17.6725 20.4696 19.0711 19.0711C20.4696 17.6725 21.422 15.8907 21.8079 13.9509C22.1937 12.0111 21.9957 10.0004 21.2388 8.17317C20.4819 6.3459 19.2002 4.78412 17.5557 3.6853C15.9112 2.58649 13.9778 2 12 2Z" fill="#F9CA24"/>
<path d="M14 13H12C11.8687 13 11.7386 12.9742 11.6173 12.9239C11.4959 12.8737 11.3857 12.8 11.2928 12.7072C11.2 12.6143 11.1263 12.5041 11.0761 12.3827C11.0258 12.2614 11 12.1313 11 12V9C11 8.73478 11.1054 8.48043 11.2929 8.29289C11.4804 8.10536 11.7348 8 12 8C12.2652 8 12.5196 8.10536 12.7071 8.29289C12.8946 8.48043 13 8.73478 13 9V11H14C14.2652 11 14.5196 11.1054 14.7071 11.2929C14.8946 11.4804 15 11.7348 15 12C15 12.2652 14.8946 12.5196 14.7071 12.7071C14.5196 12.8946 14.2652 13 14 13Z" fill="#F9CA24"/>
</g>
<path id="accent" d="M12 4C10.9174 4.00425 9.84682 4.22799 8.8531 4.65768C7.85937 5.08738 6.96309 5.71411 6.21844 6.5H8.5061C8.77132 6.5 9.02567 6.60536 9.21321 6.79289C9.40074 6.98043 9.5061 7.23478 9.5061 7.5C9.5061 7.76522 9.40074 8.01957 9.21321 8.20711C9.02567 8.39464 8.77132 8.5 8.5061 8.5H4.0061C3.76222 8.4984 3.52753 8.40676 3.34709 8.24267C3.16665 8.07859 3.05319 7.85363 3.0285 7.611C2.35345 8.97571 2.00154 10.4775 2 12C2 11.7348 2.10536 11.4804 2.29289 11.2929C2.48043 11.1054 2.73478 11 3 11C3.26522 11 3.51957 11.1054 3.70711 11.2929C3.89464 11.4804 4 11.7348 4 12C4 13.5823 4.46919 15.129 5.34824 16.4446C6.22729 17.7602 7.47672 18.7855 8.93853 19.391C10.4003 19.9965 12.0089 20.155 13.5607 19.8463C15.1126 19.5376 16.538 18.7757 17.6569 17.6569C18.7757 16.538 19.5376 15.1126 19.8463 13.5607C20.155 12.0089 19.9965 10.4003 19.391 8.93853C18.7855 7.47672 17.7602 6.22729 16.4446 5.34824C15.129 4.46919 13.5823 4 12 4V4ZM14 13H12C11.8687 13 11.7386 12.9742 11.6173 12.9239C11.4959 12.8737 11.3857 12.8 11.2928 12.7072C11.2 12.6143 11.1263 12.5041 11.0761 12.3827C11.0258 12.2614 11 12.1313 11 12V9C11 8.73478 11.1054 8.48043 11.2929 8.29289C11.4804 8.10536 11.7348 8 12 8C12.2652 8 12.5196 8.10536 12.7071 8.29289C12.8946 8.48043 13 8.73478 13 9V11H14C14.2652 11 14.5196 11.1054 14.7071 11.2929C14.8946 11.4804 15 11.7348 15 12C15 12.2652 14.8946 12.5196 14.7071 12.7071C14.5196 12.8946 14.2652 13 14 13Z" fill="#979797" fill-opacity="0.4"/>
</g>
</svg>
