<svg width="24" height="24" viewBox="0 0 24 24" fill="none" xmlns="http://www.w3.org/2000/svg">
<path d="M7.0223 23.966C6.2776 23.978 5.52989 24.0112 4.78519 23.9961C2.54808 23.9449 1.04361 22.4796 1.01949 20.2455C0.983315 16.8627 1.00743 13.4799 1.01346 10.0971C1.01346 9.17455 1.24863 8.32734 1.93002 7.65802C4.29978 5.3184 6.81125 3.13557 9.4192 1.07333C11.2252 -0.355768 12.3256 -0.358777 14.1256 1.07032C16.7305 3.13557 19.245 5.3154 21.6148 7.65501C22.3806 8.41177 22.5464 9.36751 22.5434 10.3926C22.5343 13.4769 22.5434 16.5612 22.5403 19.6455C22.5373 22.6846 21.2168 23.9992 18.1686 23.9992C17.6229 23.9992 17.0742 23.978 16.5285 23.966C16.0491 23.4263 16.1215 22.76 16.1154 22.1178C16.0974 20.1249 16.1396 18.135 16.0974 16.1421C16.0491 13.8146 14.7828 12.5574 12.4824 12.488C8.32175 12.3644 7.44439 13.2116 7.44138 17.3361C7.44138 18.931 7.45344 20.5229 7.43535 22.1178C7.42932 22.757 7.50168 23.4263 7.0223 23.966Z" fill="white"/>
</svg>
