<svg width="24" height="24" viewBox="0 0 24 24" fill="none" xmlns="http://www.w3.org/2000/svg">
<g id="hospital_symbol">
<path id="primary" d="M15 7C14.8687 6.99997 14.7386 7.02581 14.6173 7.07605C14.4959 7.12629 14.3857 7.19995 14.2928 7.29282C14.2 7.38568 14.1263 7.49594 14.0761 7.61728C14.0258 7.73862 14 7.86867 14 8V11H10V8C10 7.73478 9.89464 7.48043 9.70711 7.29289C9.51957 7.10536 9.26522 7 9 7C8.73478 7 8.48043 7.10536 8.29289 7.29289C8.10536 7.48043 8 7.73478 8 8V16C8 16.2652 8.10536 16.5196 8.29289 16.7071C8.48043 16.8946 8.73478 17 9 17C9.26522 17 9.51957 16.8946 9.70711 16.7071C9.89464 16.5196 10 16.2652 10 16V13H14V16C14 16.2652 14.1054 16.5196 14.2929 16.7071C14.4804 16.8946 14.7348 17 15 17C15.2652 17 15.5196 16.8946 15.7071 16.7071C15.8946 16.5196 16 16.2652 16 16V8C16 7.86867 15.9742 7.73862 15.9239 7.61728C15.8737 7.49594 15.8 7.38568 15.7072 7.29282C15.6143 7.19995 15.5041 7.12629 15.3827 7.07605C15.2614 7.02581 15.1313 6.99997 15 7Z" fill="#F9CA24"/>
<path id="accent" d="M12 2C10.0222 2 8.08879 2.58649 6.4443 3.6853C4.79981 4.78412 3.51809 6.3459 2.76121 8.17317C2.00433 10.0004 1.8063 12.0111 2.19215 13.9509C2.578 15.8907 3.53041 17.6725 4.92894 19.0711C6.32746 20.4696 8.10929 21.422 10.0491 21.8079C11.9889 22.1937 13.9996 21.9957 15.8268 21.2388C17.6541 20.4819 19.2159 19.2002 20.3147 17.5557C21.4135 15.9112 22 13.9778 22 12C21.997 9.34877 20.9424 6.80699 19.0677 4.93228C17.193 3.05758 14.6512 2.00303 12 2V2ZM16 16C16 16.2652 15.8946 16.5196 15.7071 16.7071C15.5196 16.8946 15.2652 17 15 17C14.7348 17 14.4804 16.8946 14.2929 16.7071C14.1054 16.5196 14 16.2652 14 16V13H10V16C10 16.2652 9.89465 16.5196 9.70711 16.7071C9.51957 16.8946 9.26522 17 9 17C8.73479 17 8.48043 16.8946 8.2929 16.7071C8.10536 16.5196 8 16.2652 8 16V8C8 7.73478 8.10536 7.48043 8.2929 7.29289C8.48043 7.10536 8.73479 7 9 7C9.26522 7 9.51957 7.10536 9.70711 7.29289C9.89465 7.48043 10 7.73478 10 8V11H14V8C14 7.73478 14.1054 7.48043 14.2929 7.29289C14.4804 7.10536 14.7348 7 15 7C15.2652 7 15.5196 7.10536 15.7071 7.29289C15.8946 7.48043 16 7.73478 16 8V16Z" fill="#979797" fill-opacity="0.4"/>
</g>
</svg>
