<svg width="24" height="24" viewBox="0 0 24 24" fill="none" xmlns="http://www.w3.org/2000/svg">
<g id="house_user">
<path id="primary" d="M14.6403 16.7718C14.3162 17.1565 13.912 17.4658 13.456 17.6779C12.9999 17.8901 12.503 18 12 18C11.497 18 11.0001 17.8901 10.544 17.6779C10.088 17.4658 9.68377 17.1565 9.35974 16.7718C8.63973 17.2182 8.04527 17.8406 7.63242 18.5804C7.21957 19.3201 7.00192 20.1528 7 21C6.99997 21.1313 7.02581 21.2614 7.07605 21.3827C7.12629 21.5041 7.19995 21.6143 7.29282 21.7072C7.38568 21.8 7.49594 21.8737 7.61728 21.9239C7.73862 21.9742 7.86867 22 8 22H16C16.1313 22 16.2614 21.9742 16.3827 21.9239C16.5041 21.8737 16.6143 21.8 16.7072 21.7072C16.8 21.6143 16.8737 21.5041 16.9239 21.3827C16.9742 21.2614 17 21.1313 17 21C16.9981 20.1528 16.7804 19.3201 16.3676 18.5804C15.9547 17.8406 15.3603 17.2182 14.6403 16.7718Z" fill="#F9CA24"/>
<g id="accent">
<path d="M12 18C11.3077 18 10.631 17.7947 10.0555 17.4101C9.47991 17.0256 9.0313 16.4789 8.76639 15.8394C8.50149 15.1998 8.43218 14.4961 8.56722 13.8172C8.70227 13.1382 9.03562 12.5146 9.5251 12.0251C10.0146 11.5356 10.6382 11.2023 11.3172 11.0672C11.9961 10.9322 12.6998 11.0015 13.3394 11.2664C13.9789 11.5313 14.5255 11.9799 14.9101 12.5555C15.2947 13.1311 15.5 13.8078 15.5 14.5C15.4989 15.4279 15.1297 16.3175 14.4736 16.9736C13.8175 17.6298 12.9279 17.9989 12 18Z" fill="#979797" fill-opacity="0.4"/>
<path d="M21 12C20.7551 12.0004 20.5187 11.9105 20.3359 11.7476L12 4.33789L3.66403 11.7476C3.46577 11.9237 3.20566 12.0138 2.94093 11.9982C2.6762 11.9825 2.42853 11.8623 2.25241 11.6641C2.07629 11.4658 1.98615 11.2057 2.00181 10.941C2.01747 10.6762 2.13765 10.4286 2.33591 10.2524L11.3359 2.25244C11.5188 2.08968 11.7551 1.99976 12 1.99976C12.2448 1.99976 12.4811 2.08968 12.664 2.25244L21.664 10.2524C21.8156 10.3871 21.9227 10.5647 21.971 10.7617C22.0194 10.9586 22.0067 11.1656 21.9346 11.3552C21.8626 11.5448 21.7346 11.708 21.5677 11.8231C21.4008 11.9383 21.2028 12 21 12Z" fill="#979797" fill-opacity="0.4"/>
</g>
<path id="primary_2" d="M12 4.33789L4 11.449V21C3.99997 21.1313 4.02581 21.2614 4.07605 21.3827C4.12629 21.5041 4.19995 21.6143 4.29282 21.7072C4.38568 21.8 4.49594 21.8737 4.61728 21.9239C4.73862 21.9742 4.86867 22 5 22H8C7.86867 22 7.73862 21.9742 7.61728 21.9239C7.49594 21.8737 7.38568 21.8 7.29282 21.7072C7.19995 21.6143 7.12629 21.5041 7.07605 21.3827C7.02581 21.2614 6.99997 21.1313 7 21C7.00192 20.1528 7.21957 19.3201 7.63242 18.5804C8.04527 17.8406 8.63973 17.2182 9.35974 16.7718L9.3598 16.7719C8.80875 16.1429 8.50342 15.3362 8.5 14.5C8.5 13.5717 8.86875 12.6815 9.52513 12.0251C10.1815 11.3687 11.0717 11 12 11C12.9283 11 13.8185 11.3687 14.4749 12.0251C15.1313 12.6815 15.5 13.5717 15.5 14.5C15.4966 15.3362 15.1912 16.1429 14.6402 16.7719L14.6403 16.7718C15.3603 17.2182 15.9547 17.8406 16.3676 18.5804C16.7804 19.3201 16.9981 20.1528 17 21C17 21.1313 16.9742 21.2614 16.9239 21.3827C16.8737 21.5041 16.8 21.6143 16.7072 21.7072C16.6143 21.8 16.5041 21.8737 16.3827 21.9239C16.2614 21.9742 16.1313 22 16 22H19C19.1313 22 19.2614 21.9742 19.3827 21.9239C19.5041 21.8737 19.6143 21.8 19.7072 21.7072C19.8 21.6143 19.8737 21.5041 19.9239 21.3827C19.9742 21.2614 20 21.1313 20 21V11.449L12 4.33789Z" fill="#F9CA24" fill-opacity="0.4"/>
</g>
</svg>
