<svg width="24" height="24" viewBox="0 0 24 24" fill="none" xmlns="http://www.w3.org/2000/svg">
<g id="html3_alt">
<path id="accent" d="M11.9903 22C11.8995 21.9999 11.8091 21.9874 11.7217 21.9629L5.24902 20.1582C5.05335 20.1036 4.87893 19.9908 4.74897 19.8347C4.619 19.6785 4.53966 19.4865 4.52148 19.2842L3.07912 3.08887C3.06673 2.95059 3.08328 2.81124 3.12771 2.67971C3.17215 2.54818 3.24349 2.42734 3.3372 2.32491C3.43091 2.22247 3.54493 2.14067 3.672 2.08473C3.79906 2.0288 3.93639 1.99994 4.07522 2H19.9248C20.0637 1.99994 20.201 2.0288 20.3281 2.08473C20.4551 2.14067 20.5691 2.22247 20.6628 2.32491C20.7566 2.42734 20.8279 2.54818 20.8723 2.67971C20.9168 2.81124 20.9333 2.95059 20.9209 3.08887L19.4776 19.2773C19.4596 19.4797 19.3803 19.6718 19.2503 19.828C19.1203 19.9841 18.9458 20.0969 18.75 20.1513L12.2588 21.9629C12.1714 21.9874 12.081 21.9999 11.9903 22V22Z" fill="#979797" fill-opacity="0.4"/>
<path id="primary" d="M16.7774 6.3252C16.6837 6.2228 16.5698 6.14101 16.4429 6.08502C16.316 6.02903 16.1788 6.00008 16.04 6H7.96002C7.69481 6 7.44045 6.10536 7.25292 6.29289C7.06538 6.48043 6.96002 6.73478 6.96002 7C6.96002 7.26522 7.06538 7.51957 7.25292 7.70711C7.44045 7.89464 7.69481 8 7.96002 8H14.9473L14.7698 10H10C9.73481 10 9.48045 10.1054 9.29292 10.2929C9.10538 10.4804 9.00002 10.7348 9.00002 11C9.00002 11.2652 9.10538 11.5196 9.29292 11.7071C9.48045 11.8946 9.73481 12 10 12H14.5923L14.3281 14.9766L12 15.5049L9.6719 14.9756L9.57619 13.9111C9.55262 13.6469 9.42507 13.403 9.2216 13.2328C9.01813 13.0627 8.75541 12.9803 8.49123 13.0039C8.22705 13.0275 7.98305 13.155 7.81291 13.3585C7.64277 13.562 7.56043 13.8247 7.584 14.0889L7.74416 15.8789C7.76308 16.0895 7.84819 16.2888 7.98731 16.448C8.12642 16.6073 8.3124 16.7185 8.51857 16.7656L11.7783 17.5058C11.9243 17.5384 12.0757 17.5384 12.2217 17.5058L15.4815 16.7656C15.6877 16.7185 15.8736 16.6074 16.0128 16.4481C16.1519 16.2888 16.237 16.0895 16.2559 15.8789L17.0362 7.08887C17.0483 6.95059 17.0316 6.81129 16.9871 6.67983C16.9425 6.54836 16.8711 6.42759 16.7774 6.3252Z" fill="#F9CA24"/>
</g>
</svg>
