<svg width="24" height="24" viewBox="0 0 24 24" fill="none" xmlns="http://www.w3.org/2000/svg">
<g id="html3">
<path id="accent" d="M17.476 6.12302L16.942 12.117L16.944 12.15L16.942 12.224V12.223L16.562 16.415L16.521 16.787L12 18.037V18.038L11.996 18.041L7.48399 16.783L7.17799 13.318H9.39099L9.54799 15.08L12.001 15.745L12 15.746L14.461 15.071L14.722 12.202H9.57599L9.53198 11.717L9.43098 10.581L9.37898 9.97002H14.917L15.119 7.73902H6.68199L6.63799 7.25402L6.53799 6.11702L6.48499 5.50702H17.529L17.476 6.12302Z" fill="#979797" fill-opacity="0.4"/>
<path id="primary" d="M3.19501 2L4.797 19.994L11.989 22L19.201 19.987L20.805 2H3.19501ZM17.476 6.12299L16.942 12.117L16.944 12.15L16.942 12.224V12.223L16.562 16.415L16.521 16.787L12 18.037V18.038L11.996 18.041L7.48401 16.783L7.17798 13.318H9.39099L9.54797 15.08L12.001 15.745L12 15.746L14.461 15.071L14.722 12.202H9.57599L9.53198 11.717L9.43103 10.581L9.37903 9.96996H14.917L15.119 7.739H6.68201L6.638 7.25403L6.53802 6.117L6.48499 5.50702H17.529L17.476 6.12299Z" fill="#F9CA24"/>
</g>
</svg>
