<svg width="24" height="24" viewBox="0 0 24 24" fill="none" xmlns="http://www.w3.org/2000/svg">
<g id="image_v">
<path id="accent" d="M19 2H5C3.34515 2.00483 2.00483 3.34515 2 5V13.86L5.88 9.98C7.06747 8.85 8.93253 8.85 10.12 9.98L12.9914 12.867L13.8789 11.9795C15.0524 10.8129 16.9476 10.8129 18.1211 11.9795L22 15.8584V5C21.9952 3.34515 20.6549 2.00483 19 2Z" fill="#979797" fill-opacity="0.4"/>
<path id="primary" d="M10.12 9.98001C8.93253 8.85001 7.06747 8.85001 5.88 9.98001L2 13.86V19C2.00484 20.6548 3.34516 21.9952 5 22H19C19.8151 21.9997 20.595 21.6675 21.16 21.08L10.12 9.98001Z" fill="#F9CA24"/>
<path id="primary_2" d="M22 15.8584L18.1211 11.9795C16.9476 10.8129 15.0524 10.8129 13.8789 11.9795L12.9914 12.867L21.1556 21.0756C21.6978 20.5208 22.0009 19.7757 22 19V15.8584Z" fill="#F9CA24" fill-opacity="0.4"/>
</g>
</svg>
