<svg width="25" height="24" viewBox="0 0 25 24" fill="none" xmlns="http://www.w3.org/2000/svg">
<g id="instructor">
<g id="Group 14">
<path id="primary" d="M24.0768 9.48186C24.0251 9.09676 23.6428 8.89272 23.3037 8.70592C19.7459 6.75457 16.1852 4.80897 12.6417 2.83464C12.0037 2.47828 11.4577 2.39781 10.7967 2.77141C7.58947 4.57906 4.35928 6.33786 1.15781 8.15701C-0.103812 8.8726 -0.0434826 9.69165 1.244 10.459C2.09179 10.9648 3.03155 11.3154 3.76438 12.0108C5.96575 13.1891 8.19013 14.33 10.3599 15.5687C11.2939 16.1032 12.0554 16.0946 12.9866 15.5658C15.1563 14.33 17.3807 13.1949 19.5821 12.0166C20.2661 11.4706 20.9816 10.9906 21.93 10.7578C21.93 11.8528 21.9099 12.8443 21.9386 13.8357C21.9559 14.399 22.2059 14.8416 22.8353 14.9364C23.4129 15.0226 23.9963 14.8646 24.0797 14.2783C24.301 12.6833 24.2981 11.0768 24.0768 9.48186Z" fill="#FFD740"/>
<path id="accent" d="M10.357 15.5629C8.19013 14.3243 5.96287 13.1863 3.7615 12.0051C3.73851 13.8013 3.67243 15.5974 3.70692 17.3936C3.73853 19.0575 5.23868 20.5663 6.90552 20.5864C10.0783 20.6267 13.251 20.6267 16.4208 20.5864C18.0877 20.5663 19.5936 19.0604 19.6252 17.3993C19.6626 15.6032 19.5993 13.807 19.5792 12.0109C17.3778 13.1863 15.1506 14.3243 12.9837 15.5601C12.0555 16.0889 11.291 16.0975 10.357 15.5629Z" fill="#979797" fill-opacity="0.7"/>
</g>
</g>
</svg>
