<svg width="24" height="24" viewBox="0 0 24 24" fill="none" xmlns="http://www.w3.org/2000/svg">
<g id="instagram">
<g id="Brand Logos">
<path id="primary" d="M12.0004 6.86511C10.9848 6.86511 9.99201 7.16627 9.14758 7.7305C8.30315 8.29473 7.645 9.09669 7.25635 10.035C6.8677 10.9732 6.76602 12.0057 6.96415 13.0018C7.16228 13.9978 7.65133 14.9128 8.36946 15.6309C9.08758 16.349 10.0025 16.8381 10.9986 17.0362C11.9947 17.2344 13.0271 17.1327 13.9654 16.744C14.9037 16.3554 15.7056 15.6972 16.2699 14.8528C16.8341 14.0084 17.1353 13.0156 17.1353 12C17.1353 11.3257 17.0025 10.6579 16.7444 10.0349C16.4864 9.41195 16.1081 8.84588 15.6313 8.36906C15.1545 7.89224 14.5884 7.514 13.9654 7.25596C13.3424 6.99791 12.6747 6.8651 12.0004 6.86511ZM12.0004 15.3336C11.341 15.3336 10.6965 15.1381 10.1483 14.7718C9.60011 14.4054 9.17284 13.8848 8.92053 13.2757C8.66822 12.6665 8.60221 11.9963 8.73084 11.3496C8.85947 10.7029 9.17697 10.109 9.64318 9.64275C10.1094 9.17654 10.7034 8.85905 11.35 8.73042C11.9967 8.6018 12.667 8.66782 13.2761 8.92014C13.8853 9.17245 14.4059 9.59973 14.7722 10.1479C15.1385 10.6962 15.334 11.3407 15.334 12C15.334 12.4378 15.2478 12.8713 15.0803 13.2758C14.9128 13.6802 14.6673 14.0478 14.3577 14.3573C14.0481 14.6669 13.6806 14.9124 13.2761 15.0799C12.8717 15.2474 12.4382 15.3336 12.0004 15.3336Z" fill="#F9CA24"/>
<path id="primary_2" d="M21.9398 7.87719C21.9234 7.04765 21.7664 6.22691 21.4754 5.44993C21.2238 4.78282 20.8302 4.17837 20.3219 3.67847C19.8227 3.16961 19.2184 2.77594 18.5513 2.525C17.7743 2.23378 16.9535 2.07673 16.124 2.06054C15.0577 2.012 14.7169 2 12.0012 2C9.28552 2 8.94439 2.01126 7.87755 2.06054C7.04801 2.07693 6.22728 2.23398 5.4503 2.525C4.78299 2.77617 4.17847 3.1698 3.67884 3.67847C3.1697 4.17771 2.77602 4.78235 2.52544 5.44993C2.23442 6.22692 2.07737 7.04765 2.06098 7.87719C2.01169 8.94341 2.00037 9.28432 2.00037 12C2.00037 14.7157 2.01169 15.0565 2.06096 16.1228C2.07736 16.9523 2.23441 17.7731 2.52544 18.5501C2.77609 19.2176 3.16976 19.8222 3.67884 20.3215C4.17872 20.8299 4.78317 21.2234 5.4503 21.4749C6.2273 21.7659 7.04802 21.9229 7.87755 21.9394C8.94439 21.9879 9.28469 22 12.0004 22C14.716 22 15.0569 21.9887 16.1232 21.9394C16.9527 21.923 17.7735 21.766 18.5504 21.4749C19.2148 21.2181 19.8182 20.8252 20.3219 20.3215C20.8256 19.8178 21.2185 19.2145 21.4754 18.5501C21.7667 17.7732 21.9238 16.9523 21.9398 16.1228C21.9883 15.0558 21.9996 14.7157 21.9996 12C21.9996 9.28432 21.9883 8.94341 21.9398 7.87719ZM20.1408 16.0413C20.1331 16.6754 20.0168 17.3035 19.7968 17.8983C19.6304 18.3296 19.3755 18.7212 19.0486 19.048C18.7216 19.3748 18.3299 19.6295 17.8986 19.7957C17.3039 20.0162 16.6757 20.1326 16.0415 20.1397C14.9874 20.1882 14.6708 20.1979 12.0003 20.1979C9.3298 20.1979 9.01408 20.1882 7.96031 20.1397C7.32613 20.1325 6.69793 20.0161 6.10323 19.7957C5.66887 19.6352 5.27588 19.3797 4.95299 19.0477C4.62058 18.7256 4.36493 18.3327 4.20499 17.8983C3.98451 17.3037 3.86814 16.6754 3.86099 16.0413C3.81249 14.9872 3.80284 14.6706 3.80284 12.0001C3.80284 9.32956 3.81333 9.01384 3.86099 7.95887C3.86898 7.32479 3.98532 6.69674 4.20499 6.10187C4.3655 5.66751 4.62106 5.27452 4.95299 4.95163C5.27532 4.61903 5.66847 4.36336 6.10323 4.20363C6.69791 3.98318 7.32612 3.86681 7.96031 3.85963C9.01438 3.81114 9.33099 3.80148 12.0003 3.80148C14.6696 3.80148 14.9865 3.81197 16.0415 3.85963C16.6756 3.86762 17.3037 3.98396 17.8986 4.20363C18.33 4.36988 18.7219 4.6247 19.0488 4.95164C19.3758 5.27859 19.6306 5.67043 19.7968 6.10188C20.0173 6.69654 20.1336 7.32472 20.1408 7.95888C20.1893 9.01388 20.199 9.32962 20.199 12.0001C20.199 14.6705 20.1893 14.9863 20.1408 16.0413H20.1408Z" fill="#F9CA24"/>
<path id="primary_3" d="M17.339 5.46198H17.3385C17.0204 5.46203 16.7152 5.58848 16.4903 5.8135C16.2653 6.03852 16.1389 6.34369 16.139 6.66188C16.139 6.98006 16.2654 7.2852 16.4904 7.51018C16.7154 7.73516 17.0206 7.86156 17.3388 7.86156C17.657 7.86156 17.9621 7.73516 18.1871 7.51018C18.4121 7.2852 18.5385 6.98006 18.5386 6.66188C18.5386 6.34369 18.4122 6.03852 18.1873 5.8135C17.9623 5.58848 17.6572 5.46203 17.339 5.46198Z" fill="#F9CA24"/>
</g>
</g>
</svg>
