<svg width="24" height="24" viewBox="0 0 24 24" fill="none" xmlns="http://www.w3.org/2000/svg">
<g id="instagram_alt">
<path id="accent" d="M17.7931 7.6178C17.5434 6.96951 17.031 6.45715 16.3827 6.2074C15.9407 6.04414 15.4741 5.95769 15.0029 5.95178C14.2191 5.91614 13.9836 5.90845 12.0003 5.90845C10.017 5.90845 9.78174 5.91565 8.99854 5.95166C8.52734 5.95695 8.06059 6.04342 7.61877 6.20728C6.97046 6.45701 6.45807 6.96938 6.20831 7.61768C6.04512 8.05968 5.95869 8.52632 5.95276 8.99744C5.9173 9.78131 5.90955 10.0159 5.90955 12.0001C5.90955 13.9843 5.91675 14.2195 5.95276 15.0027C5.95807 15.4739 6.04451 15.9407 6.20831 16.3826C6.45841 17.0305 6.97071 17.5426 7.61877 17.7924C8.06063 17.9561 8.52736 18.0425 8.99854 18.048V18.0481C9.78149 18.0841 10.0161 18.0913 12.0003 18.0913C13.9845 18.0913 14.2197 18.0841 15.0029 18.0481C15.4741 18.0427 15.9409 17.9563 16.3827 17.7925C17.0308 17.5427 17.5431 17.0306 17.7931 16.3827C17.9566 15.9407 18.043 15.474 18.0488 15.0029C18.0848 14.219 18.092 13.9844 18.092 12.0002C18.092 10.016 18.0848 9.78143 18.0488 8.99756C18.0434 8.52637 17.9569 8.05963 17.7931 7.6178ZM12.0003 15.8152C9.89326 15.8153 8.18511 14.1072 8.18506 12.0002C8.18506 12.0001 8.18506 12.0001 8.18506 12H8.18512C8.18514 9.89291 9.89328 8.18479 12.0004 8.18481C14.1075 8.18483 15.8156 9.89297 15.8156 12.0001C15.8155 14.1071 14.1074 15.8153 12.0003 15.8152ZM15.9663 8.92542C15.4739 8.92361 15.0762 8.52296 15.078 8.03054C15.0798 7.54054 15.4767 7.14381 15.9667 7.14221H15.967C16.4594 7.14075 16.8598 7.53874 16.8613 8.03116C16.8627 8.52358 16.4647 8.92395 15.9723 8.92542C15.9703 8.92543 15.9683 8.92542 15.9663 8.92542H15.9663Z" fill="#979797" fill-opacity="0.4"/>
<path id="primary" d="M12.0003 9.52307C10.6324 9.52305 9.5234 10.632 9.52338 11.9999C9.52336 13.3679 10.6323 14.4769 12.0002 14.4769C13.3682 14.4769 14.4772 13.368 14.4772 12V12C14.4773 10.6322 13.3686 9.52324 12.0008 9.52307C12.0007 9.52307 12.0005 9.52307 12.0003 9.52307Z" fill="#F9CA24" fill-opacity="0.4"/>
<path id="primary_2" d="M21.9293 7.07086C21.9205 6.29727 21.7786 5.53097 21.5096 4.8056C21.3142 4.27567 21.0024 3.79631 20.5972 3.40277C20.2038 2.99754 19.7244 2.68575 19.1944 2.49036C18.4688 2.22211 17.7027 2.08019 16.9291 2.07074C15.6422 2.01306 15.2571 2 11.9997 2C8.74353 2 8.35718 2.0119 7.07086 2.07074C6.29727 2.07945 5.53097 2.2214 4.8056 2.49036C4.27548 2.68544 3.79604 2.99728 3.40277 3.40277C2.99825 3.79705 2.68658 4.27644 2.49036 4.80615C2.22214 5.53175 2.08022 6.29794 2.07074 7.07147C2.01306 8.35834 2 8.74353 2 12.0008C2 15.2582 2.0119 15.644 2.07135 16.9297C2.08008 17.7033 2.22204 18.4696 2.491 19.195C2.68602 19.7249 2.99787 20.2042 3.40341 20.5972C3.79718 21.002 4.27647 21.3138 4.80624 21.5096C5.5316 21.7786 6.29791 21.9206 7.0715 21.9293C8.35718 21.9887 8.74353 22 11.9997 22C15.2571 22 15.6434 21.9881 16.9291 21.9293C17.7027 21.9206 18.469 21.7786 19.1944 21.5096C20.2582 21.0994 21.0992 20.2587 21.5096 19.195C21.778 18.4694 21.9199 17.7032 21.9293 16.9297C21.9881 15.6428 22 15.2565 22 12.0003C22 8.74292 21.9881 8.35779 21.9293 7.07086ZM19.3854 15.0632C19.3735 15.6796 19.2568 16.2895 19.0403 16.8668C18.6543 17.8649 17.8652 18.654 16.8671 19.04C16.2898 19.2562 15.6799 19.3729 15.0636 19.3851C14.2714 19.4217 14.0181 19.4301 12.0003 19.4301C9.98255 19.4301 9.72968 19.4211 8.93701 19.3851C8.32067 19.3728 7.71087 19.2561 7.13354 19.04C6.13536 18.654 5.34629 17.865 4.96033 16.8668C4.74412 16.2894 4.62743 15.6796 4.61523 15.0632C4.57861 14.2711 4.57023 14.0178 4.57023 12C4.57023 9.98226 4.57865 9.72896 4.61523 8.93673C4.62744 8.32038 4.74412 7.71057 4.96033 7.13326C5.34623 6.13504 6.13532 5.34592 7.13354 4.96C7.71085 4.74378 8.32065 4.62708 8.937 4.61487H8.93731C9.72997 4.57831 9.98369 4.56987 12.0012 4.56987C14.0186 4.56987 14.2718 4.57865 15.0641 4.61487C15.6805 4.62693 16.2904 4.74364 16.8677 4.96C17.8655 5.34624 18.6543 6.13525 19.0403 7.13322C19.2565 7.71052 19.3732 8.32034 19.3854 8.93669C19.4214 9.72892 19.4298 9.98222 19.4298 12C19.4298 14.0177 19.4214 14.2704 19.3854 15.0632Z" fill="#F9CA24"/>
</g>
</svg>
