<svg width="24" height="24" viewBox="0 0 24 24" fill="none" xmlns="http://www.w3.org/2000/svg">
<g id="intercom">
<path id="accent" d="M19.3334 12.9959C19.3294 13.3641 19.0276 13.6594 18.6594 13.6553C18.2969 13.6514 18.004 13.3585 18 12.9959V7C18.004 6.6318 18.3058 6.33657 18.674 6.34059C19.0365 6.34454 19.3294 6.63747 19.3334 7V12.9959ZM19.1007 17.1688C17.0436 18.666 14.5424 19.427 12 19.3294C9.4577 19.427 6.95653 18.6659 4.89948 17.1687C4.61956 16.9295 4.58656 16.5087 4.82577 16.2288C5.06498 15.9489 5.48581 15.9159 5.76573 16.1551C7.58847 17.4301 9.77712 18.0764 12.0001 17.9959C14.2235 18.086 16.4145 17.4394 18.2328 16.1565C18.5123 15.9168 18.9332 15.9491 19.1729 16.2287C19.4126 16.5082 19.3803 16.9291 19.1008 17.1688H19.1007ZM4.66667 7C4.6707 6.6318 4.97244 6.33658 5.34064 6.34061C5.70316 6.34458 5.99607 6.63749 6.00003 7V12.9959C5.99599 13.3641 5.69423 13.6593 5.32604 13.6553C4.96354 13.6513 4.67065 13.3584 4.66667 12.9959C4.66667 12.9959 4.66667 7 4.66667 7ZM8.00011 5.66664C8.00582 5.29846 8.30891 5.00463 8.67709 5.01034C9.03722 5.01593 9.32779 5.30651 9.33338 5.66664V14.573C9.32767 14.9412 9.02459 15.235 8.65641 15.2293C8.29628 15.2237 8.0057 14.9331 8.00011 14.573V5.66664ZM11.3334 5.3293C11.3333 4.96117 11.6317 4.66271 11.9998 4.66266C11.9999 4.66266 11.9999 4.66266 11.9999 4.66266H12C12.3682 4.66257 12.6667 4.96093 12.6667 5.32906V14.9959C12.6627 15.3641 12.3609 15.6593 11.9928 15.6553C11.6303 15.6513 11.3374 15.3584 11.3334 14.9959C11.3334 14.9959 11.3334 5.3293 11.3334 5.3293ZM14.6667 5.66664C14.6725 5.29846 14.9755 5.00463 15.3437 5.01034C15.7038 5.01592 15.9944 5.30651 16 5.66664V14.573C15.9943 14.9412 15.6912 15.235 15.323 15.2293C14.9629 15.2237 14.6723 14.9331 14.6667 14.573V5.66664Z" fill="#979797" fill-opacity="0.4"/>
<path id="primary" d="M19.5 2H4.5C3.11926 2 2 3.11926 2 4.5V19.5C2 20.8807 3.11926 22 4.5 22H19.5C20.8807 22 22 20.8807 22 19.5V4.5C22 3.11926 20.8807 2 19.5 2ZM14.6667 5.66663C14.6724 5.29847 14.9755 5.00464 15.3437 5.01032C15.7038 5.01593 15.9944 5.30652 16 5.66663V14.573C15.9943 14.9412 15.6912 15.235 15.323 15.2293C14.9629 15.2237 14.6723 14.9331 14.6667 14.573V5.66663ZM11.3334 5.32928C11.3333 4.96118 11.6317 4.66272 11.9998 4.66265H12C12.3681 4.66259 12.6666 4.96093 12.6667 5.32903V14.9959C12.6627 15.3641 12.3609 15.6594 11.9927 15.6553C11.6302 15.6513 11.3373 15.3584 11.3334 14.9959V5.32928H11.3334ZM8.00006 5.66663C8.0058 5.29847 8.3089 5.00464 8.67706 5.01032C9.03717 5.01594 9.32776 5.30652 9.33337 5.66663V14.573C9.32763 14.9412 9.02453 15.235 8.65637 15.2293C8.29626 15.2237 8.00567 14.9331 8.00006 14.573V5.66663ZM4.66663 7C4.67066 6.63177 4.97242 6.33661 5.34064 6.34064C5.70312 6.3446 5.99603 6.63751 6 7V12.9959C5.99597 13.3641 5.69421 13.6594 5.32599 13.6553C4.9635 13.6513 4.67059 13.3584 4.66663 12.9959V7ZM19.1007 17.1688C17.0436 18.6659 14.5424 19.427 12 19.3293C9.4577 19.427 6.95648 18.6659 4.89948 17.1688C4.61951 16.9296 4.58655 16.5087 4.82575 16.2288C5.06495 15.9489 5.48578 15.9159 5.76569 16.1551C7.58844 17.4301 9.7771 18.0764 12.0001 17.9959C14.2235 18.086 16.4145 17.4394 18.2327 16.1565C18.5123 15.9168 18.9332 15.9491 19.1729 16.2286C19.4126 16.5082 19.3803 16.9291 19.1007 17.1688ZM19.3334 12.9959C19.3293 13.3641 19.0276 13.6594 18.6594 13.6553C18.2969 13.6514 18.004 13.3585 18 12.9959V7C18.004 6.63177 18.3057 6.33655 18.674 6.34058C19.0365 6.34454 19.3294 6.63745 19.3334 7V12.9959Z" fill="#F9CA24"/>
</g>
</svg>
