<svg width="24" height="24" viewBox="0 0 24 24" fill="none" xmlns="http://www.w3.org/2000/svg">
<g id="intercom_alt">
<g id="Brand Logos">
<path id="accent" d="M20 23H4C3.20462 22.9991 2.44206 22.6828 1.87964 22.1204C1.31722 21.5579 1.00087 20.7954 1 20V4C1.00087 3.20462 1.31722 2.44206 1.87964 1.87964C2.44206 1.31722 3.20462 1.00087 4 1H20C20.7954 1.00087 21.5579 1.31722 22.1204 1.87964C22.6828 2.44206 22.9991 3.20462 23 4V20C22.9991 20.7954 22.6828 21.5579 22.1204 22.1204C21.5579 22.6828 20.7954 22.9991 20 23V23Z" fill="#979797" fill-opacity="0.4"/>
<path id="primary" d="M12 19C9.61884 19.0646 7.28313 18.3402 5.35645 16.9394C5.1538 16.7686 5.02722 16.5244 5.00453 16.2603C4.98183 15.9963 5.06487 15.734 5.2354 15.5311C5.40593 15.3283 5.65001 15.2014 5.91404 15.1783C6.17806 15.1553 6.44044 15.2379 6.64355 15.4082C8.21452 16.4945 10.0907 17.0521 12 17C13.9112 17.0517 15.7891 16.4931 17.3613 15.4053C17.5651 15.2368 17.8272 15.1559 18.0905 15.1802C18.3538 15.2045 18.5967 15.3322 18.7661 15.5351C18.9355 15.7381 19.0176 15.9999 18.9944 16.2633C18.9713 16.5266 18.8448 16.7701 18.6426 16.9404C16.7162 18.3409 14.3808 19.065 12 19ZM6 13C5.86866 13.0001 5.73859 12.9743 5.61723 12.924C5.49587 12.8738 5.3856 12.8001 5.29273 12.7073C5.19985 12.6144 5.1262 12.5041 5.07597 12.3828C5.02574 12.2614 4.99993 12.1313 5 12V8C5 7.73478 5.10536 7.48043 5.29289 7.29289C5.48043 7.10536 5.73478 7 6 7C6.26522 7 6.51957 7.10536 6.70711 7.29289C6.89464 7.48043 7 7.73478 7 8V12C7.00008 12.1313 6.97426 12.2614 6.92403 12.3828C6.8738 12.5041 6.80015 12.6144 6.70727 12.7073C6.6144 12.8001 6.50413 12.8738 6.38277 12.924C6.26141 12.9743 6.13134 13.0001 6 13ZM10 15C9.86866 15.0001 9.73859 14.9743 9.61723 14.924C9.49587 14.8738 9.3856 14.8001 9.29273 14.7073C9.19985 14.6144 9.1262 14.5041 9.07597 14.3828C9.02574 14.2614 8.99993 14.1313 9 14V6C9 5.73478 9.10536 5.48043 9.29289 5.29289C9.48043 5.10536 9.73478 5 10 5C10.2652 5 10.5196 5.10536 10.7071 5.29289C10.8946 5.48043 11 5.73478 11 6V14C11.0001 14.1313 10.9743 14.2614 10.924 14.3828C10.8738 14.5041 10.8001 14.6144 10.7073 14.7073C10.6144 14.8001 10.5041 14.8738 10.3828 14.924C10.2614 14.9743 10.1313 15.0001 10 15ZM14 15C13.8687 15.0001 13.7386 14.9743 13.6172 14.924C13.4959 14.8738 13.3856 14.8001 13.2927 14.7073C13.1999 14.6144 13.1262 14.5041 13.076 14.3828C13.0257 14.2614 12.9999 14.1313 13 14V6C13 5.73478 13.1054 5.48043 13.2929 5.29289C13.4804 5.10536 13.7348 5 14 5C14.2652 5 14.5196 5.10536 14.7071 5.29289C14.8946 5.48043 15 5.73478 15 6V14C15.0001 14.1313 14.9743 14.2614 14.924 14.3828C14.8738 14.5041 14.8001 14.6144 14.7073 14.7073C14.6144 14.8001 14.5041 14.8738 14.3828 14.924C14.2614 14.9743 14.1313 15.0001 14 15ZM18 13C17.8687 13.0001 17.7386 12.9743 17.6172 12.924C17.4959 12.8738 17.3856 12.8001 17.2927 12.7073C17.1999 12.6144 17.1262 12.5041 17.076 12.3828C17.0257 12.2614 16.9999 12.1313 17 12V8C17 7.73478 17.1054 7.48043 17.2929 7.29289C17.4804 7.10536 17.7348 7 18 7C18.2652 7 18.5196 7.10536 18.7071 7.29289C18.8946 7.48043 19 7.73478 19 8V12C19.0001 12.1313 18.9743 12.2614 18.924 12.3828C18.8738 12.5041 18.8001 12.6144 18.7073 12.7073C18.6144 12.8001 18.5041 12.8738 18.3828 12.924C18.2614 12.9743 18.1313 13.0001 18 13Z" fill="#F9CA24"/>
</g>
</g>
</svg>
