<svg width="24" height="24" viewBox="0 0 24 24" fill="none" xmlns="http://www.w3.org/2000/svg">
<g id="java_script">
<path id="primary" d="M11.1811 2.21337C11.4313 2.07346 11.7131 2 11.9998 2C12.2864 2 12.5682 2.07346 12.8184 2.21337C15.3111 3.62189 17.804 5.02996 20.2969 6.43757C20.5313 6.57107 20.7266 6.76383 20.863 6.99653C20.9995 7.22922 21.0724 7.4937 21.0745 7.76345V16.2376C21.07 16.5177 20.9901 16.7915 20.843 17.0299C20.6959 17.2684 20.4872 17.4627 20.2389 17.5924C17.7543 18.9931 15.2704 20.3945 12.787 21.7964C12.5321 21.9373 12.2442 22.0074 11.953 21.9993C11.6619 21.9912 11.3782 21.9052 11.1316 21.7504C10.3867 21.3186 9.64144 20.8876 8.89568 20.4575C8.73229 20.3844 8.58553 20.2787 8.46438 20.147C8.55938 20.0189 8.72928 20.003 8.86738 19.947C9.1736 19.8376 9.46892 19.6998 9.7495 19.5354C9.7848 19.5146 9.82551 19.5048 9.86642 19.5072C9.90733 19.5097 9.94658 19.5243 9.97915 19.5492C10.6161 19.9144 11.2474 20.2902 11.8865 20.6519C12.0228 20.7306 12.1609 20.6261 12.2774 20.5612C14.7155 19.1832 17.1544 17.8068 19.5942 16.4321C19.6378 16.4103 19.6737 16.376 19.6975 16.3335C19.7212 16.2909 19.7315 16.2423 19.7271 16.1938C19.7288 13.3984 19.7291 10.6027 19.728 7.80695C19.7324 7.75254 19.7198 7.69811 19.6918 7.65124C19.6638 7.60438 19.6219 7.56742 19.5719 7.54554C17.0959 6.15118 14.6206 4.756 12.1458 3.36C12.1029 3.33052 12.0521 3.31471 12 3.31463C11.948 3.31455 11.8971 3.33022 11.8542 3.35957C9.37871 4.75468 6.90364 6.15039 4.42898 7.5467C4.37873 7.568 4.33649 7.60463 4.3083 7.65136C4.28011 7.69808 4.26739 7.75253 4.27198 7.80691C4.27241 10.6023 4.27241 13.3981 4.27198 16.1942C4.26768 16.2425 4.27829 16.2909 4.30236 16.3329C4.32643 16.375 4.36281 16.4087 4.40661 16.4294C5.0672 16.8041 5.72822 17.1774 6.38967 17.5493C6.57304 17.6627 6.77825 17.736 6.99191 17.7646C7.20557 17.7932 7.42285 17.7764 7.62958 17.7153C7.8091 17.6477 7.96365 17.5268 8.07251 17.3689C8.18136 17.2109 8.23931 17.0234 8.23858 16.8316C8.24199 14.0524 8.23687 11.2729 8.24114 8.49417C8.2404 8.46467 8.2459 8.43536 8.25729 8.40814C8.26868 8.38092 8.2857 8.35642 8.30722 8.33624C8.32874 8.31607 8.35429 8.30067 8.38218 8.29105C8.41008 8.28144 8.43969 8.27784 8.46908 8.28048C8.78648 8.27834 9.10431 8.2762 9.42172 8.28133C9.45265 8.28271 9.48294 8.2906 9.51061 8.30451C9.53828 8.31841 9.56269 8.338 9.58226 8.36199C9.60183 8.38598 9.61611 8.41384 9.62417 8.44374C9.63222 8.47364 9.63387 8.5049 9.629 8.53548C9.62772 11.3322 9.63242 14.129 9.62686 16.9257C9.648 17.3057 9.56685 17.6843 9.39188 18.0222C9.21691 18.3601 8.95452 18.6449 8.63205 18.8468C8.20108 19.0476 7.72931 19.1454 7.25405 19.1323C6.77879 19.1192 6.31308 18.9958 5.8938 18.7716C5.16739 18.4091 4.47418 17.9812 3.76066 17.5927C3.51212 17.4633 3.30325 17.269 3.15621 17.0304C3.00917 16.7919 2.92944 16.518 2.92548 16.2377V7.76345C2.92754 7.48825 3.0032 7.21862 3.14461 6.98252C3.28601 6.74642 3.48802 6.55246 3.72967 6.42076C6.21377 5.01886 8.69758 3.6164 11.1811 2.21337Z" fill="#F9CA24"/>
<path id="primary_2" d="M13.3482 8.08349C14.4459 7.94141 15.5614 8.1121 16.5664 8.57591C16.9305 8.79316 17.2316 9.10177 17.4397 9.47117C17.6478 9.84056 17.7559 10.2579 17.7531 10.6819C17.739 10.735 17.7062 10.7812 17.6607 10.812C17.6153 10.8428 17.5603 10.8562 17.5057 10.8497C17.1914 10.8492 16.877 10.8539 16.5627 10.8475C16.5022 10.8437 16.4453 10.8174 16.4032 10.7738C16.3611 10.7302 16.3368 10.6724 16.3351 10.6118C16.2995 10.4065 16.2196 10.2114 16.101 10.0401C15.9824 9.86874 15.8279 9.72528 15.6483 9.61965C15.0504 9.38217 14.4047 9.28978 13.7641 9.35004C13.2922 9.33533 12.8253 9.45158 12.4154 9.68589C12.2741 9.79534 12.1708 9.94632 12.1198 10.1176C12.0688 10.2888 12.0728 10.4718 12.1312 10.6407C12.2322 10.8807 12.5092 10.9581 12.7359 11.0294C14.0415 11.3709 15.4251 11.3369 16.7059 11.7863C16.9809 11.8627 17.2348 12.0011 17.4481 12.1908C17.6614 12.3805 17.8284 12.6166 17.9363 12.8809C18.0648 13.2558 18.0958 13.6572 18.0265 14.0474C17.9573 14.4377 17.7899 14.8039 17.5403 15.1117C17.0887 15.5805 16.502 15.8967 15.8621 16.0161C15.0287 16.1853 14.1737 16.2216 13.329 16.1236C12.5183 16.0774 11.741 15.785 11.1008 15.2854C10.8471 15.0524 10.6481 14.7662 10.518 14.4474C10.3878 14.1285 10.3296 13.7848 10.3477 13.4409C10.354 13.3856 10.3818 13.3351 10.4251 13.3002C10.4684 13.2654 10.5237 13.249 10.5791 13.2546C10.8956 13.2521 11.2122 13.2512 11.5287 13.255C11.558 13.2544 11.5872 13.2596 11.6145 13.2703C11.6418 13.281 11.6667 13.297 11.6878 13.3174C11.7089 13.3378 11.7257 13.3622 11.7373 13.3892C11.7489 13.4161 11.7551 13.4451 11.7554 13.4744C11.7709 13.6705 11.8264 13.8613 11.9184 14.035C12.0105 14.2087 12.1373 14.3618 12.2908 14.4846C12.9687 14.8183 13.7261 14.9562 14.4781 14.8829C15.1073 14.9309 15.7355 14.7772 16.2715 14.4442C16.395 14.3237 16.4848 14.173 16.5321 14.007C16.5794 13.841 16.5825 13.6656 16.5411 13.4981C16.4642 13.2185 16.1717 13.0882 15.9206 13.003C14.6317 12.5953 13.2326 12.7432 11.9562 12.2822C11.6884 12.2038 11.4408 12.0683 11.2304 11.885C11.0201 11.7017 10.852 11.475 10.7378 11.2204C10.591 10.8404 10.5539 10.4269 10.6307 10.0268C10.7075 9.62681 10.8951 9.25639 11.1721 8.95777C11.7756 8.42512 12.544 8.11638 13.3483 8.08341L13.3482 8.08349Z" fill="#F9CA24"/>
</g>
</svg>
