<svg width="24" height="24" viewBox="0 0 24 24" fill="none" xmlns="http://www.w3.org/2000/svg">
<g id="key_skeleton_alt">
<path id="accent" d="M6.99927 12C4.23785 12 1.99927 14.2386 1.99927 17C1.99927 19.7614 4.23785 22 6.99927 22C9.76069 22 11.9993 19.7614 11.9993 17C11.9993 14.2386 9.76069 12 6.99927 12ZM5.58453 19.4124C5.03225 19.4124 4.58453 18.9647 4.58453 18.4124C4.58453 17.8601 5.03225 17.4124 5.58453 17.4124C6.13681 17.4124 6.58453 17.8601 6.58453 18.4124C6.5839 18.9644 6.13655 19.4118 5.58453 19.4124Z" fill="#979797" fill-opacity="0.4"/>
<path id="primary" d="M21.708 6.53417L20.2935 5.11962L21.706 3.70699C22.0992 3.31916 22.1034 2.68608 21.7156 2.29296C21.3278 1.89984 20.6947 1.89557 20.3016 2.2834C20.2984 2.28658 20.2952 2.28977 20.292 2.29299L9.75348 12.8315C10.3149 13.2031 10.7959 13.684 11.1676 14.2455L16.0508 9.36229L17.4648 10.7764C17.856 11.1662 18.4891 11.1651 18.8789 10.774C19.2678 10.3838 19.2678 9.7525 18.8789 9.36229L17.4648 7.94823L18.8794 6.53368L20.294 7.94823C20.687 8.33622 21.32 8.33219 21.708 7.93923C22.0925 7.54979 22.0925 6.92359 21.708 6.53417Z" fill="#F9CA24"/>
</g>
</svg>
