<svg width="24" height="24" viewBox="0 0 24 24" fill="none" xmlns="http://www.w3.org/2000/svg">
<g id="key_skeleton">
<path id="accent" d="M7 12.0005C4.23858 12.0005 2 14.2391 2 17.0005C2 19.7619 4.23858 22.0005 7 22.0005C9.76142 22.0005 12 19.7619 12 17.0005C12 14.2391 9.76142 12.0005 7 12.0005ZM5.58527 19.4129C5.03299 19.4129 4.58527 18.9652 4.58527 18.4129C4.58527 17.8606 5.03299 17.4129 5.58527 17.4129C6.13755 17.4129 6.58527 17.8606 6.58527 18.4129C6.58461 18.9649 6.13728 19.4122 5.58527 19.4129Z" fill="#979797" fill-opacity="0.4"/>
<path id="primary" d="M21.0015 4.41263L21.707 3.70703C22.101 3.32008 22.1067 2.68701 21.7198 2.29303C21.3328 1.89905 20.6997 1.89335 20.3058 2.2803C20.3015 2.28451 20.2972 2.28875 20.293 2.29303L9.75403 12.8319C10.3155 13.2036 10.7964 13.6845 11.1682 14.2459L16.7592 8.65494L18.879 10.7754C19.2694 11.1659 19.9025 11.1659 20.293 10.7754C20.6835 10.3849 20.6835 9.75185 20.293 9.36137L18.1732 7.24088L19.5874 5.8267L20.293 6.53227C20.6848 6.92146 21.3179 6.91936 21.707 6.52759C22.0944 6.13763 22.0944 5.50813 21.707 5.11819L21.0015 4.41263Z" fill="#F9CA24"/>
</g>
</svg>
