<svg width="24" height="24" viewBox="0 0 24 24" fill="none" xmlns="http://www.w3.org/2000/svg">
<g id="keyhole_circle">
<path id="primary" d="M14 9.99998C14.0017 9.64851 13.9107 9.30281 13.7362 8.9977C13.5617 8.6926 13.3099 8.43886 13.0062 8.26204C12.7024 8.08523 12.3574 7.99159 12.0059 7.99055C11.6545 7.98951 11.3089 8.08111 11.0041 8.25613C10.6993 8.43114 10.446 8.68339 10.2698 8.98746C10.0935 9.29153 10.0004 9.63669 10 9.98816C9.99961 10.3396 10.0918 10.685 10.2674 10.9895C10.4429 11.294 10.6956 11.5468 11 11.7226V15C11 15.2652 11.1054 15.5195 11.2929 15.7071C11.4804 15.8946 11.7348 16 12 16C12.2652 16 12.5196 15.8946 12.7071 15.7071C12.8947 15.5195 13 15.2652 13 15V11.7226C13.3032 11.5485 13.5553 11.2977 13.7308 10.9953C13.9064 10.6929 13.9992 10.3496 14 9.99998Z" fill="#F9CA24"/>
<path id="accent" d="M12 2C10.0222 2 8.08879 2.58649 6.4443 3.6853C4.79981 4.78412 3.51809 6.3459 2.76121 8.17317C2.00433 10.0004 1.8063 12.0111 2.19215 13.9509C2.578 15.8907 3.53041 17.6725 4.92894 19.0711C6.32746 20.4696 8.10929 21.422 10.0491 21.8079C11.9889 22.1937 13.9996 21.9957 15.8268 21.2388C17.6541 20.4819 19.2159 19.2002 20.3147 17.5557C21.4135 15.9112 22 13.9778 22 12C22 10.6868 21.7413 9.38642 21.2388 8.17317C20.7363 6.95991 19.9997 5.85752 19.0711 4.92893C18.1425 4.00035 17.0401 3.26375 15.8268 2.7612C14.6136 2.25866 13.3132 2 12 2V2ZM13 11.7226V15C13 15.2652 12.8946 15.5196 12.7071 15.7071C12.5196 15.8946 12.2652 16 12 16C11.7348 16 11.4804 15.8946 11.2929 15.7071C11.1054 15.5196 11 15.2652 11 15V11.7226C10.6187 11.5025 10.3207 11.1627 10.1522 10.7559C9.98376 10.3492 9.9542 9.89818 10.0682 9.47291C10.1821 9.04764 10.4332 8.67186 10.7825 8.40384C11.1318 8.13582 11.5597 7.99055 12 7.99055C12.4403 7.99055 12.8682 8.13582 13.2175 8.40384C13.5668 8.67186 13.8179 9.04764 13.9319 9.47291C14.0458 9.89818 14.0162 10.3492 13.8478 10.7559C13.6793 11.1627 13.3813 11.5025 13 11.7226Z" fill="#979797" fill-opacity="0.4"/>
</g>
</svg>
