<svg width="24" height="24" viewBox="0 0 24 24" fill="none" xmlns="http://www.w3.org/2000/svg">
<g id="keyhole_square">
<path id="primary" d="M14 9.99998C14.0017 9.64851 13.9107 9.30281 13.7362 8.9977C13.5617 8.6926 13.3099 8.43886 13.0062 8.26204C12.7024 8.08523 12.3574 7.99159 12.0059 7.99055C11.6545 7.98951 11.3089 8.08111 11.0041 8.25613C10.6993 8.43114 10.446 8.68339 10.2698 8.98746C10.0935 9.29153 10.0004 9.63669 10 9.98816C9.99961 10.3396 10.0918 10.685 10.2674 10.9895C10.4429 11.294 10.6956 11.5468 11 11.7226V15C11 15.2652 11.1054 15.5195 11.2929 15.7071C11.4804 15.8946 11.7348 16 12 16C12.2652 16 12.5196 15.8946 12.7071 15.7071C12.8947 15.5195 13 15.2652 13 15V11.7226C13.3032 11.5485 13.5553 11.2977 13.7308 10.9953C13.9064 10.6929 13.9992 10.3496 14 9.99998Z" fill="#F9CA24"/>
<path id="accent" d="M19 2H5C4.20462 2.00087 3.44206 2.31722 2.87964 2.87964C2.31722 3.44206 2.00087 4.20462 2 5V19C2.00087 19.7954 2.31722 20.5579 2.87964 21.1204C3.44206 21.6828 4.20462 21.9991 5 22H19C19.7954 21.9991 20.5579 21.6828 21.1204 21.1204C21.6828 20.5579 21.9991 19.7954 22 19V5C21.9991 4.20462 21.6828 3.44206 21.1204 2.87964C20.5579 2.31722 19.7954 2.00087 19 2V2ZM13 11.7226V15C13 15.2652 12.8946 15.5196 12.7071 15.7071C12.5196 15.8946 12.2652 16 12 16C11.7348 16 11.4804 15.8946 11.2929 15.7071C11.1054 15.5196 11 15.2652 11 15V11.7226C10.6187 11.5025 10.3207 11.1627 10.1522 10.7559C9.98376 10.3492 9.9542 9.89818 10.0681 9.47291C10.1821 9.04764 10.4332 8.67186 10.7825 8.40384C11.1318 8.13582 11.5597 7.99055 12 7.99055C12.4403 7.99055 12.8682 8.13582 13.2175 8.40384C13.5668 8.67186 13.8179 9.04764 13.9319 9.47291C14.0458 9.89818 14.0162 10.3492 13.8478 10.7559C13.6793 11.1627 13.3813 11.5025 13 11.7226Z" fill="#979797" fill-opacity="0.4"/>
</g>
</svg>
