<svg width="25" height="24" viewBox="0 0 25 24" fill="none" xmlns="http://www.w3.org/2000/svg">
<g id="landscape">
<g id="Group 10">
<path id="primary" d="M10.7321 16.891C12.1026 14.663 13.7333 12.5815 14.7593 10.1483C13.5684 8.14021 12.4031 6.11743 11.1718 4.13496C10.34 2.79376 9.38358 2.79009 8.58107 4.13862C5.92067 8.62025 3.28225 13.1166 0.680484 17.6348C-0.184329 19.1336 0.266395 19.8628 2.00335 19.8738C4.71139 19.8921 7.41577 19.8628 10.1238 19.8555C9.57048 18.7122 10.1604 17.8144 10.7321 16.891Z" fill="#FFD740"/>
<path id="accent" d="M23.5834 17.2171C22.1506 14.9231 20.6958 12.6402 19.2959 10.3242C17.449 7.2754 17.3501 7.2534 15.0635 9.96511C14.9902 10.0494 14.8583 10.086 14.7557 10.141C13.7296 12.5779 12.1026 14.6556 10.7284 16.8836C10.1568 17.8107 9.57046 18.7049 10.1238 19.8482C14.1034 19.8518 18.083 19.8665 22.0626 19.8482C22.7552 19.8445 23.587 20.112 24.0524 19.3498C24.5581 18.54 23.9974 17.8803 23.5834 17.2171Z" fill="#979797" fill-opacity="0.7"/>
</g>
</g>
</svg>
