<svg width="24" height="24" viewBox="0 0 24 24" fill="none" xmlns="http://www.w3.org/2000/svg">
<g id="layer_group">
<path id="primary" d="M12 14.1953C11.8245 14.1953 11.6521 14.1491 11.5 14.0615L2.49998 8.86426C2.02159 8.58794 1.85777 7.97612 2.13409 7.49773C2.22185 7.34579 2.34804 7.2196 2.49998 7.13184L11.5 1.93848C11.8096 1.76074 12.1903 1.76074 12.5 1.93848L21.5 7.13184C21.9784 7.40816 22.1422 8.01998 21.8659 8.49837C21.7781 8.65031 21.6519 8.7765 21.5 8.86426L12.5 14.0615C12.3479 14.1491 12.1755 14.1953 12 14.1953Z" fill="#F9CA24" fill-opacity="0.4"/>
<path id="accent" d="M21.5 11.1318L19.5359 9.99847L12.5 14.0615C12.1905 14.2399 11.8095 14.2399 11.5 14.0615L4.46409 9.99847L2.49998 11.1318C2.02159 11.4082 1.85777 12.02 2.13409 12.4984C2.22185 12.6503 2.34804 12.7765 2.49998 12.8643L11.5 18.0615C11.8095 18.2399 12.1905 18.2399 12.5 18.0615L21.5 12.8643C21.9784 12.5879 22.1422 11.9761 21.8659 11.4977C21.7781 11.3458 21.6519 11.2196 21.5 11.1318Z" fill="#979797" fill-opacity="0.4"/>
<path id="primary_2" d="M21.5 15.1318L19.5359 13.9985L12.5 18.0615C12.1905 18.2399 11.8095 18.2399 11.5 18.0615L4.46409 13.9985L2.49998 15.1318C2.02159 15.4082 1.85777 16.02 2.13409 16.4984C2.22185 16.6503 2.34804 16.7765 2.49998 16.8643L11.5 22.0615C11.8095 22.2399 12.1905 22.2399 12.5 22.0615L21.5 16.8643C21.9784 16.5879 22.1422 15.9761 21.8659 15.4977C21.7781 15.3458 21.6519 15.2196 21.5 15.1318Z" fill="#F9CA24"/>
</g>
</svg>
