<svg width="24" height="24" viewBox="0 0 24 24" fill="none" xmlns="http://www.w3.org/2000/svg">
<g id="layers_alt">
<path id="primary" d="M21 2H9C8.44803 1.99969 8.00031 2.44689 8 2.99886C8 2.99924 8 2.99962 8 3V7H16C16.552 6.99969 16.9997 7.44689 17 7.99886C17 7.99924 17 7.99962 17 8V16H21C21.552 16.0003 21.9997 15.5531 22 15.0011C22 15.0008 22 15.0004 22 15V3C22.0003 2.44803 21.5531 2.00031 21.0011 2C21.0008 2 21.0004 2 21 2Z" fill="#F9CA24" fill-opacity="0.4"/>
<path id="primary_2" d="M3 12H11C11.5523 12 12 12.4477 12 13V21C12 21.5523 11.5523 22 11 22H3C2.44772 22 2 21.5523 2 21V13C2 12.4477 2.44772 12 3 12Z" fill="#F9CA24"/>
<path id="accent" d="M16 7H6C5.44803 6.99969 5.00031 7.44689 5 7.99886C5 7.99924 5 7.99962 5 8V12H11C11.552 11.9997 11.9997 12.4469 12 12.9989C12 12.9992 12 12.9996 12 13V19H16C16.552 19.0003 16.9997 18.5531 17 18.0011C17 18.0008 17 18.0004 17 18V8C17.0003 7.44803 16.5531 7.00031 16.0011 7C16.0008 7 16.0004 7 16 7Z" fill="#979797" fill-opacity="0.4"/>
</g>
</svg>
