<svg width="24" height="24" viewBox="0 0 24 24" fill="none" xmlns="http://www.w3.org/2000/svg">
<g id="left_indent">
<path id="accent" d="M21 7H3C2.73478 7 2.48043 6.89464 2.29289 6.70711C2.10536 6.51957 2 6.26522 2 6C2 5.73478 2.10536 5.48043 2.29289 5.29289C2.48043 5.10536 2.73478 5 3 5H21C21.2652 5 21.5196 5.10536 21.7071 5.29289C21.8946 5.48043 22 5.73478 22 6C22 6.26522 21.8946 6.51957 21.7071 6.70711C21.5196 6.89464 21.2652 7 21 7ZM13 11H3C2.73478 11 2.48043 10.8946 2.29289 10.7071C2.10536 10.5196 2 10.2652 2 10C2 9.73478 2.10536 9.48043 2.29289 9.29289C2.48043 9.10536 2.73478 9 3 9H13C13.2652 9 13.5196 9.10536 13.7071 9.29289C13.8946 9.48043 14 9.73478 14 10C14 10.2652 13.8946 10.5196 13.7071 10.7071C13.5196 10.8946 13.2652 11 13 11ZM21 19H3C2.73478 19 2.48043 18.8946 2.29289 18.7071C2.10536 18.5196 2 18.2652 2 18C2 17.7348 2.10536 17.4804 2.29289 17.2929C2.48043 17.1054 2.73478 17 3 17H21C21.2652 17 21.5196 17.1054 21.7071 17.2929C21.8946 17.4804 22 17.7348 22 18C22 18.2652 21.8946 18.5196 21.7071 18.7071C21.5196 18.8946 21.2652 19 21 19ZM13 15H3C2.73478 15 2.48043 14.8946 2.29289 14.7071C2.10536 14.5196 2 14.2652 2 14C2 13.7348 2.10536 13.4804 2.29289 13.2929C2.48043 13.1054 2.73478 13 3 13H13C13.2652 13 13.5196 13.1054 13.7071 13.2929C13.8946 13.4804 14 13.7348 14 14C14 14.2652 13.8946 14.5196 13.7071 14.7071C13.5196 14.8946 13.2652 15 13 15Z" fill="#979797" fill-opacity="0.4"/>
<path id="primary" d="M21 14.6665C20.766 14.6666 20.5395 14.5845 20.3599 14.4346L18.3599 12.7681C18.2472 12.6743 18.1566 12.5569 18.0944 12.4241C18.0322 12.2914 18 12.1466 18 12C18 11.8534 18.0322 11.7087 18.0944 11.5759C18.1566 11.4432 18.2472 11.3258 18.3599 11.232L20.3599 9.56546C20.5058 9.44367 20.6835 9.36603 20.872 9.34164C21.0605 9.31725 21.2521 9.34711 21.4243 9.42773C21.5964 9.50835 21.742 9.63638 21.844 9.79682C21.946 9.95725 22.0001 10.1434 22 10.3335V13.6665C22.0001 13.7979 21.9743 13.928 21.9241 14.0493C21.8738 14.1707 21.8002 14.281 21.7073 14.3738C21.6144 14.4667 21.5042 14.5404 21.3828 14.5906C21.2614 14.6408 21.1313 14.6666 21 14.6665Z" fill="#F9CA24"/>
</g>
</svg>
