<svg width="24" height="24" viewBox="0 0 24 24" fill="none" xmlns="http://www.w3.org/2000/svg">
<g id="left_indent_alt">
<path id="accent" d="M21 19H13C12.7348 19 12.4804 18.8946 12.2929 18.7071C12.1054 18.5196 12 18.2652 12 18C12 17.7348 12.1054 17.4804 12.2929 17.2929C12.4804 17.1054 12.7348 17 13 17H21C21.2652 17 21.5196 17.1054 21.7071 17.2929C21.8946 17.4804 22 17.7348 22 18C22 18.2652 21.8946 18.5196 21.7071 18.7071C21.5196 18.8946 21.2652 19 21 19ZM21 15H13C12.7348 15 12.4804 14.8946 12.2929 14.7071C12.1054 14.5196 12 14.2652 12 14C12 13.7348 12.1054 13.4804 12.2929 13.2929C12.4804 13.1054 12.7348 13 13 13H21C21.2652 13 21.5196 13.1054 21.7071 13.2929C21.8946 13.4804 22 13.7348 22 14C22 14.2652 21.8946 14.5196 21.7071 14.7071C21.5196 14.8946 21.2652 15 21 15ZM21 7H13C12.7348 7 12.4804 6.89464 12.2929 6.70711C12.1054 6.51957 12 6.26522 12 6C12 5.73478 12.1054 5.48043 12.2929 5.29289C12.4804 5.10536 12.7348 5 13 5H21C21.2652 5 21.5196 5.10536 21.7071 5.29289C21.8946 5.48043 22 5.73478 22 6C22 6.26522 21.8946 6.51957 21.7071 6.70711C21.5196 6.89464 21.2652 7 21 7ZM21 11H13C12.7348 11 12.4804 10.8946 12.2929 10.7071C12.1054 10.5196 12 10.2652 12 10C12 9.73478 12.1054 9.48043 12.2929 9.29289C12.4804 9.10536 12.7348 9 13 9H21C21.2652 9 21.5196 9.10536 21.7071 9.29289C21.8946 9.48043 22 9.73478 22 10C22 10.2652 21.8946 10.5196 21.7071 10.7071C21.5196 10.8946 21.2652 11 21 11Z" fill="#979797" fill-opacity="0.4"/>
<path id="primary" d="M9 19C8.86867 19 8.73862 18.9742 8.61728 18.9239C8.49594 18.8737 8.38568 18.8 8.29282 18.7072C8.19995 18.6143 8.1263 18.5041 8.07605 18.3827C8.02581 18.2614 7.99997 18.1313 8 18V6C8 5.73478 8.10536 5.48043 8.2929 5.29289C8.48043 5.10536 8.73479 5 9 5C9.26522 5 9.51957 5.10536 9.70711 5.29289C9.89464 5.48043 10 5.73478 10 6V18C10 18.1313 9.97419 18.2614 9.92395 18.3827C9.87371 18.5041 9.80005 18.6143 9.70718 18.7072C9.61432 18.8 9.50407 18.8737 9.38273 18.9239C9.26138 18.9742 9.13133 19 9 19ZM4.99951 14.667C4.76578 14.6671 4.53943 14.5852 4.35986 14.4356L2.35986 12.7686C2.24723 12.6747 2.15661 12.5571 2.09442 12.4243C2.03223 12.2915 2 12.1467 2 12C2 11.8534 2.03223 11.7085 2.09442 11.5757C2.15661 11.4429 2.24723 11.3254 2.35986 11.2315L4.35986 9.56446C4.56377 9.39532 4.82645 9.31398 5.09026 9.33829C5.35407 9.36261 5.59746 9.49059 5.76701 9.69416C5.93657 9.89773 6.01843 10.1602 5.99465 10.4241C5.97086 10.688 5.84337 10.9316 5.64014 11.1016L4.562 12L5.64013 12.8984C5.79813 13.03 5.91174 13.2071 5.96548 13.4055C6.01923 13.604 6.01049 13.8142 5.94046 14.0075C5.87044 14.2009 5.74253 14.3679 5.57415 14.4859C5.40578 14.6039 5.20512 14.6671 4.99951 14.667Z" fill="#F9CA24"/>
</g>
</svg>
