<svg width="24" height="24" viewBox="0 0 24 24" fill="none" xmlns="http://www.w3.org/2000/svg">
<g id="line_spacing">
<path id="primary" d="M4.66699 18.5C4.53565 18.5001 4.40558 18.4743 4.28422 18.424C4.16286 18.3738 4.05259 18.3001 3.95972 18.2073C3.86684 18.1144 3.79319 18.0041 3.74296 17.8828C3.69273 17.7614 3.66692 17.6313 3.66699 17.5V6.5C3.66699 6.23478 3.77235 5.98043 3.95989 5.79289C4.14742 5.60536 4.40178 5.5 4.66699 5.5C4.93221 5.5 5.18656 5.60536 5.3741 5.79289C5.56164 5.98043 5.66699 6.23478 5.66699 6.5V17.5C5.66707 17.6313 5.64125 17.7614 5.59103 17.8828C5.5408 18.0041 5.46714 18.1144 5.37427 18.2073C5.2814 18.3002 5.17113 18.3738 5.04977 18.424C4.92841 18.4743 4.79834 18.5001 4.66699 18.5Z" fill="#F9CA24"/>
<g id="accent">
<path d="M21 8H10C9.73478 8 9.48043 7.89464 9.29289 7.70711C9.10536 7.51957 9 7.26522 9 7C9 6.73478 9.10536 6.48043 9.29289 6.29289C9.48043 6.10536 9.73478 6 10 6H21C21.2652 6 21.5196 6.10536 21.7071 6.29289C21.8946 6.48043 22 6.73478 22 7C22 7.26522 21.8946 7.51957 21.7071 7.70711C21.5196 7.89464 21.2652 8 21 8ZM21 13H10C9.73478 13 9.48043 12.8946 9.29289 12.7071C9.10536 12.5196 9 12.2652 9 12C9 11.7348 9.10536 11.4804 9.29289 11.2929C9.48043 11.1054 9.73478 11 10 11H21C21.2652 11 21.5196 11.1054 21.7071 11.2929C21.8946 11.4804 22 11.7348 22 12C22 12.2652 21.8946 12.5196 21.7071 12.7071C21.5196 12.8946 21.2652 13 21 13Z" fill="#979797" fill-opacity="0.4"/>
<path d="M21 18H10C9.73478 18 9.48043 17.8946 9.29289 17.7071C9.10536 17.5196 9 17.2652 9 17C9 16.7348 9.10536 16.4804 9.29289 16.2929C9.48043 16.1054 9.73478 16 10 16H21C21.2652 16 21.5196 16.1054 21.7071 16.2929C21.8946 16.4804 22 16.7348 22 17C22 17.2652 21.8946 17.5196 21.7071 17.7071C21.5196 17.8946 21.2652 18 21 18Z" fill="#979797" fill-opacity="0.4"/>
</g>
<path id="primary_2" d="M6.33398 9C6.18709 9.00035 6.04193 8.96823 5.9089 8.90593C5.77586 8.84364 5.65824 8.75271 5.56445 8.63965L4.66698 7.5625L3.76853 8.64062C3.59863 8.84445 3.35472 8.97244 3.09045 8.99643C2.82617 9.02042 2.5632 8.93845 2.35936 8.76855C2.15553 8.59865 2.02754 8.35473 2.00355 8.09046C1.97956 7.82619 2.06153 7.56321 2.23144 7.35938L3.89843 5.35938C3.99246 5.24692 4.11002 5.15645 4.24281 5.09436C4.3756 5.03226 4.52039 5.00005 4.66698 5C4.81368 5.00002 4.95858 5.03231 5.0914 5.09458C5.22422 5.15686 5.34171 5.24759 5.43555 5.36035L7.10154 7.36035C7.22302 7.50633 7.30042 7.68388 7.32468 7.87224C7.34895 8.0606 7.31907 8.25197 7.23856 8.42397C7.15804 8.59597 7.03021 8.74149 6.87002 8.8435C6.70983 8.9455 6.5239 8.99979 6.33398 9ZM4.66698 19C4.52039 18.9999 4.3756 18.9677 4.24281 18.9056C4.11002 18.8435 3.99246 18.7531 3.89843 18.6406L2.23144 16.6406C2.14731 16.5397 2.08388 16.4232 2.04478 16.2977C2.00568 16.1723 1.99167 16.0404 2.00355 15.9095C2.01543 15.7787 2.05297 15.6515 2.11402 15.5351C2.17507 15.4188 2.25844 15.3156 2.35936 15.2315C2.46029 15.1473 2.5768 15.0839 2.70224 15.0448C2.82768 15.0057 2.95959 14.9917 3.09045 15.0036C3.2213 15.0154 3.34853 15.053 3.46488 15.114C3.58122 15.1751 3.68441 15.2585 3.76853 15.3594L4.66698 16.4375L5.56444 15.3603C5.64844 15.2594 5.7515 15.176 5.86773 15.1149C5.98396 15.0538 6.11109 15.0162 6.24185 15.0042C6.37261 14.9923 6.50446 15.0062 6.62985 15.0452C6.75524 15.0841 6.87172 15.1474 6.97265 15.2314C7.07358 15.3154 7.15697 15.4185 7.21807 15.5347C7.27917 15.651 7.31678 15.7781 7.32875 15.9089C7.34072 16.0396 7.32682 16.1715 7.28784 16.2968C7.24885 16.4222 7.18555 16.5387 7.10155 16.6397L5.43555 18.6397C5.34172 18.7524 5.22423 18.8431 5.0914 18.9054C4.95858 18.9677 4.81368 19 4.66698 19Z" fill="#F9CA24"/>
</g>
</svg>
