<svg width="24" height="24" viewBox="0 0 24 24" fill="none" xmlns="http://www.w3.org/2000/svg">
<g id="line">
<path id="accent" d="M18.2227 14.2778C18.1816 14.3376 18.1362 14.3944 18.0869 14.4477L18.0826 14.4524C17.8407 14.7408 17.5736 15.0072 17.2846 15.2485C15.2555 17.124 11.9156 19.3569 11.4748 19.0125C11.0916 18.713 12.106 17.2484 10.9357 17.0046C10.8541 16.9952 10.7726 16.9852 10.6919 16.9737L10.6904 16.9736V16.9735C7.25323 16.4852 4.64307 14.081 4.64307 11.1885C4.64303 7.94353 7.92819 5.31299 11.9806 5.31299C16.033 5.31299 19.3182 7.94354 19.3182 11.1885C19.3089 12.3118 18.9232 13.3996 18.2227 14.2778Z" fill="#979797" fill-opacity="0.4"/>
<path id="primary" d="M17.9067 2H6.09326C3.83264 2 2 3.83264 2 6.09326V17.9067C2 20.1674 3.83264 22 6.09332 22H17.9067C20.1674 22 22 20.1674 22 17.9067V6.09332C22 3.83264 20.1674 2 17.9067 2ZM18.2227 14.2778C18.1815 14.3376 18.1361 14.3944 18.0869 14.4478L18.0826 14.4524C17.8407 14.7408 17.5736 15.0073 17.2846 15.2485C15.2555 17.124 11.9156 19.3569 11.4748 19.0124C11.0916 18.713 12.106 17.2483 10.9357 17.0046C10.854 16.9952 10.7726 16.9852 10.6918 16.9737L10.6904 16.9736V16.9735C7.2532 16.4852 4.64309 14.081 4.64309 11.1885C4.64303 7.94355 7.92819 5.313 11.9806 5.313C16.033 5.313 19.3182 7.94355 19.3182 11.1885C19.3088 12.3118 18.9232 13.3996 18.2227 14.2778Z" fill="#F9CA24"/>
<path id="primary_2" d="M9.20319 12.2654H8.13794V9.84165C8.13733 9.63055 7.96635 9.45958 7.75525 9.45898H7.72333C7.51222 9.45958 7.34124 9.63056 7.34064 9.84167V12.6799C7.34123 12.8911 7.51221 13.0621 7.72333 13.0627H9.20319C9.41431 13.0621 9.58529 12.8911 9.58588 12.6799V12.648C9.58525 12.4369 9.41427 12.266 9.20319 12.2654ZM13.7754 9.4591H13.7434C13.5324 9.45972 13.3614 9.63069 13.3608 9.84178V11.5079L11.9777 9.65257C11.9096 9.53319 11.7828 9.45939 11.6454 9.4591H11.6135C11.4023 9.45969 11.2313 9.63066 11.2307 9.84178V12.68C11.2313 12.8911 11.4023 13.0621 11.6135 13.0627H11.6454C11.8565 13.0621 12.0274 12.8911 12.028 12.68V10.9828L13.4212 12.8856C13.4297 12.8989 13.4391 12.9117 13.4492 12.9239L13.4492 12.924C13.487 12.9745 13.5388 13.0127 13.5982 13.0339C13.6443 13.0529 13.6936 13.0627 13.7434 13.0627H13.7754C13.8377 13.0627 13.8991 13.0474 13.9541 13.018C13.9899 13.0019 14.0217 12.9782 14.0473 12.9486L14.0475 12.9484C14.1183 12.877 14.158 12.7805 14.1581 12.68V9.84178C14.1575 9.63069 13.9865 9.45972 13.7754 9.4591ZM10.2773 9.45898H10.3093C10.5206 9.45898 10.692 9.63034 10.692 9.84173V12.6799C10.692 12.8913 10.5206 13.0626 10.3093 13.0626H10.2773C10.066 13.0626 9.89468 12.8913 9.89465 12.68V9.84172C9.89462 9.63037 10.0659 9.45901 10.2773 9.45898C10.2773 9.45898 10.2773 9.45898 10.2773 9.45898ZM16.5106 9.46581H15.0308C14.8196 9.46641 14.6487 9.63739 14.6481 9.84849V12.6868C14.6487 12.8979 14.8197 13.0688 15.0308 13.0694H16.5106C16.7217 13.0688 16.8927 12.8979 16.8934 12.6868V12.6548C16.8927 12.4437 16.7217 12.2727 16.5106 12.2721H15.4454V11.6661H16.5106C16.7217 11.6656 16.8927 11.4947 16.8934 11.2836V11.2516C16.8927 11.0405 16.7217 10.8695 16.5106 10.8689H15.4454V10.263H16.5106C16.7217 10.2625 16.8927 10.0915 16.8934 9.88035V9.84849C16.8927 9.63737 16.7217 9.4664 16.5106 9.46581Z" fill="#F9CA24"/>
</g>
</svg>
