<svg width="24" height="24" viewBox="0 0 24 24" fill="none" xmlns="http://www.w3.org/2000/svg">
<g id="linkedin">
<g id="accent">
<path d="M8.08802 9.71097H5.08602V18.742H8.08802V9.71097Z" fill="#979797" fill-opacity="0.4"/>
<path d="M6.58718 8.47797H6.56746C5.70493 8.52999 4.96354 7.87294 4.91152 7.0104C4.8595 6.14787 5.51655 5.40648 6.37909 5.35446C6.45506 5.34988 6.53126 5.35085 6.60708 5.35735C7.46925 5.29491 8.2188 5.9432 8.28125 6.80537C8.3437 7.66754 7.69541 8.41709 6.83324 8.47954C6.75131 8.48547 6.66903 8.48495 6.58718 8.47797ZM18.9117 18.7419H15.9102V13.9111C15.9102 12.6969 15.4755 11.8688 14.3896 11.8688C13.6958 11.8729 13.0794 12.3123 12.8493 12.9668C12.7724 13.2029 12.7389 13.451 12.7504 13.6991V18.7419H9.74892C9.74892 18.7392 9.78829 10.5582 9.74923 9.71107H12.7507V10.9911C13.3039 10.0283 14.3467 9.45327 15.4561 9.49919C17.431 9.49919 18.9117 10.79 18.9117 13.5638V18.7419Z" fill="#979797" fill-opacity="0.4"/>
</g>
<path id="primary" d="M20.4681 1.99999H3.53186C2.73077 1.99035 2.0733 2.63158 2.06293 3.43267V20.5678C2.07336 21.3688 2.73083 22.0099 3.53186 22H20.4681C21.2693 22.0099 21.9269 21.3687 21.9371 20.5676V3.43267C21.9268 2.63152 21.2693 1.99022 20.4681 1.99999ZM8.08801 18.742H5.086V9.71099H8.08801V18.742ZM6.83325 8.47954C6.75128 8.48546 6.66901 8.48498 6.58716 8.47802H6.56744C5.7049 8.53002 4.9635 7.87298 4.9115 7.01043C4.8595 6.14788 5.51654 5.40649 6.37909 5.35449C6.45502 5.34991 6.53125 5.35089 6.60706 5.35736C7.46924 5.29492 8.21875 5.94324 8.28125 6.80542C8.34369 7.66753 7.69537 8.4171 6.83325 8.47954ZM18.9117 18.7419H15.9101V13.9111C15.9101 12.6969 15.4755 11.8688 14.3896 11.8688C13.6958 11.8728 13.0793 12.3123 12.8493 12.9668C12.7725 13.203 12.7389 13.451 12.7504 13.6991V18.7419H9.7489C9.7489 18.7392 9.78827 10.5582 9.74921 9.71111H12.7507V10.9911C13.3039 10.0284 14.3467 9.4533 15.4561 9.4992C17.431 9.4992 18.9117 10.79 18.9117 13.5638V18.7419H18.9117Z" fill="#F9CA24"/>
</g>
</svg>
