<svg width="24" height="24" viewBox="0 0 24 24" fill="none" xmlns="http://www.w3.org/2000/svg">
<g id="linkedin_alt">
<g id="Brand Logos">
<g id="primary">
<path d="M5.00354 6.99998H4.97538C4.66876 7.01847 4.36162 6.97355 4.07314 6.86802C3.78466 6.76249 3.52103 6.59861 3.29872 6.38663C3.07641 6.17465 2.90019 5.91911 2.78107 5.63597C2.66195 5.35283 2.60248 5.04817 2.60638 4.74101C2.61028 4.43386 2.67746 4.13081 2.80373 3.85079C2.93001 3.57076 3.11265 3.31978 3.34027 3.1135C3.56789 2.90723 3.83559 2.7501 4.12666 2.65193C4.41773 2.55376 4.72591 2.51665 5.03196 2.54292C5.33953 2.52064 5.64838 2.56224 5.93909 2.6651C6.22981 2.76796 6.4961 2.92985 6.72122 3.1406C6.94634 3.35135 7.12542 3.6064 7.24721 3.88971C7.369 4.17301 7.43085 4.47845 7.42888 4.78682C7.42692 5.09519 7.36117 5.39981 7.23578 5.68155C7.11039 5.96328 6.92807 6.21602 6.70028 6.42388C6.47249 6.63174 6.20416 6.79023 5.91216 6.88937C5.62016 6.98851 5.3108 7.02617 5.00354 6.99998Z" fill="#F9CA24"/>
<path d="M7.01803 9.99998H3.01803V22H7.01803V9.99998Z" fill="#F9CA24"/>
<path d="M17.5176 9.99998C16.8435 10.0018 16.1786 10.156 15.5725 10.451C14.9665 10.7459 14.4349 11.1741 14.0176 11.7034V9.99998H10.0176V22H14.0176V16.5C14.0176 15.9695 14.2283 15.4608 14.6034 15.0858C14.9784 14.7107 15.4871 14.5 16.0176 14.5C16.548 14.5 17.0567 14.7107 17.4318 15.0858C17.8069 15.4608 18.0176 15.9695 18.0176 16.5V22H22.0176V14.5C22.0176 13.909 21.9012 13.3239 21.675 12.7779C21.4489 12.2319 21.1174 11.7359 20.6996 11.318C20.2817 10.9001 19.7856 10.5687 19.2396 10.3425C18.6937 10.1164 18.1085 9.99998 17.5176 9.99998Z" fill="#F9CA24"/>
</g>
</g>
</g>
</svg>
