<svg width="24" height="24" viewBox="0 0 24 24" fill="none" xmlns="http://www.w3.org/2000/svg">
<g id="list_ul">
<path id="primary" d="M21 8H7.00002C6.73481 8 6.48045 7.89464 6.29292 7.70711C6.10538 7.51957 6.00002 7.26522 6.00002 7C6.00002 6.73478 6.10538 6.48043 6.29292 6.29289C6.48045 6.10536 6.73481 6 7.00002 6H21C21.2652 6 21.5196 6.10536 21.7071 6.29289C21.8947 6.48043 22 6.73478 22 7C22 7.26522 21.8947 7.51957 21.7071 7.70711C21.5196 7.89464 21.2652 8 21 8ZM21 13H7.00002C6.73481 13 6.48045 12.8946 6.29292 12.7071C6.10538 12.5196 6.00002 12.2652 6.00002 12C6.00002 11.7348 6.10538 11.4804 6.29292 11.2929C6.48045 11.1054 6.73481 11 7.00002 11H21C21.2652 11 21.5196 11.1054 21.7071 11.2929C21.8947 11.4804 22 11.7348 22 12C22 12.2652 21.8947 12.5196 21.7071 12.7071C21.5196 12.8946 21.2652 13 21 13ZM21 18H7.00002C6.73481 18 6.48045 17.8946 6.29292 17.7071C6.10538 17.5196 6.00002 17.2652 6.00002 17C6.00002 16.7348 6.10538 16.4804 6.29292 16.2929C6.48045 16.1054 6.73481 16 7.00002 16H21C21.2652 16 21.5196 16.1054 21.7071 16.2929C21.8947 16.4804 22 16.7348 22 17C22 17.2652 21.8947 17.5196 21.7071 17.7071C21.5196 17.8946 21.2652 18 21 18ZM3.00002 8C2.86922 7.99844 2.73998 7.97124 2.61965 7.91992C2.49862 7.86924 2.38714 7.79824 2.29002 7.71C2.20171 7.61266 2.13055 7.50106 2.07957 7.37992C2.02708 7.26015 1.99998 7.13081 1.99998 7.00004C1.99998 6.86927 2.02708 6.73993 2.07957 6.62016C2.13032 6.49888 2.2015 6.3872 2.29002 6.29C2.43046 6.151 2.60902 6.05684 2.80304 6.01945C2.99707 5.98207 3.19783 6.00314 3.37986 6.08C3.50228 6.12835 3.61434 6.19963 3.71002 6.29C3.79824 6.38732 3.86926 6.49894 3.92002 6.62008C3.97283 6.73976 4.0001 6.86914 4.0001 6.99996C4.0001 7.13078 3.97283 7.26016 3.92002 7.37984C3.86903 7.50089 3.79804 7.6125 3.71002 7.71C3.61685 7.80305 3.50609 7.87661 3.38419 7.9264C3.26229 7.97619 3.13169 8.00121 3.00002 8ZM3.00002 13C2.86922 12.9984 2.73998 12.9712 2.61965 12.9199C2.49862 12.8692 2.38714 12.7982 2.29002 12.71C2.20171 12.6127 2.13055 12.5011 2.07957 12.3799C2.02708 12.2602 1.99998 12.1308 1.99998 12C1.99998 11.8693 2.02708 11.7399 2.07957 11.6202C2.12797 11.4977 2.19941 11.3856 2.29002 11.29C2.38712 11.2017 2.49859 11.1307 2.61961 11.08C2.80174 11.0031 3.00259 10.9821 3.1967 11.0195C3.39081 11.0568 3.56947 11.151 3.71002 11.29C3.80033 11.3857 3.87159 11.4977 3.92002 11.6201C3.97283 11.7398 4.0001 11.8691 4.0001 12C4.0001 12.1308 3.97283 12.2602 3.92002 12.3798C3.86902 12.5009 3.79803 12.6124 3.71002 12.7099C3.61275 12.7982 3.50112 12.8692 3.37994 12.9199C3.25976 12.9712 3.13068 12.9984 3.00002 13ZM3.00002 18C2.86922 17.9984 2.73998 17.9712 2.61965 17.9199C2.49862 17.8692 2.38714 17.7982 2.29002 17.71C2.15019 17.5701 2.05542 17.3915 2.01792 17.1973C1.98041 17.0031 2.00188 16.8021 2.07957 16.6202C2.12797 16.4977 2.19941 16.3856 2.29002 16.29C2.38543 16.1995 2.49732 16.1283 2.61961 16.08C2.86305 15.9794 3.13643 15.9794 3.37986 16.08C3.50225 16.1284 3.61428 16.1996 3.70994 16.29C3.80025 16.3857 3.87151 16.4977 3.91994 16.6201C3.99797 16.8019 4.01968 17.003 3.98226 17.1973C3.94484 17.3916 3.85001 17.5702 3.71002 17.71C3.61275 17.7983 3.50112 17.8693 3.37994 17.92C3.25975 17.9712 3.13068 17.9984 3.00002 18Z" fill="#F9CA24"/>
</g>
</svg>
