<svg width="24" height="24" viewBox="0 0 24 24" fill="none" xmlns="http://www.w3.org/2000/svg">
<g id="list_ui_alt">
<path id="accent" d="M21.5 8H7.5C7.23478 8 6.98043 7.89464 6.79289 7.70711C6.60536 7.51957 6.5 7.26522 6.5 7C6.5 6.73478 6.60536 6.48043 6.79289 6.29289C6.98043 6.10536 7.23478 6 7.5 6H21.5C21.7652 6 22.0196 6.10536 22.2071 6.29289C22.3946 6.48043 22.5 6.73478 22.5 7C22.5 7.26522 22.3946 7.51957 22.2071 7.70711C22.0196 7.89464 21.7652 8 21.5 8ZM21.5 13H11.5C11.2348 13 10.9804 12.8946 10.7929 12.7071C10.6054 12.5196 10.5 12.2652 10.5 12C10.5 11.7348 10.6054 11.4804 10.7929 11.2929C10.9804 11.1054 11.2348 11 11.5 11H21.5C21.7652 11 22.0196 11.1054 22.2071 11.2929C22.3946 11.4804 22.5 11.7348 22.5 12C22.5 12.2652 22.3946 12.5196 22.2071 12.7071C22.0196 12.8946 21.7652 13 21.5 13ZM21.5 18H15.5C15.2348 18 14.9804 17.8946 14.7929 17.7071C14.6054 17.5196 14.5 17.2652 14.5 17C14.5 16.7348 14.6054 16.4804 14.7929 16.2929C14.9804 16.1054 15.2348 16 15.5 16H21.5C21.7652 16 22.0196 16.1054 22.2071 16.2929C22.3946 16.4804 22.5 16.7348 22.5 17C22.5 17.2652 22.3946 17.5196 22.2071 17.7071C22.0196 17.8946 21.7652 18 21.5 18Z" fill="#979797" fill-opacity="0.4"/>
<g id="primary">
<path d="M3.5 8C4.05228 8 4.5 7.55228 4.5 7C4.5 6.44772 4.05228 6 3.5 6C2.94772 6 2.5 6.44772 2.5 7C2.5 7.55228 2.94772 8 3.5 8Z" fill="#F9CA24"/>
<path d="M7.5 13C8.05228 13 8.5 12.5523 8.5 12C8.5 11.4477 8.05228 11 7.5 11C6.94772 11 6.5 11.4477 6.5 12C6.5 12.5523 6.94772 13 7.5 13Z" fill="#F9CA24"/>
<path d="M11.5 18C12.0523 18 12.5 17.5523 12.5 17C12.5 16.4477 12.0523 16 11.5 16C10.9477 16 10.5 16.4477 10.5 17C10.5 17.5523 10.9477 18 11.5 18Z" fill="#F9CA24"/>
</g>
</g>
</svg>
