<svg width="24" height="24" viewBox="0 0 24 24" fill="none" xmlns="http://www.w3.org/2000/svg">
<g id="lock">
<path id="accent" d="M16 11H8C7.86867 11 7.73862 10.9742 7.61728 10.9239C7.49594 10.8737 7.38568 10.8 7.29282 10.7072C7.19995 10.6143 7.12629 10.5041 7.07605 10.3827C7.02581 10.2614 6.99997 10.1313 7 10V7C7 5.67392 7.52678 4.40215 8.46447 3.46447C9.40215 2.52678 10.6739 2 12 2C13.3261 2 14.5979 2.52678 15.5355 3.46447C16.4732 4.40215 17 5.67392 17 7V10C17 10.1313 16.9742 10.2614 16.9239 10.3827C16.8737 10.5041 16.8 10.6143 16.7072 10.7072C16.6143 10.8 16.5041 10.8737 16.3827 10.9239C16.2614 10.9742 16.1313 11 16 11V11ZM9 9H15V7C15 6.20435 14.6839 5.44129 14.1213 4.87868C13.5587 4.31607 12.7956 4 12 4C11.2044 4 10.4413 4.31607 9.87868 4.87868C9.31607 5.44129 9 6.20435 9 7V9Z" fill="#979797" fill-opacity="0.4"/>
<path id="primary" d="M17 9H7C5.34315 9 4 10.3431 4 12V19C4 20.6569 5.34315 22 7 22H17C18.6569 22 20 20.6569 20 19V12C20 10.3431 18.6569 9 17 9Z" fill="#F9CA24"/>
</g>
</svg>
