<svg width="24" height="24" viewBox="0 0 24 24" fill="none" xmlns="http://www.w3.org/2000/svg">
<g id="lock_access">
<path id="primary" d="M21 10C20.4 10 20 9.6 20 9V4H15C14.4 4 14 3.6 14 3C14 2.4 14.4 2 15 2H21C21.6 2 22 2.4 22 3V9C22 9.6 21.6 10 21 10ZM3 10C2.4 10 2 9.6 2 9V3C2 2.4 2.4 2 3 2H9C9.6 2 10 2.4 10 3C10 3.6 9.6 4 9 4H4V9C4 9.6 3.6 10 3 10ZM9 22H3C2.4 22 2 21.6 2 21V15C2 14.4 2.4 14 3 14C3.6 14 4 14.4 4 15V20H9C9.6 20 10 20.4 10 21C10 21.6 9.6 22 9 22ZM21 22H15C14.4 22 14 21.6 14 21C14 20.4 14.4 20 15 20H20V15C20 14.4 20.4 14 21 14C21.6 14 22 14.4 22 15V21C22 21.6 21.6 22 21 22Z" fill="#F9CA24"/>
<path id="accent" d="M9 10H15C16.1 10 17 10.9 17 12V16C17 17.1 16.1 18 15 18H9C7.9 18 7 17.1 7 16V12C7 10.9 7.9 10 9 10ZM11 9C11 8.4 11.4 8 12 8C12.6 8 13 8.4 13 9V10H15V9C15 7.3 13.7 6 12 6C10.3 6 9 7.3 9 9V10H11V9Z" fill="#979797" fill-opacity="0.4"/>
</g>
</svg>
