<svg width="24" height="24" viewBox="0 0 24 24" fill="none" xmlns="http://www.w3.org/2000/svg">
<g id="lock_open_alt">
<path id="accent" d="M8 11C7.44803 11.0003 7.00031 10.5531 7 10.0012C7 10.0008 7 10.0004 7 10V7.00001C7.00123 4.23735 9.24181 1.99877 12.0045 2C13.3269 2.00059 14.5953 2.5248 15.5322 3.45801C16.1623 4.09382 16.613 4.88487 16.8389 5.75101C16.9772 6.28583 16.6558 6.83152 16.121 6.96986C15.5862 7.1082 15.0405 6.78679 14.9021 6.25197C14.9019 6.25098 14.9016 6.25 14.9014 6.24901C14.7656 5.72827 14.4947 5.25261 14.1162 4.87011C12.9385 3.70272 11.0375 3.71105 9.87012 4.88872C9.31333 5.45041 9.00065 6.20911 9 7.00001V10C9.00031 10.552 8.55311 10.9997 8.00114 11C8.00076 11 8.00038 11 8 11ZM13.5 14.5C13.5 13.6716 12.8284 13 12 13C11.1716 13 10.5 13.6716 10.5 14.5C10.5 14.9425 10.6952 15.3362 11 15.6107V17C11 17.0004 11 17.0007 11 17.0012C11.0003 17.5531 11.4481 18.0003 12 18C12.0004 18 12.0007 18 12.0012 18C12.5531 17.9997 13.0003 17.552 13 17V15.6107C13.3048 15.3362 13.5 14.9425 13.5 14.5Z" fill="#979797" fill-opacity="0.4"/>
<path id="primary" d="M17 9H7C5.34314 9 4 10.3431 4 12V19C4 20.6569 5.34314 22 7 22H17C18.6569 22 20 20.6569 20 19V12C20 10.3431 18.6569 9 17 9ZM13 15.6107V17C13.0003 17.5519 12.5531 17.9997 12.0012 18C12.0007 18 12.0004 18 12 18C11.4481 18.0003 11.0003 17.5531 11 17.0012C11 17.0007 11 17.0004 11 17V15.6107C10.6952 15.3362 10.5 14.9425 10.5 14.5C10.5 13.6716 11.1716 13 12 13C12.8284 13 13.5 13.6716 13.5 14.5C13.5 14.9425 13.3048 15.3362 13 15.6107Z" fill="#F9CA24"/>
</g>
</svg>
