<svg width="24" height="24" viewBox="0 0 24 24" fill="none" xmlns="http://www.w3.org/2000/svg">
<g id="master_card">
<path id="accent" d="M15.273 18.7275C11.5575 18.7278 8.54522 15.7161 8.54492 12.0005C8.54462 8.28502 11.5564 5.27276 15.2719 5.27246C18.9874 5.27216 21.9997 8.28394 22 11.9995C22 11.9996 22 11.9998 22 12C21.9959 15.7136 18.9866 18.7231 15.273 18.7275Z" fill="#979797" fill-opacity="0.4"/>
<path id="primary" d="M8.72705 18.7275C5.01153 18.7275 1.99951 15.7155 1.99951 12C1.99951 8.28448 5.01153 5.27246 8.72705 5.27246C12.4426 5.27246 15.4546 8.28448 15.4546 12C15.4507 15.7139 12.441 18.7237 8.72705 18.7275Z" fill="#F9CA24"/>
</g>
</svg>
