<svg width="24" height="24" viewBox="0 0 24 24" fill="none" xmlns="http://www.w3.org/2000/svg">
<g id="medium_m">
<path id="primary" d="M22 6.41669H21.209C21.0356 6.44993 20.8758 6.53358 20.7497 6.65716C20.6236 6.78074 20.5367 6.93878 20.5 7.11148V16.9417C20.5388 17.1081 20.6275 17.2587 20.7542 17.3733C20.8809 17.488 21.0396 17.5613 21.209 17.5833H22V19.9167H14.8333V17.5833H16.3334V7.25001H16.2599L12.7571 19.9167H10.0451L6.58751 7.25001H6.5V17.5833H8V19.9167H2V17.5833H2.76835C2.94177 17.5654 3.10533 17.494 3.23641 17.3791C3.36748 17.2641 3.4596 17.1113 3.5 16.9417V7.1114C3.46194 6.9355 3.37179 6.77514 3.24128 6.65121C3.11078 6.52728 2.94597 6.44553 2.76834 6.41661H2V4.08331H9.50266L11.9659 13.25H12.0339L14.5198 4.08331H22V6.41669Z" fill="#F9CA24"/>
</g>
</svg>
