<svg width="24" height="24" viewBox="0 0 24 24" fill="none" xmlns="http://www.w3.org/2000/svg">
<g id="microscope">
<path id="primary" d="M8 18.0054H4C3.73478 18.0054 3.48043 17.9 3.29289 17.7125C3.10536 17.5249 3 17.2706 3 17.0054C3 16.7402 3.10536 16.4858 3.29289 16.2983C3.48043 16.1107 3.73478 16.0054 4 16.0054H8C8.26522 16.0054 8.51957 16.1107 8.70711 16.2983C8.89464 16.4858 9 16.7402 9 17.0054C9 17.2706 8.89464 17.5249 8.70711 17.7125C8.51957 17.9 8.26522 18.0054 8 18.0054Z" fill="#F9CA24"/>
<g id="primary_2">
<path d="M11.4414 13.6035C11.3101 13.6035 11.1801 13.5776 11.0587 13.5274C10.9374 13.4771 10.8272 13.4034 10.7344 13.3105L7.19824 9.77198C7.10536 9.67915 7.03168 9.56893 6.98141 9.44761C6.93115 9.3263 6.90527 9.19627 6.90527 9.06495C6.90527 8.93363 6.93115 8.80361 6.98141 8.68229C7.03168 8.56098 7.10536 8.45075 7.19824 8.35792L13.5605 1.99513C13.6702 1.88525 13.8039 1.80248 13.9512 1.75343L16.0723 1.04591C16.2485 0.987153 16.4376 0.978642 16.6183 1.02133C16.7991 1.06403 16.9644 1.15623 17.0957 1.28761L19.2178 3.40919C19.3491 3.54054 19.4412 3.70586 19.4838 3.88662C19.5264 4.06739 19.5178 4.25645 19.459 4.4326L18.751 6.55467C18.7023 6.70196 18.6196 6.83575 18.5098 6.94529L12.1485 13.3105C12.0556 13.4034 11.9454 13.4771 11.8241 13.5274C11.7028 13.5777 11.5727 13.6035 11.4414 13.6035Z" fill="#F9CA24" fill-opacity="0.4"/>
<path d="M14.8157 21.0054C14.9343 20.6851 14.9966 20.3468 15 20.0054C15 19.2097 14.6839 18.4466 14.1213 17.884C13.5587 17.3214 12.7956 17.0054 12 17.0054C11.2043 17.0054 10.4413 17.3214 9.87868 17.884C9.31607 18.4466 9 19.2097 9 20.0054C9.0034 20.3468 9.06576 20.6851 9.18433 21.0054H14.8157Z" fill="#F9CA24" fill-opacity="0.4"/>
</g>
<g id="accent">
<path d="M7.19824 9.772L5.78223 11.1875C5.68935 11.2803 5.61567 11.3905 5.5654 11.5119C5.51513 11.6332 5.48926 11.7632 5.48926 11.8945C5.48926 12.0258 5.51513 12.1559 5.5654 12.2772C5.61567 12.3985 5.68935 12.5087 5.78223 12.6016L7.9043 14.7227C7.99713 14.8155 8.10735 14.8892 8.22867 14.9395C8.34998 14.9897 8.48001 15.0156 8.61133 15.0156C8.74265 15.0156 8.87268 14.9897 8.99399 14.9395C9.11531 14.8892 9.22553 14.8155 9.31836 14.7227L10.7324 13.3086L7.19824 9.772Z" fill="#979797" fill-opacity="0.4"/>
<path d="M20 23.0054H4C3.73478 23.0054 3.48043 22.9 3.29289 22.7125C3.10536 22.5249 3 22.2706 3 22.0054C3 21.7401 3.10536 21.4858 3.29289 21.2983C3.48043 21.1107 3.73478 21.0054 4 21.0054H20C20.2652 21.0054 20.5196 21.1107 20.7071 21.2983C20.8946 21.4858 21 21.7401 21 22.0054C21 22.2706 20.8946 22.5249 20.7071 22.7125C20.5196 22.9 20.2652 23.0054 20 23.0054Z" fill="#979797" fill-opacity="0.4"/>
<path d="M17.8726 7.58289L16.4579 8.99847C17.4522 10.0959 18.002 11.5245 18 13.0054C17.9938 14.144 17.6662 15.2578 17.0551 16.2186C16.4439 17.1793 15.5739 17.948 14.5452 18.4362C14.8404 18.9065 14.998 19.4501 15 20.0054C14.9973 20.1421 14.984 20.2784 14.9603 20.413C16.4402 19.8172 17.7096 18.7949 18.607 17.4758C19.5044 16.1568 19.9893 14.6007 20 13.0054C20.0029 10.9937 19.2426 9.05586 17.8726 7.58289ZM9.42059 18.4992C9.04004 18.345 8.67371 18.1577 8.32581 17.9396C8.22173 17.9799 8.11155 18.0021 8 18.0054H5.32635C6.33518 19.133 7.61563 19.984 9.04602 20.4774C9.01682 20.3217 9.00143 20.1637 9.00002 20.0054C9.00295 19.4747 9.14819 18.9546 9.42059 18.4992Z" fill="#979797" fill-opacity="0.4"/>
</g>
</g>
</svg>
