<svg width="24" height="24" viewBox="0 0 24 24" fill="none" xmlns="http://www.w3.org/2000/svg">
<g id="minus_square_full">
<path id="primary" d="M17 13H7C6.73478 13 6.48043 12.8946 6.29289 12.7071C6.10536 12.5196 6 12.2652 6 12C6 11.7348 6.10536 11.4804 6.29289 11.2929C6.48043 11.1054 6.73478 11 7 11H17C17.2652 11 17.5196 11.1054 17.7071 11.2929C17.8946 11.4804 18 11.7348 18 12C18 12.2652 17.8946 12.5196 17.7071 12.7071C17.5196 12.8946 17.2652 13 17 13Z" fill="#F9CA24"/>
<path id="accent" d="M21 2H3C2.86867 1.99997 2.73862 2.02581 2.61728 2.07605C2.49594 2.12629 2.38568 2.19995 2.29282 2.29282C2.19995 2.38568 2.12629 2.49594 2.07605 2.61728C2.02581 2.73862 1.99997 2.86867 2 3V21C1.99997 21.1313 2.02581 21.2614 2.07605 21.3827C2.12629 21.5041 2.19995 21.6143 2.29282 21.7072C2.38568 21.8 2.49594 21.8737 2.61728 21.9239C2.73862 21.9742 2.86867 22 3 22H21C21.1313 22 21.2614 21.9742 21.3827 21.9239C21.5041 21.8737 21.6143 21.8 21.7072 21.7072C21.8 21.6143 21.8737 21.5041 21.9239 21.3827C21.9742 21.2614 22 21.1313 22 21V3C22 2.86867 21.9742 2.73862 21.9239 2.61728C21.8737 2.49594 21.8 2.38568 21.7072 2.29282C21.6143 2.19995 21.5041 2.12629 21.3827 2.07605C21.2614 2.02581 21.1313 1.99997 21 2V2ZM17 13H7C6.73478 13 6.48043 12.8946 6.29289 12.7071C6.10536 12.5196 6 12.2652 6 12C6 11.7348 6.10536 11.4804 6.29289 11.2929C6.48043 11.1054 6.73478 11 7 11H17C17.2652 11 17.5196 11.1054 17.7071 11.2929C17.8946 11.4804 18 11.7348 18 12C18 12.2652 17.8946 12.5196 17.7071 12.7071C17.5196 12.8946 17.2652 13 17 13Z" fill="#979797" fill-opacity="0.4"/>
</g>
</svg>
