<svg width="24" height="24" viewBox="0 0 24 24" fill="none" xmlns="http://www.w3.org/2000/svg">
<g id="multiply">
<path id="primary" d="M6.99997 18C6.80222 18 6.60892 17.9413 6.44451 17.8314C6.2801 17.7215 6.15196 17.5654 6.07629 17.3827C6.00062 17.2 5.98082 16.9989 6.01939 16.805C6.05795 16.611 6.15316 16.4329 6.29297 16.293L16.293 6.29302C16.4811 6.10831 16.7345 6.00535 16.9981 6.00654C17.2617 6.00773 17.5142 6.11299 17.7006 6.29939C17.887 6.4858 17.9923 6.73828 17.9934 7.00189C17.9946 7.26551 17.8917 7.51893 17.707 7.70702L7.70697 17.707C7.61424 17.8 7.50404 17.8738 7.38271 17.9241C7.26138 17.9744 7.13131 18.0002 6.99997 18Z" fill="#F9CA24"/>
<path id="primary_2" d="M17 18C16.8687 18.0002 16.7386 17.9744 16.6173 17.9241C16.4959 17.8738 16.3857 17.8 16.293 17.707L6.29302 7.70702C6.10831 7.51893 6.00535 7.26551 6.00654 7.00189C6.00773 6.73828 6.11299 6.4858 6.29939 6.29939C6.4858 6.11299 6.73828 6.00773 7.00189 6.00654C7.26551 6.00535 7.51893 6.10831 7.70702 6.29302L17.707 16.293C17.8468 16.4329 17.942 16.611 17.9806 16.805C18.0192 16.9989 17.9994 17.2 17.9237 17.3827C17.848 17.5654 17.7199 17.7215 17.5555 17.8314C17.3911 17.9413 17.1978 18 17 18Z" fill="#F9CA24"/>
</g>
</svg>
