<svg width="24" height="24" viewBox="0 0 24 24" fill="none" xmlns="http://www.w3.org/2000/svg">
<g id="news">
<g id="Group">
<path id="accent" d="M23.9874 3.59433C23.9851 2.18126 23.1578 1.36761 21.7242 1.36533C16.9813 1.35394 12.2384 1.36989 7.49552 1.35621C6.36962 1.35394 5.80212 2.02172 5.45569 2.95617C5.25968 3.48265 5.2141 4.0456 5.21866 4.61766C5.23461 6.55949 5.22094 6.54353 3.22897 6.57088C2.68426 6.57772 2.09624 6.37488 1.59711 6.78056C2.49965 6.78284 3.40446 6.81247 4.307 6.77601C4.97023 6.74866 5.24373 6.95378 5.23917 7.66715C5.2141 11.8836 5.21866 16.1 5.23233 20.3164C5.23689 21.4742 4.35714 21.9847 3.64605 22.632C9.21854 22.632 14.7888 22.6365 20.3613 22.6297C22.3122 22.6274 23.9805 21.0229 23.9896 19.0742C24.0079 13.912 23.9988 8.7543 23.9874 3.59433ZM17.3824 13.153C16.1357 13.1508 15.5637 12.7724 15.6389 11.9451C15.7369 10.8648 16.5255 10.8192 17.371 10.8283C18.2234 10.8374 19.1077 10.7713 19.2285 11.9314C19.3151 12.7815 18.7134 13.1576 17.3824 13.153ZM13.1523 16.8521C13.0771 17.9916 12.2224 18.0737 11.3564 18.0805C10.2373 18.0874 9.54902 17.5746 9.57865 16.786C9.60828 15.9997 10.2214 15.6122 11.4293 15.6145C12.6897 15.6145 13.2093 15.97 13.1523 16.8521ZM13.1022 12.4009C12.9882 12.8317 12.6737 13.1029 12.2156 13.1325C11.7689 13.1622 11.3199 13.1348 10.8732 13.1553C10.0823 13.1895 9.63107 12.7268 9.61739 12.034C9.60372 11.2773 10.0687 10.7964 10.9119 10.842C11.0601 10.8511 11.2105 10.8443 11.4316 10.8443C11.8646 10.883 12.4116 10.7212 12.8424 11.1542C13.2048 11.5166 13.2184 11.9588 13.1022 12.4009ZM10.9986 8.38052C10.1803 8.39647 9.6607 7.99762 9.60828 7.22272C9.55586 6.41362 10.1325 5.95096 10.8823 5.935C13.2139 5.88942 15.5477 5.88942 17.8793 5.93272C18.6018 5.9464 19.249 6.30878 19.2171 7.15662C19.1852 8.01586 18.6086 8.38508 17.7699 8.37824C16.603 8.3714 15.436 8.37596 14.2714 8.37596C13.182 8.37596 12.0903 8.36001 10.9986 8.38052ZM19.2217 17.0139C19.0394 17.8731 18.3533 18.0691 17.5853 18.0828C16.7671 18.0965 15.9466 18.0532 15.6617 17.0914C15.4907 16.5125 15.8053 16.084 16.2907 15.7672C16.6371 15.5416 17.0223 15.651 17.3528 15.6077C17.7608 15.6441 18.1482 15.5325 18.4969 15.733C18.9938 16.0134 19.347 16.4236 19.2217 17.0139Z" fill="#979797" fill-opacity="0.4"/>
<path id="accent_2" d="M5.22777 20.3141C5.2141 16.0977 5.20954 11.8813 5.23461 7.66487C5.23917 6.95378 4.96567 6.74638 4.30244 6.77373C3.3999 6.81019 2.49737 6.78057 1.59255 6.77829C0.671776 7.12472 0.0313381 7.75604 0.0245007 8.76342C-0.0074072 12.7132 -0.00968634 16.6652 0.0267799 20.6172C0.0358964 21.7499 0.915644 22.5568 2.06205 22.6297C2.58625 22.6616 3.11501 22.6297 3.64149 22.6274C4.35258 21.9847 5.23233 21.4742 5.22777 20.3141Z" fill="#979797" fill-opacity="0.7"/>
<g id="primary">
<path d="M17.7721 8.37824C18.6109 8.38508 19.1875 8.01586 19.2194 7.15662C19.2513 6.30878 18.604 5.9464 17.8815 5.93273C15.55 5.88942 13.2161 5.88942 10.8846 5.93501C10.1347 5.95096 9.55585 6.41362 9.61055 7.22272C9.66069 7.99763 10.1826 8.39647 11.0008 8.38052C12.0925 8.36001 13.1842 8.37596 14.2737 8.37596C15.4406 8.37596 16.6052 8.3714 17.7721 8.37824Z" fill="#FFD740"/>
<path d="M11.4293 15.6122C10.2213 15.6099 9.60825 15.9974 9.57862 16.7837C9.54899 17.5723 10.2373 18.0851 11.3563 18.0783C12.2224 18.0714 13.0771 17.9916 13.1523 16.8498C13.2093 15.9701 12.6896 15.6145 11.4293 15.6122Z" fill="#FFD740"/>
<path d="M18.4992 15.733C18.1505 15.5325 17.7607 15.6441 17.3551 15.6077C17.0246 15.651 16.6394 15.5416 16.293 15.7672C15.8075 16.084 15.493 16.5125 15.6639 17.0914C15.9488 18.0532 16.7693 18.0965 17.5875 18.0828C18.3556 18.0691 19.0416 17.8754 19.224 17.0139C19.347 16.4236 18.9938 16.0134 18.4992 15.733Z" fill="#FFD740"/>
<path d="M17.3687 10.8283C16.5232 10.8192 15.7346 10.8648 15.6366 11.9451C15.5614 12.7724 16.1357 13.1508 17.3801 13.153C18.7111 13.1553 19.3151 12.7815 19.2262 11.9314C19.1077 10.7713 18.2234 10.8374 17.3687 10.8283Z" fill="#FFD740"/>
<path d="M11.4339 10.8397C11.2128 10.8397 11.0624 10.8465 10.9142 10.8374C10.0709 10.7918 9.60599 11.2727 9.61967 12.0294C9.63334 12.7223 10.0846 13.1872 10.8755 13.1508C11.3222 13.1302 11.7712 13.1576 12.2179 13.128C12.6737 13.0983 12.9905 12.8271 13.1045 12.3964C13.2207 11.9542 13.207 11.5121 12.8446 11.1474C12.4139 10.7166 11.8669 10.8807 11.4339 10.8397Z" fill="#FFD740"/>
</g>
</g>
</g>
</svg>
