<svg width="24" height="24" viewBox="0 0 24 24" fill="none" xmlns="http://www.w3.org/2000/svg">
<g id="object_group">
<path id="accent" d="M11 10H16C16.5523 10 17 10.4477 17 11V16C17 16.5523 16.5523 17 16 17H11C10.4477 17 10 16.5523 10 16V11C10 10.4477 10.4477 10 11 10Z" fill="#979797" fill-opacity="0.4"/>
<path id="primary" d="M10 11C10 10.4477 10.4477 10 11 10H14V8C14 7.44769 13.5523 7 13 7H8C7.44769 7 7 7.44769 7 8V13C7 13.5523 7.44769 14 8 14H10V11ZM4 22C2.89543 22 2 21.1046 2 20C2 18.8954 2.89543 18 4 18C5.10457 18 6 18.8954 6 20C5.99857 21.104 5.10398 21.9986 4 22ZM4 6C2.89543 6 2 5.10457 2 4C2 2.89543 2.89543 2 4 2C5.10457 2 6 2.89543 6 4C5.99857 5.10398 5.10398 5.99857 4 6ZM20 6C18.8954 6 18 5.10457 18 4C18 2.89543 18.8954 2 20 2C21.1046 2 22 2.89543 22 4C21.9986 5.10398 21.104 5.99857 20 6ZM20 22C18.8954 22 18 21.1046 18 20C18 18.8954 18.8954 18 20 18C21.1046 18 22 18.8954 22 20C21.9986 21.104 21.104 21.9986 20 22Z" fill="#F9CA24"/>
<path id="primary_2" d="M18.2783 5C17.9072 4.38497 17.9072 3.61503 18.2783 3H5.72168C6.09277 3.61503 6.09277 4.38497 5.72168 5H18.2783ZM20 18C20.3522 18.002 20.6974 18.0981 21 18.2783V5.72168C20.385 6.09277 19.615 6.09277 19 5.72168V18.2783C19.3026 18.0981 19.6478 18.002 20 18ZM4 18C4.35218 18.002 4.69742 18.0981 5 18.2783V5.72168C4.38497 6.09277 3.61503 6.09277 3 5.72168V18.2783C3.30258 18.0981 3.64782 18.002 4 18ZM18.2783 19H5.72168C6.09277 19.615 6.09277 20.385 5.72168 21H18.2783C17.9072 20.385 17.9072 19.615 18.2783 19Z" fill="#F9CA24" fill-opacity="0.4"/>
</g>
</svg>
