<svg width="24" height="24" viewBox="0 0 24 24" fill="none" xmlns="http://www.w3.org/2000/svg">
<g id="object_ungroup">
<path id="primary" d="M10 22C8.89543 22 8 21.1046 8 20C8 18.8954 8.89543 18 10 18C11.1046 18 12 18.8954 12 20C11.9986 21.104 11.104 21.9986 10 22ZM10 12C8.89543 12 8 11.1046 8 10C8 8.89543 8.89543 8 10 8C11.1046 8 12 8.89543 12 10C11.9986 11.104 11.104 11.9986 10 12ZM20 12C18.8954 12 18 11.1046 18 10C18 8.89543 18.8954 8 20 8C21.1046 8 22 8.89543 22 10C21.9986 11.104 21.104 11.9986 20 12ZM20 22C18.8954 22 18 21.1046 18 20C18 18.8954 18.8954 18 20 18C21.1046 18 22 18.8954 22 20C21.9986 21.104 21.104 21.9986 20 22Z" fill="#F9CA24"/>
<g id="accent">
<path d="M4 16C2.89543 16 2 15.1046 2 14C2 12.8954 2.89543 12 4 12C5.10457 12 6 12.8954 6 14C5.99857 15.104 5.10398 15.9986 4 16ZM4 6C2.89543 6 2 5.10457 2 4C2 2.89543 2.89543 2 4 2C5.10457 2 6 2.89543 6 4C5.99857 5.10398 5.10398 5.99857 4 6ZM14 6C12.8954 6 12 5.10457 12 4C12 2.89543 12.8954 2 14 2C15.1046 2 16 2.89543 16 4C15.9986 5.10398 15.104 5.99857 14 6ZM14 16C12.8954 16 12 15.1046 12 14C12 12.8954 12.8954 12 14 12C15.1046 12 16 12.8954 16 14C15.9986 15.104 15.104 15.9986 14 16Z" fill="#979797" fill-opacity="0.4"/>
<path d="M20 18C20.3522 18.002 20.6974 18.0981 21 18.2783V11.7217C20.385 12.0928 19.615 12.0928 19 11.7217V18.2783C19.3026 18.0981 19.6478 18.002 20 18ZM10 18C10.3522 18.002 10.6974 18.0981 11 18.2783V11.7217C10.385 12.0928 9.61503 12.0928 9 11.7217V18.2783C9.30258 18.0981 9.64782 18.002 10 18Z" fill="#979797" fill-opacity="0.4"/>
<path d="M18.2783 19H11.7217C12.0928 19.615 12.0928 20.385 11.7217 21H18.2783C17.9072 20.385 17.9072 19.615 18.2783 19ZM18.2783 11C17.9072 10.385 17.9072 9.61503 18.2783 9H11.7217C12.0928 9.61503 12.0928 10.385 11.7217 11H18.2783Z" fill="#979797" fill-opacity="0.4"/>
</g>
<g id="primary_2">
<path d="M12.2783 5C11.9072 4.38497 11.9072 3.61503 12.2783 3H5.72168C6.09277 3.61503 6.09277 4.38497 5.72168 5H12.2783ZM4 12C4.35218 12.002 4.69742 12.0981 5 12.2783V5.72168C4.38497 6.09277 3.61503 6.09277 3 5.72168V12.2783C3.30258 12.0981 3.64782 12.002 4 12Z" fill="#F9CA24" fill-opacity="0.4"/>
<path d="M12.2783 13H11V15H12.2783C11.9072 14.385 11.9072 13.615 12.2783 13ZM9 15V13H5.72168C6.09277 13.615 6.09277 14.385 5.72168 15H9Z" fill="#F9CA24" fill-opacity="0.4"/>
<path d="M15 9V5.72168C14.385 6.09277 13.615 6.09277 13 5.72168V9H15ZM13 11V12.2783C13.615 11.9072 14.385 11.9072 15 12.2783V11H13Z" fill="#F9CA24" fill-opacity="0.4"/>
</g>
</g>
</svg>
