<svg width="24" height="24" viewBox="0 0 24 24" fill="none" xmlns="http://www.w3.org/2000/svg">
<g id="padlock">
<path id="accent" d="M9 7C9 5.3 10.3 4 12 4C13.7 4 15 5.3 15 7V9H17V7C17 4.2 14.8 2 12 2C9.2 2 7 4.2 7 7V9H9V7ZM13.5 14.5C13.5 13.7 12.8 13 12 13C11.2 13 10.5 13.7 10.5 14.5C10.5 14.9 10.7 15.3 11 15.6V17C11 17.6 11.4 18 12 18C12.6 18 13 17.6 13 17V15.6C13.3 15.3 13.5 14.9 13.5 14.5Z" fill="#979797" fill-opacity="0.4"/>
<path id="primary" d="M17 9H7C5.3 9 4 10.3 4 12V19C4 20.7 5.3 22 7 22H17C18.7 22 20 20.7 20 19V12C20 10.3 18.7 9 17 9ZM13 15.6V17C13 17.6 12.6 18 12 18C11.4 18 11 17.6 11 17V15.6C10.7 15.3 10.5 14.9 10.5 14.5C10.5 13.7 11.2 13 12 13C12.8 13 13.5 13.7 13.5 14.5C13.5 14.9 13.3 15.3 13 15.6Z" fill="#F9CA24"/>
</g>
</svg>
