<svg width="24" height="24" viewBox="0 0 24 24" fill="none" xmlns="http://www.w3.org/2000/svg">
<g id="paperclip">
<path id="primary" d="M8.89158 21.8535C7.6555 21.8535 6.44717 21.487 5.41939 20.8003C4.3916 20.1136 3.59052 19.1376 3.11743 17.9956C2.64434 16.8536 2.52049 15.597 2.76154 14.3847C3.00259 13.1723 3.59771 12.0587 4.47166 11.1846L12.4267 3.22949C13.2708 2.38689 14.4149 1.91388 15.6076 1.91437C16.8003 1.91486 17.944 2.38882 18.7874 3.23211C19.6308 4.07539 20.1049 5.21902 20.1056 6.4117C20.1063 7.60437 19.6334 8.74853 18.791 9.59277L11.8965 16.4873C11.3725 16.9875 10.676 17.2666 9.95164 17.2666C9.22727 17.2666 8.53075 16.9875 8.00682 16.4873C7.4914 15.9714 7.20196 15.272 7.20215 14.5428C7.20233 13.8135 7.49213 13.1142 8.00782 12.5986L13.1338 7.47168C13.2267 7.37883 13.3369 7.30518 13.4582 7.25493C13.5795 7.20468 13.7095 7.17881 13.8408 7.17881C13.9722 7.17881 14.1022 7.20468 14.2235 7.25493C14.3448 7.30518 14.455 7.37883 14.5479 7.47168C14.6407 7.56452 14.7144 7.67475 14.7646 7.79606C14.8149 7.91738 14.8407 8.0474 14.8407 8.17871C14.8407 8.31001 14.8149 8.44004 14.7646 8.56135C14.7144 8.68266 14.6407 8.79289 14.5479 8.88574L9.42188 14.0127C9.35222 14.0824 9.29696 14.165 9.25926 14.256C9.22155 14.347 9.20215 14.4445 9.20215 14.543C9.20215 14.6415 9.22155 14.739 9.25926 14.83C9.29696 14.921 9.35222 15.0037 9.42188 15.0733C9.56476 15.2096 9.75466 15.2857 9.95215 15.2857C10.1496 15.2857 10.3395 15.2096 10.4824 15.0733L17.377 8.17871C17.8451 7.70954 18.1079 7.07386 18.1079 6.41113C18.1079 5.74839 17.8451 5.11271 17.377 4.64355C16.9008 4.1885 16.2675 3.93456 15.6089 3.93456C14.9503 3.93456 14.317 4.1885 13.8408 4.64355L5.88572 12.5986C5.49111 12.9933 5.1781 13.4618 4.96457 13.9775C4.75103 14.4931 4.64115 15.0458 4.6412 15.6039C4.64124 16.162 4.75121 16.7146 4.96483 17.2302C5.17845 17.7458 5.49153 18.2143 5.8862 18.6089C6.28087 19.0035 6.7494 19.3165 7.26504 19.53C7.78068 19.7436 8.33333 19.8534 8.89143 19.8534C9.44954 19.8534 10.0022 19.7434 10.5178 19.5298C11.0334 19.3161 11.5019 19.0031 11.8965 18.6084L18.084 12.4219C18.1768 12.329 18.287 12.2554 18.4083 12.2051C18.5297 12.1549 18.6597 12.129 18.791 12.129C18.9223 12.129 19.0523 12.1549 19.1736 12.2051C19.2949 12.2554 19.4052 12.329 19.498 12.4219C19.5909 12.5147 19.6645 12.6249 19.7148 12.7463C19.765 12.8676 19.7909 12.9976 19.7909 13.1289C19.7909 13.2602 19.765 13.3902 19.7148 13.5115C19.6645 13.6329 19.5909 13.7431 19.498 13.8359L13.3105 20.0225C12.7317 20.6048 12.0431 21.0666 11.2846 21.3809C10.526 21.6952 9.71266 21.8558 8.89158 21.8535Z" fill="#F9CA24"/>
</g>
</svg>
