<svg width="24" height="24" viewBox="0 0 24 24" fill="none" xmlns="http://www.w3.org/2000/svg">
<g id="paragraph">
<path id="primary" d="M13 15.5H3C2.73478 15.5 2.48043 15.3946 2.29289 15.2071C2.10536 15.0196 2 14.7652 2 14.5C2 14.2348 2.10536 13.9804 2.29289 13.7929C2.48043 13.6054 2.73478 13.5 3 13.5H13C13.2652 13.5 13.5196 13.6054 13.7071 13.7929C13.8946 13.9804 14 14.2348 14 14.5C14 14.7652 13.8946 15.0196 13.7071 15.2071C13.5196 15.3946 13.2652 15.5 13 15.5ZM21 10.5H3C2.73478 10.5 2.48043 10.3946 2.29289 10.2071C2.10536 10.0196 2 9.76522 2 9.5C2 9.23478 2.10536 8.98043 2.29289 8.79289C2.48043 8.60536 2.73478 8.5 3 8.5H21C21.2652 8.5 21.5196 8.60536 21.7071 8.79289C21.8946 8.98043 22 9.23478 22 9.5C22 9.76522 21.8946 10.0196 21.7071 10.2071C21.5196 10.3946 21.2652 10.5 21 10.5Z" fill="#F9CA24"/>
</g>
</svg>
