<svg width="24" height="24" viewBox="0 0 24 24" fill="none" xmlns="http://www.w3.org/2000/svg">
<g id="pentagon">
<path id="primary" d="M17.5625 21.5596H6.4375C6.22625 21.5596 6.02043 21.4927 5.84955 21.3684C5.67868 21.2442 5.55153 21.0691 5.48634 20.8682L2.04884 10.2881C1.98359 10.0874 1.9836 9.87115 2.04886 9.67044C2.11413 9.46973 2.2413 9.29485 2.41212 9.1709L11.4121 2.63184C11.5828 2.50714 11.7887 2.43994 12 2.43994C12.2114 2.43994 12.4172 2.50714 12.5879 2.63184L21.5879 9.1709C21.7587 9.29485 21.8859 9.46973 21.9512 9.67044C22.0164 9.87115 22.0164 10.0874 21.9512 10.2881L18.5137 20.8682C18.4485 21.0691 18.3213 21.2442 18.1505 21.3684C17.9796 21.4927 17.7738 21.5596 17.5625 21.5596Z" fill="#F9CA24"/>
</g>
</svg>
