<svg width="24" height="25" viewBox="0 0 24 25" fill="none" xmlns="http://www.w3.org/2000/svg">
<g id="photo">
<g id="Group">
<path id="accent" d="M10.0449 10.2082C11.1766 11.2849 12.2826 12.391 13.396 13.4861C15.7143 10.5012 17.4906 10.3986 20.1788 13.0575C21.4131 14.2771 22.6913 15.4564 23.9511 16.6504C23.9621 12.4313 23.9878 8.2158 23.9731 3.99667C23.9621 1.6344 22.6546 0.370859 20.2374 0.367196C14.7584 0.352546 9.27943 0.352546 3.80042 0.367196C1.31729 0.374521 0.0793867 1.65271 0.0683994 4.18712C0.0537496 7.62248 0.0683806 11.0542 0.072043 14.4896C1.53702 13.0649 3.002 11.6402 4.47063 10.2155C6.20297 8.5381 8.27592 8.52711 10.0449 10.2082ZM13.667 5.09907C14.7657 5.1064 15.4982 5.78394 15.5898 6.82041C15.6887 7.9228 14.9745 8.65529 13.8648 8.65529C12.8466 8.65163 12.0079 8.20848 12.0153 6.97424C12.0079 5.84254 12.4694 5.09175 13.667 5.09907Z" fill="#979797" fill-opacity="0.7"/>
<path id="primary" d="M21.7463 21.9902C18.9775 19.1445 16.1831 16.3171 13.396 13.486C12.2789 12.391 11.1765 11.2849 10.0448 10.2081C8.27588 8.52709 6.20293 8.53808 4.4706 10.2191C3.00196 11.6402 1.53698 13.0685 0.0720036 14.4932C0.0536914 16.4196 0.0134028 18.3424 0.0243901 20.2689C0.0427023 23.1109 1.25133 24.3269 4.09704 24.3378C9.38926 24.3562 14.6851 24.3268 19.9774 24.3561C21.0358 24.3598 21.999 24.1657 22.867 23.5541C22.8524 22.774 22.1931 22.4444 21.7463 21.9902Z" fill="#FFD740"/>
<g id="accent_2">
<path d="M20.1825 13.0575C17.4943 10.3986 15.718 10.5012 13.3996 13.486C16.1868 16.3171 18.9775 19.1445 21.75 21.9902C22.1932 22.448 22.8561 22.774 22.8707 23.5504C23.4494 23.1402 23.7827 22.4663 23.8303 21.873C23.9768 20.1407 23.9255 18.3937 23.9548 16.6504C22.6949 15.4528 21.4167 14.2771 20.1825 13.0575Z" fill="#979797" fill-opacity="0.4"/>
<path d="M13.8648 8.65528C14.9745 8.65894 15.6886 7.92645 15.5897 6.8204C15.4982 5.78393 14.7657 5.10638 13.667 5.09906C12.4693 5.09173 12.0079 5.83887 12.0189 6.97422C12.0079 8.20846 12.8503 8.65162 13.8648 8.65528Z" fill="#979797" fill-opacity="0.4"/>
</g>
</g>
</g>
</svg>
