<svg width="24" height="24" viewBox="0 0 24 24" fill="none" xmlns="http://www.w3.org/2000/svg">
<g id="process">
<g id="primary">
<path d="M8.625 8.50002H4.125C3.99366 8.50009 3.86359 8.47428 3.74223 8.42405C3.62087 8.37382 3.5106 8.30016 3.41773 8.20729C3.32485 8.11442 3.2512 8.00415 3.20097 7.88279C3.15074 7.76143 3.12492 7.63136 3.125 7.50002V3.00002C3.125 2.7348 3.23036 2.48045 3.41789 2.29291C3.60543 2.10537 3.85978 2.00002 4.125 2.00002C4.39022 2.00002 4.64457 2.10537 4.83211 2.29291C5.01964 2.48045 5.125 2.7348 5.125 3.00002V6.50002H8.625C8.89022 6.50002 9.14457 6.60537 9.33211 6.79291C9.51964 6.98045 9.625 7.2348 9.625 7.50002C9.625 7.76523 9.51964 8.01959 9.33211 8.20712C9.14457 8.39466 8.89022 8.50002 8.625 8.50002Z" fill="#F9CA24"/>
<path d="M21 13C20.8687 13.0001 20.7386 12.9743 20.6172 12.924C20.4959 12.8738 20.3856 12.8002 20.2927 12.7073C20.1999 12.6144 20.1262 12.5041 20.076 12.3828C20.0257 12.2614 19.9999 12.1314 20 12C20.0011 10.2393 19.4209 8.5274 18.3495 7.13013C17.2781 5.73287 15.7754 4.72837 14.0747 4.27255C12.374 3.81673 10.5704 3.9351 8.94379 4.60927C7.31722 5.28344 5.9587 6.47572 5.0791 8.00102C5.01331 8.11464 4.92578 8.21419 4.82151 8.29399C4.71725 8.37379 4.59828 8.43227 4.47142 8.46609C4.2152 8.5344 3.94234 8.49813 3.71287 8.36525C3.48339 8.23238 3.3161 8.01379 3.24779 7.75757C3.17948 7.50135 3.21576 7.22849 3.34863 6.99902C4.44867 5.09286 6.14709 3.60308 8.18036 2.76085C10.2136 1.91862 12.468 1.77104 14.5937 2.341C16.7194 2.91097 18.5976 4.16662 19.9367 5.91309C21.2759 7.65957 22.0012 9.79922 22 12C22.0001 12.1314 21.9743 12.2614 21.924 12.3828C21.8738 12.5041 21.8001 12.6144 21.7073 12.7073C21.6144 12.8002 21.5041 12.8738 21.3828 12.924C21.2614 12.9743 21.1313 13.0001 21 13ZM19.875 22C19.7437 22.0001 19.6136 21.9743 19.4922 21.924C19.3709 21.8738 19.2606 21.8002 19.1677 21.7073C19.0749 21.6144 19.0012 21.5041 18.951 21.3828C18.9007 21.2614 18.8749 21.1314 18.875 21V17.5H15.375C15.1098 17.5 14.8554 17.3947 14.6679 17.2071C14.4804 17.0196 14.375 16.7652 14.375 16.5C14.375 16.2348 14.4804 15.9804 14.6679 15.7929C14.8554 15.6054 15.1098 15.5 15.375 15.5H19.875C20.0063 15.4999 20.1364 15.5258 20.2578 15.576C20.3791 15.6262 20.4894 15.6999 20.5823 15.7927C20.6751 15.8856 20.7488 15.9959 20.799 16.1172C20.8493 16.2386 20.8751 16.3687 20.875 16.5V21C20.8751 21.1314 20.8493 21.2614 20.799 21.3828C20.7488 21.5041 20.6751 21.6144 20.5823 21.7073C20.4894 21.8002 20.3791 21.8738 20.2578 21.924C20.1364 21.9743 20.0063 22.0001 19.875 22Z" fill="#F9CA24"/>
<path d="M12 22C9.34879 21.9969 6.80706 20.9423 4.93237 19.0676C3.05768 17.193 2.00311 14.6512 2 12C2 11.7348 2.10536 11.4804 2.29289 11.2929C2.48043 11.1054 2.73478 11 3 11C3.26522 11 3.51957 11.1054 3.70711 11.2929C3.89464 11.4804 4 11.7348 4 12C3.9989 13.7608 4.57907 15.4726 5.65047 16.8699C6.72186 18.2672 8.22455 19.2717 9.92528 19.7275C11.626 20.1833 13.4296 20.0649 15.0562 19.3908C16.6828 18.7166 18.0413 17.5243 18.9209 15.999C19.0538 15.7695 19.2724 15.6022 19.5286 15.5339C19.7848 15.4656 20.0577 15.5019 20.2871 15.6348C20.5166 15.7677 20.6839 15.9862 20.7522 16.2425C20.8205 16.4987 20.7842 16.7715 20.6514 17.001C19.7718 18.5175 18.5102 19.7771 16.9923 20.6542C15.4744 21.5313 13.7531 21.9953 12 22Z" fill="#F9CA24"/>
</g>
</g>
</svg>
