<svg width="24" height="24" viewBox="0 0 24 24" fill="none" xmlns="http://www.w3.org/2000/svg">
<g id="reddit_alien_alt">
<path id="accent" d="M18.8926 6.99997C17.2303 6.99204 15.8881 5.63986 15.8926 3.97751C15.905 2.32059 17.2582 0.987442 18.9152 0.999842C20.5458 1.01204 21.8682 2.32451 21.8926 3.95505V3.97751C21.8971 5.63986 20.5549 6.99204 18.8926 6.99997ZM11.7998 23C5.6318 23 0.799805 19.9248 0.799805 16C0.799805 12.0752 5.6318 8.99997 11.7998 8.99997C17.9678 8.99997 22.7998 12.0752 22.7998 16C22.7998 19.9248 17.9678 23 11.7998 23Z" fill="#979797" fill-opacity="0.4"/>
<path id="primary" d="M20.499 8.29219C18.8634 7.59712 17.0196 8.15126 16.0018 9.51466C18.9539 10.2711 21.2258 11.8096 22.23 13.7493C22.3295 13.588 22.4243 13.4233 22.4988 13.2481C23.3151 11.3273 22.4197 9.10847 20.499 8.29219ZM11.7998 9.00001C12.1908 9.00001 12.5763 9.01289 12.9557 9.03706L13.8115 3.33198L15.8988 4.04182C15.8984 4.01991 15.8925 3.99952 15.8926 3.97755C15.8977 3.28401 16.1474 2.65528 16.5463 2.15016L13.3222 1.05372C13.265 1.03413 13.206 1.01978 13.1462 1.01081C12.6004 0.929453 12.0921 1.30585 12.0107 1.85157L10.9342 9.02699C11.2206 9.01338 11.5071 9.00001 11.7998 9.00001ZM7.59216 9.51594C7.50409 9.39875 7.41998 9.27839 7.31854 9.17189C5.87958 7.66145 3.48859 7.60346 1.97809 9.04243C0.663446 10.2949 0.451597 12.2675 1.36688 13.754C2.36908 11.8133 4.64032 10.2735 7.59216 9.51594Z" fill="#F9CA24" fill-opacity="0.4"/>
<path id="primary_2" d="M11.8418 19.5C10.4687 19.6206 9.10514 19.1815 8.06052 18.2822C7.67004 17.8912 7.67047 17.2577 8.06149 16.8672C8.45251 16.4767 9.08604 16.4772 9.47653 16.8682C10.1578 17.368 11.002 17.5935 11.8418 17.5C12.6826 17.5933 13.5278 17.3675 14.21 16.8672C14.6001 16.4759 15.2337 16.4749 15.625 16.8651C16.0164 17.2552 16.0173 17.8888 15.6272 18.2801C15.6261 18.2811 15.6251 18.2822 15.624 18.2832C14.5785 19.1814 13.2149 19.6201 11.8418 19.5ZM9.99997 14.0021C10.0001 13.4498 9.55257 13.0019 9.00028 13.0018C8.44799 13.0016 8.00014 13.4492 7.99997 14.0015C7.9998 14.5538 8.44738 15.0016 8.99966 15.0018C8.99987 15.0018 9.00007 15.0018 9.00028 15.0018C9.55205 15.0009 9.99914 14.5539 9.99997 14.0021ZM16 14.0021C16.0001 13.4498 15.5526 13.0019 15.0003 13.0018C14.448 13.0016 14.0001 13.4492 14 14.0015C13.9998 14.5538 14.4474 15.0016 14.9997 15.0018C14.9999 15.0018 15.0001 15.0018 15.0003 15.0018C15.5521 15.0009 15.9991 14.5539 16 14.0021Z" fill="#F9CA24"/>
</g>
</svg>
