<svg width="24" height="24" viewBox="0 0 24 24" fill="none" xmlns="http://www.w3.org/2000/svg">
<g id="redo">
<g id="primary">
<path d="M19.875 8.5H15.375C15.1098 8.5 14.8554 8.39464 14.6679 8.20711C14.4804 8.01957 14.375 7.76522 14.375 7.5C14.375 7.23478 14.4804 6.98043 14.6679 6.79289C14.8554 6.60536 15.1098 6.5 15.375 6.5H18.875V3C18.875 2.73478 18.9804 2.48043 19.1679 2.29289C19.3554 2.10536 19.6098 2 19.875 2C20.1402 2 20.3946 2.10536 20.5821 2.29289C20.7696 2.48043 20.875 2.73478 20.875 3V7.5C20.875 7.63133 20.8492 7.76138 20.799 7.88272C20.7487 8.00407 20.6751 8.11432 20.5822 8.20718C20.4893 8.30005 20.3791 8.37371 20.2577 8.42395C20.1364 8.47419 20.0063 8.50003 19.875 8.5Z" fill="#F9CA24"/>
<path d="M12 22C10.2443 22.0015 8.51922 21.5407 6.99812 20.664C5.47701 19.7873 4.21353 18.5255 3.33471 17.0056C2.45588 15.4858 1.99269 13.7613 1.9917 12.0056C1.99071 10.25 2.45197 8.52497 3.32908 7.0041C4.2062 5.48323 5.46826 4.22009 6.98838 3.34167C8.50849 2.46325 10.2331 2.00052 11.9888 2C13.7444 1.99949 15.4693 2.4612 16.9899 3.33872C18.5106 4.21625 19.7734 5.47865 20.6514 6.999C20.7842 7.22847 20.8205 7.50133 20.7522 7.75755C20.6839 8.01377 20.5166 8.23236 20.2871 8.36524C20.0577 8.49811 19.7848 8.53438 19.5286 8.46607C19.2724 8.39777 19.0538 8.23047 18.9209 8.001C17.9483 6.32479 16.3995 5.05926 14.5631 4.44014C12.7266 3.82101 10.7278 3.89051 8.93879 4.63567C7.1498 5.38084 5.69266 6.75087 4.83877 8.49059C3.98487 10.2303 3.79245 12.2211 4.29734 14.0922C4.80223 15.9632 5.97001 17.587 7.58316 18.661C9.19632 19.735 11.1449 20.186 13.0659 19.93C14.9869 19.6741 16.7493 18.7286 18.025 17.2697C19.3007 15.8108 20.0026 13.938 20 12C20 11.7348 20.1054 11.4804 20.2929 11.2929C20.4804 11.1054 20.7348 11 21 11C21.2652 11 21.5196 11.1054 21.7071 11.2929C21.8946 11.4804 22 11.7348 22 12C21.997 14.6512 20.9424 17.193 19.0677 19.0677C17.193 20.9424 14.6512 21.997 12 22Z" fill="#F9CA24"/>
</g>
</g>
</svg>
