<svg width="24" height="24" viewBox="0 0 24 24" fill="none" xmlns="http://www.w3.org/2000/svg">
<g id="refresh">
<path id="primary" d="M12 15C13.6569 15 15 13.6569 15 12C15 10.3431 13.6569 9 12 9C10.3431 9 9 10.3431 9 12C9 13.6569 10.3431 15 12 15Z" fill="#F9CA24"/>
<path id="accent" d="M12 2C9.38009 2.00672 6.8671 3.03969 4.99983 4.87744V3C4.99983 2.73478 4.89447 2.48043 4.70694 2.29289C4.5194 2.10536 4.26505 2 3.99983 2C3.73461 2 3.48026 2.10536 3.29272 2.29289C3.10519 2.48043 2.99983 2.73478 2.99983 3V7.5C2.99975 7.63134 3.02557 7.76141 3.0758 7.88277C3.12602 8.00413 3.19968 8.1144 3.29255 8.20728C3.38543 8.30015 3.4957 8.37381 3.61706 8.42404C3.73842 8.47426 3.86849 8.50008 3.99983 8.5H8.49983C8.76505 8.5 9.0194 8.39464 9.20694 8.20711C9.39447 8.01957 9.49983 7.76522 9.49983 7.5C9.49983 7.23478 9.39447 6.98043 9.20694 6.79289C9.0194 6.60536 8.76505 6.5 8.49983 6.5H6.21839C7.31674 5.3374 8.73907 4.53164 10.3009 4.18722C11.8628 3.8428 13.4921 3.97561 14.9775 4.56843C16.463 5.16124 17.736 6.18672 18.6316 7.51185C19.5272 8.83698 20.0039 10.4006 20 12C20 12.2652 20.1054 12.5196 20.2929 12.7071C20.4804 12.8946 20.7348 13 21 13C21.2652 13 21.5196 12.8946 21.7071 12.7071C21.8947 12.5196 22 12.2652 22 12C21.9969 9.34879 20.9423 6.80706 19.0676 4.93237C17.1929 3.05768 14.6512 2.00311 12 2V2ZM19.9886 15.5H15.4886C15.2234 15.5 14.969 15.6054 14.7815 15.7929C14.594 15.9804 14.4886 16.2348 14.4886 16.5C14.4886 16.7652 14.594 17.0196 14.7815 17.2071C14.969 17.3946 15.2234 17.5 15.4886 17.5H17.7817C16.6833 18.6626 15.261 19.4684 13.6991 19.8128C12.1373 20.1572 10.508 20.0244 9.02252 19.4316C7.53707 18.8388 6.264 17.8133 5.36843 16.4882C4.47286 15.163 3.99611 13.5994 4.00001 12C4.00001 11.7348 3.89465 11.4804 3.70712 11.2929C3.51958 11.1054 3.26523 11 3.00001 11C2.73479 11 2.48044 11.1054 2.2929 11.2929C2.10537 11.4804 2.00001 11.7348 2.00001 12C1.99717 13.9692 2.57665 15.8954 3.66559 17.5362C4.75453 19.1769 6.3043 20.4591 8.12001 21.2214C9.93571 21.9838 11.9363 22.1922 13.8702 21.8206C15.804 21.4489 17.5848 20.5137 18.9886 19.1327V21C18.9886 21.2652 19.094 21.5196 19.2815 21.7071C19.469 21.8946 19.7234 22 19.9886 22C20.2538 22 20.5082 21.8946 20.6957 21.7071C20.8832 21.5196 20.9886 21.2652 20.9886 21V16.5C20.9887 16.3687 20.9629 16.2386 20.9126 16.1172C20.8624 15.9959 20.7887 15.8856 20.6959 15.7927C20.603 15.6999 20.4927 15.6262 20.3714 15.576C20.25 15.5257 20.1199 15.4999 19.9886 15.5V15.5Z" fill="#979797" fill-opacity="0.4"/>
</g>
</svg>
