<svg width="24" height="24" viewBox="0 0 24 24" fill="none" xmlns="http://www.w3.org/2000/svg">
<g id="repeat">
<g id="accent">
<path d="M11.4978 22C11.2326 22.0003 10.9781 21.8949 10.7908 21.707L8.29083 19.207C7.90035 18.8167 7.90019 18.1838 8.29047 17.7933C8.29035 17.7934 8.29059 17.7932 8.29047 17.7933L10.7908 15.2929C11.183 14.9041 11.8161 14.9068 12.2049 15.299C12.5914 15.6887 12.5914 16.3172 12.2049 16.707L10.4119 18.5L12.2049 20.293C12.5953 20.6836 12.5952 21.3168 12.2046 21.7072C12.0172 21.8946 11.7629 22 11.4978 22Z" fill="#979797" fill-opacity="0.4"/>
<path d="M21 4.5H19C18.4477 4.5 18 4.94772 18 5.5C18 6.05228 18.4477 6.5 19 6.5H20V17.5H11.4119L10.4119 18.5L11.4119 19.5H21C21.5522 19.5001 21.9999 19.0527 22 18.5005C22 18.5007 22 18.5004 22 18.5005V5.5C22.0002 4.94786 21.5522 4.50014 21 4.5C21.0002 4.5 20.9999 4.5 21 4.5Z" fill="#979797" fill-opacity="0.4"/>
</g>
<g id="primary">
<path d="M12.5 2C12.7653 1.9997 13.0197 2.10515 13.207 2.293L15.707 4.793C16.0975 5.18327 16.0977 5.81619 15.7074 6.20668C15.7075 6.20655 15.7073 6.2068 15.7074 6.20668L13.207 8.70706C12.814 9.09505 12.181 9.09102 11.793 8.69806C11.4085 8.30862 11.4085 7.68242 11.793 7.293L13.586 5.5L11.793 3.707C11.4025 3.31642 11.4026 2.68325 11.7932 2.29279C11.9807 2.10537 12.2349 2.00006 12.5 2Z" fill="#F9CA24"/>
<path d="M5 17.5H4V6.5H12.5859L13.586 5.5L12.5859 4.5H3C2.44786 4.49986 2.00014 4.94734 2 5.49948C2 5.49931 2 5.49965 2 5.49948V18.5C1.99986 19.0521 2.44734 19.4999 2.99948 19.5C2.99931 19.5 2.99965 19.5 2.99948 19.5H5C5.55228 19.5 6 19.0523 6 18.5C6 17.9477 5.55228 17.5 5 17.5Z" fill="#F9CA24"/>
</g>
</g>
</svg>
