<svg width="24" height="24" viewBox="0 0 24 24" fill="none" xmlns="http://www.w3.org/2000/svg">
<g id="rocket">
<path id="primary" d="M17.7366 14.6219L15.3106 16.8526C14.0631 17.94 12.5975 18.748 11.0121 19.2224L11.6558 22.2256C11.6887 22.379 11.7572 22.5224 11.8557 22.6444C11.9543 22.7664 12.0801 22.8635 12.2231 22.9279C12.3661 22.9923 12.5223 23.0222 12.6789 23.0151C12.8356 23.0081 12.9884 22.9642 13.125 22.8872L17.0303 20.6846C17.5799 20.3506 18.0093 19.8507 18.2564 19.2569C18.5036 18.6631 18.5557 18.0062 18.4053 17.3809L17.7366 14.6219ZM7.26563 8.77591L9.35432 6.29603L6.74952 5.66755C6.11626 5.44673 5.42449 5.46253 4.80197 5.71203C4.17946 5.96153 3.66826 6.42788 3.3628 7.02493L1.16261 10.9248C1.08552 11.0614 1.04164 11.2143 1.03454 11.3709C1.02743 11.5276 1.05728 11.6838 1.12169 11.8268C1.1861 11.9698 1.28325 12.0957 1.40529 12.1942C1.52733 12.2928 1.67085 12.3612 1.82423 12.394L4.89698 13.0527C5.40639 11.489 6.21041 10.0373 7.26563 8.77591ZM16.7337 8.81629C17.0304 8.81629 17.3204 8.72831 17.5671 8.56349C17.8138 8.39867 18.006 8.1644 18.1196 7.89031C18.2331 7.61622 18.2628 7.31462 18.2049 7.02365C18.147 6.73268 18.0042 6.46541 17.7944 6.25563C17.5846 6.04585 17.3173 5.90299 17.0264 5.84511C16.7354 5.78723 16.4338 5.81694 16.1597 5.93047C15.8856 6.044 15.6514 6.23626 15.4865 6.48293C15.3217 6.72961 15.2337 7.01962 15.2337 7.31629C15.2339 7.71407 15.392 8.09551 15.6732 8.37679C15.9545 8.65806 16.336 8.81614 16.7337 8.81629Z" fill="#F9CA24"/>
<path id="accent" d="M22.6011 2.062C22.5559 1.89072 22.4662 1.73448 22.3409 1.60924C22.2157 1.48399 22.0595 1.39423 21.8882 1.34911C19.8368 0.815874 17.6765 0.873053 15.6563 1.51406C13.636 2.15506 11.8379 3.3538 10.4692 4.97217L7.26562 8.77588C5.66522 10.6847 4.64996 13.015 4.3418 15.4868C4.32203 15.6387 4.33742 15.7931 4.38677 15.9382C4.43613 16.0832 4.51813 16.2149 4.62646 16.3232L7.72656 19.4233C7.81937 19.5162 7.92959 19.5899 8.0509 19.6402C8.17221 19.6905 8.30224 19.7163 8.43356 19.7163C8.46237 19.7163 8.49118 19.7149 8.52048 19.7124C11.0302 19.505 13.4086 18.5033 15.3105 16.8526L18.9736 13.4844C20.5977 12.1193 21.8008 10.3211 22.443 8.299C23.0851 6.2769 23.14 4.11403 22.6011 2.062V2.062ZM16.7337 8.81622C16.437 8.81622 16.147 8.72824 15.9003 8.56342C15.6537 8.3986 15.4614 8.16433 15.3479 7.89024C15.2343 7.61615 15.2046 7.31455 15.2625 7.02358C15.3204 6.73261 15.4633 6.46534 15.673 6.25556C15.8828 6.04578 16.1501 5.90292 16.4411 5.84504C16.732 5.78716 17.0336 5.81687 17.3077 5.9304C17.5818 6.04393 17.8161 6.23619 17.9809 6.48286C18.1457 6.72954 18.2337 7.01955 18.2337 7.31622C18.2336 7.714 18.0755 8.09545 17.7942 8.37672C17.5129 8.65799 17.1315 8.81608 16.7337 8.81622V8.81622Z" fill="#979797" fill-opacity="0.4"/>
</g>
</svg>
