<svg width="24" height="24" viewBox="0 0 24 24" fill="none" xmlns="http://www.w3.org/2000/svg">
<g id="ruler_combined">
<path id="accent" d="M21 2H3C2.86867 1.99997 2.73862 2.02581 2.61728 2.07605C2.49594 2.12629 2.38568 2.19995 2.29282 2.29282C2.19995 2.38568 2.12629 2.49594 2.07605 2.61728C2.02581 2.73862 1.99997 2.86867 2 3V21C1.99997 21.1313 2.02581 21.2614 2.07605 21.3827C2.12629 21.5041 2.19995 21.6143 2.29282 21.7072C2.38568 21.8 2.49594 21.8737 2.61728 21.9239C2.73862 21.9742 2.86867 22 3 22H9C9.13133 22 9.26138 21.9742 9.38272 21.9239C9.50406 21.8737 9.61432 21.8 9.70718 21.7072C9.80005 21.6143 9.87371 21.5041 9.92395 21.3827C9.97419 21.2614 10 21.1313 10 21V18H7C6.73478 18 6.48043 17.8946 6.29289 17.7071C6.10536 17.5196 6 17.2652 6 17C6 16.7348 6.10536 16.4804 6.29289 16.2929C6.48043 16.1054 6.73478 16 7 16H10V14H7C6.73478 14 6.48043 13.8946 6.29289 13.7071C6.10536 13.5196 6 13.2652 6 13C6 12.7348 6.10536 12.4804 6.29289 12.2929C6.48043 12.1054 6.73478 12 7 12H10V10H7C6.73478 10 6.48043 9.89464 6.29289 9.70711C6.10536 9.51957 6 9.26522 6 9C6 8.73478 6.10536 8.48043 6.29289 8.29289C6.48043 8.10536 6.73478 8 7 8H8V7C8 6.73478 8.10536 6.48043 8.29289 6.29289C8.48043 6.10536 8.73478 6 9 6C9.26522 6 9.51957 6.10536 9.70711 6.29289C9.89464 6.48043 10 6.73478 10 7V10H12V7C12 6.73478 12.1054 6.48043 12.2929 6.29289C12.4804 6.10536 12.7348 6 13 6C13.2652 6 13.5196 6.10536 13.7071 6.29289C13.8946 6.48043 14 6.73478 14 7V10H16V7C16 6.73478 16.1054 6.48043 16.2929 6.29289C16.4804 6.10536 16.7348 6 17 6C17.2652 6 17.5196 6.10536 17.7071 6.29289C17.8946 6.48043 18 6.73478 18 7V10H21C21.1313 10 21.2614 9.97419 21.3827 9.92395C21.5041 9.87371 21.6143 9.80005 21.7072 9.70718C21.8 9.61432 21.8737 9.50406 21.9239 9.38272C21.9742 9.26138 22 9.13133 22 9V3C22 2.86867 21.9742 2.73862 21.9239 2.61728C21.8737 2.49594 21.8 2.38568 21.7072 2.29282C21.6143 2.19995 21.5041 2.12629 21.3827 2.07605C21.2614 2.02581 21.1313 1.99997 21 2V2Z" fill="#979797" fill-opacity="0.4"/>
<g id="primary">
<path d="M14 10H12V7C12 6.73478 12.1054 6.48043 12.2929 6.29289C12.4804 6.10536 12.7348 6 13 6C13.2652 6 13.5196 6.10536 13.7071 6.29289C13.8946 6.48043 14 6.73478 14 7V10ZM9 6C8.73478 6 8.48043 6.10536 8.29289 6.29289C8.10536 6.48043 8 6.73478 8 7V8H7C6.73478 8 6.48043 8.10536 6.29289 8.29289C6.10536 8.48043 6 8.73478 6 9C6 9.26522 6.10536 9.51957 6.29289 9.70711C6.48043 9.89464 6.73478 10 7 10H10V7C10 6.73478 9.89464 6.48043 9.70711 6.29289C9.51957 6.10536 9.26522 6 9 6ZM10 12V14H7C6.73478 14 6.48043 13.8946 6.29289 13.7071C6.10536 13.5196 6 13.2652 6 13C6 12.7348 6.10536 12.4804 6.29289 12.2929C6.48043 12.1054 6.73478 12 7 12H10Z" fill="#F9CA24"/>
<path d="M10 12V14H7C6.73478 14 6.48043 13.8946 6.29289 13.7071C6.10536 13.5196 6 13.2652 6 13C6 12.7348 6.10536 12.4804 6.29289 12.2929C6.48043 12.1054 6.73478 12 7 12H10Z" fill="#F9CA24"/>
<path d="M10 16V18H7C6.73478 18 6.48043 17.8946 6.29289 17.7071C6.10536 17.5196 6 17.2652 6 17C6 16.7348 6.10536 16.4804 6.29289 16.2929C6.48043 16.1054 6.73478 16 7 16H10ZM18 10H16V7C16 6.73478 16.1054 6.48043 16.2929 6.29289C16.4804 6.10536 16.7348 6 17 6C17.2652 6 17.5196 6.10536 17.7071 6.29289C17.8946 6.48043 18 6.73478 18 7V10Z" fill="#F9CA24"/>
</g>
</g>
</svg>
