<svg width="24" height="24" viewBox="0 0 24 24" fill="none" xmlns="http://www.w3.org/2000/svg">
<g id="ruler">
<path id="primary" d="M10.5859 20.4854L7.05034 16.9499C6.8628 16.7623 6.75745 16.508 6.75745 16.2428C6.75745 15.9775 6.8628 15.7232 7.05034 15.5357C7.1432 15.4428 7.25344 15.3691 7.37476 15.3189C7.49609 15.2686 7.62613 15.2428 7.75745 15.2428C7.88877 15.2428 8.01881 15.2686 8.14013 15.3189C8.26146 15.3691 8.3717 15.4428 8.46456 15.5357L12.0001 19.0712L10.5859 20.4854ZM13.4143 17.657L11.293 15.5356C11.1054 15.3481 11.0001 15.0938 11.0001 14.8285C11.0001 14.5633 11.1054 14.309 11.293 14.1214C11.4805 13.9339 11.7349 13.8285 12.0001 13.8285C12.2653 13.8285 12.5197 13.9339 12.7072 14.1214L14.8285 16.2428L13.4143 17.657ZM16.2427 14.8285L12.7072 11.293C12.5197 11.1055 12.4143 10.8511 12.4143 10.5859C12.4143 10.3207 12.5197 10.0663 12.7072 9.87879C12.8947 9.69126 13.1491 9.5859 13.4143 9.5859C13.6795 9.5859 13.9339 9.69126 14.1214 9.87879L17.657 13.4143L16.2427 14.8285ZM19.0712 12.0001L16.9498 9.87879C16.7623 9.69126 16.6569 9.4369 16.6569 9.17169C16.6569 8.90647 16.7623 8.65212 16.9498 8.46458C17.1374 8.27705 17.3917 8.17169 17.6569 8.17169C17.9222 8.17169 18.1765 8.27705 18.364 8.46458L20.4854 10.5859L19.0712 12.0001Z" fill="#F9CA24"/>
<path id="accent" d="M22.6065 7.05077L16.9497 1.39354C16.8569 1.30067 16.7467 1.22699 16.6253 1.17673C16.504 1.12646 16.374 1.10059 16.2427 1.10059C16.1114 1.10059 15.9813 1.12646 15.86 1.17673C15.7387 1.22699 15.6285 1.30067 15.5356 1.39354L1.39355 15.5352C1.30067 15.628 1.227 15.7382 1.17673 15.8595C1.12646 15.9808 1.10059 16.1109 1.10059 16.2422C1.10059 16.3735 1.12646 16.5035 1.17673 16.6248C1.227 16.7462 1.30067 16.8564 1.39355 16.9492L7.05029 22.6064C7.14313 22.6993 7.25335 22.773 7.37466 22.8233C7.49598 22.8735 7.62601 22.8994 7.75733 22.8994C7.88864 22.8994 8.01867 22.8735 8.13999 22.8233C8.2613 22.773 8.37153 22.6993 8.46436 22.6064L10.5857 20.4852L7.05035 16.9498C6.95749 16.857 6.88384 16.7467 6.83358 16.6254C6.78333 16.5041 6.75747 16.374 6.75747 16.2427C6.75747 16.1114 6.78334 15.9813 6.8336 15.86C6.88386 15.7387 6.95752 15.6285 7.05038 15.5356C7.14324 15.4427 7.25348 15.3691 7.37481 15.3188C7.49614 15.2686 7.62618 15.2427 7.7575 15.2427C7.88882 15.2427 8.01886 15.2686 8.14018 15.3189C8.26151 15.3691 8.37174 15.4428 8.4646 15.5356L11.9999 19.071L13.4142 17.6568L11.293 15.5356C11.1062 15.348 11.0014 15.0938 11.0017 14.829C11.002 14.5642 11.1073 14.3103 11.2946 14.123C11.4818 13.9357 11.7357 13.8304 12.0005 13.8301C12.2654 13.8298 12.5195 13.9346 12.7072 14.1214L14.8284 16.2426L16.2426 14.8284L12.7072 11.293C12.5197 11.1055 12.4143 10.8511 12.4143 10.5859C12.4143 10.3207 12.5197 10.0663 12.7072 9.87877C12.8948 9.69124 13.1491 9.58589 13.4144 9.58589C13.6796 9.5859 13.9339 9.69126 14.1215 9.8788L17.6569 13.4143L19.0711 12.0001L16.9498 9.87877C16.7623 9.69123 16.6569 9.43688 16.6569 9.17165C16.6569 8.90643 16.7623 8.65207 16.9498 8.46453C17.1374 8.27699 17.3917 8.17164 17.657 8.17164C17.9222 8.17164 18.1765 8.27699 18.3641 8.46453L20.4854 10.5859L22.6064 8.46487C22.6993 8.37204 22.773 8.26182 22.8233 8.1405C22.8735 8.01919 22.8994 7.88915 22.8994 7.75783C22.8994 7.62651 22.8736 7.49648 22.8233 7.37516C22.773 7.25384 22.6993 7.14361 22.6065 7.05077V7.05077Z" fill="#979797" fill-opacity="0.4"/>
</g>
</svg>
