<svg width="24" height="24" viewBox="0 0 24 24" fill="none" xmlns="http://www.w3.org/2000/svg">
<g id="sanitizer">
<path id="accent" d="M10 3V5.50006L10.3999 5.2002C10.573 5.07033 10.7836 5.00009 11 5H15C15.2164 5.00009 15.427 5.07033 15.6001 5.2002L16 5.50012V3H10Z" fill="#979797" fill-opacity="0.4"/>
<g id="primary">
<path d="M13 17C14.1045 17 15 16.1046 15 15C15 13.8954 14.1045 13 13 13C11.8954 13 11 13.8954 11 15C11 16.1046 11.8954 17 13 17Z" fill="#F9CA24"/>
<path d="M4.99997 5.00002C4.80222 4.99998 4.60892 4.9413 4.44451 4.83142C4.2801 4.72154 4.15196 4.56537 4.07629 4.38267C4.00062 4.19997 3.98082 3.99894 4.01939 3.80499C4.05795 3.61103 4.15316 3.43287 4.29297 3.29302L5.12158 2.46441C5.58473 1.99869 6.13565 1.62946 6.74246 1.3781C7.34926 1.12674 7.9999 0.998229 8.65671 1.00002H17C17.2652 1.00002 17.5195 1.10538 17.7071 1.29291C17.8946 1.48045 18 1.7348 18 2.00002C18 2.26523 17.8946 2.51959 17.7071 2.70713C17.5195 2.89466 17.2652 3.00002 17 3.00002H8.65671C7.86165 3.0024 7.09956 3.31801 6.53561 3.87844L5.70697 4.70702C5.61424 4.80003 5.50404 4.87379 5.38271 4.92408C5.26138 4.97436 5.13131 5.00017 4.99997 5.00002Z" fill="#F9CA24"/>
<path d="M13 18C12.4066 18 11.8266 17.8241 11.3333 17.4944C10.8399 17.1648 10.4554 16.6962 10.2283 16.1481C10.0013 15.5999 9.94186 14.9967 10.0576 14.4147C10.1734 13.8328 10.4591 13.2983 10.8786 12.8787C11.2982 12.4591 11.8328 12.1734 12.4147 12.0577C12.9966 11.9419 13.5998 12.0013 14.148 12.2284C14.6962 12.4554 15.1647 12.84 15.4944 13.3333C15.824 13.8267 16 14.4067 16 15C15.9991 15.7954 15.6828 16.558 15.1203 17.1204C14.5579 17.6828 13.7954 17.9991 13 18Z" fill="#F9CA24"/>
</g>
<path id="primary_2" d="M18.8003 7.6001L15.6001 5.2002C15.427 5.07033 15.2164 5.00009 15 5H11C10.7836 5.00009 10.573 5.07033 10.3999 5.2002L7.19922 7.6001C6.82768 7.88045 6.52608 8.24299 6.31803 8.65935C6.10998 9.0757 6.00113 9.53456 6 10V22C6 22.2652 6.10536 22.5196 6.29289 22.7071C6.48043 22.8946 6.73478 23 7 23H19C19.2652 23 19.5196 22.8946 19.7071 22.7071C19.8946 22.5196 20 22.2652 20 22V10C19.9989 9.53451 19.89 9.07559 19.6818 8.65923C19.4737 8.24286 19.172 7.88035 18.8003 7.6001ZM13 18C12.4067 18 11.8266 17.8241 11.3333 17.4944C10.8399 17.1648 10.4554 16.6962 10.2284 16.1481C10.0013 15.5999 9.94189 14.9967 10.0576 14.4147C10.1734 13.8328 10.4591 13.2982 10.8787 12.8787C11.2982 12.4591 11.8328 12.1734 12.4147 12.0576C12.9967 11.9419 13.5999 12.0013 14.1481 12.2284C14.6962 12.4554 15.1648 12.8399 15.4944 13.3333C15.8241 13.8266 16 14.4067 16 15C15.9991 15.7954 15.6828 16.5579 15.1204 17.1204C14.5579 17.6828 13.7954 17.9991 13 18Z" fill="#F9CA24" fill-opacity="0.4"/>
</g>
</svg>
