<svg width="24" height="24" viewBox="0 0 24 24" fill="none" xmlns="http://www.w3.org/2000/svg">
<g id="sanitizer_alt">
<path id="accent" d="M12 3.00003V4.00003H14V3.00003H15C15.2652 3.00003 15.5196 2.89467 15.7071 2.70713C15.8946 2.5196 16 2.26524 16 2.00003C16 1.73481 15.8946 1.48046 15.7071 1.29292C15.5196 1.10538 15.2652 1.00003 15 1.00003H10.2358C9.37764 0.99715 8.53579 1.23478 7.80576 1.68597C7.07572 2.13716 6.4867 2.78386 6.10547 3.55276C5.9876 3.78991 5.9686 4.06414 6.05264 4.31529C6.13669 4.56644 6.31692 4.77399 6.5538 4.89243C6.79067 5.01087 7.06486 5.03052 7.3162 4.94707C7.56755 4.86363 7.77553 4.68389 7.89453 4.4473C8.11058 4.01139 8.44446 3.64475 8.85828 3.38894C9.27211 3.13313 9.74934 2.9984 10.2358 3.00003H12Z" fill="#979797" fill-opacity="0.4"/>
<path id="primary" d="M16 5C16 4.73478 15.8946 4.48043 15.7071 4.29289C15.5196 4.10536 15.2652 4 15 4H11C10.7348 4 10.4804 4.10536 10.2929 4.29289C10.1054 4.48043 10 4.73478 10 5V8H16V5ZM14 17H12C11.7348 17 11.4804 16.8946 11.2929 16.7071C11.1054 16.5196 11 16.2652 11 16C11 15.7348 11.1054 15.4804 11.2929 15.2929C11.4804 15.1054 11.7348 15 12 15H14C14.2652 15 14.5196 15.1054 14.7071 15.2929C14.8946 15.4804 15 15.7348 15 16C15 16.2652 14.8946 16.5196 14.7071 16.7071C14.5196 16.8946 14.2652 17 14 17Z" fill="#F9CA24"/>
<path id="primary_2" d="M16 8H10C9.20462 8.00087 8.44206 8.31722 7.87964 8.87964C7.31722 9.44206 7.00087 10.2046 7 11V20C7.00087 20.7954 7.31722 21.5579 7.87964 22.1204C8.44206 22.6828 9.20462 22.9991 10 23H16C16.7954 22.9991 17.5579 22.6828 18.1204 22.1204C18.6828 21.5579 18.9991 20.7954 19 20V11C18.9991 10.2046 18.6828 9.44206 18.1204 8.87964C17.5579 8.31722 16.7954 8.00087 16 8ZM14 17H12C11.7348 17 11.4804 16.8946 11.2929 16.7071C11.1054 16.5196 11 16.2652 11 16C11 15.7348 11.1054 15.4804 11.2929 15.2929C11.4804 15.1054 11.7348 15 12 15H14C14.2652 15 14.5196 15.1054 14.7071 15.2929C14.8946 15.4804 15 15.7348 15 16C15 16.2652 14.8946 16.5196 14.7071 16.7071C14.5196 16.8946 14.2652 17 14 17Z" fill="#F9CA24" fill-opacity="0.4"/>
</g>
</svg>
