<svg width="24" height="25" viewBox="0 0 24 25" fill="none" xmlns="http://www.w3.org/2000/svg">
<g id="scenary">
<g id="Group 7">
<path id="accent" d="M11.8625 9.22174C11.9837 7.24943 13.3561 5.84367 15.0436 4.8257C14.5649 4.60151 14.3408 4.15313 14.0378 3.75624C12.2321 1.4022 9.86292 0.114599 6.8878 0.711441C3.87026 1.31737 1.84947 3.18363 1.17689 6.30114C0.655786 8.71881 0.822434 11.185 1.00421 13.5966C1.23144 16.605 4.05809 19.2408 6.87567 19.5105C6.89385 17.7654 6.92719 16.0233 6.92416 14.2813C6.92113 13.3754 7.17864 12.6059 8.20266 12.6513C9.12368 12.6937 9.34183 13.4421 9.33577 14.2813C9.32971 16.0233 9.36303 17.7684 9.3812 19.5105C10.6506 19.5892 11.5686 18.7288 12.6411 18.2835C11.1778 15.372 11.6777 12.2544 11.8625 9.22174Z" fill="#979797" fill-opacity="0.4"/>
<path id="accent_2" d="M23.7145 10.6911C23.7599 5.74369 19.6184 2.97458 15.0466 4.8257C13.3591 5.84064 11.9867 7.2464 11.8655 9.22174C11.6807 12.2544 11.1777 15.375 12.6441 18.2865C13.6136 19.5832 14.8376 20.4799 16.4705 20.7375C16.4918 18.6409 16.5251 16.5444 16.5281 14.4479C16.5281 13.5178 16.6705 12.615 17.8066 12.6634C18.8307 12.7089 18.9428 13.5814 18.9397 14.4479C18.9367 16.5444 18.9731 18.6409 18.9943 20.7375C21.2029 20.3285 22.6511 19.0439 23.3691 16.9292C24.0629 14.8842 23.6963 12.7725 23.7145 10.6911Z" fill="#979797" fill-opacity="0.7"/>
<g id="primary">
<path d="M8.20571 12.6543C7.18169 12.6089 6.92418 13.3784 6.92721 14.2843C6.93024 16.0263 6.8969 17.7714 6.87872 19.5135C6.8969 20.7041 6.93024 21.8978 6.92721 23.0885C6.92721 23.8913 7.23017 24.5184 8.05726 24.5578C8.98131 24.6033 9.32973 23.958 9.33276 23.0885C9.33882 21.8978 9.36608 20.7041 9.38426 19.5135C9.36608 17.7684 9.32971 16.0263 9.3388 14.2843C9.34183 13.4451 9.1237 12.6967 8.20571 12.6543Z" fill="#FFD740"/>
<path d="M17.8067 12.6634C16.6706 12.6149 16.5282 13.5178 16.5282 14.4479C16.5282 16.5444 16.4918 18.6409 16.4706 20.7375C16.4918 21.5767 16.5161 22.4128 16.5373 23.2521C16.5555 23.9974 16.922 24.5276 17.6613 24.5639C18.4884 24.6063 18.9004 24.064 18.9307 23.2521C18.961 22.4159 18.9762 21.5767 18.9974 20.7375C18.9762 18.6409 18.9398 16.5444 18.9428 14.4479C18.9398 13.5814 18.8277 12.7089 17.8067 12.6634Z" fill="#FFD740"/>
</g>
</g>
</g>
</svg>
