<svg width="25" height="25" viewBox="0 0 25 25" fill="none" xmlns="http://www.w3.org/2000/svg">
<g id="search">
<g id="Group 8">
<path id="accent" d="M23.4 19.1977C22.2828 17.9958 21.1203 16.8303 19.9093 15.7222C18.9739 14.8624 17.8628 14.4992 16.6125 15.0956C15.7133 15.2348 15.2229 15.7858 15.0533 16.6517C14.46 17.899 14.8142 19.007 15.68 19.9425C16.7941 21.1474 17.9597 22.3099 19.1616 23.427C20.5572 24.7228 22.1647 24.6955 23.4151 23.4452C24.6654 22.1979 24.6957 20.5964 23.4 19.1977Z" fill="#979797" fill-opacity="0.7"/>
<g id="primary">
<path d="M15.6286 13.9421C15.8617 13.3972 16.0766 12.8401 16.3339 12.3043C17.8446 9.183 17.3088 6.23126 15.3228 3.58832C12.701 0.103757 7.93287 -0.535024 4.0275 1.88086C0.845679 3.84868 -0.543922 8.43522 0.984926 11.9137C2.79835 16.0401 7.00949 18.1018 11.1571 16.8393C12.1016 16.5517 12.9856 16.0643 13.8969 15.6677C14.348 14.9684 14.9232 14.3902 15.6286 13.9421ZM8.61401 14.8776C5.69255 14.7656 2.72569 12.1347 2.75596 8.72585C2.78018 5.69843 5.741 2.79211 8.77448 2.8133C12.0441 2.83449 15.0957 5.69238 14.7627 8.91658C15.1563 11.5837 11.9775 15.0078 8.61401 14.8776Z" fill="#FFD740"/>
<path d="M16.6125 15.0955C16.2855 14.7111 15.9555 14.3266 15.6286 13.9421C14.9262 14.3902 14.348 14.9684 13.8969 15.6707C14.2814 15.9977 14.6658 16.3247 15.0534 16.6547C15.2229 15.7858 15.7133 15.2348 16.6125 15.0955Z" fill="#FFD740"/>
</g>
<path id="accent_2" d="M14.7627 8.91657C15.0988 5.69539 12.0471 2.83751 8.7745 2.81329C5.74102 2.79209 2.7802 5.69842 2.75598 8.72584C2.72874 12.1347 5.69258 14.7625 8.61404 14.8776C11.9775 15.0077 15.1563 11.5837 14.7627 8.91657Z" fill="#979797" fill-opacity="0.4"/>
</g>
</g>
</svg>
