<svg width="24" height="24" viewBox="0 0 24 24" fill="none" xmlns="http://www.w3.org/2000/svg">
<g id="shield_plus">
<path id="primary" d="M14 11H13V10C13 9.73478 12.8946 9.48043 12.7071 9.29289C12.5196 9.10536 12.2652 9 12 9C11.7348 9 11.4804 9.10536 11.2929 9.29289C11.1054 9.48043 11 9.73478 11 10V11H10C9.73478 11 9.48043 11.1054 9.29289 11.2929C9.10536 11.4804 9 11.7348 9 12C9 12.2652 9.10536 12.5196 9.29289 12.7071C9.48043 12.8946 9.73478 13 10 13H11V14C11 14.2652 11.1054 14.5196 11.2929 14.7071C11.4804 14.8946 11.7348 15 12 15C12.2652 15 12.5196 14.8946 12.7071 14.7071C12.8946 14.5196 13 14.2652 13 14V13H14C14.2652 13 14.5196 12.8946 14.7071 12.7071C14.8946 12.5196 15 12.2652 15 12C15 11.7348 14.8946 11.4804 14.7071 11.2929C14.5196 11.1054 14.2652 11 14 11Z" fill="#F9CA24"/>
<path id="accent" d="M19.6309 3.6499C19.5153 3.55619 19.3803 3.48938 19.2357 3.45433C19.0911 3.41928 18.9406 3.41687 18.7949 3.44727C17.7262 3.67292 16.6225 3.67689 15.5522 3.45895C14.4819 3.241 13.4677 2.80577 12.5723 2.18018C12.4045 2.0629 12.2047 2 12 2C11.7953 2 11.5955 2.0629 11.4277 2.18018C10.5325 2.80603 9.51824 3.24141 8.44787 3.45936C7.37751 3.67732 6.27379 3.6732 5.20508 3.44727C5.05949 3.41671 4.90892 3.41903 4.76433 3.45405C4.61975 3.48908 4.48481 3.55593 4.36935 3.64973C4.25389 3.74353 4.16081 3.86192 4.09692 3.99626C4.03302 4.1306 3.99991 4.27751 4 4.42627V11.8833C4.00148 13.3156 4.34406 14.7269 4.9994 16.0005C5.65474 17.274 6.60398 18.3732 7.76855 19.207L11.419 21.814C11.5886 21.935 11.7917 22 12 22C12.2084 22 12.4115 21.935 12.5811 21.814L16.2315 19.2066C17.3961 18.3729 18.3454 17.2738 19.0007 16.0003C19.656 14.7268 19.9986 13.3155 20 11.8833V4.4263C20 4.2776 19.9669 4.13076 19.903 3.99646C19.8392 3.86216 19.7462 3.74377 19.6309 3.6499ZM14 13H13V14C13 14.2652 12.8946 14.5196 12.7071 14.7071C12.5196 14.8946 12.2652 15 12 15C11.7348 15 11.4804 14.8946 11.2929 14.7071C11.1054 14.5196 11 14.2652 11 14V13H10C9.73478 13 9.48043 12.8946 9.29289 12.7071C9.10536 12.5196 9 12.2652 9 12C9 11.7348 9.10536 11.4804 9.29289 11.2929C9.48043 11.1054 9.73478 11 10 11H11V10C11 9.73478 11.1054 9.48043 11.2929 9.29289C11.4804 9.10536 11.7348 9 12 9C12.2652 9 12.5196 9.10536 12.7071 9.29289C12.8946 9.48043 13 9.73478 13 10V11H14C14.2652 11 14.5196 11.1054 14.7071 11.2929C14.8946 11.4804 15 11.7348 15 12C15 12.2652 14.8946 12.5196 14.7071 12.7071C14.5196 12.8946 14.2652 13 14 13Z" fill="#979797" fill-opacity="0.4"/>
</g>
</svg>
