<svg width="24" height="24" viewBox="0 0 24 24" fill="none" xmlns="http://www.w3.org/2000/svg">
<g id="sign_out_alt">
<path id="primary" d="M15.707 11.293L11.707 7.29302C11.5189 7.10831 11.2655 7.00535 11.0019 7.00654C10.7383 7.00773 10.4858 7.11299 10.2994 7.29939C10.113 7.4858 10.0077 7.73828 10.0065 8.00189C10.0053 8.26551 10.1083 8.51893 10.293 8.70702L12.5859 11H2.05C2.02 11.33 2 11.66 2 12C2 12.34 2.02 12.67 2.05 13H12.586L10.293 15.293C10.1988 15.3856 10.1238 15.4958 10.0724 15.6175C10.0211 15.7392 9.99431 15.8698 9.99372 16.0019C9.99312 16.134 10.0187 16.2648 10.069 16.387C10.1192 16.5091 10.1932 16.6201 10.2866 16.7134C10.38 16.8068 10.4909 16.8808 10.613 16.9311C10.7352 16.9813 10.8661 17.0069 10.9981 17.0063C11.1302 17.0057 11.2608 16.9789 11.3825 16.9276C11.5042 16.8762 11.6145 16.8012 11.707 16.707L15.707 12.707C15.7999 12.6142 15.8735 12.504 15.9238 12.3827C15.9741 12.2614 15.9999 12.1313 15.9999 12C15.9999 11.8687 15.9741 11.7387 15.9238 11.6174C15.8735 11.4961 15.7999 11.3858 15.707 11.293Z" fill="#F9CA24"/>
<path id="accent" d="M12 2C9.52105 2.00018 7.13052 2.92107 5.29211 4.58403C3.45371 6.24699 2.29846 8.53349 2.05048 11H12.5859L10.293 8.707C10.1083 8.51891 10.0053 8.26549 10.0065 8.00188C10.0077 7.73826 10.113 7.48578 10.2994 7.29937C10.4858 7.11297 10.7383 7.00772 11.0019 7.00652C11.2655 7.00533 11.5189 7.10829 11.707 7.293L15.707 11.293C15.7999 11.3858 15.8736 11.4961 15.9238 11.6174C15.9741 11.7387 16 11.8687 16 12C16 12.1313 15.9741 12.2614 15.9238 12.3827C15.8736 12.504 15.7999 12.6142 15.707 12.7071L11.707 16.7071C11.5191 16.8926 11.2654 16.9963 11.0013 16.9955C10.7372 16.9946 10.4841 16.8893 10.2974 16.7026C10.1107 16.5158 10.0054 16.2628 10.0046 15.9987C10.0037 15.7346 10.1074 15.4809 10.293 15.293L12.5859 13H2.05048C2.24403 14.9254 2.99209 16.7534 4.20395 18.2621C5.4158 19.7708 7.03938 20.8954 8.87777 21.4997C10.7162 22.1039 12.6904 22.1618 14.561 21.6662C16.4316 21.1706 18.1182 20.143 19.4164 18.7078C20.7145 17.2726 21.5683 15.4916 21.8742 13.5808C22.1802 11.67 21.9251 9.7115 21.14 7.94278C20.3549 6.17405 19.0735 4.67113 17.4511 3.61628C15.8287 2.56142 13.9351 1.99997 12 2V2Z" fill="#979797" fill-opacity="0.4"/>
</g>
</svg>
