<svg width="24" height="24" viewBox="0 0 24 24" fill="none" xmlns="http://www.w3.org/2000/svg">
<g id="sign_in">
<path id="primary" d="M20 11H11.414L13.707 8.70702C13.8926 8.5191 13.9963 8.2654 13.9954 8.0013C13.9946 7.7372 13.8893 7.48416 13.7026 7.29742C13.5158 7.11068 13.2628 7.00541 12.9987 7.00458C12.7346 7.00376 12.4809 7.10745 12.293 7.29302L8.29297 11.293C8.20009 11.3858 8.12641 11.4961 8.07614 11.6174C8.02587 11.7387 8 11.8687 8 12C8 12.1314 8.02587 12.2614 8.07614 12.3827C8.12641 12.504 8.20009 12.6142 8.29297 12.7071L12.293 16.7071C12.4809 16.8926 12.7346 16.9963 12.9987 16.9955C13.2628 16.9946 13.5158 16.8894 13.7026 16.7026C13.8893 16.5159 13.9946 16.2628 13.9954 15.9987C13.9962 15.7346 13.8925 15.4809 13.707 15.293L11.414 13H20V11Z" fill="#F9CA24"/>
<path id="accent" d="M11.4141 11H20V5C19.9991 4.20462 19.6828 3.44206 19.1204 2.87964C18.5579 2.31722 17.7954 2.00087 17 2H7C6.20462 2.00087 5.44206 2.31722 4.87964 2.87964C4.31722 3.44206 4.00087 4.20462 4 5V19C4.00087 19.7954 4.31722 20.5579 4.87964 21.1204C5.44206 21.6828 6.20462 21.9991 7 22H17C17.7954 21.9991 18.5579 21.6828 19.1204 21.1204C19.6828 20.5579 19.9991 19.7954 20 19V13H11.4141L13.7071 15.293C13.8009 15.3856 13.8754 15.4959 13.9264 15.6175C13.9775 15.739 14.004 15.8695 14.0044 16.0013C14.0048 16.1332 13.9791 16.2638 13.9289 16.3857C13.8786 16.5075 13.8047 16.6183 13.7115 16.7115C13.6183 16.8047 13.5075 16.8786 13.3856 16.9288C13.2638 16.9791 13.1331 17.0048 13.0013 17.0043C12.8695 17.0039 12.739 16.9774 12.6175 16.9264C12.4959 16.8754 12.3856 16.8008 12.293 16.707L8.293 12.707C8.20012 12.6142 8.12644 12.5039 8.07617 12.3826C8.0259 12.2613 8.00003 12.1313 8.00003 12C8.00003 11.8687 8.0259 11.7386 8.07617 11.6173C8.12644 11.496 8.20012 11.3858 8.293 11.2929L12.293 7.29294C12.4809 7.10738 12.7346 7.0037 12.9987 7.00453C13.2628 7.00537 13.5159 7.11066 13.7026 7.29741C13.8893 7.48415 13.9946 7.7372 13.9954 8.00129C13.9963 8.26539 13.8926 8.51909 13.707 8.707L11.4141 11Z" fill="#979797" fill-opacity="0.4"/>
</g>
</svg>
