<svg width="24" height="24" viewBox="0 0 24 24" fill="none" xmlns="http://www.w3.org/2000/svg">
<g id="signal_alt">
<path id="primary" d="M5 22C4.86867 22 4.73862 21.9742 4.61728 21.9239C4.49594 21.8737 4.38568 21.8 4.29282 21.7072C4.19995 21.6143 4.12629 21.5041 4.07605 21.3827C4.02581 21.2614 3.99997 21.1313 4 21V19C4 18.7348 4.10536 18.4804 4.29289 18.2929C4.48043 18.1054 4.73478 18 5 18C5.26522 18 5.51957 18.1054 5.70711 18.2929C5.89464 18.4804 6 18.7348 6 19V21C6.00003 21.1313 5.97419 21.2614 5.92395 21.3827C5.87371 21.5041 5.80005 21.6143 5.70718 21.7072C5.61432 21.8 5.50406 21.8737 5.38272 21.9239C5.26138 21.9742 5.13133 22 5 22ZM10 22C9.86867 22 9.73862 21.9742 9.61728 21.9239C9.49593 21.8737 9.38568 21.8 9.29282 21.7072C9.19995 21.6143 9.12629 21.5041 9.07605 21.3827C9.02581 21.2614 8.99997 21.1313 9 21V15C9 14.7348 9.10536 14.4804 9.29289 14.2929C9.48043 14.1054 9.73478 14 10 14C10.2652 14 10.5196 14.1054 10.7071 14.2929C10.8946 14.4804 11 14.7348 11 15V21C11 21.1313 10.9742 21.2614 10.9239 21.3827C10.8737 21.5041 10.8 21.6143 10.7072 21.7072C10.6143 21.8 10.5041 21.8737 10.3827 21.9239C10.2614 21.9742 10.1313 22 10 22ZM15 22C14.8687 22 14.7386 21.9742 14.6173 21.9239C14.4959 21.8737 14.3857 21.8 14.2928 21.7072C14.2 21.6143 14.1263 21.5041 14.0761 21.3827C14.0258 21.2614 14 21.1313 14 21V10C14 9.73478 14.1054 9.48043 14.2929 9.29289C14.4804 9.10536 14.7348 9 15 9C15.2652 9 15.5196 9.10536 15.7071 9.29289C15.8946 9.48043 16 9.73478 16 10V21C16 21.1313 15.9742 21.2614 15.9239 21.3827C15.8737 21.5041 15.8 21.6143 15.7072 21.7072C15.6143 21.8 15.5041 21.8737 15.3827 21.9239C15.2614 21.9742 15.1313 22 15 22ZM20 22C19.8687 22 19.7386 21.9742 19.6173 21.9239C19.4959 21.8737 19.3857 21.8 19.2928 21.7072C19.2 21.6143 19.1263 21.5041 19.0761 21.3827C19.0258 21.2614 19 21.1313 19 21V3C19 2.73478 19.1054 2.48043 19.2929 2.29289C19.4804 2.10536 19.7348 2 20 2C20.2652 2 20.5196 2.10536 20.7071 2.29289C20.8946 2.48043 21 2.73478 21 3V21C21 21.1313 20.9742 21.2614 20.9239 21.3827C20.8737 21.5041 20.8 21.6143 20.7072 21.7072C20.6143 21.8 20.5041 21.8737 20.3827 21.9239C20.2614 21.9742 20.1313 22 20 22Z" fill="#F9CA24"/>
</g>
</svg>
