<svg width="24" height="24" viewBox="0 0 24 24" fill="none" xmlns="http://www.w3.org/2000/svg">
<g id="signal_alt_3">
<path id="primary" d="M6 23H2C1.86867 23 1.73862 22.9742 1.61728 22.9239C1.49594 22.8737 1.38568 22.8 1.29282 22.7072C1.19995 22.6143 1.12629 22.5041 1.07605 22.3827C1.02581 22.2614 0.999966 22.1313 1 22V16C0.999966 15.8687 1.02581 15.7386 1.07605 15.6173C1.12629 15.4959 1.19995 15.3857 1.29282 15.2928C1.38568 15.2 1.49594 15.1263 1.61728 15.0761C1.73862 15.0258 1.86867 15 2 15H6C6.13133 15 6.26138 15.0258 6.38272 15.0761C6.50407 15.1263 6.61432 15.2 6.70718 15.2928C6.80005 15.3857 6.87371 15.4959 6.92395 15.6173C6.97419 15.7386 7.00003 15.8687 7 16V22C7.00003 22.1313 6.97419 22.2614 6.92395 22.3827C6.87371 22.5041 6.80005 22.6143 6.70718 22.7072C6.61432 22.8 6.50407 22.8737 6.38272 22.9239C6.26138 22.9742 6.13133 23 6 23Z" fill="#F9CA24" fill-opacity="0.4"/>
<path id="accent" d="M14 23H10C9.86867 23 9.73862 22.9742 9.61728 22.9239C9.49594 22.8737 9.38568 22.8 9.29282 22.7072C9.19995 22.6143 9.12629 22.5041 9.07605 22.3827C9.02581 22.2614 8.99997 22.1313 9 22V10C8.99997 9.86867 9.02581 9.73862 9.07605 9.61728C9.12629 9.49594 9.19995 9.38568 9.29282 9.29282C9.38568 9.19995 9.49594 9.12629 9.61728 9.07605C9.73862 9.02581 9.86867 8.99997 10 9H14C14.1313 8.99997 14.2614 9.02581 14.3827 9.07605C14.5041 9.12629 14.6143 9.19995 14.7072 9.29282C14.8 9.38568 14.8737 9.49594 14.9239 9.61728C14.9742 9.73862 15 9.86867 15 10V22C15 22.1313 14.9742 22.2614 14.9239 22.3827C14.8737 22.5041 14.8 22.6143 14.7072 22.7072C14.6143 22.8 14.5041 22.8737 14.3827 22.9239C14.2614 22.9742 14.1313 23 14 23V23Z" fill="#979797" fill-opacity="0.4"/>
<path id="primary_2" d="M22 23H18C17.8687 23 17.7386 22.9742 17.6173 22.9239C17.4959 22.8737 17.3857 22.8 17.2928 22.7072C17.2 22.6143 17.1263 22.5041 17.0761 22.3827C17.0258 22.2614 17 22.1313 17 22V2C17 1.86867 17.0258 1.73862 17.0761 1.61728C17.1263 1.49594 17.2 1.38568 17.2928 1.29282C17.3857 1.19995 17.4959 1.12629 17.6173 1.07605C17.7386 1.02581 17.8687 0.999966 18 1H22C22.1313 0.999966 22.2614 1.02581 22.3827 1.07605C22.5041 1.12629 22.6143 1.19995 22.7072 1.29282C22.8 1.38568 22.8737 1.49594 22.9239 1.61728C22.9742 1.73862 23 1.86867 23 2V22C23 22.1313 22.9742 22.2614 22.9239 22.3827C22.8737 22.5041 22.8 22.6143 22.7072 22.7072C22.6143 22.8 22.5041 22.8737 22.3827 22.9239C22.2614 22.9742 22.1313 23 22 23Z" fill="#F9CA24"/>
</g>
</svg>
