<svg width="24" height="24" viewBox="0 0 24 24" fill="none" xmlns="http://www.w3.org/2000/svg">
<g id="sign_in_alt">
<path id="primary" d="M21 12C21 11.66 20.98 11.33 20.95 11H12.5V9.49997C12.5 9.30221 12.4413 9.10888 12.3315 8.94444C12.2216 8.78 12.0654 8.65184 11.8827 8.57616C11.7 8.50049 11.4989 8.48069 11.3049 8.51928C11.111 8.55788 10.9328 8.65312 10.793 8.79298L8.29297 11.293C8.20009 11.3858 8.12641 11.496 8.07614 11.6173C8.02587 11.7387 8 11.8687 8 12C8 12.1313 8.02587 12.2614 8.07614 12.3827C8.12641 12.504 8.20009 12.6142 8.29297 12.707L10.793 15.207C10.9328 15.3469 11.111 15.4421 11.305 15.4807C11.4989 15.5193 11.7 15.4995 11.8827 15.4238C12.0654 15.3482 12.2216 15.22 12.3315 15.0555C12.4413 14.8911 12.5 14.6977 12.5 14.5V13H20.95C20.98 12.67 21 12.34 21 12Z" fill="#F9CA24"/>
<path id="accent" d="M12.5 13V14.5C12.5 14.6978 12.4414 14.8911 12.3315 15.0556C12.2216 15.22 12.0654 15.3482 11.8827 15.4239C11.7 15.4995 11.4989 15.5193 11.305 15.4807C11.111 15.4421 10.9328 15.3469 10.793 15.207L8.29299 12.707C8.20011 12.6142 8.12643 12.504 8.07616 12.3826C8.02589 12.2613 8.00001 12.1313 8.00001 12C8.00001 11.8687 8.02589 11.7386 8.07616 11.6173C8.12643 11.496 8.20011 11.3858 8.29299 11.293L10.793 8.79295C10.9328 8.65309 11.111 8.55785 11.305 8.51926C11.4989 8.48067 11.7 8.50047 11.8827 8.57615C12.0654 8.65183 12.2216 8.78001 12.3315 8.94445C12.4414 9.1089 12.5 9.30224 12.5 9.50001V11H20.9495C20.693 8.44737 19.4652 6.09098 17.52 4.41817C15.5749 2.74536 13.0613 1.88411 10.499 2.01255C7.93673 2.14099 5.52182 3.24928 3.75373 5.10821C1.98564 6.96715 0.999634 9.43451 0.999634 12C0.999634 14.5655 1.98564 17.0329 3.75373 18.8918C5.52182 20.7507 7.93673 21.859 10.499 21.9875C13.0613 22.1159 15.5749 21.2547 17.52 19.5819C19.4652 17.909 20.693 15.5526 20.9495 13H12.5Z" fill="#979797" fill-opacity="0.4"/>
</g>
</svg>
