<svg width="24" height="24" viewBox="0 0 24 24" fill="none" xmlns="http://www.w3.org/2000/svg">
<g id="skype">
<path id="accent" d="M16.4396 15.9931C16.0258 16.5479 15.462 16.9728 14.8148 17.2178C14.0138 17.5367 13.1562 17.6888 12.2944 17.6649C11.2934 17.6974 10.2993 17.4875 9.3968 17.0532C8.86892 16.772 8.41633 16.368 8.07716 15.8754C7.77608 15.4636 7.60414 14.9717 7.58316 14.462C7.57836 14.1998 7.69071 13.9491 7.88962 13.7782C8.10134 13.5858 8.3802 13.4843 8.66605 13.4957C8.89727 13.4861 9.12395 13.5618 9.30305 13.7084C9.49955 13.8917 9.65234 14.1167 9.75013 14.367C9.87111 14.6808 10.038 14.9748 10.2453 15.2396C10.4349 15.4884 10.6865 15.6832 10.9749 15.8045C11.3696 15.9708 11.7953 16.0511 12.2236 16.04C12.8294 16.0732 13.4305 15.9169 13.9434 15.5929C14.3462 15.3575 14.5965 14.9285 14.6032 14.462C14.6169 14.1341 14.4881 13.8164 14.2499 13.5907C13.9905 13.345 13.6748 13.1667 13.3304 13.0714C12.9543 12.9537 12.4351 12.8359 11.7993 12.6953C11.0692 12.5408 10.3526 12.3282 9.65638 12.0595C9.12125 11.845 8.65056 11.4961 8.28987 11.0463C7.9487 10.5927 7.77389 10.0355 7.79475 9.46828C7.79408 8.88914 7.98462 8.32598 8.3368 7.86623C8.73585 7.36891 9.26628 6.99338 9.86793 6.78223C10.6316 6.51303 11.4381 6.38553 12.2476 6.406C12.8851 6.39784 13.5203 6.48494 14.1321 6.66443C14.608 6.80231 15.0548 7.0259 15.4505 7.32422C15.7658 7.55925 16.0304 7.85564 16.2282 8.19556C16.3793 8.46135 16.4603 8.76121 16.4637 9.06695C16.4644 9.33491 16.3534 9.59103 16.1572 9.77362C15.9615 9.9789 15.6871 10.0905 15.4036 10.0801C15.1762 10.0935 14.9512 10.0268 14.7679 9.89142C14.5786 9.71448 14.4195 9.50784 14.2968 9.27966C14.1093 8.90588 13.8442 8.57643 13.5192 8.31335C13.0834 8.04074 12.5711 7.91676 12.0589 7.96002C11.53 7.93537 11.0056 8.06659 10.5506 8.3374C10.2183 8.51612 10.0039 8.85591 9.98573 9.23279C9.98699 9.43635 10.0531 9.63421 10.1744 9.79767C10.3203 9.97267 10.5062 10.1099 10.7164 10.1979C10.9311 10.315 11.1608 10.4023 11.3991 10.4575C11.6346 10.5284 12.0121 10.6221 12.5529 10.7399C13.2127 10.8817 13.8256 11.0464 14.3676 11.211C14.8584 11.3564 15.3262 11.5704 15.757 11.8468C16.1239 12.0879 16.4303 12.4103 16.6523 12.7891C16.8793 13.2167 16.9927 13.6955 16.9817 14.1796C17.0097 14.8278 16.8188 15.4666 16.4396 15.9931Z" fill="#979797" fill-opacity="0.4"/>
<path id="primary" d="M21.4345 14.1555C21.5768 13.4895 21.6477 12.8102 21.6461 12.1292C21.6163 6.89558 17.3496 2.67689 12.1159 2.70661C12.1125 2.70661 12.1091 2.70667 12.1058 2.70667C11.561 2.70527 11.0172 2.75275 10.4808 2.84845C7.89222 1.22192 4.47516 2.00189 2.84864 4.59052C2.30682 5.45277 2.01343 6.44776 2.00061 7.46601C2.00122 8.43543 2.26141 9.38697 2.75415 10.2218C2.6319 10.8426 2.56873 11.4736 2.56549 12.1063C2.60901 17.2639 6.82532 21.4096 11.9829 21.366C12.0239 21.3657 12.0648 21.3651 12.1058 21.3642C12.6908 21.3686 13.2747 21.313 13.8484 21.1984C14.6402 21.6784 15.5389 21.9539 16.4637 22C19.4637 22.0568 21.9417 19.6708 21.9985 16.6708C22.015 15.7993 21.8216 14.9366 21.4345 14.1555ZM16.4396 15.9931C16.0258 16.5479 15.462 16.9728 14.8148 17.2178C14.0138 17.5367 13.1562 17.6888 12.2944 17.6649C11.2934 17.6974 10.2993 17.4875 9.3968 17.0532C8.86891 16.772 8.41633 16.368 8.07716 15.8754C7.77607 15.4636 7.60414 14.9717 7.58314 14.462C7.57838 14.1998 7.69068 13.9491 7.8896 13.7781C8.10133 13.5857 8.3802 13.4843 8.66603 13.4957C8.89729 13.4861 9.12398 13.5618 9.30305 13.7084C9.49952 13.8917 9.65235 14.1168 9.75013 14.367C9.8711 14.6807 10.038 14.9748 10.2453 15.2396C10.4349 15.4884 10.6865 15.6832 10.9749 15.8044C11.3696 15.9708 11.7954 16.0511 12.2236 16.04C12.8294 16.0731 13.4305 15.9169 13.9434 15.5929C14.3462 15.3575 14.5965 14.9285 14.6032 14.462C14.617 14.1341 14.4881 13.8163 14.2499 13.5906C13.9905 13.345 13.6748 13.1667 13.3305 13.0714C12.9543 12.9537 12.4351 12.8359 11.7993 12.6952C11.0692 12.5408 10.3526 12.3282 9.65639 12.0594C9.12123 11.845 8.65059 11.496 8.28987 11.0463C7.94868 10.5926 7.77388 10.0355 7.79475 9.46826C7.79407 8.88911 7.98462 8.326 8.33679 7.86622C8.73584 7.36891 9.2663 6.99336 9.86792 6.78224C10.6316 6.51301 11.438 6.38551 12.2476 6.40602C12.8851 6.39784 13.5203 6.48494 14.1321 6.66444C14.608 6.80232 15.0548 7.02589 15.4505 7.32423C15.7658 7.55928 16.0303 7.85566 16.2281 8.19557C16.3793 8.46138 16.4603 8.76118 16.4637 9.06697C16.4644 9.33491 16.3533 9.59102 16.1572 9.77364C15.9615 9.9789 15.6871 10.0905 15.4036 10.0801C15.1761 10.0935 14.9512 10.0268 14.7679 9.89144C14.5786 9.7145 14.4195 9.50783 14.2968 9.27968C14.1093 8.9059 13.8442 8.57643 13.5192 8.31337C13.0834 8.04073 12.571 7.91676 12.0589 7.96004C11.53 7.93538 11.0055 8.06661 10.5506 8.33742C10.2182 8.51613 10.0039 8.85591 9.98571 9.23281C9.98699 9.43636 10.053 9.63424 10.1744 9.79769C10.3203 9.97268 10.5062 10.1099 10.7164 10.1979C10.9311 10.315 11.1608 10.4023 11.399 10.4575C11.6346 10.5284 12.012 10.6221 12.5528 10.7399C13.2126 10.8817 13.8256 11.0464 14.3676 11.211C14.8584 11.3564 15.3262 11.5705 15.757 11.8468C16.1239 12.0879 16.4302 12.4104 16.6523 12.7891C16.8793 13.2167 16.9927 13.6955 16.9817 14.1796C17.0097 14.8278 16.8188 15.4666 16.4396 15.9931Z" fill="#F9CA24"/>
</g>
</svg>
