<svg width="24" height="24" viewBox="0 0 24 24" fill="none" xmlns="http://www.w3.org/2000/svg">
<g id="skype_alt">
<path id="accent" d="M16.5 23C15.5278 22.9998 14.5681 22.7815 13.6914 22.3613C12.0477 22.6313 10.3633 22.5059 8.77768 21.9957C7.19203 21.4855 5.75065 20.605 4.57281 19.4272C3.39496 18.2493 2.51451 16.808 2.00428 15.2223C1.49405 13.6366 1.36872 11.9523 1.63866 10.3086C1.05692 9.0952 0.866165 7.73117 1.09272 6.40476C1.31927 5.07834 1.95196 3.85496 2.90346 2.90346C3.85496 1.95196 5.07834 1.31927 6.40476 1.09272C7.73117 0.866165 9.0952 1.05692 10.3086 1.63866C11.9523 1.36872 13.6366 1.49405 15.2223 2.00428C16.808 2.51451 18.2493 3.39496 19.4272 4.57281C20.605 5.75065 21.4855 7.19203 21.9957 8.77768C22.5059 10.3633 22.6313 12.0477 22.3613 13.6914C22.8363 14.6822 23.0524 15.7772 22.9893 16.8741C22.9262 17.9711 22.586 19.0341 22.0006 19.9639C21.4151 20.8937 20.6035 21.6599 19.6415 22.1908C18.6796 22.7218 17.5987 23.0002 16.5 23V23Z" fill="#979797" fill-opacity="0.4"/>
<path id="primary" d="M16.1357 12.8652C15.8895 12.442 15.5483 12.0816 15.1392 11.8125C14.7387 11.5554 14.3042 11.3558 13.8482 11.2197C13.5684 11.1351 13.2586 11.0524 12.9378 10.9726C12.6587 10.8948 12.3264 10.8149 11.9156 10.7246C11.4263 10.6221 10.9461 10.4804 10.4796 10.3008C10.2392 10.2073 10.0271 10.0532 9.86383 9.85351C9.74469 9.69022 9.6882 9.48955 9.70465 9.28808C9.70411 9.07197 9.77597 8.86191 9.90875 8.6914C10.095 8.4729 10.3367 8.30861 10.6085 8.21581C11.0662 8.0586 11.5485 7.98549 12.0322 8C12.4059 7.99402 12.7785 8.04338 13.1377 8.14648C13.3762 8.21327 13.601 8.32207 13.8013 8.46777C13.9307 8.56004 14.0411 8.67643 14.1265 8.81055C14.1884 8.92659 14.2727 9.02926 14.3744 9.11268C14.4761 9.1961 14.5933 9.25862 14.7192 9.29666C14.8451 9.3347 14.9773 9.34752 15.1082 9.33438C15.2391 9.32123 15.3661 9.28238 15.482 9.22006C15.5978 9.15774 15.7002 9.07316 15.7833 8.97118C15.8664 8.86921 15.9286 8.75183 15.9662 8.62579C16.0039 8.49974 16.0163 8.36751 16.0027 8.23666C15.9891 8.10582 15.9499 7.97893 15.8872 7.86328C15.6762 7.49026 15.3913 7.16426 15.0498 6.90528C14.6555 6.60239 14.2083 6.37555 13.731 6.23633C13.1797 6.07333 12.6071 5.99368 12.0322 6C11.3018 5.98448 10.5747 6.10332 9.88723 6.35059C9.26521 6.57638 8.71862 6.97143 8.30908 7.49121C7.91717 8.0083 7.7049 8.63926 7.70459 9.28809C7.6884 9.93403 7.89302 10.5662 8.28467 11.0801C8.66275 11.5563 9.15835 11.9259 9.72267 12.1524C10.1491 12.3164 10.5857 12.4526 11.0297 12.5603C11.0381 12.563 12.5551 12.9365 12.5611 12.9383C12.8094 13.0016 13.0481 13.067 13.2666 13.1338C13.5359 13.2124 13.7929 13.3281 14.0303 13.4776C14.1779 13.5706 14.302 13.6966 14.3926 13.8457C14.4807 14.0276 14.5215 14.2288 14.5112 14.4307C14.5252 14.6921 14.4498 14.9504 14.2974 15.1631C14.0914 15.431 13.8128 15.6341 13.4946 15.7481C13.0211 15.9309 12.5156 16.0165 12.0083 16C11.4212 16.0227 10.8371 15.9049 10.3047 15.6563C10.059 15.5253 9.84796 15.3379 9.68896 15.1094C9.57747 14.9631 9.50778 14.7893 9.4873 14.6065C9.4873 14.3412 9.38195 14.0869 9.19441 13.8993C9.00687 13.7118 8.75252 13.6065 8.4873 13.6065C8.22209 13.6065 7.96773 13.7118 7.7802 13.8993C7.59266 14.0869 7.4873 14.3412 7.4873 14.6065C7.50407 15.1961 7.69786 15.7671 8.04346 16.2451C8.38891 16.7429 8.84914 17.1503 9.38525 17.4326C10.201 17.8308 11.101 18.0254 12.0083 18C12.7793 18.0186 13.546 17.8807 14.2622 17.5947C14.928 17.3394 15.506 16.8976 15.9272 16.3223C16.3275 15.7613 16.5325 15.0843 16.5107 14.3955C16.5201 13.8616 16.3909 13.3343 16.1357 12.8652Z" fill="#F9CA24"/>
</g>
</svg>
