<svg width="24" height="24" viewBox="0 0 24 24" fill="none" xmlns="http://www.w3.org/2000/svg">
<g id="slack_alt">
<path id="accent" d="M22 9.33C22 8.79957 21.7893 8.29086 21.4142 7.91579C21.0391 7.54071 20.5304 7.33 20 7.33C19.4696 7.33 18.9609 7.54071 18.5858 7.91579C18.2107 8.29086 18 8.79957 18 9.33V11.33H20C20.5304 11.33 21.0391 11.1193 21.4142 10.7442C21.7893 10.3691 22 9.86043 22 9.33ZM16.68 9.33V4C16.68 3.46957 16.4693 2.96086 16.0942 2.58579C15.7191 2.21071 15.2104 2 14.68 2C14.1496 2 13.6409 2.21071 13.2658 2.58579C12.8907 2.96086 12.68 3.46957 12.68 4V9.33C12.68 9.86043 12.8907 10.3691 13.2658 10.7442C13.6409 11.1193 14.1496 11.33 14.68 11.33C15.2104 11.33 15.7191 11.1193 16.0942 10.7442C16.4693 10.3691 16.68 9.86043 16.68 9.33Z" fill="#979797" fill-opacity="0.4"/>
<g id="primary">
<path d="M9.34 2C8.80957 2 8.30086 2.21071 7.92579 2.58579C7.55071 2.96086 7.34 3.46957 7.34 4C7.34 4.53043 7.55071 5.03914 7.92579 5.41421C8.30086 5.78929 8.80957 6 9.34 6H11.34V4C11.34 3.46957 11.1293 2.96086 10.7542 2.58579C10.3791 2.21071 9.87043 2 9.34 2ZM9.34 7.33H4C3.46957 7.33 2.96086 7.54071 2.58579 7.91579C2.21071 8.29086 2 8.79957 2 9.33C2 9.86043 2.21071 10.3691 2.58579 10.7442C2.96086 11.1193 3.46957 11.33 4 11.33H9.34C9.87043 11.33 10.3791 11.1193 10.7542 10.7442C11.1293 10.3691 11.34 9.86043 11.34 9.33C11.34 8.79957 11.1293 8.29086 10.7542 7.91579C10.3791 7.54071 9.87043 7.33 9.34 7.33Z" fill="#F9CA24" fill-opacity="0.4"/>
<path d="M14.66 22C15.1904 22 15.6991 21.7893 16.0742 21.4142C16.4493 21.0391 16.66 20.5304 16.66 20C16.66 19.4696 16.4493 18.9609 16.0742 18.5858C15.6991 18.2107 15.1904 18 14.66 18H12.66V20C12.66 20.5304 12.8707 21.0391 13.2458 21.4142C13.6209 21.7893 14.1296 22 14.66 22ZM14.66 16.67H20C20.5304 16.67 21.0391 16.4593 21.4142 16.0842C21.7893 15.7091 22 15.2004 22 14.67C22 14.1396 21.7893 13.6309 21.4142 13.2558C21.0391 12.8807 20.5304 12.67 20 12.67H14.66C14.1296 12.67 13.6209 12.8807 13.2458 13.2558C12.8707 13.6309 12.66 14.1396 12.66 14.67C12.66 15.2004 12.8707 15.7091 13.2458 16.0842C13.6209 16.4593 14.1296 16.67 14.66 16.67Z" fill="#F9CA24" fill-opacity="0.4"/>
</g>
<path id="primary_2" d="M2 14.67C2 15.2004 2.21071 15.7091 2.58579 16.0842C2.96086 16.4593 3.46957 16.67 4 16.67C4.53043 16.67 5.03914 16.4593 5.41421 16.0842C5.78929 15.7091 6 15.2004 6 14.67V12.67H4C3.46957 12.67 2.96086 12.8807 2.58579 13.2558C2.21071 13.6308 2 14.1395 2 14.67V14.67ZM7.32 14.67V20C7.32 20.5304 7.53071 21.0391 7.90579 21.4142C8.28086 21.7893 8.78957 22 9.32 22C9.85043 22 10.3591 21.7893 10.7342 21.4142C11.1093 21.0391 11.32 20.5304 11.32 20V14.67C11.32 14.1395 11.1093 13.6308 10.7342 13.2558C10.3591 12.8807 9.85043 12.67 9.32 12.67C8.78957 12.67 8.28086 12.8807 7.90579 13.2558C7.53071 13.6308 7.32 14.1395 7.32 14.67" fill="#F9CA24"/>
</g>
</svg>
