<svg width="24" height="24" viewBox="0 0 24 24" fill="none" xmlns="http://www.w3.org/2000/svg">
<g id="slack">
<g id="Brand Logos">
<path id="primary" d="M21.9801 9.33294C21.9801 8.80348 21.7697 8.29571 21.3953 7.92133C21.021 7.54694 20.5132 7.33661 19.9837 7.33661C19.4543 7.33661 18.9465 7.54694 18.5721 7.92133C18.1977 8.29571 17.9874 8.80348 17.9874 9.33294V11.3333H19.9837C20.2462 11.3331 20.506 11.2812 20.7483 11.1805C20.9907 11.0798 21.2108 10.9324 21.3962 10.7466C21.5816 10.5609 21.7286 10.3404 21.8287 10.0979C21.9289 9.8553 21.9803 9.59538 21.9801 9.33294ZM16.6573 9.33294V3.9996C16.6579 3.73712 16.6067 3.4771 16.5067 3.23442C16.4066 2.99175 16.2597 2.77119 16.0743 2.58538C15.8889 2.39957 15.6687 2.25215 15.4262 2.15157C15.1838 2.05098 14.9239 1.99921 14.6614 1.99921C14.3989 1.99921 14.139 2.05098 13.8966 2.15157C13.6541 2.25215 13.4339 2.39957 13.2485 2.58538C13.0631 2.77119 12.9162 2.99175 12.8161 3.23442C12.7161 3.4771 12.6649 3.73712 12.6655 3.9996V9.33294C12.6649 9.59543 12.7161 9.85545 12.8161 10.0981C12.9162 10.3408 13.0631 10.5614 13.2485 10.7472C13.4339 10.933 13.6541 11.0804 13.8966 11.181C14.139 11.2816 14.3989 11.3333 14.6614 11.3333C14.9239 11.3333 15.1838 11.2816 15.4262 11.181C15.6687 11.0804 15.8889 10.933 16.0743 10.7472C16.2597 10.5614 16.4066 10.3408 16.5067 10.0981C16.6067 9.85545 16.6579 9.59543 16.6573 9.33294Z" fill="#F9CA24" fill-opacity="0.4"/>
<g id="primary_2">
<path d="M9.33826 2C8.80794 2.0001 8.29937 2.21087 7.92445 2.58594C7.54953 2.96101 7.33895 3.46965 7.33906 3.99997C7.33916 4.5303 7.54993 5.03886 7.92499 5.41379C8.30006 5.78871 8.80871 5.99928 9.33903 5.99918H11.3354V4.00041C11.3356 3.47036 11.1254 2.9619 10.7509 2.58679C10.3764 2.21168 9.86831 2.00062 9.33826 2ZM9.33826 7.33333H4.01634C3.48591 7.33322 2.97716 7.54383 2.60201 7.91883C2.22686 8.29382 2.01604 8.80249 2.01593 9.33292C2.01582 9.86335 2.22643 10.3721 2.60143 10.7473C2.97642 11.1224 3.48509 11.3332 4.01552 11.3333H9.33826C9.86869 11.3333 10.3774 11.1226 10.7525 10.7475C11.1275 10.3725 11.3383 9.86376 11.3383 9.33333C11.3383 8.8029 11.1275 8.29419 10.7525 7.91912C10.3774 7.54404 9.86869 7.33333 9.33826 7.33333Z" fill="#F9CA24"/>
<path d="M14.661 22C15.1914 22 15.7 21.7893 16.075 21.4143C16.45 21.0393 16.6606 20.5307 16.6606 20.0004C16.6606 19.4701 16.45 18.9615 16.075 18.5865C15.7 18.2115 15.1914 18.0008 14.661 18.0008H12.6647V20.0004C12.6645 20.5302 12.8747 21.0384 13.249 21.4133C13.6234 21.7883 14.1312 21.9993 14.661 22ZM14.661 16.6658H19.9838C20.5142 16.666 21.0229 16.4553 21.3981 16.0804C21.7732 15.7054 21.9841 15.1967 21.9842 14.6663C21.9843 14.1358 21.7737 13.6271 21.3987 13.2519C21.0237 12.8768 20.515 12.666 19.9846 12.6658H14.6618C14.1314 12.6657 13.6226 12.8764 13.2475 13.2514C12.8723 13.6263 12.6615 14.135 12.6614 14.6654C12.6613 15.1959 12.8719 15.7046 13.2469 16.0798C13.6219 16.4549 14.1306 16.6657 14.661 16.6658Z" fill="#F9CA24"/>
</g>
<path id="accent" d="M2.02002 14.6663C2.02002 15.1957 2.23035 15.7035 2.60473 16.0779C2.97912 16.4523 3.48689 16.6626 4.01635 16.6626C4.54581 16.6626 5.05358 16.4523 5.42797 16.0779C5.80235 15.7035 6.01268 15.1957 6.01268 14.6663V12.6667H4.01633C3.48645 12.6672 2.97845 12.8781 2.60408 13.2531C2.2297 13.6281 2.01961 14.1364 2.02002 14.6663V14.6663ZM7.34275 14.6663V19.9996C7.34211 20.2621 7.39325 20.5221 7.49324 20.7648C7.59324 21.0075 7.74012 21.2281 7.92548 21.4139C8.11084 21.5998 8.33103 21.7472 8.57346 21.8479C8.81589 21.9485 9.07578 22.0003 9.33826 22.0004C9.60075 22.0005 9.86066 21.9487 10.1031 21.8482C10.3456 21.7477 10.5659 21.6003 10.7513 21.4145C10.9367 21.2287 11.0837 21.0082 11.1838 20.7656C11.2839 20.5229 11.3351 20.2629 11.3346 20.0004V14.6679C11.3353 14.4054 11.2842 14.1454 11.1842 13.9027C11.0843 13.66 10.9375 13.4394 10.7521 13.2535C10.5668 13.0676 10.3467 12.9201 10.1043 12.8194C9.86185 12.7188 9.60197 12.6669 9.33949 12.6668C9.07701 12.6667 8.81709 12.7183 8.57461 12.8188C8.33212 12.9193 8.11184 13.0666 7.92636 13.2523C7.74089 13.4381 7.59388 13.6586 7.49373 13.9012C7.39359 14.1438 7.34228 14.4038 7.34275 14.6663V14.6663Z" fill="#979797" fill-opacity="0.4"/>
</g>
</g>
</svg>
