<svg width="24" height="24" viewBox="0 0 24 24" fill="none" xmlns="http://www.w3.org/2000/svg">
<g id="snapchat_square">
<path id="accent" d="M19.1737 15.6518C17.8006 15.3192 16.6619 14.3642 16.0953 13.07L16.0913 13.0614C15.9706 12.8641 15.9432 12.6236 16.0165 12.4042C16.1574 12.0721 16.6238 11.9241 16.9328 11.826C17.0099 11.8015 17.0829 11.7784 17.1401 11.7558C17.6986 11.5351 17.8122 11.3068 17.8094 11.1539C17.7794 10.9589 17.6342 10.8015 17.4422 10.7559L17.4381 10.7543C17.3552 10.721 17.2666 10.7041 17.1772 10.7044C17.0985 10.703 17.0204 10.7185 16.9481 10.7498C16.73 10.8601 16.4924 10.9263 16.2487 10.9447C16.1082 10.948 15.9711 10.9021 15.8609 10.8149C15.8677 10.6904 15.8756 10.5621 15.8842 10.4265L15.8872 10.3787C16.028 9.3921 15.968 8.38726 15.7108 7.42445C15.0908 6.0113 13.6856 5.10606 12.1426 5.12574L11.8479 5.12849C10.307 5.10946 8.90427 6.01418 8.28608 7.42574C8.0289 8.38767 7.96882 9.39166 8.10945 10.3774C8.11891 10.5232 8.1277 10.6691 8.13581 10.8151C8.01445 10.9101 7.86209 10.9567 7.70832 10.9457C7.44961 10.9346 7.19635 10.8678 6.96589 10.7497C6.90938 10.7247 6.84805 10.7124 6.78626 10.7138C6.52538 10.7036 6.28685 10.8603 6.1927 11.1038C6.13276 11.4191 6.5829 11.6476 6.85664 11.7557C6.9145 11.7787 6.98713 11.8017 7.06391 11.826C7.37269 11.924 7.83937 12.072 7.9803 12.4043C8.05345 12.6238 8.02607 12.8643 7.90547 13.0617L7.90147 13.0701C7.69914 13.5107 7.43557 13.9204 7.11857 14.2871C6.54267 15.0035 5.72767 15.4881 4.82322 15.6519C4.73471 15.6665 4.67141 15.7455 4.67643 15.835C4.67833 15.8678 4.68602 15.9 4.69914 15.93C4.8278 16.231 5.47398 16.4796 6.56767 16.6484C6.6699 16.6642 6.71318 16.8309 6.77287 17.1039C6.79673 17.2133 6.82145 17.3267 6.85594 17.4438C6.87921 17.5514 6.98026 17.6239 7.08964 17.6114C7.19445 17.6055 7.29856 17.5906 7.4008 17.5668C7.67036 17.5079 7.94522 17.4768 8.22111 17.4739C8.41931 17.4744 8.61713 17.4912 8.8126 17.5239C9.2256 17.6286 9.60975 17.8249 9.9366 18.0982C10.4882 18.5692 11.1814 18.8424 11.9061 18.8743C11.9308 18.8743 11.9555 18.8735 11.9794 18.8714C12.0095 18.8729 12.0491 18.8743 12.0906 18.8743C12.8157 18.8423 13.5092 18.5689 14.0612 18.0976C14.3877 17.8246 14.7715 17.6286 15.1841 17.5241C15.3796 17.4913 15.5775 17.4746 15.7757 17.4741C16.0514 17.4753 16.3262 17.5044 16.5961 17.5609C16.6984 17.5834 16.8026 17.5965 16.9073 17.6003H16.9244C17.027 17.6085 17.1197 17.5392 17.1408 17.4385C17.1748 17.3229 17.1998 17.2129 17.2242 17.1007C17.2833 16.829 17.3266 16.6631 17.4293 16.6472C18.5232 16.4783 19.1693 16.23 19.2972 15.9307C19.3105 15.9004 19.3184 15.8679 19.3204 15.8349C19.3253 15.7454 19.2621 15.6665 19.1737 15.6518Z" fill="#979797" fill-opacity="0.4"/>
<path id="primary" d="M17.508 2H6.508C4.02271 2 2.008 4.01471 2.008 6.5V17.5C2.008 19.9853 4.02271 22 6.508 22H17.508C19.9933 22 22.008 19.9853 22.008 17.5V6.5C22.008 4.01471 19.9933 2 17.508 2ZM19.2972 15.9307C19.1693 16.23 18.5232 16.4783 17.4293 16.6472C17.3266 16.6631 17.2833 16.829 17.2242 17.1007C17.1998 17.2129 17.1748 17.3229 17.1407 17.4385C17.1197 17.5392 17.027 17.6085 16.9244 17.6003H16.9073C16.8025 17.5965 16.6984 17.5833 16.5961 17.5609C16.3262 17.5044 16.0514 17.4753 15.7757 17.4741C15.5774 17.4745 15.3796 17.4913 15.1841 17.524C14.7715 17.6285 14.3877 17.8246 14.0612 18.0976C13.5092 18.5688 12.8157 18.8422 12.0906 18.8743C12.0491 18.8743 12.0095 18.8729 11.9794 18.8714C11.9554 18.8735 11.9308 18.8743 11.9061 18.8743C11.1814 18.8424 10.4882 18.5692 9.93659 18.0981C9.60975 17.8248 9.22559 17.6286 8.81257 17.5239C8.61714 17.4911 8.41932 17.4744 8.22108 17.4739C7.9452 17.4768 7.67036 17.5079 7.40083 17.5667C7.29854 17.5906 7.19447 17.6055 7.08961 17.6114C6.98023 17.6238 6.87922 17.5514 6.85597 17.4438C6.82142 17.3266 6.7967 17.2133 6.7729 17.1039C6.71321 16.8308 6.66987 16.6641 6.5677 16.6484C5.47401 16.4795 4.82783 16.231 4.69917 15.93C4.68605 15.9 4.67836 15.8678 4.6764 15.835C4.6714 15.7454 4.73469 15.6665 4.82319 15.6519C5.72767 15.4881 6.54267 15.0035 7.11854 14.2871C7.43556 13.9203 7.69917 13.5106 7.9015 13.0701L7.90547 13.0617C8.02608 12.8642 8.05348 12.6237 7.9803 12.4043C7.83937 12.0719 7.3727 11.9239 7.06392 11.826C6.98714 11.8016 6.91451 11.7787 6.85664 11.7557C6.5829 11.6476 6.13276 11.4191 6.1927 11.1038C6.28688 10.8603 6.5254 10.7035 6.78627 10.7138C6.84804 10.7124 6.90938 10.7246 6.9659 10.7497C7.19637 10.8677 7.4496 10.9346 7.70833 10.9457C7.86208 10.9566 8.01448 10.9101 8.13582 10.815C8.1277 10.669 8.11891 10.5232 8.10945 10.3774C7.96881 9.39166 8.02887 8.38763 8.28607 7.42572C8.9043 6.01416 10.307 5.10944 11.8479 5.12848L12.1426 5.12573C13.6856 5.10602 15.0908 6.01129 15.7108 7.42444C15.968 8.38721 16.028 9.39209 15.8872 10.3787L15.8842 10.4264C15.8756 10.5621 15.8677 10.6904 15.8609 10.8149C15.9711 10.902 16.1082 10.9479 16.2487 10.9446C16.4924 10.9263 16.73 10.8601 16.9481 10.7498C17.0203 10.7185 17.0984 10.703 17.1772 10.7044C17.2666 10.704 17.3552 10.721 17.4382 10.7543L17.4423 10.7559C17.6342 10.8015 17.7794 10.9589 17.8095 11.1539C17.8121 11.3067 17.6986 11.5351 17.1401 11.7557C17.0829 11.7784 17.0099 11.8015 16.9328 11.826C16.6238 11.9241 16.1575 12.0721 16.0165 12.4042C15.9432 12.6236 15.9706 12.8641 16.0914 13.0614L16.0953 13.07C16.6619 14.3642 17.8006 15.3192 19.1737 15.6518C19.2621 15.6665 19.3253 15.7454 19.3204 15.8349C19.3184 15.8679 19.3105 15.9003 19.2972 15.9307Z" fill="#F9CA24"/>
</g>
</svg>
