<svg width="24" height="24" viewBox="0 0 24 24" fill="none" xmlns="http://www.w3.org/2000/svg">
<g id="snapchat_alt">
<path id="primary" d="M3.8084 11.6513C4.23031 11.7326 4.65703 11.5354 4.8684 11.1613C5.26278 11.3635 5.69572 11.4794 6.1384 11.5013C6.61421 11.5094 7.07405 11.3297 7.4184 11.0013C7.62474 10.7999 7.73409 10.5192 7.7184 10.2313V9.61129C7.55212 8.42868 7.60295 7.22566 7.8684 6.06129C8.56352 4.48073 10.1421 3.47437 11.8684 3.51129H12.2684C13.9954 3.47164 15.5754 4.47889 16.2684 6.06129C16.5357 7.25251 16.5865 8.48208 16.4184 9.69129V10.2313C16.4023 10.5242 16.5157 10.8093 16.7284 11.0113C17.0635 11.3352 17.5123 11.5147 17.9784 11.5113C18.4126 11.4734 18.8345 11.3475 19.2184 11.1413C19.3779 11.5069 19.7395 11.7427 20.1384 11.7413C20.6907 11.7413 21.1384 11.2936 21.1384 10.7413C21.0874 10.0553 20.6113 9.47509 19.9484 9.29129C19.4778 9.09627 18.949 9.09627 18.4784 9.29129C18.6451 7.94754 18.5224 6.58367 18.1184 5.29129C17.1129 2.92556 14.7577 1.42026 12.1884 1.50129H11.7884C9.28333 1.46509 7.00108 2.93536 5.9984 5.23129C5.58134 6.55553 5.46183 7.95551 5.6484 9.33128L5.5384 9.28128C4.5681 8.88173 3.45762 9.34443 3.05808 10.3147C3.0356 10.3693 3.01569 10.4249 2.9984 10.4813C2.89621 11.024 3.25335 11.5469 3.7961 11.649C3.80019 11.6498 3.80429 11.6506 3.8084 11.6513ZM21.9984 16.1113C20.7421 15.8322 19.6567 15.0471 18.9984 13.9413C18.6891 13.4829 18.0668 13.362 17.6084 13.6713C17.15 13.9806 17.0291 14.6029 17.3384 15.0613C17.957 16.0053 18.7765 16.8009 19.7384 17.3913C19.59 17.4263 19.4398 17.453 19.2884 17.4713C18.7105 17.6029 18.2828 18.0911 18.2284 18.6813C17.5664 18.5694 16.8904 18.5694 16.2284 18.6813C15.4893 18.8443 14.8022 19.1878 14.2284 19.6813C13.642 20.1989 12.8992 20.5052 12.1184 20.5513H11.8584C11.0776 20.5052 10.3348 20.1989 9.7484 19.6813C9.19155 19.2129 8.52921 18.8869 7.8184 18.7313C7.15603 18.6243 6.48077 18.6243 5.8184 18.7313C5.75672 18.1409 5.32686 17.6548 4.7484 17.5213L4.2984 17.4013C4.97734 17.0086 5.58299 16.5011 6.0884 15.9013C6.32838 15.6212 6.54258 15.3199 6.7284 15.0013C7.02469 14.5352 6.88704 13.9172 6.42096 13.6209C5.95488 13.3246 5.33686 13.4623 5.04057 13.9283C5.0255 13.9521 5.01143 13.9764 4.9984 14.0013C4.86289 14.2181 4.71253 14.4253 4.5484 14.6213C3.90444 15.4075 2.9995 15.9363 1.9984 16.1113C1.40628 16.2238 0.982907 16.7488 0.998397 17.3513C0.997767 17.5337 1.03524 17.7142 1.1084 17.8813C1.4284 18.6013 2.2684 19.0513 3.8984 19.3613V19.4813C3.8984 19.6013 3.9584 19.7313 3.9884 19.8313C4.12868 20.423 4.66037 20.8383 5.2684 20.8313C5.47158 20.8289 5.67346 20.7986 5.8684 20.7413C6.39433 20.6484 6.93247 20.6484 7.4584 20.7413C7.87114 20.862 8.2531 21.07 8.5784 21.3513C9.55438 22.1125 10.7608 22.5182 11.9984 22.5013H12.1584C13.36 22.4592 14.5136 22.0196 15.4384 21.2513C15.7637 20.97 16.1457 20.762 16.5584 20.6413C17.0839 20.5581 17.6207 20.5785 18.1384 20.7013C18.3432 20.7374 18.5505 20.7574 18.7584 20.7613C19.3344 20.7771 19.8465 20.3971 19.9984 19.8413C19.9984 19.7213 20.0684 19.6013 20.0984 19.4813V19.3613C21.7284 19.0513 22.5684 18.6113 22.8584 17.9413C22.9392 17.7826 22.9869 17.609 22.9984 17.4313C23.0461 16.8019 22.6172 16.2357 21.9984 16.1113Z" fill="#F9CA24"/>
</g>
</svg>
