<svg width="24" height="24" viewBox="0 0 24 24" fill="none" xmlns="http://www.w3.org/2000/svg">
<g id="social_distancing">
<path id="accent" d="M8.64026 9.77179C8.31623 10.1565 7.91204 10.4658 7.45597 10.6779C6.99991 10.8901 6.50299 11 6 11C5.49701 11 5.00009 10.8901 4.54403 10.6779C4.08796 10.4658 3.68377 10.1565 3.35974 9.77179C2.63973 10.2182 2.04527 10.8406 1.63242 11.5804C1.21957 12.3201 1.00192 13.1528 1 14C1 14.2652 1.10536 14.5196 1.29289 14.7071C1.48043 14.8946 1.73478 15 2 15H10C10.2652 15 10.5196 14.8946 10.7071 14.7071C10.8946 14.5196 11 14.2652 11 14C10.9981 13.1528 10.7804 12.3201 10.3676 11.5804C9.95473 10.8406 9.36027 10.2182 8.64026 9.77179V9.77179ZM18 11C17.3078 11 16.6311 10.7947 16.0555 10.4101C15.4799 10.0256 15.0313 9.47893 14.7664 8.83939C14.5015 8.19985 14.4322 7.49612 14.5673 6.81719C14.7023 6.13825 15.0356 5.51461 15.5251 5.02513C16.0146 4.53564 16.6383 4.2023 17.3172 4.06725C17.9961 3.9322 18.6999 4.00152 19.3394 4.26642C19.9789 4.53133 20.5256 4.97993 20.9101 5.55551C21.2947 6.13108 21.5 6.80777 21.5 7.5C21.4989 8.42791 21.1298 9.3175 20.4736 9.97364C19.8175 10.6298 18.9279 10.9989 18 11Z" fill="#979797" fill-opacity="0.4"/>
<g id="primary">
<path d="M6 11C5.30777 11 4.63108 10.7947 4.05551 10.4101C3.47993 10.0256 3.03133 9.47893 2.76642 8.83939C2.50152 8.19985 2.4322 7.49612 2.56725 6.81719C2.7023 6.13825 3.03564 5.51461 3.52513 5.02513C4.01461 4.53564 4.63825 4.2023 5.31719 4.06725C5.99612 3.9322 6.69985 4.00152 7.33939 4.26642C7.97894 4.53133 8.52556 4.97993 8.91015 5.55551C9.29473 6.13108 9.5 6.80777 9.5 7.5C9.49888 8.42791 9.12977 9.3175 8.47364 9.97364C7.8175 10.6298 6.92792 10.9989 6 11Z" fill="#F9CA24" fill-opacity="0.4"/>
<path d="M20.6403 9.77179C20.3162 10.1565 19.912 10.4658 19.456 10.6779C18.9999 10.8901 18.503 11 18 11C17.497 11 17.0001 10.8901 16.544 10.6779C16.088 10.4658 15.6838 10.1565 15.3597 9.77179C14.6397 10.2182 14.0453 10.8406 13.6324 11.5804C13.2196 12.3201 13.0019 13.1528 13 14C13 14.2652 13.1054 14.5196 13.2929 14.7071C13.4804 14.8946 13.7348 15 14 15H22C22.2652 15 22.5196 14.8946 22.7071 14.7071C22.8946 14.5196 23 14.2652 23 14C22.9981 13.1528 22.7804 12.3201 22.3676 11.5804C21.9547 10.8406 21.3603 10.2182 20.6403 9.77179Z" fill="#F9CA24" fill-opacity="0.4"/>
</g>
<path id="primary_2" d="M21.207 18.293L19.207 16.293C19.0189 16.1083 18.7655 16.0053 18.5019 16.0065C18.2383 16.0077 17.9858 16.113 17.7994 16.2994C17.613 16.4858 17.5077 16.7383 17.5065 17.0019C17.5053 17.2655 17.6083 17.5189 17.793 17.707L18.086 18H15.5C15.2348 18 14.9804 18.1054 14.7929 18.2929C14.6054 18.4804 14.5 18.7348 14.5 19C14.5 19.2652 14.6054 19.5196 14.7929 19.7071C14.9804 19.8947 15.2348 20 15.5 20H18.0859L17.7929 20.293C17.6991 20.3857 17.6246 20.4959 17.5736 20.6175C17.5225 20.7391 17.4961 20.8695 17.4956 21.0013C17.4952 21.1332 17.5209 21.2638 17.5712 21.3857C17.6214 21.5076 17.6953 21.6183 17.7885 21.7115C17.8817 21.8047 17.9925 21.8786 18.1144 21.9289C18.2362 21.9791 18.3669 22.0048 18.4987 22.0044C18.6305 22.0039 18.761 21.9774 18.8825 21.9264C19.0041 21.8754 19.1144 21.8008 19.207 21.707L21.207 19.707C21.2999 19.6142 21.3735 19.504 21.4238 19.3827C21.4741 19.2614 21.4999 19.1313 21.4999 19C21.4999 18.8687 21.4741 18.7387 21.4238 18.6174C21.3735 18.4961 21.2999 18.3858 21.207 18.293ZM8.5 18H5.91406L6.20706 17.707C6.39263 17.5191 6.49631 17.2654 6.49547 17.0013C6.49463 16.7372 6.38935 16.4842 6.2026 16.2974C6.01585 16.1107 5.76281 16.0054 5.49871 16.0046C5.23461 16.0038 4.98092 16.1074 4.793 16.293L2.793 18.293C2.70012 18.3858 2.62644 18.4961 2.57617 18.6174C2.5259 18.7387 2.50003 18.8687 2.50003 19C2.50003 19.1314 2.5259 19.2614 2.57617 19.3827C2.62644 19.504 2.70012 19.6142 2.793 19.7071L4.793 21.7071C4.98092 21.8926 5.23463 21.9963 5.49872 21.9955C5.76282 21.9946 6.01586 21.8894 6.2026 21.7026C6.38934 21.5159 6.49461 21.2628 6.49544 20.9987C6.49627 20.7346 6.39257 20.4809 6.207 20.293L5.91406 20H8.5C8.76522 20 9.01957 19.8947 9.20711 19.7071C9.39465 19.5196 9.5 19.2652 9.5 19C9.5 18.7348 9.39465 18.4804 9.20711 18.2929C9.01957 18.1054 8.76522 18 8.5 18Z" fill="#F9CA24"/>
</g>
</svg>
