<svg width="24" height="24" viewBox="0 0 24 24" fill="none" xmlns="http://www.w3.org/2000/svg">
<g id="sorting">
<path id="primary" d="M15 19.5C14.8686 19.5001 14.7386 19.4743 14.6172 19.424C14.4959 19.3738 14.3857 19.3 14.293 19.207L12 16.914L9.70699 19.207C9.5189 19.3917 9.26548 19.4947 9.00186 19.4935C8.73825 19.4923 8.48577 19.387 8.29936 19.2006C8.11295 19.0142 8.0077 18.7617 8.00651 18.4981C8.00532 18.2345 8.10828 17.9811 8.29299 17.793L11.293 14.793C11.3858 14.7001 11.496 14.6264 11.6174 14.5762C11.7387 14.5259 11.8687 14.5 12 14.5C12.1313 14.5 12.2614 14.5259 12.3827 14.5762C12.504 14.6264 12.6142 14.7001 12.707 14.793L15.707 17.793C15.8469 17.9328 15.9421 18.111 15.9806 18.305C16.0192 18.4989 15.9994 18.7 15.9237 18.8827C15.848 19.0654 15.7199 19.2215 15.5555 19.3314C15.391 19.4413 15.1977 19.5 15 19.5ZM12 10.5C11.8686 10.5001 11.7386 10.4743 11.6172 10.424C11.4959 10.3738 11.3857 10.3 11.293 10.207L8.29299 7.20699C8.10828 7.0189 8.00532 6.76548 8.00651 6.50186C8.0077 6.23825 8.11295 5.98577 8.29936 5.79936C8.48577 5.61296 8.73825 5.50771 9.00186 5.50651C9.26548 5.50532 9.5189 5.60828 9.70699 5.79299L12 8.08593L14.293 5.79293C14.4809 5.60737 14.7346 5.50369 14.9987 5.50452C15.2628 5.50536 15.5158 5.61064 15.7026 5.79739C15.8893 5.98414 15.9946 6.23719 15.9954 6.50128C15.9962 6.76538 15.8926 7.01907 15.707 7.20699L12.707 10.207C12.6143 10.3 12.5041 10.3738 12.3827 10.424C12.2614 10.4743 12.1313 10.5001 12 10.5Z" fill="#F9CA24"/>
</g>
</svg>
