<svg width="24" height="24" viewBox="0 0 24 24" fill="none" xmlns="http://www.w3.org/2000/svg">
<g id="space_key">
<path id="primary" d="M21 15H3C2.86867 15 2.73862 14.9742 2.61728 14.9239C2.49594 14.8737 2.38568 14.8 2.29282 14.7072C2.19995 14.6143 2.12629 14.5041 2.07605 14.3827C2.02581 14.2614 1.99997 14.1313 2 14V10C2 9.73478 2.10536 9.48043 2.29289 9.29289C2.48043 9.10536 2.73478 9 3 9C3.26522 9 3.51957 9.10536 3.70711 9.29289C3.89464 9.48043 4 9.73478 4 10V13H20V10C20 9.73478 20.1054 9.48043 20.2929 9.29289C20.4804 9.10536 20.7348 9 21 9C21.2652 9 21.5196 9.10536 21.7071 9.29289C21.8946 9.48043 22 9.73478 22 10V14C22 14.1313 21.9742 14.2614 21.9239 14.3827C21.8737 14.5041 21.8 14.6143 21.7072 14.7072C21.6143 14.8 21.5041 14.8737 21.3827 14.9239C21.2614 14.9742 21.1313 15 21 15Z" fill="#F9CA24"/>
</g>
</svg>
