<svg width="24" height="24" viewBox="0 0 24 24" fill="none" xmlns="http://www.w3.org/2000/svg">
<g id="square_full">
<path id="primary" d="M21 22H3C2.86867 22 2.73862 21.9742 2.61728 21.9239C2.49594 21.8737 2.38568 21.8 2.29282 21.7072C2.19995 21.6143 2.12629 21.5041 2.07605 21.3827C2.02581 21.2614 1.99997 21.1313 2 21V3C1.99997 2.86867 2.02581 2.73862 2.07605 2.61728C2.12629 2.49594 2.19995 2.38568 2.29282 2.29282C2.38568 2.19995 2.49594 2.12629 2.61728 2.07605C2.73862 2.02581 2.86867 1.99997 3 2H21C21.1313 1.99997 21.2614 2.02581 21.3827 2.07605C21.5041 2.12629 21.6143 2.19995 21.7072 2.29282C21.8 2.38568 21.8737 2.49594 21.9239 2.61728C21.9742 2.73862 22 2.86867 22 3V21C22 21.1313 21.9742 21.2614 21.9239 21.3827C21.8737 21.5041 21.8 21.6143 21.7072 21.7072C21.6143 21.8 21.5041 21.8737 21.3827 21.9239C21.2614 21.9742 21.1313 22 21 22ZM4 20H20V4H4V20Z" fill="#F9CA24"/>
</g>
</svg>
