<svg width="24" height="24" viewBox="0 0 24 24" fill="none" xmlns="http://www.w3.org/2000/svg">
<g id="star">
<path id="primary" d="M17.5625 21.5596C17.4004 21.5595 17.2407 21.5201 17.0972 21.4448L12 18.7651L6.90283 21.4448C6.73766 21.5316 6.55149 21.5705 6.36537 21.5571C6.17926 21.5436 6.00062 21.4784 5.84965 21.3687C5.69868 21.259 5.5814 21.1093 5.51107 20.9365C5.44074 20.7636 5.42016 20.5745 5.45166 20.3906L6.42529 14.7148L2.30176 10.6958C2.16818 10.5656 2.0737 10.4005 2.029 10.2193C1.9843 10.0382 1.99117 9.84812 2.04882 9.67066C2.10647 9.49319 2.21261 9.33538 2.35524 9.21508C2.49788 9.09477 2.67132 9.01675 2.85596 8.98984L8.55469 8.16171L11.103 2.99805C11.1951 2.84211 11.3263 2.71287 11.4836 2.62309C11.6409 2.5333 11.8189 2.48608 12 2.48608C12.1811 2.48608 12.3591 2.5333 12.5164 2.62309C12.6737 2.71287 12.8048 2.84211 12.8969 2.99805L15.4453 8.16162L21.144 8.98975C21.3287 9.01666 21.5021 9.09468 21.6447 9.21499C21.7874 9.33529 21.8935 9.4931 21.9512 9.67057C22.0088 9.84804 22.0157 10.0381 21.971 10.2193C21.9263 10.4004 21.8318 10.5655 21.6982 10.6958L17.5747 14.7148L18.5483 20.3905C18.5729 20.5341 18.5659 20.6813 18.5277 20.8218C18.4895 20.9624 18.421 21.0929 18.3271 21.2042C18.2332 21.3156 18.1162 21.405 17.9841 21.4664C17.852 21.5278 17.7081 21.5596 17.5625 21.5595L17.5625 21.5596Z" fill="#F9CA24"/>
</g>
</svg>
