<svg width="24" height="24" viewBox="0 0 24 24" fill="none" xmlns="http://www.w3.org/2000/svg">
<g id="star_half_alt">
<path id="accent" d="M21.9512 9.6704C21.8335 9.30846 21.5206 9.04464 21.144 8.98974L15.4453 8.16161L12.897 2.99804C12.7198 2.67056 12.3721 2.47207 12 2.48604V18.7651L17.0972 21.4448C17.5861 21.7018 18.1909 21.5138 18.4479 21.0248C18.5501 20.8302 18.5855 20.6073 18.5483 20.3906L17.5747 14.7148L21.6982 10.6958C21.9708 10.43 22.0688 10.0325 21.9512 9.6704Z" fill="#979797" fill-opacity="0.4"/>
<path id="primary" d="M11.103 2.99805L8.55471 8.16168L2.85598 8.98987C2.63851 9.02155 2.43752 9.12396 2.28408 9.28125C1.89834 9.67676 1.90627 10.3101 2.30178 10.6959L6.42532 14.7148L5.45169 20.3906C5.41458 20.6073 5.44992 20.8302 5.55215 21.0248C5.80917 21.5138 6.41391 21.7018 6.90286 21.4448L12 18.7651V2.50342C11.6444 2.50421 11.297 2.66968 11.103 2.99805Z" fill="#F9CA24"/>
</g>
</svg>
