<svg width="24" height="24" viewBox="0 0 24 24" fill="none" xmlns="http://www.w3.org/2000/svg">
<g id="step_forward">
<path id="primary" d="M7.99997 17C7.80222 17 7.60892 16.9413 7.44451 16.8314C7.2801 16.7215 7.15196 16.5654 7.07629 16.3827C7.00062 16.2 6.98082 15.9989 7.01939 15.805C7.05795 15.611 7.15316 15.4329 7.29297 15.293L10.5859 12L7.29297 8.707C7.10826 8.51891 7.0053 8.26549 7.00649 8.00188C7.00769 7.73826 7.11294 7.48578 7.29934 7.29937C7.48575 7.11297 7.73823 7.00772 8.00185 7.00652C8.26546 7.00533 8.51888 7.10829 8.70697 7.293L12.707 11.293C12.7999 11.3858 12.8735 11.4961 12.9238 11.6174C12.9741 11.7387 12.9999 11.8687 12.9999 12C12.9999 12.1313 12.9741 12.2614 12.9238 12.3827C12.8735 12.504 12.7999 12.6142 12.707 12.7071L8.70697 16.7071C8.61423 16.8001 8.50404 16.8738 8.3827 16.9241C8.26137 16.9744 8.1313 17.0002 7.99997 17ZM16 17C15.7348 17 15.4804 16.8946 15.2929 16.7071C15.1053 16.5196 15 16.2652 15 16V8C15 7.73478 15.1053 7.48043 15.2929 7.29289C15.4804 7.10536 15.7348 7 16 7C16.2652 7 16.5195 7.10536 16.7071 7.29289C16.8946 7.48043 17 7.73478 17 8V16C17 16.2652 16.8946 16.5196 16.7071 16.7071C16.5195 16.8946 16.2652 17 16 17Z" fill="#F9CA24"/>
</g>
</svg>
