<svg width="24" height="24" viewBox="0 0 24 24" fill="none" xmlns="http://www.w3.org/2000/svg">
<g id="stethoscope_alt">
<path id="accent" d="M8.00001 15C7.77297 15.0001 7.55268 14.9227 7.3755 14.7808L3.8765 11.9819C3.28961 11.5147 2.81597 10.9209 2.49101 10.2447C2.16606 9.56863 1.99821 8.82779 2.00001 8.07764V3C2.00001 2.73478 2.10537 2.48043 2.29291 2.29289C2.48044 2.10536 2.7348 2 3.00001 2H5.00001C5.26523 2 5.51958 2.10536 5.70712 2.29289C5.89466 2.48043 6.00001 2.73478 6.00001 3C6.00001 3.26522 5.89466 3.51957 5.70712 3.70711C5.51958 3.89464 5.26523 4 5.00001 4H4.00001V8.07764C3.99891 8.52777 4.09963 8.97232 4.29462 9.37802C4.48961 9.78373 4.77383 10.1401 5.12601 10.4204L8.00001 12.7192L10.8745 10.4204C11.2266 10.14 11.5106 9.78359 11.7055 9.3779C11.9004 8.97221 12.0011 8.52771 12 8.07764V4H11C10.7348 4 10.4804 3.89464 10.2929 3.70711C10.1054 3.51957 10 3.26522 10 3C10 2.73478 10.1054 2.48043 10.2929 2.29289C10.4804 2.10536 10.7348 2 11 2H13C13.2652 2 13.5196 2.10536 13.7071 2.29289C13.8947 2.48043 14 2.73478 14 3V8.07764C14.0018 8.82773 13.834 9.56853 13.5091 10.2446C13.1843 10.9207 12.7108 11.5146 12.124 11.9819L8.62452 14.7808C8.44735 14.9227 8.22706 15.0001 8.00001 15V15ZM19 14C18.4067 14 17.8267 13.8241 17.3333 13.4944C16.84 13.1648 16.4554 12.6962 16.2284 12.1481C16.0013 11.5999 15.9419 10.9967 16.0577 10.4147C16.1734 9.83279 16.4591 9.29824 16.8787 8.87868C17.2983 8.45912 17.8328 8.1734 18.4147 8.05764C18.9967 7.94189 19.5999 8.0013 20.1481 8.22836C20.6962 8.45542 21.1648 8.83994 21.4944 9.33329C21.8241 9.82664 22 10.4067 22 11C21.9991 11.7954 21.6828 12.5579 21.1204 13.1204C20.558 13.6828 19.7954 13.9991 19 14Z" fill="#979797" fill-opacity="0.4"/>
<path id="primary" d="M19 14C18.6585 13.9966 18.3202 13.9342 18 13.8157V15.5C18 16.6935 17.5259 17.8381 16.682 18.682C15.8381 19.5259 14.6935 20 13.5 20C12.3065 20 11.1619 19.5259 10.318 18.682C9.47411 17.8381 9 16.6935 9 15.5V14.4805L8.62451 14.7808C8.4473 14.9227 8.22704 15 8.00001 15C7.77298 15 7.55272 14.9227 7.37551 14.7808L7 14.4804V15.5C7 17.2239 7.68482 18.8772 8.90381 20.0962C10.1228 21.3152 11.7761 22 13.5 22C15.2239 22 16.8772 21.3152 18.0962 20.0962C19.3152 18.8772 20 17.2239 20 15.5V13.8157C19.6798 13.9343 19.3415 13.9966 19 14Z" fill="#F9CA24"/>
</g>
</svg>
