<svg width="24" height="24" viewBox="0 0 24 24" fill="none" xmlns="http://www.w3.org/2000/svg">
<g id="swiggy">
<path id="primary" d="M10.0468 14.6931C9.39306 14.6931 8.73906 14.681 8.08576 14.6966C7.81445 14.7218 7.54189 14.6638 7.30433 14.5303C7.06677 14.3969 6.87547 14.1943 6.75584 13.9494C5.77738 12.2736 5.25163 10.3721 5.23022 8.43163C5.272 6.81907 5.93345 5.2846 7.07714 4.14703C7.82009 3.35387 8.74437 2.7528 9.77069 2.39538C10.9398 1.97282 12.2043 1.8886 13.4191 2.15238C14.7873 2.44281 16.0333 3.14622 16.9889 4.16756C17.9444 5.1889 18.5634 6.47894 18.7623 7.86338C18.7921 7.98879 18.7731 8.12086 18.7091 8.23277C18.6451 8.34467 18.5409 8.42801 18.4177 8.46585C17.9174 8.67581 17.3861 8.8021 16.8448 8.83967C15.8001 8.96657 14.7448 8.9819 13.6968 8.88542C13.2769 8.8333 13.2007 8.74986 13.1975 8.31642C13.193 7.72403 13.196 7.13158 13.1954 6.53916C13.1953 6.44724 13.1938 6.35532 13.1918 6.26342C13.1975 6.2199 13.1935 6.17565 13.18 6.13386C13.1666 6.09207 13.1441 6.05378 13.1141 6.02175C13.0841 5.98971 13.0473 5.96473 13.0065 5.94859C12.9657 5.93245 12.9218 5.92556 12.878 5.92842C12.6435 5.92042 12.5394 6.05304 12.5386 6.26887C12.5349 7.28003 12.5363 8.29121 12.5368 9.30238C12.537 9.58963 12.7191 9.65994 12.9638 9.65972C13.8729 9.65891 14.782 9.6556 15.691 9.66237C16.2523 9.64854 16.8132 9.70284 17.3614 9.82406C17.547 9.84104 17.7262 9.90092 17.8847 9.99897C18.0433 10.097 18.1769 10.2306 18.275 10.3891C18.3731 10.5476 18.433 10.7267 18.45 10.9124C18.4671 11.098 18.4407 11.2851 18.3731 11.4588C18.0676 12.8156 17.5641 14.1201 16.8786 15.3303C15.8523 17.1908 14.655 18.9516 13.3022 20.5901C12.9572 21.0195 12.591 21.4316 12.2423 21.858C12.0843 22.0511 11.9651 22.047 11.8113 21.8475C10.5569 20.2761 9.41201 18.6203 8.38476 16.8918C8.25849 16.6712 8.15864 16.4352 8.05157 16.204C7.94867 15.9817 8.03288 15.8364 8.24475 15.7367C8.49951 15.6296 8.76974 15.5638 9.04525 15.5419C9.82433 15.4285 10.6162 15.4352 11.3932 15.5618C11.843 15.6441 11.917 15.7498 11.9164 16.2008C11.916 16.5481 11.9107 16.8954 11.9159 17.2426C11.9191 17.4632 11.9817 17.6742 12.2456 17.6721C12.5084 17.67 12.5704 17.4581 12.5717 17.238C12.5757 16.5128 12.5705 15.7876 12.575 15.0624C12.577 14.7502 12.3797 14.6907 12.1305 14.6902C11.4359 14.6888 10.7413 14.6886 10.0468 14.6897V14.6931Z" fill="#F9CA24"/>
</g>
</svg>
