<svg width="25" height="24" viewBox="0 0 25 24" fill="none" xmlns="http://www.w3.org/2000/svg">
<g id="swimming">
<g id="Group 13">
<g id="Group 2">
<g id="primary">
<path d="M0.855936 13.5442C2.64449 14.4476 4.42573 14.9852 6.34595 13.9538C7.48711 13.3393 8.59902 13.3028 9.77676 13.9392C11.3056 14.7621 12.8857 14.7695 14.4328 13.9392C15.5155 13.3576 16.6018 13.2442 17.6917 13.8807C19.5022 14.9413 21.2433 14.5756 23.0135 13.7307C23.8255 13.343 24.3887 12.8712 23.9864 11.9495C23.5585 10.9656 22.7575 11.1814 22.0004 11.5471C20.9433 12.0592 19.9156 12.4103 18.7561 11.7666C17.0627 10.8229 15.307 10.9582 13.5551 11.6349C12.2603 12.4249 11.0752 11.9421 9.89748 11.3277C8.95017 11.1777 7.98456 10.8632 7.05188 11.2253C5.23773 11.9275 3.48574 12.5237 1.60209 11.3386C1.06443 11.0021 0.406048 11.3679 0.208539 12.0738C0.036633 12.7029 0.17197 13.1967 0.855936 13.5442Z" fill="#FFD740"/>
<path d="M23.9755 17.9735C23.5073 16.9201 22.5563 17.2493 21.8028 17.6516C20.6288 18.2807 19.5388 18.2076 18.3794 17.6151C16.9639 16.8909 15.4716 16.8104 14.0415 17.5565C12.6992 18.2588 11.4483 18.2295 10.1133 17.5273C9.19887 17.0481 8.13817 16.7921 7.13966 17.1798C5.3255 17.8784 3.58085 18.5368 1.66794 17.4029C1.14491 17.092 0.446279 17.3188 0.212194 18.0393C0.0110277 18.6684 0.120749 19.25 0.801057 19.5462C1.79226 19.9742 2.87127 20.7679 3.84784 20.4936C6.66783 19.7035 9.35615 20.179 12.1798 20.3436C14.762 20.4972 17.4577 19.0342 19.7034 20.6326C21.0165 20.6033 21.8248 20.19 22.666 19.8754C23.5621 19.5426 24.4875 19.1329 23.9755 17.9735Z" fill="#FFD740"/>
</g>
<g id="Vector">
<path d="M13.5587 11.6313C13.9391 10.6767 15.2119 10.3402 15.3107 9.22459C15.3838 8.35775 11.2179 4.10399 10.3474 4.06375C10.2303 4.05644 10.0986 4.05644 9.99253 4.09667C8.53316 4.62702 7.06285 5.12446 5.63274 5.72796C5.05484 5.96936 4.66715 6.5253 5.0512 7.19829C5.35843 7.73596 5.80462 8.15657 6.52517 7.88957C7.19816 7.64085 7.92239 7.47627 8.52589 7.11417C10.5924 5.88157 11.1703 7.82009 11.9603 8.83689C12.7796 9.89393 11.2178 10.1573 10.8228 10.8376C10.6728 11.0936 10.2193 11.1704 9.90476 11.3277C11.0788 11.9385 12.2675 12.4213 13.5587 11.6313Z" fill="#979797" fill-opacity="0.4"/>
<path d="M18.0831 7.99197C19.4254 8.02123 20.4532 6.99711 20.4532 5.63284C20.4532 4.15518 19.601 3.31759 18.1233 3.28467C16.6164 3.25176 15.9251 4.13324 15.7752 5.46093C15.6398 6.64964 16.9236 7.97002 18.0831 7.99197Z" fill="#979797" fill-opacity="0.4"/>
</g>
</g>
</g>
</g>
</svg>
