<svg width="24" height="24" viewBox="0 0 24 24" fill="none" xmlns="http://www.w3.org/2000/svg">
<g id="sync_slash">
<path id="accent" d="M12 2C9.4 2 6.9 3 5 4.9V3C5 2.4 4.6 2 4 2C3.4 2 3 2.4 3 3V7.5C3 8.1 3.4 8.5 4 8.5H8.5C9.1 8.5 9.5 8.1 9.5 7.5C9.5 6.9 9.1 6.5 8.5 6.5H6.2C9.2 3.3 14.3 3.2 17.5 6.2C19.1 7.7 20 9.8 20 12C20 12.6 20.4 13 21 13C21.6 13 22 12.6 22 12C22 6.5 17.5 2 12 2ZM20 15.5H15.5C14.9 15.5 14.5 15.9 14.5 16.5C14.5 17.1 14.9 17.5 15.5 17.5H17.8C14.8 20.7 9.7 20.8 6.5 17.8C4.9 16.3 4 14.2 4 12C4 11.4 3.6 11 3 11C2.4 11 2 11.4 2 12C2 17.5 6.5 22 12 22C14.6 22 17.2 21 19 19.1V21C19 21.6 19.4 22 20 22C20.6 22 21 21.6 21 21V16.5C21 15.9 20.6 15.5 20 15.5Z" fill="#979797" fill-opacity="0.4"/>
<path id="primary" d="M3 22C2.4 22 2 21.6 2 21C2 20.7 2.1 20.5 2.3 20.3L20.3 2.3C20.7 1.9 21.3 1.9 21.7 2.3C22.1 2.7 22.1 3.3 21.7 3.7L3.7 21.7C3.5 21.9 3.3 22 3 22Z" fill="#F9CA24"/>
</g>
</svg>
