<svg width="24" height="24" viewBox="0 0 24 24" fill="none" xmlns="http://www.w3.org/2000/svg">
<g id="sync_exclamation">
<path id="primary" d="M12 13C11.8687 13 11.7386 12.9742 11.6173 12.9239C11.4959 12.8737 11.3857 12.8 11.2928 12.7072C11.1999 12.6143 11.1263 12.5041 11.076 12.3827C11.0258 12.2614 11 12.1313 11 12V9C11 8.73478 11.1053 8.48043 11.2929 8.29289C11.4804 8.10536 11.7348 8 12 8C12.2652 8 12.5196 8.10536 12.7071 8.29289C12.8946 8.48043 13 8.73478 13 9V12C13 12.1313 12.9742 12.2614 12.9239 12.3827C12.8737 12.5041 12.8 12.6143 12.7072 12.7072C12.6143 12.8 12.5041 12.8737 12.3827 12.9239C12.2614 12.9742 12.1313 13 12 13ZM12 16C11.8683 16.0013 11.7377 15.9763 11.6158 15.9265C11.4939 15.8767 11.3831 15.8031 11.29 15.71C11.1969 15.6168 11.1233 15.5061 11.0735 15.3842C11.0237 15.2623 10.9987 15.1317 11 15C11.0037 14.7352 11.1073 14.4816 11.29 14.29C11.3854 14.1995 11.4973 14.1283 11.6196 14.08C11.8018 14.0036 12.0025 13.9828 12.1965 14.0202C12.3905 14.0575 12.5691 14.1514 12.7099 14.29C12.8925 14.4817 12.9961 14.7353 13 15C13.0013 15.1317 12.9763 15.2623 12.9265 15.3842C12.8767 15.5061 12.8031 15.6168 12.7099 15.71C12.6168 15.8031 12.5061 15.8767 12.3842 15.9265C12.2623 15.9763 12.1317 16.0013 12 16Z" fill="#F9CA24"/>
<path id="accent" d="M12 2C9.38021 2.00676 6.86732 3.03961 5.00001 4.87714V3C5.00001 2.73478 4.89465 2.48043 4.70712 2.29289C4.51958 2.10536 4.26523 2 4.00001 2C3.73479 2 3.48044 2.10536 3.2929 2.29289C3.10537 2.48043 3.00001 2.73478 3.00001 3V7.5C2.99997 7.63133 3.02582 7.76138 3.07606 7.88272C3.1263 8.00406 3.19996 8.11432 3.29283 8.20718C3.38569 8.30005 3.49594 8.37371 3.61729 8.42395C3.73863 8.47419 3.86868 8.50003 4.00001 8.5H8.50001C8.76523 8.5 9.01958 8.39464 9.20712 8.20711C9.39465 8.01957 9.50001 7.76522 9.50001 7.5C9.50001 7.23478 9.39465 6.98043 9.20712 6.79289C9.01958 6.60536 8.76523 6.5 8.50001 6.5H6.21845C7.31679 5.3374 8.73912 4.53164 10.301 4.18722C11.8628 3.8428 13.4921 3.97561 14.9776 4.56843C16.463 5.16125 17.7361 6.18672 18.6316 7.51185C19.5272 8.83698 20.0039 10.4006 20 12C20 12.2652 20.1054 12.5196 20.2929 12.7071C20.4804 12.8946 20.7348 13 21 13C21.2652 13 21.5196 12.8946 21.7071 12.7071C21.8947 12.5196 22 12.2652 22 12C21.997 9.34877 20.9424 6.80699 19.0677 4.93228C17.193 3.05758 14.6512 2.00303 12 2V2ZM20 15.5H15.5C15.2348 15.5 14.9804 15.6054 14.7929 15.7929C14.6054 15.9804 14.5 16.2348 14.5 16.5C14.5 16.7652 14.6054 17.0196 14.7929 17.2071C14.9804 17.3946 15.2348 17.5 15.5 17.5H17.7816C16.6832 18.6626 15.2609 19.4684 13.699 19.8128C12.1372 20.1572 10.5079 20.0244 9.02245 19.4316C7.537 18.8388 6.26394 17.8133 5.36839 16.4881C4.47283 15.163 3.99609 13.5994 4.00001 12C4.00001 11.7348 3.89465 11.4804 3.70712 11.2929C3.51958 11.1054 3.26523 11 3.00001 11C2.73479 11 2.48044 11.1054 2.2929 11.2929C2.10537 11.4804 2.00001 11.7348 2.00001 12C1.99736 13.9705 2.57773 15.8978 3.66806 17.5392C4.75838 19.1806 6.30992 20.4627 8.12736 21.2242C9.9448 21.9857 11.9469 22.1925 13.8816 21.8186C15.8163 21.4446 17.5972 20.5067 19 19.1229V21C19 21.2652 19.1054 21.5196 19.2929 21.7071C19.4804 21.8946 19.7348 22 20 22C20.2652 22 20.5196 21.8946 20.7071 21.7071C20.8947 21.5196 21 21.2652 21 21V16.5C21 16.3687 20.9742 16.2386 20.924 16.1173C20.8737 15.9959 20.8001 15.8857 20.7072 15.7928C20.6143 15.7 20.5041 15.6263 20.3827 15.5761C20.2614 15.5258 20.1313 15.5 20 15.5V15.5Z" fill="#979797" fill-opacity="0.4"/>
</g>
</svg>
