<svg width="24" height="24" viewBox="0 0 24 24" fill="none" xmlns="http://www.w3.org/2000/svg">
<g id="table">
<g id="primary">
<path d="M21 22H3C2.86867 22 2.73862 21.9742 2.61728 21.9239C2.49594 21.8737 2.38568 21.8 2.29282 21.7072C2.19995 21.6143 2.12629 21.5041 2.07605 21.3827C2.02581 21.2614 1.99997 21.1313 2 21V3C1.99997 2.86867 2.02581 2.73862 2.07605 2.61728C2.12629 2.49594 2.19995 2.38568 2.29282 2.29282C2.38568 2.19995 2.49594 2.12629 2.61728 2.07605C2.73862 2.02581 2.86867 1.99997 3 2H21C21.1313 1.99997 21.2614 2.02581 21.3827 2.07605C21.5041 2.12629 21.6143 2.19995 21.7072 2.29282C21.8 2.38568 21.8737 2.49594 21.9239 2.61728C21.9742 2.73862 22 2.86867 22 3V21C22 21.1313 21.9742 21.2614 21.9239 21.3827C21.8737 21.5041 21.8 21.6143 21.7072 21.7072C21.6143 21.8 21.5041 21.8737 21.3827 21.9239C21.2614 21.9742 21.1313 22 21 22ZM4 20H20V4H4V20Z" fill="#F9CA24"/>
<path d="M9 22C8.86867 22 8.73862 21.9742 8.61728 21.9239C8.49594 21.8737 8.38568 21.8 8.29282 21.7072C8.19995 21.6143 8.12629 21.5041 8.07605 21.3827C8.02581 21.2614 7.99997 21.1313 8 21V3C8 2.73478 8.10536 2.48043 8.29289 2.29289C8.48043 2.10536 8.73478 2 9 2C9.26522 2 9.51957 2.10536 9.70711 2.29289C9.89464 2.48043 10 2.73478 10 3V21C10 21.1313 9.97419 21.2614 9.92395 21.3827C9.87371 21.5041 9.80005 21.6143 9.70718 21.7072C9.61432 21.8 9.50406 21.8737 9.38272 21.9239C9.26138 21.9742 9.13133 22 9 22ZM15 22C14.8687 22 14.7386 21.9742 14.6173 21.9239C14.4959 21.8737 14.3857 21.8 14.2928 21.7072C14.2 21.6143 14.1263 21.5041 14.0761 21.3827C14.0258 21.2614 14 21.1313 14 21V3C14 2.73478 14.1054 2.48043 14.2929 2.29289C14.4804 2.10536 14.7348 2 15 2C15.2652 2 15.5196 2.10536 15.7071 2.29289C15.8946 2.48043 16 2.73478 16 3V21C16 21.1313 15.9742 21.2614 15.9239 21.3827C15.8737 21.5041 15.8 21.6143 15.7072 21.7072C15.6143 21.8 15.5041 21.8737 15.3827 21.9239C15.2614 21.9742 15.1313 22 15 22Z" fill="#F9CA24"/>
</g>
<path id="primary_2" d="M21 10H3C2.73478 10 2.48043 9.89464 2.29289 9.70711C2.10536 9.51957 2 9.26522 2 9C2 8.73478 2.10536 8.48043 2.29289 8.29289C2.48043 8.10536 2.73478 8 3 8H21C21.2652 8 21.5196 8.10536 21.7071 8.29289C21.8946 8.48043 22 8.73478 22 9C22 9.26522 21.8946 9.51957 21.7071 9.70711C21.5196 9.89464 21.2652 10 21 10ZM21 16H3C2.73478 16 2.48043 15.8946 2.29289 15.7071C2.10536 15.5196 2 15.2652 2 15C2 14.7348 2.10536 14.4804 2.29289 14.2929C2.48043 14.1054 2.73478 14 3 14H21C21.2652 14 21.5196 14.1054 21.7071 14.2929C21.8946 14.4804 22 14.7348 22 15C22 15.2652 21.8946 15.5196 21.7071 15.7071C21.5196 15.8946 21.2652 16 21 16Z" fill="#F9CA24" fill-opacity="0.4"/>
</g>
</svg>
