<svg width="24" height="24" viewBox="0 0 24 24" fill="none" xmlns="http://www.w3.org/2000/svg">
<g id="telegram_alt">
<path id="accent" d="M17.6875 21.7441C17.2378 21.7441 16.8009 21.5939 16.4463 21.3174L12.416 18.1953L9.71385 21.1777C9.59492 21.3088 9.44332 21.4061 9.27452 21.4594C9.10573 21.5128 8.9258 21.5204 8.7531 21.4815C8.58041 21.4425 8.42114 21.3585 8.29157 21.2378C8.16199 21.1172 8.06676 20.9644 8.0156 20.7949L5.9951 14.1133L2.3701 12.8525C1.97874 12.7162 1.63814 12.464 1.39354 12.1294C1.14894 11.7949 1.01192 11.3938 1.00069 10.9796C0.989455 10.5653 1.10454 10.1574 1.33065 9.81009C1.55676 9.46278 1.88319 9.19249 2.26658 9.03513L20.1865 1.79977C20.5284 1.66078 20.9016 1.61704 21.2664 1.6732C21.6312 1.72936 21.974 1.88333 22.2583 2.11873C22.5426 2.35414 22.7578 2.66218 22.881 3.01011C23.0042 3.35804 23.0308 3.73285 22.958 4.0947L19.6953 20.1113C19.5986 20.5725 19.3464 20.9864 18.9808 21.2837C18.6153 21.5809 18.1586 21.7435 17.6875 21.7441H17.6875Z" fill="#979797" fill-opacity="0.4"/>
<path id="primary" d="M8.97263 21.5059C8.75804 21.5059 8.54912 21.4369 8.37678 21.3091C8.20444 21.1812 8.07782 21.0013 8.01563 20.7959L5.84763 13.6367C5.77986 13.4136 5.79227 13.1739 5.88269 12.959C5.97311 12.744 6.13586 12.5675 6.34274 12.46L16.9101 6.95802C17.122 6.84748 17.3664 6.81647 17.5991 6.87059C17.8318 6.92472 18.0375 7.06041 18.1788 7.25308C18.3201 7.44575 18.3877 7.68266 18.3695 7.9209C18.3512 8.15914 18.2481 8.38295 18.0791 8.55178L10.9961 15.6348L9.95212 20.707C9.90751 20.925 9.79146 21.1218 9.62235 21.2663C9.45324 21.4108 9.24074 21.4948 9.01852 21.5049C9.0029 21.5059 8.98727 21.5059 8.97263 21.5059Z" fill="#F9CA24"/>
</g>
</svg>
