<svg width="24" height="24" viewBox="0 0 24 24" fill="none" xmlns="http://www.w3.org/2000/svg">
<g id="telegram">
<path id="accent" d="M15.1738 17.1524C15.0288 17.5141 14.6181 17.6896 14.2564 17.5446C14.2274 17.533 14.1991 17.5194 14.1718 17.5039L11.4572 15.3946L9.71484 17.002C9.63268 17.0627 9.52527 17.0774 9.42984 17.0409L9.76384 14.0525L9.77453 14.0609L9.78136 14.0019C9.78136 14.0019 14.6664 9.55443 14.8654 9.36494C15.0668 9.17594 15.0004 9.13494 15.0004 9.13494C15.0118 8.90441 14.6388 9.13494 14.6388 9.13494L8.16632 13.299L5.47083 12.381C5.47083 12.381 5.05683 12.2325 5.01783 11.906C4.97683 11.582 5.48432 11.406 5.48432 11.406L16.2013 7.14847C16.2013 7.14847 17.0823 6.75595 17.0823 7.40598L15.1738 17.1524Z" fill="#979797" fill-opacity="0.4"/>
<path id="primary" d="M11.994 2C6.47113 2 1.99402 6.47717 1.99402 12C1.99402 17.5228 6.47113 22 11.994 22C17.5168 22 21.994 17.5228 21.994 12C21.994 6.47717 17.5168 2 11.994 2ZM15.1738 17.1525C15.0288 17.5141 14.6181 17.6897 14.2565 17.5446C14.2274 17.533 14.1991 17.5194 14.1718 17.504L11.4571 15.3946L9.71484 17.002C9.63269 17.0627 9.52526 17.0774 9.42987 17.041L9.76385 14.0525L9.77453 14.061L9.78137 14.002C9.78137 14.002 14.6664 9.55444 14.8653 9.36499C15.0668 9.17596 15.0004 9.13495 15.0004 9.13495C15.0118 8.90442 14.6388 9.13495 14.6388 9.13495L8.16632 13.299L5.47082 12.381C5.47082 12.381 5.05682 12.2325 5.01782 11.906C4.9768 11.582 5.48431 11.406 5.48431 11.406L16.2013 7.1485C16.2013 7.1485 17.0823 6.75598 17.0823 7.40601L15.1738 17.1525Z" fill="#F9CA24"/>
</g>
</svg>
