<svg width="24" height="24" viewBox="0 0 24 24" fill="none" xmlns="http://www.w3.org/2000/svg">
<g id="th_large">
<path id="primary" d="M20 3H4C3.86867 2.99997 3.73862 3.02581 3.61728 3.07605C3.49594 3.12629 3.38568 3.19995 3.29282 3.29282C3.19995 3.38568 3.12629 3.49594 3.07605 3.61728C3.02581 3.73862 2.99997 3.86867 3 4V20C2.99997 20.1313 3.02581 20.2614 3.07605 20.3827C3.12629 20.5041 3.19995 20.6143 3.29282 20.7072C3.38568 20.8 3.49594 20.8737 3.61728 20.9239C3.73862 20.9742 3.86867 21 4 21H20C20.1313 21 20.2614 20.9742 20.3827 20.9239C20.5041 20.8737 20.6143 20.8 20.7072 20.7072C20.8 20.6143 20.8737 20.5041 20.9239 20.3827C20.9742 20.2614 21 20.1313 21 20V4C21 3.86867 20.9742 3.73862 20.9239 3.61728C20.8737 3.49594 20.8 3.38568 20.7072 3.29282C20.6143 3.19995 20.5041 3.12629 20.3827 3.07605C20.2614 3.02581 20.1313 2.99997 20 3ZM11 19H5V13H11V19ZM11 11H5V5H11V11ZM19 19H13V13H19V19ZM19 11H13V5H19V11Z" fill="#F9CA24"/>
</g>
</svg>
