<svg width="25" height="24" viewBox="0 0 25 24" fill="none" xmlns="http://www.w3.org/2000/svg">
<g id="ticket">
<g id="Group 15">
<path id="accent" d="M22.7861 12.776C22.2725 12.7186 21.9282 12.2805 21.8829 11.7217C21.8376 11.1478 22.1638 10.6342 22.6471 10.5768C24.2632 10.3865 24.3146 9.31719 24.2632 8.09076C24.2209 7.04558 24.233 6.0004 24.2602 4.95522C24.2874 3.85567 23.8343 3.27266 22.6803 3.2787C18.1885 3.30589 13.6996 3.31797 9.20777 3.33308C10.3587 4.81929 10.1744 6.10311 8.69727 6.91267C8.69727 7.67994 8.69727 8.44721 8.69727 9.21448C10.114 9.57093 9.86327 10.7067 9.8814 11.7247C9.8965 12.7186 10.0204 13.7607 8.69727 14.087C8.69727 14.8542 8.69727 15.6215 8.69727 16.3888C10.1744 17.1983 10.3557 18.4791 9.20777 19.9684C13.6996 19.9865 18.1885 19.9956 22.6803 20.0227C23.8343 20.0288 24.2844 19.4458 24.2602 18.3462C24.233 17.2014 24.2239 16.0535 24.2632 14.9116C24.3025 13.803 24.1545 12.927 22.7861 12.776Z" fill="#979797" fill-opacity="0.4"/>
<path id="accent_2" d="M8.69729 16.3858C8.69729 16.3827 8.69729 16.3827 8.69729 16.3858C8.69729 15.6185 8.69729 14.8512 8.69729 14.0839C7.23223 13.8 7.48597 12.6551 7.48597 11.6492C7.48597 10.6433 7.23223 9.49843 8.69729 9.21448C8.69729 8.44721 8.69729 7.67994 8.69729 6.91267C7.22014 6.19977 6.99962 4.85553 8.10824 3.31797C6.01788 3.30589 3.93054 3.29984 1.84018 3.28172C0.788953 3.27266 0.284488 3.78316 0.29355 4.82835C0.302613 6.01852 0.326788 7.21172 0.284498 8.4019C0.245228 9.50749 0.411361 10.3684 1.76768 10.5225C2.27215 10.5799 2.62859 11.0118 2.66786 11.5767C2.70713 12.1446 2.38694 12.6702 1.90664 12.7246C0.17877 12.924 0.251254 14.1081 0.287503 15.3466C0.317711 16.3374 0.317711 17.3343 0.287503 18.3251C0.251254 19.5183 0.791973 20.0499 1.99121 20.0258C4.03022 19.9865 6.06923 19.9956 8.10824 19.9835C7.00264 18.4399 7.22316 17.0956 8.69729 16.3858Z" fill="#979797" fill-opacity="0.7"/>
<g id="primary">
<path d="M8.69728 6.90964C10.1744 6.10008 10.3587 4.81626 9.20779 3.33004C8.84228 3.324 8.47374 3.31796 8.10823 3.31192C7.00263 4.8525 7.22315 6.19674 8.69728 6.90964Z" fill="#FFD740"/>
<path d="M8.69728 16.3827C8.69728 16.3857 8.69728 16.3857 8.69728 16.3827C7.22013 17.0956 6.99961 18.4398 8.10823 19.9774C8.47374 19.9714 8.84228 19.9653 9.20779 19.9623C10.3587 18.4731 10.1744 17.1923 8.69728 16.3827Z" fill="#FFD740"/>
<path d="M7.48595 11.6462C7.48595 12.6521 7.23221 13.7969 8.69727 14.0809C10.0204 13.7577 9.89651 12.7155 9.88141 11.7187C9.8663 10.7007 10.114 9.56789 8.69727 9.20842C7.23221 9.49539 7.48595 10.6433 7.48595 11.6462Z" fill="#FFD740"/>
</g>
</g>
</g>
</svg>
