<svg width="24" height="24" viewBox="0 0 24 24" fill="none" xmlns="http://www.w3.org/2000/svg">
<g id="times_circle">
<path id="primary" d="M13.4141 12L16.7071 8.70702C16.8926 8.5191 16.9963 8.2654 16.9955 8.0013C16.9946 7.7372 16.8894 7.48416 16.7026 7.29742C16.5159 7.11068 16.2628 7.00541 15.9987 7.00458C15.7346 7.00376 15.4809 7.10745 15.293 7.29302L12 10.586L8.70702 7.29302C8.51893 7.10831 8.26551 7.00535 8.00189 7.00654C7.73828 7.00774 7.4858 7.11299 7.29939 7.29939C7.11299 7.4858 7.00773 7.73828 7.00654 8.00189C7.00535 8.26551 7.10831 8.51893 7.29302 8.70702L10.586 12L7.29302 15.293C7.10831 15.4811 7.00535 15.7345 7.00654 15.9981C7.00773 16.2618 7.11299 16.5142 7.29939 16.7006C7.4858 16.887 7.73828 16.9923 8.00189 16.9935C8.26551 16.9947 8.51893 16.8917 8.70702 16.707L12 13.4141L15.293 16.7071C15.4809 16.8926 15.7346 16.9963 15.9987 16.9955C16.2628 16.9946 16.5159 16.8894 16.7026 16.7026C16.8894 16.5159 16.9946 16.2628 16.9955 15.9987C16.9963 15.7346 16.8926 15.4809 16.707 15.293L13.4141 12Z" fill="#F9CA24"/>
<path id="accent" d="M19.0708 4.92919C17.1955 3.05389 14.6521 2.00037 12 2.00037C9.34792 2.00037 6.80448 3.05389 4.92919 4.92919C3.05389 6.80448 2.00037 9.34792 2.00037 12C2.00037 14.6521 3.05389 17.1955 4.92919 19.0708C6.80448 20.9461 9.34792 21.9996 12 21.9996C14.6521 21.9996 17.1955 20.9461 19.0708 19.0708C20.9461 17.1955 21.9996 14.6521 21.9996 12C21.9996 9.34792 20.9461 6.80448 19.0708 4.92919V4.92919ZM16.707 15.293C16.8012 15.3855 16.8762 15.4958 16.9275 15.6175C16.9789 15.7392 17.0057 15.8698 17.0063 16.0019C17.0069 16.1339 16.9813 16.2648 16.931 16.3869C16.8808 16.5091 16.8068 16.62 16.7134 16.7134C16.62 16.8068 16.5091 16.8808 16.3869 16.931C16.2648 16.9813 16.1339 17.0069 16.0019 17.0063C15.8698 17.0057 15.7392 16.9789 15.6175 16.9275C15.4958 16.8762 15.3855 16.8012 15.293 16.707L12 13.414L8.70699 16.707C8.5189 16.8917 8.26548 16.9947 8.00186 16.9935C7.73825 16.9923 7.48577 16.887 7.29936 16.7006C7.11296 16.5142 7.00771 16.2617 7.00651 15.9981C7.00532 15.7345 7.10828 15.4811 7.29299 15.293L10.5859 12L7.29299 8.70699C7.10828 8.5189 7.00532 8.26548 7.00651 8.00186C7.00771 7.73825 7.11296 7.48577 7.29936 7.29936C7.48577 7.11296 7.73825 7.00771 8.00186 7.00651C8.26548 7.00532 8.5189 7.10828 8.70699 7.29299L12 10.5859L15.293 7.29293C15.4809 7.10737 15.7346 7.00368 15.9987 7.00452C16.2628 7.00536 16.5158 7.11064 16.7026 7.29739C16.8893 7.48414 16.9946 7.73719 16.9954 8.00128C16.9962 8.26538 16.8926 8.51907 16.707 8.70699L13.414 12L16.707 15.293Z" fill="#979797" fill-opacity="0.4"/>
</g>
</svg>
