<svg width="24" height="24" viewBox="0 0 24 24" fill="none" xmlns="http://www.w3.org/2000/svg">
<g id="toggle_on">
<path id="accent" d="M16.5 14.5C17.8807 14.5 19 13.3807 19 12C19 10.6193 17.8807 9.5 16.5 9.5C15.1193 9.5 14 10.6193 14 12C14 13.3807 15.1193 14.5 16.5 14.5Z" fill="#979797" fill-opacity="0.4"/>
<path id="primary" d="M16.5 6.5H7.5C4.46246 6.5 2 8.96246 2 12C2 15.0375 4.46246 17.5 7.5 17.5H16.5C19.5375 17.5 22 15.0375 22 12C22 8.96246 19.5375 6.5 16.5 6.5ZM16.5 14.5C15.1193 14.5 14 13.3807 14 12C14 10.6193 15.1193 9.5 16.5 9.5C17.8807 9.5 19 10.6193 19 12C19 13.3807 17.8807 14.5 16.5 14.5Z" fill="#F9CA24"/>
</g>
</svg>
