<svg width="24" height="24" viewBox="0 0 24 24" fill="none" xmlns="http://www.w3.org/2000/svg">
<g id="toilet_paper">
<path id="accent" d="M7 2C4.24316 2 2 4.69141 2 8C2 11.3086 4.24316 14 7 14C9.75684 14 12 11.3086 12 8C12 4.69141 9.75684 2 7 2ZM7 9.24286C6.70318 9.20617 6.43245 9.05491 6.24562 8.82137C6.05878 8.58782 5.97064 8.2905 6 7.99286C5.97064 7.69522 6.05878 7.3979 6.24562 7.16435C6.43245 6.93081 6.70318 6.77955 7 6.74286C7.29682 6.77955 7.56755 6.93081 7.75438 7.16435C7.94122 7.3979 8.02936 7.69522 8 7.99286C8.02936 8.2905 7.94122 8.58782 7.75438 8.82137C7.56755 9.05491 7.29682 9.20617 7 9.24286V9.24286Z" fill="#979797" fill-opacity="0.4"/>
<path id="primary" d="M22.7598 20.3496C21.6093 18.9811 20.9852 17.2468 21 15.459V8C21 4.69141 18.7568 2 16 2H7C9.75684 2 12 4.69141 12 8V15.459C11.9855 17.7238 12.7799 19.9193 14.2402 21.6504C14.3342 21.76 14.4507 21.848 14.5819 21.9083C14.713 21.9687 14.8556 21.9999 15 22H22C22.1912 21.9999 22.3783 21.9451 22.5393 21.8419C22.7002 21.7388 22.8282 21.5917 22.9082 21.418C22.9881 21.2444 23.0166 21.0514 22.9903 20.8621C22.964 20.6727 22.884 20.4949 22.7598 20.3496Z" fill="#F9CA24" fill-opacity="0.4"/>
<g id="primary_2">
<path d="M7 9.24298C7.55228 9.24298 8 8.68334 8 7.99298C8 7.30263 7.55228 6.74298 7 6.74298C6.44772 6.74298 6 7.30263 6 7.99298C6 8.68334 6.44772 9.24298 7 9.24298Z" fill="#F9CA24"/>
<path d="M12 7.99998C12 11.3086 9.75684 14 7 14H12V7.99998Z" fill="#F9CA24"/>
</g>
</g>
</svg>
