<svg width="25" height="25" viewBox="0 0 25 25" fill="none" xmlns="http://www.w3.org/2000/svg">
<g id="travel_ship">
<g id="Group">
<path id="accent" d="M11.9866 9.9929C11.9927 12.6043 12.0078 15.2187 12.0018 17.8301C11.9987 18.4844 11.9654 19.1206 12.6228 19.5175C15.0615 19.5175 17.5002 19.4933 19.9389 19.5296C21.2113 19.5478 21.999 18.9873 22.4231 17.8149C22.8472 16.6486 23.2713 15.4792 23.753 14.3341C24.2074 13.2526 23.8984 12.6134 22.7745 12.3377C21.5748 12.0438 20.3752 11.7409 19.1755 11.444C16.761 11.0502 14.4314 10.2413 11.9866 9.9929Z" fill="#979797" fill-opacity="0.7"/>
<g id="primary">
<path d="M11.9867 9.9929C14.4284 10.2413 16.7611 11.0471 19.1725 11.447C19.1816 10.6079 19.1907 9.76871 19.1967 8.92956C19.2392 4.58835 19.2967 5.25181 15.6129 5.10336C13.2075 5.10336 10.8021 5.10336 8.39373 5.10336C7.85146 5.11851 7.30919 5.14274 6.76995 5.1488C5.07346 5.17001 4.81898 5.41843 4.81595 7.14824C4.81292 8.57814 4.83109 10.0111 4.84017 11.441C7.22435 10.9593 9.60551 10.4776 11.9867 9.9929Z" fill="#FFD740"/>
<path d="M23.8985 21.829C23.6531 21.2715 23.2108 20.9686 22.5837 21.0777C22.2928 21.1292 21.9869 21.217 21.7415 21.3715C20.56 22.1107 19.4391 21.9653 18.2091 21.3897C16.6429 20.6566 15.004 20.7353 13.4499 21.52C12.4835 22.0077 11.5656 22.044 10.6022 21.5321C9.25711 20.8171 7.74239 20.6081 6.40337 21.1746C4.77353 21.8653 3.33151 22.1319 1.74408 21.1807C1.09274 20.7899 0.456564 21.1079 0.138471 21.7987C-0.167503 22.4651 0.165737 22.968 0.744362 23.2922C2.51053 24.2858 4.33123 24.813 6.27311 23.7678C7.41521 23.1528 8.55732 23.1589 9.70245 23.7375C11.2293 24.513 12.7531 24.5252 14.286 23.7496C15.4251 23.174 16.5581 23.1528 17.7184 23.7496C18.4242 24.1132 19.1786 24.3919 20.0086 24.3525C21.2961 24.3222 22.414 23.7708 23.4865 23.1407C23.9409 22.8711 24.1317 22.3621 23.8985 21.829Z" fill="#FFD740"/>
</g>
<g id="accent_2">
<path d="M1.75318 18.2057C2.11975 19.1752 2.78924 19.566 3.81925 19.5508C6.75176 19.5114 9.6873 19.5235 12.6228 19.5175C11.9654 19.1206 11.9988 18.4814 12.0018 17.8301C12.0109 15.2187 11.9957 12.6043 11.9867 9.9929C9.60551 10.4746 7.22435 10.9593 4.84018 11.441C3.74049 11.7227 2.64081 12.0014 1.54415 12.2923C-0.0160171 12.7012 -0.228079 13.0799 0.33237 14.6068C0.777699 15.8185 1.29877 17 1.75318 18.2057Z" fill="#979797" fill-opacity="0.4"/>
<path d="M15.6159 5.10336C15.6099 4.05517 15.5917 3.00698 15.6068 1.95879C15.619 0.925748 15.1767 0.356209 14.1042 0.356209C12.7077 0.356209 11.3111 0.356209 9.9145 0.356209C8.84207 0.356209 8.39675 0.925748 8.4119 1.95879C8.42402 3.00698 8.40583 4.05517 8.4028 5.10336C10.8052 5.10336 13.2105 5.10336 15.6159 5.10336Z" fill="#979797" fill-opacity="0.4"/>
</g>
</g>
</g>
</svg>
