<svg width="24" height="24" viewBox="0 0 24 24" fill="none" xmlns="http://www.w3.org/2000/svg">
<g id="triangle">
<path id="primary" d="M21 20.794H3C2.82445 20.7941 2.65198 20.7479 2.49994 20.6601C2.34789 20.5724 2.22163 20.4461 2.13384 20.2941C2.04605 20.1421 1.99982 19.9696 1.99982 19.7941C1.99981 19.6185 2.04602 19.4461 2.13379 19.294L11.1338 3.70612C11.2287 3.56331 11.3575 3.44619 11.5086 3.36517C11.6597 3.28416 11.8285 3.24176 12 3.24176C12.1715 3.24176 12.3403 3.28416 12.4914 3.36517C12.6425 3.44619 12.7713 3.56331 12.8662 3.70612L21.8662 19.294C21.954 19.4461 22.0002 19.6185 22.0002 19.7941C22.0002 19.9696 21.954 20.1421 21.8662 20.2941C21.7784 20.4461 21.6521 20.5724 21.5001 20.6601C21.348 20.7479 21.1756 20.7941 21 20.794Z" fill="#F9CA24"/>
</g>
</svg>
