<svg width="24" height="24" viewBox="0 0 24 24" fill="none" xmlns="http://www.w3.org/2000/svg">
<g id="tumblr_alt">
<path id="primary" d="M16.7855 17.9743C16.2718 18.1833 15.7253 18.3004 15.1711 18.3201C14.9074 18.3479 14.6407 18.3156 14.3912 18.2257C14.1417 18.1357 13.9159 17.9903 13.7306 17.8006C13.5454 17.6108 13.4055 17.3815 13.3216 17.1299C13.2377 16.8783 13.2118 16.6109 13.2461 16.3479V11H17.2625V7.0946H13.2612V2H10.331C10.293 2.00319 10.2575 2.02011 10.2311 2.04759C10.2047 2.07507 10.1893 2.11124 10.1877 2.1493C10.1237 3.33209 9.7178 4.47088 9.01929 5.42752C8.32078 6.38415 7.35964 7.11751 6.2525 7.5386V11.122H8.27669V16.6576C8.27669 18.8943 9.92716 22.0729 14.2843 21.9988C15.5406 22.0282 16.767 21.6134 17.7475 20.8274L16.7855 17.9744" fill="#F9CA24"/>
</g>
</svg>
