<svg width="24" height="24" viewBox="0 0 24 24" fill="none" xmlns="http://www.w3.org/2000/svg">
<g id="tumblr_square">
<path id="accent" d="M13.5712 17.8494C11.7059 18.0435 10.0364 16.6887 9.84233 14.8235C9.83176 14.7219 9.82578 14.62 9.8244 14.5179V10.4424H8.56189V8.83118C9.97282 8.29448 10.9349 6.97667 11.0162 5.4693C11.0188 5.42013 11.0572 5.38037 11.1062 5.37616H12.933V8.55371H15.4293V10.4425H12.9243V14.3257C12.8462 14.9248 13.2685 15.4739 13.8676 15.552C13.953 15.5631 14.0393 15.5642 14.1249 15.555C14.4704 15.5431 14.811 15.4703 15.1312 15.3399L15.7311 17.1186C15.1199 17.6094 14.3548 17.8683 13.5712 17.8494Z" fill="#979797" fill-opacity="0.4"/>
<path id="primary" d="M2.01898 2V22H21.982V2H2.01898ZM13.5712 17.8494C11.7059 18.0435 10.0364 16.6887 9.84235 14.8235C9.83179 14.7219 9.82581 14.62 9.8244 14.5179V10.4424H8.56189V8.83118C9.97284 8.2945 10.9349 6.97669 11.0162 5.4693C11.0187 5.42011 11.0572 5.38037 11.1063 5.37616H12.933V8.55371H15.4293V10.4425H12.9243V14.3257C12.8462 14.9248 13.2685 15.4738 13.8676 15.552C13.953 15.5631 14.0393 15.5641 14.1249 15.555C14.4704 15.5431 14.8111 15.4703 15.1312 15.3399L15.7311 17.1186C15.1199 17.6094 14.3548 17.8683 13.5712 17.8494Z" fill="#F9CA24"/>
</g>
</svg>
