<svg width="24" height="24" viewBox="0 0 24 24" fill="none" xmlns="http://www.w3.org/2000/svg">
<g id="twitter_alt">
<path id="primary" d="M20.4751 7.8046C20.4854 7.98968 20.4854 8.17478 20.4854 8.34961C20.4828 9.48827 20.3165 10.6207 19.9918 11.712C19.3074 14.2271 17.8048 16.4426 15.7211 18.0086C13.6375 19.5746 11.0915 20.4019 8.48536 20.3599C6.19111 20.3625 3.94503 19.7018 2.01752 18.4575C2.35182 18.4989 2.68837 18.5195 3.02522 18.5192C4.92365 18.5211 6.76738 17.8835 8.25922 16.7095C7.38053 16.693 6.52887 16.4028 5.82293 15.8793C5.11698 15.3558 4.59192 14.6252 4.3209 13.7892C4.58252 13.834 4.84728 13.8581 5.1127 13.8612C5.49168 13.8626 5.86897 13.8107 6.23348 13.7069C5.33105 13.5282 4.51226 13.0582 3.90293 12.369C3.2936 11.6797 2.92744 10.8095 2.86072 9.89199C2.84362 9.78665 2.83672 9.6799 2.84013 9.57324V9.52181C3.42616 9.848 4.08226 10.0279 4.75271 10.0462C4.17565 9.6616 3.70277 9.14011 3.37623 8.52829C3.0497 7.91647 2.87966 7.23335 2.8813 6.53985C2.88056 5.7931 3.07555 5.05921 3.44684 4.41131C4.50585 5.71616 5.82781 6.78335 7.32664 7.5434C8.82547 8.30344 10.4676 8.7393 12.146 8.8226C11.9336 7.91778 12.026 6.96815 12.4088 6.12123C12.7916 5.2743 13.4433 4.57749 14.2628 4.13903C15.0823 3.70057 16.0236 3.545 16.9406 3.69651C17.8576 3.84801 18.6988 4.29809 19.3337 4.97685C20.2805 4.78999 21.1883 4.44219 22.0175 3.94856C22.0532 4.66445 21.9338 5.37961 21.6676 6.04512C21.4014 6.71063 20.9947 7.31081 20.4751 7.8046Z" fill="#F9CA24"/>
</g>
</svg>
