<svg width="24" height="24" viewBox="0 0 24 24" fill="none" xmlns="http://www.w3.org/2000/svg">
<g id="twitter">
<path id="primary" d="M22 5.79608C21.2512 6.12811 20.4569 6.34597 19.6435 6.44238C20.5003 5.92972 21.1415 5.12301 21.4475 4.1726C20.6421 4.65096 19.7607 4.98772 18.8415 5.16826C18.2784 4.5685 17.5481 4.15179 16.7453 3.97218C15.9424 3.79258 15.1042 3.85836 14.3392 4.161C13.5742 4.46364 12.9178 4.98917 12.4551 5.66943C11.9925 6.34968 11.7449 7.15326 11.7445 7.97594C11.7442 8.29068 11.7797 8.60444 11.8502 8.91117C10.2189 8.82942 8.62302 8.40553 7.16613 7.66703C5.70924 6.92853 4.42394 5.89192 3.39364 4.62449C2.86901 5.52773 2.70827 6.59695 2.94412 7.61452C3.17998 8.6321 3.7947 9.52158 4.6632 10.1019C4.01159 10.0817 3.37428 9.90587 2.80454 9.589V9.64085C2.80467 10.5882 3.13244 11.5063 3.73228 12.2395C4.33213 12.9727 5.1671 13.4758 6.09561 13.6636C5.74333 13.7597 5.37975 13.808 5.01461 13.8074C4.75548 13.8074 4.49691 13.7832 4.24227 13.7352C4.50448 14.5502 5.01479 15.2629 5.70187 15.7738C6.38895 16.2846 7.21846 16.5679 8.07447 16.5843C6.35395 17.9315 4.16976 18.5422 2 18.2827C3.87582 19.4886 6.05923 20.1288 8.28924 20.1269C9.82516 20.1374 11.3479 19.8427 12.7689 19.2598C14.19 18.6769 15.481 17.8174 16.5671 16.7313C17.6532 15.6453 18.5127 14.3542 19.0956 12.9331C19.6785 11.5121 19.9732 9.98938 19.9627 8.45346C19.9627 8.27546 19.9585 8.09856 19.9501 7.92277C20.7542 7.34116 21.4484 6.62102 22 5.79608Z" fill="#F9CA24"/>
</g>
</svg>
