<svg width="24" height="24" viewBox="0 0 24 24" fill="none" xmlns="http://www.w3.org/2000/svg">
<g id="unlock">
<path id="primary" d="M7 9H17C18.6568 9 20 10.3432 20 12V19C20 20.6568 18.6568 22 17 22H7C5.34315 22 4 20.6568 4 19V12C4 10.3432 5.34315 9 7 9Z" fill="#F9CA24"/>
<path id="accent" d="M9 7C9.00055 6.20905 9.31323 5.4502 9.87012 4.88849C11.0374 3.711 12.9382 3.70282 14.1157 4.87012C14.494 5.25293 14.7651 5.72846 14.9019 6.24903C14.9024 6.25123 14.903 6.25349 14.9036 6.25568C15.043 6.78998 15.5891 7.11011 16.1234 6.97077C16.6576 6.83137 16.9777 6.28528 16.8384 5.75098C16.6121 4.88514 16.1616 4.09424 15.5322 3.45801C14.5953 2.52478 13.3269 2.00061 12.0045 2C9.24182 1.99878 7.00122 4.23737 7 7V9H9V7Z" fill="#979797" fill-opacity="0.4"/>
</g>
</svg>
