<svg width="24" height="24" viewBox="0 0 24 24" fill="none" xmlns="http://www.w3.org/2000/svg">
<g id="unlock_alt">
<path id="accent" d="M8 11C7.44786 11.0002 7.00014 10.5527 7 10.0005C7 10.0004 7 10.0002 7 10V7.00001C7.00123 4.23735 9.24181 1.99877 12.0045 2C13.3269 2.00059 14.5953 2.5248 15.5322 3.45801C16.1616 4.09425 16.6121 4.88516 16.8384 5.75101C16.9778 6.28529 16.6576 6.83139 16.1233 6.97076C15.589 7.11013 15.0429 6.78999 14.9036 6.25571C14.903 6.25347 14.9024 6.25124 14.9019 6.24901C14.7651 5.72845 14.494 5.25294 14.1157 4.87011C12.9382 3.7028 11.0374 3.71104 9.87012 4.88851C9.31324 5.45023 9.00055 6.20903 9 7.00001V10C9.00014 10.5522 8.55266 10.9999 8.00052 11C8.00035 11 8.00017 11 8 11ZM12 18C11.4479 18.0002 11.0001 17.5527 11 17.0005C11 17.0004 11 17.0002 11 17V14C11 13.4477 11.4477 13 12 13C12.5523 13 13 13.4477 13 14V17C13.0001 17.5522 12.5527 17.9999 12.0005 18C12.0003 18 12.0002 18 12 18Z" fill="#979797" fill-opacity="0.4"/>
<path id="primary" d="M17 9H7C5.34314 9 4 10.3431 4 12V19C4 20.6569 5.34314 22 7 22H17C18.6569 22 20 20.6569 20 19V12C20 10.3431 18.6569 9 17 9ZM13 17C13.0001 17.5521 12.5527 17.9999 12.0006 18C12.0004 18 12.0002 18 12 18C11.4479 18.0001 11.0001 17.5527 11 17.0005C11 17.0004 11 17.0002 11 17V14C11 13.4477 11.4477 13 12 13C12.5523 13 13 13.4477 13 14V17Z" fill="#F9CA24"/>
</g>
</svg>
