<svg width="24" height="24" viewBox="0 0 24 24" fill="none" xmlns="http://www.w3.org/2000/svg">
<g id="upload_alt">
<path id="primary" d="M15.707 5.29297L12.707 2.29297C12.6142 2.20009 12.5039 2.12641 12.3826 2.07614C12.2613 2.02587 12.1313 2 12 2C11.8686 2 11.7386 2.02587 11.6173 2.07614C11.496 2.12641 11.3858 2.20009 11.2929 2.29297L8.29293 5.29297C8.10737 5.48089 8.00369 5.7346 8.00452 5.99869C8.00536 6.26279 8.11064 6.51583 8.29739 6.70257C8.48414 6.88931 8.73719 6.99458 9.00128 6.99541C9.26538 6.99623 9.51908 6.89254 9.70699 6.70697L11 5.41403V17C11 17.2652 11.1053 17.5195 11.2929 17.7071C11.4804 17.8946 11.7348 18 12 18C12.2652 18 12.5196 17.8946 12.7071 17.7071C12.8946 17.5195 13 17.2652 13 17V5.41403L14.293 6.70703C14.4809 6.8926 14.7346 6.99628 14.9987 6.99544C15.2628 6.9946 15.5158 6.88932 15.7026 6.70257C15.8893 6.51582 15.9946 6.26278 15.9954 5.99868C15.9962 5.73458 15.8926 5.48089 15.707 5.29297Z" fill="#F9CA24"/>
<path id="accent" d="M18 9H13V17C13 17.2652 12.8946 17.5196 12.7071 17.7071C12.5196 17.8946 12.2652 18 12 18C11.7348 18 11.4804 17.8946 11.2929 17.7071C11.1054 17.5196 11 17.2652 11 17V9H6C5.20462 9.00087 4.44206 9.31722 3.87964 9.87964C3.31722 10.4421 3.00087 11.2046 3 12V19C3.00087 19.7954 3.31722 20.5579 3.87964 21.1204C4.44206 21.6828 5.20462 21.9991 6 22H18C18.7954 21.9991 19.5579 21.6828 20.1204 21.1204C20.6828 20.5579 20.9991 19.7954 21 19V12C20.9991 11.2046 20.6828 10.4421 20.1204 9.87964C19.5579 9.31722 18.7954 9.00087 18 9Z" fill="#979797" fill-opacity="0.4"/>
</g>
</svg>
