<svg width="24" height="24" viewBox="0 0 24 24" fill="none" xmlns="http://www.w3.org/2000/svg">
<g id="user_nurse">
<path id="accent" d="M20.94 22H3.06008C2.91961 22 2.78073 21.9704 2.65247 21.9131C2.5242 21.8559 2.40944 21.7722 2.31565 21.6677C2.22187 21.5631 2.15116 21.44 2.10813 21.3062C2.06511 21.1725 2.05073 21.0313 2.06594 20.8916C2.33753 18.4468 3.50108 16.1881 5.33393 14.5476C7.16678 12.907 9.54021 12 12 12C14.4598 12 16.8332 12.907 18.6661 14.5476C20.499 16.1881 21.6625 18.4468 21.9341 20.8916C21.9493 21.0313 21.9349 21.1725 21.8919 21.3062C21.8489 21.44 21.7782 21.5631 21.6844 21.6677C21.5906 21.7722 21.4758 21.8559 21.3476 21.9131C21.2193 21.9704 21.0804 22 20.94 22V22Z" fill="#979797" fill-opacity="0.4"/>
<g id="primary">
<path d="M12.708 18.3066L17.4138 13.5919C15.7986 12.552 13.918 11.9994 11.997 12C10.076 12.0006 8.19576 12.5545 6.58117 13.5953L11.293 18.3071C11.4805 18.4947 11.7348 18.6001 12 18.6001C12.2654 18.5999 12.5204 18.4943 12.708 18.3066Z" fill="#F9CA24" fill-opacity="0.4"/>
<path d="M11.9951 14C10.8084 14 9.64839 13.6481 8.6617 12.9888C7.675 12.3295 6.90597 11.3925 6.45184 10.2961C5.99772 9.19975 5.8789 7.99335 6.11041 6.82946C6.34192 5.66558 6.91336 4.59648 7.75248 3.75736C8.59159 2.91825 9.66069 2.3468 10.8246 2.11529C11.9885 1.88378 13.1949 2.0026 14.2912 2.45673C15.3876 2.91085 16.3246 3.67989 16.9839 4.66658C17.6432 5.65328 17.9951 6.81331 17.9951 8C17.9934 9.59077 17.3607 11.1159 16.2358 12.2407C15.111 13.3656 13.5859 13.9983 11.9951 14Z" fill="#F9CA24" fill-opacity="0.4"/>
</g>
<path id="primary_2" d="M6.09003 9C6.32482 10.3977 7.04737 11.6669 8.12936 12.5823C9.21136 13.4977 10.5828 14 12 14C13.4173 14 14.7887 13.4977 15.8707 12.5823C16.9527 11.6669 17.6752 10.3977 17.91 9H6.09003Z" fill="#F9CA24"/>
</g>
</svg>
