<svg width="24" height="24" viewBox="0 0 24 24" fill="none" xmlns="http://www.w3.org/2000/svg">
<g id="user_md">
<path id="primary" d="M6.00891 8.10901C6.05317 9.67262 6.7069 11.157 7.83055 12.2452C8.9542 13.3334 10.4587 13.9393 12.023 13.9334C13.5872 13.9276 15.0871 13.3105 16.2026 12.2139C17.3181 11.1174 17.9608 9.62816 17.9934 8.06427L6.00891 8.10901Z" fill="#F9CA24" fill-opacity="0.4"/>
<g id="primary_2">
<path d="M17.9985 8.06432L6.00266 8.10903L5.72559 4.78356C5.63668 4.02562 5.83994 3.26229 6.294 2.64893C6.74805 2.03557 7.41878 1.61829 8.16965 1.48203L8.959 1.33874C10.9713 0.973536 13.0329 0.973759 15.0452 1.3394L15.8311 1.4822C16.5818 1.61861 17.2523 2.03592 17.7062 2.64923C18.1602 3.26254 18.3633 4.02575 18.2744 4.78356L17.9985 8.06432Z" fill="#F9CA24"/>
<path d="M17.1981 13.3847L12.7071 17.8758C12.6142 17.9687 12.504 18.0424 12.3827 18.0926C12.2614 18.1429 12.1313 18.1688 12 18.1688C11.8687 18.1688 11.7387 18.1429 11.6174 18.0926C11.4961 18.0424 11.3858 17.9687 11.293 17.8758L6.802 13.3848C5.49354 14.1772 4.38551 15.2607 3.56409 16.5512C2.74268 17.8416 2.23002 19.3042 2.066 20.825C2.05079 20.9647 2.06517 21.106 2.10819 21.2397C2.15122 21.3734 2.22193 21.4965 2.31572 21.6011C2.4095 21.7057 2.52426 21.7893 2.65253 21.8466C2.78079 21.9038 2.91967 21.9334 3.06014 21.9334H20.9399C21.0804 21.9334 21.2193 21.9038 21.3475 21.8466C21.4758 21.7893 21.5906 21.7057 21.6844 21.6011C21.7781 21.4965 21.8489 21.3734 21.8919 21.2397C21.9349 21.106 21.9493 20.9647 21.9341 20.825C21.7701 19.3042 21.2574 17.8416 20.436 16.5512C19.6146 15.2607 18.5065 14.1771 17.1981 13.3847Z" fill="#F9CA24"/>
</g>
<path id="accent" d="M15.6907 12.654C14.6353 13.4748 13.3366 13.9204 11.9996 13.9204C10.6627 13.9204 9.36393 13.4747 8.30865 12.6539C7.78687 12.855 7.28287 13.0995 6.80194 13.3847L11.2929 17.8757C11.3858 17.9686 11.496 18.0423 11.6173 18.0926C11.7386 18.1428 11.8687 18.1687 12 18.1687C12.1313 18.1687 12.2613 18.1428 12.3826 18.0926C12.5039 18.0423 12.6142 17.9686 12.707 17.8757L17.198 13.3847C16.717 13.0994 16.2129 12.8549 15.691 12.6537L15.6907 12.654Z" fill="#979797" fill-opacity="0.4"/>
</g>
</svg>
