<svg width="24" height="24" viewBox="0 0 24 24" fill="none" xmlns="http://www.w3.org/2000/svg">
<g id="user_arrows">
<path id="accent" d="M8.64026 15.2718C8.31623 15.6565 7.91204 15.9658 7.45597 16.1779C6.99991 16.3901 6.50299 16.5 6 16.5C5.49701 16.5 5.00009 16.3901 4.54403 16.1779C4.08796 15.9658 3.68377 15.6565 3.35974 15.2718C2.63973 15.7182 2.04527 16.3406 1.63242 17.0804C1.21957 17.8201 1.00192 18.6528 1 19.5C1 19.7652 1.10536 20.0196 1.29289 20.2071C1.48043 20.3946 1.73478 20.5 2 20.5H10C10.2652 20.5 10.5196 20.3946 10.7071 20.2071C10.8946 20.0196 11 19.7652 11 19.5C10.9981 18.6528 10.7804 17.8201 10.3676 17.0804C9.95473 16.3406 9.36027 15.7182 8.64026 15.2718V15.2718ZM18 16.5C17.3078 16.5 16.6311 16.2947 16.0555 15.9101C15.4799 15.5256 15.0313 14.9789 14.7664 14.3394C14.5015 13.6999 14.4322 12.9961 14.5673 12.3172C14.7023 11.6383 15.0356 11.0146 15.5251 10.5251C16.0146 10.0356 16.6383 9.7023 17.3172 9.56725C17.9961 9.4322 18.6999 9.50152 19.3394 9.76642C19.9789 10.0313 20.5256 10.4799 20.9101 11.0555C21.2947 11.6311 21.5 12.3078 21.5 13C21.4989 13.9279 21.1298 14.8175 20.4736 15.4736C19.8175 16.1298 18.9279 16.4989 18 16.5Z" fill="#979797" fill-opacity="0.4"/>
<g id="primary">
<path d="M6 16.5C5.30777 16.5 4.63108 16.2947 4.05551 15.9101C3.47993 15.5256 3.03133 14.9789 2.76642 14.3394C2.50152 13.6999 2.4322 12.9961 2.56725 12.3172C2.7023 11.6383 3.03564 11.0146 3.52513 10.5251C4.01461 10.0356 4.63825 9.7023 5.31719 9.56725C5.99612 9.4322 6.69985 9.50152 7.33939 9.76642C7.97894 10.0313 8.52556 10.4799 8.91015 11.0555C9.29473 11.6311 9.5 12.3078 9.5 13C9.49888 13.9279 9.12977 14.8175 8.47364 15.4736C7.8175 16.1298 6.92792 16.4989 6 16.5Z" fill="#F9CA24" fill-opacity="0.4"/>
<path d="M20.6403 15.2718C20.3162 15.6565 19.912 15.9658 19.456 16.1779C18.9999 16.3901 18.503 16.5 18 16.5C17.497 16.5 17.0001 16.3901 16.544 16.1779C16.088 15.9658 15.6838 15.6565 15.3597 15.2718C14.6397 15.7182 14.0453 16.3406 13.6324 17.0804C13.2196 17.8201 13.0019 18.6528 13 19.5C13 19.7652 13.1054 20.0196 13.2929 20.2071C13.4804 20.3946 13.7348 20.5 14 20.5H22C22.2652 20.5 22.5196 20.3946 22.7071 20.2071C22.8946 20.0196 23 19.7652 23 19.5C22.9981 18.6528 22.7804 17.8201 22.3676 17.0804C21.9547 16.3406 21.3603 15.7182 20.6403 15.2718Z" fill="#F9CA24" fill-opacity="0.4"/>
</g>
<path id="primary_2" d="M17.207 5.79302L15.207 3.79302C15.0189 3.60831 14.7655 3.50535 14.5019 3.50654C14.2383 3.50774 13.9858 3.61299 13.7994 3.79939C13.613 3.9858 13.5077 4.23828 13.5065 4.50189C13.5053 4.76551 13.6083 5.01893 13.793 5.20702L14.086 5.50002H9.91406L10.2071 5.20702C10.3926 5.0191 10.4963 4.7654 10.4955 4.5013C10.4946 4.2372 10.3893 3.98416 10.2026 3.79742C10.0159 3.61068 9.76281 3.50541 9.49871 3.50458C9.23461 3.50376 8.98092 3.60745 8.793 3.79302L6.793 5.79302C6.70012 5.88585 6.62644 5.99607 6.57617 6.11739C6.5259 6.2387 6.50003 6.36873 6.50003 6.50005C6.50003 6.63137 6.5259 6.7614 6.57617 6.88271C6.62644 7.00403 6.70012 7.11425 6.793 7.20708L8.793 9.20708C8.98092 9.39264 9.23463 9.49632 9.49872 9.49548C9.76282 9.49465 10.0159 9.38936 10.2026 9.20261C10.3893 9.01586 10.4946 8.76282 10.4954 8.49872C10.4963 8.23463 10.3926 7.98093 10.207 7.79302L9.914 7.50002H14.0859L13.7929 7.79302C13.6054 7.98054 13.5 8.23487 13.5001 8.50006C13.5001 8.76525 13.6054 9.01957 13.7929 9.20708C13.9805 9.39459 14.2348 9.49992 14.5 9.49991C14.7652 9.4999 15.0195 9.39454 15.207 9.20702L17.207 7.20702C17.2999 7.11419 17.3735 7.00397 17.4238 6.88266C17.4741 6.76135 17.4999 6.63133 17.4999 6.50002C17.4999 6.36871 17.4741 6.23868 17.4238 6.11737C17.3735 5.99607 17.2999 5.88585 17.207 5.79302Z" fill="#F9CA24"/>
</g>
</svg>
