<svg width="25" height="25" viewBox="0 0 25 25" fill="none" xmlns="http://www.w3.org/2000/svg">
<g id="user_square">
<g id="Group">
<path id="primary" d="M24.0015 3.89821C23.9685 1.72359 22.6799 0.39831 20.5162 0.383666C14.8527 0.347056 9.19283 0.347056 3.5293 0.383666C1.37298 0.39831 0.0623543 1.72725 0.0477104 3.89821C0.0147615 9.48486 0.0147636 15.0752 0.0440514 20.6618C0.0550343 22.9536 1.3437 24.2606 3.61716 24.2715C9.21846 24.3045 14.8198 24.3045 20.4247 24.2715C22.7055 24.2569 23.9759 22.9573 24.0015 20.6618C24.0344 17.8978 24.0088 15.1337 24.0088 12.3697C24.0125 9.54709 24.0418 6.72082 24.0015 3.89821ZM17.3385 19.5342C13.791 19.5672 10.2435 19.5672 6.69605 19.5342C5.01566 19.5196 4.52509 18.6959 4.96807 17.0667C5.52087 15.0349 7.23055 13.8817 8.40572 12.3221C7.01455 10.0157 7.24885 7.69464 9.03175 6.19364C10.7597 4.73657 13.1796 4.74389 14.9882 6.20828C16.7711 7.65071 17.0237 10.0267 15.6435 12.3221C16.7747 13.9 18.5466 14.991 19.0152 17.0887C19.4106 18.8679 19.0921 19.5196 17.3385 19.5342Z" fill="#FFD740"/>
<path id="accent" d="M15.6435 12.3258C13.4067 14.8519 10.6023 14.8519 8.40576 12.3258C7.23059 13.8854 5.52091 15.0386 4.9681 17.0704C4.52512 18.6995 5.0157 19.5233 6.69609 19.5379C10.2436 19.5709 13.7911 19.5709 17.3385 19.5379C19.0922 19.5233 19.4107 18.868 19.0153 17.096C18.5467 14.9946 16.7748 13.9037 15.6435 12.3258Z" fill="#979797" fill-opacity="0.7"/>
<path id="accent_2" d="M15.6434 12.3258C17.0236 10.0267 16.771 7.6507 14.9881 6.21194C13.1796 4.74754 10.7597 4.74389 9.03171 6.1973C7.25248 7.69464 7.01452 10.0194 8.40569 12.3258C10.6023 14.8518 13.4066 14.8518 15.6434 12.3258Z" fill="#979797" fill-opacity="0.4"/>
</g>
</g>
</svg>
