<svg width="24" height="24" viewBox="0 0 24 24" fill="none" xmlns="http://www.w3.org/2000/svg">
<g id="vector_square_alt">
<path id="primary" d="M4 22C3.60444 22 3.21776 21.8827 2.88886 21.6629C2.55996 21.4432 2.30362 21.1308 2.15224 20.7654C2.00087 20.3999 1.96126 19.9978 2.03843 19.6098C2.1156 19.2219 2.30608 18.8655 2.58579 18.5858C2.86549 18.3061 3.22186 18.1156 3.60982 18.0384C3.99778 17.9613 4.39992 18.0009 4.76537 18.1522C5.13082 18.3036 5.44318 18.56 5.66294 18.8889C5.8827 19.2178 6 19.6044 6 20C5.99931 20.5302 5.78838 21.0385 5.41345 21.4135C5.03853 21.7884 4.53022 21.9993 4 22ZM4 6C3.60444 6 3.21776 5.8827 2.88886 5.66294C2.55996 5.44318 2.30362 5.13082 2.15224 4.76537C2.00087 4.39992 1.96126 3.99778 2.03843 3.60982C2.1156 3.22186 2.30608 2.86549 2.58579 2.58579C2.86549 2.30608 3.22186 2.1156 3.60982 2.03843C3.99778 1.96126 4.39992 2.00087 4.76537 2.15224C5.13082 2.30362 5.44318 2.55996 5.66294 2.88886C5.8827 3.21776 6 3.60444 6 4C5.99931 4.53022 5.78838 5.03853 5.41345 5.41345C5.03853 5.78838 4.53022 5.99931 4 6ZM20 6C19.6044 6 19.2178 5.8827 18.8889 5.66294C18.56 5.44318 18.3036 5.13082 18.1522 4.76537C18.0009 4.39992 17.9613 3.99778 18.0384 3.60982C18.1156 3.22186 18.3061 2.86549 18.5858 2.58579C18.8655 2.30608 19.2219 2.1156 19.6098 2.03843C19.9978 1.96126 20.3999 2.00087 20.7654 2.15224C21.1308 2.30362 21.4432 2.55996 21.6629 2.88886C21.8827 3.21776 22 3.60444 22 4C21.9993 4.53022 21.7884 5.03853 21.4135 5.41345C21.0385 5.78838 20.5302 5.99931 20 6ZM20 22C19.6044 22 19.2178 21.8827 18.8889 21.6629C18.56 21.4432 18.3036 21.1308 18.1522 20.7654C18.0009 20.3999 17.9613 19.9978 18.0384 19.6098C18.1156 19.2219 18.3061 18.8655 18.5858 18.5858C18.8655 18.3061 19.2219 18.1156 19.6098 18.0384C19.9978 17.9613 20.3999 18.0009 20.7654 18.1522C21.1308 18.3036 21.4432 18.56 21.6629 18.8889C21.8827 19.2178 22 19.6044 22 20C21.9993 20.5302 21.7884 21.0385 21.4135 21.4135C21.0385 21.7884 20.5302 21.9993 20 22Z" fill="#F9CA24"/>
<path id="accent" d="M16 7H8C7.44772 7 7 7.44772 7 8V16C7 16.5523 7.44772 17 8 17H16C16.5523 17 17 16.5523 17 16V8C17 7.44772 16.5523 7 16 7Z" fill="#979797" fill-opacity="0.4"/>
<path id="primary_2" d="M18.2783 5C18.0962 4.69822 18 4.35246 18 4C18 3.64754 18.0962 3.30178 18.2783 3H5.72168C5.90377 3.30178 6 3.64754 6 4C6 4.35246 5.90377 4.69822 5.72168 5H18.2783ZM20 18C20.3522 18.002 20.6974 18.0981 21 18.2783V5.72168C20.6982 5.90377 20.3525 6 20 6C19.6475 6 19.3018 5.90377 19 5.72168V18.2783C19.3026 18.0981 19.6478 18.002 20 18ZM4 18C4.35218 18.002 4.69742 18.0981 5 18.2783V5.72168C4.69822 5.90377 4.35246 6 4 6C3.64754 6 3.30178 5.90377 3 5.72168V18.2783C3.30258 18.0981 3.64782 18.002 4 18ZM18.2783 19H5.72168C5.90377 19.3018 6 19.6475 6 20C6 20.3525 5.90377 20.6982 5.72168 21H18.2783C18.0962 20.6982 18 20.3525 18 20C18 19.6475 18.0962 19.3018 18.2783 19Z" fill="#F9CA24" fill-opacity="0.4"/>
</g>
</svg>
