<svg width="24" height="24" viewBox="0 0 24 24" fill="none" xmlns="http://www.w3.org/2000/svg">
<g id="vector_square">
<path id="primary" d="M5 8C4.40666 8 3.82664 7.82405 3.33329 7.49441C2.83994 7.16477 2.45543 6.69623 2.22836 6.14805C2.0013 5.59987 1.94189 4.99667 2.05765 4.41473C2.1734 3.83279 2.45912 3.29824 2.87868 2.87868C3.29824 2.45912 3.83279 2.1734 4.41473 2.05765C4.99667 1.94189 5.59987 2.0013 6.14805 2.22836C6.69623 2.45543 7.16477 2.83994 7.49441 3.33329C7.82405 3.82664 8 4.40666 8 5C7.99913 5.79538 7.68278 6.55794 7.12036 7.12036C6.55794 7.68278 5.79538 7.99913 5 8ZM5 4C4.80222 4 4.60888 4.05865 4.44443 4.16853C4.27998 4.27841 4.15181 4.43459 4.07612 4.61732C4.00043 4.80004 3.98063 5.00111 4.01922 5.19509C4.0578 5.38907 4.15304 5.56726 4.29289 5.70711C4.43275 5.84696 4.61093 5.9422 4.80491 5.98079C4.99889 6.01937 5.19996 5.99957 5.38268 5.92388C5.56541 5.84819 5.72159 5.72002 5.83147 5.55557C5.94135 5.39112 6 5.19778 6 5C5.99974 4.73487 5.89429 4.48067 5.70682 4.29319C5.51934 4.10571 5.26514 4.00027 5 4ZM19 8C18.4067 8 17.8266 7.82405 17.3333 7.49441C16.8399 7.16477 16.4554 6.69623 16.2284 6.14805C16.0013 5.59987 15.9419 4.99667 16.0576 4.41473C16.1734 3.83279 16.4591 3.29824 16.8787 2.87868C17.2982 2.45912 17.8328 2.1734 18.4147 2.05765C18.9967 1.94189 19.5999 2.0013 20.1481 2.22836C20.6962 2.45543 21.1648 2.83994 21.4944 3.33329C21.8241 3.82664 22 4.40666 22 5C21.9991 5.79538 21.6828 6.55794 21.1204 7.12036C20.5579 7.68278 19.7954 7.99913 19 8ZM19 4C18.8022 4 18.6089 4.05865 18.4444 4.16853C18.28 4.27841 18.1518 4.43459 18.0761 4.61732C18.0004 4.80004 17.9806 5.00111 18.0192 5.19509C18.0578 5.38907 18.153 5.56726 18.2929 5.70711C18.4327 5.84696 18.6109 5.9422 18.8049 5.98079C18.9989 6.01937 19.2 5.99957 19.3827 5.92388C19.5654 5.84819 19.7216 5.72002 19.8315 5.55557C19.9414 5.39112 20 5.19778 20 5C19.9997 4.73487 19.8943 4.48067 19.7068 4.29319C19.5193 4.10571 19.2651 4.00027 19 4ZM5 22C4.40666 22 3.82664 21.8241 3.33329 21.4944C2.83994 21.1648 2.45543 20.6962 2.22836 20.1481C2.0013 19.5999 1.94189 18.9967 2.05765 18.4147C2.1734 17.8328 2.45912 17.2982 2.87868 16.8787C3.29824 16.4591 3.83279 16.1734 4.41473 16.0576C4.99667 15.9419 5.59987 16.0013 6.14805 16.2284C6.69623 16.4554 7.16477 16.8399 7.49441 17.3333C7.82405 17.8266 8 18.4067 8 19C7.99913 19.7954 7.68278 20.5579 7.12036 21.1204C6.55794 21.6828 5.79538 21.9991 5 22ZM5 18C4.80222 18 4.60888 18.0586 4.44443 18.1685C4.27998 18.2784 4.15181 18.4346 4.07612 18.6173C4.00043 18.8 3.98063 19.0011 4.01922 19.1951C4.0578 19.3891 4.15304 19.5673 4.29289 19.7071C4.43275 19.847 4.61093 19.9422 4.80491 19.9808C4.99889 20.0194 5.19996 19.9996 5.38268 19.9239C5.56541 19.8482 5.72159 19.72 5.83147 19.5556C5.94135 19.3911 6 19.1978 6 19C5.99974 18.7349 5.89429 18.4807 5.70682 18.2932C5.51934 18.1057 5.26514 18.0003 5 18ZM19 22C18.4067 22 17.8266 21.8241 17.3333 21.4944C16.8399 21.1648 16.4554 20.6962 16.2284 20.1481C16.0013 19.5999 15.9419 18.9967 16.0576 18.4147C16.1734 17.8328 16.4591 17.2982 16.8787 16.8787C17.2982 16.4591 17.8328 16.1734 18.4147 16.0576C18.9967 15.9419 19.5999 16.0013 20.1481 16.2284C20.6962 16.4554 21.1648 16.8399 21.4944 17.3333C21.8241 17.8266 22 18.4067 22 19C21.9991 19.7954 21.6828 20.5579 21.1204 21.1204C20.5579 21.6828 19.7954 21.9991 19 22ZM19 18C18.8022 18 18.6089 18.0586 18.4444 18.1685C18.28 18.2784 18.1518 18.4346 18.0761 18.6173C18.0004 18.8 17.9806 19.0011 18.0192 19.1951C18.0578 19.3891 18.153 19.5673 18.2929 19.7071C18.4327 19.847 18.6109 19.9422 18.8049 19.9808C18.9989 20.0194 19.2 19.9996 19.3827 19.9239C19.5654 19.8482 19.7216 19.72 19.8315 19.5556C19.9414 19.3911 20 19.1978 20 19C19.9997 18.7349 19.8943 18.4807 19.7068 18.2932C19.5193 18.1057 19.2651 18.0003 19 18Z" fill="#F9CA24"/>
<path id="accent" d="M16.1843 20C15.9386 19.356 15.9386 18.644 16.1843 18H7.81573C8.06142 18.644 8.06142 19.356 7.81573 20H16.1843ZM19 8C18.6585 7.9966 18.3202 7.93424 18 7.81567V16.1843C18.644 15.9386 19.356 15.9386 20 16.1843V7.81573C19.6798 7.93429 19.3415 7.99663 19 8V8ZM7.81573 4C7.93429 4.32023 7.99663 4.65854 8 5C7.99663 5.34146 7.93429 5.67977 7.81573 6H16.1843C16.0658 5.67977 16.0034 5.34146 16 5C16.0034 4.65854 16.0657 4.32023 16.1843 4H7.81573ZM5 16C5.34146 16.0034 5.67977 16.0657 6 16.1843V7.81573C5.67977 7.93429 5.34146 7.99663 5 8C4.65854 7.9966 4.32023 7.93424 4 7.81567V16.1843C4.32023 16.0657 4.65854 16.0034 5 16V16Z" fill="#979797" fill-opacity="0.4"/>
</g>
</svg>
