<svg width="24" height="24" viewBox="0 0 24 24" fill="none" xmlns="http://www.w3.org/2000/svg">
<g id="virus_slash">
<g id="primary">
<path d="M8.99998 16C9.55227 16 9.99998 15.5523 9.99998 15C9.99998 14.4477 9.55227 14 8.99998 14C8.4477 14 7.99998 14.4477 7.99998 15C7.99998 15.5523 8.4477 16 8.99998 16Z" fill="#F9CA24"/>
<path d="M15 9.99998C15.5523 9.99998 16 9.55226 16 8.99998C16 8.44769 15.5523 7.99998 15 7.99998C14.4477 7.99998 14 8.44769 14 8.99998C14 9.55226 14.4477 9.99998 15 9.99998Z" fill="#F9CA24"/>
<path d="M4.97904 17.6068L4.22166 18.3642C4.12882 18.4571 4.05516 18.5673 4.00492 18.6886C3.95467 18.8099 3.9288 18.94 3.9288 19.0713C3.9288 19.2026 3.95467 19.3326 4.00492 19.4539C4.05516 19.5752 4.12882 19.6855 4.22166 19.7783C4.40918 19.9658 4.66351 20.0712 4.92869 20.0712C5.06 20.0712 5.19002 20.0453 5.31134 19.995C5.43265 19.9448 5.54288 19.8711 5.63572 19.7783L6.39353 19.0205C5.87131 18.6029 5.39693 18.1288 4.97904 17.6068ZM19.0205 6.39353L19.7783 5.63572C19.8712 5.54287 19.9448 5.43264 19.9951 5.31133C20.0453 5.19002 20.0712 5.06 20.0712 4.92869C20.0712 4.79738 20.0453 4.66736 19.9951 4.54605C19.9448 4.42473 19.8712 4.31451 19.7783 4.22166C19.6855 4.12881 19.5752 4.05516 19.4539 4.00491C19.3326 3.95466 19.2026 3.9288 19.0713 3.9288C18.94 3.9288 18.8099 3.95466 18.6886 4.00491C18.5673 4.05516 18.4571 4.12881 18.3642 4.22166L17.6069 4.97904C18.1288 5.39692 18.6029 5.87131 19.0205 6.39353Z" fill="#F9CA24"/>
<path d="M22 23.002C21.8686 23.0021 21.7386 22.9763 21.6172 22.926C21.4959 22.8758 21.3857 22.802 21.293 22.709L1.29298 2.70898C1.10703 2.52115 1.00301 2.26732 1.00367 2.00301C1.00432 1.7387 1.10961 1.4854 1.2965 1.2985C1.4834 1.11159 1.73669 1.00629 2.001 1.00562C2.26531 1.00494 2.51914 1.10895 2.70698 1.2949L22.707 21.2949C22.8468 21.4347 22.9421 21.6129 22.9806 21.8069C23.0192 22.0008 22.9994 22.2019 22.9237 22.3846C22.8481 22.5673 22.7199 22.7235 22.5555 22.8334C22.3911 22.9433 22.1978 23.002 22 23.002Z" fill="#F9CA24"/>
</g>
<g id="primary_2">
<path d="M12 8C11.7348 8 11.4804 7.89464 11.2929 7.70711C11.1054 7.51957 11 7.26522 11 7V2C11 1.73478 11.1054 1.48043 11.2929 1.29289C11.4804 1.10536 11.7348 1 12 1C12.2652 1 12.5196 1.10536 12.7071 1.29289C12.8946 1.48043 13 1.73478 13 2V7C13 7.26522 12.8946 7.51957 12.7071 7.70711C12.5196 7.89464 12.2652 8 12 8ZM12 23C11.7348 23 11.4804 22.8946 11.2929 22.7071C11.1054 22.5196 11 22.2652 11 22V17C11 16.7348 11.1054 16.4804 11.2929 16.2929C11.4804 16.1054 11.7348 16 12 16C12.2652 16 12.5196 16.1054 12.7071 16.2929C12.8946 16.4804 13 16.7348 13 17V22C13 22.2652 12.8946 22.5196 12.7071 22.7071C12.5196 22.8946 12.2652 23 12 23ZM22 13H18C17.7348 13 17.4804 12.8946 17.2929 12.7071C17.1054 12.5196 17 12.2652 17 12C17 11.7348 17.1054 11.4804 17.2929 11.2929C17.4804 11.1054 17.7348 11 18 11H22C22.2652 11 22.5196 11.1054 22.7071 11.2929C22.8946 11.4804 23 11.7348 23 12C23 12.2652 22.8946 12.5196 22.7071 12.7071C22.5196 12.8946 22.2652 13 22 13Z" fill="#F9CA24" fill-opacity="0.4"/>
<path d="M6 13H2C1.73478 13 1.48043 12.8946 1.29289 12.7071C1.10536 12.5196 1 12.2652 1 12C1 11.7348 1.10536 11.4804 1.29289 11.2929C1.48043 11.1054 1.73478 11 2 11H6C6.26522 11 6.51957 11.1054 6.70711 11.2929C6.89464 11.4804 7 11.7348 7 12C7 12.2652 6.89464 12.5196 6.70711 12.7071C6.51957 12.8946 6.26522 13 6 13Z" fill="#F9CA24" fill-opacity="0.4"/>
<path d="M15.7463 14.3342C15.9395 14.0457 16.0267 13.6991 15.9929 13.3535C15.959 13.0079 15.8063 12.6848 15.5608 12.4392C15.3152 12.1937 14.9921 12.041 14.6465 12.0071C14.3009 11.9733 13.9543 12.0605 13.6658 12.2537L15.7463 14.3342ZM8.25232 9.66833C8.05979 9.95672 7.97318 10.3029 8.00724 10.648C8.0413 10.9931 8.19392 11.3157 8.43911 11.5609C8.6843 11.8061 9.00691 11.9587 9.35198 11.9928C9.69706 12.0268 10.0433 11.9402 10.3317 11.7477L8.25232 9.66833Z" fill="#F9CA24" fill-opacity="0.4"/>
</g>
<path id="accent" d="M17.6063 19.0224L10.3317 11.7477C10.0433 11.9402 9.69708 12.0268 9.35201 11.9928C9.00693 11.9587 8.68432 11.8061 8.43913 11.5609C8.19394 11.3157 8.04132 10.9931 8.00726 10.648C7.9732 10.303 8.05981 9.95675 8.25234 9.66835L4.97823 6.39425C3.91449 7.71634 3.24885 9.31378 3.05902 11H6.00002C6.26524 11 6.51959 11.1054 6.70713 11.2929C6.89466 11.4805 7.00002 11.7348 7.00002 12C7.00002 12.2652 6.89466 12.5196 6.70713 12.7071C6.51959 12.8947 6.26524 13 6.00002 13H3.05902C3.28896 15.0267 4.19955 16.9154 5.64197 18.3575C7.08439 19.7996 8.97332 20.7097 11 20.9392V17C11 16.7348 11.1054 16.4804 11.2929 16.2929C11.4805 16.1054 11.7348 16 12 16C12.2652 16 12.5196 16.1054 12.7071 16.2929C12.8947 16.4804 13 16.7348 13 17V20.941C14.6863 20.7512 16.2839 20.0857 17.6063 19.0224ZM9.00002 16C8.80224 16 8.6089 15.9414 8.44445 15.8315C8.28 15.7216 8.15183 15.5654 8.07614 15.3827C8.00045 15.2 7.98065 14.9989 8.01924 14.8049C8.05782 14.6109 8.15306 14.4328 8.29291 14.2929C8.43277 14.1531 8.61095 14.0578 8.80493 14.0192C8.99891 13.9807 9.19998 14.0005 9.3827 14.0761C9.56543 14.1518 9.72161 14.28 9.83149 14.4445C9.94137 14.6089 10 14.8022 10 15C10 15.2652 9.89466 15.5196 9.70713 15.7071C9.51959 15.8947 9.26524 16 9.00002 16ZM6.39248 4.98037L13.6659 12.2537C13.9543 12.0605 14.301 11.9733 14.6465 12.0072C14.9921 12.041 15.3153 12.1937 15.5608 12.4392C15.8063 12.6848 15.959 13.0079 15.9929 13.3535C16.0267 13.6991 15.9396 14.0457 15.7463 14.3342L19.0206 17.6085C20.085 16.2856 20.751 14.6873 20.941 13H18C17.7348 13 17.4804 12.8947 17.2929 12.7071C17.1054 12.5196 17 12.2652 17 12C17 11.7348 17.1054 11.4805 17.2929 11.2929C17.4804 11.1054 17.7348 11 18 11H20.9392C20.7097 8.97332 19.7996 7.08439 18.3575 5.64197C16.9154 4.19955 15.0267 3.28896 13 3.05902V7.00002C13 7.26524 12.8947 7.51959 12.7071 7.70713C12.5196 7.89466 12.2652 8.00002 12 8.00002C11.7348 8.00002 11.4805 7.89466 11.2929 7.70713C11.1054 7.51959 11 7.26524 11 7.00002V3.06087C9.31326 3.25098 7.71531 3.91669 6.39248 4.98037V4.98037ZM15 8.00002C15.1978 8.00002 15.3911 8.05867 15.5556 8.16855C15.72 8.27843 15.8482 8.43461 15.9239 8.61734C15.9996 8.80006 16.0194 9.00113 15.9808 9.19511C15.9422 9.38909 15.847 9.56728 15.7071 9.70713C15.5673 9.84698 15.3891 9.94222 15.1951 9.98081C15.0011 10.0194 14.8001 9.99959 14.6173 9.9239C14.4346 9.84821 14.2784 9.72004 14.1686 9.55559C14.0587 9.39114 14 9.1978 14 9.00002C14 8.7348 14.1054 8.48045 14.2929 8.29291C14.4805 8.10538 14.7348 8.00002 15 8.00002V8.00002Z" fill="#979797" fill-opacity="0.4"/>
</g>
</svg>
