<svg width="24" height="24" viewBox="0 0 24 24" fill="none" xmlns="http://www.w3.org/2000/svg">
<g id="vk_alt">
<path id="accent" d="M15.0625 23H8.92725C2.77783 23 1 21.2197 1 15.0625V8.92676C1 2.77832 2.78027 1 8.9375 1H15.0728C21.2222 1 23 2.78027 23 8.9375V15.0732C23 21.2217 21.2197 23 15.0625 23Z" fill="#979797" fill-opacity="0.4"/>
<g id="primary">
<path d="M11.6543 17.002C11.4439 17.0018 11.239 16.9355 11.0683 16.8126C8.19482 14.7601 6.25283 11.6516 5.66844 8.16901C5.57621 7.62455 5.94282 7.1084 6.48728 7.01617C7.03174 6.92394 7.54789 7.29054 7.64012 7.83501C8.0162 10.0903 9.06714 12.1785 10.6543 13.8243V8.00201C10.6543 7.44973 11.102 7.00201 11.6543 7.00201C12.2066 7.00201 12.6543 7.44973 12.6543 8.00201V16.002C12.6545 16.554 12.2063 17.0018 11.6543 17.002C11.6546 17.002 11.654 17.002 11.6543 17.002Z" fill="#F9CA24"/>
<path d="M16.6548 17.002C16.3744 17.0023 16.1068 16.8846 15.9175 16.6778L14.2695 14.8809C13.8326 14.4054 13.2744 14.058 12.6548 13.876L12.6543 16.002C12.6545 16.554 12.2063 17.0018 11.6543 17.002C11.6546 17.002 11.654 17.002 11.6543 17.002C11.1021 17.0022 10.6544 16.5547 10.6543 16.0026C10.6543 16.0027 10.6543 16.0024 10.6543 16.0026V12.7315C10.6541 12.1794 11.1016 11.7317 11.6537 11.7315C11.6536 11.7315 11.6539 11.7315 11.6537 11.7315C13.2082 11.733 14.6917 12.3849 15.7436 13.5294L17.3911 15.3262C17.7645 15.733 17.7374 16.3654 17.3307 16.7388C17.1463 16.908 16.9051 17.002 16.6548 17.002Z" fill="#F9CA24"/>
<path d="M11.6499 14.96C11.0977 14.9602 10.65 14.5127 10.6499 13.9605C10.6499 13.9607 10.6499 13.9604 10.6499 13.9605V8.04001C10.6499 7.48773 11.0976 7.04001 11.6499 7.04001C12.2022 7.04001 12.6499 7.48773 12.6499 8.04001V13.96C12.65 14.5122 12.202 14.9599 11.6499 14.96C11.6501 14.96 11.6497 14.96 11.6499 14.96Z" fill="#F9CA24"/>
<path d="M12.5703 13.8301C12.0179 13.8302 11.57 13.3825 11.5699 12.8301C11.5698 12.424 11.8152 12.0582 12.1909 11.9043C13.9544 11.1778 15.254 9.6386 15.6748 7.77831C15.7939 7.23902 16.3276 6.89841 16.8669 7.01752C17.4062 7.13663 17.7468 7.67037 17.6277 8.20966C17.6268 8.21367 17.6259 8.21767 17.625 8.22167C17.0594 10.7173 15.315 12.7818 12.9487 13.7559C12.8286 13.805 12.7001 13.8302 12.5703 13.8301ZM11.6543 9.00201H11.6513L10.997 9.00001C10.4449 8.99802 9.99873 8.54921 9.99998 7.99708C10.017 7.45138 10.4571 7.01389 11.0029 7.00001L11.6572 7.00196C12.2095 7.00277 12.6565 7.45114 12.6557 8.00342C12.6549 8.55571 12.2066 9.00281 11.6543 9.00201Z" fill="#F9CA24"/>
</g>
</g>
</svg>
