<svg width="24" height="24" viewBox="0 0 24 24" fill="none" xmlns="http://www.w3.org/2000/svg">
<g id="vk">
<path id="accent" d="M18.1458 16.2708H16.6875C16.1355 16.2708 15.9687 15.8229 14.9792 14.8333C14.1146 14 13.75 13.8958 13.5312 13.8958C13.2292 13.8958 13.1458 13.9791 13.1458 14.3958V15.7083C13.1458 16.0625 13.0312 16.2708 12.1042 16.2708C10.2792 16.1482 8.62432 15.156 7.65625 13.6041C6.52336 12.194 5.73511 10.539 5.35419 8.77079C5.35419 8.55204 5.43748 8.35411 5.85419 8.35411H7.31248C7.68748 8.35411 7.82294 8.52079 7.96875 8.90623C8.67706 10.9895 9.88544 12.802 10.375 12.802C10.5625 12.802 10.6458 12.7187 10.6458 12.25V10.1041C10.5833 9.12498 10.0625 9.04161 10.0625 8.68748C10.0767 8.49322 10.2429 8.34552 10.4375 8.35411H12.7292C13.0417 8.35411 13.1458 8.51036 13.1458 8.88536V11.7812C13.1458 12.0937 13.2812 12.1979 13.375 12.1979C13.5625 12.1979 13.7083 12.0937 14.0521 11.75C14.7907 10.8492 15.3943 9.84557 15.8437 8.77079C15.938 8.505 16.1979 8.33462 16.4792 8.35411H17.9375C18.375 8.35411 18.4687 8.57286 18.375 8.88536C17.8444 10.0737 17.1878 11.2017 16.4167 12.25C16.2604 12.4895 16.1979 12.6145 16.4167 12.8958C16.5625 13.1145 17.0729 13.5416 17.4167 13.9479C17.9167 14.4466 18.3318 15.0237 18.6458 15.6562C18.7708 16.0625 18.5625 16.2708 18.1458 16.2708Z" fill="#979797" fill-opacity="0.4"/>
<path id="primary" d="M15.0729 2H8.9375C3.33331 2 2 3.33331 2 8.92706V15.0625C2 20.6666 3.32294 22 8.92706 22H15.0625C20.6667 22 22 20.6771 22 15.0729V8.9375C22 3.33331 20.6771 2 15.0729 2ZM18.1458 16.2708H16.6875C16.1355 16.2708 15.9688 15.8229 14.9792 14.8333C14.1146 14 13.75 13.8958 13.5312 13.8958C13.2292 13.8958 13.1458 13.9791 13.1458 14.3958V15.7083C13.1458 16.0625 13.0312 16.2708 12.1042 16.2708C10.2792 16.1482 8.62432 15.1561 7.65624 13.6041C6.52337 12.194 5.7351 10.5391 5.35418 8.77081C5.35418 8.55206 5.43749 8.35412 5.85418 8.35412H7.3125C7.6875 8.35412 7.82294 8.52081 7.96875 8.90624C8.67706 10.9896 9.88544 12.802 10.375 12.802C10.5625 12.802 10.6458 12.7187 10.6458 12.25V10.1041C10.5833 9.125 10.0625 9.04163 10.0625 8.6875C10.0767 8.49323 10.2429 8.34552 10.4375 8.35413H12.7292C13.0417 8.35413 13.1458 8.51038 13.1458 8.88538V11.7812C13.1458 12.0938 13.2813 12.1979 13.375 12.1979C13.5625 12.1979 13.7083 12.0938 14.0521 11.75C14.7908 10.8492 15.3943 9.84558 15.8438 8.77081C15.938 8.505 16.1979 8.33465 16.4792 8.35412H17.9375C18.375 8.35412 18.4688 8.57287 18.375 8.88537C17.8444 10.0737 17.1879 11.2017 16.4167 12.25C16.2605 12.4896 16.198 12.6145 16.4167 12.8958C16.5625 13.1145 17.073 13.5416 17.4167 13.9479C17.9167 14.4466 18.3319 15.0237 18.6458 15.6562C18.7708 16.0625 18.5625 16.2708 18.1458 16.2708Z" fill="#F9CA24"/>
</g>
</svg>
