<svg width="24" height="24" viewBox="0 0 24 24" fill="none" xmlns="http://www.w3.org/2000/svg">
<g id="vuejs">
<path id="primary" d="M6.97589 3.43329L10.6221 3.43458L12.0057 5.39058L13.38 3.43458L17.0233 3.43384L12.0238 11.8404L6.97589 3.43329Z" fill="#F9CA24"/>
<path id="primary_2" d="M14.5996 2.42999C14.2739 2.42996 13.9686 2.58853 13.7813 2.85499L12 5.38999L10.2088 2.85319C10.0214 2.58779 9.71679 2.42996 9.39191 2.42999H6.38L9.93001 8.34999L12.03 11.85L14.1 8.34999L17.62 2.42999H14.5996Z" fill="#F9CA24"/>
<path id="accent" d="M22.001 2.43848L17.617 2.43506L14.1 8.34998L12.03 11.85L9.92997 8.34998L6.38407 2.43683L1.99462 2.46094C1.81841 2.46179 1.64562 2.50922 1.49364 2.59839C1.01732 2.87787 0.857778 3.49048 1.1372 3.9668L11.1567 21.0723C11.3364 21.3783 11.6647 21.5663 12.0195 21.5664H12.0205C12.376 21.5661 12.7046 21.3773 12.8838 21.0703L22.8642 3.94239C22.9531 3.78986 23 3.61652 23.0002 3.44C23.0008 2.88751 22.5535 2.43915 22.001 2.43848Z" fill="#979797" fill-opacity="0.4"/>
</g>
</svg>
