<svg width="24" height="24" viewBox="0 0 24 24" fill="none" xmlns="http://www.w3.org/2000/svg">
<g id="web_section_alt">
<path id="primary" d="M9.9 2H8.10001C8.00155 2.32358 7.96758 2.66333 8.00001 3V21C7.96758 21.3367 8.00155 21.6764 8.10001 22H9.9C9.99846 21.6764 10.0324 21.3367 10 21V3C10.0324 2.66333 9.99846 2.32358 9.9 2Z" fill="#F9CA24" fill-opacity="0.4"/>
<path id="primary_2" d="M3 2H8V22H3C2.44772 22 2 21.5523 2 21V3C2 2.44772 2.44772 2 3 2Z" fill="#F9CA24"/>
<path id="accent" d="M10 2H21C21.5523 2 22 2.44772 22 3V21C22 21.5523 21.5523 22 21 22H10V2Z" fill="#979797" fill-opacity="0.4"/>
</g>
</svg>
