<svg width="25" height="25" viewBox="0 0 25 25" fill="none" xmlns="http://www.w3.org/2000/svg">
<g id="weigts">
<g id="Group 9">
<g id="Group">
<g id="accent">
<path d="M22.2449 6.55088C20.5187 5.18264 18.9757 3.63539 17.6032 1.91338C17.275 1.6619 16.9126 1.44451 16.6313 1.1504C15.7874 0.280872 14.7729 -0.409639 13.7798 0.630389C12.7696 1.68747 14.1421 2.25437 14.6237 3.00455C15.2077 3.92097 16.8061 4.19377 16.3799 5.74955C17.5861 5.89447 18.2596 6.56793 18.4045 7.77419C20.1947 7.44173 20.5059 9.27456 21.5885 9.97786C22.2321 10.3998 22.782 11.1287 23.5492 10.3913C24.244 9.71785 24.1289 8.88242 23.5705 8.13649C23.1571 7.59091 22.6882 7.07942 22.2449 6.55088Z" fill="#979797" fill-opacity="0.4"/>
<path d="M5.8474 16.2819C4.05719 16.6187 3.75031 14.7816 2.66339 14.0783C2.01977 13.6563 1.46566 12.9317 0.702693 13.6648C0.00792021 14.334 0.118718 15.1737 0.677094 15.9196C1.09055 16.4695 1.55519 16.981 1.99848 17.5053C3.72902 18.8735 5.27623 20.4207 6.64447 22.147C6.97267 22.3985 7.33073 22.6159 7.61631 22.91C8.46027 23.7795 9.47901 24.4615 10.4679 23.4215C11.4781 22.3644 10.1056 21.7975 9.62394 21.0473C9.03999 20.1309 7.44154 19.8538 7.86778 18.3023C6.66578 18.1617 5.99232 17.4882 5.8474 16.2819Z" fill="#979797" fill-opacity="0.4"/>
</g>
<g id="accent_2">
<path d="M22.2449 6.55084C23.6046 6.5892 24.2227 6.00099 23.7623 4.64128C23.5918 4.13832 23.0633 3.78027 23.0846 3.17075C22.0105 2.84681 21.3114 2.14777 20.9832 1.07364C19.777 1.03102 17.9655 -1.44118 17.6074 1.91334C18.9756 3.63962 20.5229 5.1826 22.2449 6.55084Z" fill="#979797" fill-opacity="0.7"/>
<path d="M1.99849 17.5095C0.625997 17.4754 0.0207221 18.0764 0.49385 19.4361C0.668609 19.9391 1.18861 20.3057 1.17583 20.9109C2.25848 21.205 2.94898 21.8913 3.24308 22.9739C4.45361 23.008 6.2566 25.4973 6.64448 22.1513C5.27625 20.425 3.72903 18.8735 1.99849 17.5095Z" fill="#979797" fill-opacity="0.7"/>
</g>
<g id="primary">
<path d="M16.3798 5.7538C12.8676 9.26176 9.35959 12.774 5.84736 16.2819C5.99229 17.4839 6.66575 18.1617 7.87201 18.3066C11.3842 14.7986 14.8922 11.2864 18.4045 7.77844C18.2595 6.57218 17.5861 5.89872 16.3798 5.7538Z" fill="#FFD740"/>
<path d="M23.0845 3.17502C24.3675 1.53826 24.3803 0.387411 23.1229 0.06773C22.134 -0.183752 21.6566 0.655941 20.9874 1.07792C21.3114 2.14778 22.0104 2.85108 23.0845 3.17502Z" fill="#FFD740"/>
<path d="M1.17573 20.9067C0.549152 21.7165 -0.45676 22.5818 0.553431 23.592C1.56362 24.6022 2.43313 23.5962 3.24299 22.9697C2.94888 21.8913 2.26264 21.2008 1.17573 20.9067Z" fill="#FFD740"/>
</g>
</g>
</g>
</g>
</svg>
