<svg width="24" height="24" viewBox="0 0 24 24" fill="none" xmlns="http://www.w3.org/2000/svg">
<g id="whatsapp">
<path id="primary" d="M21.9902 6.54663C21.9817 6.11756 21.9471 5.6894 21.8867 5.26453C21.8149 4.88709 21.6931 4.52094 21.5243 4.17578C21.1543 3.44435 20.5606 2.85 19.8295 2.47913C19.4864 2.31084 19.1224 2.18906 18.7471 2.117C18.319 2.05533 17.8875 2.02011 17.4551 2.01154C17.2716 2.00488 17.0342 2.00159 16.9246 2.00159L7.0769 2C6.96777 2 6.73029 2.0033 6.54663 2.00983C6.11756 2.01826 5.6894 2.05283 5.26453 2.11334C4.8871 2.18505 4.52094 2.30688 4.17578 2.47559C3.44436 2.84574 2.85001 3.43945 2.47906 4.17047C2.31082 4.51361 2.18905 4.87763 2.11694 5.25293C2.05532 5.68103 2.0201 6.11251 2.01147 6.54493C2.00494 6.7284 2.00159 6.96583 2.00159 7.07533L2 16.9231C2 17.0322 2.0033 17.2696 2.00983 17.4534C2.01826 17.8824 2.05283 18.3106 2.11334 18.7355C2.18506 19.1129 2.30689 19.4791 2.47559 19.8242C2.84572 20.5556 3.43941 21.15 4.17041 21.5209C4.51357 21.6891 4.87761 21.8109 5.25293 21.883C5.68102 21.9447 6.1125 21.9799 6.54493 21.9885C6.72834 21.9951 6.96583 21.9984 7.07533 21.9984L16.9231 22C17.0322 22 17.2697 21.9967 17.4533 21.9902C17.8824 21.9817 18.3106 21.9471 18.7355 21.8867C19.1129 21.8149 19.479 21.6931 19.8242 21.5244C20.5556 21.1543 21.1499 20.5606 21.5209 19.8295C21.6891 19.4864 21.8109 19.1224 21.883 18.7471C21.9447 18.319 21.9799 17.8875 21.9885 17.4551C21.9951 17.2716 21.9984 17.0342 21.9984 16.9247L22 7.0769C22 6.96783 21.9967 6.73029 21.9902 6.54663ZM12.2167 18.9565H12.2138C11.0235 18.9564 9.85226 18.6582 8.80688 18.0891L5.02759 19.08L6.039 15.3869C5.25543 14.0273 4.94229 12.4472 5.14815 10.8915C5.354 9.33583 6.06735 7.89153 7.17758 6.78253C8.28781 5.67353 9.73291 4.9618 11.2888 4.75768C12.8447 4.55355 14.4245 4.86845 15.7832 5.65354C17.1419 6.43862 18.2037 7.65004 18.8039 9.09997C19.404 10.5499 19.5091 12.1573 19.1027 13.673C18.6964 15.1887 17.8013 16.528 16.5563 17.4833C15.3113 18.4385 13.786 18.9564 12.2167 18.9565Z" fill="#F9CA24" fill-opacity="0.4"/>
<path id="primary_2" d="M12.219 5.90112C11.1602 5.90088 10.1206 6.18431 9.20842 6.72194C8.29622 7.25958 7.54471 8.03179 7.03206 8.95826C6.5194 9.88473 6.26432 10.9316 6.29333 11.9901C6.32235 13.0485 6.6344 14.0799 7.19705 14.9769L7.33799 15.201L6.73936 17.3869L8.98199 16.7987L9.19836 16.9271C10.1115 17.4678 11.1531 17.753 12.2143 17.7528H12.2167C13.787 17.7511 15.2924 17.1262 16.4023 16.0153C17.5122 14.9045 18.1358 13.3985 18.1361 11.8282C18.1364 10.2578 17.5134 8.75161 16.404 7.64029C15.2946 6.52898 13.7894 5.90346 12.2191 5.90112H12.219ZM15.7045 14.3711C15.5733 14.5876 15.3988 14.7745 15.1918 14.9203C14.9849 15.066 14.7501 15.1673 14.5021 15.2179C14.1277 15.2819 13.7435 15.2578 13.3801 15.1474C13.0352 15.0402 12.6962 14.915 12.3646 14.7722C11.1343 14.1548 10.0857 13.2282 9.32156 12.0833C8.90496 11.5531 8.65217 10.9129 8.59421 10.2411C8.58926 9.96378 8.64214 9.68844 8.74949 9.43266C8.85683 9.17688 9.01628 8.94627 9.21768 8.75552C9.2772 8.68763 9.35013 8.63279 9.43188 8.59444C9.51362 8.55609 9.60242 8.53506 9.69268 8.53268C9.81139 8.53268 9.93029 8.53378 10.034 8.53897C10.1434 8.5444 10.2903 8.49741 10.4349 8.8447C10.5833 9.2012 10.9396 10.0777 10.9841 10.1668C11.0123 10.2135 11.0284 10.2665 11.031 10.321C11.0336 10.3754 11.0226 10.4297 10.9989 10.4788C10.954 10.5859 10.8941 10.6859 10.8208 10.776C10.7317 10.88 10.6337 11.0081 10.5536 11.088C10.4644 11.1768 10.3716 11.2731 10.4754 11.4514C10.743 11.9093 11.077 12.325 11.4664 12.685C11.8889 13.0607 12.3737 13.3598 12.8989 13.5689C13.077 13.6581 13.1809 13.6432 13.2849 13.5244C13.3888 13.4055 13.7302 13.0044 13.8489 12.8261C13.9676 12.6479 14.0864 12.6776 14.2496 12.737C14.4129 12.7965 15.2887 13.2272 15.4669 13.3164C15.6451 13.4055 15.7638 13.4501 15.8083 13.5244C15.8571 13.8107 15.821 14.1051 15.7045 14.3712V14.3711Z" fill="#F9CA24"/>
</g>
</svg>
