<svg width="24" height="24" viewBox="0 0 24 24" fill="none" xmlns="http://www.w3.org/2000/svg">
<g id="wrap_text">
<path id="accent" d="M21 7.16699H3C2.73478 7.16699 2.48043 7.06164 2.29289 6.8741C2.10536 6.68656 2 6.43221 2 6.16699C2 5.90178 2.10536 5.64742 2.29289 5.45989C2.48043 5.27235 2.73478 5.16699 3 5.16699H21C21.2652 5.16699 21.5196 5.27235 21.7071 5.45989C21.8946 5.64742 22 5.90178 22 6.16699C22 6.43221 21.8946 6.68656 21.7071 6.8741C21.5196 7.06164 21.2652 7.16699 21 7.16699ZM9 17.167H3C2.73478 17.167 2.48043 17.0616 2.29289 16.8741C2.10536 16.6866 2 16.4322 2 16.167C2 15.9018 2.10536 15.6474 2.29289 15.4599C2.48043 15.2723 2.73478 15.167 3 15.167H9C9.26522 15.167 9.51957 15.2723 9.70711 15.4599C9.89464 15.6474 10 15.9018 10 16.167C10 16.4322 9.89464 16.6866 9.70711 16.8741C9.51957 17.0616 9.26522 17.167 9 17.167Z" fill="#979797" fill-opacity="0.4"/>
<path id="primary" d="M18.5 17.167H15C14.7348 17.167 14.4804 17.0616 14.2929 16.8741C14.1054 16.6866 14 16.4322 14 16.167C14 15.9018 14.1054 15.6474 14.2929 15.4599C14.4804 15.2723 14.7348 15.167 15 15.167H18.5C18.8978 15.167 19.2794 15.009 19.5607 14.7277C19.842 14.4463 20 14.0648 20 13.667C20 13.2692 19.842 12.8876 19.5607 12.6063C19.2794 12.325 18.8978 12.167 18.5 12.167H3C2.73478 12.167 2.48043 12.0616 2.29289 11.8741C2.10536 11.6866 2 11.4322 2 11.167C2 10.9018 2.10536 10.6474 2.29289 10.4599C2.48043 10.2723 2.73478 10.167 3 10.167H18.5C18.9596 10.167 19.4148 10.2575 19.8394 10.4334C20.264 10.6093 20.6499 10.8671 20.9749 11.1921C21.2999 11.5171 21.5577 11.903 21.7336 12.3276C21.9095 12.7522 22 13.2074 22 13.667C22 14.1266 21.9095 14.5817 21.7336 15.0064C21.5577 15.431 21.2999 15.8169 20.9749 16.1419C20.6499 16.4669 20.264 16.7247 19.8394 16.9006C19.4148 17.0765 18.9596 17.167 18.5 17.167Z" fill="#F9CA24"/>
<path id="primary_2" d="M14.999 18.833C14.7655 18.8331 14.5395 18.7512 14.3603 18.6015L12.3603 16.9355C12.2476 16.8417 12.1569 16.7242 12.0946 16.5915C12.0324 16.4587 12 16.3139 11.9999 16.1672C11.9998 16.0206 12.032 15.8757 12.0941 15.7428C12.1562 15.61 12.2467 15.4924 12.3593 15.3984L14.3593 13.7314C14.5631 13.5615 14.8261 13.4796 15.0904 13.5036C15.3547 13.5275 15.5986 13.6555 15.7685 13.8594C15.9384 14.0632 16.0203 14.3262 15.9964 14.5904C15.9724 14.8547 15.8444 15.0986 15.6405 15.2685L14.5624 16.167L15.6396 17.0644C15.7976 17.196 15.9112 17.3731 15.965 17.5715C16.0188 17.77 16.01 17.9802 15.94 18.1736C15.87 18.3669 15.7421 18.5339 15.5737 18.6519C15.4053 18.7699 15.2046 18.8332 14.999 18.833Z" fill="#F9CA24"/>
</g>
</svg>
