<svg width="24" height="24" viewBox="0 0 24 24" fill="none" xmlns="http://www.w3.org/2000/svg">
<g id="youtube">
<path id="accent" d="M15.6635 11.775C13.6465 10.697 11.7151 9.69749 9.74091 8.66284V14.8528C11.8184 13.7234 14.0085 12.6888 15.6721 11.7664L15.6635 11.775Z" fill="#979797" fill-opacity="0.4"/>
<path id="primary" d="M22.9738 9.71459C23.0205 8.28325 22.7064 6.86315 22.0604 5.58501C21.6287 5.05162 21.0201 4.69078 20.3449 4.56786C17.5729 4.3272 14.7903 4.22936 12.0082 4.27483C9.22617 4.22912 6.44369 4.32696 3.67178 4.56786C3.12265 4.6704 2.61423 4.92754 2.20615 5.30907C1.31149 6.13842 1.24618 7.55999 1.11148 8.7575C0.963898 10.916 0.963898 13.082 1.11148 15.2405C1.13583 15.9164 1.23703 16.5874 1.41312 17.2404C1.53238 17.746 1.7753 18.2142 2.12003 18.6028C2.52817 19.005 3.04776 19.2751 3.61142 19.3782C5.76724 19.6453 7.93973 19.7549 10.1115 19.706V19.7061C13.6056 19.762 16.6843 19.7028 20.3098 19.4301C20.8892 19.3307 21.4246 19.0571 21.8444 18.6457C22.1172 18.3745 22.3238 18.044 22.4481 17.68C22.8097 16.5847 22.9873 15.4371 22.9738 14.2838C23.0081 13.6887 23.0081 10.3097 22.9738 9.71459ZM15.6635 11.7749C15.6623 11.7742 15.661 11.7736 15.6598 11.7729C14.8306 12.2322 13.8722 12.7192 12.8617 13.2319C11.8465 13.7471 10.7797 14.288 9.74094 14.8527V8.66283V8.66277C10.7281 9.1801 11.7044 9.68871 12.6862 10.2026C13.6667 10.7159 14.6526 11.2346 15.6598 11.7729C15.6636 11.7707 15.6682 11.7685 15.6721 11.7664L15.6635 11.7749Z" fill="#F9CA24"/>
</g>
</svg>
